<svg xmlns="http://www.w3.org/2000/svg" xml:space="preserve" style="fill-rule:evenodd;clip-rule:evenodd;stroke-linejoin:round;stroke-miterlimit:2" viewBox="0 0 50 50"><path d="M0 0h50v50H0z" style="fill:none"/><path d="m25 1 20.785 12v24L25 49 4.215 37V13z" style="fill:#10273d"/><path d="m25 0 21.651 12.5v25L25 50 3.349 37.5v-25zm0 2.309 19.651 11.346v22.69L25 47.691 5.349 36.345v-22.69z" style="fill:#0077af"/><path d="M28.249 41.302c-.883-.487-2.197-.778-2.197-.778s-1.323-.216-2.578-.582c-1.224-.357-2.38-.864-2.38-.864s.26.646.12 1.093c-.117.373-.637.559-.637.559s.742.312 1.136.362c.947.12 2.869.084 4.547.356 1.488.242 1.807.677 1.807.677s-.182.191-.821.294c-.912.147-2.278.119-2.278.119l.981.93s1.075.131 2.004-.138c.85-.246 1.56-.895 1.56-.895s-.417-.665-1.264-1.133m-9.686-5.427c-.536-.763-1.808-2.324-1.808-2.324s-.095.751-.32 1.426c-.184.552-.506 1.053-.506 1.053s-.637.094-1.449.023c-1.164-.103-2.632-.384-2.632-.384s1.859 2.279 2.737 2.996c.737.601 1.157.987 2.536 1.306 1.41.326 3.043-.015 3.043-.015s.174-.932-.194-1.822c-.428-1.035-.898-1.533-1.407-2.259m19.121-4.476c.657-.656 3.32-.638 4.341-.766-1.021-.127-3.613-.038-4.341-.766-.766-.766-.638-3.319-.766-4.342-.128 1.023 0 3.576-.766 4.342s-3.32.703-4.342.767c1.021.064 3.576-.001 4.342.765.766.767.638 3.321.766 4.342.128-1.021 0-3.575.766-4.342m-23.873-4.098s-.262.548-.596 1.049c-.281.422-.643.811-.643.811s-1.191-.508-2.187-1.281c-1.399-1.086-2.492-3.064-2.41-3.162 0 0 .224 3.759.774 5.269.521 1.427.926 2.583 2.53 3.79 1.519 1.142 3.72.91 3.72.91s.35-.931.338-1.962c-.014-1.134-.172-1.604-.39-2.377-.254-.903-1.136-3.047-1.136-3.047m12.466-.5c1.094-1.094 5.533-1.063 7.236-1.277-1.703-.212-6.022-.063-7.236-1.276C25 22.971 25.213 18.715 25 17.011c-.213 1.704 0 5.96-1.277 7.237s-5.533 1.171-7.236 1.277c1.702.107 5.959 0 7.236 1.276s1.064 5.534 1.277 7.236c.213-1.702 0-5.959 1.277-7.236m-12.569-6.318s-.456.328-.941.517c-.443.172-.919.285-.919.285s-.843-.74-1.167-1.496c-.492-1.148-.538-2.56-.538-2.56s-1.416 2.383-1.549 3.719c-.134 1.354-.08 2.445.906 4.052.916 1.493 2.5 2.5 2.5 2.5s.655-.576 1.006-1.441c.371-.915.357-1.33.443-2.012.117-.929.259-3.564.259-3.564m18.868-1.001c.657-.657 3.319-.638 4.341-.767-1.021-.127-3.613-.038-4.341-.766-.766-.766-.639-3.319-.766-4.342-.128 1.023 0 3.576-.766 4.342-.767.766-3.32.703-4.342.767 1.021.064 3.575-.001 4.342.766.766.766.638 3.32.765 4.341.128-1.021.001-3.575.767-4.341m-16.131-5.765s-.485.21-.937.283c-.329.053-.81-.025-.81-.025s-.106-.363-.071-.983c.041-.739.372-1.754.372-1.754s-2.027 1.678-2.634 2.686c-.605 1.002-.825 1.765-.865 3.361-.037 1.473.607 2.715.607 2.715s.773-.217 1.393-.9c.645-.711.819-1.049 1.137-1.664.476-.919 1.808-3.719 1.808-3.719m1.291-1.614c1.542-.949 2.997-3.603 2.997-3.603s-.512.028-1.194.403c-.849.467-1.906 1.301-1.906 1.301l.103-1.033s-.841.667-1.378 1.549c-.548.9-.791 2.015-.791 2.015-.047-.046.862.172 2.169-.632" style="fill:#f1de7f"/></svg>