<?xml version="1.0" encoding="UTF-8" standalone="no"?><!DOCTYPE svg PUBLIC "-//W3C//DTD SVG 1.1//EN" "http://www.w3.org/Graphics/SVG/1.1/DTD/svg11.dtd"><svg width="100%" height="100%" viewBox="0 0 50 50" version="1.1" xmlns="http://www.w3.org/2000/svg" xmlns:xlink="http://www.w3.org/1999/xlink" xml:space="preserve" xmlns:serif="http://www.serif.com/" style="fill-rule:evenodd;clip-rule:evenodd;stroke-linejoin:round;stroke-miterlimit:2;"><rect id="focus-dominion" x="0" y="0" width="50" height="50" style="fill:none;"/><g id="focus-dominion1" serif:id="focus-dominion"><g id="Focus-Frame" serif:id="Focus Frame"><path d="M25,1L45.785,13L45.785,37L25,49L4.215,37L4.215,13L25,1Z" style="fill:#10273d;"/><path d="M25,0L46.651,12.5L46.651,37.5L25,50L3.349,37.5L3.349,12.5L25,0ZM25,2.309L44.651,13.655C44.651,13.655 44.651,36.345 44.651,36.345C44.651,36.345 25,47.691 25,47.691C25,47.691 5.349,36.345 5.349,36.345C5.349,36.345 5.349,13.655 5.349,13.655L25,2.309Z" style="fill:#0077af;"/></g><g id="Dominion"><path id="Dominion1" serif:id="Dominion" d="M13.83,23.236L16.615,23.236L16.615,24.025L13.83,24.025L13.83,23.236ZM19.725,19.569L20.7,19.569C20.793,20.528 21.025,21.364 21.397,22.076C21.768,22.787 22.294,23.159 22.975,23.19L22.975,23.979C22.325,24.01 21.807,24.381 21.42,25.093C21.033,25.805 20.793,26.656 20.7,27.646L19.725,27.646C19.633,26.656 19.393,25.805 19.006,25.093C18.619,24.381 18.101,24.01 17.451,23.979L17.451,23.19C18.132,23.159 18.658,22.787 19.029,22.076C19.401,21.364 19.633,20.528 19.725,19.569ZM28.638,7.593L30.17,7.5L30.17,42.5L19.725,42.5L19.725,29.038L20.747,29.038L20.747,36.744C20.747,37.58 20.917,38.206 21.257,38.624C21.598,39.042 22.046,39.251 22.603,39.251C23.748,39.251 24.708,38.554 25.481,37.162C26.193,35.924 26.812,33.974 27.338,31.313C27.833,28.961 28.189,25.727 28.406,21.611C28.561,18.176 28.638,13.504 28.638,7.593Z" style="fill:#bb81e4;fill-rule:nonzero;"/></g></g></svg>