<svg xmlns="http://www.w3.org/2000/svg" xml:space="preserve" style="fill-rule:evenodd;clip-rule:evenodd;stroke-linejoin:round;stroke-miterlimit:2" viewBox="0 0 50 50"><path d="M0 0h50v50H0z" style="fill:none"/><path d="m25 1 20.785 12v24L25 49 4.215 37V13z" style="fill:#10273d"/><path d="m25 0 21.651 12.5v25L25 50 3.349 37.5v-25zm0 2.309 19.651 11.346v22.69L25 47.691 5.349 36.345v-22.69z" style="fill:#0077af"/><path d="M14.294 33.191a1.646 1.646 0 1 1 1.647 0v3.736a1.646 1.646 0 1 1-1.647 0zm2.471-18.118a1.646 1.646 0 1 1 1.647 0v6.468L25 28.129V40h-6.588v-3.294h1.647v-5.424l-8.235-8.235v-7.974a1.648 1.648 0 1 1 1.647 0v7.292l8.235 8.235v6.106h1.647v-7.894l-6.588-6.589zm8.662 10.048q-.206.055-.427.055a1.648 1.648 0 1 1 1.591-1.22l1.703 1.703v10.223h7.633a1.648 1.648 0 1 1 0 1.647h-9.28V26.341zm10.279-12.297V12H39v8.235h-2.129l-5.283 5.283v5.423h4.339a1.648 1.648 0 1 1 1.426 2.471 1.65 1.65 0 0 1-1.426-.824h-5.986v-7.753l5.765-5.764v-4.6h-2.13l-4.941 4.941h-3.856a1.646 1.646 0 1 1 0-1.647h3.174l3.294-3.294h-6.468a1.646 1.646 0 1 1 0-1.647z" style="fill:#f1de7f"/></svg>