<?xml version="1.0" encoding="UTF-8" standalone="no"?><!DOCTYPE svg PUBLIC "-//W3C//DTD SVG 1.1//EN" "http://www.w3.org/Graphics/SVG/1.1/DTD/svg11.dtd"><svg width="100%" height="100%" viewBox="0 0 50 50" version="1.1" xmlns="http://www.w3.org/2000/svg" xmlns:xlink="http://www.w3.org/1999/xlink" xml:space="preserve" xmlns:serif="http://www.serif.com/" style="fill-rule:evenodd;clip-rule:evenodd;stroke-linejoin:round;stroke-miterlimit:2;"><rect id="focus-tractor-beam" x="0" y="0" width="50" height="50" style="fill:none;"/><g id="focus-tractor-beam1" serif:id="focus-tractor-beam"><g id="Focus-Frame" serif:id="Focus Frame"><path d="M25,1L45.785,13L45.785,37L25,49L4.215,37L4.215,13L25,1Z" style="fill:#10273d;"/><path d="M25,0L46.651,12.5L46.651,37.5L25,50L3.349,37.5L3.349,12.5L25,0ZM25,2.309L44.651,13.655C44.651,13.655 44.651,36.345 44.651,36.345C44.651,36.345 25,47.691 25,47.691C25,47.691 5.349,36.345 5.349,36.345C5.349,36.345 5.349,13.655 5.349,13.655L25,2.309Z" style="fill:#0077af;"/></g><g id="Traktor-Beam" serif:id="Traktor Beam"><path id="Traktor-Beam1" serif:id="Traktor Beam" d="M13.624,12.917L13.333,13.111L11,11.556L13.333,10L15.667,11.556L14.393,12.405L39,32.123L39,33.299L14.361,12.426L14.302,12.465L39,35.649L39,38L37.59,38L14.219,12.521L14.186,12.543L36.179,38L33.923,38L14.131,12.58L14.071,12.619L31.667,38L29.974,38L14.023,12.651L13.989,12.674L28.846,38L27.154,38L13.936,12.709L13.88,12.747L25.462,38L23.769,38L13.819,12.787L13.732,12.845L21.513,38L18.974,38L13.624,12.917Z" style="fill:#f1de7f;"/></g></g></svg>