<?xml version="1.0" encoding="UTF-8" standalone="no"?><!DOCTYPE svg PUBLIC "-//W3C//DTD SVG 1.1//EN" "http://www.w3.org/Graphics/SVG/1.1/DTD/svg11.dtd"><svg width="100%" height="100%" viewBox="0 0 50 50" version="1.1" xmlns="http://www.w3.org/2000/svg" xmlns:xlink="http://www.w3.org/1999/xlink" xml:space="preserve" xmlns:serif="http://www.serif.com/" style="fill-rule:evenodd;clip-rule:evenodd;stroke-linejoin:round;stroke-miterlimit:2;"><rect id="focus-human" x="0" y="0" width="50" height="50" style="fill:none;"/><g id="focus-human1" serif:id="focus-human"><g id="Focus-Frame" serif:id="Focus Frame"><path d="M25,1L45.785,13L45.785,37L25,49L4.215,37L4.215,13L25,1Z" style="fill:#10273d;"/><path d="M25,0L46.651,12.5L46.651,37.5L25,50L3.349,37.5L3.349,12.5L25,0ZM25,2.309L44.651,13.655C44.651,13.655 44.651,36.345 44.651,36.345C44.651,36.345 25,47.691 25,47.691C25,47.691 5.349,36.345 5.349,36.345C5.349,36.345 5.349,13.655 5.349,13.655L25,2.309Z" style="fill:#0077af;"/></g><g id="Human"><path id="Human1" serif:id="Human" d="M21.673,38.699L21.766,38.995L21.821,39.244L21.743,39.524L21.439,39.82L21.073,40.054L20.785,40.233L21.829,40.241L23.674,40.163L24.336,40.069L24.944,39.898L25.473,39.649L25.816,39.4L24.103,39.384L23.332,39.298L22.701,39.143L22.171,38.948L21.673,38.699ZM19.212,36.129L19.274,36.845L19.259,37.359L19.243,37.92L19.134,38.621L18.495,38.761L17.405,38.886L15.785,38.932L16.206,39.213L16.642,39.4L17.094,39.555L17.577,39.649L18.137,39.727L19.041,39.773L19.632,39.758L20.427,39.586L20.707,39.477L21.019,39.337L20.832,38.636L20.551,37.982L19.866,36.892L19.477,36.409L19.212,36.129ZM42.5,24.786C42.5,17.178 36.333,11.011 28.725,11.011C21.117,11.011 14.95,17.178 14.95,24.786C14.95,32.394 21.117,38.561 28.725,38.561C36.333,38.561 42.5,32.394 42.5,24.786ZM17.4,34.985L17.091,36.108L16.717,36.879L15.66,36.901L14.668,36.835L13.699,36.725L12.884,36.659L13.391,37.121L14.162,37.573L14.845,37.837L15.428,38.013L16.188,38.112L17.091,38.156L18.259,38.112L18.193,36.978L18.061,36.284L17.84,35.689L17.4,34.985ZM36.723,14.338C34.507,12.639 31.734,11.629 28.725,11.629C25.571,11.629 22.677,12.739 20.411,14.588L20.761,14.726L21.042,14.64L21.339,14.406L21.605,14.187L21.949,13.922L22.308,13.75L22.799,13.738L23.808,13.766L23.995,13.547L24.167,13.234L25.417,13.094L25.682,13.219L25.885,13.437L26.526,13.359L27.166,13.266L27.699,13.278L28.088,13.156L28.603,13.25L28.682,13.375L28.572,13.562L28.369,13.844L28.072,14.078L27.854,14.344L27.651,14.656L27.432,14.937L27.229,15.109L27.01,15.218L26.869,15.343L26.651,15.546L26.51,15.796L26.323,16.015L26.088,16.187L25.792,16.281L25.651,16.062L25.542,15.656L25.51,15.203L25.588,14.765L25.651,14.437L25.479,14.14L25.135,13.797L24.854,13.687L24.682,13.812L24.479,14.031L24.386,14.328L24.635,14.453L24.76,14.531L24.776,14.703L25.073,14.953L25.135,15.171L25.026,15.375L24.823,15.546L24.627,15.721L24.448,15.843L24.12,15.953L24.104,16.171L24.432,16.359L24.698,16.656L24.76,16.984L24.823,17.421L24.769,17.765L24.87,18.124L24.87,18.405L24.698,18.546L24.448,18.64L24.026,18.658L23.701,18.774L23.386,18.999L23.12,19.155L22.94,19.258L22.808,19.467L22.732,19.858L22.616,20.164L22.447,20.423L22.217,20.588L22.045,20.827L22.011,21.592L21.98,21.826L21.824,22.029L21.667,22.076L21.542,21.983L21.48,21.858L21.574,21.655L21.62,21.436L21.62,21.233L21.433,21.077L21.152,21.061L20.933,21.186L20.751,21.276L20.636,21.561L20.589,21.78L20.449,21.967L20.418,22.108L20.371,22.404L20.449,22.654L20.527,22.857L20.652,22.998L20.777,22.732L20.964,22.639L21.132,22.569L21.324,22.545L21.402,22.732L21.292,22.904L21.058,23.061L21.105,23.185L21.292,23.357L21.417,23.576L21.464,23.764L21.558,24.045L21.699,24.248L21.917,24.435L22.261,24.263L22.636,24.201L22.995,24.31L23.386,24.56L23.732,24.979L24.104,25.341L24.354,25.529L24.526,25.904L24.712,26.115L25.245,26.45L25.635,26.7L25.79,26.901L25.963,27.153L25.682,27.466L25.604,27.747L25.511,28.22L25.557,28.716L25.51,29.231L25.451,29.606L25.214,29.825L24.855,29.962L24.776,30.309L24.714,31.231L24.589,31.496L24.417,31.824L24.261,32.059L24.089,32.434L24.011,32.699L23.995,32.98C23.995,32.98 23.948,33.215 23.933,33.277C23.917,33.34 23.791,33.579 23.791,33.579L23.808,33.824L23.729,34.152L23.933,34.558L24.057,34.714L24.027,34.916L23.823,35.095L23.651,35.011L23.501,34.784L23.261,34.621L23.105,34.183L23.037,33.75L22.933,33.387L22.823,32.621L22.745,31.934L22.636,31.621L22.589,30.871L22.605,30.231L22.605,29.606L22.527,29.044L22.23,28.528L21.995,28.06L21.73,27.638L21.527,27.2L21.402,26.841L21.511,26.138L21.652,25.685L21.745,25.201L21.761,24.841L21.417,24.591L21.167,24.373L20.996,24.123L20.871,23.826L20.589,23.576L20.277,23.326L19.98,23.185L19.683,22.936L19.23,22.389L19.012,21.92L18.809,21.451L18.68,20.939L18.516,20.545L18.458,20.014L18.511,19.443L18.616,18.925L18.765,18.521L18.98,18.03L19.042,17.666L19.027,16.906L18.965,16.437L18.84,16.234L18.802,16.146C16.788,18.457 15.568,21.479 15.568,24.786C15.568,29.311 17.853,33.303 21.331,35.67L21.355,35.646L21.576,35.646L21.775,35.735L21.973,35.848L22.216,35.867L22.526,35.886L22.835,35.668L23.122,35.646L23.498,35.757L23.741,35.845L23.982,36.049L24.205,36.119L24.526,35.961L24.647,35.713L25.066,35.448L25.442,35.249L25.707,35.205L25.818,35.425L25.707,35.602L25.564,35.713L25.641,36.11L25.971,36.312L26.281,36.464L26.81,36.687L27.187,36.707L27.607,36.663L27.961,36.486L28.27,36.287L28.601,36.061L28.933,35.849L29.33,35.779L29.772,35.823L30.126,35.823L30.324,35.757L30.545,35.735L30.788,35.735L31.012,35.908L31.23,35.934L31.451,35.911L31.738,35.737L31.915,35.646L32.136,35.58L32.445,35.58L32.843,35.558L33.174,35.492L33.351,35.448L33.572,35.646L33.815,35.867L33.997,36.045L34.326,36.136L34.655,36.132L35.185,36.199L35.275,36.199C36.511,35.487 37.621,34.581 38.563,33.522L38.539,33.262L38.539,32.371L38.625,31.996C38.625,31.996 38.578,31.785 38.578,31.723C38.578,31.66 38.43,31.621 38.43,31.621L38.258,31.621L38.086,31.731L37.883,31.746L37.68,31.574L37.68,31.371L37.773,31.215L37.898,31.09L37.961,30.856L37.945,30.606L38.023,30.247L38.117,30.137L38.336,29.903L38.648,29.669L39.008,29.387L39.164,29.247L39.164,29.075L39.289,28.958L39.422,28.872L39.601,28.723L39.75,28.606L39.882,28.481L40.117,28.45L40.086,28.606L40.023,28.763L39.945,28.966L39.929,29.091L40.101,29.176L40.226,29.044L40.304,28.88L40.382,28.731L40.429,28.497L40.585,28.45L40.757,28.481L40.773,28.7L40.742,28.966L40.648,29.169L40.539,29.372L40.539,29.481L40.429,29.778L40.429,30.215L40.523,30.481L40.588,30.481C41.417,28.758 41.881,26.826 41.881,24.786C41.881,21.654 40.787,18.778 38.96,16.519L38.742,16.591L38.587,16.702L38.587,16.868L38.642,16.934L38.731,17.078L38.83,17.243L38.985,17.431L39.106,17.608L39.25,17.762L39.233,18.026L39.349,18.315L39.25,18.58L39.095,18.9L39.018,19.121L38.974,19.209L38.996,19.364L39.095,19.607L39.15,19.817L39.161,20.019L39.173,20.159L39.051,20.259L38.896,20.358L38.753,20.193L38.587,19.916L38.576,19.806L38.581,19.558L38.466,19.43L38.3,19.43L38.193,19.594L38.204,19.762L38.311,19.972L38.366,20.491L38.421,20.601L38.466,20.767L38.521,20.955L38.675,21.132L38.709,21.584L38.653,21.805L38.675,21.905L38.576,22.093L38.399,22.181L38.366,22.336L38.189,22.512L37.781,22.523L37.493,22.545L37.505,22.7L37.571,22.877L37.67,23.054L37.803,23.175L37.792,23.418L37.88,23.562L37.946,23.882L37.879,24.28L37.858,24.545L37.604,24.534L37.482,24.434L37.228,24.302L37.096,24.191L36.886,24.158C36.886,24.158 36.775,24.103 36.775,24.059C36.775,24.015 36.775,23.959 36.798,23.904C36.82,23.849 36.864,23.783 36.864,23.783L36.864,23.65L36.676,23.54L36.51,23.407L36.433,23.241L36.256,23.12L36.157,22.965L36.035,22.755C36.035,22.755 36.124,22.435 36.135,22.391C36.146,22.347 36.013,22.192 36.013,22.192L35.859,22.269L35.715,22.501L35.571,22.645L35.571,22.91L35.594,23.054L35.627,23.263L35.627,23.429L35.459,23.729L35.472,23.926L35.384,24.081L35.339,24.313L35.207,24.49L34.953,24.666C34.953,24.666 34.92,24.556 34.864,24.534C34.809,24.512 34.688,24.39 34.688,24.39L34.666,24.18L34.666,23.959L34.632,23.783L34.555,23.639L34.478,23.429L34.323,23.274L34.356,23.153L34.456,23.043L34.445,22.965L34.367,22.722L34.235,22.556L34.135,22.457C34.135,22.457 34.047,22.203 34.025,22.148C34.003,22.093 33.892,22.026 33.892,22.026L33.671,21.794L33.473,21.783L33.296,21.75L33.296,22.137L33.252,22.413L33.252,22.7L33.208,22.811L33.097,23.054L32.909,23.164L32.655,23.374L32.556,23.518L32.39,23.727C32.39,23.727 32.037,23.86 31.992,23.86C31.948,23.86 31.948,24.103 31.948,24.103L32.136,24.18L32.39,24.247L32.589,24.125L32.755,24.059L32.755,24.258L32.556,25.053C32.556,25.053 32.478,25.417 32.456,25.473C32.434,25.528 32.401,25.638 32.401,25.638L32.158,25.826L32.026,25.959L31.904,26.124L31.816,26.39L31.783,28.29L31.749,28.621L31.672,28.842L31.407,29.206L31.252,29.471L31.112,29.703L31.164,30.101L31.092,30.399L31.046,30.742L30.971,30.83L30.91,30.974L30.755,31.084L30.733,31.338L30.678,31.57L30.501,31.78L30.247,31.802L29.905,31.869C29.905,31.869 29.662,31.813 29.617,31.802C29.573,31.791 29.419,31.747 29.419,31.747L29.308,31.537L29.341,31.261L29.374,31.106L29.374,30.841L29.308,30.676L29.308,30.41L29.22,30.256L29.154,30.002L29.065,29.814L28.988,29.339L28.955,28.908L28.966,28.444L29.032,28.223L29.01,27.759L28.999,27.141L28.933,26.887C28.933,26.887 28.8,26.633 28.778,26.588C28.756,26.544 28.745,26.345 28.745,26.345L28.701,26.102L28.59,25.771L28.458,25.329L28.358,25.075L28.137,25.086L27.938,25.186L27.706,25.274L27.441,25.274L27.198,25.152L26.933,24.92L26.768,24.711L26.646,24.501L26.569,23.926L26.48,22.545L26.502,21.894L26.602,21.64L26.745,21.375L26.867,21.098L27.011,20.789L27.198,20.413L27.452,20.27L27.541,20.038L27.419,19.905L27.242,19.806L27.154,19.64C27.154,19.64 27.165,19.419 27.165,19.375C27.165,19.331 27.088,19.198 27.088,19.198L27.055,19.022L27.099,18.779L27.276,18.757L27.441,18.801L27.729,18.812C27.729,18.812 27.894,18.757 27.894,18.712C27.894,18.668 27.972,18.514 27.972,18.514L27.949,18.392L27.839,18.248C27.839,18.248 27.662,18.215 27.629,18.16C27.596,18.105 27.717,18.072 27.717,18.072L27.839,17.939L28.016,17.784L28.093,17.718L28.226,17.564L28.314,17.442L28.525,17.375L28.612,17.144L28.933,17.166L29.253,17.155L29.507,16.945L29.717,16.702L29.684,16.205L29.441,16.359L29.408,16.558L29.253,16.812L29.043,16.901L28.866,16.68L28.822,16.448L28.623,16.359L28.513,16.249L28.811,15.719L29.021,15.443L29.297,15.222L29.551,15.045L29.859,14.87L30.28,14.78L30.578,14.846L30.81,15.034L31.031,15.211L31.274,15.354L31.606,15.211L31.595,15.001L31.528,14.791L31.363,14.515L31.418,14.272L31.606,14.062L31.948,13.863L32.158,13.863L32.158,14.095C32.158,14.095 32.07,14.316 32.026,14.316C31.981,14.316 31.992,14.493 31.992,14.493L32.003,14.691L32.191,14.78L32.501,14.791L32.655,14.68L32.92,14.515L33.064,14.371L33.351,14.25L33.616,14.117L33.793,13.985L33.782,13.819L33.495,13.653L33.473,13.443L33.683,13.399L34.025,13.421L34.213,13.476L34.699,13.675L35.196,14.062L35.461,14.25L35.737,14.393L36.002,14.448L36.455,14.437L36.723,14.338ZM15.46,32.471L14.68,34.348C14.68,34.348 13.791,34.449 13.076,34.478C12.133,34.517 10.793,34.046 10.793,34.046C10.793,34.046 12.227,35.548 13.463,35.834C14.705,36.281 15.243,36.063 15.243,36.063C15.243,36.063 15.928,36.109 15.906,35.905C16.14,35 15.945,33.925 15.945,33.925L15.46,32.471ZM14.133,33.541C14.133,33.541 14.413,32.798 14.45,31.94C14.466,30.933 14.016,29.573 14.016,29.573C14.016,29.573 13.754,31.171 13.288,31.6C12.749,31.61 11.865,31.509 11.865,31.509C11.865,31.509 11.316,31.417 10.633,31.022C9.7,30.555 8.141,29.07 8.141,29.07C8.141,29.07 9.403,32.036 10.771,32.653C11.483,33.269 14.133,33.541 14.133,33.541ZM31.79,28.809L31.947,28.692L32.072,28.513L32.118,28.341L32.259,28.122L32.478,28.122L32.634,28.216L32.728,28.356L32.673,28.887L32.634,29.098L32.517,29.262L32.415,29.512L32.321,29.747L32.243,29.965L32.196,30.083L32.142,30.223L31.954,30.473L31.806,30.7L31.822,30.09L31.79,29.809L31.79,28.809ZM12.287,30.305C12.287,30.305 12.513,29.69 12.854,28.766C13.107,27.815 13.122,26.768 13.122,26.768L11.727,28.453C11.727,28.453 10.088,27.89 9.441,27.166C8.438,26.149 7.5,24.505 7.5,24.505C7.5,24.505 7.956,27.878 9.283,29.092C10.644,30.116 12.287,30.305 12.287,30.305ZM39.179,26.482L39.336,26.622L39.508,26.685L39.734,26.841L39.929,26.966L40.054,27.153L40.164,27.372L40.226,27.56L40.398,27.716L40.5,27.63L40.539,27.403L40.82,27.489L40.945,27.622L41.054,27.708L41.038,27.528L40.945,27.232L40.718,26.872L40.523,26.763L40.242,26.56L39.976,26.482L39.726,26.419L39.375,26.388L39.179,26.482ZM37.68,26.95L37.602,25.498L37.492,25.201L37.445,25.06L37.336,24.92L37.274,24.779L37.055,24.716L36.883,24.732L36.836,24.904L36.758,25.06L36.758,25.576L36.883,25.685L37.039,25.81C37.039,25.81 37.055,25.888 37.055,25.966L37.055,26.404L37.149,26.7L37.289,26.857L37.414,27.107L37.539,27.185L37.789,27.247L38.008,27.419L38.164,27.528L38.398,27.56L38.68,27.466L38.68,27.247L38.336,27.138L38.07,27.028L37.93,27.013L37.68,26.95ZM11.275,27.005C11.275,27.005 11.988,26.033 12.261,25.352C12.618,24.385 12.632,23.706 12.632,23.706C12.632,23.706 12.397,24.285 11.922,24.58C11.67,24.958 11.103,25.086 11.103,25.086C11.103,25.086 11.054,25.232 10.231,24.457C9.075,23.365 7.885,20.994 7.885,20.994C7.885,20.994 7.718,23.908 8.842,25.275C10.117,26.579 11.275,27.005 11.275,27.005ZM38.617,24.654L38.601,24.888L38.539,25.154L38.43,25.326L38.305,25.513L38.18,25.732L38.039,25.919L37.883,26.107L37.758,26.279L37.852,26.372L37.977,26.482L38.039,26.654L38.102,26.81L38.398,26.794L38.586,26.716L38.648,26.591L38.648,26.263L38.805,26.154L38.976,26.06L39.101,25.904L38.914,25.826L38.836,25.685L38.836,25.013L38.742,24.857L38.617,24.654ZM38.805,22.889L38.805,23.185L38.883,23.295L38.883,23.529L38.805,23.654L38.805,23.998L38.711,24.154L38.82,24.295L38.914,24.482L39.054,24.576L39.164,24.638L39.211,24.732L39.242,24.982L39.304,25.123L39.445,25.123L39.492,24.998L39.539,24.795L39.539,24.638L39.445,24.482L39.429,24.31L39.367,24.217L39.367,24.029L39.195,23.857L38.976,23.545L38.93,23.061L38.805,22.889ZM11.188,23.565C11.188,23.565 12.345,22.619 12.659,21.843C12.992,21.023 13.101,20.635 13.101,20.635L13.08,20.671C13.08,20.671 11.984,21.448 11.232,21.311C10.384,20.189 9.454,17.812 9.454,17.812C9.454,17.812 8.734,19.815 9.503,21.32C10.261,22.802 11.188,23.543 11.188,23.543L11.188,23.565ZM28.229,19.874L28.166,19.717L28.26,19.467L28.354,19.28L28.4,19.046L28.65,19.014L28.853,19.085L28.947,19.186L29.056,19.327L29.275,19.561L29.275,19.796L29.431,19.858C29.609,19.51 29.546,19.691 29.603,19.608L29.697,19.764L29.713,19.999L29.853,20.092L29.978,20.045L30.002,19.866L30.15,19.803L30.337,19.936L30.556,20.124L30.837,20.108L30.962,20.264L30.962,20.467L30.712,20.827L30.416,20.827L29.916,20.85L29.494,20.756L29.369,20.499L29.275,20.295L29.088,20.061L28.822,19.889L28.603,19.874L28.229,19.874ZM39.742,18.577L39.632,18.718L39.648,18.999L39.664,19.249L39.711,19.421L39.742,19.608L39.773,19.874L39.648,20.108L39.445,20.28L39.304,20.327L39.211,20.389L39.179,20.483L39.336,20.67L39.445,20.78L39.586,20.67L39.601,20.577L39.836,20.53L40.054,20.592L40.179,20.374L40.289,20.124L40.32,19.921L40.226,19.717L40.117,19.514L40.086,19.296L40.007,19.061L39.992,18.874L39.898,18.655L39.742,18.577ZM11.793,20.2C11.793,20.2 12.235,19.869 12.899,19.301C13.497,18.79 13.949,17.858 13.949,17.858C13.949,17.858 13.585,18.103 13.15,18.273C12.753,18.427 12.282,18.44 12.282,18.44C12.282,18.44 12.558,19.091 12.268,18.414C11.827,17.384 11.789,14.963 11.789,14.963C11.789,14.963 11.079,16.077 10.978,17.625C10.916,19.433 11.793,20.2 11.793,20.2ZM27.751,16.525L27.883,16.724L27.883,16.89L28.016,17.022L28.049,17.177C28.049,17.177 28.126,17.254 28.126,17.298L28.126,17.431L28.027,17.508L27.916,17.564L27.773,17.608L27.53,17.575L27.32,17.541C27.32,17.541 27.198,17.541 27.198,17.486C27.198,17.431 27.165,17.332 27.165,17.332L27.265,17.265L27.408,17.122L27.596,17.055L27.64,16.857L27.607,16.735L27.673,16.603L27.751,16.525ZM14.661,16.495C15.4,16.169 15.715,15.786 15.782,15.697C15.75,15.704 15.734,15.708 15.706,15.714C15.409,15.783 14.379,15.682 13.934,15.633C13.84,14.62 14.552,12.176 14.552,12.176C14.552,12.176 13.103,13.825 12.874,15.256C12.665,16.558 12.933,17.12 12.933,17.12C12.933,17.12 13.973,17.042 14.661,16.495ZM24.026,14.984L23.901,15.031L23.745,15.171L23.589,15.421L23.542,15.546L23.292,15.64L22.98,15.89L22.558,16.218L22.417,16.39L22.417,16.671L22.745,16.921L23.058,16.999L23.214,16.718L23.37,16.406L23.495,15.999L23.667,15.687L23.933,15.593L24.073,15.343L24.12,15L24.026,14.984ZM17.184,14.028C18.227,13.67 18.606,13.202 18.606,13.202C18.606,13.202 17.885,13.199 17.457,13.132C17.171,13.087 17.004,13.04 16.995,13.038C16.996,13.023 17.002,12.94 17.024,12.552C17.061,11.89 17.772,10.826 17.772,10.826C17.772,10.826 16.686,11.152 15.947,12.037C15.69,12.345 15.371,12.995 15.181,13.304C14.759,14.346 14.808,14.608 14.808,14.608C14.808,14.608 16.284,14.526 17.184,14.028ZM16.995,13.038L16.994,13.037C16.994,13.037 16.994,13.044 16.995,13.038ZM21.415,11.359C22.67,10.33 23,9.759 23,9.759C23,9.759 21.66,9.917 21.049,10.253C20.288,10.672 19.957,10.714 19.957,10.714L20.116,9.943C20.116,9.943 18.723,10.65 18.242,11.441C17.751,12.248 17.819,12.455 17.819,12.455C17.819,12.455 20.375,12.212 21.415,11.359Z" style="fill:#d1ad94;"/></g></g></svg>