<svg xmlns="http://www.w3.org/2000/svg" xml:space="preserve" style="fill-rule:evenodd;clip-rule:evenodd;stroke-linejoin:round;stroke-miterlimit:2" viewBox="0 0 50 50"><path d="M0 0h50v50H0z" style="fill:none"/><path d="m25 1 20.785 12v24L25 49 4.215 37V13z" style="fill:#10273d"/><path d="m25 0 21.651 12.5v25L25 50 3.349 37.5v-25zm0 2.309 19.651 11.346v22.69L25 47.691 5.349 36.345v-22.69z" style="fill:#0077af"/><path d="M18.596 18.472A4.98 4.98 0 0 1 15 20c-2.76 0-5-2.24-5-5s2.24-5 5-5a5.002 5.002 0 0 1 4.938 5.789l11.466 5.726A4.98 4.98 0 0 1 35 19.987c2.76 0 5 2.241 5 5a5.002 5.002 0 0 1-8.593 3.477l-11.47 5.742Q20 34.595 20 35c0 2.76-2.24 5-5 5s-5-2.24-5-5 2.24-5 5-5c1.409 0 2.683.584 3.593 1.524l11.47-5.742a5 5 0 0 1-.001-1.584z" style="fill:#f1de7f"/></svg>