<svg xmlns="http://www.w3.org/2000/svg" xml:space="preserve" style="fill-rule:evenodd;clip-rule:evenodd;stroke-linejoin:round;stroke-miterlimit:2" viewBox="0 0 50 50"><path d="M0 0h50v50H0z" style="fill:none"/><path d="m25 1 20.785 12v24L25 49 4.215 37V13z" style="fill:#10273d"/><path d="m25 0 21.651 12.5v25L25 50 3.349 37.5v-25zm0 2.309 19.651 11.346v22.69L25 47.691 5.349 36.345v-22.69z" style="fill:#0077af"/><path d="M25 14.669c1.848-1.883 4.21-3.013 6.781-3.013C37.697 11.656 42.5 17.635 42.5 25s-4.803 13.344-10.719 13.344c-2.571 0-4.933-1.13-6.781-3.013-1.848 1.883-4.21 3.013-6.781 3.013C12.303 38.344 7.5 32.365 7.5 25s4.803-13.344 10.719-13.344c2.571 0 4.933 1.13 6.781 3.013m6.233 22.361.111.001c4.344 0 7.972-4.153 8.801-9.657a1.31 1.31 0 0 0-1.299-1.499H28.111a3.284 3.284 0 0 1-6.326 0s-7.426 0-10.631.007a1.305 1.305 0 0 0-1.292 1.491c.822 5.505 4.45 9.658 8.794 9.658h.06a4.377 4.377 0 0 1 1.909-8.312 4.38 4.38 0 0 1 4.349 3.895 4.38 4.38 0 0 1 4.349-3.895 4.377 4.377 0 0 1 4.375 4.375 4.38 4.38 0 0 1-2.465 3.936m-1.435-1.419a.65.65 0 0 1-.746-.646l.01-.001c0-.292.198-.547.48-.619a1.97 1.97 0 0 0-.477-3.876h-.013a2.626 2.626 0 1 0 .746 5.142m-9.648 0a.65.65 0 0 0 .746-.646l-.01-.001a.64.64 0 0 0-.48-.619 1.97 1.97 0 0 1 .477-3.876h.013a2.626 2.626 0 1 1-.746 5.142m4.798-12.361a1.75 1.75 0 1 1-.001 3.501 1.75 1.75 0 0 1 .001-3.501m-6.232-10.281h-.06c-4.344 0-7.972 4.153-8.801 9.657a1.31 1.31 0 0 0 1.299 1.499h10.631a3.284 3.284 0 0 1 6.326 0s7.51 0 10.735-.007a1.305 1.305 0 0 0 1.292-1.491c-.822-5.505-4.45-9.658-8.794-9.658l-.111.001a4.38 4.38 0 0 1 2.465 3.936 4.377 4.377 0 0 1-4.375 4.375 4.38 4.38 0 0 1-4.349-3.895 4.38 4.38 0 0 1-4.349 3.895 4.377 4.377 0 0 1-1.909-8.312m11.082 1.42a.65.65 0 0 0-.746.646l.01.001c0 .292.198.547.48.619a1.97 1.97 0 0 1-.477 3.876h-.013a2.626 2.626 0 1 1 .746-5.142m-9.648 0a.65.65 0 0 1 .746.646l-.01.001a.64.64 0 0 1-.48.619 1.97 1.97 0 0 0 .477 3.876h.013a2.626 2.626 0 1 0-.746-5.142" style="fill:#f53d4d"/></svg>