<svg xmlns="http://www.w3.org/2000/svg" xml:space="preserve" style="fill-rule:evenodd;clip-rule:evenodd;stroke-linejoin:round;stroke-miterlimit:2" viewBox="0 0 50 50"><path d="M0 0h50v50H0z" style="fill:none"/><path d="m25 1 20.785 12v24L25 49 4.215 37V13z" style="fill:#10273d"/><path d="m25 0 21.651 12.5v25L25 50 3.349 37.5v-25zm0 2.309 19.651 11.346v22.69L25 47.691 5.349 36.345v-22.69z" style="fill:#0077af"/><path d="M34.439 23.193c-.272-.615-.561-1.147-.884-1.537-.435-.524-.939-.812-1.524-.812-.584 0-1.088.288-1.523.812-.324.39-.612.922-.885 1.537-.554-4.059-1.213-7.817-2.126-9.92-.35-.808-.754-1.401-1.175-1.759C25.91 11.165 25.465 11 25 11c-.47 0-.915.167-1.322.521-.415.359-.808.956-1.142 1.769-.853 2.075-1.428 5.763-1.915 9.76a6.3 6.3 0 0 0-.598-1.039c-.534-.731-1.197-1.167-2.054-1.167s-1.52.436-2.055 1.167c-.218.298-.415.65-.597 1.039-.488-3.997-1.062-7.685-1.915-9.76-.334-.813-.728-1.41-1.142-1.769-.408-.354-.853-.521-1.322-.521v1.875c.118 0 .176.133.272.262.165.224.314.517.457.866 1.011 2.458 1.576 7.282 2.118 12.102l.097.861c-.273.736-.576 1.431-.951 1.998-.49.74-1.106 1.255-1.993 1.255v.937c1.221 0 2.1-.656 2.774-1.674q.202-.306.381-.652c.461 4.021.947 7.742 1.661 9.828.276.808.606 1.404.949 1.762.387.403.819.58 1.266.58s.879-.177 1.266-.58c.343-.358.672-.954.949-1.762.714-2.086 1.2-5.807 1.661-9.828q.179.346.38.652C22.9 30.5 23.778 31.156 25 31.156c1.21 0 2.131-.65 2.862-1.658.199-.274.384-.576.557-.896l.207 1.677c.484 3.873.983 7.292 1.625 8.996.221.586.477 1.007.729 1.261.329.33.69.464 1.051.464s.723-.134 1.051-.464c.252-.254.509-.675.73-1.261.642-1.704 1.14-5.123 1.625-8.996l.206-1.677c.174.32.358.622.557.896.731 1.008 1.652 1.658 2.863 1.658v-.937c-1.099 0-1.84-.77-2.444-1.794a12.6 12.6 0 0 1-.762-1.57c.573-4.668 1.208-9.441 2.181-12.2.224-.636.459-1.153.728-1.506.104-.137.171-.274.297-.274V11c-.465 0-.911.165-1.322.514-.421.358-.826.951-1.176 1.759-.912 2.103-1.571 5.861-2.126 9.92M20.39 25.006c-.256-.736-.522-1.431-.841-1.999-.401-.711-.869-1.226-1.58-1.226s-1.18.515-1.58 1.226c-.32.568-.586 1.263-.841 1.999l.1.889c.545 4.842 1.034 9.686 1.88 12.155.121.354.246.652.386.879q.024.038.055.079.03-.041.054-.079c.14-.227.266-.525.387-.879.845-2.469 1.334-7.313 1.879-12.155zm13.798.093c-.363-.988-.717-1.906-1.142-2.554-.293-.445-.597-.764-1.015-.764s-.722.319-1.014.764c-.425.648-.78 1.566-1.143 2.554l.099.785c.608 4.861 1.122 9.724 1.858 12.203.054.184.127.374.2.544.073-.17.146-.36.201-.544.735-2.479 1.25-7.342 1.857-12.203zm-5.982 1.756c-.574-4.668-1.208-9.441-2.181-12.2-.224-.636-.459-1.153-.729-1.506-.104-.137-.171-.274-.296-.274-.119 0-.177.133-.272.262a4 4 0 0 0-.458.866c-1.01 2.458-1.575 7.282-2.118 12.102l-.096.861c.273.736.575 1.431.951 1.998.49.74 1.105 1.255 1.993 1.255 1.098 0 1.84-.77 2.444-1.794.282-.479.531-1.013.762-1.57" style="fill:#f1de7f"/></svg>