<svg xmlns="http://www.w3.org/2000/svg" xml:space="preserve" style="fill-rule:evenodd;clip-rule:evenodd;stroke-linejoin:round;stroke-miterlimit:2" viewBox="0 0 50 50"><path d="M0 0h50v50H0z" style="fill:none"/><path d="m25 1 20.785 12v24L25 49 4.215 37V13z" style="fill:#10273d"/><path d="m25 0 21.651 12.5v25L25 50 3.349 37.5v-25zm0 2.309 19.651 11.346v22.69L25 47.691 5.349 36.345v-22.69z" style="fill:#0077af"/><path d="M27 33.578H14.135v6.433H27zm-12.865-.858v-2.573a5.146 5.146 0 0 1 5.146-5.146h12.007v3.431h-2.573A1.715 1.715 0 0 0 27 30.147v2.573zm25.73-7.719h-7.719v3.431h7.719zm-25.73-9.434v2.573a5.146 5.146 0 0 0 5.146 5.146h12.007v-3.43h-2.573A1.715 1.715 0 0 1 27 18.14v-2.573zm25.73 4.289h-7.719v3.43h7.719zM27 10.011H14.135v4.699H27z" style="fill:#f1de7f"/></svg>