<svg xmlns="http://www.w3.org/2000/svg" xml:space="preserve" style="fill-rule:evenodd;clip-rule:evenodd;stroke-linejoin:round;stroke-miterlimit:2" viewBox="0 0 50 50"><path d="M0 0h50v50H0z" style="fill:none"/><path d="m25 1 20.785 12v24L25 49 4.215 37V13z" style="fill:#10273d"/><path d="m25 0 21.651 12.5v25L25 50 3.349 37.5v-25zm0 2.309 19.651 11.346v22.69L25 47.691 5.349 36.345v-22.69z" style="fill:#0077af"/><path d="M24.644 7.772a.363.363 0 0 1 .712 0l2.276 11.725c.138.71.485 1.363.997 1.874a3.63 3.63 0 0 0 1.874.997l11.725 2.276a.363.363 0 0 1 0 .712l-11.725 2.276a3.63 3.63 0 0 0-1.874.997 3.63 3.63 0 0 0-.997 1.874l-2.276 11.725a.363.363 0 0 1-.712 0l-2.276-11.725a3.63 3.63 0 0 0-.997-1.874 3.63 3.63 0 0 0-1.874-.997L7.772 25.356a.363.363 0 0 1 0-.712l11.725-2.276a3.63 3.63 0 0 0 1.874-.997 3.63 3.63 0 0 0 .997-1.874z" style="fill:#f1de7f"/></svg>