<?xml version="1.0" encoding="UTF-8" standalone="no"?><!DOCTYPE svg PUBLIC "-//W3C//DTD SVG 1.1//EN" "http://www.w3.org/Graphics/SVG/1.1/DTD/svg11.dtd"><svg width="100%" height="100%" viewBox="0 0 50 50" version="1.1" xmlns="http://www.w3.org/2000/svg" xmlns:xlink="http://www.w3.org/1999/xlink" xml:space="preserve" xmlns:serif="http://www.serif.com/" style="fill-rule:evenodd;clip-rule:evenodd;stroke-linejoin:round;stroke-miterlimit:2;"><rect id="focus-vulcan" x="0" y="0" width="50" height="50" style="fill:none;"/><g id="focus-vulcan1" serif:id="focus-vulcan"><g id="Focus-Frame" serif:id="Focus Frame"><path d="M25,1L45.785,13L45.785,37L25,49L4.215,37L4.215,13L25,1Z" style="fill:#10273d;"/><path d="M25,0L46.651,12.5L46.651,37.5L25,50L3.349,37.5L3.349,12.5L25,0ZM25,2.309L44.651,13.655C44.651,13.655 44.651,36.345 44.651,36.345C44.651,36.345 25,47.691 25,47.691C25,47.691 5.349,36.345 5.349,36.345C5.349,36.345 5.349,13.655 5.349,13.655L25,2.309Z" style="fill:#0077af;"/></g><g id="Vulcan"><path id="Vulcan1" serif:id="Vulcan" d="M22.003,20.876L42.403,26.532L42.403,26.58L25.483,43.5C25.451,43.5 25.435,43.484 25.435,43.452C22.47,32.752 20.585,25.919 19.779,22.954C20.262,22.793 20.73,22.503 21.181,22.084C21.568,21.633 21.842,21.23 22.003,20.876ZM32.058,33.638L25.773,42.727L32.928,33.928L41.727,26.773L32.686,33.058L21.519,22.519L32.058,33.638ZM38.536,24.646L27.659,21.649C27.691,21.424 27.707,21.101 27.707,20.682C27.707,19.232 27.353,17.895 26.644,16.67C25.935,15.445 24.976,14.478 23.767,13.769C22.559,13.06 21.229,12.706 19.779,12.706C18.329,12.706 16.991,13.06 15.767,13.769C14.542,14.478 13.575,15.445 12.866,16.67C12.157,17.895 11.802,19.224 11.802,20.658C11.802,22.092 12.157,23.422 12.866,24.646C13.575,25.871 14.542,26.838 15.767,27.547C16.991,28.256 18.329,28.61 19.779,28.61C20.101,28.61 20.343,28.594 20.504,28.562L23.501,39.439L23.066,39.439C20.262,39.439 17.652,38.73 15.235,37.312C12.914,35.959 11.077,34.122 9.724,31.801C8.306,29.384 7.597,26.773 7.597,23.97C7.597,21.166 8.306,18.555 9.724,16.138C11.077,13.818 12.914,11.981 15.235,10.627C17.652,9.209 20.262,8.5 23.066,8.5C25.87,8.5 28.481,9.209 30.898,10.627C33.218,11.981 35.055,13.818 36.409,16.138C37.827,18.555 38.536,21.166 38.536,23.97L38.536,24.646ZM18.377,22.616C17.475,22.616 16.693,22.286 16.032,21.625C15.372,20.964 15.041,20.175 15.041,19.256C15.041,18.338 15.372,17.548 16.032,16.887C16.693,16.227 17.475,15.896 18.377,15.896C19.279,15.896 20.061,16.227 20.722,16.887C21.382,17.548 21.713,18.338 21.713,19.256C21.713,20.175 21.39,20.964 20.746,21.625C20.101,22.286 19.312,22.616 18.377,22.616Z" style="fill:#dbba57;fill-rule:nonzero;"/></g></g></svg>