<svg xmlns="http://www.w3.org/2000/svg" xml:space="preserve" style="fill-rule:evenodd;clip-rule:evenodd;stroke-linejoin:round;stroke-miterlimit:2" viewBox="0 0 50 50"><path d="M0 0h50v50H0z" style="fill:none"/><path d="m25 1 20.785 12v24L25 49 4.215 37V13z" style="fill:#10273d"/><path d="m25 0 21.651 12.5v25L25 50 3.349 37.5v-25zm0 2.309 19.651 11.346v22.69L25 47.691 5.349 36.345v-22.69z" style="fill:#0077af"/><path d="M25 26c-3.311 0-6-2.689-6-6s2.689-6 6-6 6 2.689 6 6-2.689 6-6 6c4.971 0 9 7.163 9 16H16c0-8.837 4.029-16 9-16m6.428-1.134 3.464 2 1-1.732-3.464-2zm-13.856-1.732-3.464 2 1 1.732 3.464-2zM33 21h4v-2h-4zm-16-2h-4v2h4zm1.572-3.866-3.464-2-1 1.732 3.464 2zm13.856 1.732 3.464-2-1-1.732-3.464 2zm-10.562-4.294-2-3.464-1.732 1 2 3.464zm8 1 2-3.464-1.732-1-2 3.464zM26 12V8h-2v4z" style="fill:#f1de7f"/></svg>