<svg xmlns="http://www.w3.org/2000/svg" xml:space="preserve" style="fill-rule:evenodd;clip-rule:evenodd;stroke-linejoin:round;stroke-miterlimit:2" viewBox="0 0 50 50"><path d="M0 0h50v50H0z" style="fill:none"/><path d="m25 1 20.785 12v24L25 49 4.215 37V13z" style="fill:#10273d"/><path d="m25 0 21.651 12.5v25L25 50 3.349 37.5v-25zm0 2.309 19.651 11.346v22.69L25 47.691 5.349 36.345v-22.69z" style="fill:#0077af"/><path d="M24 9.033C15.972 9.536 9.542 15.971 9.046 24H7.5v2h1.546C9.543 34.031 15.973 40.465 24 40.968V42.5h2v-1.53c8.041-.489 14.487-6.93 14.984-14.97H42.5v-2h-1.517C40.487 15.961 34.042 9.521 26 9.031V7.5h-2zM38.979 26c-.49 6.935-6.041 12.482-12.979 12.966v-2.007c5.827-.482 10.477-5.133 10.958-10.959zm-25.937 0c.481 5.827 5.133 10.478 10.958 10.959v2.005C17.076 38.466 11.54 32.925 11.05 26zM24 32.434A7.51 7.51 0 0 1 17.566 26H24zM32.433 26A7.51 7.51 0 0 1 26 32.434V26zM24 11.037v6.53A7.51 7.51 0 0 0 17.566 24H11.05c.49-6.924 6.026-12.466 12.95-12.963m2-.002c6.937.483 12.489 6.03 12.979 12.965h-6.545A7.51 7.51 0 0 0 26 17.567z" style="fill:#f5d63d"/></svg>