<?xml version="1.0" encoding="UTF-8" standalone="no"?><!DOCTYPE svg PUBLIC "-//W3C//DTD SVG 1.1//EN" "http://www.w3.org/Graphics/SVG/1.1/DTD/svg11.dtd"><svg width="100%" height="100%" viewBox="0 0 50 50" version="1.1" xmlns="http://www.w3.org/2000/svg" xmlns:xlink="http://www.w3.org/1999/xlink" xml:space="preserve" xmlns:serif="http://www.serif.com/" style="fill-rule:evenodd;clip-rule:evenodd;stroke-linejoin:round;stroke-miterlimit:2;"><rect id="focus-science" x="0" y="0" width="50" height="50" style="fill:none;"/><g id="focus-science1" serif:id="focus-science"><g id="Focus-Frame" serif:id="Focus Frame"><path d="M25,1L45.785,13L45.785,37L25,49L4.215,37L4.215,13L25,1Z" style="fill:#10273d;"/><path d="M25,0L46.651,12.5L46.651,37.5L25,50L3.349,37.5L3.349,12.5L25,0ZM25,2.309L44.651,13.655C44.651,13.655 44.651,36.345 44.651,36.345C44.651,36.345 25,47.691 25,47.691C25,47.691 5.349,36.345 5.349,36.345C5.349,36.345 5.349,13.655 5.349,13.655L25,2.309Z" style="fill:#0077af;"/></g><g id="Science"><path id="Science1" serif:id="Science" d="M32.066,38C25.958,41.32 18.56,39.879 14.079,34.963C14.031,34.781 13.982,34.601 13.942,34.419C18.843,36.784 24.769,36.841 29.915,34.044C35.061,31.248 38.237,26.243 38.919,20.845C39.049,20.978 39.174,21.117 39.299,21.255C40.99,27.689 38.173,34.681 32.066,38M36.352,18.757C36.319,23.968 33.529,29.005 28.626,31.669C23.72,34.334 17.978,33.936 13.585,31.131C13.62,25.919 16.409,20.883 21.313,18.217C26.218,15.552 31.961,15.95 36.352,18.757M17.933,12C24.02,8.691 31.391,10.11 35.877,14.99C35.917,15.148 35.962,15.308 35.995,15.468C31.096,13.104 25.171,13.047 20.024,15.844C14.878,18.64 11.701,23.643 11.021,29.043C10.904,28.925 10.794,28.801 10.682,28.681C9.029,22.264 11.846,15.308 17.933,12M41.749,19.924C41.41,18.809 40.953,17.71 40.374,16.644C39.784,15.558 39.095,14.561 38.327,13.657C36.864,11.936 35.11,10.549 33.177,9.532C28.176,6.89 21.987,6.722 16.644,9.625C11.301,12.53 8.077,17.813 7.57,23.448C7.375,25.623 7.584,27.849 8.232,30.012C8.574,31.149 9.036,32.27 9.626,33.355C10.205,34.421 10.877,35.402 11.629,36.294C13.11,38.05 14.896,39.462 16.864,40.493C21.86,43.109 28.027,43.271 33.355,40.375C38.685,37.478 41.905,32.216 42.426,26.6C42.629,24.389 42.419,22.122 41.749,19.924" style="fill:#6e9cf7;fill-rule:nonzero;"/></g></g></svg>