<svg xmlns="http://www.w3.org/2000/svg" xml:space="preserve" style="fill-rule:evenodd;clip-rule:evenodd;stroke-linejoin:round;stroke-miterlimit:2" viewBox="0 0 50 50"><path d="M0 0h50v50H0z" style="fill:none"/><path d="m25 1 20.785 12v24L25 49 4.215 37V13z" style="fill:#10273d"/><path d="m25 0 21.651 12.5v25L25 50 3.349 37.5v-25zm0 2.309 19.651 11.346v22.69L25 47.691 5.349 36.345v-22.69z" style="fill:#0077af"/><path d="M14 24h-1v-4a1 1 0 0 0-1-1h-2a1 1 0 0 0-1 1v4h-.5a.5.5 0 0 0-.5.5v1a.5.5 0 0 0 .5.5H9v4a1 1 0 0 0 1 1h2a1 1 0 0 0 1-1v-4h1v6a1 1 0 0 0 1 1h2a1 1 0 0 0 1-1v-6h14v6a1 1 0 0 0 1 1h2a1 1 0 0 0 1-1v-6h1v4a1 1 0 0 0 1 1h2a1 1 0 0 0 1-1v-4h.5a.5.5 0 0 0 .5-.5v-1a.5.5 0 0 0-.5-.5H41v-4a1 1 0 0 0-1-1h-2a1 1 0 0 0-1 1v4h-1v-6a1 1 0 0 0-1-1h-2a1 1 0 0 0-1 1v6H18v-6a1 1 0 0 0-1-1h-2a1 1 0 0 0-1 1z" style="fill:#f1de7f"/></svg>