<svg xmlns="http://www.w3.org/2000/svg" xml:space="preserve" style="fill-rule:evenodd;clip-rule:evenodd;stroke-linejoin:round;stroke-miterlimit:2" viewBox="0 0 50 50"><path d="M0 0h50v50H0z" style="fill:none"/><path d="m25 1 20.785 12v24L25 49 4.215 37V13z" style="fill:#10273d"/><path d="m25 0 21.651 12.5v25L25 50 3.349 37.5v-25zm0 2.309 19.651 11.346v22.69L25 47.691 5.349 36.345v-22.69z" style="fill:#0077af"/><path d="M20.667 22.667h8.666A6.67 6.67 0 0 1 36 29.333 6.67 6.67 0 0 1 29.333 36H15v4h14.333C35.22 40 40 35.22 40 29.333s-4.78-10.666-10.667-10.666h-8.666zm8.666 4.666h-8.666A6.67 6.67 0 0 1 14 20.667 6.67 6.67 0 0 1 20.667 14H35v-4H20.667C14.78 10 10 14.78 10 20.667s4.78 10.666 10.667 10.666h8.666z" style="fill:#f1de7f"/></svg>