<?xml version="1.0" encoding="UTF-8" standalone="no"?><!DOCTYPE svg PUBLIC "-//W3C//DTD SVG 1.1//EN" "http://www.w3.org/Graphics/SVG/1.1/DTD/svg11.dtd"><svg width="100%" height="100%" viewBox="0 0 50 50" version="1.1" xmlns="http://www.w3.org/2000/svg" xmlns:xlink="http://www.w3.org/1999/xlink" xml:space="preserve" xmlns:serif="http://www.serif.com/" style="fill-rule:evenodd;clip-rule:evenodd;stroke-linejoin:round;stroke-miterlimit:2;"><rect id="focus-engines" x="0" y="0" width="50" height="50" style="fill:none;"/><g id="focus-engines1" serif:id="focus-engines"><g id="Focus-Frame" serif:id="Focus Frame"><path d="M25,1L45.785,13L45.785,37L25,49L4.215,37L4.215,13L25,1Z" style="fill:#10273d;"/><path d="M25,0L46.651,12.5L46.651,37.5L25,50L3.349,37.5L3.349,12.5L25,0ZM25,2.309L44.651,13.655C44.651,13.655 44.651,36.345 44.651,36.345C44.651,36.345 25,47.691 25,47.691C25,47.691 5.349,36.345 5.349,36.345C5.349,36.345 5.349,13.655 5.349,13.655L25,2.309Z" style="fill:#0077af;"/></g><g id="Warp-Core" serif:id="Warp Core"><path id="Warp-Core1" serif:id="Warp Core" d="M34.412,39.118C34.412,38.079 33.568,37.235 32.529,37.235L17.471,37.235C16.432,37.235 15.588,38.079 15.588,39.118C15.588,40.157 16.432,41 17.471,41L32.529,41C33.568,41 34.412,40.157 34.412,39.118ZM34.412,33.471C34.412,32.432 33.568,31.588 32.529,31.588L17.471,31.588C16.432,31.588 15.588,32.432 15.588,33.471C15.588,34.509 16.432,35.353 17.471,35.353L32.529,35.353C33.568,35.353 34.412,34.509 34.412,33.471ZM37.235,25C37.235,22.403 35.127,20.294 32.529,20.294L17.471,20.294C14.873,20.294 12.765,22.403 12.765,25C12.765,27.597 14.873,29.706 17.471,29.706L32.529,29.706C35.127,29.706 37.235,27.597 37.235,25ZM27.824,25C27.824,23.442 26.558,22.176 25,22.176C23.442,22.176 22.176,23.442 22.176,25C22.176,26.558 23.442,27.824 25,27.824C26.558,27.824 27.824,26.558 27.824,25ZM34.412,16.529C34.412,15.491 33.568,14.647 32.529,14.647L17.471,14.647C16.432,14.647 15.588,15.491 15.588,16.529C15.588,17.568 16.432,18.412 17.471,18.412L32.529,18.412C33.568,18.412 34.412,17.568 34.412,16.529ZM34.412,10.882C34.412,9.843 33.568,9 32.529,9L17.471,9C16.432,9 15.588,9.843 15.588,10.882C15.588,11.921 16.432,12.765 17.471,12.765L32.529,12.765C33.568,12.765 34.412,11.921 34.412,10.882Z" style="fill:#f1de7f;"/></g></g></svg>