<?xml version="1.0" encoding="UTF-8" standalone="no"?><!DOCTYPE svg PUBLIC "-//W3C//DTD SVG 1.1//EN" "http://www.w3.org/Graphics/SVG/1.1/DTD/svg11.dtd"><svg width="100%" height="100%" viewBox="0 0 50 50" version="1.1" xmlns="http://www.w3.org/2000/svg" xmlns:xlink="http://www.w3.org/1999/xlink" xml:space="preserve" xmlns:serif="http://www.serif.com/" style="fill-rule:evenodd;clip-rule:evenodd;stroke-linejoin:round;stroke-miterlimit:2;"><rect id="focus-starfleet" x="0" y="0" width="50" height="50" style="fill:none;"/><g id="focus-starfleet1" serif:id="focus-starfleet"><g id="Focus-Frame" serif:id="Focus Frame"><path d="M25,1L45.785,13L45.785,37L25,49L4.215,37L4.215,13L25,1Z" style="fill:#10273d;"/><path d="M25,0L46.651,12.5L46.651,37.5L25,50L3.349,37.5L3.349,12.5L25,0ZM25,2.309L44.651,13.655C44.651,13.655 44.651,36.345 44.651,36.345C44.651,36.345 25,47.691 25,47.691C25,47.691 5.349,36.345 5.349,36.345C5.349,36.345 5.349,13.655 5.349,13.655L25,2.309Z" style="fill:#0077af;"/></g><g id="Starfleet-Delta" serif:id="Starfleet Delta"><path id="Starfleet-Delta1" serif:id="Starfleet Delta" d="M28.303,26.522C30.178,26.44 36.323,39.975 36.296,39.404C35.726,27.66 26.345,4.499 25.082,4.5C23.818,4.501 14.438,27.986 13.704,39.486C13.672,39.981 23.558,26.729 28.303,26.522Z" style="fill:#b8d3e0;"/></g></g></svg>