<?xml version="1.0" encoding="UTF-8" standalone="no"?><!DOCTYPE svg PUBLIC "-//W3C//DTD SVG 1.1//EN" "http://www.w3.org/Graphics/SVG/1.1/DTD/svg11.dtd"><svg width="100%" height="100%" viewBox="0 0 50 50" version="1.1" xmlns="http://www.w3.org/2000/svg" xmlns:xlink="http://www.w3.org/1999/xlink" xml:space="preserve" xmlns:serif="http://www.serif.com/" style="fill-rule:evenodd;clip-rule:evenodd;stroke-linejoin:round;stroke-miterlimit:2;"><rect id="focus-medical" x="0" y="0" width="50" height="50" style="fill:none;"/><g id="focus-medical1" serif:id="focus-medical"><g id="Focus-Frame" serif:id="Focus Frame"><path d="M25,1L45.785,13L45.785,37L25,49L4.215,37L4.215,13L25,1Z" style="fill:#10273d;"/><path d="M25,0L46.651,12.5L46.651,37.5L25,50L3.349,37.5L3.349,12.5L25,0ZM25,2.309L44.651,13.655C44.651,13.655 44.651,36.345 44.651,36.345C44.651,36.345 25,47.691 25,47.691C25,47.691 5.349,36.345 5.349,36.345C5.349,36.345 5.349,13.655 5.349,13.655L25,2.309Z" style="fill:#0077af;"/></g><g id="Medical"><path id="Medical1" serif:id="Medical" d="M23.783,36.612C23.783,36.673 23.782,36.711 23.783,36.749C23.866,38.786 23.949,40.822 24.032,42.859C24.05,43.303 24.052,43.75 24.089,44.192C24.128,44.669 24.46,44.976 24.916,44.998C24.94,44.999 24.964,45 24.988,45C25.471,45 25.791,44.75 25.891,44.285C25.914,44.178 25.922,44.067 25.926,43.958C25.942,43.469 25.951,42.98 25.97,42.491C26.028,40.954 26.088,39.416 26.154,37.88C26.159,37.764 26.122,37.715 26.024,37.67C25.621,37.484 25.22,37.291 24.819,37.101C24.478,36.94 24.137,36.78 23.783,36.612ZM22.294,30.909C22.231,30.909 22.165,30.918 22.094,30.94C20.42,31.452 19.875,33.393 21.088,34.626C21.361,34.903 21.691,35.149 22.038,35.326C23.098,35.867 24.18,36.367 25.254,36.882C25.6,37.049 25.951,37.207 26.294,37.38C26.542,37.506 26.769,37.665 26.842,37.96C26.889,38.153 26.832,38.247 26.64,38.273C26.535,38.287 26.505,38.331 26.502,38.431C26.491,38.838 26.472,39.244 26.456,39.65C26.453,39.725 26.449,39.799 26.444,39.888C27.108,39.871 27.682,39.704 28.087,39.166C28.616,38.463 28.56,37.442 27.961,36.705C27.624,36.289 27.179,36.023 26.703,35.798C25.461,35.213 24.22,34.628 22.988,34.024C22.701,33.883 22.448,33.671 22.187,33.481C22.065,33.392 22.027,33.251 22.03,33.099C22.035,32.811 22.166,32.613 22.47,32.512C22.659,32.449 22.863,32.43 23.085,32.387C23.048,31.999 23.011,31.606 22.971,31.213C22.968,31.179 22.952,31.125 22.929,31.116C22.718,31.036 22.529,30.909 22.294,30.909ZM22.708,36.184C22.605,36.184 22.496,36.209 22.376,36.272C21.609,36.67 21.12,37.465 21.234,38.234C21.4,39.35 22.415,39.876 23.358,39.876C23.421,39.876 23.484,39.873 23.546,39.868C23.524,39.35 23.502,38.83 23.48,38.316C23.307,38.275 23.144,38.248 22.989,38.195C22.923,38.173 22.843,38.108 22.824,38.046C22.793,37.94 22.84,37.835 22.951,37.788C23.101,37.724 23.256,37.671 23.44,37.601C23.422,37.24 23.403,36.862 23.381,36.484C23.38,36.456 23.36,36.414 23.337,36.403C23.127,36.304 22.933,36.184 22.708,36.184ZM22.258,25.183C22.056,25.212 21.865,25.228 21.68,25.269C20.789,25.469 20.159,25.977 19.904,26.871C19.644,27.784 19.81,28.617 20.492,29.307C20.995,29.816 21.632,30.126 22.276,30.409C23.659,31.016 25.048,31.606 26.433,32.207C26.674,32.312 26.913,32.426 27.139,32.56C27.374,32.699 27.567,32.893 27.654,33.161C27.777,33.543 27.71,33.898 27.236,34.018C27.087,34.056 26.936,34.085 26.768,34.122C26.748,34.395 26.731,34.663 26.707,34.931C26.668,35.359 26.666,35.358 27.056,35.547C27.106,35.571 27.153,35.602 27.204,35.62C27.235,35.632 27.271,35.642 27.304,35.642C27.312,35.642 27.321,35.641 27.328,35.64C27.878,35.541 28.368,35.325 28.746,34.899C29.404,34.158 29.489,33.123 28.958,32.234C28.566,31.577 27.985,31.139 27.292,30.84C25.806,30.197 24.314,29.566 22.835,28.907C22.433,28.728 22.06,28.474 21.688,28.233C21.572,28.158 21.447,28.02 21.422,27.893C21.296,27.236 21.495,26.92 22.1,26.816C22.222,26.795 22.345,26.785 22.472,26.77C22.401,26.241 22.331,25.725 22.258,25.183ZM23.372,31.319C23.409,31.736 23.445,32.135 23.479,32.534C23.513,32.939 23.551,33.344 23.577,33.75C23.584,33.869 23.63,33.93 23.739,33.98C24.272,34.225 24.801,34.48 25.332,34.731C25.648,34.881 25.965,35.029 26.294,35.184C26.305,35.116 26.315,35.069 26.319,35.02C26.378,34.27 26.433,33.519 26.495,32.769C26.503,32.671 26.462,32.635 26.383,32.6C25.42,32.187 24.458,31.771 23.495,31.356C23.46,31.34 23.42,31.333 23.372,31.319ZM27.714,25.362L27.707,25.362C27.637,25.891 27.569,26.406 27.499,26.939C27.582,26.944 27.637,26.946 27.691,26.951C28.058,26.988 28.386,27.109 28.692,27.331C29.082,27.614 28.95,28.558 28.428,28.666C28.161,28.721 27.889,28.765 27.617,28.781C27.282,28.802 27.276,28.786 27.238,29.112C27.189,29.52 27.15,29.928 27.105,30.348C27.166,30.358 27.212,30.372 27.257,30.372L27.265,30.372C27.665,30.354 28.071,30.371 28.463,30.308C29.871,30.079 30.768,28.75 30.452,27.366C30.244,26.451 29.634,25.886 28.778,25.564C28.441,25.437 28.091,25.362 27.714,25.362ZM25.309,12L24.682,12C24.652,12.01 24.622,12.025 24.591,12.029C23.809,12.141 23.167,12.504 22.676,13.119C21.596,14.469 21.891,16.402 23.319,17.418C23.466,17.522 23.609,17.64 23.721,17.778C23.788,17.861 23.844,18.019 23.808,18.1C23.774,18.177 23.615,18.231 23.508,18.238C23.374,18.246 23.241,18.248 23.106,18.248L22.617,18.245C22.043,18.247 21.656,18.677 21.741,19.248C21.983,20.85 22.25,22.449 22.482,24.053C22.693,25.515 22.873,26.982 23.061,28.448C23.076,28.56 23.11,28.621 23.217,28.666C23.794,28.909 24.367,29.16 24.942,29.408C25.531,29.662 26.121,29.916 26.727,30.177C26.74,30.094 26.752,30.026 26.76,29.956C26.787,29.705 26.809,29.453 26.841,29.202C26.988,28.008 27.127,26.813 27.29,25.621C27.471,24.298 27.669,22.978 27.867,21.657C27.988,20.859 28.131,20.064 28.247,19.265C28.334,18.666 27.956,18.246 27.358,18.245L26.887,18.246C26.742,18.246 26.596,18.245 26.451,18.241C26.154,18.231 26.056,18.048 26.24,17.819C26.371,17.655 26.542,17.517 26.712,17.389C27.631,16.697 28.063,15.775 27.939,14.635C27.82,13.536 27.222,12.737 26.218,12.271C25.934,12.14 25.613,12.088 25.309,12ZM28.731,19.706C28.631,19.706 28.562,19.712 28.542,19.842C28.407,20.727 28.262,21.611 28.122,22.495C28.059,22.896 28.154,23.088 28.428,23.088C28.513,23.088 28.615,23.069 28.736,23.032C31.395,22.214 34.054,21.397 36.712,20.573C36.919,20.509 37.122,20.417 37.312,20.311C37.544,20.179 37.715,19.979 37.841,19.708L37.624,19.708C36.299,19.708 34.975,19.708 33.65,19.708L31.803,19.708L28.731,19.706ZM21.217,19.704L21.216,19.704C19.294,19.707 17.372,19.708 15.45,19.708L12.139,19.708C12.197,19.802 12.231,19.863 12.27,19.921C12.509,20.271 12.863,20.448 13.255,20.569C15.918,21.389 18.582,22.21 21.246,23.03C21.37,23.068 21.475,23.087 21.562,23.087C21.838,23.087 21.933,22.893 21.868,22.487C21.73,21.631 21.587,20.775 21.459,19.917C21.435,19.753 21.385,19.704 21.217,19.704ZM19.863,16.694L10.498,16.694C10.528,16.754 10.551,16.803 10.576,16.849C11,17.625 11.427,18.4 11.847,19.178C11.906,19.289 11.972,19.328 12.099,19.328L12.1,19.328C14.195,19.325 16.289,19.325 18.384,19.325L21.349,19.325C21.313,18.86 21.206,18.457 20.849,18.155C20.686,18.016 20.541,17.856 20.39,17.704C20.108,17.422 19.75,17.182 19.863,16.694ZM39.493,16.694L30.158,16.694C30.152,16.73 30.14,16.762 30.142,16.794C30.162,17.089 30.024,17.305 29.815,17.499C29.549,17.745 29.3,18.01 29.038,18.261C28.737,18.55 28.686,18.926 28.64,19.318C28.698,19.321 28.741,19.325 28.784,19.325C31.831,19.325 34.878,19.325 37.925,19.327L37.925,19.327C38.026,19.327 38.08,19.296 38.128,19.206C38.559,18.409 38.996,17.615 39.432,16.82C39.452,16.783 39.469,16.744 39.493,16.694ZM13.989,13.487C12.681,13.487 11.373,13.488 10.065,13.489C9.61,13.489 9.312,13.769 9.313,14.224C9.313,14.403 9.36,14.598 9.44,14.759C9.677,15.23 9.944,15.685 10.191,16.151C10.249,16.262 10.314,16.304 10.443,16.304L10.443,16.304C12.585,16.301 14.728,16.301 16.87,16.301L19.83,16.301C19.837,16.262 19.844,16.242 19.844,16.221C19.844,15.693 19.849,15.165 19.841,14.637C19.836,14.245 19.629,13.964 19.305,13.765C18.971,13.56 18.6,13.489 18.216,13.489C16.807,13.488 15.398,13.487 13.989,13.487ZM36.743,13.487C35.069,13.487 33.394,13.489 31.72,13.496C31.452,13.497 31.173,13.564 30.919,13.655C30.38,13.849 30.146,14.218 30.145,14.791L30.145,16.301L39.517,16.301C39.54,16.301 39.564,16.304 39.588,16.304C39.603,16.304 39.618,16.303 39.631,16.298C39.674,16.286 39.731,16.268 39.749,16.234C40.065,15.638 40.375,15.04 40.687,14.442L40.687,14.112C40.583,13.737 40.373,13.488 39.951,13.488L36.743,13.487Z" style="fill:#3db8f5;fill-rule:nonzero;"/></g></g></svg>