<?xml version="1.0" encoding="UTF-8" standalone="no"?><!DOCTYPE svg PUBLIC "-//W3C//DTD SVG 1.1//EN" "http://www.w3.org/Graphics/SVG/1.1/DTD/svg11.dtd"><svg width="100%" height="100%" viewBox="0 0 50 50" version="1.1" xmlns="http://www.w3.org/2000/svg" xmlns:xlink="http://www.w3.org/1999/xlink" xml:space="preserve" xmlns:serif="http://www.serif.com/" style="fill-rule:evenodd;clip-rule:evenodd;stroke-linejoin:round;stroke-miterlimit:2;"><rect id="focus-ferengi" x="0" y="0" width="50" height="50" style="fill:none;"/><g id="focus-ferengi1" serif:id="focus-ferengi"><g id="Focus-Frame" serif:id="Focus Frame"><path d="M25,1L45.785,13L45.785,37L25,49L4.215,37L4.215,13L25,1Z" style="fill:#10273d;"/><path d="M25,0L46.651,12.5L46.651,37.5L25,50L3.349,37.5L3.349,12.5L25,0ZM25,2.309L44.651,13.655C44.651,13.655 44.651,36.345 44.651,36.345C44.651,36.345 25,47.691 25,47.691C25,47.691 5.349,36.345 5.349,36.345C5.349,36.345 5.349,13.655 5.349,13.655L25,2.309Z" style="fill:#0077af;"/></g><g id="Ferengi"><path id="Ferengi1" serif:id="Ferengi" d="M42.5,26.573L35.077,39.206L32.079,39.256C25.787,39.354 22.1,39.338 21.018,39.206C17.479,38.813 14.595,37.65 12.367,35.716C10.597,34.242 9.302,32.357 8.483,30.063C7.86,28.457 7.533,26.884 7.5,25.344L23.132,25.344C23.165,26.589 23.509,27.884 24.164,29.228C24.951,30.833 26,32.128 27.31,33.111C28.883,34.258 30.702,34.831 32.767,34.831L41.025,26.573L42.5,26.573ZM38.764,25.344L30.997,33.258C28.998,32.767 27.441,31.767 26.327,30.26C25.475,29.178 24.934,27.933 24.705,26.524L25.885,26.524C26.213,27.507 26.721,28.31 27.409,28.933C27.966,29.391 28.769,29.817 29.817,30.211L32.767,25.344L38.764,25.344ZM42.5,23.427L41.025,23.427L32.767,15.169C30.702,15.169 28.883,15.742 27.31,16.889C26,17.872 24.951,19.167 24.164,20.772C23.509,22.116 23.165,23.411 23.132,24.656L7.5,24.656C7.533,23.116 7.86,21.543 8.483,19.937C9.302,17.643 10.597,15.758 12.367,14.284C14.595,12.35 17.479,11.187 21.018,10.794C22.1,10.662 25.787,10.646 32.079,10.744L35.077,10.794L42.5,23.427ZM38.764,24.656L32.767,24.656L29.817,19.789C28.769,20.183 27.966,20.609 27.409,21.067C26.721,21.69 26.213,22.493 25.885,23.476L24.705,23.476C24.934,22.067 25.475,20.805 26.327,19.691C27.441,18.216 28.998,17.217 30.997,16.692L38.764,24.656ZM28.933,27.261C28.31,27.261 27.786,27.04 27.36,26.598C26.934,26.155 26.721,25.623 26.721,25C26.721,24.377 26.934,23.845 27.36,23.402C27.786,22.96 28.31,22.739 28.933,22.739C29.555,22.739 30.088,22.96 30.53,23.402C30.973,23.845 31.194,24.377 31.194,25C31.194,25.623 30.973,26.155 30.53,26.598C30.088,27.04 29.555,27.261 28.933,27.261Z" style="fill:#78db57;fill-rule:nonzero;"/></g></g></svg>