<?xml version="1.0" encoding="UTF-8" standalone="no"?><!DOCTYPE svg PUBLIC "-//W3C//DTD SVG 1.1//EN" "http://www.w3.org/Graphics/SVG/1.1/DTD/svg11.dtd"><svg width="100%" height="100%" viewBox="0 0 50 50" version="1.1" xmlns="http://www.w3.org/2000/svg" xmlns:xlink="http://www.w3.org/1999/xlink" xml:space="preserve" xmlns:serif="http://www.serif.com/" style="fill-rule:evenodd;clip-rule:evenodd;stroke-linejoin:round;stroke-miterlimit:2;"><rect id="focus-trill" x="0" y="0" width="50" height="50" style="fill:none;"/><g id="focus-trill1" serif:id="focus-trill"><g id="Focus-Frame" serif:id="Focus Frame"><path d="M25,1L45.785,13L45.785,37L25,49L4.215,37L4.215,13L25,1Z" style="fill:#10273d;"/><path d="M25,0L46.651,12.5L46.651,37.5L25,50L3.349,37.5L3.349,12.5L25,0ZM25,2.309L44.651,13.655C44.651,13.655 44.651,36.345 44.651,36.345C44.651,36.345 25,47.691 25,47.691C25,47.691 5.349,36.345 5.349,36.345C5.349,36.345 5.349,13.655 5.349,13.655L25,2.309Z" style="fill:#0077af;"/></g><g id="Trill"><path id="Trill1" serif:id="Trill" d="M20.198,30.413L26.79,30.413L26.79,22.817L28.841,22.817L28.841,30.413L30.325,30.413L30.325,22.817L32.377,22.817L32.377,30.413L41.5,30.413L41.5,31.853L40.802,32.726L32.377,32.726L32.377,40.583L30.325,40.583L30.325,32.726L28.841,32.726L28.841,40.583L26.79,40.583L26.79,32.726L20.198,32.726C16.968,32.726 14.211,31.591 11.927,29.321C9.642,27.052 8.5,24.302 8.5,21.071C8.5,19.704 8.747,18.351 9.242,17.012L8.718,16.139L9.722,15.048L10.202,15.048C11.25,13.331 12.632,11.978 14.349,10.988C16.153,9.94 18.11,9.417 20.22,9.417C22.33,9.417 24.272,9.94 26.048,10.988C27.91,12.123 29.307,13.476 30.238,15.048L37.31,15.048C38.212,15.077 39.114,15.615 40.016,16.663C40.86,17.594 41.311,18.511 41.369,19.413L40.671,20.111L34.647,20.111L34.647,21.246L34.123,21.813L25.262,21.857C25.029,23.108 24.447,24.149 23.516,24.978C22.585,25.808 21.479,26.222 20.198,26.222C18.743,26.222 17.521,25.713 16.532,24.694C15.542,23.676 15.048,22.468 15.048,21.071C15.048,19.937 15.426,18.874 16.183,17.885L11.425,17.885C11.046,18.903 10.857,19.966 10.857,21.071C10.857,23.632 11.767,25.829 13.585,27.663C15.404,29.496 17.608,30.413 20.198,30.413ZM27.401,15.048C25.597,12.865 23.196,11.774 20.198,11.774C17.317,11.774 14.931,12.865 13.04,15.048L27.401,15.048Z" style="fill:#ccc;fill-rule:nonzero;"/></g></g></svg>