<svg xmlns="http://www.w3.org/2000/svg" xml:space="preserve" style="fill-rule:evenodd;clip-rule:evenodd;stroke-linejoin:round;stroke-miterlimit:2" viewBox="0 0 50 50"><path d="M0 0h50v50H0z" style="fill:none"/><path d="m25 1 20.785 12v24L25 49 4.215 37V13z" style="fill:#10273d"/><path d="m25 0 21.651 12.5v25L25 50 3.349 37.5v-25zm0 2.309 19.651 11.346v22.69L25 47.691 5.349 36.345v-22.69z" style="fill:#0077af"/><path d="M20.198 30.413h6.592v-7.596h2.051v7.596h1.484v-7.596h2.052v7.596H41.5v1.44l-.698.873h-8.425v7.857h-2.052v-7.857h-1.484v7.857H26.79v-7.857h-6.592q-4.845 0-8.271-3.405Q8.5 25.918 8.5 21.071q0-2.05.742-4.059l-.524-.873 1.004-1.091h.48a11.55 11.55 0 0 1 4.147-4.06 11.5 11.5 0 0 1 5.871-1.571q3.165 0 5.828 1.571 2.793 1.702 4.19 4.06h7.072q1.353.043 2.706 1.615 1.266 1.397 1.353 2.75l-.698.698h-6.024v1.135l-.524.567-8.861.044q-.35 1.877-1.746 3.121t-3.318 1.244q-2.182 0-3.666-1.528-1.485-1.527-1.484-3.623 0-1.702 1.135-3.186h-4.758a9.1 9.1 0 0 0-.568 3.186q0 3.841 2.728 6.592t6.613 2.75m7.203-15.365q-2.706-3.274-7.203-3.274-4.321 0-7.158 3.274z" style="fill:#ccc;fill-rule:nonzero"/></svg>