<svg xmlns="http://www.w3.org/2000/svg" xml:space="preserve" style="fill-rule:evenodd;clip-rule:evenodd;stroke-linejoin:round;stroke-miterlimit:2" viewBox="0 0 50 50"><path d="M0 0h50v50H0z" style="fill:none"/><path d="m25 1 20.785 12v24L25 49 4.215 37V13z" style="fill:#10273d"/><path d="m25 0 21.651 12.5v25L25 50 3.349 37.5v-25zm0 2.309 19.651 11.346v22.69L25 47.691 5.349 36.345v-22.69z" style="fill:#0077af"/><path d="M28.534 8.371a17 17 0 0 0-7.068 0l-.087 4.404a12.76 12.76 0 0 0-5.156 2.976l-3.856-2.126a17 17 0 0 0-3.535 6.122l3.77 2.277a12.8 12.8 0 0 0 0 5.952l-3.77 2.277a17 17 0 0 0 3.535 6.122l3.856-2.126a12.76 12.76 0 0 0 5.156 2.976l.087 4.404c2.33.495 4.738.495 7.068 0l.087-4.404a12.76 12.76 0 0 0 5.156-2.976l3.856 2.126a17 17 0 0 0 3.535-6.122l-3.77-2.277a12.8 12.8 0 0 0 0-5.952l3.77-2.277a17 17 0 0 0-3.535-6.122l-3.856 2.126a12.76 12.76 0 0 0-5.156-2.976zM25 20.75A4.25 4.25 0 0 1 29.25 25 4.25 4.25 0 0 1 25 29.25 4.25 4.25 0 0 1 20.75 25 4.25 4.25 0 0 1 25 20.75" style="fill:#f1de7f"/></svg>