<?xml version="1.0" encoding="UTF-8" standalone="no"?><!DOCTYPE svg PUBLIC "-//W3C//DTD SVG 1.1//EN" "http://www.w3.org/Graphics/SVG/1.1/DTD/svg11.dtd"><svg width="100%" height="100%" viewBox="0 0 50 50" version="1.1" xmlns="http://www.w3.org/2000/svg" xmlns:xlink="http://www.w3.org/1999/xlink" xml:space="preserve" xmlns:serif="http://www.serif.com/" style="fill-rule:evenodd;clip-rule:evenodd;stroke-linejoin:round;stroke-miterlimit:2;"><rect id="focus-comms" x="0" y="0" width="50" height="50" style="fill:none;"/><g id="focus-comms1" serif:id="focus-comms"><g id="Focus-Frame" serif:id="Focus Frame"><path d="M25,1L45.785,13L45.785,37L25,49L4.215,37L4.215,13L25,1Z" style="fill:#10273d;"/><path d="M25,0L46.651,12.5L46.651,37.5L25,50L3.349,37.5L3.349,12.5L25,0ZM25,2.309L44.651,13.655C44.651,13.655 44.651,36.345 44.651,36.345C44.651,36.345 25,47.691 25,47.691C25,47.691 5.349,36.345 5.349,36.345C5.349,36.345 5.349,13.655 5.349,13.655L25,2.309Z" style="fill:#0077af;"/></g><g id="Comms"><path id="Comms1" serif:id="Comms" d="M24.435,39.597C24.209,39.426 24.063,39.154 24.063,38.85C24.063,38.332 24.483,37.913 25,37.913C25.517,37.913 25.937,38.332 25.937,38.85C25.937,39.154 25.791,39.426 25.565,39.597L25.643,40.221C29.132,40.154 32.31,39.553 34.371,38.822C34.371,41.408 30.172,43.507 25,43.507C19.828,43.507 15.629,41.408 15.629,38.822C17.69,39.553 20.868,40.154 24.357,40.221L24.435,39.597ZM18.441,32.263C20.627,33.497 22.814,34.11 25,34.108C27.186,34.105 29.373,33.488 31.559,32.263C27.186,37.208 22.814,37.294 18.441,32.263ZM16.566,28.521C19.378,29.756 22.189,30.369 25,30.366C27.811,30.364 30.622,29.746 33.434,28.521C27.811,33.467 22.189,33.552 16.566,28.521ZM14.692,24.773C18.128,26.008 21.564,26.62 25,26.618C28.436,26.616 31.872,25.998 35.308,24.773C28.436,29.719 21.564,29.804 14.692,24.773ZM12.818,21.018C16.879,22.253 20.939,22.865 25,22.863C29.061,22.86 33.121,22.243 37.182,21.018C29.061,25.963 20.939,26.049 12.818,21.018ZM10.944,17.263C15.629,18.497 20.315,19.11 25,19.108C29.685,19.105 34.371,18.488 39.056,17.263C29.685,22.208 20.315,22.294 10.944,17.263ZM9.07,13.507C14.38,14.742 19.69,15.355 25,15.352C30.31,15.35 35.62,14.733 40.93,13.507C30.31,18.453 19.69,18.538 9.07,13.507Z" style="fill:#f1de7f;"/></g></g></svg>