<?xml version="1.0" encoding="UTF-8" standalone="no"?><!DOCTYPE svg PUBLIC "-//W3C//DTD SVG 1.1//EN" "http://www.w3.org/Graphics/SVG/1.1/DTD/svg11.dtd"><svg width="100%" height="100%" viewBox="0 0 50 50" version="1.1" xmlns="http://www.w3.org/2000/svg" xmlns:xlink="http://www.w3.org/1999/xlink" xml:space="preserve" xmlns:serif="http://www.serif.com/" style="fill-rule:evenodd;clip-rule:evenodd;stroke-linejoin:round;stroke-miterlimit:2;"><rect id="focus-maquis" x="0" y="0" width="50" height="50" style="fill:none;"/><g id="focus-maquis1" serif:id="focus-maquis"><g id="Focus-Frame" serif:id="Focus Frame"><path d="M25,1L45.785,13L45.785,37L25,49L4.215,37L4.215,13L25,1Z" style="fill:#10273d;"/><path d="M25,0L46.651,12.5L46.651,37.5L25,50L3.349,37.5L3.349,12.5L25,0ZM25,2.309L44.651,13.655C44.651,13.655 44.651,36.345 44.651,36.345C44.651,36.345 25,47.691 25,47.691C25,47.691 5.349,36.345 5.349,36.345C5.349,36.345 5.349,13.655 5.349,13.655L25,2.309Z" style="fill:#0077af;"/></g><g id="Maquis"><path id="Maquis1" serif:id="Maquis" d="M19.094,13.281L25,10L30.906,13.281L27.625,25.374L33.999,14.968L39.53,18.343L28.468,29.545L39.53,23.311L39.671,32.076C34.702,37.451 29.812,40.091 25,39.998C20.188,40.091 15.298,37.451 10.329,32.076L10.47,23.311L21.532,29.545L10.47,18.343L16.001,14.968L22.375,25.374L19.094,13.281Z" style="fill:#f2200d;fill-rule:nonzero;"/></g></g></svg>