<?xml version="1.0" encoding="UTF-8" standalone="no"?><!DOCTYPE svg PUBLIC "-//W3C//DTD SVG 1.1//EN" "http://www.w3.org/Graphics/SVG/1.1/DTD/svg11.dtd"><svg width="100%" height="100%" viewBox="0 0 50 50" version="1.1" xmlns="http://www.w3.org/2000/svg" xmlns:xlink="http://www.w3.org/1999/xlink" xml:space="preserve" xmlns:serif="http://www.serif.com/" style="fill-rule:evenodd;clip-rule:evenodd;stroke-linejoin:round;stroke-miterlimit:2;"><rect id="focus-career-veteran" x="0" y="0" width="50" height="50" style="fill:none;"/><g id="focus-career-veteran1" serif:id="focus-career-veteran"><g id="Focus-Frame" serif:id="Focus Frame"><path d="M25,1L45.785,13L45.785,37L25,49L4.215,37L4.215,13L25,1Z" style="fill:#10273d;"/><path d="M25,0L46.651,12.5L46.651,37.5L25,50L3.349,37.5L3.349,12.5L25,0ZM25,2.309L44.651,13.655C44.651,13.655 44.651,36.345 44.651,36.345C44.651,36.345 25,47.691 25,47.691C25,47.691 5.349,36.345 5.349,36.345C5.349,36.345 5.349,13.655 5.349,13.655L25,2.309Z" style="fill:#0077af;"/></g><g id="Veteran"><path id="Veteran1" serif:id="Veteran" d="M30.439,29.756C30.521,30.084 30.686,30.387 30.918,30.635C32.214,32.047 33,33.933 33,36C33,40.415 29.415,44 25,44C20.585,44 17,40.415 17,36C17,33.933 17.786,32.047 19.075,30.627C19.305,30.381 19.468,30.08 19.55,29.753C19.634,29.463 19.728,29.087 19.811,28.757C19.922,28.312 20.322,28 20.781,28C22.648,28 27.352,28 29.219,28C29.678,28 30.078,28.312 30.189,28.757C30.272,29.087 30.366,29.463 30.439,29.756ZM20.542,27L21.05,27L24.332,23.719L23.577,22.964C23.577,22.964 23.577,14 23.577,14L18.577,14L18.577,25.036L20.542,27ZM22.464,27L26.5,22.964L26.5,14L31.5,14L31.5,25.036L29.536,27L22.464,27ZM16.011,11L18,13L32,13L34.011,11L32,8L18,8L16.011,11Z" style="fill:#f1de7f;"/></g></g></svg>