<?xml version="1.0" encoding="UTF-8" standalone="no"?><!DOCTYPE svg PUBLIC "-//W3C//DTD SVG 1.1//EN" "http://www.w3.org/Graphics/SVG/1.1/DTD/svg11.dtd"><svg width="100%" height="100%" viewBox="0 0 50 50" version="1.1" xmlns="http://www.w3.org/2000/svg" xmlns:xlink="http://www.w3.org/1999/xlink" xml:space="preserve" xmlns:serif="http://www.serif.com/" style="fill-rule:evenodd;clip-rule:evenodd;stroke-linejoin:round;stroke-miterlimit:2;"><rect id="focus-structure" x="0" y="0" width="50" height="50" style="fill:none;"/><g id="focus-structure1" serif:id="focus-structure"><g id="Focus-Frame" serif:id="Focus Frame"><path d="M25,1L45.785,13L45.785,37L25,49L4.215,37L4.215,13L25,1Z" style="fill:#10273d;"/><path d="M25,0L46.651,12.5L46.651,37.5L25,50L3.349,37.5L3.349,12.5L25,0ZM25,2.309L44.651,13.655C44.651,13.655 44.651,36.345 44.651,36.345C44.651,36.345 25,47.691 25,47.691C25,47.691 5.349,36.345 5.349,36.345C5.349,36.345 5.349,13.655 5.349,13.655L25,2.309Z" style="fill:#0077af;"/></g><g id="Structure"><path id="Structure1" serif:id="Structure" d="M40.267,36.883L28.978,6.78L27.978,7.298C27.086,7.759 26.073,8.02 25,8.02C23.927,8.02 22.914,7.759 22.022,7.298L21.022,6.78L9.733,36.883L10.639,37.247C15.079,39.035 19.926,40.02 25,40.02C30.074,40.02 34.921,39.035 39.361,37.247L40.267,36.883ZM15.106,28.252C17.891,29.285 20.882,29.894 24,30.002L24,38.006C19.895,37.895 15.958,37.106 12.296,35.744L15.106,28.252ZM34.894,28.252L37.704,35.744C34.042,37.106 30.105,37.895 26,38.006L26,30.002C29.118,29.895 32.109,29.285 34.894,28.252ZM31.382,18.887L34.192,26.379C31.625,27.33 28.871,27.894 26,28.001L26,19.993C27.883,19.892 29.691,19.51 31.382,18.887ZM18.618,18.887C20.309,19.51 22.117,19.892 24,19.993L24,28.001C21.129,27.894 18.375,27.33 15.808,26.379L18.618,18.887ZM19.32,17.014L22.13,9.522C22.725,9.736 23.352,9.885 24,9.961L24,17.99C22.365,17.892 20.793,17.555 19.32,17.014ZM30.68,17.014C29.207,17.555 27.635,17.892 26,17.99L26,9.961C26.648,9.885 27.275,9.736 27.87,9.522L27.87,9.522L30.68,17.014Z" style="fill:#f1de7f;"/></g></g></svg>