<?xml version="1.0" encoding="UTF-8" standalone="no"?><!DOCTYPE svg PUBLIC "-//W3C//DTD SVG 1.1//EN" "http://www.w3.org/Graphics/SVG/1.1/DTD/svg11.dtd"><svg width="100%" height="100%" viewBox="0 0 50 50" version="1.1" xmlns="http://www.w3.org/2000/svg" xmlns:xlink="http://www.w3.org/1999/xlink" xml:space="preserve" xmlns:serif="http://www.serif.com/" style="fill-rule:evenodd;clip-rule:evenodd;stroke-linejoin:round;stroke-miterlimit:2;"><rect id="focus-defense" x="0" y="0" width="50" height="50" style="fill:none;"/><g id="focus-defense1" serif:id="focus-defense"><g id="Focus-Frame" serif:id="Focus Frame"><path d="M25,1L45.785,13L45.785,37L25,49L4.215,37L4.215,13L25,1Z" style="fill:#10273d;"/><path d="M25,0L46.651,12.5L46.651,37.5L25,50L3.349,37.5L3.349,12.5L25,0ZM25,2.309L44.651,13.655C44.651,13.655 44.651,36.345 44.651,36.345C44.651,36.345 25,47.691 25,47.691C25,47.691 5.349,36.345 5.349,36.345C5.349,36.345 5.349,13.655 5.349,13.655L25,2.309Z" style="fill:#0077af;"/></g><g id="Defense"><path id="Defense1" serif:id="Defense" d="M26.882,41L23.118,41L22.176,38.176L9,37.078L9.941,27.667L11.824,28.608L11.824,32.373C11.824,32.373 20.608,33.444 25,33.471C29.392,33.497 38.176,32.529 38.176,32.529L38.176,28.765L40.059,27.824L41,37.235L27.824,38.176L26.882,41ZM18.412,22.176L23.118,20.294L23.118,29.706L18.412,27.824L18.412,22.176ZM31.588,22.176L26.882,20.294L26.882,29.706L31.588,27.824L31.588,22.176ZM26.882,9L23.118,9L22.176,11.824L9,12.765L9.941,22.176L11.824,21.235L11.824,17.471C11.824,17.471 20.608,16.529 25,16.529C29.392,16.529 38.176,17.471 38.176,17.471L38.176,21.235L40.059,22.176L41,12.765L27.824,11.824L26.882,9Z" style="fill:#f1de7f;"/></g></g></svg>