<svg xmlns="http://www.w3.org/2000/svg" xml:space="preserve" style="fill-rule:evenodd;clip-rule:evenodd;stroke-linejoin:round;stroke-miterlimit:2" viewBox="0 0 50 50"><path d="M0 0h50v50H0z" style="fill:none"/><path d="m25 1 20.785 12v24L25 49 4.215 37V13z" style="fill:#10273d"/><path d="m25 0 21.651 12.5v25L25 50 3.349 37.5v-25zm0 2.309 19.651 11.346v22.69L25 47.691 5.349 36.345v-22.69z" style="fill:#0077af"/><path d="M13.83 23.236h2.785v.789H13.83zm5.895-3.667h.975q.14 1.439.697 2.507.556 1.067 1.578 1.114v.789q-.975.046-1.555 1.114t-.72 2.553h-.975q-.138-1.485-.719-2.553-.58-1.068-1.555-1.114v-.789q1.022-.047 1.578-1.114.558-1.068.696-2.507m8.913-11.976L30.17 7.5v35H19.725V29.038h1.022v7.706q0 1.254.51 1.88.511.627 1.346.627 1.718 0 2.878-2.089 1.068-1.857 1.857-5.849.742-3.528 1.068-9.702.232-5.152.232-14.018" style="fill:#bb81e4;fill-rule:nonzero"/></svg>