<svg xmlns="http://www.w3.org/2000/svg" xml:space="preserve" style="fill-rule:evenodd;clip-rule:evenodd;stroke-linejoin:round;stroke-miterlimit:2" viewBox="0 0 50 50"><path d="M0 0h50v50H0z" style="fill:none"/><path d="m25 1 20.785 12v24L25 49 4.215 37V13z" style="fill:#10273d"/><path d="m25 0 21.651 12.5v25L25 50 3.349 37.5v-25zm0 2.309 19.651 11.346v22.69L25 47.691 5.349 36.345v-22.69z" style="fill:#0077af"/><path d="M26.882 41h-3.764l-.942-2.824L9 37.078l.941-9.411 1.883.941v3.765S20.608 33.444 25 33.471c4.392.026 13.176-.942 13.176-.942v-3.764l1.883-.941.941 9.411-13.176.941zm-8.47-18.824 4.706-1.882v9.412l-4.706-1.882zm13.176 0-4.706-1.882v9.412l4.706-1.882zM26.882 9h-3.764l-.942 2.824L9 12.765l.941 9.411 1.883-.941v-3.764s8.784-.942 13.176-.942 13.176.942 13.176.942v3.764l1.883.941.941-9.411-13.176-.941z" style="fill:#f1de7f"/></svg>