<?xml version="1.0" encoding="UTF-8" standalone="no"?><!DOCTYPE svg PUBLIC "-//W3C//DTD SVG 1.1//EN" "http://www.w3.org/Graphics/SVG/1.1/DTD/svg11.dtd"><svg width="100%" height="100%" viewBox="0 0 50 50" version="1.1" xmlns="http://www.w3.org/2000/svg" xmlns:xlink="http://www.w3.org/1999/xlink" xml:space="preserve" xmlns:serif="http://www.serif.com/" style="fill-rule:evenodd;clip-rule:evenodd;stroke-linejoin:round;stroke-miterlimit:2;"><rect id="focus-conflict" x="0" y="0" width="50" height="50" style="fill:none;"/><g id="focus-conflict1" serif:id="focus-conflict"><g id="Focus-Frame" serif:id="Focus Frame"><path d="M25,1L45.785,13L45.785,37L25,49L4.215,37L4.215,13L25,1Z" style="fill:#10273d;"/><path d="M25,0L46.651,12.5L46.651,37.5L25,50L3.349,37.5L3.349,12.5L25,0ZM25,2.309L44.651,13.655C44.651,13.655 44.651,36.345 44.651,36.345C44.651,36.345 25,47.691 25,47.691C25,47.691 5.349,36.345 5.349,36.345C5.349,36.345 5.349,13.655 5.349,13.655L25,2.309Z" style="fill:#0077af;"/></g><g id="Conflict"><path id="Conflict1" serif:id="Conflict" d="M14.286,40C18.571,40 27.571,32.714 27.571,27.571C27.571,24.143 27.571,25.857 27.571,25.857L10,25.857L10,31C10,31 12.571,27.571 14.714,27.571L22.429,27.571C22.429,31 20.286,38.25 14.286,40ZM35.714,10C31.429,10 22.429,17.286 22.429,22.429C22.429,25.857 22.429,24.143 22.429,24.143L40,24.143L40,19C40,19 37.429,22.429 35.286,22.429L27.571,22.429C27.571,19 29.714,11.75 35.714,10Z" style="fill:#f1de7f;"/></g></g></svg>