<?xml version="1.0" encoding="UTF-8" standalone="no"?><!DOCTYPE svg PUBLIC "-//W3C//DTD SVG 1.1//EN" "http://www.w3.org/Graphics/SVG/1.1/DTD/svg11.dtd"><svg width="100%" height="100%" viewBox="0 0 50 50" version="1.1" xmlns="http://www.w3.org/2000/svg" xmlns:xlink="http://www.w3.org/1999/xlink" xml:space="preserve" xmlns:serif="http://www.serif.com/" style="fill-rule:evenodd;clip-rule:evenodd;stroke-linejoin:round;stroke-miterlimit:2;"><rect id="focus-insight" x="0" y="0" width="50" height="50" style="fill:none;"/><g id="focus-insight1" serif:id="focus-insight"><g id="Focus-Frame" serif:id="Focus Frame"><path d="M25,1L45.785,13L45.785,37L25,49L4.215,37L4.215,13L25,1Z" style="fill:#10273d;"/><path d="M25,0L46.651,12.5L46.651,37.5L25,50L3.349,37.5L3.349,12.5L25,0ZM25,2.309L44.651,13.655C44.651,13.655 44.651,36.345 44.651,36.345C44.651,36.345 25,47.691 25,47.691C25,47.691 5.349,36.345 5.349,36.345C5.349,36.345 5.349,13.655 5.349,13.655L25,2.309Z" style="fill:#0077af;"/></g><g id="Insight"><path id="Insight1" serif:id="Insight" d="M20.667,22.667L29.333,22.667C33.013,22.667 36,25.654 36,29.333C36,33.013 33.013,36 29.333,36L15,36L15,40L29.333,40C35.22,40 40,35.22 40,29.333C40,23.446 35.22,18.667 29.333,18.667L20.667,18.667L20.667,22.667ZM29.333,27.333L20.667,27.333C16.987,27.333 14,24.346 14,20.667C14,16.987 16.987,14 20.667,14L35,14L35,10L20.667,10C14.78,10 10,14.78 10,20.667C10,26.554 14.78,31.333 20.667,31.333L29.333,31.333L29.333,27.333Z" style="fill:#f1de7f;"/></g></g></svg>