<svg xmlns="http://www.w3.org/2000/svg" xml:space="preserve" style="fill-rule:evenodd;clip-rule:evenodd;stroke-linejoin:round;stroke-miterlimit:2" viewBox="0 0 50 50"><path d="M0 0h50v50H0z" style="fill:none"/><path d="m25 1 20.785 12v24L25 49 4.215 37V13z" style="fill:#10273d"/><path d="m25 0 21.651 12.5v25L25 50 3.349 37.5v-25zm0 2.309 19.651 11.346v22.69L25 47.691 5.349 36.345v-22.69z" style="fill:#0077af"/><path d="M24.73 31.988a5.4 5.4 0 0 1 1.672-.293l-1.813 7.164-1.884-7.329c.773.1 1.477.35 1.756.459l.002-.006.12.028zm-.136.051-.007.001.002.001zm-.026-12.532s2.035.025 2.539.054c.503.028 1.798-.058 2.503-.274.705-.215 1.813-.417 2.258-.417s.748.058.979.23.446.461-.072.461c-.087 0-.288-.087-.446-.101s-.835-.043-1.123.014c-.287.058-1.006.274-1.28.432-.273.158-.402.245-.115.23s.374-.058.575.029c.202.086.217-.014.303-.043s.259-.101.402.072c.144.172.303.374.432.187.13-.187.374-.173.518-.029s.316.331.345.086c.029-.244.101-.446.518-.23s.374.216.518.072.245-.173.547-.014c.301.158.589.129.374-.044-.216-.172-.504-.402.158-.46s.403 0 .561-.014.154-.059-.015-.101c-.229-.058-.201-.058-.359-.13-.158-.071-.101-.287.043-.33s.849-.259 1.137-.288c.287-.029 1.453-.244 1.999-.259.546-.014 1.295-.057 1.511-.043s.215-.086.618-.216c.403-.129.921-.316 1.482-.417s.662-.13.805-.187c.145-.058.375-.015.058.244-.316.26-1.266.82-1.453.993s-1.004.681-.446.878c.245.086.295.158.301.279.01.205-.285.298-.488.397-.446.215-1.251.647-1.64.949-.388.302-.316.374-.144.561s.676.604.015.734c-.648.127-1.54.273-2.086.475-.547.201-1.069.468-.834.82.028.043.122.39.122.525 0 .083.023.284-.229.327-.096.016-.251-.015-.455-.047-.734-.115-.877-.187-1.438-.215-.561-.029-.576-.073-.475.229.101.303.169.964-.23.698-.086-.057-.849-.208-1.18-.179a1 1 0 0 1-.129.546c-.072.115-.129.115.057.129.188.015.403.029.734 0 .331-.028.432-.028.605-.043.065-.005.251-.036.282.067.033.109-.002.149-.211.264-.474.261-.887.466-1.136.734-.187.202-.101.345.043.489.043.043.345.497-.086.683-.432.187-1.137.267-1.295.339-.159.071-.255.121.014.359.153.135.2.315.05.433-.089.07-.3.109-.46.128-.43.051-.999.13-1.201.202-.201.071-.403.1-.23.503.172.403-.057.662-.532.533-.475-.13-1.193.005-1.453.057-.072.015-.432.129-.317.345.072.135.094.294-.098.377-.114.05-.329.039-.592.069-.439.05-.342.046-.597.101-.266.057-.54.209-.54.209-.805-.373-1.41-.446-1.723-.498-.204-.035-.298-.136-.169-.323.319-.46-.553-.474-.669-.489-.115-.014-.949 0-1.028-.014-.099-.018-.397-.12-.295-.504.115-.431-.288-.438-.439-.481s-.913-.145-.956-.145c-.503 0 .079-.517-.303-.74-.194-.114-.704-.396-1.013-.417-.223-.016-.476-.008-.123-.346.352-.338-.295-.597-.374-.589-.489.044-.583-1.147-.956-1.432-.36-.275.165-.252.222-.23.453.17 1.281-.029 1.338-.058.74-.369-.446-.395-.579-.399-1.014-.027-1.762.191-1.913.349-.104.109-.147-.05-.119-.165 0-.166.418-.475-.216-.72-.749-.289-2.521-.294-2.596-.302-.029-.194.093-.417.115-.446.316-.421-1.834-1.385-2.223-1.596-.395-.216-.057-.396.029-.461.287-.215-.985-1.143-1.345-1.474-.359-.331-.028-.533.079-.605-.568-1.05-1.784-1.74-1.805-1.791-.093-.216.057-.302.273-.273 2.129.284 3.28 1.05 3.28 1.05.173-.057.784-.176 1.726-.133s2.537.198 2.395.504c-.089.194.054.064.335.14.281.075.126.287.097.306-.283.177-.108.151-.072.14.457-.137.82-.047.842-.029.155.129.039.302.016.342-.069.117.005.1.036.068s.739-.263.764-.279.324-.121.344.123c.014.174-.06.255-.094.309s-.016.088.005.061c.012-.014.426-.314.486-.374s.165-.018.207.023c.041.042.039.105.027.121a.6.6 0 0 0-.081.197c-.018.096.074.069.084.046s.374-.326.475-.446c.101-.121.288-.063.333.11.045.172.077.195.106.183s.038-.029.04-.061c.001-.027-.002-.153-.002-.227s.072-.162.172-.147c.096.013.059-.042.059-.042-.308-.206-.51-.346-1.187-.601-.316-.118-1.316-.106-1.416-.032-.173.13-.338 0-.187-.151.043-.043.388-.403 1.064-.453.677-.05 2.345.468 2.388.489.043.022 1.259.475 2.281.475.107 0 2.157-.025 2.244-.025m-6.223 8.795c-.149.011.119.104.195.135.018.007.15.05.271.102.112.049.427.182.478.273.074.135.051.205-.008.387-.036.111.014.166.144.191s.636.082.69.09c.216.028.615.072.727.237.077.114.069.325.05.421-.043.22.011.324.093.356.083.032.313.029.483.022.168-.008.352-.019.557-.015.13.002.368.036.544.084.164.044.269.103.283.11.136.068.219.299.069.471-.065.074-.098.162.122.195.208.03.457.104.669.151.212.046.521.154.597.169.075.014.256.059.338.014.169-.094.021-.148.007-.299-.012-.125.001-.62-.015-.899-.003-.057-.032-.15-.036-.18-.013-.104-.053-.147-.078-.109a.4.4 0 0 0-.026.153c-.004.067-.043.007-.055.157-.004.051-.036.091-.041.127-.015.082-.026.69-.03.766-.003.073.047.205-.176.112-.223-.094-1.017-.255-1.122-.259-.079-.004-.09-.087-.047-.116.037-.026.07-.034.133-.05.195-.051.155-.223.036-.298a6 6 0 0 1-.367-.274c-.225-.188-.571-.23-.812-.237-.14-.004-.443.069-.586.112-.144.043-.45.053-.486-.04-.036-.094.13-.374.13-.374.055-.139.1-.331-.003-.469-.086-.115-.277-.15-.443-.178-.081-.014-.384-.009-.661-.004-.249.004-.476.009-.505 0-.136-.043-.069-.094-.018-.159a.36.36 0 0 0 .087-.262c-.004-.13-.079-.188-.094-.202-.036-.032-.482-.37-.924-.42l-.051-.003c-.054 0-.093.01-.119.012m11.401 1.092c-.057.021-.021.035-.129.049-.041.006-.112.005-.192.005-.131-.001-.283-.002-.354.024-.116.043-.181.015-.346.043-.165.029-.27.015-.421.177-.17.182-.133.356-.118.442.014.086.014.245.014.295-.158-.007-.504-.05-.805-.057-.303-.008-.857.029-1.187.158s-.47.158-.453.359c.014.173.1.195.179.274s.123.079.137.165-.144.094-.259.094-.264.014-.259.072c.002.022.064.016.122.011.034-.003.068-.007.087-.004.014.002.025-.027.047-.029a1 1 0 0 1 .091.004c.032.003.061.006.077.003.312-.052.288-.122.266-.258-.021-.137-.1-.353.13-.44.23-.086.669-.187.921-.201s.841.007 1.007.007.237-.107.18-.266c-.058-.158-.13-.316.021-.503s.424-.245.799-.274c.373-.029.554-.057.754-.086.202-.029.263-.064.112-.072-.075-.003-.165-.007-.244-.007a.7.7 0 0 0-.177.015m-5.934-3.216c-.108.022-.194.115-.287.23-.094.115-.039.123.122.115.158-.007.193.234.072.705-.079.31-.038.787-.201.986-.202.244-.396.82-.41 1.007-.015.187-.101.554 0 .885.1.33.064-.051.086-.174.021-.121.072-.661.137-.92.064-.259.215-.676.373-.892.159-.216.108-.424.116-.582.007-.159.187-1.101.172-1.245-.01-.1-.041-.127-.094-.127q-.036.002-.086.012m1.533.13c-.022.079-.044.1.014.266.057.165.086.683.086.791s-.045.696-.014.827c.036.151.201.662.273.763s.18.41.194.517.036.267.036.346c0 .122-.007.223.051.244.058.022.065-.136.072-.201a4 4 0 0 0 .014-.503c-.014-.102-.166-.562-.223-.648a2.8 2.8 0 0 1-.23-.575c-.021-.123-.021-.626-.043-.878s-.101-.575-.144-.661 0-.159.064-.159c.065 0 .195 0 .216-.007-.055-.055-.057-.123-.324-.123zm.402-.403c-.043.007-.115.057.079.187.195.129.943 1.741.993 1.848.05.109-.022.187.129.295.152.108.382.489.504.605s.352.554.41.654.108.151.094-.079c-.015-.23-.202-.482-.267-.611a1.8 1.8 0 0 0-.273-.36c-.021-.015-.115-.058-.072-.115.043-.058.043-.043-.137-.216s-.129-.122-.18-.216c-.05-.093-.244-.683-.38-.885a29 29 0 0 0-.547-.776c-.043-.051-.108-.202.115-.173.129.017.158.007.201-.036s-.1-.101-.187-.115a3 3 0 0 0-.309-.012c-.083 0-.155.002-.173.005m-2.474.007c-.194.05-.209.022-.604.237-.396.216-.088.126.115.058.345-.115.367.06.338.237-.022.13-.058.195-.231.353-.225.206-.373.647-.424.705-.094.108.029.158-.266.388-.21.164-.345.396-.453.503a1.8 1.8 0 0 0-.41.763c-.101.381.014.18.036.1s.345-.603.468-.733c.122-.13.352-.504.546-.619s.151-.194.18-.266.152-.356.266-.489c.13-.151.626-.827.64-1.057.01-.157.003-.207-.064-.207a.7.7 0 0 0-.137.027m.669 2.402c-.108.267-.304.709-.417.885-.144.223-.007.187.115.122a.95.95 0 0 0 .407-.429c.106-.256.07-.553.024-.678-.023-.065-.042-.089-.056-.089-.034 0-.05.132-.073.189m.612 1.039c.014-.017.026-.056.035-.132.036-.303-.014-.223.051-.338.064-.115-.044-.187.043-.302.042-.056.169-.294.243-.555.078-.277.109-.488.124-.654.013-.149-.057-.784-.058-.885-.007-.625-.077-.861.245-1.136.05-.043.181-.033.215-.338.013-.109-.007-.145-.037-.145-.039 0-.096.064-.121.109-.043.079-.518.568-.511.87.006.245.087.907.051 1.216-.027.232-.151.585-.212.581.005-.021-.033-.044-.033-.142 0-.396.022-.475-.036-.713-.058-.237-.173-.453-.194-.647s-.021-.36-.065-.439c-.024-.044-.069-.036-.106-.029-.029.006-.053.012-.059-.007-.014-.043-.014-.072.093-.143.108-.072.096-.165.108-.238.014-.086.029-.194-.093-.122s-.086.173-.223.05-.209-.28-.281-.323c-.072-.044-.18-.151-.007-.151.043 0 .234.025.257.008.11-.08-.02-.145-.056-.224-.035-.079-.015-.196-.008-.36.008-.181-.021-.301-.027-.345-.011-.073-.005-.261.094-.359.038-.039.1-.048.157-.08.201-.115.237-.252.317-.36.079-.108.108-.345-.072-.093s-.212.339-.396.374c-.115.022-.036.158-.187.201s-.108.13-.252-.072c-.143-.201-.366-.525-.467-.596-.101-.072-.424-.454-.547-.576-.122-.122-.468-.618-.482-.741-.006-.057-.06-.146-.059-.237.001-.118-.009-.222-.075-.222q-.04-.001-.11.056c-.259.216-.101.547-.015.648s.839 1.228 1.108 1.366c.166.086.389.224.48.319.07.074.057.141-.055.134-.26-.014-.051.641.05.727a.8.8 0 0 1 .194.331c.031.091-.014.23.021.388.011.049.145.223.338.356.064.043.065.13.094.205.115.295.065.403.115.669.023.121.008.374.058.518s.143.41.165.46.072.137.007.475a4.6 4.6 0 0 0-.05.964c.015.094.094.453.115.518.017.049.118.226.116.161m-.001-.385-.001.204.001.145zm6.693-.664c-.075.007.007.021-.129.043-.137.021-.464.032-.64.072-.177.039-.364.097-.507.241-.057.056-.09.092-.06.155.06.125.138.114.167.168.043.08.065.119.155.177s.219.122.255.093c.044-.035-.068-.118-.086-.14-.032-.04-.201-.14-.201-.338 0-.123.143-.209.244-.237.101-.029.335-.094.457-.116.122-.021.378-.075.417-.09.034-.012.012-.03-.042-.03zm-5.98-.299c-.078.029-.08.063-.08.272v.016c0 .223.051.46.18.662.054.084.129.266.223.259.036-.003.043-.094.008-.152-.037-.057-.102-.273-.166-.381s-.094-.367-.108-.46c-.013-.086.016-.219-.04-.219zm-2.425-.647c-.115.23-.158.28-.136.366.021.087-.015.252-.108.259-.094.008-.144.022-.23.116-.087.093-.389.489-.403.51-.138.206-.072.245.043.252s.547-.144.683-.208c.137-.065.511-.353.504-.792-.005-.273-.101-.431-.101-.46 0-.02-.064-.141-.142-.141-.035 0-.074.025-.11.098m3.572.359c-.029.015-.018.047-.025.116-.005.044.024.112.035.194.006.051-.016.112.015.165.075.13.179.266.216.303.035.035.345.309.287.265-.027-.02.007.013.056.047.053.035.121.071.146.04.058-.077.007-.101-.015-.13s-.093-.158-.143-.201c-.051-.044-.123-.13-.209-.187-.087-.058-.087-.101-.108-.159a3 3 0 0 0-.151-.359c-.031-.043-.054-.098-.088-.098a.03.03 0 0 0-.016.004m-1.858 1.127.001-.062zm1.775-3.342c-.072.072.086.129.144.173.035.026.191.115.332.242.088.08.157.192.229.261.187.18.719.834.769.892.051.057.173.324.231.396.057.072.64.352.798.496.08.073.274.204.434.35.155.142.276.299.335.376.123.159.116.051.058-.057s0-.151-.108-.302c-.107-.151-.568-.475-.74-.561s-.598-.316-.684-.417-.151-.159-.093-.259c.057-.101.136-.036.237.028.101.065.511.252.691.303s.963.158 1.172.165.849-.036.956-.065c.108-.028.159-.151.08-.23-.08-.079-.863-.432-.863-.432-.18-.057-.295-.187-.554-.028-.259.158-.772-.012-.885-.051-.317-.108-.577-.217-.899-.604a2.5 2.5 0 0 0-.381-.331c-.05-.022-.108-.093-.209-.072s-.065.173-.065.223.08.245.094.281.007.187-.108.065c-.115-.123-.453-.54-.525-.569s-.159-.05-.144-.115c.006-.028-.014-.082.05-.101.08-.025.256-.013.36-.021.187-.014-.23-.036-.425-.036-.086 0-.153-.032-.21-.032a.1.1 0 0 0-.077.032m-1.773 3.211-.001.052.002-.083zm-1.78-3.168c-.245.015-.633.015-.921.201-.288.188-.806.519-.907.634s-.057.201-.287.259c-.115.028-.518.086-.885.215-.367.13-.698.331-.726.36-.142.141-.374.216 0 .216.475 0 1.208.014 1.582-.159.374-.172.36.044.13.173a2 2 0 0 0-.473.356 2.1 2.1 0 0 0-.347.507c-.074.163-.136.337-.086.321.023-.007.052-.071.143-.163.288-.287.692-.853 1.101-1.071.618-.331.194-.238.41-.41.091-.073.265-.273.498-.495.319-.303.711-.641.811-.699.165-.097.198-.246-.014-.246zm1.791 2.796-.007.221zm2.575-1.48c-.116.036-.036.274-.022.338.015.065.072.389.295.511.073.04.117.11.171.16.11.103.216.19.376.243.237.079.669.201.884.23.216.029.216.007.108-.093-.108-.101-.575-.468-.769-.533-.194-.064-.187-.036-.331-.122s-.266-.28-.324-.374a1.3 1.3 0 0 0-.158-.194c-.055-.097-.099-.174-.181-.174a.2.2 0 0 0-.049.008m-2.565 1.25-.005.104-.004.109zm7.24-1.228c-.223.033-.307.151-.338.209-.023.042-.054.295.04.428.093.133.172.331.205.388.032.057.049.086.023.142-.022.047-.068.028-.058.081.006.027.002-.02.139-.029.059-.004.102-.083.086-.14-.041-.147-.136-.248-.179-.328-.044-.078-.112-.233-.102-.323a.41.41 0 0 1 .202-.291c.133-.083.252-.198.259-.231q.001-.006-.002-.006c-.012 0-.084.072-.275.1m-14.637.05c.093.223.223.338.525.41.063.016.37.126.395.259.01.052.043.206-.036.345-.122.217.049.037.072 0 .029-.046.098-.107.122-.179a.42.42 0 0 0-.28-.533 1.7 1.7 0 0 1-.457-.211 2 2 0 0 1-.327-.299c-.047-.054-.074-.076-.088-.076-.04 0 .028.177.074.284m7.403 1.084.003-.05zm-2.721-1.256c-.147.181-.309.323-.331.417-.021.093.015.137-.1.201-.115.065-.483.302-.54.382-.057.079-.223.186.014.201.238.014.72-.072 1.036-.338s.295-.245.345-.518c.051-.273-.057-.367-.071-.424-.008-.032-.041-.097-.11-.097-.055 0-.134.041-.243.176m2.732 1.098-.005.065zm.011-.111-.008.078zm.012-.083.002-.011zm-6.275-3.153a1.655 1.655 0 0 0 .387 1.32c-.09-.081-.234-.162-.449-.021-.295.194-.883.036-.726.245.021.028.458.528 1.251.575.482.029.13.223-.014.381-.038.043-.202.185-.267.273-.086.116.008.145.087.051.073-.085.46-.726 1.647-.726.108 0 .381-.029.475-.123.021-.021.12-.155.25-.271.159-.143.348-.275.296-.318-.093-.079.248-.147.281-.367.008-.052-.008-.126-.022-.198a2 2 0 0 0 .068-.23l.026.003c.066.014.154.01.242.006.202-.009.408-.018.369.174-.014.072.097.053.194.006.167-.081.339-.247.166-.265-.137-.014-.432-.012-.7-.011l-.281.002a1.7 1.7 0 0 0 0-.534c.207-.096.497-.198.506.011.015.324-.014.187.144.13.158-.058.187-.015.389-.159.071-.051.176-.097.239-.156.112-.106.111-.25-.081-.117-.115.079-.242.255-.362.31-.162.074-.171-.109-.084-.181.032-.026.126-.155.106-.238-.015-.062-.093-.098-.308-.049-.261.06-.461.15-.6.228a2 2 0 0 0-.061-.167c.186-.139.294-.271.129-.292-.23-.028.041-.298-.115-.431-.489-.417-.943-1.115-1.064-1.511-.058-.187-.393-.193-.259.029.043.072.088.321-.375.043-.071-.043-.386-.14-1.078-.158-.576-.014-.194.12-.331.475-.071.182-.024.293-.007.382.025.13.05.205.093.316.113.294.101.489-.086.151 0 0-.216-.367-.173-.727s-.072-.647-.144-.849a3 3 0 0 1-.115-.777c.012-.11-.024-.192-.061-.192-.03 0-.062.056-.068.2 0 0 .073.782.187 1.086.021.057.158.32-.108.453-.029.014-1.314.302-1.41 1.647-.007.101-.036.626-.079.719-.043.094-.079.159.122.166.098.003.274-.027.487-.058.224-.032.488-.065.743-.057.245.007.154-.063.13-.137-.005-.014-.118-.333-.039-.519.068-.157.171-.275.42-.322.266-.051.309.014.295.057s-.079.086-.137.122c-.057.037-.223.252-.129.583zm3.707 1.357c-.017.135-.029.331-.302.554s-.439.374-.511.41-.266.115-.086.208c.18.094.144.036.237-.036.094-.072.324-.338.482-.467.159-.13.633-.597.756-.655.122-.057.1-.144-.022-.208-.122-.065-.525-.036-.554.194m7.938-2.518a2 2 0 0 0-.22-.053.67.67 0 0 1 .482-.148c.18.007.086-.101.072-.122a.27.27 0 0 1-.014-.252c.057-.122.057-.446.057-.525s-.022-.252.108-.367c.115-.102.071-.131-.001-.131l-.028.002c-.086.007-.207.025-.511.122-.316.101-.906.474-.963.525-.254.221-.741.604-.935 1.05-.179.41-.114.619-.052.729q-.04.076-.073.156a1 1 0 0 0-.285-.223c-.124-.058-.648-.079-.878-.051s-.1.396-.13.439c-.028.043-.064.029-.086.036-.191.064-.467-.165-.611-.251-.133-.08-.021-.337-.053-.337q-.005 0-.012.006c-.064.05-.093.273-.007.388s.323.309.518.338c.194.029.547.122.582.122.081 0 .13-.021 0-.223-.129-.201.058-.223.389-.187.195.021.371.121.493.204a1.7 1.7 0 0 0-.032.515l-.001.001c-.065.032-.038.27.139.531a1.69 1.69 0 0 0 1.985.945c.065.055.223.049.401.056.187.007.92-.029 1.072-.065a3 3 0 0 0 .539-.194 3.4 3.4 0 0 0-.755-.187 1.2 1.2 0 0 0-.482.072c-.101.036-.22.162-.306.176a.5.5 0 0 1-.137.012 1.69 1.69 0 0 0 .909-1.628l-.071.364a.5.5 0 0 1-.035.183l.035-.183c-.005-.097-.066-.121-.086-.176-.018-.049-.086-.022-.129-.043-.191-.096.061-.157.173-.281a.4.4 0 0 0 .072-.126.9.9 0 0 0 .055-.387l-.001-.008a.4.4 0 0 0-.112-.255c-.167-.149-.258-.165-.312-.14l-.001.001a.1.1 0 0 0-.037.029c-.017.02-.029.043-.038.059-.037.058-.202.518-.367.777-.166.259-.159-.029-.159-.115s.051-.46.051-.504c0-.059.029-.51-.065-.539-.196-.06-.237-.015-.424.115a.5.5 0 0 0-.216.417c.005.064.079.173.079.23s.007.245-.065.245-.068-.028-.115-.136c-.043-.102-.086-.317-.23-.353-.468-.117-.597-.007-.655.036l-.093-.108.345-.23.662.043.201-.201zm-.076 3.23c-.025-.029-.014-.112.014-.176.029-.065.118-.234.148-.288.039-.072.09-.169.032-.219-.058-.051-.122.018-.194.082a6 6 0 0 1-.417.32c-.065.044-.202.137-.36.173zm-9.236-.173c-.244.087-.74.115-.949.022-.209-.094-.47-.383-.374-.727.086-.309.083-.365.259-.179.367.388.553.589.698.596.238.012.438.037.532-.143.093-.18.079-.115.129-.007.026.054-.036.316-.295.438m.763-1.597c0 .245-.186.78-.612 1.058-.187.122-.272.039-.283.001-.016-.056.311-.187.427-.332.029-.036.245-.367.238-.77-.008-.402-.156-.636-.194-.661-.065-.044-.165-.277.079-.115.043.028.345.336.345.819m16.327-2.042-.604.115c-.23.043-.762.179-1.1.324-.332.141-.576.237-.748.367-.15.112-.302.424-.137.712.165.287-.144.173-.309.136a7 7 0 0 0-.813-.072c-.259 0-1 .079-1.122.094s-.846.071-.612.481c.029.051.209.209.195.281-.015.072-.166-.05-.202-.072a1.6 1.6 0 0 0-.51-.129c-.231-.015-.504-.015-.475-.015.165 0-.151-.065-.116.13.029.148.116.108.181.108.17 0 1.028.057 1.316.173.207.082.295.014.238-.094-.058-.108-.092-.251-.217-.403-.194-.237-.104-.317.051-.345.079-.015.396-.058.892-.029.305.018 1.208.165 1.301.187.094.022.554.137.497-.23s-.125-.44-.144-.612c-.029-.266.648-.568.993-.69.311-.11 1.302-.345 1.488-.374.148-.023.104-.05.025-.05a.3.3 0 0 0-.068.007m-25.615.057c-.304-.138-.476-.175-.538-.201a1.4 1.4 0 0 0-.332-.079c-.076 0-.051.049.289.223.705.359 1.252.733 1.309.791.058.058.245.115.101.417s.029.36.302.36c.274 0 1.473.12 1.755.187.302.071.546.107.66.19.063.046.049.153.06.255.017.175-.173.504.331.288.503-.215 1.812-.201 2.056-.143.245.057.303 0-.043-.159-.345-.158-1.654.014-1.784.087-.129.072-.229.129-.158-.202s-.057-.201-.532-.388c-.175-.069-.479-.108-.879-.177-.357-.062-.791-.16-1.279-.14-.427.018-.345-.1-.201-.244s.115-.345-.36-.647a7 7 0 0 0-.609-.348c.08-.138.215-.385.422.016.118.228.296.108.432.216.072.058.23.144.331.317.1-.072.74-1.234 1.524-1.626.087-.043.144-.187.216-.288s.446-.848.82-1.136c.246-.189.256-.335.131-.335-.065 0-.166.04-.289.134-.36.273-.647.489-.835.949-.135.335-.165.305-.287.274a.5.5 0 0 0-.187-.015c-.147.014-.61.025-1.163.35-.518.306-1.083.78-1.263 1.074m15.467-1.582a.86.86 0 0 0-.296.302c-.093.144-.15.381-.266.497-.115.114-.402.424-.467.589a1.35 1.35 0 0 1-.346.482c-.076.064-.185.126-.279.188-.075.05-.135.107-.195.107-.137 0-.079-.065-.281-.151-.201-.086-.129.057-.086.129a.77.77 0 0 1 .093.403 2 2 0 0 1-.172.568c-.057.094-.317.41-.36.475s-.122.136-.072.151.043.043.13-.029c.086-.072.158-.136.237-.172.06-.027.13-.108.158-.079.124.124.101-.202.123-.338.021-.137.117-.529.431-.741.266-.18.518-.31.626-.698.08-.287.129-.202.259-.273s.381-.375.554-.554c.172-.18.259-.46.28-.518s.123-.316.087-.345c-.02-.017-.031-.032-.057-.032-.02 0-.05.01-.101.039m3.251 1.122c-.231.122-.209.503-.274.611-.064.108-.05.137.072.18s.158.202.108.266c-.05.065-.015.18.05.158.095-.031.245.015.338.073s.418.295.418.625c0 .331-.216.439-.274.511.072 0 .468.029.669.036 0 0 .039-.206.094-.41.137-.511.339-1.711.007-2.036a.72.72 0 0 0-.523-.192c-.275 0-.549.105-.685.178m-13.59-2.093c-.038 0-.183.046-.3.237-.36.59-.446 1.28-.518 1.424s.051.317-.575.475c-.478.121-1.179 1.154-1.309 1.352-.123.188-.237.381.273.36.384-.016 1.007.201 1.208.302s.317.172.302-.173c-.014-.345.076-1.406.202-1.532a.8.8 0 0 0 .13-.294c.07-.297.074-.704.1-.842.051-.266.222-.736.281-.813.093-.122.284-.495.207-.496zm6.131 3.524c.014-.115.1-.201.179-.187s.149.052.135.283a1.3 1.3 0 0 1-.043.305c-.023.072-.072.117-.11.106-.079-.021-.03-.053-.046-.145-.018-.099-.061-.025-.06-.182.002-.1-.07-.065-.055-.18m-2.192.225c-.037-.006-.013-.084-.002-.102.05-.083-.006-.483-.525-.137-.087.057-.295.237-.331.352s-.151.302-.158-.007.316-.64.007-.662c-.194-.013-.275.003-.285-.026-.025-.074.019-.118.162-.139.126-.019.195.115.475.014.157-.056.399-.193.568-.12.245.106.224.452.195.66-.029.201-.072.172-.106.167m-1.204-.877c-.016.02-.097-.06-.187-.082-.122-.028-.618-.1-.661.9-.016.375-.007.403-.206.144-.104-.136-.19-.425-.218-.511-.08-.238-.206-.743.568-.82.431-.043.532.086.626.165.059.051.105.172.078.204m13.674-2.441c.267.238.564.911.59 1.324.007.115.13.273.187.359.057.087.266.338.302.59s.022.641.029.77c.004.064-.065.482.032.501.018.003.047-.238.061-.386.029-.295.274-.561.418-.618.066-.027.762-.353.949-.375.187-.021.155-.146-.101-.1-.201.036-.28-.202-.323-.237-.129-.108-.446-.482-.72-.605-.141-.063-.28-.158-.402-.127-.134.033-.091.14-.094.235-.004.122-.062.141-.108.085a.43.43 0 0 1-.064-.193 5 5 0 0 0-.188-.719c-.057-.159-.446-.633-.532-.683a.2.2 0 0 0-.106-.029c-.07 0-.108.049.07.208m-1.097.166c.082.416-.068 1.041-.169 1.216-.13.222-.122.237-.035.438.169.398-.073 1.41-.102 1.568s.029.101.375 0c.351-.102 1.408.016 1.596.043-.021-.151.159-.575-.359-1.064-.615-.581-1.155-.496-1.252-.547-.273-.144.216-.388.23-.906s-.057-.892-.23-1.137c-.027-.038-.059-.08-.082-.08-.034 0-.044.101.028.469m-2.053-.468a5 5 0 0 0-.403.403 15 15 0 0 1-.676.64 7 7 0 0 1-.598.425c-.086.05-.114.035-.236.273-.123.237-.346.439-.468.561s-.381.359-.496.417-.331.23-.418.295-.165.187-.266.23-.17.13-.237.18c-.029.022-.086.072-.058.115.015.021.058.058.18-.065.123-.122.219-.154.385-.298 0 0 .219-.219.284-.263.065-.043.554-.41.756-.597.201-.186.388-.539.56-.69s.511-.345.576-.388.632-.483.755-.605c.122-.122.41-.453.46-.517.051-.065.108-.159.072-.159-.016 0-.034-.005-.058-.005-.03 0-.067.008-.114.048m-10.998-.208c-.029.028-.037.108.057.208.209.223.914.741.986.777s.216.18.309.432c.093.251.166.489.266.618.101.13.748.827.899.943s.302.301.31.438c.007.137.144.309.144.123 0-.187-.022-.346-.252-.612-.231-.266-.755-.741-.777-.791s-.259-.166-.403-.698-.561-.733-.59-.755c0 0-.345-.201-.712-.597-.061-.066-.118-.116-.172-.116a.1.1 0 0 0-.065.03m10.947 3.438.041.007a1.7 1.7 0 0 0-.27-.175zm-1.661-.228a.7.7 0 0 0-.195.076.8.8 0 0 0-.185.147 1.7 1.7 0 0 1 .38-.223m.884-2.707c-.072.043-.021.108-.165.151s-.165.072-.237.13c-.072.057-.216.151-.425.323-.208.173-.057.058-.187.144-.129.086-.424.41-.532.547s-.043.108-.086.172c-.043.065-.137.151-.295.296a59 59 0 0 0-.856.827c-.043.043-.187.179-.151.208s.097.004.223-.122c.021-.022 1.309-1.137 1.345-1.259a.9.9 0 0 1 .259-.367c.115-.1.424-.33.54-.417.114-.086.431-.273.56-.381s.245-.237.216-.273q-.018-.021-.063-.021a.3.3 0 0 0-.146.042m11.883-2.374c-.374.151-1.366.83-1.69 1.216-.187.223-.107.384.021.46.036.022.389.195.151.338-.237.145-.743.35-.999.518-.317.209-.885.626-.964.727-.08.101-.23.18-.022.439.209.258.259.359.295.417s.137.187.13.043-.101-.223-.137-.302-.281-.331-.144-.489.604-.569.87-.698c.267-.129.907-.482.993-.518s.321-.129.309-.237c-.014-.137-.165-.109-.374-.353-.043-.05-.058-.187 0-.244.058-.058.367-.46.871-.806.067-.046.632-.424.698-.446.064-.021.129-.1-.008-.065M7.952 18.23c.36.191.903.744 1.086.957.177.204.698.762.432.884-.266.123-.115.331 0 .396s1.045.958 1.072.985c.208.216.424.468.136.669-.287.202.015.259.231.123.215-.137.481-.274.129-.684a5.6 5.6 0 0 0-.6-.602c-.239-.2-.343-.247-.371-.275-.101-.101-.363-.183-.389-.253-.042-.114.216-.1.324-.136.51-.169 1.959-.431 2.518-.338.086.015.456-.072.69-.172.504-.216.851-.363 1.223-.424.043-.008.575-.08.194-.209-.381-.13-2.186-.274-2.654-.216s.065.094.065.094 1.41-.008 1.92.114c.511.123.259.144.101.144s-.583.079-.949.31c-.367.23-1.015.172-1.23.115-.216-.058-.964-.173-1.532.029s-.453.134-.569-.094c-.18-.352-.863-.957-1.165-1.079-.213-.086-.46-.252-.101-.173.57.126 2.122.598 2.748.856.645.267 1 .324 1.172.324.173 0 .637.004.331-.302-.18-.18-.288-.065-.252.029.022.055-.201.093-.467.021s-.989-.271-1.28-.388a67 67 0 0 0-1.223-.425c-.069-.022-1.338-.345-1.474-.352-.073-.004-.206-.038-.255-.038-.041 0-.023.024.139.11m23.638 2.34c-.034 0-.102.127-.132.185a8 8 0 0 1-.287.482c-.072.108-.137.215-.295.374-.158.158-.36.359-.381.51-.023.157.079-.007.107-.064.029-.058.187-.123.274-.238.086-.115.289-.275.431-.46.049-.063.166-.18.21-.402.018-.09.085-.192.093-.274s-.002-.113-.019-.113zm-16.495-.909c-.274.159-.981.361-1.352.849-.105.138-.2.13-.386.122-.3-.013-.839-.026-2.046.569-.201.086-.273.086-.086.216.171.117.201.215.172.373-.028.158.006.153.216.015.36-.238.993-.712 1.813-.82.459-.06.394-.164.532-.302.043-.043.863-.763 1.237-.863.28-.075.238-.215.086-.215a.4.4 0 0 0-.186.056m20.247.209s-.496.043-.82.058c-.323.014-.014.244.029.273.38.254.892.748 1.022 1.1.079.217.189.215.345.214q.056-.001.122.002c.223.014.979.13 1.324.331.089.052.122-.007.165-.086s.46-.338.511-.41 0-.022-.13.036c-.129.057-.194.021-.295-.108-.089-.115-.287-.187-.481-.295-.195-.108-1.015-.209-1.238-.108s-.302.072-.439-.086c-.136-.159-.524-.504-.769-.64-.244-.137-.029-.137.008-.137.035 0 .51.036.718-.036.079-.027.217-.005.204-.08-.005-.028-.053-.035-.11-.035-.058 0-.125.007-.166.007m-16.047.834c.168.243.651.642.899.784.238.137.218.012.072-.086-.266-.18-.877-.762-.877-.762-.032-.048-.075-.073-.104-.073-.038 0-.054.045.01.137m2.538-1.017c-.022.065.101.091.174.105a.8.8 0 0 0 .185.01c.056-.002.11-.005.202.017.079.019.237.088.318.095.275.024.54-.004.818.05.09.017.177.032.259.069.104.047.207.09.309.143.063.032.268.291.317.447.028.09.089.317.174.368.019.012.155.067.169.008.033-.136-.214-.396-.259-.498a.13.13 0 0 1 .017-.123l.082-.228c-.024-.004-.102-.126-.096-.17.008-.067.076-.067.104-.087.042-.031.029-.064-.003-.089-.027-.021-.194.027-.227.049-.141.091-.205.025-.355.015-.237-.017-.317-.041-.701-.097a2 2 0 0 0-.223 0c-.059.001-.113.004-.141.002-.369-.013-.486.005-.864-.061-.04-.008-.15-.043-.213-.043q-.037 0-.046.018m6.569.08c-.075.006-.154.013-.242.01-.505.043-.951.068-1.46.1q-.18.01-.359.011c-.289.004-.581.06-.877.032-.04-.003-.134-.007-.219-.038-.06-.022-.246-.12-.296-.053-.034.043-.022.084.004.116 0 0 .183.126.109.198l.122.215a.4.4 0 0 1 .092.12c.038.11-.003.247.051.35.042.08.197.066.243-.015.11-.194.113-.403.187-.608.102-.285.763-.22 1.005-.199q.077.006.152.005l.081.001c.134.005.266.003.403-.015.083-.012.162-.026.245-.03.065-.003.129-.041.194-.044.278-.014.546-.046.826-.09.021-.003.05-.006.063-.026.009-.013.007-.036-.012-.04a1 1 0 0 0-.132-.011q-.088.001-.18.011m8.063-.723c-.279.053-.551.097-.778.148-.217.049-.438.123-.506.142-.144.04-.105.157-.022.192a1 1 0 0 0 .263.071c.301.031 1.276.335 1.597.438.345.112.387-.043.596-.064s1.173-.144 1.935.129c0 0 .224.126.245.072.023-.059.032-.057-.166-.18-.123-.076-.543-.21-1.027-.299-.271-.05-.929-.093-1.217-.059-.081.009-.369.015-.435.085-.115.122-.205.058-.248.029-.252-.168-.964-.288-1.266-.281-.104.003-.112-.007-.116-.029-.013-.081.071-.098.13-.115.166-.048.843-.179 1.384-.265.349-.056.617-.077.738-.094.31-.043.367-.079.094-.079-.137 0-.666.058-1.201.159m-6.438.438c-.683.201-1.057.424-1.187.496-.129.072-.194.158.036.093.231-.065.813-.316.906-.338.094-.021.705-.23.835-.266.129-.036.525-.172.899-.201s.468-.043.64-.029c.173.014.295.021.367.036s.144.014.029-.05c-.115-.065-.345-.08-.554-.08-.626 0-1.288.137-1.971.339m.56.232-.187.335c-.061-.032-.11-.054-.223.007-.058.031-.141-.053-.079-.093.075-.05.307-.198.489-.249m-12.178-.272.232.414c.075-.04.135-.067.275.009.072.038.173-.066.097-.116-.093-.061-.38-.245-.604-.307m-.962-.553a.8.8 0 0 0-.302.075c.805-.022 1.106.062 1.258.118.202.076.669.256.941.404.022.011.36.2.521.25.178.055.158-.068.15-.074a3.8 3.8 0 0 0-.673-.375c-.436-.196-.717-.314-1.201-.395a2 2 0 0 0-.28-.022c-.155 0-.299.016-.414.019m20.557.291c-.201.007-.23-.029-.252.035-.021.065.123.058.187.072.065.015.317-.014.518-.057s.762-.288.906-.331.358-.163.633-.237c.295-.08.525-.166.655-.202.129-.036.245-.072.295-.086.05-.015.057-.056-.002-.059-.072-.005-.121.03-.22.059-.305.089-.649.187-.785.223-.137.036-.583.201-.698.23s-.389.137-.561.194c-.173.058-.302.115-.453.144s-.223.015-.223.015m-13.415.035c.274 0 1.511.087 2.115.058.791-.038 1.741.014 2.259-.115.301-.075.843-.239 1.051-.279.502-.095.905-.167 1.186-.199l.691-1.194H17.287l.504.864c.353.002 1.087.045 2.382.448 1.251.39 1.511.437 2.301.475.605.029 1.842-.058 2.115-.058m8.095-3.683.221-.391H16.518l.235.391h-.396l1.012 1.689h14.419l.957-1.689zm-1.917.573c.097.056.167.098.167.182v.238h-.839v-.336c.098.126.267.25.462.224.21-.028-.028-.252-.168-.308.14-.056.378-.279.168-.307-.195-.026-.364.098-.462.224v-.336h.839v.238c0 .084-.07.125-.167.181m-9.984 0h.755v.42h-.126c0-.163-.163-.28-.336-.28h-.293zm6.921.049c.182.189.098.315.028.371-.017-.079-.19-.238-.643-.238.405-.203.559-.461.349-.489-.194-.026-.363.147-.461.273v-.385h.839v.238c0 .084-.035.153-.112.23m-2.007-.468s.002.07-.076.07c-.238 0-.553.133-.553.349 0 .168.182.322.42.322.154 0 .028-.245-.224-.322h.448v.42h-.713c-.063 0-.112-.07-.112-.126v-.58c0-.077.056-.133.112-.133zm4.16 0v.839h-.195c0-.252-.056-.378-.56-.378v-.076c.499 0 .573-.077.573-.385zm-5.6.839c.14-.056.392-.259.182-.287-.194-.026-.524.077-.622.203v-.336h.839v.42zm-5.537 0q-.072-.002-.07-.119c0-.151.093-.301.308-.301.156 0 .433-.196.51-.419v.839h-.113c-.047-.182-.261-.341-.411-.322-.21.028.063.28.23.322zm4.083-.133v-.573c0-.077.056-.133.112-.133h.699s-.02.049-.098.049c-.238 0-.454.154-.454.37 0 .217.216.371.454.371.078 0 .098.049.098.049h-.699c-.056 0-.112-.056-.112-.133m-2.282-.066h-.84v-.42h.84zc-.071-.168-.339-.369-.532-.336-.227.039.091.336.532.336m2.047-.025c-.31 0-.317-.3-.52-.3-.14 0-.077.209.063.3h-.336c0-.154-.028-.349.119-.349h.315c.091 0 .21-.007.294-.168h.065zm3.64-.196c.14-.056.377-.279.168-.307-.194-.026-.364.098-.462.224v-.336h.839v.419zm1.832 0c.44 0 .671-.279.461-.307-.194-.026-.391.14-.461.307v-.419h.838v.419zm-9.198-.171h-.839v-.419h.839zc-.069-.168-.338-.368-.531-.335-.227.038.091.335.531.335" style="fill:#57db8e;fill-rule:nonzero"/></svg>