<svg xmlns="http://www.w3.org/2000/svg" xml:space="preserve" style="fill-rule:evenodd;clip-rule:evenodd;stroke-linejoin:round;stroke-miterlimit:2" viewBox="0 0 50 50"><path d="M0 0h50v50H0z" style="fill:none"/><path d="m25 1 20.785 12v24L25 49 4.215 37V13z" style="fill:#10273d"/><path d="m25 0 21.651 12.5v25L25 50 3.349 37.5v-25zm0 2.309 19.651 11.346v22.69L25 47.691 5.349 36.345v-22.69z" style="fill:#0077af"/><path d="M34.412 39.118a1.884 1.884 0 0 0-1.883-1.883H17.471a1.883 1.883 0 0 0 0 3.765h15.058a1.883 1.883 0 0 0 1.883-1.882m0-5.647a1.884 1.884 0 0 0-1.883-1.883H17.471a1.884 1.884 0 0 0-1.883 1.883c0 1.038.844 1.882 1.883 1.882h15.058a1.884 1.884 0 0 0 1.883-1.882M37.235 25a4.71 4.71 0 0 0-4.706-4.706H17.471A4.71 4.71 0 0 0 12.765 25a4.71 4.71 0 0 0 4.706 4.706h15.058A4.71 4.71 0 0 0 37.235 25m-9.411 0A2.826 2.826 0 0 0 25 22.176 2.826 2.826 0 0 0 22.176 25 2.826 2.826 0 0 0 25 27.824 2.826 2.826 0 0 0 27.824 25m6.588-8.471a1.884 1.884 0 0 0-1.883-1.882H17.471a1.884 1.884 0 0 0-1.883 1.882c0 1.039.844 1.883 1.883 1.883h15.058a1.884 1.884 0 0 0 1.883-1.883m0-5.647A1.883 1.883 0 0 0 32.529 9H17.471a1.883 1.883 0 0 0 0 3.765h15.058a1.884 1.884 0 0 0 1.883-1.883" style="fill:#f1de7f"/></svg>