<?xml version="1.0" encoding="UTF-8" standalone="no"?><!DOCTYPE svg PUBLIC "-//W3C//DTD SVG 1.1//EN" "http://www.w3.org/Graphics/SVG/1.1/DTD/svg11.dtd"><svg width="100%" height="100%" viewBox="0 0 50 50" version="1.1" xmlns="http://www.w3.org/2000/svg" xmlns:xlink="http://www.w3.org/1999/xlink" xml:space="preserve" xmlns:serif="http://www.serif.com/" style="fill-rule:evenodd;clip-rule:evenodd;stroke-linejoin:round;stroke-miterlimit:2;"><rect id="focus-reason" x="0" y="0" width="50" height="50" style="fill:none;"/><g id="focus-reason1" serif:id="focus-reason"><g id="Focus-Frame" serif:id="Focus Frame"><path d="M25,1L45.785,13L45.785,37L25,49L4.215,37L4.215,13L25,1Z" style="fill:#10273d;"/><path d="M25,0L46.651,12.5L46.651,37.5L25,50L3.349,37.5L3.349,12.5L25,0ZM25,2.309L44.651,13.655C44.651,13.655 44.651,36.345 44.651,36.345C44.651,36.345 25,47.691 25,47.691C25,47.691 5.349,36.345 5.349,36.345C5.349,36.345 5.349,13.655 5.349,13.655L25,2.309Z" style="fill:#0077af;"/></g><g id="Reason"><path id="Reason1" serif:id="Reason" d="M10.01,14.274L10.263,13.979C12.079,11.963 14.637,10.771 17.349,10.678C19.794,10.593 22.464,10.501 25.026,10.413C26.037,10.378 27.032,10.445 28,10.608L28,11C28,13.209 26.209,15 24,15C23.999,15 23.998,14.999 23.998,15C23.998,16 23.998,16 23.998,17C23.999,17 23.999,17 24,17C27.287,17 29.956,14.357 29.998,11.081C32.307,11.799 34.398,13.063 36.097,14.749C34.25,15.771 33,17.739 33,20C33,20.001 33,20.001 33,20.002C33,21.593 33.632,23.118 34.757,24.243C35.882,25.368 37.407,26 38.998,26C39,25 39,24 39,24L38.998,24C37.938,24 36.921,23.579 36.171,22.829C35.421,22.079 35,21.062 35,20.002C35,20.001 35,20.001 35,20C35,18.334 36.018,16.906 37.467,16.305C38.643,17.841 39.533,19.624 40.049,21.587C40.186,22.108 40.321,22.62 40.452,23.117C40.832,24.563 40.546,26.104 39.67,27.317C38.794,28.529 37.421,29.286 35.928,29.379C33.972,29.502 31.853,29.634 30.077,29.745C29.368,29.789 28.672,29.909 28,30.1L28,27L26,27L26,30.901C24.98,31.442 24.054,32.162 23.268,33.036L23,33.333L23,27C23,24.791 24.791,23 27,23C27.001,23 27.001,23 27.002,23C28.062,23 29.079,23.421 29.829,24.171C30.579,24.921 31,25.938 31,26.998L31,27C31,27 32,27 33,26.998C33,25.407 32.368,23.882 31.243,22.757C30.118,21.632 28.593,21 27.002,21C27.001,21 27.001,21 27,21C23.686,21 21,23.686 21,27L21,35.556L18.184,38.684C18.125,38.75 18.064,38.814 18,38.874L18,35C18,31.686 15.314,29 12,29C11.999,29 11.999,29 11.998,29C11.998,30 11.998,30 11.998,31C11.998,31.001 11.999,31 12,31C14.209,31 16,32.791 16,35L16,39.924C15.749,39.974 15.491,40 15.23,40C15.23,40 15.23,40 15.23,39.994C13.276,39.994 11.556,38.708 11.003,36.834C9.965,33.438 8.429,28.113 8,25L14,25C17.314,25 20,22.314 20,19C20,18.999 20,18.999 20,18.998C20,17.407 19.368,15.882 18.243,14.757C17.118,13.632 15.593,13 14.002,13C14,14 14,15 14,15L14.002,15C15.062,15 16.079,15.421 16.829,16.171C17.579,16.921 18,17.938 18,18.998C18,18.999 18,18.999 18,19C18,21.209 16.209,23 14,23L7.809,23C7.772,22.478 7.743,21.931 7.717,21.37C7.601,19.707 7.903,18.058 8.576,16.567C8.868,17.184 9.265,17.752 9.757,18.243C10.882,19.368 12.407,20 13.998,20C14,19 14,18 14,18L13.998,18C12.938,18 11.921,17.579 11.171,16.829C10.486,16.144 10.075,15.235 10.01,14.274Z" style="fill:#f1de7f;"/></g></g></svg>