<svg xmlns="http://www.w3.org/2000/svg" xml:space="preserve" style="fill-rule:evenodd;clip-rule:evenodd;stroke-linejoin:round;stroke-miterlimit:2" viewBox="0 0 50 50"><path d="M0 0h50v50H0z" style="fill:none"/><path d="m25 1 20.785 12v24L25 49 4.215 37V13z" style="fill:#10273d"/><path d="m25 0 21.651 12.5v25L25 50 3.349 37.5v-25zm0 2.309 19.651 11.346v22.69L25 47.691 5.349 36.345v-22.69z" style="fill:#0077af"/><path d="m23 42-5-2h4l-7-5 8 3-2-5 3 3-4-28 2 7 1-6 1 4 1-5 1 9 1-7 1 4 2-6-4 28 3-4-2 6 8-2-7 4h4l-5 2z" style="fill:#f1de7f"/></svg>