<svg xmlns="http://www.w3.org/2000/svg" xml:space="preserve" style="fill-rule:evenodd;clip-rule:evenodd;stroke-linejoin:round;stroke-miterlimit:2" viewBox="0 0 50 50"><path d="M0 0h50v50H0z" style="fill:none"/><path d="m25 1 20.785 12v24L25 49 4.215 37V13z" style="fill:#10273d"/><path d="m25 0 21.651 12.5v25L25 50 3.349 37.5v-25zm0 2.309 19.651 11.346v22.69L25 47.691 5.349 36.345v-22.69z" style="fill:#0077af"/><path d="M23.783 36.612v.137l.249 6.11c.018.444.02.891.057 1.333.039.477.371.784.827.806l.072.002c.483 0 .803-.25.903-.715a2 2 0 0 0 .035-.327c.016-.489.025-.978.044-1.467a884 884 0 0 1 .184-4.611c.005-.116-.032-.165-.13-.21-.403-.186-.804-.379-1.205-.569zm-1.489-5.703a.7.7 0 0 0-.2.031c-1.674.512-2.219 2.453-1.006 3.686.273.277.603.523.95.7 1.06.541 2.142 1.041 3.216 1.556.346.167.697.325 1.04.498.248.126.475.285.548.58.047.193-.01.287-.202.313-.105.014-.135.058-.138.158-.011.407-.03.813-.046 1.219l-.012.238c.664-.017 1.238-.184 1.643-.722.529-.703.473-1.724-.126-2.461-.337-.416-.782-.682-1.258-.907a263 263 0 0 1-3.715-1.774c-.287-.141-.54-.353-.801-.543-.122-.089-.16-.23-.157-.382.005-.288.136-.486.44-.587.189-.063.393-.082.615-.125q-.055-.583-.114-1.174c-.003-.034-.019-.088-.042-.097-.211-.08-.4-.207-.635-.207m.414 5.275a.7.7 0 0 0-.332.088c-.767.398-1.256 1.193-1.142 1.962.166 1.116 1.181 1.642 2.124 1.642q.095 0 .188-.008l-.066-1.552c-.173-.041-.336-.068-.491-.121-.066-.022-.146-.087-.165-.149a.21.21 0 0 1 .127-.258c.15-.064.305-.117.489-.187-.018-.361-.037-.739-.059-1.117-.001-.028-.021-.07-.044-.081-.21-.099-.404-.219-.629-.219m-.45-11.001c-.202.029-.393.045-.578.086-.891.2-1.521.708-1.776 1.602-.26.913-.094 1.746.588 2.436.503.509 1.14.819 1.784 1.102 1.383.607 2.772 1.197 4.157 1.798.241.105.48.219.706.353.235.139.428.333.515.601.123.382.056.737-.418.857-.149.038-.3.067-.468.104-.02.273-.037.541-.061.809-.039.428-.041.427.349.616.05.024.097.055.148.073a.3.3 0 0 0 .1.022l.024-.002c.55-.099 1.04-.315 1.418-.741.658-.741.743-1.776.212-2.665-.392-.657-.973-1.095-1.666-1.394-1.486-.643-2.978-1.274-4.457-1.933-.402-.179-.775-.433-1.147-.674-.116-.075-.241-.213-.266-.34-.126-.657.073-.973.678-1.077.122-.021.245-.031.372-.046zm1.114 6.136c.037.417.073.816.107 1.215.034.405.072.81.098 1.216.007.119.053.18.162.23.533.245 1.062.5 1.593.751.316.15.633.298.962.453.011-.068.021-.115.025-.164.059-.75.114-1.501.176-2.251.008-.098-.033-.134-.112-.169q-1.444-.62-2.888-1.244c-.035-.016-.075-.023-.123-.037m4.342-5.957h-.007l-.208 1.577c.083.005.138.007.192.012a2 2 0 0 1 1.001.38c.39.283.258 1.227-.264 1.335a6 6 0 0 1-.811.115c-.335.021-.341.005-.379.331-.049.408-.088.816-.133 1.236.061.01.107.024.152.024h.008c.4-.018.806-.001 1.198-.064a2.415 2.415 0 0 0 1.989-2.942c-.208-.915-.818-1.48-1.674-1.802a3 3 0 0 0-1.064-.202M25.309 12h-.627c-.03.01-.06.025-.091.029a2.9 2.9 0 0 0-1.915 1.09c-1.08 1.35-.785 3.283.643 4.299.147.104.29.222.402.36.067.083.123.241.087.322-.034.077-.193.131-.3.138a7 7 0 0 1-.402.01l-.489-.003c-.574.002-.961.432-.876 1.003.242 1.602.509 3.201.741 4.805.211 1.462.391 2.929.579 4.395.015.112.049.173.156.218.577.243 1.15.494 1.725.742l1.785.769c.013-.083.025-.151.033-.221.027-.251.049-.503.081-.754.147-1.194.286-2.389.449-3.581.181-1.323.379-2.643.577-3.964.121-.798.264-1.593.38-2.392.087-.599-.291-1.019-.889-1.02l-.471.001q-.218 0-.436-.005c-.297-.01-.395-.193-.211-.422a2.6 2.6 0 0 1 .472-.43c.919-.692 1.351-1.614 1.227-2.754-.119-1.099-.717-1.898-1.721-2.364-.284-.131-.605-.183-.909-.271m3.422 7.706c-.1 0-.169.006-.189.136-.135.885-.28 1.769-.42 2.653-.063.401.032.593.306.593q.127 0 .308-.056c2.659-.818 5.318-1.635 7.976-2.459.207-.064.41-.156.6-.262.232-.132.403-.332.529-.603h-6.038zm-7.514-.002zq-2.883.004-5.766.004h-3.311c.058.094.092.155.131.213.239.35.593.527.985.648l7.991 2.461q.186.057.316.057c.276 0 .371-.194.306-.6-.138-.856-.281-1.712-.409-2.57-.024-.164-.074-.213-.242-.213m-1.354-3.01h-9.365c.03.06.053.109.078.155.424.776.851 1.551 1.271 2.329.059.111.125.15.252.15h.001q3.142-.004 6.284-.003h2.965c-.036-.465-.143-.868-.5-1.17-.163-.139-.308-.299-.459-.451-.282-.282-.64-.522-.527-1.01m19.63 0h-9.335c-.006.036-.018.068-.016.1.02.295-.118.511-.327.705-.266.246-.515.511-.777.762-.301.289-.352.665-.398 1.057.058.003.101.007.144.007q4.57 0 9.141.002c.101 0 .155-.031.203-.121q.648-1.195 1.304-2.386c.02-.037.037-.076.061-.126m-25.504-3.207-3.924.002c-.455 0-.753.28-.752.735 0 .179.047.374.127.535.237.471.504.926.751 1.392.058.111.123.153.252.153q3.214-.004 6.427-.003h2.96c.007-.039.014-.059.014-.08 0-.528.005-1.056-.003-1.584-.005-.392-.212-.673-.536-.872-.334-.205-.705-.276-1.089-.276zm22.754 0q-2.511 0-5.023.009a2.5 2.5 0 0 0-.801.159c-.539.194-.773.563-.774 1.136v1.51h9.372q.035.001.071.003.023 0 .043-.006c.043-.012.1-.03.118-.064.316-.596.626-1.194.938-1.792v-.33c-.104-.375-.314-.624-.736-.624z" style="fill:#3db8f5;fill-rule:nonzero"/></svg>