<svg xmlns="http://www.w3.org/2000/svg" xml:space="preserve" style="fill-rule:evenodd;clip-rule:evenodd;stroke-linejoin:round;stroke-miterlimit:2" viewBox="0 0 50 50"><path d="M0 0h50v50H0z" style="fill:none"/><path d="m25 1 20.785 12v24L25 49 4.215 37V13z" style="fill:#10273d"/><path d="m25 0 21.651 12.5v25L25 50 3.349 37.5v-25zm0 2.309 19.651 11.346v22.69L25 47.691 5.349 36.345v-22.69z" style="fill:#0077af"/><path d="M22.409 40.148q-1.037-1.874-1.037-4.504 0-1.714.499-3.19.498-1.475 1.315-2.351.818-.877 1.814-.877t1.834.877q.837.876 1.315 2.351.479 1.476.479 3.19 0 2.63-1.037 4.504.12-.598.12-1.236 0-1.554-.638-2.75-.798-1.435-2.073-1.435t-2.073 1.435q-.638 1.196-.638 2.75 0 .638.12 1.236m-1.196.718q-2.153-2.034-3.388-5.98-1.316-4.066-1.316-9.089 0-6.019 3.269-11.6-.558 1.914-.757 4.465-.28 4.345.797 6.657.877 1.913 2.79 2.471-.876.678-1.594 1.954-1.236 2.273-1.236 5.361 0 3.09 1.236 5.362zm7.574 0q.12-.2.199-.399 1.236-2.272 1.236-5.382 0-1.355-.239-2.551 1.435-3.787 1.435-8.77 0-8.211-7.096-15.586L25 7.5q8.491 8.65 8.491 18.297 0 5.023-1.316 9.089-1.235 3.946-3.388 5.98m.518-10.524a4.6 4.6 0 0 0-.319-.598q-.518-.957-1.116-1.555.558-2.551.558-5.501 0-6.817-5.341-13.075l.159-.16q.2-.28.279-.398 6.657 6.896 6.657 14.51 0 3.707-.877 6.777m-2.591-2.95q-.678-.359-1.674-.439.638-2.47.638-5.262 0-5.381-3.987-10.324l.16-.239q.319-.439.478-.638 4.983 5.66 4.983 11.759 0 2.791-.598 5.143M25 42.5q-.758 0-1.296-.977-.538-.976-.538-2.332t.538-2.332T25 35.883t1.296.976.538 2.332-.538 2.332T25 42.5" style="fill:#f2200d;fill-rule:nonzero"/></svg>