<svg xmlns="http://www.w3.org/2000/svg" xml:space="preserve" style="fill-rule:evenodd;clip-rule:evenodd;stroke-linejoin:round;stroke-miterlimit:2" viewBox="0 0 50 50"><path d="M0 0h50v50H0z" style="fill:none"/><path d="m25 1 20.785 12v24L25 49 4.215 37V13z" style="fill:#10273d"/><path d="m25 0 21.651 12.5v25L25 50 3.349 37.5v-25zm0 2.309 19.651 11.346v22.69L25 47.691 5.349 36.345v-22.69z" style="fill:#0077af"/><path d="M14.286 40c4.285 0 13.285-7.286 13.285-12.429v-1.714H10V31s2.571-3.429 4.714-3.429h7.715C22.429 31 20.286 38.25 14.286 40m21.428-30c-4.285 0-13.285 7.286-13.285 12.429v1.714H40V19s-2.571 3.429-4.714 3.429h-7.715C27.571 19 29.714 11.75 35.714 10" style="fill:#f1de7f"/></svg>