<svg xmlns="http://www.w3.org/2000/svg" xml:space="preserve" style="fill-rule:evenodd;clip-rule:evenodd;stroke-linejoin:round;stroke-miterlimit:2" viewBox="0 0 50 50"><path d="M0 0h50v50H0z" style="fill:none"/><path d="m25 1 20.785 12v24L25 49 4.215 37V13z" style="fill:#10273d"/><path d="m25 0 21.651 12.5v25L25 50 3.349 37.5v-25zm0 2.309 19.651 11.346v22.69L25 47.691 5.349 36.345v-22.69z" style="fill:#0077af"/><path d="M29 41.443a8 8 0 0 1-1 .485V39h-2v3.441a8 8 0 0 1-.964.059h-.072a8 8 0 0 1-.964-.059V39h-2v2.928a8 8 0 0 1-1-.485V38h8zM17.014 15H24v7h-7v12.536a7.96 7.96 0 0 0 3 6.228V37h10v3.764q.348-.279.667-.597A7.96 7.96 0 0 0 33 34.536V22h-7v-7h6.986a7.96 7.96 0 0 0-7.95-7.5h-.072a7.96 7.96 0 0 0-7.95 7.5M24 23h-5v13h5zm7 0h-5v13h5zm-8 6v6h-3v-6zm7 0v6h-3v-6zm-10-1v-1h3v1zm7 0v-1h3v1zm3-2h-3v-2h3zm-7 0h-3v-2h3zm10-10v5h-6v-5zm-16 0h6v5h-6zm2 1h-1v3h1zm13 0h-1v3h1z" style="fill:#f1de7f"/></svg>