<?xml version="1.0" encoding="UTF-8" standalone="no"?><!DOCTYPE svg PUBLIC "-//W3C//DTD SVG 1.1//EN" "http://www.w3.org/Graphics/SVG/1.1/DTD/svg11.dtd"><svg width="100%" height="100%" viewBox="0 0 50 50" version="1.1" xmlns="http://www.w3.org/2000/svg" xmlns:xlink="http://www.w3.org/1999/xlink" xml:space="preserve" xmlns:serif="http://www.serif.com/" style="fill-rule:evenodd;clip-rule:evenodd;stroke-linejoin:round;stroke-miterlimit:2;"><rect id="focus-sensors" x="0" y="0" width="50" height="50" style="fill:none;"/><g id="focus-sensors1" serif:id="focus-sensors"><g id="Focus-Frame" serif:id="Focus Frame"><path d="M25,1L45.785,13L45.785,37L25,49L4.215,37L4.215,13L25,1Z" style="fill:#10273d;"/><path d="M25,0L46.651,12.5L46.651,37.5L25,50L3.349,37.5L3.349,12.5L25,0ZM25,2.309L44.651,13.655C44.651,13.655 44.651,36.345 44.651,36.345C44.651,36.345 25,47.691 25,47.691C25,47.691 5.349,36.345 5.349,36.345C5.349,36.345 5.349,13.655 5.349,13.655L25,2.309Z" style="fill:#0077af;"/></g><g id="Sensors"><path id="Sensors1" serif:id="Sensors" d="M34.439,23.193C34.167,22.578 33.878,22.046 33.555,21.656C33.12,21.132 32.616,20.844 32.031,20.844C31.447,20.844 30.943,21.132 30.508,21.656C30.184,22.046 29.896,22.578 29.623,23.193C29.069,19.134 28.41,15.376 27.497,13.273C27.147,12.465 26.743,11.872 26.322,11.514C25.91,11.165 25.465,11 25,11C24.53,11 24.085,11.167 23.678,11.521C23.263,11.88 22.87,12.477 22.536,13.29C21.683,15.365 21.108,19.053 20.621,23.05C20.438,22.661 20.242,22.309 20.023,22.011C19.489,21.28 18.826,20.844 17.969,20.844C17.112,20.844 16.449,21.28 15.914,22.011C15.696,22.309 15.499,22.661 15.317,23.05C14.829,19.053 14.255,15.365 13.402,13.29C13.068,12.477 12.674,11.88 12.26,11.521C11.852,11.167 11.407,11 10.938,11L10.938,12.875C11.056,12.875 11.114,13.008 11.21,13.137C11.375,13.361 11.524,13.654 11.667,14.003C12.678,16.461 13.243,21.285 13.785,26.105L13.882,26.966C13.609,27.702 13.306,28.397 12.931,28.964C12.441,29.704 11.825,30.219 10.938,30.219L10.938,31.156C12.159,31.156 13.038,30.5 13.712,29.482C13.847,29.278 13.973,29.06 14.093,28.83C14.554,32.851 15.04,36.572 15.754,38.658C16.03,39.466 16.36,40.062 16.703,40.42C17.09,40.823 17.522,41 17.969,41C18.416,41 18.848,40.823 19.235,40.42C19.578,40.062 19.907,39.466 20.184,38.658C20.898,36.572 21.384,32.851 21.845,28.83C21.964,29.06 22.091,29.278 22.225,29.482C22.9,30.5 23.778,31.156 25,31.156C26.21,31.156 27.131,30.506 27.862,29.498C28.061,29.224 28.246,28.922 28.419,28.602C28.488,29.167 28.557,29.728 28.626,30.279C29.11,34.152 29.609,37.571 30.251,39.275C30.472,39.861 30.728,40.282 30.98,40.536C31.309,40.866 31.67,41 32.031,41C32.392,41 32.754,40.866 33.082,40.536C33.334,40.282 33.591,39.861 33.812,39.275C34.454,37.571 34.952,34.152 35.437,30.279C35.505,29.728 35.574,29.167 35.643,28.602C35.817,28.922 36.001,29.224 36.2,29.498C36.931,30.506 37.852,31.156 39.063,31.156L39.063,30.219C37.964,30.219 37.223,29.449 36.619,28.425C36.337,27.946 36.087,27.412 35.857,26.855C36.43,22.187 37.065,17.414 38.038,14.655C38.262,14.019 38.497,13.502 38.766,13.149C38.87,13.012 38.937,12.875 39.063,12.875L39.063,11C38.598,11 38.152,11.165 37.741,11.514C37.32,11.872 36.915,12.465 36.565,13.273C35.653,15.376 34.994,19.134 34.439,23.193ZM20.39,25.006C20.134,24.27 19.868,23.575 19.549,23.007C19.148,22.296 18.68,21.781 17.969,21.781C17.257,21.781 16.789,22.296 16.389,23.007C16.069,23.575 15.803,24.27 15.548,25.006C15.582,25.302 15.615,25.599 15.648,25.895C16.193,30.737 16.682,35.581 17.528,38.05C17.649,38.404 17.774,38.702 17.914,38.929C17.93,38.954 17.949,38.981 17.969,39.008C17.989,38.981 18.008,38.954 18.023,38.929C18.163,38.702 18.289,38.404 18.41,38.05C19.255,35.581 19.744,30.737 20.289,25.895C20.322,25.599 20.356,25.302 20.39,25.006ZM34.188,25.099C33.825,24.111 33.471,23.193 33.046,22.545C32.753,22.1 32.449,21.781 32.031,21.781C31.614,21.781 31.309,22.1 31.017,22.545C30.592,23.193 30.237,24.111 29.874,25.099C29.907,25.36 29.94,25.622 29.973,25.884C30.581,30.745 31.095,35.608 31.831,38.087C31.885,38.271 31.958,38.461 32.031,38.631C32.104,38.461 32.177,38.271 32.232,38.087C32.967,35.608 33.482,30.745 34.089,25.884C34.122,25.622 34.155,25.36 34.188,25.099ZM28.206,26.855C27.632,22.187 26.998,17.414 26.025,14.655C25.801,14.019 25.566,13.502 25.296,13.149C25.192,13.012 25.125,12.875 25,12.875C24.881,12.875 24.823,13.008 24.728,13.137C24.562,13.361 24.413,13.654 24.27,14.003C23.26,16.461 22.695,21.285 22.152,26.105L22.056,26.966C22.329,27.702 22.631,28.397 23.007,28.964C23.497,29.704 24.112,30.219 25,30.219C26.098,30.219 26.84,29.449 27.444,28.425C27.726,27.946 27.975,27.412 28.206,26.855Z" style="fill:#f1de7f;"/></g></g></svg>