<svg xmlns="http://www.w3.org/2000/svg" xml:space="preserve" style="fill-rule:evenodd;clip-rule:evenodd;stroke-linejoin:round;stroke-miterlimit:2" viewBox="0 0 50 50"><path d="M0 0h50v50H0z" style="fill:none"/><path d="m25 1 20.785 12v24L25 49 4.215 37V13z" style="fill:#10273d"/><path d="m25 0 21.651 12.5v25L25 50 3.349 37.5v-25zm0 2.309 19.651 11.346v22.69L25 47.691 5.349 36.345v-22.69z" style="fill:#0077af"/><path d="M9 37.957c1.971-3.625 5.886-8.61 10.894-13.619 8.458-8.457 16.85-13.798 18.729-11.918 1.313 1.312-.897 5.803-5.231 11.274 1.295-2.278 1.747-3.862 1.145-4.464C32.658 17.351 21.216 25.741 9 37.957" style="fill:#f1de7f"/></svg>