<svg xmlns="http://www.w3.org/2000/svg" xml:space="preserve" style="fill-rule:evenodd;clip-rule:evenodd;stroke-linejoin:round;stroke-miterlimit:2" viewBox="0 0 50 50"><path d="M0 0h50v50H0z" style="fill:none"/><path d="m25 1 20.785 12v24L25 49 4.215 37V13z" style="fill:#10273d"/><path d="m25 0 21.651 12.5v25L25 50 3.349 37.5v-25zm0 2.309 19.651 11.346v22.69L25 47.691 5.349 36.345v-22.69z" style="fill:#0077af"/><path d="m10.01 14.274.253-.295a10 10 0 0 1 7.086-3.301l7.677-.265a15 15 0 0 1 2.974.195V11a4 4 0 0 1-4 4h-.002v2H24a6 6 0 0 0 5.998-5.919c2.309.718 4.4 1.982 6.099 3.668A6 6 0 0 0 33 20v.002A5.997 5.997 0 0 0 38.998 26L39 24h-.002A4 4 0 0 1 35 20.002V20a4 4 0 0 1 2.467-3.695 14.9 14.9 0 0 1 2.582 5.282l.403 1.53a5.002 5.002 0 0 1-4.524 6.262l-5.851.366A9.8 9.8 0 0 0 28 30.1V27h-2v3.901a9.9 9.9 0 0 0-2.732 2.135l-.268.297V27a4 4 0 0 1 4-4h.002A4 4 0 0 1 31 26.998V27l2-.002A5.997 5.997 0 0 0 27.002 21H27a6 6 0 0 0-6 6v8.556l-2.816 3.128q-.088.1-.184.19V35a6 6 0 0 0-6-6h-.002v2H12a4 4 0 0 1 4 4v4.924q-.378.075-.77.076v-.006a4.41 4.41 0 0 1-4.227-3.16C9.965 33.438 8.429 28.113 8 25h6a6 6 0 0 0 6-6v-.002A5.997 5.997 0 0 0 14.002 13L14 15h.002A4 4 0 0 1 18 18.998V19a4 4 0 0 1-4 4H7.809a67 67 0 0 1-.092-1.63 10 10 0 0 1 .859-4.803A5.997 5.997 0 0 0 13.998 20L14 18h-.002a4 4 0 0 1-3.988-3.726" style="fill:#f1de7f"/></svg>