<svg xmlns="http://www.w3.org/2000/svg" xml:space="preserve" style="fill-rule:evenodd;clip-rule:evenodd;stroke-linejoin:round;stroke-miterlimit:2" viewBox="0 0 50 50"><path d="M0 0h50v50H0z" style="fill:none"/><path d="m25 1 20.785 12v24L25 49 4.215 37V13z" style="fill:#10273d"/><path d="m25 0 21.651 12.5v25L25 50 3.349 37.5v-25zm0 2.309 19.651 11.346v22.69L25 47.691 5.349 36.345v-22.69z" style="fill:#0077af"/><path d="M22.858 29.628a.145.145 0 0 1 .284 0l.91 4.684a1.44 1.44 0 0 0 1.147 1.147l4.684.909a.146.146 0 0 1 0 .285l-4.684.909a1.45 1.45 0 0 0-1.147 1.147l-.91 4.684a.145.145 0 0 1-.284 0l-.91-4.684a1.451 1.451 0 0 0-1.147-1.147l-4.684-.909a.146.146 0 0 1 0-.285l4.684-.909a1.45 1.45 0 0 0 1.147-1.147zm10.969-9.496a.177.177 0 0 1 .346 0l1.104 5.688a1.76 1.76 0 0 0 1.393 1.392l5.688 1.104a.177.177 0 0 1 0 .346l-5.688 1.104a1.76 1.76 0 0 0-1.393 1.393l-1.104 5.688a.177.177 0 0 1-.346 0l-1.104-5.688a1.76 1.76 0 0 0-1.393-1.393l-5.688-1.104a.177.177 0 0 1 0-.346l5.688-1.104a1.765 1.765 0 0 0 1.393-1.392zM18.276 8.674a.23.23 0 0 1 .224-.185.23.23 0 0 1 .224.185l1.429 7.36a2.27 2.27 0 0 0 1.802 1.803l7.361 1.429a.228.228 0 0 1 0 .447l-7.361 1.429a2.27 2.27 0 0 0-1.802 1.802l-1.429 7.361a.228.228 0 0 1-.448 0l-1.429-7.361a2.28 2.28 0 0 0-1.802-1.802l-7.361-1.429a.228.228 0 0 1 0-.447l7.361-1.429a2.28 2.28 0 0 0 1.802-1.803z" style="fill:#f1de7f"/></svg>