<?xml version="1.0" encoding="UTF-8" standalone="no"?><!DOCTYPE svg PUBLIC "-//W3C//DTD SVG 1.1//EN" "http://www.w3.org/Graphics/SVG/1.1/DTD/svg11.dtd"><svg width="100%" height="100%" viewBox="0 0 50 50" version="1.1" xmlns="http://www.w3.org/2000/svg" xmlns:xlink="http://www.w3.org/1999/xlink" xml:space="preserve" xmlns:serif="http://www.serif.com/" style="fill-rule:evenodd;clip-rule:evenodd;stroke-linejoin:round;stroke-miterlimit:2;"><rect id="focus-conn" x="0" y="0" width="50" height="50" style="fill:none;"/><g id="focus-conn1" serif:id="focus-conn"><g id="Focus-Frame" serif:id="Focus Frame"><path d="M25,1L45.785,13L45.785,37L25,49L4.215,37L4.215,13L25,1Z" style="fill:#10273d;"/><path d="M25,0L46.651,12.5L46.651,37.5L25,50L3.349,37.5L3.349,12.5L25,0ZM25,2.309L44.651,13.655C44.651,13.655 44.651,36.345 44.651,36.345C44.651,36.345 25,47.691 25,47.691C25,47.691 5.349,36.345 5.349,36.345C5.349,36.345 5.349,13.655 5.349,13.655L25,2.309Z" style="fill:#0077af;"/></g><g><path d="M13.5,17.978C16,17.478 18.583,15.728 20.5,13.978C22.417,12.228 24.5,9.478 25,7.478C25.5,9.478 27.583,12.228 29.5,13.978C31.417,15.728 34,17.478 36.5,17.978C34,18.478 29.836,20.132 28.5,22.978C26.583,27.062 25.5,38.478 25,42.478C24.5,38.478 23.417,27.062 21.5,22.978C20.164,20.132 16,18.478 13.5,17.978ZM24.934,14.772L24.51,16.954C24.484,17.086 24.42,17.208 24.325,17.303C24.229,17.398 24.108,17.463 23.976,17.488L21.794,17.912C21.762,17.918 21.739,17.946 21.739,17.978C21.739,18.011 21.762,18.039 21.794,18.045L23.976,18.468C24.108,18.494 24.229,18.559 24.325,18.654C24.42,18.749 24.484,18.87 24.51,19.003L24.934,21.185C24.94,21.216 24.968,21.239 25,21.239C25.032,21.239 25.06,21.216 25.066,21.185L25.49,19.003C25.516,18.87 25.58,18.749 25.675,18.654C25.771,18.559 25.892,18.494 26.024,18.468L28.206,18.045C28.238,18.039 28.261,18.011 28.261,17.978C28.261,17.946 28.238,17.918 28.206,17.912L26.024,17.488C25.892,17.463 25.771,17.398 25.675,17.303C25.58,17.208 25.516,17.086 25.49,16.954L25.066,14.772C25.06,14.741 25.032,14.718 25,14.718C24.968,14.718 24.94,14.741 24.934,14.772Z" style="fill:#f54d3d;"/></g></g></svg>