<?xml version="1.0" encoding="UTF-8" standalone="no"?><!DOCTYPE svg PUBLIC "-//W3C//DTD SVG 1.1//EN" "http://www.w3.org/Graphics/SVG/1.1/DTD/svg11.dtd"><svg width="100%" height="100%" viewBox="0 0 50 50" version="1.1" xmlns="http://www.w3.org/2000/svg" xmlns:xlink="http://www.w3.org/1999/xlink" xml:space="preserve" xmlns:serif="http://www.serif.com/" style="fill-rule:evenodd;clip-rule:evenodd;stroke-linejoin:round;stroke-miterlimit:2;"><rect id="focus-betazoid" x="0" y="0" width="50" height="50" style="fill:none;"/><g id="focus-betazoid1" serif:id="focus-betazoid"><g id="Focus-Frame" serif:id="Focus Frame"><path d="M25,1L45.785,13L45.785,37L25,49L4.215,37L4.215,13L25,1Z" style="fill:#10273d;"/><path d="M25,0L46.651,12.5L46.651,37.5L25,50L3.349,37.5L3.349,12.5L25,0ZM25,2.309L44.651,13.655C44.651,13.655 44.651,36.345 44.651,36.345C44.651,36.345 25,47.691 25,47.691C25,47.691 5.349,36.345 5.349,36.345C5.349,36.345 5.349,13.655 5.349,13.655L25,2.309Z" style="fill:#0077af;"/></g><g id="Betazoid"><path id="Betazoid1" serif:id="Betazoid" d="M27.729,37.049C26.383,37.067 24.988,36.85 23.609,36.403C23.451,36.664 23.261,36.907 23.042,37.126C22.21,37.957 21.056,38.352 19.767,38.309C18.001,38.251 15.965,37.353 14.306,35.694C12.647,34.035 11.749,31.999 11.691,30.233C11.648,28.944 12.043,27.79 12.874,26.958C13.093,26.739 13.336,26.549 13.597,26.391C13.15,25.012 12.933,23.617 12.951,22.271C11.168,20.171 10.158,17.799 10.017,15.731C9.901,14.018 10.372,12.502 11.437,11.437C12.502,10.372 14.018,9.901 15.731,10.017C17.799,10.158 20.171,11.168 22.271,12.951C25.748,12.904 29.555,14.427 32.564,17.436C35.573,20.445 37.096,24.252 37.049,27.729C38.832,29.829 39.842,32.201 39.983,34.269C40.099,35.982 39.628,37.498 38.563,38.563C37.498,39.628 35.982,40.099 34.269,39.983C32.201,39.842 29.829,38.832 27.729,37.049ZM20.146,13.187C18.426,13.557 16.86,14.36 15.61,15.61C14.36,16.86 13.557,18.426 13.187,20.146C12.174,18.641 11.586,17.058 11.489,15.631C11.404,14.38 11.702,13.258 12.48,12.48C13.258,11.702 14.38,11.404 15.631,11.489C17.058,11.586 18.641,12.174 20.146,13.187ZM22.195,35.86C22.134,35.938 22.069,36.012 21.998,36.083C21.447,36.634 20.67,36.863 19.816,36.835C18.366,36.786 16.712,36.013 15.349,34.651C13.987,33.288 13.214,31.634 13.165,30.184C13.137,29.33 13.366,28.553 13.917,28.002C13.988,27.931 14.062,27.866 14.14,27.805C14.89,29.492 15.992,31.12 17.436,32.564C18.88,34.008 20.508,35.11 22.195,35.86ZM24.292,17.658C23.745,16.68 23.019,15.716 22.131,14.828C21.994,14.691 21.856,14.558 21.715,14.429C19.784,14.571 18.009,15.298 16.653,16.653C15.298,18.009 14.571,19.784 14.429,21.715C14.558,21.856 14.691,21.994 14.828,22.131C15.716,23.019 16.68,23.745 17.658,24.292C17.816,22.646 18.524,21.043 19.783,19.783C21.043,18.524 22.646,17.816 24.292,17.658ZM17.695,26.024C17.168,25.876 16.647,25.792 16.149,25.776C15.738,25.762 15.341,25.793 14.964,25.868C14.747,25.194 14.593,24.516 14.501,23.846C15.517,24.738 16.601,25.446 17.686,25.961C17.689,25.982 17.692,26.003 17.695,26.024ZM22.249,31.846C21.351,31.487 20.51,30.943 19.783,30.217C19.057,29.49 18.513,28.649 18.154,27.751C17.458,27.443 16.758,27.272 16.1,27.25C15.898,27.243 15.701,27.251 15.51,27.274C16.194,28.778 17.19,30.232 18.479,31.521C19.768,32.81 21.222,33.806 22.726,34.49C22.749,34.299 22.757,34.102 22.75,33.9C22.728,33.242 22.557,32.542 22.249,31.846ZM25.369,20.368L27.222,20.368L27.222,29.589L26.853,29.589L26.853,23.701L23.121,23.701L23.121,29.589L22.427,29.589L22.427,22.581L25.369,22.581L25.369,20.368ZM24.631,20.368L22.427,20.368L22.427,21.843L24.631,21.843L24.631,20.368ZM35.499,26.154C34.483,25.262 33.399,24.554 32.314,24.039C32.11,22.482 31.411,20.978 30.217,19.783C29.022,18.589 27.518,17.89 25.961,17.686C25.446,16.6 24.738,15.516 23.846,14.501C26.502,14.863 29.264,16.222 31.521,18.479C33.778,20.736 35.137,23.498 35.499,26.154ZM26.115,29.589L23.859,29.589L23.859,24.439C23.859,24.439 26.115,24.439 26.115,24.439L26.115,29.589ZM26.154,35.499C25.483,35.407 24.806,35.252 24.132,35.036C24.207,34.659 24.238,34.262 24.224,33.851C24.208,33.353 24.124,32.832 23.976,32.305C23.997,32.308 24.018,32.311 24.039,32.314C24.554,33.4 25.262,34.484 26.154,35.499ZM35.571,28.285C35.442,28.144 35.309,28.006 35.172,27.869C34.284,26.981 33.32,26.255 32.342,25.708C32.184,27.354 31.476,28.957 30.217,30.217C28.957,31.476 27.354,32.184 25.708,32.342C26.255,33.32 26.981,34.284 27.869,35.172C28.006,35.309 28.144,35.442 28.285,35.571C30.216,35.429 31.991,34.702 33.347,33.347C34.702,31.991 35.429,30.216 35.571,28.285ZM36.813,29.854C37.826,31.359 38.414,32.942 38.511,34.369C38.596,35.62 38.298,36.742 37.52,37.52C36.742,38.298 35.62,38.596 34.369,38.511C32.942,38.414 31.359,37.826 29.854,36.813C31.574,36.443 33.14,35.64 34.39,34.39C35.64,33.14 36.443,31.574 36.813,29.854Z" style="fill:#dbc557;"/></g></g></svg>