<?xml version="1.0" encoding="UTF-8" standalone="no"?><!DOCTYPE svg PUBLIC "-//W3C//DTD SVG 1.1//EN" "http://www.w3.org/Graphics/SVG/1.1/DTD/svg11.dtd"><svg width="100%" height="100%" viewBox="0 0 50 50" version="1.1" xmlns="http://www.w3.org/2000/svg" xmlns:xlink="http://www.w3.org/1999/xlink" xml:space="preserve" xmlns:serif="http://www.serif.com/" style="fill-rule:evenodd;clip-rule:evenodd;stroke-linejoin:round;stroke-miterlimit:2;"><rect id="focus-heritage" x="0" y="0" width="50" height="50" style="fill:none;"/><g id="focus-heritage1" serif:id="focus-heritage"><g id="Focus-Frame" serif:id="Focus Frame"><path d="M25,1L45.785,13L45.785,37L25,49L4.215,37L4.215,13L25,1Z" style="fill:#10273d;"/><path d="M25,0L46.651,12.5L46.651,37.5L25,50L3.349,37.5L3.349,12.5L25,0ZM25,2.309L44.651,13.655C44.651,13.655 44.651,36.345 44.651,36.345C44.651,36.345 25,47.691 25,47.691C25,47.691 5.349,36.345 5.349,36.345C5.349,36.345 5.349,13.655 5.349,13.655L25,2.309Z" style="fill:#0077af;"/></g><g id="Heritage"><path id="Heritage1" serif:id="Heritage" d="M25,7.5C15.341,7.5 7.5,15.341 7.5,25C7.5,34.659 15.341,42.5 25,42.5C34.659,42.5 42.5,34.659 42.5,25C42.5,15.341 34.659,7.5 25,7.5ZM21.857,35.413C22.099,36.233 22.37,36.975 22.666,37.626C23.057,38.486 23.484,39.176 23.954,39.645C23.974,39.665 23.994,39.685 24.015,39.704C24.34,39.726 24.669,39.737 25,39.737C25.331,39.737 25.66,39.726 25.985,39.704C26.006,39.685 26.026,39.665 26.046,39.645C26.516,39.176 26.943,38.486 27.334,37.626C27.63,36.975 27.901,36.233 28.143,35.413C27.125,35.531 26.074,35.592 25,35.592C23.926,35.592 22.875,35.531 21.857,35.413ZM16.821,34.305C17.441,35.47 18.177,36.504 19.004,37.371C19.743,38.145 20.556,38.784 21.425,39.257C20.829,38.171 20.301,36.761 19.872,35.108C18.805,34.9 17.784,34.63 16.821,34.305ZM33.179,34.305C32.216,34.63 31.195,34.9 30.128,35.108C29.699,36.761 29.171,38.172 28.575,39.257C29.444,38.784 30.257,38.145 30.996,37.371C31.823,36.504 32.559,35.47 33.179,34.305ZM11.944,31.838C12.974,33.798 14.433,35.499 16.195,36.815C15.47,35.76 14.84,34.571 14.326,33.277C13.455,32.845 12.657,32.363 11.944,31.838ZM38.056,31.838C37.343,32.363 36.545,32.845 35.674,33.277C35.16,34.571 34.53,35.76 33.805,36.815C35.567,35.499 37.026,33.798 38.056,31.838ZM20.557,25.912L29.443,25.916C29.391,28.699 29.1,31.288 28.627,33.496C27.463,33.662 26.249,33.75 25,33.75C23.751,33.75 22.537,33.662 21.373,33.496C20.9,31.288 20.609,28.697 20.557,25.912ZM31.285,25.917C31.236,28.528 30.98,30.98 30.569,33.136C31.881,32.834 33.106,32.428 34.216,31.933C34.859,30.107 35.255,28.072 35.343,25.919L31.285,25.917ZM14.657,25.91C14.744,28.067 15.14,30.106 15.784,31.933C16.894,32.428 18.119,32.834 19.431,33.136C19.019,30.979 18.763,28.525 18.715,25.912L14.657,25.91ZM10.291,25.908C10.325,26.472 10.391,27.027 10.487,27.571C10.967,28.45 11.682,29.265 12.577,29.997C12.862,30.231 13.166,30.457 13.487,30.673C13.109,29.172 12.876,27.572 12.813,25.909L10.291,25.908ZM37.186,25.919C37.123,27.579 36.89,29.175 36.513,30.673C36.834,30.457 37.138,30.231 37.423,29.997C38.318,29.265 39.033,28.45 39.513,27.571C39.608,27.03 39.674,26.48 39.709,25.92L37.186,25.919ZM36.513,19.327C36.89,20.824 37.123,22.419 37.186,24.077L39.708,24.078C39.674,23.52 39.608,22.969 39.513,22.429C39.033,21.55 38.318,20.735 37.423,20.003C37.138,19.769 36.834,19.543 36.513,19.327ZM30.569,16.864C30.98,19.017 31.236,21.466 31.285,24.075L35.343,24.077C35.255,21.925 34.859,19.891 34.216,18.067C33.106,17.572 31.881,17.166 30.569,16.864ZM28.627,16.504C29.099,18.708 29.39,21.295 29.443,24.074L20.557,24.07C20.61,21.293 20.901,18.708 21.373,16.504C22.537,16.338 23.751,16.25 25,16.25C26.249,16.25 27.463,16.338 28.627,16.504ZM19.431,16.864C18.119,17.166 16.894,17.572 15.784,18.067C15.142,19.889 14.747,21.92 14.657,24.068L18.715,24.07C18.764,21.463 19.02,19.017 19.431,16.864ZM13.487,19.327C13.166,19.543 12.862,19.769 12.577,20.003C11.682,20.735 10.967,21.55 10.487,22.429C10.393,22.965 10.327,23.512 10.292,24.066L12.814,24.067C12.878,22.412 13.111,20.821 13.487,19.327ZM33.805,13.185C34.53,14.24 35.16,15.429 35.674,16.723C36.545,17.155 37.343,17.637 38.056,18.162C37.026,16.202 35.567,14.501 33.805,13.185ZM16.195,13.185C14.433,14.501 12.974,16.202 11.944,18.162C12.657,17.637 13.455,17.155 14.326,16.723C14.84,15.429 15.47,14.24 16.195,13.185ZM28.575,10.743C29.171,11.829 29.699,13.239 30.128,14.892C31.195,15.1 32.216,15.37 33.179,15.695C32.559,14.53 31.823,13.496 30.996,12.629C30.257,11.855 29.444,11.216 28.575,10.743ZM21.425,10.743C20.556,11.216 19.743,11.855 19.004,12.629C18.177,13.496 17.441,14.53 16.821,15.695C17.784,15.37 18.805,15.1 19.872,14.892C20.301,13.239 20.829,11.828 21.425,10.743ZM25.985,10.296C25.66,10.274 25.331,10.263 25,10.263C24.669,10.263 24.34,10.274 24.015,10.296C23.994,10.315 23.974,10.335 23.954,10.355C23.484,10.824 23.057,11.514 22.666,12.374C22.37,13.025 22.099,13.767 21.857,14.587C22.875,14.469 23.926,14.408 25,14.408C26.074,14.408 27.125,14.469 28.143,14.587C27.901,13.767 27.63,13.025 27.334,12.374C26.943,11.514 26.516,10.824 26.046,10.355C26.026,10.335 26.006,10.315 25.985,10.296Z" style="fill:#f1de7f;"/></g></g></svg>