<?xml version="1.0" encoding="UTF-8" standalone="no"?><!DOCTYPE svg PUBLIC "-//W3C//DTD SVG 1.1//EN" "http://www.w3.org/Graphics/SVG/1.1/DTD/svg11.dtd"><svg width="100%" height="100%" viewBox="0 0 50 50" version="1.1" xmlns="http://www.w3.org/2000/svg" xmlns:xlink="http://www.w3.org/1999/xlink" xml:space="preserve" xmlns:serif="http://www.serif.com/" style="fill-rule:evenodd;clip-rule:evenodd;stroke-linejoin:round;stroke-miterlimit:2;"><rect id="focus-academy" x="0" y="0" width="50" height="50" style="fill:none;"/><g id="focus-academy1" serif:id="focus-academy"><g id="Focus-Frame" serif:id="Focus Frame"><path d="M25,1L45.785,13L45.785,37L25,49L4.215,37L4.215,13L25,1Z" style="fill:#10273d;"/><path d="M25,0L46.651,12.5L46.651,37.5L25,50L3.349,37.5L3.349,12.5L25,0ZM25,2.309L44.651,13.655C44.651,13.655 44.651,36.345 44.651,36.345C44.651,36.345 25,47.691 25,47.691C25,47.691 5.349,36.345 5.349,36.345C5.349,36.345 5.349,13.655 5.349,13.655L25,2.309Z" style="fill:#0077af;"/></g><g id="Academy"><path id="Academy1" serif:id="Academy" d="M20.75,8.141L8.157,29.952C7.281,31.47 7.281,33.341 8.157,34.859C9.034,36.378 10.654,37.313 12.407,37.313L37.593,37.313C39.346,37.313 40.966,36.378 41.843,34.859C42.719,33.341 42.719,31.47 41.843,29.952L29.25,8.141C28.373,6.622 26.753,5.687 25,5.687C23.247,5.687 21.627,6.622 20.75,8.141ZM16.265,34.041L12.407,34.041C11.832,34.041 11.3,33.739 11.005,33.247C11.967,32.939 13.83,32.369 16.265,31.747L16.265,34.041ZM17.998,34.041L16.884,34.041L16.884,33.614L17.451,32.984L17.998,33.644L17.998,34.041ZM22.796,34.041L18.507,34.041L18.507,31.202C19.837,30.894 21.279,30.588 22.796,30.309L22.796,34.041ZM26.1,34.041L24.115,34.041L24.115,33.745C24.505,33.249 24.835,32.828 25.114,32.472L26.1,33.853L26.1,34.041ZM37.609,29.162L39.009,31.588C39.301,32.094 39.301,32.717 39.009,33.223C38.717,33.729 38.177,34.041 37.593,34.041L26.96,34.041L26.96,29.648C30.439,29.188 34.113,28.946 37.609,29.162ZM17.602,32.815L17.998,32.375L17.998,33.292L17.602,32.815ZM16.884,33.278L16.884,32.302L17.305,32.809L16.884,33.278ZM26.1,31.195L26.1,33.081L25.401,32.103C25.702,31.716 25.929,31.421 26.1,31.195ZM24.84,32.089C24.603,32.394 24.355,32.712 24.115,33.018L24.115,31.073L24.84,32.089ZM36.196,26.715C34.768,26.948 31.22,27.551 26.96,28.447L26.96,20.06L26.1,20.255L26.1,20.801L24.118,19.885L24.118,19.319L22.796,19.656L22.796,29.372C21.379,29.704 19.935,30.063 18.507,30.445L18.507,25.836L18.044,25.978L18.044,26.217L16.977,25.748L16.977,25.47L16.265,25.679L16.265,31.071C14.348,31.628 12.503,32.228 10.837,32.864C10.714,32.441 10.765,31.979 10.991,31.588L23.583,9.777C23.876,9.27 24.416,8.959 25,8.959C25.584,8.959 26.124,9.27 26.417,9.777L36.196,26.715ZM17.457,32.641L16.931,32.007L17.967,32.073L17.457,32.641ZM24.115,30.302L24.115,30.223L26.013,30.566C25.82,30.825 25.497,31.243 25.128,31.72L24.115,30.302ZM17.026,30.127L17.024,29.639C17.032,29.518 17.146,29.032 17.588,29.191C18.03,29.351 17.939,29.761 17.939,29.761L17.964,30.283L17.026,30.127ZM17.041,28.657L17.041,28.182C17.049,28.066 17.168,27.61 17.623,27.826C18.077,28.041 17.981,28.428 17.981,28.428L18.005,28.939L17.041,28.657ZM24.182,27.748L24.179,26.852C24.193,26.632 24.411,25.767 25.255,26.165C26.1,26.561 25.926,27.294 25.926,27.294L25.974,28.258L24.182,27.748ZM17.033,27.164L17.033,26.689C17.041,26.574 17.161,26.125 17.615,26.369C18.069,26.613 17.973,26.993 17.973,26.993L17.997,27.506L17.033,27.164ZM24.211,25.055L24.211,24.183C24.226,23.972 24.454,23.163 25.322,23.667C26.189,24.17 26.007,24.857 26.007,24.857L26.052,25.8L24.211,25.055ZM24.195,22.313L24.195,21.442C24.21,21.231 24.439,20.436 25.306,20.991C26.174,21.547 25.991,22.223 25.991,22.223L26.037,23.169L24.195,22.313ZM24.238,13.262C23.399,13.391 22.674,13.729 22.182,14.185C21.727,14.607 21.466,15.131 21.466,15.695C21.466,16.258 21.727,16.782 22.182,17.204C22.394,17.401 22.648,17.575 22.935,17.72C22.909,17.899 22.891,18.068 22.88,18.226C22.879,18.25 23.009,18.093 23.217,17.848C23.71,18.049 24.281,18.171 24.892,18.184L25,18.185C25.695,18.185 26.342,18.044 26.885,17.804C27.019,18.068 27.105,18.24 27.104,18.211C27.097,18.057 27.081,17.894 27.059,17.722C27.349,17.577 27.605,17.402 27.818,17.204C28.273,16.782 28.534,16.258 28.534,15.695C28.534,15.131 28.273,14.607 27.818,14.185C27.33,13.732 26.614,13.397 25.784,13.265C25.42,12.338 25.099,11.685 25.008,11.685C24.917,11.685 24.6,12.337 24.238,13.262ZM26.637,17.319C26.165,17.523 25.602,17.64 25,17.64C24.494,17.64 24.016,17.557 23.595,17.41C24.211,16.715 25.081,15.825 25.61,15.802C25.812,15.793 26.279,16.629 26.637,17.319ZM24.011,13.859C23.634,14.89 23.247,16.119 23.035,17.156C22.855,17.052 22.693,16.935 22.553,16.805C22.217,16.493 22.011,16.111 22.011,15.695C22.011,15.278 22.217,14.897 22.553,14.585C22.914,14.25 23.422,13.995 24.011,13.859ZM26.011,13.865C26.591,14.002 27.09,14.254 27.447,14.585C27.783,14.897 27.989,15.278 27.989,15.695C27.989,16.111 27.783,16.493 27.447,16.805C27.307,16.934 27.146,17.052 26.966,17.155C26.766,16.114 26.386,14.89 26.011,13.865Z" style="fill:#f1de7f;fill-rule:nonzero;"/></g></g></svg>