<?xml version="1.0" encoding="UTF-8" standalone="no"?><!DOCTYPE svg PUBLIC "-//W3C//DTD SVG 1.1//EN" "http://www.w3.org/Graphics/SVG/1.1/DTD/svg11.dtd"><svg width="100%" height="100%" viewBox="0 0 50 50" version="1.1" xmlns="http://www.w3.org/2000/svg" xmlns:xlink="http://www.w3.org/1999/xlink" xml:space="preserve" xmlns:serif="http://www.serif.com/" style="fill-rule:evenodd;clip-rule:evenodd;stroke-linejoin:round;stroke-miterlimit:2;"><rect id="focus-relationship" x="0" y="0" width="50" height="50" style="fill:none;"/><g id="focus-relationship1" serif:id="focus-relationship"><g id="Focus-Frame" serif:id="Focus Frame"><path d="M25,1L45.785,13L45.785,37L25,49L4.215,37L4.215,13L25,1Z" style="fill:#10273d;"/><path d="M25,0L46.651,12.5L46.651,37.5L25,50L3.349,37.5L3.349,12.5L25,0ZM25,2.309L44.651,13.655C44.651,13.655 44.651,36.345 44.651,36.345C44.651,36.345 25,47.691 25,47.691C25,47.691 5.349,36.345 5.349,36.345C5.349,36.345 5.349,13.655 5.349,13.655L25,2.309Z" style="fill:#0077af;"/></g><g id="Relationship"><path id="Relationship1" serif:id="Relationship" d="M18.596,18.472C17.687,19.414 16.411,20 15,20C12.24,20 10,17.76 10,15C10,12.24 12.24,10 15,10C17.76,10 20,12.24 20,15C20,15.269 19.979,15.532 19.938,15.789L31.404,21.515C32.313,20.573 33.589,19.987 35,19.987C37.76,19.987 40,22.228 40,24.987C40,27.747 37.76,29.987 35,29.987C33.591,29.987 32.317,29.403 31.407,28.464L19.937,34.206C19.979,34.465 20,34.73 20,35C20,37.76 17.76,40 15,40C12.24,40 10,37.76 10,35C10,32.24 12.24,30 15,30C16.409,30 17.683,30.584 18.593,31.524L30.063,25.782C30.021,25.523 30,25.258 30,24.987C30,24.719 30.021,24.455 30.062,24.198L18.596,18.472Z" style="fill:#f1de7f;"/></g></g></svg>