<?xml version="1.0" encoding="UTF-8" standalone="no"?><!DOCTYPE svg PUBLIC "-//W3C//DTD SVG 1.1//EN" "http://www.w3.org/Graphics/SVG/1.1/DTD/svg11.dtd"><svg width="100%" height="100%" viewBox="0 0 50 50" version="1.1" xmlns="http://www.w3.org/2000/svg" xmlns:xlink="http://www.w3.org/1999/xlink" xml:space="preserve" xmlns:serif="http://www.serif.com/" style="fill-rule:evenodd;clip-rule:evenodd;stroke-linejoin:round;stroke-miterlimit:2;"><rect id="focus-knowledge" x="0" y="0" width="50" height="50" style="fill:none;"/><g id="focus-knowledge1" serif:id="focus-knowledge"><g id="Focus-Frame" serif:id="Focus Frame"><path d="M25,1L45.785,13L45.785,37L25,49L4.215,37L4.215,13L25,1Z" style="fill:#10273d;"/><path d="M25,0L46.651,12.5L46.651,37.5L25,50L3.349,37.5L3.349,12.5L25,0ZM25,2.309L44.651,13.655C44.651,13.655 44.651,36.345 44.651,36.345C44.651,36.345 25,47.691 25,47.691C25,47.691 5.349,36.345 5.349,36.345C5.349,36.345 5.349,13.655 5.349,13.655L25,2.309Z" style="fill:#0077af;"/></g><g id="Knowledge"><path id="Knowledge1" serif:id="Knowledge" d="M27,33.578L14.135,33.578L14.135,40.011L27,40.011L27,33.578ZM14.135,32.72L14.135,30.147C14.135,27.305 16.439,25.001 19.281,25.001C24.334,25.001 31.288,25.001 31.288,25.001L31.288,28.432L28.715,28.432C28.26,28.432 27.824,28.613 27.502,28.935C27.181,29.256 27,29.693 27,30.147L27,32.72L14.135,32.72ZM39.865,25.001L32.146,25.001L32.146,28.432L39.865,28.432L39.865,25.001ZM14.135,15.567L14.135,18.14C14.135,20.982 16.439,23.286 19.281,23.286C24.334,23.286 31.288,23.286 31.288,23.286L31.288,19.856L28.715,19.856C28.26,19.856 27.824,19.675 27.502,19.353C27.181,19.031 27,18.595 27,18.14L27,15.567L14.135,15.567ZM39.865,19.856L32.146,19.856L32.146,23.286L39.865,23.286L39.865,19.856ZM27,10.011L14.135,10.011L14.135,14.71L27,14.71L27,10.011Z" style="fill:#f1de7f;"/></g></g></svg>