<?xml version="1.0" encoding="UTF-8" standalone="no"?><!DOCTYPE svg PUBLIC "-//W3C//DTD SVG 1.1//EN" "http://www.w3.org/Graphics/SVG/1.1/DTD/svg11.dtd"><svg width="100%" height="100%" viewBox="0 0 50 50" version="1.1" xmlns="http://www.w3.org/2000/svg" xmlns:xlink="http://www.w3.org/1999/xlink" xml:space="preserve" xmlns:serif="http://www.serif.com/" style="fill-rule:evenodd;clip-rule:evenodd;stroke-linejoin:round;stroke-miterlimit:2;"><rect id="focus-presense" x="0" y="0" width="50" height="50" style="fill:none;"/><g id="focus-presense1" serif:id="focus-presense"><g id="Focus-Frame" serif:id="Focus Frame"><path d="M25,1L45.785,13L45.785,37L25,49L4.215,37L4.215,13L25,1Z" style="fill:#10273d;"/><path d="M25,0L46.651,12.5L46.651,37.5L25,50L3.349,37.5L3.349,12.5L25,0ZM25,2.309L44.651,13.655C44.651,13.655 44.651,36.345 44.651,36.345C44.651,36.345 25,47.691 25,47.691C25,47.691 5.349,36.345 5.349,36.345C5.349,36.345 5.349,13.655 5.349,13.655L25,2.309Z" style="fill:#0077af;"/></g><g id="Presence"><path id="Presence1" serif:id="Presence" d="M25,26C21.689,26 19,23.311 19,20C19,16.689 21.689,14 25,14C28.311,14 31,16.689 31,20C31,23.311 28.311,26 25,26C29.971,26 34,33.163 34,42L16,42C16,33.163 20.029,26 25,26ZM31.428,24.866L34.892,26.866L35.892,25.134L32.428,23.134L31.428,24.866ZM17.572,23.134L14.108,25.134L15.108,26.866L18.572,24.866L17.572,23.134ZM33,21L37,21L37,19L33,19L33,21ZM17,19L13,19L13,21L17,21L17,19ZM18.572,15.134L15.108,13.134L14.108,14.866L17.572,16.866L18.572,15.134ZM32.428,16.866L35.892,14.866L34.892,13.134L31.428,15.134L32.428,16.866ZM21.866,12.572L19.866,9.108L18.134,10.108L20.134,13.572L21.866,12.572ZM29.866,13.572L31.866,10.108L30.134,9.108L28.134,12.572L29.866,13.572ZM26,12L26,8L24,8L24,12L26,12Z" style="fill:#f1de7f;"/></g></g></svg>