<?xml version="1.0" encoding="UTF-8" standalone="no"?><!DOCTYPE svg PUBLIC "-//W3C//DTD SVG 1.1//EN" "http://www.w3.org/Graphics/SVG/1.1/DTD/svg11.dtd"><svg width="100%" height="100%" viewBox="0 0 50 50" version="1.1" xmlns="http://www.w3.org/2000/svg" xmlns:xlink="http://www.w3.org/1999/xlink" xml:space="preserve" xmlns:serif="http://www.serif.com/" style="fill-rule:evenodd;clip-rule:evenodd;stroke-linejoin:round;stroke-miterlimit:2;"><rect id="focus-security" x="0" y="0" width="50" height="50" style="fill:none;"/><g id="focus-security1" serif:id="focus-security"><g id="Focus-Frame" serif:id="Focus Frame"><path d="M25,1L45.785,13L45.785,37L25,49L4.215,37L4.215,13L25,1Z" style="fill:#10273d;"/><path d="M25,0L46.651,12.5L46.651,37.5L25,50L3.349,37.5L3.349,12.5L25,0ZM25,2.309L44.651,13.655C44.651,13.655 44.651,36.345 44.651,36.345C44.651,36.345 25,47.691 25,47.691C25,47.691 5.349,36.345 5.349,36.345C5.349,36.345 5.349,13.655 5.349,13.655L25,2.309Z" style="fill:#0077af;"/></g><g id="Security"><path id="Security1" serif:id="Security" d="M24,9.033C15.972,9.536 9.542,15.971 9.046,24L7.5,24L7.5,26L9.046,26C9.543,34.031 15.973,40.465 24,40.968L24,42.5L26,42.5L26,40.97C34.041,40.481 40.487,34.04 40.984,26L42.5,26L42.5,24L40.983,24C40.487,15.961 34.042,9.521 26,9.031L26,7.5L24,7.5L24,9.033ZM38.979,26C38.489,32.935 32.938,38.482 26,38.966L26,36.959C31.827,36.477 36.477,31.826 36.958,26L38.979,26ZM13.042,26C13.523,31.827 18.175,36.478 24,36.959L24,38.964C17.076,38.466 11.54,32.925 11.05,26L13.042,26ZM24,32.434C20.66,31.988 18.012,29.34 17.566,26L24,26L24,32.434ZM32.433,26C31.988,29.34 29.34,31.988 26,32.434L26,26L32.433,26ZM24,11.037L24,17.567C20.66,18.012 18.013,20.66 17.566,24L11.05,24C11.54,17.076 17.076,11.534 24,11.037ZM26,11.035C32.937,11.518 38.489,17.065 38.979,24L32.434,24C31.987,20.66 29.34,18.012 26,17.567L26,11.035Z" style="fill:#f5d63d;"/></g></g></svg>