<?xml version="1.0" encoding="UTF-8" standalone="no"?><!DOCTYPE svg PUBLIC "-//W3C//DTD SVG 1.1//EN" "http://www.w3.org/Graphics/SVG/1.1/DTD/svg11.dtd"><svg width="100%" height="100%" viewBox="0 0 50 50" version="1.1" xmlns="http://www.w3.org/2000/svg" xmlns:xlink="http://www.w3.org/1999/xlink" xml:space="preserve" xmlns:serif="http://www.serif.com/" style="fill-rule:evenodd;clip-rule:evenodd;stroke-linejoin:round;stroke-miterlimit:2;"><rect id="focus-klingon" x="0" y="0" width="50" height="50" style="fill:none;"/><g id="focus-klingon1" serif:id="focus-klingon"><g id="Focus-Frame" serif:id="Focus Frame"><path d="M25,1L45.785,13L45.785,37L25,49L4.215,37L4.215,13L25,1Z" style="fill:#10273d;"/><path d="M25,0L46.651,12.5L46.651,37.5L25,50L3.349,37.5L3.349,12.5L25,0ZM25,2.309L44.651,13.655C44.651,13.655 44.651,36.345 44.651,36.345C44.651,36.345 25,47.691 25,47.691C25,47.691 5.349,36.345 5.349,36.345C5.349,36.345 5.349,13.655 5.349,13.655L25,2.309Z" style="fill:#0077af;"/></g><g id="Klingon"><path id="Klingon1" serif:id="Klingon" d="M22.846,20.056C24.126,13.336 25.047,4.5 25.047,4.5C25.047,4.5 25.973,13.303 27.257,20.01C31.588,20.972 34.828,24.837 34.828,29.459C34.828,30.296 34.722,31.108 34.522,31.883C37.372,33.128 40.262,33.18 40.262,33.18C40.262,33.18 36.39,35.898 31.88,36.413C30.139,38.1 27.765,39.138 25.149,39.138C22.259,39.138 19.665,37.871 17.892,35.863C14.768,37.216 12.81,39.611 12.801,39.496C12.413,34.834 13.889,32.612 15.638,31.26C15.528,30.677 15.47,30.074 15.47,29.459C15.47,24.907 18.612,21.09 22.846,20.056ZM27.428,20.881C28.042,23.92 28.728,26.397 29.429,27.202L25.067,34.239L20.685,27.228C21.383,26.426 22.064,23.962 22.674,20.935C18.981,22.01 16.274,25.424 16.274,29.459C16.274,29.897 16.306,30.328 16.368,30.749C17.92,29.76 19.512,29.262 20.109,28.237L24.718,35.348C22.482,34.703 20.438,34.941 18.698,35.548C20.317,37.262 22.61,38.334 25.149,38.334C27.18,38.334 29.054,37.648 30.551,36.496C28.877,36.511 27.161,36.171 25.559,35.24L30.072,28.117C30.969,29.695 32.336,30.781 33.78,31.53C33.94,30.865 34.024,30.172 34.024,29.459C34.024,25.353 31.221,21.889 27.428,20.881Z" style="fill:#d23a2d;fill-rule:nonzero;"/></g></g></svg>