<svg xmlns="http://www.w3.org/2000/svg" xml:space="preserve" style="fill-rule:evenodd;clip-rule:evenodd;stroke-linejoin:round;stroke-miterlimit:2" viewBox="0 0 50 50"><path d="M0 0h50v50H0z" style="fill:none"/><path d="m25 1 20.785 12v24L25 49 4.215 37V13z" style="fill:#10273d"/><path d="m25 0 21.651 12.5v25L25 50 3.349 37.5v-25zm0 2.309 19.651 11.346v22.69L25 47.691 5.349 36.345v-22.69z" style="fill:#0077af"/><path d="M17.768 36.223q1.432-2.728 2.593-4.162 1.5-1.842 2.729-1.773 1.773.068 3.275 4.093 1.023 2.729 1.91 7.096A5.7 5.7 0 0 1 25 42.5q-2.183 0-4.059-1.672t-3.173-4.605m-1.637-4.98q-.614-3.548-.614-6.209 0-4.776 1.296-8.801t3.479-6.379T25.034 7.5t4.742 2.354 3.445 6.379 1.262 8.801q0 5.322-1.637 9.756-1.501 4.23-4.094 6.345a731 731 0 0 0-.75-6.14q-.75-5.663-1.092-8.733-.613-5.117-1.569-8.801-1.365-5.049-2.865-5.049-2.867 0-6.345 18.831" style="fill:#f1de7f;fill-rule:nonzero"/></svg>