<?xml version="1.0" encoding="UTF-8" standalone="no"?><!DOCTYPE svg PUBLIC "-//W3C//DTD SVG 1.1//EN" "http://www.w3.org/Graphics/SVG/1.1/DTD/svg11.dtd"><svg width="100%" height="100%" viewBox="0 0 50 50" version="1.1" xmlns="http://www.w3.org/2000/svg" xmlns:xlink="http://www.w3.org/1999/xlink" xml:space="preserve" xmlns:serif="http://www.serif.com/" style="fill-rule:evenodd;clip-rule:evenodd;stroke-linejoin:round;stroke-miterlimit:2;"><rect id="focus-operations" x="0" y="0" width="50" height="50" style="fill:none;"/><g id="focus-operations1" serif:id="focus-operations"><g id="Focus-Frame" serif:id="Focus Frame"><path d="M25,1L45.785,13L45.785,37L25,49L4.215,37L4.215,13L25,1Z" style="fill:#10273d;"/><path d="M25,0L46.651,12.5L46.651,37.5L25,50L3.349,37.5L3.349,12.5L25,0ZM25,2.309L44.651,13.655C44.651,13.655 44.651,36.345 44.651,36.345C44.651,36.345 25,47.691 25,47.691C25,47.691 5.349,36.345 5.349,36.345C5.349,36.345 5.349,13.655 5.349,13.655L25,2.309Z" style="fill:#0077af;"/></g><g id="Operations"><path id="Operations1" serif:id="Operations" d="M35.63,38.808C35.63,38.808 23.544,35.375 17.756,29.33C11.967,23.287 14.465,16.537 17.017,14.065C20.648,10.547 27.231,8.448 31.998,14.689C36.291,20.31 32.507,27.92 27.004,26.608C23.201,25.698 22.097,22.378 22.097,22.378L21.046,22.805L25.131,30.04L34.496,28.451L35.376,13.299L24.905,7L11.37,14.916L13.214,33.02L35.63,40L35.63,38.808Z" style="fill:#f5d63d;fill-rule:nonzero;"/></g></g></svg>