<svg xmlns="http://www.w3.org/2000/svg" xml:space="preserve" style="fill-rule:evenodd;clip-rule:evenodd;stroke-linejoin:round;stroke-miterlimit:2" viewBox="0 0 50 50"><path d="M0 0h50v50H0z" style="fill:none"/><path d="m25 1 20.785 12v24L25 49 4.215 37V13z" style="fill:#10273d"/><path d="m25 0 21.651 12.5v25L25 50 3.349 37.5v-25zm0 2.309 19.651 11.346v22.69L25 47.691 5.349 36.345v-22.69z" style="fill:#0077af"/><path d="M35.63 38.808s-12.086-3.433-17.874-9.478c-5.789-6.043-3.291-12.793-.739-15.265 3.631-3.518 10.214-5.617 14.981.624 4.293 5.621.509 13.231-4.994 11.919-3.803-.91-4.907-4.23-4.907-4.23l-1.051.427 4.085 7.235 9.365-1.589.88-15.152L24.905 7 11.37 14.916l1.844 18.104L35.63 40z" style="fill:#f5d63d;fill-rule:nonzero"/></svg>