<?xml version="1.0" encoding="UTF-8" standalone="no"?><!DOCTYPE svg PUBLIC "-//W3C//DTD SVG 1.1//EN" "http://www.w3.org/Graphics/SVG/1.1/DTD/svg11.dtd"><svg width="100%" height="100%" viewBox="0 0 50 50" version="1.1" xmlns="http://www.w3.org/2000/svg" xmlns:xlink="http://www.w3.org/1999/xlink" xml:space="preserve" xmlns:serif="http://www.serif.com/" style="fill-rule:evenodd;clip-rule:evenodd;stroke-linejoin:round;stroke-miterlimit:2;"><rect id="focus-aspiration" x="0" y="0" width="50" height="50" style="fill:none;"/><g id="focus-aspiration1" serif:id="focus-aspiration"><g id="Focus-Frame" serif:id="Focus Frame"><path d="M25,1L45.785,13L45.785,37L25,49L4.215,37L4.215,13L25,1Z" style="fill:#10273d;"/><path d="M25,0L46.651,12.5L46.651,37.5L25,50L3.349,37.5L3.349,12.5L25,0ZM25,2.309L44.651,13.655C44.651,13.655 44.651,36.345 44.651,36.345C44.651,36.345 25,47.691 25,47.691C25,47.691 5.349,36.345 5.349,36.345C5.349,36.345 5.349,13.655 5.349,13.655L25,2.309Z" style="fill:#0077af;"/></g><g id="Aspiration"><path id="Aspiration1" serif:id="Aspiration" d="M34.894,18.718L32.916,17.524C32.881,17.502 32.857,17.45 32.857,17.392C32.857,17.334 32.881,17.282 32.916,17.261L35.772,15.537C35.867,15.48 35.952,15.395 36.025,15.286C36.097,15.178 36.154,15.049 36.192,14.907L37.341,10.624C37.355,10.57 37.39,10.535 37.429,10.535C37.467,10.535 37.502,10.57 37.516,10.624L38.665,14.907C38.703,15.049 38.76,15.178 38.832,15.286C38.905,15.395 38.991,15.48 39.085,15.537L41.941,17.261C41.977,17.282 42,17.334 42,17.392C42,17.45 41.977,17.502 41.941,17.524L39.085,19.248C38.991,19.305 38.905,19.39 38.832,19.498C38.76,19.606 38.703,19.735 38.665,19.877L37.516,24.16C37.502,24.214 37.467,24.249 37.429,24.249C37.39,24.249 37.355,24.214 37.341,24.16L36.447,20.83C34.819,24.41 31.384,30.345 27.828,35.485C27.772,35.566 27.677,35.703 27.542,35.624C27.511,35.606 27.486,35.591 27.473,35.566C27.419,35.462 27.557,35.174 28.256,33.719C28.905,32.366 29.793,30.514 30.464,28.91C31.47,26.504 31.397,26.025 31.35,25.936C31.345,25.925 31.339,25.92 31.336,25.918C31.336,25.918 31.324,25.912 31.288,25.921C26.72,26.971 15.988,33.827 11.948,36.408C10.182,37.535 10.182,37.535 10.079,37.41L10,37.29L10.096,37.191C12.18,35.023 28.495,22.679 34.894,18.718Z" style="fill:#f1de7f;fill-rule:nonzero;"/></g></g></svg>