<?xml version="1.0" encoding="UTF-8" standalone="no"?><!DOCTYPE svg PUBLIC "-//W3C//DTD SVG 1.1//EN" "http://www.w3.org/Graphics/SVG/1.1/DTD/svg11.dtd"><svg width="100%" height="100%" viewBox="0 0 50 50" version="1.1" xmlns="http://www.w3.org/2000/svg" xmlns:xlink="http://www.w3.org/1999/xlink" xml:space="preserve" xmlns:serif="http://www.serif.com/" style="fill-rule:evenodd;clip-rule:evenodd;stroke-linejoin:round;stroke-miterlimit:2;"><rect id="focus-computers" x="0" y="0" width="50" height="50" style="fill:none;"/><g id="focus-computers1" serif:id="focus-computers"><g id="Focus-Frame" serif:id="Focus Frame"><path d="M25,1L45.785,13L45.785,37L25,49L4.215,37L4.215,13L25,1Z" style="fill:#10273d;"/><path d="M25,0L46.651,12.5L46.651,37.5L25,50L3.349,37.5L3.349,12.5L25,0ZM25,2.309L44.651,13.655C44.651,13.655 44.651,36.345 44.651,36.345C44.651,36.345 25,47.691 25,47.691C25,47.691 5.349,36.345 5.349,36.345C5.349,36.345 5.349,13.655 5.349,13.655L25,2.309Z" style="fill:#0077af;"/></g><g id="Computers"><path id="Computers1" serif:id="Computers" d="M14.294,33.191C13.802,32.906 13.471,32.374 13.471,31.765C13.471,30.856 14.209,30.118 15.118,30.118C16.027,30.118 16.765,30.856 16.765,31.765C16.765,32.374 16.433,32.906 15.941,33.191L15.941,36.927C16.433,37.211 16.765,37.744 16.765,38.353C16.765,39.262 16.027,40 15.118,40C14.209,40 13.471,39.262 13.471,38.353C13.471,37.744 13.802,37.211 14.294,36.927L14.294,33.191ZM16.765,15.073C16.273,14.789 15.941,14.256 15.941,13.647C15.941,12.738 16.679,12 17.588,12C18.497,12 19.235,12.738 19.235,13.647C19.235,14.256 18.904,14.789 18.412,15.073L18.412,21.541L25,28.129L25,40L18.412,40L18.412,36.706L20.059,36.706L20.059,31.282L11.824,23.047L11.824,15.073C11.331,14.789 11,14.256 11,13.647C11,12.738 11.738,12 12.647,12C13.556,12 14.294,12.738 14.294,13.647C14.294,14.256 13.963,14.789 13.471,15.073L13.471,22.365L21.706,30.6L21.706,36.706L23.353,36.706L23.353,28.812L16.765,22.223L16.765,15.073ZM25.427,25.121C25.29,25.157 25.147,25.176 25,25.176C24.091,25.176 23.353,24.438 23.353,23.529C23.353,22.62 24.091,21.882 25,21.882C25.909,21.882 26.647,22.62 26.647,23.529C26.647,23.677 26.628,23.82 26.591,23.956L28.294,25.659C28.294,25.659 28.294,35.882 28.294,35.882L35.927,35.882C36.211,35.39 36.744,35.059 37.353,35.059C38.262,35.059 39,35.797 39,36.706C39,37.615 38.262,38.353 37.353,38.353C36.744,38.353 36.211,38.022 35.927,37.529L26.647,37.529C26.647,37.529 26.647,26.341 26.647,26.341L25.427,25.121ZM35.706,12.824L35.706,12L39,12L39,20.235L36.871,20.235L31.588,25.518C31.588,25.518 31.588,30.941 31.588,30.941L35.927,30.941C36.211,30.449 36.744,30.118 37.353,30.118C38.262,30.118 39,30.856 39,31.765C39,32.674 38.262,33.412 37.353,33.412C36.744,33.412 36.211,33.08 35.927,32.588L29.941,32.588L29.941,24.835L35.706,19.071L35.706,14.471L33.576,14.471L28.635,19.412L24.779,19.412C24.494,19.904 23.962,20.235 23.353,20.235C22.444,20.235 21.706,19.497 21.706,18.588C21.706,17.679 22.444,16.941 23.353,16.941C23.962,16.941 24.494,17.273 24.779,17.765L27.953,17.765L31.247,14.471L24.779,14.471C24.494,14.963 23.962,15.294 23.353,15.294C22.444,15.294 21.706,14.556 21.706,13.647C21.706,12.738 22.444,12 23.353,12C23.962,12 24.494,12.331 24.779,12.824L35.706,12.824Z" style="fill:#f1de7f;"/></g></g></svg>