<svg xmlns="http://www.w3.org/2000/svg" xml:space="preserve" style="fill-rule:evenodd;clip-rule:evenodd;stroke-linejoin:round;stroke-miterlimit:2" viewBox="0 0 50 50"><path d="M0 0h50v50H0z" style="fill:none"/><path d="m25 1 20.785 12v24L25 49 4.215 37V13z" style="fill:#10273d"/><path d="m25 0 21.651 12.5v25L25 50 3.349 37.5v-25zm0 2.309 19.651 11.346v22.69L25 47.691 5.349 36.345v-22.69z" style="fill:#0077af"/><path d="M30.439 29.756c.082.328.247.631.479.879A7.9 7.9 0 0 1 33 36c0 4.415-3.585 8-8 8s-8-3.585-8-8a7.97 7.97 0 0 1 2.075-5.373c.23-.246.393-.547.475-.874.084-.29.178-.666.261-.996a1 1 0 0 1 .97-.757h8.438a1 1 0 0 1 .97.757zM20.542 27h.508l3.282-3.281-.755-.755V14h-5v11.036zm1.922 0 4.036-4.036V14h5v11.036L29.536 27zm-6.453-16L18 13h14l2.011-2L32 8H18z" style="fill:#f1de7f"/></svg>