<svg xmlns="http://www.w3.org/2000/svg" xml:space="preserve" style="fill-rule:evenodd;clip-rule:evenodd;stroke-linejoin:round;stroke-miterlimit:2" viewBox="0 0 50 50"><path d="M0 0h50v50H0z" style="fill:none"/><path d="m25 1 20.785 12v24L25 49 4.215 37V13z" style="fill:#10273d"/><path d="m25 0 21.651 12.5v25L25 50 3.349 37.5v-25zm0 2.309 19.651 11.346v22.69L25 47.691 5.349 36.345v-22.69z" style="fill:#0077af"/><path d="m13.624 12.917-.291.194L11 11.556 13.333 10l2.334 1.556-1.274.849L39 32.123v1.176L14.361 12.426l-.059.039L39 35.649V38h-1.41L14.219 12.521l-.033.022L36.179 38h-2.256L14.131 12.58l-.06.039L31.667 38h-1.693L14.023 12.651l-.034.023L28.846 38h-1.692L13.936 12.709l-.056.038L25.462 38h-1.693l-9.95-25.213-.087.058L21.513 38h-2.539z" style="fill:#f1de7f"/></svg>