<svg xmlns="http://www.w3.org/2000/svg" xml:space="preserve" style="fill-rule:evenodd;clip-rule:evenodd;stroke-linejoin:round;stroke-miterlimit:2" viewBox="0 0 50 50"><path d="M0 0h50v50H0z" style="fill:none"/><path d="m25 1 20.785 12v24L25 49 4.215 37V13z" style="fill:#10273d"/><path d="m25 0 21.651 12.5v25L25 50 3.349 37.5v-25zm0 2.309 19.651 11.346v22.69L25 47.691 5.349 36.345v-22.69z" style="fill:#0077af"/><path d="m34.894 18.718-1.978-1.194c-.035-.022-.059-.074-.059-.132s.024-.11.059-.131l2.856-1.724a.8.8 0 0 0 .253-.251q.109-.164.167-.379l1.149-4.283c.014-.054.049-.089.088-.089s.073.035.087.089l1.149 4.283c.038.142.095.271.167.379a.8.8 0 0 0 .253.251l2.856 1.724c.036.021.059.073.059.131s-.023.11-.059.132l-2.856 1.724a.8.8 0 0 0-.253.25 1.3 1.3 0 0 0-.167.379l-1.149 4.283c-.014.054-.049.089-.087.089-.039 0-.074-.035-.088-.089l-.894-3.33c-1.628 3.58-5.063 9.515-8.619 14.655-.056.081-.151.218-.286.139-.031-.018-.056-.033-.069-.058-.054-.104.084-.392.783-1.847.649-1.353 1.537-3.205 2.208-4.809 1.006-2.406.933-2.885.886-2.974a.04.04 0 0 0-.014-.018s-.012-.006-.048.003c-4.568 1.05-15.3 7.906-19.34 10.487-1.766 1.127-1.766 1.127-1.869 1.002L10 37.29l.096-.099c2.084-2.168 18.399-14.512 24.798-18.473" style="fill:#f1de7f;fill-rule:nonzero"/></svg>