<svg xmlns="http://www.w3.org/2000/svg" xml:space="preserve" style="fill-rule:evenodd;clip-rule:evenodd;stroke-linejoin:round;stroke-miterlimit:2" viewBox="0 0 50 50"><path d="M0 0h50v50H0z" style="fill:none"/><path d="m25 1 20.785 12v24L25 49 4.215 37V13z" style="fill:#10273d"/><path d="m25 0 21.651 12.5v25L25 50 3.349 37.5v-25zm0 2.309 19.651 11.346v22.69L25 47.691 5.349 36.345v-22.69z" style="fill:#0077af"/><path d="M24.435 39.597a.936.936 0 1 1 1.13 0l.078.624c3.489-.067 6.667-.668 8.728-1.399 0 2.586-4.199 4.685-9.371 4.685s-9.371-2.099-9.371-4.685c2.061.731 5.239 1.332 8.728 1.399zm-5.994-7.334q3.28 1.85 6.559 1.845t6.559-1.845c-4.373 4.945-8.745 5.031-13.118 0m-1.875-3.742q4.218 1.851 8.434 1.845c2.811-.002 5.622-.62 8.434-1.845-5.623 4.946-11.245 5.031-16.868 0m-1.874-3.748c3.436 1.235 6.872 1.847 10.308 1.845s6.872-.62 10.308-1.845c-6.872 4.946-13.744 5.031-20.616 0m-1.874-3.755c4.061 1.235 8.121 1.847 12.182 1.845q6.091-.006 12.182-1.845c-8.121 4.945-16.243 5.031-24.364 0m-1.874-3.755q7.028 1.85 14.056 1.845t14.056-1.845c-9.371 4.945-18.741 5.031-28.112 0M9.07 13.507A70 70 0 0 0 25 15.352q7.965-.005 15.93-1.845c-10.62 4.946-21.24 5.031-31.86 0" style="fill:#f1de7f"/></svg>