<svg xmlns="http://www.w3.org/2000/svg" xml:space="preserve" style="fill-rule:evenodd;clip-rule:evenodd;stroke-linejoin:round;stroke-miterlimit:2" viewBox="0 0 50 50"><path d="M0 0h50v50H0z" style="fill:none"/><path d="m25 1 20.785 12v24L25 49 4.215 37V13z" style="fill:#10273d"/><path d="m25 0 21.651 12.5v25L25 50 3.349 37.5v-25zm0 2.309 19.651 11.346v22.69L25 47.691 5.349 36.345v-22.69z" style="fill:#0077af"/><path d="M40.267 36.883 28.978 6.78l-1 .518A6.5 6.5 0 0 1 25 8.02a6.5 6.5 0 0 1-2.978-.722l-1-.518L9.733 36.883l.906.364A38.4 38.4 0 0 0 25 40.02a38.4 38.4 0 0 0 14.361-2.773zm-25.161-8.631A28.4 28.4 0 0 0 24 30.002v8.004a36.3 36.3 0 0 1-11.704-2.262zm19.788 0 2.81 7.492A36.3 36.3 0 0 1 26 38.006v-8.004a28.3 28.3 0 0 0 8.894-1.75m-3.512-9.365 2.81 7.492A26.4 26.4 0 0 1 26 28.001v-8.008a18.4 18.4 0 0 0 5.382-1.106m-12.764 0A18.4 18.4 0 0 0 24 19.993v8.008a26.4 26.4 0 0 1-8.192-1.622zm.702-1.873 2.81-7.492a8.4 8.4 0 0 0 1.87.439v8.029a16.4 16.4 0 0 1-4.68-.976m11.36 0a16.4 16.4 0 0 1-4.68.976V9.961a8.4 8.4 0 0 0 1.87-.439z" style="fill:#f1de7f"/></svg>