<svg xmlns="http://www.w3.org/2000/svg" xml:space="preserve" style="fill-rule:evenodd;clip-rule:evenodd;stroke-linejoin:round;stroke-miterlimit:2" viewBox="0 0 50 50"><path d="M0 0h50v50H0z" style="fill:none"/><path d="m25 1 20.785 12v24L25 49 4.215 37V13z" style="fill:#10273d"/><path d="m25 0 21.651 12.5v25L25 50 3.349 37.5v-25zm0 2.309 19.651 11.346v22.69L25 47.691 5.349 36.345v-22.69z" style="fill:#0077af"/><path d="M19.094 13.281 25 10l5.906 3.281-3.281 12.093 6.374-10.406 5.531 3.375-11.062 11.202 11.062-6.234.141 8.765Q32.218 40.138 25 39.998q-7.218.14-14.671-7.922l.141-8.765 11.062 6.234L10.47 18.343l5.531-3.375 6.374 10.406z" style="fill:#f2200d;fill-rule:nonzero"/></svg>