<?xml version="1.0" encoding="UTF-8" standalone="no"?><!DOCTYPE svg PUBLIC "-//W3C//DTD SVG 1.1//EN" "http://www.w3.org/Graphics/SVG/1.1/DTD/svg11.dtd"><svg width="100%" height="100%" viewBox="0 0 50 50" version="1.1" xmlns="http://www.w3.org/2000/svg" xmlns:xlink="http://www.w3.org/1999/xlink" xml:space="preserve" xmlns:serif="http://www.serif.com/" style="fill-rule:evenodd;clip-rule:evenodd;stroke-linejoin:round;stroke-miterlimit:2;"><rect id="focus-torpedo" x="0" y="0" width="50" height="50" style="fill:none;"/><g id="focus-torpedo1" serif:id="focus-torpedo"><g id="Focus-Frame" serif:id="Focus Frame"><path d="M25,1L45.785,13L45.785,37L25,49L4.215,37L4.215,13L25,1Z" style="fill:#10273d;"/><path d="M25,0L46.651,12.5L46.651,37.5L25,50L3.349,37.5L3.349,12.5L25,0ZM25,2.309L44.651,13.655C44.651,13.655 44.651,36.345 44.651,36.345C44.651,36.345 25,47.691 25,47.691C25,47.691 5.349,36.345 5.349,36.345C5.349,36.345 5.349,13.655 5.349,13.655L25,2.309Z" style="fill:#0077af;"/></g><g id="Torpedo"><path id="Torpedo1" serif:id="Torpedo" d="M29,41.443C28.678,41.628 28.344,41.79 28,41.928L28,39L26,39L26,42.441C25.682,42.48 25.36,42.5 25.036,42.5C25.012,42.5 24.988,42.5 24.964,42.5C24.64,42.5 24.318,42.48 24,42.441L24,39L22,39L22,41.928C21.656,41.79 21.322,41.628 21,41.443L21,38L29,38L29,41.443ZM17.014,15L24,15L24,22L17,22L17,34.536C17,36.648 17.839,38.674 19.333,40.167C19.545,40.379 19.768,40.578 20,40.764L20,37L30,37L30,40.764C30.232,40.578 30.455,40.379 30.667,40.167C32.161,38.674 33,36.648 33,34.536L33,22L26,22L26,15L32.986,15C32.873,13.057 32.051,11.216 30.667,9.833C29.174,8.339 27.148,7.5 25.036,7.5C25.012,7.5 24.988,7.5 24.964,7.5C22.852,7.5 20.826,8.339 19.333,9.833C17.949,11.216 17.127,13.057 17.014,15ZM24,23L19,23L19,36L24,36L24,23ZM31,23L26,23L26,36L31,36L31,23ZM23,29L23,35C23,35 20,35 20,35L20,29L23,29ZM30,29L30,35C30,35 27,35 27,35L27,29L30,29ZM20,28L20,27L23,27L23,28L20,28ZM27,28L27,27L30,27L30,28L27,28ZM30,26L27,26L27,24L30,24L30,26ZM23,26L20,26L20,24L23,24L23,26ZM33,16L33,21L27,21C27,21 27,16 27,16L33,16ZM17,16L23,16L23,21L17,21L17,16ZM19,17L18,17L18,20L19,20L19,17ZM32,17L31,17L31,20L32,20L32,17Z" style="fill:#f1de7f;"/></g></g></svg>