<svg xmlns="http://www.w3.org/2000/svg" xml:space="preserve" style="fill-rule:evenodd;clip-rule:evenodd;stroke-linejoin:round;stroke-miterlimit:2" viewBox="0 0 50 50"><path d="M0 0h50v50H0z" style="fill:none"/><path d="m25 1 20.785 12v24L25 49 4.215 37V13z" style="fill:#10273d"/><path d="m25 0 21.651 12.5v25L25 50 3.349 37.5v-25zm0 2.309 19.651 11.346v22.69L25 47.691 5.349 36.345v-22.69z" style="fill:#0077af"/><path d="M28.303 26.522c1.875-.082 8.02 13.453 7.993 12.882C35.726 27.66 26.345 4.499 25.082 4.5c-1.264.001-10.644 23.486-11.378 34.986-.032.495 9.854-12.757 14.599-12.964" style="fill:#b8d3e0"/></svg>