<?xml version="1.0" encoding="UTF-8" standalone="no"?>
<!DOCTYPE svg PUBLIC "-//W3C//DTD SVG 20010904//EN"
              "http://www.w3.org/TR/2001/REC-SVG-20010904/DTD/svg10.dtd">

<svg xmlns="http://www.w3.org/2000/svg"
     width="305.636mm" height="305.636mm"
     viewBox="0 0 1155 1155">
  <path id="Selection"
        fill="none" stroke="black" stroke-width="1"
        d="M 0.00,0.00
           C 0.00,0.00 1155.00,0.00 1155.00,0.00
             1155.00,0.00 1155.00,1155.00 1155.00,1155.00
             1155.00,1155.00 0.00,1155.00 0.00,1155.00
             0.00,1155.00 0.00,0.00 0.00,0.00 Z
           M 861.05,78.64
           C 853.46,83.15 858.71,90.72 863.94,89.16
             869.02,87.64 870.11,77.62 861.05,78.64 Z
           M 958.00,99.62
           C 951.11,103.29 953.38,105.66 949.59,111.00
             944.82,117.72 938.78,122.83 932.00,127.38
             928.16,129.96 922.38,132.02 921.33,137.00
             919.79,144.33 927.34,146.38 932.00,149.10
             936.01,151.45 939.74,154.53 942.82,158.00
             947.14,162.88 953.22,176.46 959.00,177.67
             967.03,179.34 967.16,171.55 969.57,167.00
             970.94,164.42 973.03,162.10 975.04,160.00
             977.18,157.75 980.48,154.40 983.00,152.69
             988.32,149.08 1000.46,145.49 998.67,137.00
             997.58,131.86 991.84,130.39 988.00,127.78
             983.87,124.97 976.61,118.96 973.72,115.00
             969.27,108.89 967.09,98.38 958.00,99.62 Z
           M 375.04,149.47
           C 365.88,153.32 371.28,163.69 377.96,162.24
             384.39,160.85 385.75,148.96 375.04,149.47 Z
           M 179.00,158.62
           C 172.11,162.29 174.38,164.66 170.59,170.00
             165.82,176.72 159.78,181.83 153.00,186.38
             149.16,188.96 143.38,191.02 142.33,196.00
             140.79,203.33 148.34,205.38 153.00,208.10
             157.01,210.45 160.74,213.53 163.82,217.00
             168.14,221.88 174.22,235.46 180.00,236.67
             188.03,238.34 188.16,230.55 190.57,226.00
             191.94,223.42 194.03,221.10 196.04,219.00
             198.18,216.75 201.48,213.40 204.00,211.69
             209.32,208.08 221.46,204.49 219.67,196.00
             218.58,190.86 212.84,189.39 209.00,186.78
             204.87,183.97 197.61,177.96 194.72,174.00
             190.27,167.89 188.09,157.38 179.00,158.62 Z
           M 395.21,160.73
           C 391.60,163.66 394.95,165.63 396.69,164.76
             398.21,164.00 399.30,160.91 395.21,160.73 Z
           M 542.00,182.00
           C 542.00,182.00 537.00,183.00 537.00,183.00
             537.00,183.00 537.00,185.00 537.00,185.00
             537.00,185.00 542.00,186.00 542.00,186.00
             542.00,186.00 542.00,182.00 542.00,182.00 Z
           M 708.04,196.71
           C 699.55,201.28 705.50,209.21 710.95,207.36
             716.20,205.57 716.69,196.40 708.04,196.71 Z
           M 749.00,252.00
           C 749.00,252.00 743.00,253.00 743.00,253.00
             743.00,253.00 749.00,252.00 749.00,252.00 Z
           M 1043.05,256.64
           C 1035.46,261.15 1040.71,268.72 1045.94,267.16
             1051.02,265.64 1052.11,255.62 1043.05,256.64 Z
           M 450.00,287.47
           C 437.33,292.37 444.45,306.91 454.00,304.55
             463.41,302.24 463.39,286.55 450.00,287.47 Z
           M 938.00,294.00
           C 929.80,300.02 927.96,309.26 923.21,318.00
             923.21,318.00 911.73,336.00 911.73,336.00
             911.73,336.00 896.57,361.99 896.57,361.99
             896.57,361.99 888.17,374.00 888.17,374.00
             884.44,380.72 879.31,394.54 872.00,397.74
             865.86,400.42 861.47,395.70 857.87,391.58
             849.29,381.72 846.04,375.72 843.04,363.00
             843.04,363.00 838.42,318.00 838.42,318.00
             837.68,312.55 839.02,307.67 836.00,303.00
             834.10,309.68 835.00,335.37 835.00,344.00
             835.00,344.00 831.00,342.00 831.00,342.00
             831.00,342.00 830.00,357.00 830.00,357.00
             830.00,357.00 824.00,334.00 824.00,334.00
             824.00,334.00 822.08,334.00 822.08,334.00
             822.08,334.00 822.08,349.00 822.08,349.00
             822.08,349.00 824.00,366.00 824.00,366.00
             824.00,366.00 824.00,387.00 824.00,387.00
             824.00,387.00 808.00,377.00 808.00,377.00
             808.00,377.00 810.08,387.00 810.08,387.00
             810.08,387.00 810.08,397.00 810.08,397.00
             810.51,400.59 811.64,404.45 810.08,407.98
             809.21,410.69 807.56,411.76 805.58,413.66
             801.54,417.53 799.88,419.71 794.01,416.85
             783.69,411.81 777.90,395.92 768.00,393.00
             768.00,393.00 781.00,419.00 781.00,419.00
             774.92,413.72 762.97,401.04 756.00,399.00
             757.24,404.02 758.59,405.23 762.00,409.00
             762.00,409.00 749.00,402.00 749.00,402.00
             749.00,402.00 763.00,423.00 763.00,423.00
             752.43,422.74 741.57,414.61 732.00,410.02
             732.00,410.02 707.99,398.84 707.99,398.84
             707.99,398.84 686.00,385.92 686.00,385.92
             686.00,385.92 680.00,383.30 680.00,383.30
             680.00,383.30 671.00,378.32 671.00,378.32
             667.12,376.51 666.16,376.58 662.00,374.10
             662.00,374.10 635.00,358.76 635.00,358.76
             630.24,356.34 627.44,354.03 622.00,355.00
             622.00,355.00 624.42,359.71 624.42,359.71
             624.42,359.71 649.04,378.51 649.04,378.51
             649.04,378.51 690.00,409.25 690.00,409.25
             690.00,409.25 716.00,430.00 716.00,430.00
             716.00,430.00 711.00,431.00 711.00,431.00
             711.00,431.00 711.00,433.00 711.00,433.00
             711.00,433.00 745.00,454.61 745.00,454.61
             747.95,456.82 753.75,461.86 753.06,466.00
             751.77,473.76 741.63,473.63 736.00,474.17
             736.00,474.17 727.00,475.00 727.00,475.00
             727.00,475.00 621.00,475.00 621.00,475.00
             621.00,475.00 591.00,475.00 591.00,475.00
             586.29,475.00 579.25,474.31 575.00,476.00
             575.00,476.00 591.00,479.12 591.00,479.12
             591.00,479.12 617.00,484.58 617.00,484.58
             617.00,484.58 642.00,488.61 642.00,488.61
             642.00,488.61 668.00,493.54 668.00,493.54
             668.00,493.54 682.00,495.46 682.00,495.46
             682.00,495.46 706.00,500.00 706.00,500.00
             706.00,500.00 706.00,502.00 706.00,502.00
             706.00,502.00 685.00,503.00 685.00,503.00
             686.45,507.14 687.85,506.92 692.00,507.00
             692.00,507.00 727.00,507.00 727.00,507.00
             722.27,511.42 716.07,511.20 710.00,512.19
             710.00,512.19 691.00,515.72 691.00,515.72
             685.28,516.43 674.98,517.46 670.00,520.00
             670.00,520.00 688.00,520.00 688.00,520.00
             688.00,520.00 709.00,519.00 709.00,519.00
             720.76,518.98 733.37,516.17 745.00,519.00
             745.00,519.00 741.00,525.00 741.00,525.00
             741.00,525.00 759.00,528.00 759.00,528.00
             755.24,532.35 753.37,534.24 748.00,536.65
             742.99,538.90 736.18,540.22 733.00,545.00
             746.72,544.88 748.89,539.01 759.00,541.00
             753.02,546.44 751.02,547.24 744.00,550.75
             739.88,552.82 736.59,553.46 735.00,558.00
             740.16,556.79 754.32,550.58 757.96,550.94
             762.94,551.44 764.22,557.91 763.86,562.00
             762.92,572.62 753.29,576.97 750.00,589.00
             750.00,589.00 759.00,586.00 759.00,586.00
             751.20,601.24 729.76,626.47 718.13,640.00
             712.57,646.47 700.30,657.84 699.00,666.00
             704.01,664.41 706.95,660.14 711.02,656.92
             711.02,656.92 734.28,635.31 734.28,635.31
             734.28,635.31 741.83,628.92 741.83,628.92
             746.97,623.83 755.39,614.76 763.00,615.00
             759.51,619.05 755.77,622.58 755.00,628.00
             761.94,624.58 766.00,616.49 774.00,613.65
             780.93,611.20 782.75,620.04 791.58,612.65
             791.58,612.65 806.00,600.22 806.00,600.22
             807.99,598.88 811.23,596.80 813.69,598.13
             816.63,599.71 815.50,603.40 814.92,605.91
             814.92,605.91 810.35,627.00 810.35,627.00
             810.35,627.00 789.00,718.00 789.00,718.00
             795.07,715.58 795.35,706.57 797.42,701.00
             797.42,701.00 811.57,659.00 811.57,659.00
             813.41,653.90 814.13,647.05 819.00,644.00
             819.00,644.00 818.00,655.00 818.00,655.00
             822.20,652.27 822.08,647.58 823.51,643.00
             825.86,635.45 830.34,618.92 834.00,613.00
             834.00,613.00 838.30,622.00 838.30,622.00
             838.30,622.00 841.00,653.00 841.00,653.00
             841.00,653.00 843.00,675.00 843.00,675.00
             843.00,675.00 843.00,788.00 843.00,788.00
             850.89,787.11 855.84,783.24 856.00,775.00
             856.00,775.00 856.00,731.00 856.00,731.00
             856.00,731.00 857.00,715.00 857.00,715.00
             857.00,715.00 857.00,693.00 857.00,693.00
             857.00,693.00 857.96,681.00 857.96,681.00
             857.96,681.00 857.96,664.00 857.96,664.00
             857.96,664.00 859.72,642.00 859.72,642.00
             860.11,638.67 859.67,635.10 861.31,632.05
             862.63,629.61 865.03,627.89 867.00,626.00
             867.00,626.00 876.12,660.00 876.12,660.00
             877.29,664.94 877.74,671.74 882.00,675.00
             882.00,675.00 879.00,631.00 879.00,631.00
             885.15,637.16 885.94,646.17 888.54,654.00
             888.54,654.00 892.10,662.00 892.10,662.00
             893.95,667.31 894.81,673.15 900.00,676.00
             900.00,676.00 892.79,636.00 892.79,636.00
             891.31,629.06 888.63,619.95 890.00,613.00
             890.00,613.00 892.00,613.00 892.00,613.00
             892.00,613.00 900.22,624.04 900.22,624.04
             900.22,624.04 911.03,641.91 911.03,641.91
             911.03,641.91 917.78,650.01 917.78,650.01
             917.78,650.01 934.06,675.00 934.06,675.00
             934.06,675.00 944.51,690.41 944.51,690.41
             944.51,690.41 948.00,692.00 948.00,692.00
             947.51,682.03 944.48,681.41 941.51,673.00
             941.51,673.00 934.22,652.00 934.22,652.00
             934.22,652.00 921.61,620.00 921.61,620.00
             919.42,612.32 914.38,607.60 916.00,599.00
             916.00,599.00 925.00,606.00 925.00,606.00
             925.00,606.00 923.00,598.00 923.00,598.00
             923.00,598.00 928.00,598.00 928.00,598.00
             929.59,603.28 931.77,604.70 937.00,606.00
             935.59,595.71 922.67,579.58 924.29,571.09
             926.44,559.83 942.66,561.70 950.57,563.49
             965.94,566.99 985.04,575.68 1000.00,581.86
             1006.70,584.63 1018.34,590.04 1025.00,591.00
             1023.37,586.17 1019.17,584.40 1015.00,581.81
             1007.93,577.42 1000.37,573.37 994.00,568.00
             1002.01,568.67 1018.30,574.91 1027.00,577.57
             1032.39,579.21 1038.80,580.08 1043.00,584.00
             1043.00,584.00 1049.00,583.00 1049.00,583.00
             1045.85,577.92 1029.98,572.08 1024.00,568.55
             1024.00,568.55 983.00,547.47 983.00,547.47
             976.40,544.07 969.58,540.87 964.02,535.82
             960.98,533.06 954.39,524.55 952.00,521.00
             952.00,521.00 970.00,519.00 970.00,519.00
             970.00,519.00 1016.00,519.00 1016.00,519.00
             1016.00,519.00 1037.00,518.00 1037.00,518.00
             1033.88,512.81 1026.47,513.50 1021.00,512.85
             1021.00,512.85 1005.00,511.82 1005.00,511.82
             1001.49,511.40 985.96,508.23 983.00,507.00
             990.52,507.00 1001.40,507.84 1008.00,504.00
             1001.78,501.12 995.74,502.00 989.00,502.00
             989.00,502.00 991.00,498.00 991.00,498.00
             991.00,498.00 967.00,496.00 967.00,496.00
             978.53,493.90 990.26,492.00 1002.00,492.00
             999.67,488.52 997.94,489.03 994.00,489.00
             994.00,489.00 959.00,489.00 959.00,489.00
             956.93,489.00 953.91,489.11 952.00,488.40
             947.59,486.76 944.01,481.36 947.02,476.96
             948.73,474.45 961.72,466.45 965.00,464.57
             965.00,464.57 997.00,448.83 997.00,448.83
             997.00,448.83 1033.00,431.26 1033.00,431.26
             1040.50,427.63 1054.24,424.50 1058.00,417.00
             1050.11,415.42 1036.95,423.48 1029.00,426.31
             1029.00,426.31 1006.00,434.05 1006.00,434.05
             1006.00,434.05 988.00,441.11 988.00,441.11
             988.00,441.11 979.00,443.70 979.00,443.70
             968.25,447.41 959.82,452.45 948.00,453.00
             948.00,453.00 957.21,440.00 957.21,440.00
             967.55,427.85 979.64,420.08 987.00,405.00
             980.62,406.73 980.04,409.02 975.00,412.32
             975.00,412.32 956.00,422.17 956.00,422.17
             954.21,423.02 946.55,428.06 945.53,424.63
             944.33,420.56 952.93,416.49 955.00,410.00
             955.00,410.00 935.00,421.00 935.00,421.00
             935.00,421.00 947.00,399.00 947.00,399.00
             939.63,400.83 939.04,404.06 933.82,408.65
             933.82,408.65 926.00,415.00 926.00,415.00
             926.00,415.00 925.00,414.00 925.00,414.00
             925.00,414.00 943.87,386.00 943.87,386.00
             947.35,381.12 951.51,378.32 951.00,372.00
             951.00,372.00 923.00,401.00 923.00,401.00
             923.00,401.00 940.72,369.00 940.72,369.00
             940.72,369.00 949.00,353.00 949.00,353.00
             941.94,355.12 936.97,364.58 932.00,370.00
             932.00,370.00 934.37,362.00 934.37,362.00
             934.37,362.00 936.24,353.00 936.24,353.00
             936.24,353.00 945.00,330.00 945.00,330.00
             938.88,329.24 938.47,332.64 935.08,336.91
             935.08,336.91 923.00,350.00 923.00,350.00
             923.51,338.98 930.56,322.47 934.86,312.00
             935.95,309.34 939.95,300.35 939.78,298.00
             939.63,296.07 938.89,295.48 938.00,294.00 Z
           M 245.11,389.61
           C 237.36,394.50 244.04,401.81 249.77,399.26
             254.08,397.34 254.60,388.03 245.11,389.61 Z
           M 122.02,422.51
           C 110.32,427.71 117.62,442.11 126.96,439.34
             134.03,437.23 134.31,428.17 130.57,424.43
             128.02,421.88 125.27,422.01 122.02,422.51 Z
           M 501.00,438.00
           C 497.63,438.18 497.73,438.10 496.00,441.00
             499.54,441.47 499.80,441.39 501.00,438.00 Z
           M 402.85,448.34
           C 399.28,449.93 400.60,452.77 402.17,453.09
             403.84,453.43 406.40,450.30 402.85,448.34 Z
           M 489.00,532.00
           C 485.63,532.18 485.73,532.10 484.00,535.00
             487.54,535.47 487.80,535.39 489.00,532.00 Z
           M 199.06,562.66
           C 191.46,567.10 196.69,574.72 201.94,573.16
             207.26,571.57 207.59,562.08 199.06,562.66 Z
           M 395.00,608.00
           C 386.80,614.02 384.96,623.26 380.21,632.00
             380.21,632.00 368.73,650.00 368.73,650.00
             368.73,650.00 353.57,675.99 353.57,675.99
             353.57,675.99 345.17,688.00 345.17,688.00
             341.44,694.72 336.31,708.54 329.00,711.74
             322.86,714.42 318.47,709.70 314.87,705.58
             306.29,695.72 303.04,689.72 300.04,677.00
             300.04,677.00 295.42,632.00 295.42,632.00
             294.68,626.55 296.02,621.67 293.00,617.00
             291.10,623.68 292.00,649.37 292.00,658.00
             292.00,658.00 288.00,656.00 288.00,656.00
             288.00,656.00 287.00,671.00 287.00,671.00
             287.00,671.00 281.00,648.00 281.00,648.00
             281.00,648.00 279.08,648.00 279.08,648.00
             279.08,648.00 279.08,663.00 279.08,663.00
             279.08,663.00 281.00,680.00 281.00,680.00
             281.00,680.00 281.00,701.00 281.00,701.00
             281.00,701.00 265.00,691.00 265.00,691.00
             265.00,691.00 267.08,701.00 267.08,701.00
             267.08,701.00 267.08,711.00 267.08,711.00
             267.51,714.59 268.64,718.45 267.08,721.98
             266.21,724.69 264.56,725.76 262.58,727.66
             258.54,731.53 256.88,733.71 251.01,730.85
             240.69,725.81 234.90,709.92 225.00,707.00
             225.00,707.00 238.00,733.00 238.00,733.00
             231.92,727.72 219.97,715.04 213.00,713.00
             214.24,718.02 215.59,719.23 219.00,723.00
             219.00,723.00 206.00,716.00 206.00,716.00
             206.00,716.00 220.00,737.00 220.00,737.00
             209.43,736.74 198.57,728.61 189.00,724.02
             189.00,724.02 164.99,712.84 164.99,712.84
             164.99,712.84 143.00,699.92 143.00,699.92
             143.00,699.92 137.00,697.30 137.00,697.30
             137.00,697.30 128.00,692.32 128.00,692.32
             124.12,690.51 123.16,690.58 119.00,688.10
             119.00,688.10 92.00,672.76 92.00,672.76
             87.24,670.34 84.44,668.03 79.00,669.00
             79.00,669.00 81.42,673.71 81.42,673.71
             81.42,673.71 106.04,692.51 106.04,692.51
             106.04,692.51 147.00,723.25 147.00,723.25
             147.00,723.25 173.00,744.00 173.00,744.00
             173.00,744.00 168.00,745.00 168.00,745.00
             168.00,745.00 168.00,747.00 168.00,747.00
             168.00,747.00 202.00,768.61 202.00,768.61
             204.95,770.82 210.75,775.86 210.06,780.00
             208.77,787.76 198.63,787.63 193.00,788.17
             193.00,788.17 184.00,789.00 184.00,789.00
             184.00,789.00 78.00,789.00 78.00,789.00
             78.00,789.00 48.00,789.00 48.00,789.00
             43.29,789.00 36.25,788.31 32.00,790.00
             32.00,790.00 48.00,793.12 48.00,793.12
             48.00,793.12 74.00,798.58 74.00,798.58
             74.00,798.58 99.00,802.61 99.00,802.61
             99.00,802.61 125.00,807.54 125.00,807.54
             125.00,807.54 139.00,809.46 139.00,809.46
             139.00,809.46 163.00,814.00 163.00,814.00
             163.00,814.00 163.00,816.00 163.00,816.00
             163.00,816.00 142.00,817.00 142.00,817.00
             143.45,821.14 144.85,820.92 149.00,821.00
             149.00,821.00 184.00,821.00 184.00,821.00
             179.27,825.42 173.07,825.20 167.00,826.19
             167.00,826.19 148.00,829.72 148.00,829.72
             142.28,830.43 131.98,831.46 127.00,834.00
             127.00,834.00 145.00,834.00 145.00,834.00
             145.00,834.00 166.00,833.00 166.00,833.00
             177.76,832.98 190.37,830.17 202.00,833.00
             202.00,833.00 198.00,839.00 198.00,839.00
             198.00,839.00 216.00,842.00 216.00,842.00
             212.24,846.35 210.37,848.24 205.00,850.65
             199.99,852.90 193.18,854.22 190.00,859.00
             203.72,858.88 205.89,853.01 216.00,855.00
             210.02,860.44 208.02,861.24 201.00,864.75
             196.88,866.82 193.59,867.46 192.00,872.00
             197.16,870.79 211.32,864.58 214.96,864.94
             219.94,865.44 221.22,871.91 220.86,876.00
             219.92,886.62 210.29,890.97 207.00,903.00
             207.00,903.00 216.00,900.00 216.00,900.00
             208.20,915.24 186.76,940.47 175.13,954.00
             169.57,960.47 157.30,971.84 156.00,980.00
             161.01,978.41 163.95,974.14 168.02,970.92
             168.02,970.92 191.28,949.31 191.28,949.31
             191.28,949.31 198.83,942.92 198.83,942.92
             203.97,937.83 212.39,928.76 220.00,929.00
             216.51,933.05 212.77,936.58 212.00,942.00
             218.94,938.58 223.00,930.49 231.00,927.65
             237.93,925.20 239.75,934.04 248.58,926.65
             248.58,926.65 263.00,914.22 263.00,914.22
             264.99,912.88 268.23,910.80 270.69,912.13
             273.63,913.71 272.50,917.40 271.92,919.91
             271.92,919.91 267.35,941.00 267.35,941.00
             267.35,941.00 246.00,1032.00 246.00,1032.00
             252.07,1029.58 252.35,1020.57 254.42,1015.00
             254.42,1015.00 268.57,973.00 268.57,973.00
             270.41,967.90 271.13,961.05 276.00,958.00
             276.00,958.00 275.00,969.00 275.00,969.00
             279.20,966.27 279.08,961.58 280.51,957.00
             282.86,949.45 287.34,932.92 291.00,927.00
             291.00,927.00 295.30,936.00 295.30,936.00
             295.30,936.00 298.00,967.00 298.00,967.00
             298.00,967.00 300.00,989.00 300.00,989.00
             300.00,989.00 300.00,1102.00 300.00,1102.00
             307.89,1101.11 312.84,1097.24 313.00,1089.00
             313.00,1089.00 313.00,1045.00 313.00,1045.00
             313.00,1045.00 314.00,1029.00 314.00,1029.00
             314.00,1029.00 314.00,1007.00 314.00,1007.00
             314.00,1007.00 314.96,995.00 314.96,995.00
             314.96,995.00 314.96,978.00 314.96,978.00
             314.96,978.00 316.72,956.00 316.72,956.00
             317.11,952.67 316.67,949.10 318.31,946.05
             319.63,943.61 322.03,941.89 324.00,940.00
             324.00,940.00 333.12,974.00 333.12,974.00
             334.29,978.94 334.74,985.74 339.00,989.00
             339.00,989.00 336.00,945.00 336.00,945.00
             342.15,951.16 342.94,960.17 345.54,968.00
             345.54,968.00 349.10,976.00 349.10,976.00
             350.95,981.31 351.81,987.15 357.00,990.00
             357.00,990.00 349.79,950.00 349.79,950.00
             348.31,943.06 345.63,933.95 347.00,927.00
             347.00,927.00 349.00,927.00 349.00,927.00
             349.00,927.00 357.22,938.04 357.22,938.04
             357.22,938.04 368.03,955.91 368.03,955.91
             368.03,955.91 374.78,964.01 374.78,964.01
             374.78,964.01 391.06,989.00 391.06,989.00
             391.06,989.00 401.51,1004.41 401.51,1004.41
             401.51,1004.41 405.00,1006.00 405.00,1006.00
             404.51,996.03 401.48,995.41 398.51,987.00
             398.51,987.00 391.22,966.00 391.22,966.00
             391.22,966.00 378.61,934.00 378.61,934.00
             376.42,926.32 371.38,921.60 373.00,913.00
             373.00,913.00 382.00,920.00 382.00,920.00
             382.00,920.00 380.00,912.00 380.00,912.00
             380.00,912.00 385.00,912.00 385.00,912.00
             386.59,917.28 388.77,918.70 394.00,920.00
             392.59,909.71 379.67,893.58 381.29,885.09
             383.44,873.83 399.66,875.70 407.57,877.49
             422.94,880.99 442.04,889.68 457.00,895.86
             463.70,898.63 475.34,904.04 482.00,905.00
             480.37,900.17 476.17,898.40 472.00,895.81
             464.93,891.42 457.37,887.37 451.00,882.00
             459.01,882.67 475.30,888.91 484.00,891.57
             489.39,893.21 495.80,894.08 500.00,898.00
             500.00,898.00 506.00,897.00 506.00,897.00
             502.85,891.92 486.98,886.08 481.00,882.55
             481.00,882.55 440.00,861.47 440.00,861.47
             433.40,858.07 426.58,854.87 421.02,849.82
             417.98,847.06 411.39,838.55 409.00,835.00
             409.00,835.00 427.00,833.00 427.00,833.00
             427.00,833.00 473.00,833.00 473.00,833.00
             473.00,833.00 494.00,832.00 494.00,832.00
             490.88,826.81 483.47,827.50 478.00,826.85
             478.00,826.85 462.00,825.82 462.00,825.82
             458.49,825.40 442.96,822.23 440.00,821.00
             447.52,821.00 458.40,821.84 465.00,818.00
             458.78,815.12 452.74,816.00 446.00,816.00
             446.00,816.00 448.00,812.00 448.00,812.00
             448.00,812.00 424.00,810.00 424.00,810.00
             435.53,807.90 447.26,806.00 459.00,806.00
             456.67,802.52 454.94,803.03 451.00,803.00
             451.00,803.00 416.00,803.00 416.00,803.00
             413.93,803.00 410.91,803.11 409.00,802.40
             404.59,800.76 401.01,795.36 404.02,790.96
             405.73,788.45 418.72,780.45 422.00,778.57
             422.00,778.57 454.00,762.83 454.00,762.83
             454.00,762.83 490.00,745.26 490.00,745.26
             497.50,741.63 511.24,738.50 515.00,731.00
             507.11,729.42 493.95,737.48 486.00,740.31
             486.00,740.31 463.00,748.05 463.00,748.05
             463.00,748.05 445.00,755.11 445.00,755.11
             445.00,755.11 436.00,757.70 436.00,757.70
             425.25,761.41 416.82,766.45 405.00,767.00
             405.00,767.00 414.21,754.00 414.21,754.00
             424.55,741.85 436.64,734.08 444.00,719.00
             437.62,720.73 437.04,723.02 432.00,726.32
             432.00,726.32 413.00,736.17 413.00,736.17
             411.21,737.02 403.55,742.06 402.53,738.63
             401.33,734.56 409.93,730.49 412.00,724.00
             412.00,724.00 392.00,735.00 392.00,735.00
             392.00,735.00 404.00,713.00 404.00,713.00
             396.63,714.83 396.04,718.06 390.82,722.65
             390.82,722.65 383.00,729.00 383.00,729.00
             383.00,729.00 382.00,728.00 382.00,728.00
             382.00,728.00 400.87,700.00 400.87,700.00
             404.35,695.12 408.51,692.32 408.00,686.00
             408.00,686.00 380.00,715.00 380.00,715.00
             380.00,715.00 397.72,683.00 397.72,683.00
             397.72,683.00 406.00,667.00 406.00,667.00
             398.94,669.12 393.97,678.58 389.00,684.00
             389.00,684.00 391.37,676.00 391.37,676.00
             391.37,676.00 393.24,667.00 393.24,667.00
             393.24,667.00 402.00,644.00 402.00,644.00
             395.88,643.24 395.47,646.64 392.08,650.91
             392.08,650.91 380.00,664.00 380.00,664.00
             380.51,652.98 387.56,636.47 391.86,626.00
             392.95,623.34 396.95,614.35 396.78,612.00
             396.63,610.07 395.89,609.48 395.00,608.00 Z
           M 653.05,608.64
           C 645.46,613.15 650.71,620.72 655.94,619.16
             661.02,617.64 662.11,607.62 653.05,608.64 Z
           M 1077.00,755.43
           C 1064.57,760.46 1071.79,774.53 1081.00,772.39
             1090.77,770.12 1090.55,753.79 1077.00,755.43 Z
           M 600.00,758.00
           C 595.89,760.43 596.51,762.22 601.00,763.00
             601.00,763.00 600.00,758.00 600.00,758.00 Z
           M 912.06,880.62
           C 904.27,885.33 910.56,892.31 915.94,890.38
             921.43,888.42 921.11,879.35 912.06,880.62 Z
           M 773.05,930.64
           C 765.46,935.15 770.71,942.72 775.94,941.16
             781.02,939.64 782.11,929.62 773.05,930.64 Z
           M 872.27,951.74
           C 869.11,954.36 872.22,955.74 873.73,955.26
             875.25,954.77 876.55,951.95 872.27,951.74 Z
           M 589.02,963.45
           C 587.51,964.08 586.82,964.03 585.60,965.43
             582.56,968.92 582.53,982.82 593.00,980.39
             602.74,978.12 602.60,962.07 589.02,963.45 Z
           M 534.00,1069.43
           C 521.57,1074.46 528.79,1088.53 538.00,1086.39
             547.77,1084.12 547.55,1067.79 534.00,1069.43 Z
           M 57.00,1072.00
           C 52.89,1074.43 53.51,1076.22 58.00,1077.00
             58.00,1077.00 57.00,1072.00 57.00,1072.00 Z
           M 586.26,1075.91
           C 582.94,1078.22 585.37,1080.37 586.98,1080.09
             588.66,1079.79 590.53,1076.91 586.26,1075.91 Z
           M 1016.04,1087.54
           C 1007.50,1090.88 1011.49,1100.75 1017.98,1099.63
             1024.18,1098.56 1025.32,1087.79 1016.04,1087.54 Z
           M 842.00,1095.43
           C 829.54,1100.47 837.29,1114.10 846.00,1112.11
             853.75,1110.32 854.49,1101.35 850.57,1097.43
             848.04,1094.90 845.25,1095.02 842.00,1095.43 Z" />
</svg>
