<?xml version="1.0" encoding="UTF-8" standalone="no"?>
<!DOCTYPE svg PUBLIC "-//W3C//DTD SVG 20010904//EN"
              "http://www.w3.org/TR/2001/REC-SVG-20010904/DTD/svg10.dtd">

<svg xmlns="http://www.w3.org/2000/svg"
     width="317.28mm" height="317.28mm"
     viewBox="0 0 1199 1199">
  <path id="Selection"
        fill="none" stroke="black" stroke-width="1"
        d="M 0.00,0.00
           C 0.00,0.00 1199.00,0.00 1199.00,0.00
             1199.00,0.00 1199.00,1199.00 1199.00,1199.00
             1199.00,1199.00 0.00,1199.00 0.00,1199.00
             0.00,1199.00 0.00,0.00 0.00,0.00 Z
           M 472.09,27.03
           C 467.82,29.23 469.80,32.37 472.09,32.37
             474.66,32.38 477.54,28.28 472.09,27.03 Z
           M 605.00,43.00
           C 599.80,47.82 595.60,55.96 591.66,62.00
             591.66,62.00 566.95,101.00 566.95,101.00
             536.81,149.14 509.15,199.22 483.75,250.00
             380.68,456.15 319.71,663.71 284.42,891.00
             275.19,950.45 268.15,1010.18 262.17,1070.00
             262.17,1070.00 257.17,1126.00 257.17,1126.00
             256.34,1134.71 257.00,1143.71 254.00,1152.00
             259.70,1149.17 260.40,1146.09 264.20,1141.42
             264.20,1141.42 281.71,1119.28 281.71,1119.28
             281.71,1119.28 318.54,1074.97 318.54,1074.97
             318.54,1074.97 341.44,1047.42 341.44,1047.42
             341.44,1047.42 421.59,958.17 421.59,958.17
             421.59,958.17 434.87,944.83 434.87,944.83
             434.87,944.83 441.30,937.42 441.30,937.42
             441.30,937.42 473.28,905.42 473.28,905.42
             473.28,905.42 485.96,893.92 485.96,893.92
             485.96,893.92 499.42,880.45 499.42,880.45
             499.42,880.45 506.00,874.95 506.00,874.95
             531.58,851.00 558.00,827.77 585.98,806.58
             585.98,806.58 635.96,771.26 635.96,771.26
             658.16,756.99 678.12,745.87 705.00,743.91
             705.00,743.91 712.00,743.18 712.00,743.18
             712.00,743.18 719.00,743.92 719.00,743.92
             771.93,748.15 814.44,795.62 842.33,837.00
             872.85,882.29 896.49,931.74 917.58,982.00
             917.58,982.00 938.58,1035.00 938.58,1035.00
             940.79,1040.88 945.97,1056.76 949.00,1061.00
             949.00,1061.00 936.42,990.00 936.42,990.00
             936.42,990.00 909.61,843.00 909.61,843.00
             871.27,638.46 825.67,458.33 736.22,269.00
             711.28,216.22 681.32,162.62 650.58,113.00
             650.58,113.00 621.67,68.00 621.67,68.00
             621.67,68.00 605.00,43.00 605.00,43.00 Z
           M 41.00,50.33
           C 21.77,55.09 25.20,81.12 42.00,82.80
             59.77,84.59 65.73,59.11 50.00,51.57
             46.81,50.04 44.40,50.03 41.00,50.33 Z
           M 222.09,50.91
           C 217.25,53.71 221.36,57.02 223.69,55.83
             225.78,54.76 226.12,51.77 222.09,50.91 Z
           M 746.17,67.91
           C 742.38,70.67 745.54,74.06 747.45,72.83
             749.12,71.76 749.37,68.76 746.17,67.91 Z
           M 1065.00,76.33
           C 1044.83,81.35 1051.94,109.52 1070.00,106.52
             1084.72,104.07 1086.12,87.44 1078.79,80.22
             1074.83,76.32 1070.24,75.79 1065.00,76.33 Z
           M 393.06,85.62
           C 385.06,90.45 390.67,99.42 396.94,97.22
             402.65,95.22 402.74,84.26 393.06,85.62 Z
           M 852.04,106.47
           C 843.24,110.17 847.48,121.19 854.98,119.53
             861.77,118.02 862.33,105.98 852.04,106.47 Z
           M 149.02,124.64
           C 139.21,130.01 146.61,139.38 152.96,137.22
             160.05,134.80 158.99,123.56 149.02,124.64 Z
           M 606.00,192.00
           C 608.95,196.01 608.87,204.87 609.58,210.00
             609.58,210.00 615.15,256.00 615.15,256.00
             615.15,256.00 632.85,400.00 632.85,400.00
             632.85,400.00 638.05,443.00 638.05,443.00
             638.46,446.70 639.91,461.39 641.31,463.78
             643.65,467.77 657.25,471.00 662.00,472.69
             662.00,472.69 703.00,486.67 703.00,486.67
             708.16,488.41 719.22,491.74 723.00,495.00
             723.00,495.00 677.00,519.31 677.00,519.31
             677.00,519.31 648.00,534.00 648.00,534.00
             648.00,534.00 654.28,588.00 654.28,588.00
             655.25,595.83 658.01,610.93 656.00,618.00
             651.02,613.65 641.38,595.75 637.56,589.00
             637.56,589.00 631.68,579.58 631.68,579.58
             631.68,579.58 607.00,537.00 607.00,537.00
             607.00,537.00 573.40,594.00 573.40,594.00
             573.40,594.00 555.00,623.00 555.00,623.00
             553.48,617.22 555.37,609.99 555.93,604.00
             555.93,604.00 561.15,558.00 561.15,558.00
             561.15,558.00 562.98,541.00 562.98,541.00
             563.25,538.92 563.86,536.11 562.98,534.21
             561.21,530.91 547.90,525.28 544.00,523.22
             544.00,523.22 509.00,505.25 509.00,505.25
             503.26,502.38 493.29,498.28 489.00,494.00
             489.00,494.00 547.00,474.00 547.00,474.00
             551.18,472.61 567.13,468.01 569.41,465.49
             571.86,462.78 572.73,449.25 573.28,445.00
             573.28,445.00 580.15,390.00 580.15,390.00
             580.15,390.00 596.85,258.00 596.85,258.00
             596.85,258.00 601.85,218.00 601.85,218.00
             602.74,210.52 603.55,198.72 606.00,192.00 Z
           M 250.00,194.60
           C 245.41,195.04 241.72,196.21 238.85,200.10
             232.23,209.12 238.72,221.95 250.00,221.97
             263.69,221.99 266.84,207.64 261.30,200.10
             258.49,196.27 254.50,195.03 250.00,194.60 Z
           M 394.26,197.74
           C 390.38,200.81 393.47,203.99 395.74,203.26
             397.78,202.60 399.24,197.99 394.26,197.74 Z
           M 848.00,232.00
           C 846.80,228.61 846.54,228.53 843.00,229.00
             844.73,231.90 844.63,231.82 848.00,232.00 Z
           M 1097.00,245.54
           C 1086.82,249.23 1091.57,260.15 1098.99,258.53
             1106.39,256.91 1107.03,245.80 1097.00,245.54 Z
           M 98.00,275.00
           C 98.00,275.00 93.00,274.00 93.00,274.00
             93.00,274.00 93.00,278.00 93.00,278.00
             93.00,278.00 98.00,277.00 98.00,277.00
             98.00,277.00 98.00,275.00 98.00,275.00 Z
           M 287.00,325.00
           C 284.10,326.73 284.18,326.63 284.00,330.00
             287.39,328.80 287.47,328.54 287.00,325.00 Z
           M 874.30,344.74
           C 870.34,347.90 874.40,351.00 876.69,349.83
             878.72,348.80 879.30,344.97 874.30,344.74 Z
           M 182.01,368.58
           C 171.87,371.30 176.04,383.28 183.98,381.53
             190.32,380.13 191.59,369.28 182.01,368.58 Z
           M 91.06,434.03
           C 86.87,436.23 88.78,439.37 91.06,439.37
             93.70,439.38 96.23,435.27 91.06,434.03 Z
           M 937.00,433.86
           C 932.31,435.47 934.81,439.37 937.00,439.37
             939.19,439.37 941.69,435.47 937.00,433.86 Z
           M 1126.06,448.64
           C 1118.18,452.93 1120.92,461.33 1126.06,462.53
             1135.39,464.69 1137.77,447.36 1126.06,448.64 Z
           M 268.00,496.00
           C 268.00,496.00 264.00,496.00 264.00,496.00
             264.00,496.00 265.00,501.00 265.00,501.00
             265.00,501.00 267.00,501.00 267.00,501.00
             267.00,501.00 268.00,496.00 268.00,496.00 Z
           M 1018.00,528.33
           C 1012.40,529.72 1008.75,532.20 1007.01,538.00
             1004.22,547.27 1012.28,557.16 1022.00,555.66
             1038.97,553.04 1038.30,526.53 1018.00,528.33 Z
           M 944.96,549.03
           C 939.87,550.27 942.55,554.38 944.96,554.37
             947.14,554.37 949.19,551.27 944.96,549.03 Z
           M 111.00,564.00
           C 115.49,563.22 116.11,561.43 112.00,559.00
             112.00,559.00 111.00,564.00 111.00,564.00 Z
           M 222.08,610.74
           C 219.11,611.87 218.54,614.51 221.30,615.84
             224.21,617.24 227.99,612.45 222.08,610.74 Z
           M 956.01,690.64
           C 946.39,693.85 951.10,704.01 957.98,702.64
             964.00,701.45 965.56,691.46 956.01,690.64 Z
           M 1067.00,708.00
           C 1067.00,708.00 1065.00,708.00 1065.00,708.00
             1065.00,708.00 1064.00,713.00 1064.00,713.00
             1067.39,711.80 1067.47,711.54 1067.00,708.00 Z
           M 139.00,709.39
           C 121.88,714.96 128.33,739.90 147.00,735.61
             157.21,733.26 159.89,719.90 152.47,712.53
             148.57,708.66 144.07,708.70 139.00,709.39 Z
           M 721.04,785.47
           C 712.24,789.17 716.48,800.19 723.98,798.53
             730.62,797.06 731.68,784.96 721.04,785.47 Z
           M 88.28,797.65
           C 84.37,801.01 88.43,803.27 90.57,802.37
             92.59,801.53 93.58,797.16 88.28,797.65 Z
           M 1141.99,807.91
           C 1131.17,809.13 1135.01,821.43 1142.96,819.67
             1148.35,818.47 1150.27,810.31 1141.99,807.91 Z
           M 1085.00,812.39
           C 1080.46,813.12 1076.59,814.27 1073.65,818.10
             1066.22,827.78 1072.43,843.91 1087.00,842.90
             1106.51,841.56 1105.67,812.64 1085.00,812.39 Z
           M 974.09,846.91
           C 969.25,849.71 973.36,853.02 975.69,851.83
             977.78,850.76 978.12,847.77 974.09,846.91 Z
           M 166.00,859.00
           C 171.13,859.69 171.79,856.68 167.00,855.00
             167.00,855.00 166.00,859.00 166.00,859.00 Z
           M 642.27,874.74
           C 638.34,877.77 641.46,880.79 643.81,880.18
             646.22,879.55 647.53,875.00 642.27,874.74 Z
           M 562.00,906.34
           C 544.80,911.36 547.83,934.73 564.00,936.21
             580.86,937.76 586.57,917.13 574.96,908.65
             570.90,905.68 566.74,905.79 562.00,906.34 Z
           M 222.83,948.17
           C 217.80,949.16 219.43,953.19 222.04,953.55
             224.65,953.91 227.20,950.55 222.83,948.17 Z
           M 760.06,950.03
           C 755.87,952.23 757.78,955.37 760.06,955.37
             762.70,955.38 765.23,951.27 760.06,950.03 Z
           M 1081.11,982.60
           C 1072.82,987.86 1079.36,997.57 1086.79,994.26
             1090.89,992.44 1091.63,986.71 1088.35,983.74
             1086.14,981.74 1083.73,982.09 1081.11,982.60 Z
           M 1135.09,999.91
           C 1130.25,1002.71 1134.36,1006.02 1136.69,1004.83
             1138.78,1003.76 1139.12,1000.77 1135.09,999.91 Z
           M 805.18,1005.74
           C 800.82,1008.87 804.37,1011.90 806.75,1011.12
             808.88,1010.41 810.20,1005.98 805.18,1005.74 Z
           M 113.01,1007.68
           C 102.77,1009.51 105.68,1020.79 113.01,1020.79
             121.01,1020.79 122.96,1009.46 113.01,1007.68 Z
           M 525.26,1019.74
           C 521.39,1022.74 524.39,1025.74 526.76,1025.04
             528.89,1024.40 530.15,1019.99 525.26,1019.74 Z
           M 635.00,1042.34
           C 615.52,1047.07 622.47,1071.95 639.00,1069.77
             655.81,1067.57 655.03,1041.02 635.00,1042.34 Z
           M 1031.30,1043.74
           C 1027.34,1046.86 1031.40,1049.65 1033.57,1048.60
             1035.51,1047.66 1036.23,1043.97 1031.30,1043.74 Z
           M 746.91,1081.17
           C 741.75,1082.16 743.45,1086.20 746.04,1086.55
             748.56,1086.90 751.49,1083.56 746.91,1081.17 Z
           M 464.09,1095.03
           C 459.43,1097.43 462.19,1100.89 464.83,1100.56
             467.31,1100.26 469.23,1096.21 464.09,1095.03 Z
           M 1099.00,1115.00
           C 1096.10,1116.73 1096.18,1116.63 1096.00,1120.00
             1099.39,1118.80 1099.47,1118.54 1099.00,1115.00 Z
           M 855.06,1117.81
           C 848.83,1121.41 850.63,1128.50 856.02,1129.67
             863.66,1131.32 866.57,1121.36 860.85,1117.81
             858.74,1116.79 857.24,1117.20 855.06,1117.81 Z
           M 78.04,1143.47
           C 68.68,1147.40 75.12,1156.84 80.96,1155.16
             86.79,1153.47 88.33,1142.98 78.04,1143.47 Z" />
</svg>
