<svg xmlns="http://www.w3.org/2000/svg" width="1155.16" height="1155.16" viewBox="0 0 1155 1155"><path fill="none" stroke="#000" d="M0 0h1155v1155H0zm861.05 78.64c-7.59 4.51-2.34 12.08 2.89 10.52 5.08-1.52 6.17-11.54-2.89-10.52ZM958 99.62c-6.89 3.67-4.62 6.04-8.41 11.38-4.77 6.72-10.81 11.83-17.59 16.38-3.84 2.58-9.62 4.64-10.67 9.62-1.54 7.33 6.01 9.38 10.67 12.1 4.01 2.35 7.74 5.43 10.82 8.9 4.32 4.88 10.4 18.46 16.18 19.67 8.03 1.67 8.16-6.12 10.57-10.67 1.37-2.58 3.46-4.9 5.47-7 2.14-2.25 5.44-5.6 7.96-7.31 5.32-3.61 17.46-7.2 15.67-15.69-1.09-5.14-6.83-6.61-10.67-9.22-4.13-2.81-11.39-8.82-14.28-12.78-4.45-6.11-6.63-16.62-15.72-15.38Zm-582.96 49.85c-9.16 3.85-3.76 14.22 2.92 12.77 6.43-1.39 7.79-13.28-2.92-12.77ZM179 158.62c-6.89 3.67-4.62 6.04-8.41 11.38-4.77 6.72-10.81 11.83-17.59 16.38-3.84 2.58-9.62 4.64-10.67 9.62-1.54 7.33 6.01 9.38 10.67 12.1 4.01 2.35 7.74 5.43 10.82 8.9 4.32 4.88 10.4 18.46 16.18 19.67 8.03 1.67 8.16-6.12 10.57-10.67 1.37-2.58 3.46-4.9 5.47-7 2.14-2.25 5.44-5.6 7.96-7.31 5.32-3.61 17.46-7.2 15.67-15.69-1.09-5.14-6.83-6.61-10.67-9.22-4.13-2.81-11.39-8.82-14.28-12.78-4.45-6.11-6.63-16.62-15.72-15.38Zm216.21 2.11c-3.61 2.93-.26 4.9 1.48 4.03 1.52-.76 2.61-3.85-1.48-4.03ZM542 182l-5 1v2l5 1zm166.04 14.71c-8.49 4.57-2.54 12.5 2.91 10.65 5.25-1.79 5.74-10.96-2.91-10.65ZM749 252l-6 1zm294.05 4.64c-7.59 4.51-2.34 12.08 2.89 10.52 5.08-1.52 6.17-11.54-2.89-10.52ZM450 287.47c-12.67 4.9-5.55 19.44 4 17.08 9.41-2.31 9.39-18-4-17.08ZM938 294c-8.2 6.02-10.04 15.26-14.79 24l-11.48 18-15.16 25.99-8.4 12.01c-3.73 6.72-8.86 20.54-16.17 23.74-6.14 2.68-10.53-2.04-14.13-6.16-8.58-9.86-11.83-15.86-14.83-28.58l-4.62-45c-.74-5.45.6-10.33-2.42-15-1.9 6.68-1 32.37-1 41l-4-2-1 15-6-23h-1.92v15l1.92 17v21l-16-10 2.08 10v10c.43 3.59 1.56 7.45 0 10.98-.87 2.71-2.52 3.78-4.5 5.68-4.04 3.87-5.7 6.05-11.57 3.19-10.32-5.04-16.11-20.93-26.01-23.85l13 26c-6.08-5.28-18.03-17.96-25-20 1.24 5.02 2.59 6.23 6 10l-13-7 14 21c-10.57-.26-21.43-8.39-31-12.98l-24.01-11.18L686 385.92l-6-2.62-9-4.98c-3.88-1.81-4.84-1.74-9-4.22l-27-15.34c-4.76-2.42-7.56-4.73-13-3.76l2.42 4.71 24.62 18.8L690 409.25 716 430l-5 1v2l34 21.61c2.95 2.21 8.75 7.25 8.06 11.39-1.29 7.76-11.43 7.63-17.06 8.17l-9 .83H591c-4.71 0-11.75-.69-16 1l16 3.12 26 5.46 25 4.03 26 4.93 14 1.92 24 4.54v2l-21 1c1.45 4.14 2.85 3.92 7 4h35c-4.73 4.42-10.93 4.2-17 5.19l-19 3.53c-5.72.71-16.02 1.74-21 4.28h18l21-1c11.76-.02 24.37-2.83 36 0l-4 6 18 3c-3.76 4.35-5.63 6.24-11 8.65-5.01 2.25-11.82 3.57-15 8.35 13.72-.12 15.89-5.99 26-4-5.98 5.44-7.98 6.24-15 9.75-4.12 2.07-7.41 2.71-9 7.25 5.16-1.21 19.32-7.42 22.96-7.06 4.98.5 6.26 6.97 5.9 11.06-.94 10.62-10.57 14.97-13.86 27l9-3c-7.8 15.24-29.24 40.47-40.87 54-5.56 6.47-17.83 17.84-19.13 26 5.01-1.59 7.95-5.86 12.02-9.08l23.26-21.61 7.55-6.39c5.14-5.09 13.56-14.16 21.17-13.92-3.49 4.05-7.23 7.58-8 13 6.94-3.42 11-11.51 19-14.35 6.93-2.45 8.75 6.39 17.58-1L806 600.22c1.99-1.34 5.23-3.42 7.69-2.09 2.94 1.58 1.81 5.27 1.23 7.78L810.35 627 789 718c6.07-2.42 6.35-11.43 8.42-17l14.15-42c1.84-5.1 2.56-11.95 7.43-15l-1 11c4.2-2.73 4.08-7.42 5.51-12 2.35-7.55 6.83-24.08 10.49-30l4.3 9 2.7 31 2 22v113c7.89-.89 12.84-4.76 13-13v-44l1-16v-22l.96-12v-17l1.76-22c.39-3.33-.05-6.9 1.59-9.95 1.32-2.44 3.72-4.16 5.69-6.05l9.12 34c1.17 4.94 1.62 11.74 5.88 15l-3-44c6.15 6.16 6.94 15.17 9.54 23l3.56 8c1.85 5.31 2.71 11.15 7.9 14l-7.21-40c-1.48-6.94-4.16-16.05-2.79-23h2l8.22 11.04 10.81 17.87 6.75 8.1L934.06 675l10.45 15.41L948 692c-.49-9.97-3.52-10.59-6.49-19l-7.29-21-12.61-32c-2.19-7.68-7.23-12.4-5.61-21l9 7-2-8h5c1.59 5.28 3.77 6.7 9 8-1.41-10.29-14.33-26.42-12.71-34.91 2.15-11.26 18.37-9.39 26.28-7.6 15.37 3.5 34.47 12.19 49.43 18.37 6.7 2.77 18.34 8.18 25 9.14-1.63-4.83-5.83-6.6-10-9.19-7.07-4.39-14.63-8.44-21-13.81 8.01.67 24.3 6.91 33 9.57 5.39 1.64 11.8 2.51 16 6.43l6-1c-3.15-5.08-19.02-10.92-25-14.45l-41-21.08c-6.6-3.4-13.42-6.6-18.98-11.65-3.04-2.76-9.63-11.27-12.02-14.82l18-2h46l21-1c-3.12-5.19-10.53-4.5-16-5.15l-16-1.03c-3.51-.42-19.04-3.59-22-4.82 7.52 0 18.4.84 25-3-6.22-2.88-12.26-2-19-2l2-4-24-2c11.53-2.1 23.26-4 35-4-2.33-3.48-4.06-2.97-8-3h-35c-2.07 0-5.09.11-7-.6-4.41-1.64-7.99-7.04-4.98-11.44 1.71-2.51 14.7-10.51 17.98-12.39l32-15.74 36-17.57c7.5-3.63 21.24-6.76 25-14.26-7.89-1.58-21.05 6.48-29 9.31l-23 7.74-18 7.06-9 2.59c-10.75 3.71-19.18 8.75-31 9.3l9.21-13c10.34-12.15 22.43-19.92 29.79-35-6.38 1.73-6.96 4.02-12 7.32l-19 9.85c-1.79.85-9.45 5.89-10.47 2.46-1.2-4.07 7.4-8.14 9.47-14.63l-20 11 12-22c-7.37 1.83-7.96 5.06-13.18 9.65L926 415l-1-1 18.87-28c3.48-4.88 7.64-7.68 7.13-14l-28 29 17.72-32 8.28-16c-7.06 2.12-12.03 11.58-17 17l2.37-8 1.87-9 8.76-23c-6.12-.76-6.53 2.64-9.92 6.91L923 350c.51-11.02 7.56-27.53 11.86-38 1.09-2.66 5.09-11.65 4.92-14-.15-1.93-.89-2.52-1.78-4Zm-692.89 95.61c-7.75 4.89-1.07 12.2 4.66 9.65 4.31-1.92 4.83-11.23-4.66-9.65Zm-123.09 32.9c-11.7 5.2-4.4 19.6 4.94 16.83 7.07-2.11 7.35-11.17 3.61-14.91-2.55-2.55-5.3-2.42-8.55-1.92ZM501 438c-3.37.18-3.27.1-5 3 3.54.47 3.8.39 5-3Zm-98.15 10.34c-3.57 1.59-2.25 4.43-.68 4.75 1.67.34 4.23-2.79.68-4.75ZM489 532c-3.37.18-3.27.1-5 3 3.54.47 3.8.39 5-3Zm-289.94 30.66c-7.6 4.44-2.37 12.06 2.88 10.5 5.32-1.59 5.65-11.08-2.88-10.5ZM395 608c-8.2 6.02-10.04 15.26-14.79 24l-11.48 18-15.16 25.99-8.4 12.01c-3.73 6.72-8.86 20.54-16.17 23.74-6.14 2.68-10.53-2.04-14.13-6.16-8.58-9.86-11.83-15.86-14.83-28.58l-4.62-45c-.74-5.45.6-10.33-2.42-15-1.9 6.68-1 32.37-1 41l-4-2-1 15-6-23h-1.92v15l1.92 17v21l-16-10 2.08 10v10c.43 3.59 1.56 7.45 0 10.98-.87 2.71-2.52 3.78-4.5 5.68-4.04 3.87-5.7 6.05-11.57 3.19-10.32-5.04-16.11-20.93-26.01-23.85l13 26c-6.08-5.28-18.03-17.96-25-20 1.24 5.02 2.59 6.23 6 10l-13-7 14 21c-10.57-.26-21.43-8.39-31-12.98l-24.01-11.18L143 699.92l-6-2.62-9-4.98c-3.88-1.81-4.84-1.74-9-4.22l-27-15.34c-4.76-2.42-7.56-4.73-13-3.76l2.42 4.71 24.62 18.8L147 723.25 173 744l-5 1v2l34 21.61c2.95 2.21 8.75 7.25 8.06 11.39-1.29 7.76-11.43 7.63-17.06 8.17l-9 .83H48c-4.71 0-11.75-.69-16 1l16 3.12 26 5.46 25 4.03 26 4.93 14 1.92 24 4.54v2l-21 1c1.45 4.14 2.85 3.92 7 4h35c-4.73 4.42-10.93 4.2-17 5.19l-19 3.53c-5.72.71-16.02 1.74-21 4.28h18l21-1c11.76-.02 24.37-2.83 36 0l-4 6 18 3c-3.76 4.35-5.63 6.24-11 8.65-5.01 2.25-11.82 3.57-15 8.35 13.72-.12 15.89-5.99 26-4-5.98 5.44-7.98 6.24-15 9.75-4.12 2.07-7.41 2.71-9 7.25 5.16-1.21 19.32-7.42 22.96-7.06 4.98.5 6.26 6.97 5.9 11.06-.94 10.62-10.57 14.97-13.86 27l9-3c-7.8 15.24-29.24 40.47-40.87 54-5.56 6.47-17.83 17.84-19.13 26 5.01-1.59 7.95-5.86 12.02-9.08l23.26-21.61 7.55-6.39c5.14-5.09 13.56-14.16 21.17-13.92-3.49 4.05-7.23 7.58-8 13 6.94-3.42 11-11.51 19-14.35 6.93-2.45 8.75 6.39 17.58-1L263 914.22c1.99-1.34 5.23-3.42 7.69-2.09 2.94 1.58 1.81 5.27 1.23 7.78L267.35 941 246 1032c6.07-2.42 6.35-11.43 8.42-17l14.15-42c1.84-5.1 2.56-11.95 7.43-15l-1 11c4.2-2.73 4.08-7.42 5.51-12 2.35-7.55 6.83-24.08 10.49-30l4.3 9 2.7 31 2 22v113c7.89-.89 12.84-4.76 13-13v-44l1-16v-22l.96-12v-17l1.76-22c.39-3.33-.05-6.9 1.59-9.95 1.32-2.44 3.72-4.16 5.69-6.05l9.12 34c1.17 4.94 1.62 11.74 5.88 15l-3-44c6.15 6.16 6.94 15.17 9.54 23l3.56 8c1.85 5.31 2.71 11.15 7.9 14l-7.21-40c-1.48-6.94-4.16-16.05-2.79-23h2l8.22 11.04 10.81 17.87 6.75 8.1L391.06 989l10.45 15.41L405 1006c-.49-9.97-3.52-10.59-6.49-19l-7.29-21-12.61-32c-2.19-7.68-7.23-12.4-5.61-21l9 7-2-8h5c1.59 5.28 3.77 6.7 9 8-1.41-10.29-14.33-26.42-12.71-34.91 2.15-11.26 18.37-9.39 26.28-7.6 15.37 3.5 34.47 12.19 49.43 18.37 6.7 2.77 18.34 8.18 25 9.14-1.63-4.83-5.83-6.6-10-9.19-7.07-4.39-14.63-8.44-21-13.81 8.01.67 24.3 6.91 33 9.57 5.39 1.64 11.8 2.51 16 6.43l6-1c-3.15-5.08-19.02-10.92-25-14.45l-41-21.08c-6.6-3.4-13.42-6.6-18.98-11.65-3.04-2.76-9.63-11.27-12.02-14.82l18-2h46l21-1c-3.12-5.19-10.53-4.5-16-5.15l-16-1.03c-3.51-.42-19.04-3.59-22-4.82 7.52 0 18.4.84 25-3-6.22-2.88-12.26-2-19-2l2-4-24-2c11.53-2.1 23.26-4 35-4-2.33-3.48-4.06-2.97-8-3h-35c-2.07 0-5.09.11-7-.6-4.41-1.64-7.99-7.04-4.98-11.44 1.71-2.51 14.7-10.51 17.98-12.39l32-15.74 36-17.57c7.5-3.63 21.24-6.76 25-14.26-7.89-1.58-21.05 6.48-29 9.31l-23 7.74-18 7.06-9 2.59c-10.75 3.71-19.18 8.75-31 9.3l9.21-13c10.34-12.15 22.43-19.92 29.79-35-6.38 1.73-6.96 4.02-12 7.32l-19 9.85c-1.79.85-9.45 5.89-10.47 2.46-1.2-4.07 7.4-8.14 9.47-14.63l-20 11 12-22c-7.37 1.83-7.96 5.06-13.18 9.65L383 729l-1-1 18.87-28c3.48-4.88 7.64-7.68 7.13-14l-28 29 17.72-32 8.28-16c-7.06 2.12-12.03 11.58-17 17l2.37-8 1.87-9 8.76-23c-6.12-.76-6.53 2.64-9.92 6.91L380 664c.51-11.02 7.56-27.53 11.86-38 1.09-2.66 5.09-11.65 4.92-14-.15-1.93-.89-2.52-1.78-4Zm258.05.64c-7.59 4.51-2.34 12.08 2.89 10.52 5.08-1.52 6.17-11.54-2.89-10.52ZM1077 755.43c-12.43 5.03-5.21 19.1 4 16.96 9.77-2.27 9.55-18.6-4-16.96ZM600 758c-4.11 2.43-3.49 4.22 1 5zm312.06 122.62c-7.79 4.71-1.5 11.69 3.88 9.76 5.49-1.96 5.17-11.03-3.88-9.76Zm-139.01 50.02c-7.59 4.51-2.34 12.08 2.89 10.52 5.08-1.52 6.17-11.54-2.89-10.52Zm99.22 21.1c-3.16 2.62-.05 4 1.46 3.52 1.52-.49 2.82-3.31-1.46-3.52Zm-283.25 11.71c-1.51.63-2.2.58-3.42 1.98-3.04 3.49-3.07 17.39 7.4 14.96 9.74-2.27 9.6-18.32-3.98-16.94ZM534 1069.43c-12.43 5.03-5.21 19.1 4 16.96 9.77-2.27 9.55-18.6-4-16.96ZM57 1072c-4.11 2.43-3.49 4.22 1 5zm529.26 3.91c-3.32 2.31-.89 4.46.72 4.18 1.68-.3 3.55-3.18-.72-4.18Zm429.78 11.63c-8.54 3.34-4.55 13.21 1.94 12.09 6.2-1.07 7.34-11.84-1.94-12.09ZM842 1095.43c-12.46 5.04-4.71 18.67 4 16.68 7.75-1.79 8.49-10.76 4.57-14.68-2.53-2.53-5.32-2.41-8.57-2Z"/></svg>