<svg xmlns="http://www.w3.org/2000/svg" width="1155.16" height="1155.16" viewBox="0 0 1155 1155"><path fill="none" stroke="#000" d="M0 0h1155v1155H0zm231.04 7.47c-8.88 3.73-4.43 14.46 2.92 12.78 6.51-1.5 7.71-13.29-2.92-12.78Zm630.01 71.17c-7.59 4.51-2.34 12.08 2.89 10.52 5.08-1.52 6.17-11.54-2.89-10.52ZM958 99.62c-6.89 3.67-4.62 6.04-8.41 11.38-4.77 6.72-10.81 11.83-17.59 16.38-3.84 2.58-9.62 4.64-10.67 9.62-1.54 7.33 6.01 9.38 10.67 12.1 4.01 2.35 7.74 5.43 10.82 8.9 4.32 4.88 10.4 18.46 16.18 19.67 8.03 1.67 8.16-6.12 10.57-10.67 1.37-2.58 3.46-4.9 5.47-7 2.14-2.25 5.44-5.6 7.96-7.31 5.32-3.61 17.46-7.2 15.67-15.69-1.09-5.14-6.83-6.61-10.67-9.22-4.13-2.81-11.39-8.82-14.28-12.78-4.45-6.11-6.63-16.62-15.72-15.38Zm-779 59c-6.89 3.67-4.62 6.04-8.41 11.38-4.77 6.72-10.81 11.83-17.59 16.38-3.84 2.58-9.62 4.64-10.67 9.62-1.54 7.33 6.01 9.38 10.67 12.1 4.01 2.35 7.74 5.43 10.82 8.9 4.32 4.88 10.4 18.46 16.18 19.67 8.03 1.67 8.16-6.12 10.57-10.67 1.37-2.58 3.46-4.9 5.47-7 2.14-2.25 5.44-5.6 7.96-7.31 5.32-3.61 17.46-7.2 15.67-15.69-1.09-5.14-6.83-6.61-10.67-9.22-4.13-2.81-11.39-8.82-14.28-12.78-4.45-6.11-6.63-16.62-15.72-15.38Zm216.21 2.11c-3.61 2.93-.26 4.9 1.48 4.03 1.52-.76 2.61-3.85-1.48-4.03ZM542 182l-5 1v2l5 1zm166.04 14.71c-8.49 4.57-2.54 12.5 2.91 10.65 5.25-1.79 5.74-10.96-2.91-10.65ZM749 252l-6 1zm294.05 4.64c-7.59 4.51-2.34 12.08 2.89 10.52 5.08-1.52 6.17-11.54-2.89-10.52ZM450 287.47c-12.67 4.9-5.55 19.44 4 17.08 9.41-2.31 9.39-18-4-17.08Zm341.06 95.19c-7.69 4.49-2.2 12.08 2.88 10.63 5.16-1.46 5.83-11.23-2.88-10.63Zm-545.95 6.95c-7.75 4.89-1.07 12.2 4.66 9.65 4.31-1.92 4.83-11.23-4.66-9.65Zm-123.09 32.9c-11.7 5.2-4.4 19.6 4.94 16.83 7.07-2.11 7.35-11.17 3.61-14.91-2.55-2.55-5.3-2.42-8.55-1.92ZM501 438c-3.37.18-3.27.1-5 3 3.54.47 3.8.39 5-3Zm-98.15 10.34c-3.57 1.59-2.25 4.43-.68 4.75 1.67.34 4.23-2.79.68-4.75Zm524.2 2.3c-7.59 4.51-2.34 12.08 2.89 10.52 5.08-1.52 6.17-11.54-2.89-10.52ZM489 532c-3.37.18-3.27.1-5 3 3.54.47 3.8.39 5-3Zm-289.94 30.66c-7.6 4.44-2.37 12.06 2.88 10.5 5.32-1.59 5.65-11.08-2.88-10.5Zm453.99 45.98c-7.59 4.51-2.34 12.08 2.89 10.52 5.08-1.52 6.17-11.54-2.89-10.52ZM399.1 630.47c-7.59 3.48-2.86 12.39 2.84 10.69 4.88-1.46 6.41-11.15-2.84-10.69Zm463.95 6.17c-7.68 4.56-2.17 12.09 2.89 10.65 4.93-1.39 6.33-11.69-2.89-10.65ZM1077 755.43c-12.43 5.03-5.21 19.1 4 16.96 9.77-2.27 9.55-18.6-4-16.96Zm-963.95 1.21c-7.59 4.51-2.34 12.08 2.89 10.52 5.08-1.52 6.17-11.54-2.89-10.52ZM600 758c-4.11 2.43-3.49 4.22 1 5zm-242.95 44.64c-7.59 4.51-2.34 12.08 2.89 10.52 5.08-1.52 6.17-11.54-2.89-10.52Zm555.01 77.98c-7.79 4.71-1.5 11.69 3.88 9.76 5.49-1.96 5.17-11.03-3.88-9.76Zm-139.01 50.02c-7.59 4.51-2.34 12.08 2.89 10.52 5.08-1.52 6.17-11.54-2.89-10.52Zm99.22 21.1c-3.16 2.62-.05 4 1.46 3.52 1.52-.49 2.82-3.31-1.46-3.52Zm-283.25 11.71c-1.51.63-2.2.58-3.42 1.98-3.04 3.49-3.07 17.39 7.4 14.96 9.74-2.27 9.6-18.32-3.98-16.94Zm-291.97 19.19c-7.59 4.51-2.34 12.08 2.89 10.52 5.08-1.52 6.17-11.54-2.89-10.52ZM534 1069.43c-12.43 5.03-5.21 19.1 4 16.96 9.77-2.27 9.55-18.6-4-16.96ZM57 1072c-4.11 2.43-3.49 4.22 1 5zm529.26 3.91c-3.32 2.31-.89 4.46.72 4.18 1.68-.3 3.55-3.18-.72-4.18Zm429.78 11.63c-8.54 3.34-4.55 13.21 1.94 12.09 6.2-1.07 7.34-11.84-1.94-12.09ZM842 1095.43c-12.46 5.04-4.71 18.67 4 16.68 7.75-1.79 8.49-10.76 4.57-14.68-2.53-2.53-5.32-2.41-8.57-2Z"/></svg>