<?xml version="1.0" encoding="UTF-8" standalone="no"?>
<!DOCTYPE svg PUBLIC "-//W3C//DTD SVG 20010904//EN"
              "http://www.w3.org/TR/2001/REC-SVG-20010904/DTD/svg10.dtd">

<svg xmlns="http://www.w3.org/2000/svg"
     width="305.636mm" height="305.636mm"
     viewBox="0 0 1155 1155">
  <path id="Selection"
        fill="none" stroke="black" stroke-width="1"
        d="M 0.00,0.00
           C 0.00,0.00 1155.00,0.00 1155.00,0.00
             1155.00,0.00 1155.00,1155.00 1155.00,1155.00
             1155.00,1155.00 0.00,1155.00 0.00,1155.00
             0.00,1155.00 0.00,0.00 0.00,0.00 Z
           M 231.04,7.47
           C 222.16,11.20 226.61,21.93 233.96,20.25
             240.47,18.75 241.67,6.96 231.04,7.47 Z
           M 861.05,78.64
           C 853.46,83.15 858.71,90.72 863.94,89.16
             869.02,87.64 870.11,77.62 861.05,78.64 Z
           M 958.00,99.62
           C 951.11,103.29 953.38,105.66 949.59,111.00
             944.82,117.72 938.78,122.83 932.00,127.38
             928.16,129.96 922.38,132.02 921.33,137.00
             919.79,144.33 927.34,146.38 932.00,149.10
             936.01,151.45 939.74,154.53 942.82,158.00
             947.14,162.88 953.22,176.46 959.00,177.67
             967.03,179.34 967.16,171.55 969.57,167.00
             970.94,164.42 973.03,162.10 975.04,160.00
             977.18,157.75 980.48,154.40 983.00,152.69
             988.32,149.08 1000.46,145.49 998.67,137.00
             997.58,131.86 991.84,130.39 988.00,127.78
             983.87,124.97 976.61,118.96 973.72,115.00
             969.27,108.89 967.09,98.38 958.00,99.62 Z
           M 179.00,158.62
           C 172.11,162.29 174.38,164.66 170.59,170.00
             165.82,176.72 159.78,181.83 153.00,186.38
             149.16,188.96 143.38,191.02 142.33,196.00
             140.79,203.33 148.34,205.38 153.00,208.10
             157.01,210.45 160.74,213.53 163.82,217.00
             168.14,221.88 174.22,235.46 180.00,236.67
             188.03,238.34 188.16,230.55 190.57,226.00
             191.94,223.42 194.03,221.10 196.04,219.00
             198.18,216.75 201.48,213.40 204.00,211.69
             209.32,208.08 221.46,204.49 219.67,196.00
             218.58,190.86 212.84,189.39 209.00,186.78
             204.87,183.97 197.61,177.96 194.72,174.00
             190.27,167.89 188.09,157.38 179.00,158.62 Z
           M 395.21,160.73
           C 391.60,163.66 394.95,165.63 396.69,164.76
             398.21,164.00 399.30,160.91 395.21,160.73 Z
           M 542.00,182.00
           C 542.00,182.00 537.00,183.00 537.00,183.00
             537.00,183.00 537.00,185.00 537.00,185.00
             537.00,185.00 542.00,186.00 542.00,186.00
             542.00,186.00 542.00,182.00 542.00,182.00 Z
           M 708.04,196.71
           C 699.55,201.28 705.50,209.21 710.95,207.36
             716.20,205.57 716.69,196.40 708.04,196.71 Z
           M 749.00,252.00
           C 749.00,252.00 743.00,253.00 743.00,253.00
             743.00,253.00 749.00,252.00 749.00,252.00 Z
           M 1043.05,256.64
           C 1035.46,261.15 1040.71,268.72 1045.94,267.16
             1051.02,265.64 1052.11,255.62 1043.05,256.64 Z
           M 450.00,287.47
           C 437.33,292.37 444.45,306.91 454.00,304.55
             463.41,302.24 463.39,286.55 450.00,287.47 Z
           M 791.06,382.66
           C 783.37,387.15 788.86,394.74 793.94,393.29
             799.10,391.83 799.77,382.06 791.06,382.66 Z
           M 245.11,389.61
           C 237.36,394.50 244.04,401.81 249.77,399.26
             254.08,397.34 254.60,388.03 245.11,389.61 Z
           M 122.02,422.51
           C 110.32,427.71 117.62,442.11 126.96,439.34
             134.03,437.23 134.31,428.17 130.57,424.43
             128.02,421.88 125.27,422.01 122.02,422.51 Z
           M 501.00,438.00
           C 497.63,438.18 497.73,438.10 496.00,441.00
             499.54,441.47 499.80,441.39 501.00,438.00 Z
           M 402.85,448.34
           C 399.28,449.93 400.60,452.77 402.17,453.09
             403.84,453.43 406.40,450.30 402.85,448.34 Z
           M 927.05,450.64
           C 919.46,455.15 924.71,462.72 929.94,461.16
             935.02,459.64 936.11,449.62 927.05,450.64 Z
           M 489.00,532.00
           C 485.63,532.18 485.73,532.10 484.00,535.00
             487.54,535.47 487.80,535.39 489.00,532.00 Z
           M 199.06,562.66
           C 191.46,567.10 196.69,574.72 201.94,573.16
             207.26,571.57 207.59,562.08 199.06,562.66 Z
           M 653.05,608.64
           C 645.46,613.15 650.71,620.72 655.94,619.16
             661.02,617.64 662.11,607.62 653.05,608.64 Z
           M 399.10,630.47
           C 391.51,633.95 396.24,642.86 401.94,641.16
             406.82,639.70 408.35,630.01 399.10,630.47 Z
           M 863.05,636.64
           C 855.37,641.20 860.88,648.73 865.94,647.29
             870.87,645.90 872.27,635.60 863.05,636.64 Z
           M 1077.00,755.43
           C 1064.57,760.46 1071.79,774.53 1081.00,772.39
             1090.77,770.12 1090.55,753.79 1077.00,755.43 Z
           M 113.05,756.64
           C 105.46,761.15 110.71,768.72 115.94,767.16
             121.02,765.64 122.11,755.62 113.05,756.64 Z
           M 600.00,758.00
           C 595.89,760.43 596.51,762.22 601.00,763.00
             601.00,763.00 600.00,758.00 600.00,758.00 Z
           M 357.05,802.64
           C 349.46,807.15 354.71,814.72 359.94,813.16
             365.02,811.64 366.11,801.62 357.05,802.64 Z
           M 912.06,880.62
           C 904.27,885.33 910.56,892.31 915.94,890.38
             921.43,888.42 921.11,879.35 912.06,880.62 Z
           M 773.05,930.64
           C 765.46,935.15 770.71,942.72 775.94,941.16
             781.02,939.64 782.11,929.62 773.05,930.64 Z
           M 872.27,951.74
           C 869.11,954.36 872.22,955.74 873.73,955.26
             875.25,954.77 876.55,951.95 872.27,951.74 Z
           M 589.02,963.45
           C 587.51,964.08 586.82,964.03 585.60,965.43
             582.56,968.92 582.53,982.82 593.00,980.39
             602.74,978.12 602.60,962.07 589.02,963.45 Z
           M 297.05,982.64
           C 289.46,987.15 294.71,994.72 299.94,993.16
             305.02,991.64 306.11,981.62 297.05,982.64 Z
           M 534.00,1069.43
           C 521.57,1074.46 528.79,1088.53 538.00,1086.39
             547.77,1084.12 547.55,1067.79 534.00,1069.43 Z
           M 57.00,1072.00
           C 52.89,1074.43 53.51,1076.22 58.00,1077.00
             58.00,1077.00 57.00,1072.00 57.00,1072.00 Z
           M 586.26,1075.91
           C 582.94,1078.22 585.37,1080.37 586.98,1080.09
             588.66,1079.79 590.53,1076.91 586.26,1075.91 Z
           M 1016.04,1087.54
           C 1007.50,1090.88 1011.49,1100.75 1017.98,1099.63
             1024.18,1098.56 1025.32,1087.79 1016.04,1087.54 Z
           M 842.00,1095.43
           C 829.54,1100.47 837.29,1114.10 846.00,1112.11
             853.75,1110.32 854.49,1101.35 850.57,1097.43
             848.04,1094.90 845.25,1095.02 842.00,1095.43 Z" />
</svg>
