<svg xmlns="http://www.w3.org/2000/svg" width="317.28mm" height="317.28mm" viewBox="0 0 1199 1199"><path fill="none" stroke="#000" d="M0 0h1199v1199H0zm472.09 27.03c-4.27 2.2-2.29 5.34 0 5.34 2.57.01 5.45-4.09 0-5.34ZM605 43c-5.2 4.82-9.4 12.96-13.34 19l-24.71 39c-30.14 48.14-57.8 98.22-83.2 149-103.07 206.15-164.04 413.71-199.33 641-9.23 59.45-16.27 119.18-22.25 179l-5 56c-.83 8.71-.17 17.71-3.17 26 5.7-2.83 6.4-5.91 10.2-10.58l17.51-22.14 36.83-44.31 22.9-27.55 80.15-89.25 13.28-13.34 6.43-7.41 31.98-32 12.68-11.5 13.46-13.47 6.58-5.5c25.58-23.95 52-47.18 79.98-68.37l49.98-35.32c22.2-14.27 42.16-25.39 69.04-27.35l7-.73 7 .74c52.93 4.23 95.44 51.7 123.33 93.08 30.52 45.29 54.16 94.74 75.25 145l21 53c2.21 5.88 7.39 21.76 10.42 26l-12.58-71-26.81-147c-38.34-204.54-83.94-384.67-173.39-574-24.94-52.78-54.9-106.38-85.64-156l-28.91-45zM41 50.33c-19.23 4.76-15.8 30.79 1 32.47 17.77 1.79 23.73-23.69 8-31.23-3.19-1.53-5.6-1.54-9-1.24Zm181.09.58c-4.84 2.8-.73 6.11 1.6 4.92 2.09-1.07 2.43-4.06-1.6-4.92Zm524.08 17c-3.79 2.76-.63 6.15 1.28 4.92 1.67-1.07 1.92-4.07-1.28-4.92ZM1065 76.33c-20.17 5.02-13.06 33.19 5 30.19 14.72-2.45 16.12-19.08 8.79-26.3-3.96-3.9-8.55-4.43-13.79-3.89Zm-671.94 9.29c-8 4.83-2.39 13.8 3.88 11.6 5.71-2 5.8-12.96-3.88-11.6Zm458.98 20.85c-8.8 3.7-4.56 14.72 2.94 13.06 6.79-1.51 7.35-13.55-2.94-13.06Zm-703.02 18.17c-9.81 5.37-2.41 14.74 3.94 12.58 7.09-2.42 6.03-13.66-3.94-12.58ZM606 192c2.95 4.01 2.87 12.87 3.58 18l5.57 46 17.7 144 5.2 43c.41 3.7 1.86 18.39 3.26 20.78 2.34 3.99 15.94 7.22 20.69 8.91l41 13.98c5.16 1.74 16.22 5.07 20 8.33l-46 24.31L648 534l6.28 54c.97 7.83 3.73 22.93 1.72 30-4.98-4.35-14.62-22.25-18.44-29l-5.88-9.42L607 537l-33.6 57-18.4 29c-1.52-5.78.37-13.01.93-19l5.22-46 1.83-17c.27-2.08.88-4.89 0-6.79-1.77-3.3-15.08-8.93-18.98-10.99l-35-17.97c-5.74-2.87-15.71-6.97-20-11.25l58-20c4.18-1.39 20.13-5.99 22.41-8.51 2.45-2.71 3.32-16.24 3.87-20.49l6.87-55 16.7-132 5-40c.89-7.48 1.7-19.28 4.15-26Zm-356 2.6c-4.59.44-8.28 1.61-11.15 5.5-6.62 9.02-.13 21.85 11.15 21.87 13.69.02 16.84-14.33 11.3-21.87-2.81-3.83-6.8-5.07-11.3-5.5Zm144.26 3.14c-3.88 3.07-.79 6.25 1.48 5.52 2.04-.66 3.5-5.27-1.48-5.52ZM848 232c-1.2-3.39-1.46-3.47-5-3 1.73 2.9 1.63 2.82 5 3Zm249 13.54c-10.18 3.69-5.43 14.61 1.99 12.99 7.4-1.62 8.04-12.73-1.99-12.99ZM98 275l-5-1v4l5-1zm189 50c-2.9 1.73-2.82 1.63-3 5 3.39-1.2 3.47-1.46 3-5Zm587.3 19.74c-3.96 3.16.1 6.26 2.39 5.09 2.03-1.03 2.61-4.86-2.39-5.09Zm-692.29 23.84c-10.14 2.72-5.97 14.7 1.97 12.95 6.34-1.4 7.61-12.25-1.97-12.95Zm-90.95 65.45c-4.19 2.2-2.28 5.34 0 5.34 2.64.01 5.17-4.1 0-5.34Zm845.94-.17c-4.69 1.61-2.19 5.51 0 5.51s4.69-3.9 0-5.51Zm189.06 14.78c-7.88 4.29-5.14 12.69 0 13.89 9.33 2.16 11.71-15.17 0-13.89ZM268 496h-4l1 5h2zm750 32.33c-5.6 1.39-9.25 3.87-10.99 9.67-2.79 9.27 5.27 19.16 14.99 17.66 16.97-2.62 16.3-29.13-4-27.33Zm-73.04 20.7c-5.09 1.24-2.41 5.35 0 5.34 2.18 0 4.23-3.1 0-5.34ZM111 564c4.49-.78 5.11-2.57 1-5zm111.08 46.74c-2.97 1.13-3.54 3.77-.78 5.1 2.91 1.4 6.69-3.39.78-5.1Zm733.93 79.9c-9.62 3.21-4.91 13.37 1.97 12 6.02-1.19 7.58-11.18-1.97-12ZM1067 708h-2l-1 5c3.39-1.2 3.47-1.46 3-5Zm-928 1.39c-17.12 5.57-10.67 30.51 8 26.22 10.21-2.35 12.89-15.71 5.47-23.08-3.9-3.87-8.4-3.83-13.47-3.14Zm582.04 76.08c-8.8 3.7-4.56 14.72 2.94 13.06 6.64-1.47 7.7-13.57-2.94-13.06ZM88.28 797.65c-3.91 3.36.15 5.62 2.29 4.72 2.02-.84 3.01-5.21-2.29-4.72Zm1053.71 10.26c-10.82 1.22-6.98 13.52.97 11.76 5.39-1.2 7.31-9.36-.97-11.76Zm-56.99 4.48c-4.54.73-8.41 1.88-11.35 5.71-7.43 9.68-1.22 25.81 13.35 24.8 19.51-1.34 18.67-30.26-2-30.51Zm-110.91 34.52c-4.84 2.8-.73 6.11 1.6 4.92 2.09-1.07 2.43-4.06-1.6-4.92ZM166 859c5.13.69 5.79-2.32 1-4zm476.27 15.74c-3.93 3.03-.81 6.05 1.54 5.44 2.41-.63 3.72-5.18-1.54-5.44ZM562 906.34c-17.2 5.02-14.17 28.39 2 29.87 16.86 1.55 22.57-19.08 10.96-27.56-4.06-2.97-8.22-2.86-12.96-2.31Zm-339.17 41.83c-5.03.99-3.4 5.02-.79 5.38s5.16-3 .79-5.38Zm537.23 1.86c-4.19 2.2-2.28 5.34 0 5.34 2.64.01 5.17-4.1 0-5.34Zm321.05 32.57c-8.29 5.26-1.75 14.97 5.68 11.66 4.1-1.82 4.84-7.55 1.56-10.52-2.21-2-4.62-1.65-7.24-1.14Zm53.98 17.31c-4.84 2.8-.73 6.11 1.6 4.92 2.09-1.07 2.43-4.06-1.6-4.92Zm-329.91 5.83c-4.36 3.13-.81 6.16 1.57 5.38 2.13-.71 3.45-5.14-1.57-5.38Zm-692.17 1.94c-10.24 1.83-7.33 13.11 0 13.11 8 0 9.95-11.33 0-13.11Zm412.25 12.06c-3.87 3-.87 6 1.5 5.3 2.13-.64 3.39-5.05-1.5-5.3Zm109.74 22.6c-19.48 4.73-12.53 29.61 4 27.43 16.81-2.2 16.03-28.75-4-27.43Zm396.3 1.4c-3.96 3.12.1 5.91 2.27 4.86 1.94-.94 2.66-4.63-2.27-4.86Zm-284.39 37.43c-5.16.99-3.46 5.03-.87 5.38 2.52.35 5.45-2.99.87-5.38Zm-282.82 13.86c-4.66 2.4-1.9 5.86.74 5.53 2.48-.3 4.4-4.35-.74-5.53ZM1099 1115c-2.9 1.73-2.82 1.63-3 5 3.39-1.2 3.47-1.46 3-5Zm-243.94 2.81c-6.23 3.6-4.43 10.69.96 11.86 7.64 1.65 10.55-8.31 4.83-11.86-2.11-1.02-3.61-.61-5.79 0Zm-777.02 25.66c-9.36 3.93-2.92 13.37 2.92 11.69 5.83-1.69 7.37-12.18-2.92-11.69Z"/></svg>