<?xml version="1.0" encoding="UTF-8" standalone="no" ?>
<!DOCTYPE svg PUBLIC "-//W3C//DTD SVG 1.1//EN" "http://www.w3.org/Graphics/SVG/1.1/DTD/svg11.dtd">
<svg xmlns="http://www.w3.org/2000/svg" xmlns:xlink="http://www.w3.org/1999/xlink" version="1.1" width="1080" height="1080" viewBox="0 0 1080 1080" xml:space="preserve">
<desc>Created with Fabric.js 5.2.4</desc>
<defs>
</defs>
<rect x="0" y="0" width="100%" height="100%" fill="transparent"></rect>
<g transform="matrix(1 0 0 1 540 540)" id="a81077ba-3bf5-4367-8863-7e0ff78a367c"  >
<rect style="stroke: none; stroke-width: 1; stroke-dasharray: none; stroke-linecap: butt; stroke-dashoffset: 0; stroke-linejoin: miter; stroke-miterlimit: 4; fill: rgb(255,255,255); fill-rule: nonzero; opacity: 1; visibility: hidden;" vector-effect="non-scaling-stroke"  x="-540" y="-540" rx="0" ry="0" width="1080" height="1080" />
</g>
<g transform="matrix(1 0 0 1 540 540)" id="5b9c7f34-abee-4f1f-8571-d622a84eab6b"  >
</g>
<g transform="matrix(NaN NaN NaN NaN 0 0)"  >
<g style=""   >
</g>
</g>
<g transform="matrix(2.21 0 0 2.21 540 540)" id="8fa486a1-7dc6-496e-9c14-1aa5686d4b7f"  >
<path style="stroke: rgb(0,0,0); stroke-width: 0; stroke-dasharray: none; stroke-linecap: butt; stroke-dashoffset: 0; stroke-linejoin: miter; stroke-miterlimit: 4; fill: rgb(67,58,198); fill-rule: nonzero; opacity: 1;" vector-effect="non-scaling-stroke"  transform=" translate(-255.99, -256.02)" d="M 229.7 22.66 C 168.10427236172512 33.2520400400704 111.80397413335155 59.532689833422324 73.18996377288445 95.71796915222617 C 34.57595341241736 131.90324847103003 16.81283256765954 175.02760171799062 23.810000000000002 215.59999999999994 C 36.409302004121606 288.59110588103863 125.55682523953774 337.9197649873001 236.70000000000002 333.4 C 260.5 389 219.6 442.7 153.1 494.5 C 239.3 466.2 329.29999999999995 400.1 332.79999999999995 315.8 C 435.8185399174821 281.8798344371407 500.31754238580106 207.12906001922408 488.19999999999993 135.70000000000002 C 481.2315720538664 95.1285876385065 450.0807247857429 60.42524999788017 401.6014928200319 39.225666317400595 C 353.122260854321 18.026082636921018 291.2865858250645 12.067151494197901 229.7 22.659999999999997 z" stroke-linecap="round" />
</g>
</svg>