<svg xmlns="http://www.w3.org/2000/svg" xml:space="preserve" style="fill-rule:evenodd;clip-rule:evenodd;stroke-miterlimit:2.5" viewBox="0 0 50 50"><path d="M0 0h50v50H0z" style="fill:none"/><clipPath id="a"><path d="M0 0h50v50H0z"/></clipPath><g clip-path="url(#a)"><path d="M49 37.5V44c0 2.76-2.24 5-5 5h-9v-5H15v5H6c-2.76 0-5-2.24-5-5v-6.5L6 35v-5H1V20h5v-5l-5-2.5V6c0-2.76 2.24-5 5-5h9v5h20V1h9c2.76 0 5 2.24 5 5v6.5L44 15v5h5v10h-5v5z" style="fill:#666;stroke:#000;stroke-width:2px"/><path d="M24.397 36.827a1 1 0 1 1 1.206 0l.084.666C29.409 37.422 32.801 36.78 35 36c0 2.76-4.481 5-10 5s-10-2.24-10-5c2.199.78 5.591 1.422 9.313 1.493zM18 29q3.5 1.975 7 1.969T32 29c-4.667 5.278-9.333 5.369-14 0m-2-3.993q4.5 1.975 9 1.969c3-.002 6-.661 9-1.969-6 5.278-12 5.369-18 0m-2-4q5.5 1.975 11 1.969c3.667-.002 7.333-.661 11-1.969-7.333 5.278-14.667 5.369-22 0M12 17q6.5 1.975 13 1.969T38 17c-8.667 5.278-17.333 5.369-26 0m-2-4.007q7.5 1.974 15 1.969 7.5-.007 15-1.969c-10 5.278-20 5.369-30 0M8 8.985a74.6 74.6 0 0 0 17 1.969q8.5-.005 17-1.969c-11.333 5.278-22.667 5.369-34 0"/></g></svg>