<svg xmlns="http://www.w3.org/2000/svg" xml:space="preserve" style="fill-rule:evenodd;clip-rule:evenodd;stroke-miterlimit:2.5" viewBox="0 0 50 50"><path d="M0 0h50v50H0z" style="fill:none"/><clipPath id="a"><path d="M0 0h50v50H0z"/></clipPath><g clip-path="url(#a)"><path d="M49 37.5V44c0 2.76-2.24 5-5 5h-9v-5H15v5H6c-2.76 0-5-2.24-5-5v-6.5L6 35v-5H1V20h5v-5l-5-2.5V6c0-2.76 2.24-5 5-5h9v5h20V1h9c2.76 0 5 2.24 5 5v6.5L44 15v5h5v10h-5v5z" style="fill:#10273d;stroke:#0077af;stroke-width:2px"/><path d="M12.765 33.218a1.883 1.883 0 1 1 1.882 0v4.269A1.884 1.884 0 0 1 13.706 41a1.883 1.883 0 0 1-.941-3.513zm2.823-20.705A1.884 1.884 0 0 1 16.529 9a1.883 1.883 0 0 1 .942 3.513v7.391L25 27.434V41h-7.529v-3.765h1.882v-6.198l-9.412-9.412v-9.112A1.884 1.884 0 0 1 10.882 9a1.883 1.883 0 0 1 .942 3.513v8.332l9.411 9.412v6.978h1.883v-9.022l-7.53-7.529zm9.899 11.482A1.883 1.883 0 1 1 25 20.294a1.883 1.883 0 0 1 1.819 2.37l1.946 1.946v11.684h8.722a1.884 1.884 0 0 1 3.513.941 1.883 1.883 0 0 1-3.513.941H26.882V25.39zM37.235 9.941V9H41v9.412h-2.434l-6.037 6.037v6.198h4.958a1.884 1.884 0 0 1 3.513.941 1.883 1.883 0 0 1-3.513.941h-6.84v-8.86l6.588-6.588v-5.257h-2.433l-5.647 5.647h-4.407a1.883 1.883 0 1 1 0-1.883h3.627l3.765-3.764h-7.392a1.883 1.883 0 1 1 0-1.883z" style="fill:#f1de7f"/></g></svg>