<?xml version="1.0" encoding="UTF-8" standalone="no"?><!DOCTYPE svg PUBLIC "-//W3C//DTD SVG 1.1//EN" "http://www.w3.org/Graphics/SVG/1.1/DTD/svg11.dtd"><svg width="100%" height="100%" viewBox="0 0 50 50" version="1.1" xmlns="http://www.w3.org/2000/svg" xmlns:xlink="http://www.w3.org/1999/xlink" xml:space="preserve" xmlns:serif="http://www.serif.com/" style="fill-rule:evenodd;clip-rule:evenodd;stroke-miterlimit:2.5;"><rect id="damage-destroyed-sensors" x="0" y="0" width="50" height="50" style="fill:none;"/><clipPath id="_clip1"><rect id="damage-destroyed-sensors1" serif:id="damage-destroyed-sensors" x="0" y="0" width="50" height="50"/></clipPath><g clip-path="url(#_clip1)"><g id="Damage-Hit-Frame" serif:id="Damage Hit Frame"><path id="Damage-Hit-Frame1" serif:id="Damage Hit Frame" d="M49,37.5L49,44C49,46.76 46.76,49 44,49L35,49L35,44L15,44L15,49L6,49C3.24,49 1,46.76 1,44L1,37.5L6,35L6,30L1,30L1,20L6,20L6,15L1,12.5L1,6C1,3.24 3.24,1 6,1L15,1L15,6L35,6L35,1L44,1C46.76,1 49,3.24 49,6L49,12.5L44,15L44,20L49,20L49,30L44,30L44,35L49,37.5Z" style="fill:#666;stroke:#000;stroke-width:2px;"/></g><g id="Sensors"><path id="Sensors1" serif:id="Sensors" d="M35.069,22.006C34.778,21.35 34.47,20.782 34.125,20.367C33.661,19.808 33.124,19.5 32.5,19.5C31.876,19.5 31.339,19.808 30.875,20.367C30.53,20.782 30.222,21.35 29.931,22.006C29.34,17.677 28.637,13.668 27.664,11.425C27.29,10.563 26.859,9.93 26.41,9.549C25.971,9.176 25.496,9 25,9C24.499,9 24.024,9.179 23.59,9.555C23.147,9.939 22.728,10.576 22.372,11.442C21.462,13.656 20.849,17.59 20.329,21.853C20.134,21.439 19.924,21.063 19.692,20.745C19.121,19.965 18.414,19.5 17.5,19.5C16.586,19.5 15.879,19.965 15.308,20.745C15.076,21.063 14.866,21.439 14.671,21.853C14.151,17.59 13.538,13.656 12.628,11.442C12.272,10.576 11.853,9.939 11.41,9.555C10.976,9.179 10.501,9 10,9L10,11C10.127,11 10.188,11.142 10.291,11.28C10.467,11.518 10.626,11.831 10.779,12.203C11.856,14.825 12.459,19.97 13.038,25.112L13.141,26.031C12.849,26.816 12.527,27.556 12.126,28.161C11.603,28.951 10.947,29.5 10,29.5L10,30.5C11.303,30.5 12.24,29.8 12.96,28.714C13.103,28.497 13.238,28.264 13.366,28.019C13.857,32.308 14.376,36.277 15.137,38.501C15.433,39.364 15.784,40 16.15,40.381C16.562,40.811 17.023,41 17.5,41C17.977,41 18.438,40.811 18.85,40.381C19.216,40 19.567,39.364 19.863,38.501C20.624,36.277 21.143,32.308 21.634,28.019C21.762,28.264 21.897,28.497 22.04,28.714C22.76,29.8 23.697,30.5 25,30.5C26.291,30.5 27.273,29.807 28.053,28.731C28.265,28.439 28.462,28.117 28.647,27.775C28.721,28.379 28.794,28.976 28.868,29.564C29.384,33.696 29.916,37.342 30.601,39.16C30.836,39.785 31.11,40.234 31.379,40.505C31.729,40.857 32.115,41 32.5,41C32.885,41 33.271,40.857 33.621,40.505C33.89,40.234 34.164,39.785 34.399,39.16C35.084,37.342 35.616,33.696 36.132,29.564C36.206,28.976 36.279,28.379 36.353,27.775C36.538,28.117 36.735,28.439 36.947,28.731C37.727,29.807 38.709,30.5 40,30.5L40,29.5C38.829,29.5 38.037,28.679 37.393,27.586C37.093,27.076 36.827,26.506 36.58,25.912C37.192,20.933 37.869,15.841 38.907,12.899C39.146,12.22 39.396,11.669 39.684,11.292C39.795,11.146 39.866,11 40,11L40,9C39.504,9 39.029,9.176 38.59,9.549C38.141,9.93 37.71,10.563 37.336,11.425C36.363,13.668 35.66,17.677 35.069,22.006ZM20.083,23.94C19.81,23.154 19.526,22.414 19.185,21.808C18.758,21.049 18.259,20.5 17.5,20.5C16.741,20.5 16.242,21.049 15.815,21.808C15.474,22.414 15.19,23.154 14.917,23.94C14.954,24.256 14.989,24.572 15.025,24.888C15.606,30.053 16.128,35.22 17.029,37.854C17.159,38.231 17.293,38.549 17.442,38.791C17.458,38.818 17.479,38.847 17.5,38.875C17.521,38.847 17.542,38.818 17.558,38.791C17.707,38.549 17.841,38.231 17.971,37.854C18.872,35.22 19.394,30.053 19.975,24.888C20.011,24.572 20.046,24.256 20.083,23.94ZM34.801,24.039C34.413,22.985 34.035,22.005 33.582,21.314C33.27,20.84 32.945,20.5 32.5,20.5C32.055,20.5 31.73,20.84 31.418,21.314C30.965,22.005 30.587,22.985 30.199,24.039C30.235,24.317 30.27,24.597 30.305,24.876C30.953,30.062 31.502,35.249 32.286,37.893C32.344,38.09 32.422,38.292 32.5,38.473C32.578,38.292 32.656,38.09 32.714,37.893C33.498,35.249 34.047,30.062 34.695,24.876C34.73,24.597 34.765,24.317 34.801,24.039ZM28.42,25.912C27.808,20.933 27.131,15.841 26.093,12.899C25.854,12.22 25.604,11.669 25.316,11.292C25.205,11.146 25.134,11 25,11C24.873,11 24.812,11.142 24.709,11.28C24.533,11.518 24.374,11.831 24.221,12.203C23.144,14.825 22.541,19.97 21.962,25.112L21.859,26.031C22.151,26.816 22.473,27.556 22.874,28.161C23.397,28.951 24.053,29.5 25,29.5C26.171,29.5 26.963,28.679 27.607,27.586C27.907,27.076 28.173,26.506 28.42,25.912Z"/></g></g></svg>