<svg xmlns="http://www.w3.org/2000/svg" xml:space="preserve" style="fill-rule:evenodd;clip-rule:evenodd;stroke-miterlimit:2.5" viewBox="0 0 50 50"><path d="M0 0h50v50H0z" style="fill:none"/><clipPath id="a"><path d="M0 0h50v50H0z"/></clipPath><g clip-path="url(#a)"><path d="M49 37.5V44c0 2.76-2.24 5-5 5h-9v-5H15v5H6c-2.76 0-5-2.24-5-5v-6.5L6 35v-5H1V20h5v-5l-5-2.5V6c0-2.76 2.24-5 5-5h9v5h20V1h9c2.76 0 5 2.24 5 5v6.5L44 15v5h5v10h-5v5z" style="fill:#300603;stroke:#8e1308;stroke-width:2px"/><path d="m23 42-5-2h4l-7-5 8 3-2-5 3 3-4-28 2 7 1-6 1 4 1-5 1 9 1-7 1 4 2-6-4 28 3-4-2 6 8-2-7 4h4l-5 2z" style="fill:#f1de7f"/></g></svg>