<svg xmlns="http://www.w3.org/2000/svg" xml:space="preserve" style="fill-rule:evenodd;clip-rule:evenodd;stroke-miterlimit:2.5" viewBox="0 0 50 50"><path d="M0 0h50v50H0z" style="fill:none"/><clipPath id="a"><path d="M0 0h50v50H0z"/></clipPath><g clip-path="url(#a)"><path d="M49 37.5V44c0 2.76-2.24 5-5 5h-9v-5H15v5H6c-2.76 0-5-2.24-5-5v-6.5L6 35v-5H1V20h5v-5l-5-2.5V6c0-2.76 2.24-5 5-5h9v5h20V1h9c2.76 0 5 2.24 5 5v6.5L44 15v5h5v10h-5v5z" style="fill:#10273d;stroke:#0077af;stroke-width:2px"/><path d="M24.379 37.182a1.028 1.028 0 1 1 1.242 0l.086.686c3.832-.073 7.324-.734 9.587-1.537 0 2.841-4.613 5.147-10.294 5.147s-10.294-2.306-10.294-5.147c2.263.803 5.755 1.464 9.587 1.537zm-6.585-8.057q3.603 2.034 7.206 2.027t7.206-2.027c-4.804 5.433-9.608 5.527-14.412 0m-2.059-4.11q4.633 2.034 9.265 2.027t9.265-2.027c-6.177 5.433-12.353 5.527-18.53 0m-2.059-4.117Q19.338 22.93 25 22.924c3.775-.002 7.549-.681 11.324-2.026-7.549 5.433-15.099 5.526-22.648 0m-2.058-4.126q6.69 2.034 13.382 2.027t13.382-2.027c-8.921 5.433-17.843 5.527-26.764 0m-2.059-4.125c5.147 1.357 10.294 2.03 15.441 2.027q7.72-.006 15.441-2.027c-10.294 5.433-20.588 5.527-30.882 0M7.5 8.522A77 77 0 0 0 25 10.549q8.75-.006 17.5-2.027c-11.667 5.433-23.333 5.527-35 0" style="fill:#f1de7f"/></g></svg>