<?xml version="1.0" encoding="UTF-8" standalone="no"?><!DOCTYPE svg PUBLIC "-//W3C//DTD SVG 1.1//EN" "http://www.w3.org/Graphics/SVG/1.1/DTD/svg11.dtd"><svg width="100%" height="100%" viewBox="0 0 50 50" version="1.1" xmlns="http://www.w3.org/2000/svg" xmlns:xlink="http://www.w3.org/1999/xlink" xml:space="preserve" xmlns:serif="http://www.serif.com/" style="fill-rule:evenodd;clip-rule:evenodd;stroke-miterlimit:2.5;"><rect id="damage-damaged-engines" x="0" y="0" width="50" height="50" style="fill:none;"/><clipPath id="_clip1"><rect id="damage-damaged-engines1" serif:id="damage-damaged-engines" x="0" y="0" width="50" height="50"/></clipPath><g clip-path="url(#_clip1)"><g id="Damage-Hit-Frame" serif:id="Damage Hit Frame"><path id="Damage-Hit-Frame1" serif:id="Damage Hit Frame" d="M49,37.5L49,44C49,46.76 46.76,49 44,49L35,49L35,44L15,44L15,49L6,49C3.24,49 1,46.76 1,44L1,37.5L6,35L6,30L1,30L1,20L6,20L6,15L1,12.5L1,6C1,3.24 3.24,1 6,1L15,1L15,6L35,6L35,1L44,1C46.76,1 49,3.24 49,6L49,12.5L44,15L44,20L49,20L49,30L44,30L44,35L49,37.5Z" style="fill:#524714;stroke:#f1de7f;stroke-width:2px;"/></g><g id="Warp-Core" serif:id="Warp Core"><path id="Warp-Core1" serif:id="Warp Core" d="M35,40C35,38.896 34.104,38 33,38L17,38C15.896,38 15,38.896 15,40C15,41.104 15.896,42 17,42L33,42C34.104,42 35,41.104 35,40ZM35,34C35,32.896 34.104,32 33,32L17,32C15.896,32 15,32.896 15,34C15,35.104 15.896,36 17,36L33,36C34.104,36 35,35.104 35,34ZM38,25C38,22.24 35.76,20 33,20L17,20C14.24,20 12,22.24 12,25C12,27.76 14.24,30 17,30L33,30C35.76,30 38,27.76 38,25ZM28,25C28,23.344 26.656,22 25,22C23.344,22 22,23.344 22,25C22,26.656 23.344,28 25,28C26.656,28 28,26.656 28,25ZM35,16C35,14.896 34.104,14 33,14L17,14C15.896,14 15,14.896 15,16C15,17.104 15.896,18 17,18L33,18C34.104,18 35,17.104 35,16ZM35,10C35,8.896 34.104,8 33,8L17,8C15.896,8 15,8.896 15,10C15,11.104 15.896,12 17,12L33,12C34.104,12 35,11.104 35,10Z" style="fill:#f1de7f;"/></g></g></svg>