<?xml version="1.0" encoding="UTF-8" standalone="no"?><!DOCTYPE svg PUBLIC "-//W3C//DTD SVG 1.1//EN" "http://www.w3.org/Graphics/SVG/1.1/DTD/svg11.dtd"><svg width="100%" height="100%" viewBox="0 0 50 50" version="1.1" xmlns="http://www.w3.org/2000/svg" xmlns:xlink="http://www.w3.org/1999/xlink" xml:space="preserve" xmlns:serif="http://www.serif.com/" style="fill-rule:evenodd;clip-rule:evenodd;stroke-miterlimit:2.5;"><rect id="damage-hit-structure" x="0" y="0" width="50" height="50" style="fill:none;"/><clipPath id="_clip1"><rect id="damage-hit-structure1" serif:id="damage-hit-structure" x="0" y="0" width="50" height="50"/></clipPath><g clip-path="url(#_clip1)"><g id="Damage-Hit-Frame" serif:id="Damage Hit Frame"><path id="Damage-Hit-Frame1" serif:id="Damage Hit Frame" d="M49,37.5L49,44C49,46.76 46.76,49 44,49L35,49L35,44L15,44L15,49L6,49C3.24,49 1,46.76 1,44L1,37.5L6,35L6,30L1,30L1,20L6,20L6,15L1,12.5L1,6C1,3.24 3.24,1 6,1L15,1L15,6L35,6L35,1L44,1C46.76,1 49,3.24 49,6L49,12.5L44,15L44,20L49,20L49,30L44,30L44,35L49,37.5Z" style="fill:#10273d;stroke:#0077af;stroke-width:2px;"/></g><g id="Structure"><path id="Structure1" serif:id="Structure" d="M40.267,38.483L28.978,8.38L27.978,8.898C27.086,9.359 26.073,9.62 25,9.62C23.927,9.62 22.914,9.359 22.022,8.898L21.022,8.38L9.733,38.483L10.639,38.847C15.079,40.635 19.926,41.62 25,41.62C30.074,41.62 34.921,40.635 39.361,38.847L40.267,38.483ZM15.106,29.852C17.891,30.885 20.882,31.494 24,31.602L24,39.606C19.895,39.495 15.958,38.706 12.296,37.344L15.106,29.852ZM34.894,29.852L37.704,37.344C34.042,38.706 30.105,39.495 26,39.606L26,31.602C29.118,31.495 32.109,30.885 34.894,29.852ZM31.382,20.487L34.192,27.979C31.625,28.93 28.871,29.494 26,29.601L26,21.593C27.883,21.492 29.691,21.11 31.382,20.487ZM18.618,20.487C20.309,21.11 22.117,21.492 24,21.593L24,29.601C21.129,29.494 18.375,28.93 15.808,27.979L18.618,20.487ZM19.32,18.614L22.13,11.122C22.725,11.336 23.352,11.485 24,11.561L24,19.59C22.365,19.492 20.793,19.155 19.32,18.614ZM30.68,18.614C29.207,19.155 27.635,19.492 26,19.59L26,11.561C26.648,11.485 27.275,11.336 27.87,11.122L27.87,11.122L30.68,18.614Z" style="fill:#f1de7f;"/></g></g></svg>