<?xml version="1.0" encoding="UTF-8" standalone="no"?><!DOCTYPE svg PUBLIC "-//W3C//DTD SVG 1.1//EN" "http://www.w3.org/Graphics/SVG/1.1/DTD/svg11.dtd"><svg width="100%" height="100%" viewBox="0 0 50 50" version="1.1" xmlns="http://www.w3.org/2000/svg" xmlns:xlink="http://www.w3.org/1999/xlink" xml:space="preserve" xmlns:serif="http://www.serif.com/" style="fill-rule:evenodd;clip-rule:evenodd;stroke-miterlimit:2.5;"><rect id="damage-destroyed-weapons" x="0" y="0" width="50" height="50" style="fill:none;"/><clipPath id="_clip1"><rect id="damage-destroyed-weapons1" serif:id="damage-destroyed-weapons" x="0" y="0" width="50" height="50"/></clipPath><g clip-path="url(#_clip1)"><g id="Damage-Hit-Frame" serif:id="Damage Hit Frame"><path id="Damage-Hit-Frame1" serif:id="Damage Hit Frame" d="M49,37.5L49,44C49,46.76 46.76,49 44,49L35,49L35,44L15,44L15,49L6,49C3.24,49 1,46.76 1,44L1,37.5L6,35L6,30L1,30L1,20L6,20L6,15L1,12.5L1,6C1,3.24 3.24,1 6,1L15,1L15,6L35,6L35,1L44,1C46.76,1 49,3.24 49,6L49,12.5L44,15L44,20L49,20L49,30L44,30L44,35L49,37.5Z" style="fill:#666;stroke:#000;stroke-width:2px;"/></g><g id="Weapons"><path id="Weapons1" serif:id="Weapons" d="M23,42L18,40L22,40L15,35L23,38L21,33L24,36L20,8L22,15L23,9L24,13L25,8L26,17L27,10L28,14L30,8L26,36L29,32L27,38L35,36L28,40L32,40L27,42L23,42Z"/></g></g></svg>