<?xml version="1.0" encoding="UTF-8" standalone="no"?><!DOCTYPE svg PUBLIC "-//W3C//DTD SVG 1.1//EN" "http://www.w3.org/Graphics/SVG/1.1/DTD/svg11.dtd"><svg width="100%" height="100%" viewBox="0 0 50 50" version="1.1" xmlns="http://www.w3.org/2000/svg" xmlns:xlink="http://www.w3.org/1999/xlink" xml:space="preserve" xmlns:serif="http://www.serif.com/" style="fill-rule:evenodd;clip-rule:evenodd;stroke-miterlimit:2.5;"><rect id="damage-disabled-comms" x="0" y="0" width="50" height="50" style="fill:none;"/><clipPath id="_clip1"><rect id="damage-disabled-comms1" serif:id="damage-disabled-comms" x="0" y="0" width="50" height="50"/></clipPath><g clip-path="url(#_clip1)"><g id="Damage-Hit-Frame" serif:id="Damage Hit Frame"><path id="Damage-Hit-Frame1" serif:id="Damage Hit Frame" d="M49,37.5L49,44C49,46.76 46.76,49 44,49L35,49L35,44L15,44L15,49L6,49C3.24,49 1,46.76 1,44L1,37.5L6,35L6,30L1,30L1,20L6,20L6,15L1,12.5L1,6C1,3.24 3.24,1 6,1L15,1L15,6L35,6L35,1L44,1C46.76,1 49,3.24 49,6L49,12.5L44,15L44,20L49,20L49,30L44,30L44,35L49,37.5Z" style="fill:#300603;stroke:#8e1308;stroke-width:2px;"/></g><g id="Comms"><path id="Comms1" serif:id="Comms" d="M24.397,36.827C24.156,36.644 24,36.355 24,36.029C24,35.478 24.448,35.029 25,35.029C25.552,35.029 26,35.478 26,36.029C26,36.355 25.844,36.644 25.603,36.827L25.687,37.493C29.409,37.422 32.801,36.78 35,36C35,38.76 30.519,41 25,41C19.481,41 15,38.76 15,36C17.199,36.78 20.591,37.422 24.313,37.493L24.397,36.827ZM18,29C20.333,30.318 22.667,30.972 25,30.969C27.333,30.966 29.667,30.307 32,29C27.333,34.278 22.667,34.369 18,29ZM16,25.007C19,26.325 22,26.979 25,26.976C28,26.974 31,26.315 34,25.007C28,30.285 22,30.376 16,25.007ZM14,21.007C17.667,22.325 21.333,22.979 25,22.976C28.667,22.974 32.333,22.315 36,21.007C28.667,26.285 21.333,26.376 14,21.007ZM12,17C16.333,18.318 20.667,18.972 25,18.969C29.333,18.966 33.667,18.307 38,17C29.333,22.278 20.667,22.369 12,17ZM10,12.993C15,14.31 20,14.964 25,14.962C30,14.959 35,14.3 40,12.993C30,18.271 20,18.362 10,12.993ZM8,8.985C13.667,10.303 19.333,10.957 25,10.954C30.667,10.952 36.333,10.293 42,8.985C30.667,14.263 19.333,14.354 8,8.985Z" style="fill:#f1de7f;"/></g></g></svg>