<svg xmlns="http://www.w3.org/2000/svg" xml:space="preserve" style="fill-rule:evenodd;clip-rule:evenodd;stroke-miterlimit:2.5" viewBox="0 0 50 50"><path d="M0 0h50v50H0z" style="fill:none"/><clipPath id="a"><path d="M0 0h50v50H0z"/></clipPath><g clip-path="url(#a)"><path d="M49 37.5V44c0 2.76-2.24 5-5 5h-9v-5H15v5H6c-2.76 0-5-2.24-5-5v-6.5L6 35v-5H1V20h5v-5l-5-2.5V6c0-2.76 2.24-5 5-5h9v5h20V1h9c2.76 0 5 2.24 5 5v6.5L44 15v5h5v10h-5v5z" style="fill:#524714;stroke:#f1de7f;stroke-width:2px"/><path d="M35.069 22.006c-.291-.656-.599-1.224-.944-1.639-.464-.559-1.001-.867-1.625-.867s-1.161.308-1.625.867c-.345.415-.653.983-.944 1.639-.591-4.329-1.294-8.338-2.267-10.581-.374-.862-.805-1.495-1.254-1.876C25.971 9.176 25.496 9 25 9c-.501 0-.976.179-1.41.555-.443.384-.862 1.021-1.218 1.887-.91 2.214-1.523 6.148-2.043 10.411a7 7 0 0 0-.637-1.108c-.571-.78-1.278-1.245-2.192-1.245s-1.621.465-2.192 1.245a7 7 0 0 0-.637 1.108c-.52-4.263-1.133-8.197-2.043-10.411-.356-.866-.775-1.503-1.218-1.887C10.976 9.179 10.501 9 10 9v2c.127 0 .188.142.291.28.176.238.335.551.488.923 1.077 2.622 1.68 7.767 2.259 12.909l.103.919c-.292.785-.614 1.525-1.015 2.13-.523.79-1.179 1.339-2.126 1.339v1c1.303 0 2.24-.7 2.96-1.786a8 8 0 0 0 .406-.695c.491 4.289 1.01 8.258 1.771 10.482.296.863.647 1.499 1.013 1.88.412.43.873.619 1.35.619s.938-.189 1.35-.619c.366-.381.717-1.017 1.013-1.88.761-2.224 1.28-6.193 1.771-10.482q.192.369.406.695C22.76 29.8 23.697 30.5 25 30.5c1.291 0 2.273-.693 3.053-1.769.212-.292.409-.614.594-.956q.11.907.221 1.789c.516 4.132 1.048 7.778 1.733 9.596.235.625.509 1.074.778 1.345.35.352.736.495 1.121.495s.771-.143 1.121-.495c.269-.271.543-.72.778-1.345.685-1.818 1.217-5.464 1.733-9.596q.11-.883.221-1.789c.185.342.382.664.594.956.78 1.076 1.762 1.769 3.053 1.769v-1c-1.171 0-1.963-.821-2.607-1.914-.3-.51-.566-1.08-.813-1.674.612-4.979 1.289-10.071 2.327-13.013.239-.679.489-1.23.777-1.607.111-.146.182-.292.316-.292V9c-.496 0-.971.176-1.41.549-.449.381-.88 1.014-1.254 1.876-.973 2.243-1.676 6.252-2.267 10.581M20.083 23.94c-.273-.786-.557-1.526-.898-2.132-.427-.759-.926-1.308-1.685-1.308s-1.258.549-1.685 1.308c-.341.606-.625 1.346-.898 2.132l.108.948c.581 5.165 1.103 10.332 2.004 12.966.13.377.264.695.413.937a1 1 0 0 0 .058.084 1 1 0 0 0 .058-.084c.149-.242.283-.56.413-.937.901-2.634 1.423-7.801 2.004-12.966zm14.718.099c-.388-1.054-.766-2.034-1.219-2.725-.312-.474-.637-.814-1.082-.814s-.77.34-1.082.814c-.453.691-.831 1.671-1.219 2.725l.106.837c.648 5.186 1.197 10.373 1.981 13.017.058.197.136.399.214.58.078-.181.156-.383.214-.58.784-2.644 1.333-7.831 1.981-13.017zm-6.381 1.873c-.612-4.979-1.289-10.071-2.327-13.013-.239-.679-.489-1.23-.777-1.607-.111-.146-.182-.292-.316-.292-.127 0-.188.142-.291.28-.176.238-.335.551-.488.923-1.077 2.622-1.68 7.767-2.259 12.909l-.103.919c.292.785.614 1.525 1.015 2.13.523.79 1.179 1.339 2.126 1.339 1.171 0 1.963-.821 2.607-1.914.3-.51.566-1.08.813-1.674" style="fill:#f1de7f"/></g></svg>