<svg xmlns="http://www.w3.org/2000/svg" xml:space="preserve" style="fill-rule:evenodd;clip-rule:evenodd;stroke-miterlimit:2.5" viewBox="0 0 50 50"><path d="M0 0h50v50H0z" style="fill:none"/><clipPath id="a"><path d="M0 0h50v50H0z"/></clipPath><g clip-path="url(#a)"><path d="M49 37.5V44c0 2.76-2.24 5-5 5h-9v-5H15v5H6c-2.76 0-5-2.24-5-5v-6.5L6 35v-5H1V20h5v-5l-5-2.5V6c0-2.76 2.24-5 5-5h9v5h20V1h9c2.76 0 5 2.24 5 5v6.5L44 15v5h5v10h-5v5z" style="fill:#666;stroke:#000;stroke-width:2px"/><path d="M40.267 38.483 28.978 8.38l-1 .518A6.5 6.5 0 0 1 25 9.62a6.5 6.5 0 0 1-2.978-.722l-1-.518L9.733 38.483l.906.364A38.4 38.4 0 0 0 25 41.62a38.4 38.4 0 0 0 14.361-2.773zm-25.161-8.631A28.4 28.4 0 0 0 24 31.602v8.004a36.3 36.3 0 0 1-11.704-2.262zm19.788 0 2.81 7.492A36.3 36.3 0 0 1 26 39.606v-8.004a28.3 28.3 0 0 0 8.894-1.75m-3.512-9.365 2.81 7.492A26.4 26.4 0 0 1 26 29.601v-8.008a18.4 18.4 0 0 0 5.382-1.106m-12.764 0A18.4 18.4 0 0 0 24 21.593v8.008a26.4 26.4 0 0 1-8.192-1.622zm.702-1.873 2.81-7.492a8.4 8.4 0 0 0 1.87.439v8.029a16.4 16.4 0 0 1-4.68-.976m11.36 0a16.4 16.4 0 0 1-4.68.976v-8.029a8.4 8.4 0 0 0 1.87-.439z"/></g></svg>