<svg xmlns="http://www.w3.org/2000/svg" xml:space="preserve" style="fill-rule:evenodd;clip-rule:evenodd;stroke-miterlimit:2.5" viewBox="0 0 50 50"><path d="M0 0h50v50H0z" style="fill:none"/><clipPath id="a"><path d="M0 0h50v50H0z"/></clipPath><g clip-path="url(#a)"><path d="M49 37.5V44c0 2.76-2.24 5-5 5h-9v-5H15v5H6c-2.76 0-5-2.24-5-5v-6.5L6 35v-5H1V20h5v-5l-5-2.5V6c0-2.76 2.24-5 5-5h9v5h20V1h9c2.76 0 5 2.24 5 5v6.5L44 15v5h5v10h-5v5z" style="fill:#10273d;stroke:#0077af;stroke-width:2px"/><path d="M34.412 39.118a1.884 1.884 0 0 0-1.883-1.883H17.471a1.883 1.883 0 0 0 0 3.765h15.058a1.883 1.883 0 0 0 1.883-1.882m0-5.647a1.884 1.884 0 0 0-1.883-1.883H17.471a1.884 1.884 0 0 0-1.883 1.883c0 1.038.844 1.882 1.883 1.882h15.058a1.884 1.884 0 0 0 1.883-1.882M37.235 25a4.71 4.71 0 0 0-4.706-4.706H17.471A4.71 4.71 0 0 0 12.765 25a4.71 4.71 0 0 0 4.706 4.706h15.058A4.71 4.71 0 0 0 37.235 25m-9.411 0A2.826 2.826 0 0 0 25 22.176 2.826 2.826 0 0 0 22.176 25 2.826 2.826 0 0 0 25 27.824 2.826 2.826 0 0 0 27.824 25m6.588-8.471a1.884 1.884 0 0 0-1.883-1.882H17.471a1.884 1.884 0 0 0-1.883 1.882c0 1.039.844 1.883 1.883 1.883h15.058a1.884 1.884 0 0 0 1.883-1.883m0-5.647A1.883 1.883 0 0 0 32.529 9H17.471a1.883 1.883 0 0 0 0 3.765h15.058a1.884 1.884 0 0 0 1.883-1.883" style="fill:#f1de7f"/></g></svg>