<svg xmlns="http://www.w3.org/2000/svg" xml:space="preserve" style="fill-rule:evenodd;clip-rule:evenodd;stroke-miterlimit:2.5" viewBox="0 0 50 50"><path d="M0 0h50v50H0z" style="fill:none"/><clipPath id="a"><path d="M0 0h50v50H0z"/></clipPath><g clip-path="url(#a)"><path d="M49 37.5V44c0 2.76-2.24 5-5 5h-9v-5H15v5H6c-2.76 0-5-2.24-5-5v-6.5L6 35v-5H1V20h5v-5l-5-2.5V6c0-2.76 2.24-5 5-5h9v5h20V1h9c2.76 0 5 2.24 5 5v6.5L44 15v5h5v10h-5v5z" style="fill:#524714;stroke:#f1de7f;stroke-width:2px"/><path d="M35 40a2 2 0 0 0-2-2H17a2 2 0 0 0 0 4h16a2 2 0 0 0 2-2m0-6a2 2 0 0 0-2-2H17a2 2 0 0 0 0 4h16a2 2 0 0 0 2-2m3-9c0-2.76-2.24-5-5-5H17c-2.76 0-5 2.24-5 5s2.24 5 5 5h16c2.76 0 5-2.24 5-5m-10 0a3.001 3.001 0 0 0-6 0 3.001 3.001 0 0 0 6 0m7-9a2 2 0 0 0-2-2H17a2 2 0 0 0 0 4h16a2 2 0 0 0 2-2m0-6a2 2 0 0 0-2-2H17a2 2 0 0 0 0 4h16a2 2 0 0 0 2-2" style="fill:#f1de7f"/></g></svg>