<svg xmlns="http://www.w3.org/2000/svg" xml:space="preserve" style="fill-rule:evenodd;clip-rule:evenodd;stroke-miterlimit:2.5" viewBox="0 0 50 50"><path d="M0 0h50v50H0z" style="fill:none"/><clipPath id="a"><path d="M0 0h50v50H0z"/></clipPath><g clip-path="url(#a)"><path d="M49 37.5V44c0 2.76-2.24 5-5 5h-9v-5H15v5H6c-2.76 0-5-2.24-5-5v-6.5L6 35v-5H1V20h5v-5l-5-2.5V6c0-2.76 2.24-5 5-5h9v5h20V1h9c2.76 0 5 2.24 5 5v6.5L44 15v5h5v10h-5v5z" style="fill:#300603;stroke:#8e1308;stroke-width:2px"/><path d="M12.765 33.211a1.881 1.881 0 1 1 1.882 0v4.269a1.883 1.883 0 0 1-.941 3.513 1.883 1.883 0 0 1-.941-3.513zm2.823-20.706a1.882 1.882 0 1 1 1.883 0v7.392L25 27.426v13.567h-7.529v-3.765h1.882V31.03l-9.412-9.412v-9.113a1.882 1.882 0 1 1 1.883 0v8.333l9.411 9.412v6.978h1.883v-9.022l-7.53-7.529zm9.899 11.483a1.883 1.883 0 1 1 1.332-1.331l1.946 1.946v11.684h8.722a1.882 1.882 0 1 1 0 1.882H26.882V25.382zM37.235 9.934v-.941H41v9.411h-2.434l-6.037 6.037v6.199h4.958a1.882 1.882 0 1 1 0 1.882h-6.84v-8.86l6.588-6.589v-5.257h-2.433l-5.647 5.647h-4.407a1.881 1.881 0 1 1 0-1.882h3.627l3.765-3.765h-7.392a1.881 1.881 0 1 1 0-1.882z" style="fill:#f1de7f"/></g></svg>