<?xml version="1.0" encoding="UTF-8" standalone="no"?><!DOCTYPE svg PUBLIC "-//W3C//DTD SVG 1.1//EN" "http://www.w3.org/Graphics/SVG/1.1/DTD/svg11.dtd"><svg width="100%" height="100%" viewBox="0 0 50 50" version="1.1" xmlns="http://www.w3.org/2000/svg" xmlns:xlink="http://www.w3.org/1999/xlink" xml:space="preserve" xmlns:serif="http://www.serif.com/" style="fill-rule:evenodd;clip-rule:evenodd;stroke-miterlimit:2.5;"><rect id="damage-hit-computers" x="0" y="0" width="50" height="50" style="fill:none;"/><clipPath id="_clip1"><rect id="damage-hit-computers1" serif:id="damage-hit-computers" x="0" y="0" width="50" height="50"/></clipPath><g clip-path="url(#_clip1)"><g id="Damage-Hit-Frame" serif:id="Damage Hit Frame"><path id="Damage-Hit-Frame1" serif:id="Damage Hit Frame" d="M49,37.5L49,44C49,46.76 46.76,49 44,49L35,49L35,44L15,44L15,49L6,49C3.24,49 1,46.76 1,44L1,37.5L6,35L6,30L1,30L1,20L6,20L6,15L1,12.5L1,6C1,3.24 3.24,1 6,1L15,1L15,6L35,6L35,1L44,1C46.76,1 49,3.24 49,6L49,12.5L44,15L44,20L49,20L49,30L44,30L44,35L49,37.5Z" style="fill:#10273d;stroke:#0077af;stroke-width:2px;"/></g><g id="Computers"><path id="Computers1" serif:id="Computers" d="M12.765,33.218C12.202,32.893 11.824,32.284 11.824,31.588C11.824,30.549 12.667,29.706 13.706,29.706C14.745,29.706 15.588,30.549 15.588,31.588C15.588,32.284 15.209,32.893 14.647,33.218L14.647,37.487C15.209,37.813 15.588,38.421 15.588,39.118C15.588,40.157 14.745,41 13.706,41C12.667,41 11.824,40.157 11.824,39.118C11.824,38.421 12.202,37.813 12.765,37.487L12.765,33.218ZM15.588,12.513C15.026,12.187 14.647,11.579 14.647,10.882C14.647,9.843 15.491,9 16.529,9C17.568,9 18.412,9.843 18.412,10.882C18.412,11.579 18.033,12.187 17.471,12.513L17.471,19.904L25,27.434L25,41L17.471,41L17.471,37.235L19.353,37.235L19.353,31.037L9.941,21.625L9.941,12.513C9.379,12.187 9,11.579 9,10.882C9,9.843 9.843,9 10.882,9C11.921,9 12.765,9.843 12.765,10.882C12.765,11.579 12.386,12.187 11.824,12.513L11.824,20.845L21.235,30.257L21.235,37.235L23.118,37.235L23.118,28.213L15.588,20.684L15.588,12.513ZM25.487,23.995C25.332,24.037 25.169,24.059 25,24.059C23.961,24.059 23.118,23.215 23.118,22.176C23.118,21.138 23.961,20.294 25,20.294C26.039,20.294 26.882,21.138 26.882,22.176C26.882,22.345 26.86,22.508 26.819,22.664L28.765,24.61C28.765,24.61 28.765,36.294 28.765,36.294L37.487,36.294C37.813,35.732 38.421,35.353 39.118,35.353C40.157,35.353 41,36.196 41,37.235C41,38.274 40.157,39.118 39.118,39.118C38.421,39.118 37.813,38.739 37.487,38.176L26.882,38.176C26.882,38.176 26.882,25.39 26.882,25.39L25.487,23.995ZM37.235,9.941L37.235,9L41,9L41,18.412L38.566,18.412L32.529,24.449C32.529,24.449 32.529,30.647 32.529,30.647L37.487,30.647C37.813,30.085 38.421,29.706 39.118,29.706C40.157,29.706 41,30.549 41,31.588C41,32.627 40.157,33.471 39.118,33.471C38.421,33.471 37.813,33.092 37.487,32.529L30.647,32.529L30.647,23.669L37.235,17.081L37.235,11.824L34.802,11.824L29.155,17.471L24.748,17.471C24.422,18.033 23.814,18.412 23.118,18.412C22.079,18.412 21.235,17.568 21.235,16.529C21.235,15.491 22.079,14.647 23.118,14.647C23.814,14.647 24.422,15.026 24.748,15.588L28.375,15.588L32.14,11.824L24.748,11.824C24.422,12.386 23.814,12.765 23.118,12.765C22.079,12.765 21.235,11.921 21.235,10.882C21.235,9.843 22.079,9 23.118,9C23.814,9 24.422,9.379 24.748,9.941L37.235,9.941Z" style="fill:#f1de7f;"/></g></g></svg>