<?xml version="1.0" encoding="UTF-8" standalone="no"?><!DOCTYPE svg PUBLIC "-//W3C//DTD SVG 1.1//EN" "http://www.w3.org/Graphics/SVG/1.1/DTD/svg11.dtd"><svg width="100%" height="100%" viewBox="0 0 50 50" version="1.1" xmlns="http://www.w3.org/2000/svg" xmlns:xlink="http://www.w3.org/1999/xlink" xml:space="preserve" xmlns:serif="http://www.serif.com/" style="fill-rule:evenodd;clip-rule:evenodd;stroke-miterlimit:2.5;"><rect id="damage-hit-comms" x="0" y="0" width="50" height="50" style="fill:none;"/><clipPath id="_clip1"><rect id="damage-hit-comms1" serif:id="damage-hit-comms" x="0" y="0" width="50" height="50"/></clipPath><g clip-path="url(#_clip1)"><g id="Damage-Hit-Frame" serif:id="Damage Hit Frame"><path id="Damage-Hit-Frame1" serif:id="Damage Hit Frame" d="M49,37.5L49,44C49,46.76 46.76,49 44,49L35,49L35,44L15,44L15,49L6,49C3.24,49 1,46.76 1,44L1,37.5L6,35L6,30L1,30L1,20L6,20L6,15L1,12.5L1,6C1,3.24 3.24,1 6,1L15,1L15,6L35,6L35,1L44,1C46.76,1 49,3.24 49,6L49,12.5L44,15L44,20L49,20L49,30L44,30L44,35L49,37.5Z" style="fill:#10273d;stroke:#0077af;stroke-width:2px;"/></g><g id="Comms"><path id="Comms1" serif:id="Comms" d="M24.379,37.182C24.131,36.994 23.971,36.696 23.971,36.361C23.971,35.793 24.432,35.332 25,35.332C25.568,35.332 26.029,35.793 26.029,36.361C26.029,36.696 25.869,36.994 25.621,37.182L25.707,37.868C29.539,37.795 33.031,37.134 35.294,36.331C35.294,39.172 30.681,41.478 25,41.478C19.319,41.478 14.706,39.172 14.706,36.331C16.969,37.134 20.461,37.795 24.293,37.868L24.379,37.182ZM17.794,29.125C20.196,30.482 22.598,31.155 25,31.152C27.402,31.149 29.804,30.471 32.206,29.125C27.402,34.558 22.598,34.652 17.794,29.125ZM15.735,25.015C18.824,26.372 21.912,27.045 25,27.042C28.088,27.039 31.176,26.361 34.265,25.015C28.088,30.448 21.912,30.542 15.735,25.015ZM13.676,20.898C17.451,22.254 21.225,22.927 25,22.924C28.775,22.922 32.549,22.243 36.324,20.898C28.775,26.331 21.225,26.424 13.676,20.898ZM11.618,16.772C16.078,18.129 20.539,18.802 25,18.799C29.461,18.796 33.922,18.118 38.382,16.772C29.461,22.205 20.539,22.299 11.618,16.772ZM9.559,12.647C14.706,14.004 19.853,14.677 25,14.674C30.147,14.671 35.294,13.993 40.441,12.647C30.147,18.08 19.853,18.174 9.559,12.647ZM7.5,8.522C13.333,9.878 19.167,10.551 25,10.549C30.833,10.546 36.667,9.868 42.5,8.522C30.833,13.955 19.167,14.049 7.5,8.522Z" style="fill:#f1de7f;"/></g></g></svg>