<?xml version="1.0" encoding="UTF-8" standalone="no"?><!DOCTYPE svg PUBLIC "-//W3C//DTD SVG 1.1//EN" "http://www.w3.org/Graphics/SVG/1.1/DTD/svg11.dtd"><svg width="100%" height="100%" viewBox="0 0 50 50" version="1.1" xmlns="http://www.w3.org/2000/svg" xmlns:xlink="http://www.w3.org/1999/xlink" xml:space="preserve" xmlns:serif="http://www.serif.com/" style="fill-rule:evenodd;clip-rule:evenodd;stroke-miterlimit:2.5;"><rect id="damage-damaged-computers" x="0" y="0" width="50" height="50" style="fill:none;"/><clipPath id="_clip1"><rect id="damage-damaged-computers1" serif:id="damage-damaged-computers" x="0" y="0" width="50" height="50"/></clipPath><g clip-path="url(#_clip1)"><g id="Damage-Hit-Frame" serif:id="Damage Hit Frame"><path id="Damage-Hit-Frame1" serif:id="Damage Hit Frame" d="M49,37.5L49,44C49,46.76 46.76,49 44,49L35,49L35,44L15,44L15,49L6,49C3.24,49 1,46.76 1,44L1,37.5L6,35L6,30L1,30L1,20L6,20L6,15L1,12.5L1,6C1,3.24 3.24,1 6,1L15,1L15,6L35,6L35,1L44,1C46.76,1 49,3.24 49,6L49,12.5L44,15L44,20L49,20L49,30L44,30L44,35L49,37.5Z" style="fill:#524714;stroke:#f1de7f;stroke-width:2px;"/></g><g id="Computers"><path id="Computers1" serif:id="Computers" d="M12.765,33.211C12.202,32.885 11.824,32.277 11.824,31.581C11.824,30.542 12.667,29.699 13.706,29.699C14.745,29.699 15.588,30.542 15.588,31.581C15.588,32.277 15.209,32.885 14.647,33.211L14.647,37.48C15.209,37.806 15.588,38.414 15.588,39.11C15.588,40.149 14.745,40.993 13.706,40.993C12.667,40.993 11.824,40.149 11.824,39.11C11.824,38.414 12.202,37.806 12.765,37.48L12.765,33.211ZM15.588,12.505C15.026,12.18 14.647,11.571 14.647,10.875C14.647,9.836 15.491,8.993 16.529,8.993C17.568,8.993 18.412,9.836 18.412,10.875C18.412,11.571 18.033,12.18 17.471,12.505L17.471,19.897L25,27.426L25,40.993L17.471,40.993L17.471,37.228L19.353,37.228L19.353,31.03L9.941,21.618L9.941,12.505C9.379,12.18 9,11.571 9,10.875C9,9.836 9.843,8.993 10.882,8.993C11.921,8.993 12.765,9.836 12.765,10.875C12.765,11.571 12.386,12.18 11.824,12.505L11.824,20.838L21.235,30.25L21.235,37.228L23.118,37.228L23.118,28.206L15.588,20.677L15.588,12.505ZM25.487,23.988C25.332,24.029 25.169,24.051 25,24.051C23.961,24.051 23.118,23.208 23.118,22.169C23.118,21.13 23.961,20.287 25,20.287C26.039,20.287 26.882,21.13 26.882,22.169C26.882,22.338 26.86,22.501 26.819,22.657L28.765,24.603C28.765,24.603 28.765,36.287 28.765,36.287L37.487,36.287C37.813,35.724 38.421,35.346 39.118,35.346C40.157,35.346 41,36.189 41,37.228C41,38.267 40.157,39.11 39.118,39.11C38.421,39.11 37.813,38.732 37.487,38.169L26.882,38.169C26.882,38.169 26.882,25.382 26.882,25.382L25.487,23.988ZM37.235,9.934L37.235,8.993L41,8.993L41,18.404L38.566,18.404L32.529,24.441C32.529,24.441 32.529,30.64 32.529,30.64L37.487,30.64C37.813,30.077 38.421,29.699 39.118,29.699C40.157,29.699 41,30.542 41,31.581C41,32.62 40.157,33.463 39.118,33.463C38.421,33.463 37.813,33.084 37.487,32.522L30.647,32.522L30.647,23.662L37.235,17.073L37.235,11.816L34.802,11.816L29.155,17.463L24.748,17.463C24.422,18.026 23.814,18.404 23.118,18.404C22.079,18.404 21.235,17.561 21.235,16.522C21.235,15.483 22.079,14.64 23.118,14.64C23.814,14.64 24.422,15.018 24.748,15.581L28.375,15.581L32.14,11.816L24.748,11.816C24.422,12.379 23.814,12.757 23.118,12.757C22.079,12.757 21.235,11.914 21.235,10.875C21.235,9.836 22.079,8.993 23.118,8.993C23.814,8.993 24.422,9.371 24.748,9.934L37.235,9.934Z" style="fill:#f1de7f;"/></g></g></svg>