<?xml version="1.0" encoding="UTF-8" standalone="no"?><!DOCTYPE svg PUBLIC "-//W3C//DTD SVG 1.1//EN" "http://www.w3.org/Graphics/SVG/1.1/DTD/svg11.dtd"><svg width="100%" height="100%" viewBox="0 0 50 50" version="1.1" xmlns="http://www.w3.org/2000/svg" xmlns:xlink="http://www.w3.org/1999/xlink" xml:space="preserve" xmlns:serif="http://www.serif.com/" style="fill-rule:evenodd;clip-rule:evenodd;stroke-linejoin:round;stroke-miterlimit:2;"><rect id="value-reason" x="0" y="0" width="50" height="50" style="fill:none;"/><clipPath id="_clip1"><rect id="value-reason1" serif:id="value-reason" x="0" y="0" width="50" height="50"/></clipPath><g clip-path="url(#_clip1)"><g id="Value-Frame" serif:id="Value Frame"><path d="M7.5,48L7.5,46.438C7.5,46.138 7.456,45.841 7.371,45.554C6.736,43.329 4,33.11 4,22.5C4,10 12.5,2 25,2C37.5,2 44,10 44,17.5C44,21.716 46.421,28.537 47.893,32.297C48.124,32.909 48.04,33.594 47.669,34.132C47.297,34.669 46.685,34.99 46.032,34.99C44.956,35 44,35 44,35L44,41C44,43.761 41.761,46 39,46C38.131,46 37.5,46 37.5,46L37.5,48L7.5,48Z" style="fill:#10273d;"/><path d="M7.5,48L7.5,46.438C7.5,46.138 7.456,45.841 7.371,45.554C6.736,43.329 4,33.11 4,22.5C4,10 12.5,2 25,2C37.5,2 44,10 44,17.5C44,21.716 46.421,28.537 47.893,32.297C48.124,32.909 48.04,33.594 47.669,34.132C47.297,34.669 46.685,34.99 46.032,34.99C44.956,35 44,35 44,35L44,41C44,43.761 41.761,46 39,46C38.131,46 37.5,46 37.5,46L37.5,48L7.5,48Z" style="fill:#10273d;"/><path d="M39.5,48L37.5,48L37.5,46C37.5,46 38.131,46 39,46C41.761,46 44,43.761 44,41L44,35C44,35 44.956,35 46.032,34.99C46.685,34.99 47.297,34.669 47.669,34.132C48.04,33.594 48.124,32.909 47.893,32.297C46.421,28.537 44,21.716 44,17.5C44,10 37.5,2 25,2C12.5,2 4,10 4,22.5C4,32.729 6.543,42.594 7.296,45.283C7.431,45.741 7.5,46.215 7.5,46.692L7.5,48L5.5,48L5.5,46.693C5.5,46.407 5.459,46.122 5.374,45.835L5.371,45.823C4.599,43.07 2,32.971 2,22.5C2,15.641 4.376,10.034 8.423,6.124C12.452,2.232 18.171,-0 25,-0C38.935,-0 46,9.139 46,17.5C46,21.512 48.354,27.99 49.76,31.579L49.764,31.591C50.227,32.817 50.059,34.191 49.314,35.269C48.572,36.342 47.352,36.984 46.048,36.99C46.032,36.99 46.016,36.99 46,36.99L46,41C46,44.698 43.133,47.726 39.5,47.982L39.5,48Z" style="fill:#0077af;"/></g><g id="Reason"><path id="Reason1" serif:id="Reason" d="M11.056,8.272L11.308,7.977C13.124,5.961 15.682,4.769 18.394,4.676C20.84,4.591 23.51,4.499 26.071,4.411C27.083,4.376 28.078,4.443 29.045,4.606L29.045,4.998C29.045,7.207 27.255,8.998 25.045,8.998C25.045,8.998 25.043,8.997 25.043,8.998C25.043,9.998 25.043,9.998 25.043,10.998C25.044,10.998 25.045,10.998 25.045,10.998C28.332,10.998 31.002,8.355 31.043,5.079C33.352,5.797 35.443,7.061 37.142,8.747C35.296,9.769 34.045,11.737 34.045,13.998C34.045,13.999 34.045,13.999 34.045,14C34.045,15.591 34.677,17.116 35.802,18.241C36.927,19.366 38.453,19.998 40.043,19.998C40.045,18.998 40.045,17.998 40.045,17.998L40.043,17.998C38.983,17.998 37.966,17.577 37.216,16.827C36.467,16.077 36.045,15.06 36.045,14C36.045,13.999 36.045,13.999 36.045,13.998C36.045,12.332 37.064,10.904 38.512,10.303C39.688,11.839 40.578,13.622 41.094,15.585C41.232,16.106 41.366,16.618 41.497,17.115C41.878,18.561 41.591,20.102 40.715,21.315C39.839,22.527 38.467,23.284 36.974,23.378C35.018,23.5 32.898,23.632 31.122,23.743C30.414,23.788 29.718,23.907 29.045,24.098L29.045,20.998L27.045,20.998L27.045,24.899C26.026,25.44 25.099,26.16 24.313,27.034L24.045,27.331L24.045,20.998C24.045,18.789 25.836,16.998 28.045,16.998C28.046,16.998 28.047,16.998 28.047,16.998C29.108,16.998 30.125,17.419 30.874,18.169C31.624,18.919 32.045,19.936 32.045,20.996L32.045,20.998C32.045,20.998 33.045,20.998 34.045,20.996C34.045,19.405 33.413,17.88 32.289,16.755C31.164,15.63 29.638,14.998 28.047,14.998C28.047,14.998 28.046,14.998 28.045,14.998C24.732,14.998 22.045,17.684 22.045,20.998L22.045,29.554L19.229,32.683C19.17,32.748 19.109,32.812 19.045,32.872L19.045,28.998C19.045,25.684 16.359,22.998 13.045,22.998C13.045,22.998 13.044,22.998 13.043,22.998C13.043,23.998 13.043,23.998 13.043,24.998C13.043,24.999 13.045,24.998 13.045,24.998C15.255,24.998 17.045,26.789 17.045,28.998L17.045,33.922C16.794,33.972 16.536,33.998 16.276,33.998C16.275,33.998 16.275,33.998 16.275,33.992C14.322,33.992 12.601,32.706 12.049,30.832C11.01,27.436 9.475,22.111 9.045,18.998L15.045,18.998C18.359,18.998 21.045,16.312 21.045,12.998C21.045,12.997 21.045,12.997 21.045,12.996C21.045,11.405 20.413,9.88 19.289,8.755C18.164,7.63 16.638,6.998 15.047,6.998C15.045,7.998 15.045,8.998 15.045,8.998L15.047,8.998C16.108,8.998 17.125,9.419 17.874,10.169C18.624,10.919 19.045,11.936 19.045,12.996C19.045,12.997 19.045,12.997 19.045,12.998C19.045,15.207 17.255,16.998 15.045,16.998L8.855,16.998C8.818,16.476 8.789,15.929 8.763,15.368C8.646,13.705 8.948,12.056 9.621,10.565C9.913,11.182 10.311,11.75 10.802,12.241C11.927,13.366 13.453,13.998 15.043,13.998C15.045,12.998 15.045,11.998 15.045,11.998L15.043,11.998C13.983,11.998 12.966,11.577 12.216,10.827C11.531,10.142 11.12,9.233 11.056,8.272Z" style="fill:#f1de7f;"/></g></g></svg>