<?xml version="1.0" encoding="UTF-8" standalone="no"?><!DOCTYPE svg PUBLIC "-//W3C//DTD SVG 1.1//EN" "http://www.w3.org/Graphics/SVG/1.1/DTD/svg11.dtd"><svg width="100%" height="100%" viewBox="0 0 50 50" version="1.1" xmlns="http://www.w3.org/2000/svg" xmlns:xlink="http://www.w3.org/1999/xlink" xml:space="preserve" xmlns:serif="http://www.serif.com/" style="fill-rule:evenodd;clip-rule:evenodd;stroke-linejoin:round;stroke-miterlimit:2;"><rect id="value-vulcan" x="0" y="0" width="50" height="50" style="fill:none;"/><clipPath id="_clip1"><rect id="value-vulcan1" serif:id="value-vulcan" x="0" y="0" width="50" height="50"/></clipPath><g clip-path="url(#_clip1)"><g id="Value-Frame" serif:id="Value Frame"><path d="M7.5,48L7.5,46.438C7.5,46.138 7.456,45.841 7.371,45.554C6.736,43.329 4,33.11 4,22.5C4,10 12.5,2 25,2C37.5,2 44,10 44,17.5C44,21.716 46.421,28.537 47.893,32.297C48.124,32.909 48.04,33.594 47.669,34.132C47.297,34.669 46.685,34.99 46.032,34.99C44.956,35 44,35 44,35L44,41C44,43.761 41.761,46 39,46C38.131,46 37.5,46 37.5,46L37.5,48L7.5,48Z" style="fill:#10273d;"/><path d="M7.5,48L7.5,46.438C7.5,46.138 7.456,45.841 7.371,45.554C6.736,43.329 4,33.11 4,22.5C4,10 12.5,2 25,2C37.5,2 44,10 44,17.5C44,21.716 46.421,28.537 47.893,32.297C48.124,32.909 48.04,33.594 47.669,34.132C47.297,34.669 46.685,34.99 46.032,34.99C44.956,35 44,35 44,35L44,41C44,43.761 41.761,46 39,46C38.131,46 37.5,46 37.5,46L37.5,48L7.5,48Z" style="fill:#10273d;"/><path d="M39.5,48L37.5,48L37.5,46C37.5,46 38.131,46 39,46C41.761,46 44,43.761 44,41L44,35C44,35 44.956,35 46.032,34.99C46.685,34.99 47.297,34.669 47.669,34.132C48.04,33.594 48.124,32.909 47.893,32.297C46.421,28.537 44,21.716 44,17.5C44,10 37.5,2 25,2C12.5,2 4,10 4,22.5C4,32.729 6.543,42.594 7.296,45.283C7.431,45.741 7.5,46.215 7.5,46.692L7.5,48L5.5,48L5.5,46.693C5.5,46.407 5.459,46.122 5.374,45.835L5.371,45.823C4.599,43.07 2,32.971 2,22.5C2,15.641 4.376,10.034 8.423,6.124C12.452,2.232 18.171,-0 25,-0C38.935,-0 46,9.139 46,17.5C46,21.512 48.354,27.99 49.76,31.579L49.764,31.591C50.227,32.817 50.059,34.191 49.314,35.269C48.572,36.342 47.352,36.984 46.048,36.99C46.032,36.99 46.016,36.99 46,36.99L46,41C46,44.698 43.133,47.726 39.5,47.982L39.5,48Z" style="fill:#0077af;"/></g><g id="Vulcan"><path id="Vulcan1" serif:id="Vulcan" d="M22.003,19.876L42.403,25.532L42.403,25.58L25.483,42.5C25.451,42.5 25.435,42.484 25.435,42.452C22.47,31.752 20.585,24.919 19.779,21.954C20.262,21.793 20.73,21.503 21.181,21.084C21.568,20.633 21.842,20.23 22.003,19.876ZM32.058,32.638L25.773,41.727L32.928,32.928L41.727,25.773L32.686,32.058L21.519,21.519L32.058,32.638ZM38.536,23.646L27.659,20.649C27.691,20.424 27.707,20.101 27.707,19.682C27.707,18.232 27.353,16.895 26.644,15.67C25.935,14.445 24.976,13.478 23.767,12.769C22.559,12.06 21.229,11.706 19.779,11.706C18.329,11.706 16.991,12.06 15.767,12.769C14.542,13.478 13.575,14.445 12.866,15.67C12.157,16.895 11.802,18.224 11.802,19.658C11.802,21.092 12.157,22.422 12.866,23.646C13.575,24.871 14.542,25.838 15.767,26.547C16.991,27.256 18.329,27.61 19.779,27.61C20.101,27.61 20.343,27.594 20.504,27.562L23.501,38.439L23.066,38.439C20.262,38.439 17.652,37.73 15.235,36.312C12.914,34.959 11.077,33.122 9.724,30.801C8.306,28.384 7.597,25.773 7.597,22.97C7.597,20.166 8.306,17.555 9.724,15.138C11.077,12.818 12.914,10.981 15.235,9.627C17.652,8.209 20.262,7.5 23.066,7.5C25.87,7.5 28.481,8.209 30.898,9.627C33.218,10.981 35.055,12.818 36.409,15.138C37.827,17.555 38.536,20.166 38.536,22.97L38.536,23.646ZM18.377,21.616C17.475,21.616 16.693,21.286 16.032,20.625C15.372,19.964 15.041,19.175 15.041,18.256C15.041,17.338 15.372,16.548 16.032,15.887C16.693,15.227 17.475,14.896 18.377,14.896C19.279,14.896 20.061,15.227 20.722,15.887C21.382,16.548 21.713,17.338 21.713,18.256C21.713,19.175 21.39,19.964 20.746,20.625C20.101,21.286 19.312,21.616 18.377,21.616Z" style="fill:#dbba57;fill-rule:nonzero;"/></g></g></svg>