<?xml version="1.0" encoding="UTF-8" standalone="no"?><!DOCTYPE svg PUBLIC "-//W3C//DTD SVG 1.1//EN" "http://www.w3.org/Graphics/SVG/1.1/DTD/svg11.dtd"><svg width="100%" height="100%" viewBox="0 0 50 50" version="1.1" xmlns="http://www.w3.org/2000/svg" xmlns:xlink="http://www.w3.org/1999/xlink" xml:space="preserve" xmlns:serif="http://www.serif.com/" style="fill-rule:evenodd;clip-rule:evenodd;stroke-linejoin:round;stroke-miterlimit:2;"><rect id="value-klingon" x="0" y="0" width="50" height="50" style="fill:none;"/><clipPath id="_clip1"><rect id="value-klingon1" serif:id="value-klingon" x="0" y="0" width="50" height="50"/></clipPath><g clip-path="url(#_clip1)"><g id="Value-Frame" serif:id="Value Frame"><path d="M7.5,48L7.5,46.438C7.5,46.138 7.456,45.841 7.371,45.554C6.736,43.329 4,33.11 4,22.5C4,10 12.5,2 25,2C37.5,2 44,10 44,17.5C44,21.716 46.421,28.537 47.893,32.297C48.124,32.909 48.04,33.594 47.669,34.132C47.297,34.669 46.685,34.99 46.032,34.99C44.956,35 44,35 44,35L44,41C44,43.761 41.761,46 39,46C38.131,46 37.5,46 37.5,46L37.5,48L7.5,48Z" style="fill:#10273d;"/><path d="M7.5,48L7.5,46.438C7.5,46.138 7.456,45.841 7.371,45.554C6.736,43.329 4,33.11 4,22.5C4,10 12.5,2 25,2C37.5,2 44,10 44,17.5C44,21.716 46.421,28.537 47.893,32.297C48.124,32.909 48.04,33.594 47.669,34.132C47.297,34.669 46.685,34.99 46.032,34.99C44.956,35 44,35 44,35L44,41C44,43.761 41.761,46 39,46C38.131,46 37.5,46 37.5,46L37.5,48L7.5,48Z" style="fill:#10273d;"/><path d="M39.5,48L37.5,48L37.5,46C37.5,46 38.131,46 39,46C41.761,46 44,43.761 44,41L44,35C44,35 44.956,35 46.032,34.99C46.685,34.99 47.297,34.669 47.669,34.132C48.04,33.594 48.124,32.909 47.893,32.297C46.421,28.537 44,21.716 44,17.5C44,10 37.5,2 25,2C12.5,2 4,10 4,22.5C4,32.729 6.543,42.594 7.296,45.283C7.431,45.741 7.5,46.215 7.5,46.692L7.5,48L5.5,48L5.5,46.693C5.5,46.407 5.459,46.122 5.374,45.835L5.371,45.823C4.599,43.07 2,32.971 2,22.5C2,15.641 4.376,10.034 8.423,6.124C12.452,2.232 18.171,-0 25,-0C38.935,-0 46,9.139 46,17.5C46,21.512 48.354,27.99 49.76,31.579L49.764,31.591C50.227,32.817 50.059,34.191 49.314,35.269C48.572,36.342 47.352,36.984 46.048,36.99C46.032,36.99 46.016,36.99 46,36.99L46,41C46,44.698 43.133,47.726 39.5,47.982L39.5,48Z" style="fill:#0077af;"/></g><g id="Klingon"><path id="Klingon1" serif:id="Klingon" d="M22.846,23.056C24.126,16.336 25.047,7.5 25.047,7.5C25.047,7.5 25.973,16.303 27.257,23.01C31.588,23.972 34.828,27.837 34.828,32.459C34.828,33.296 34.722,34.108 34.522,34.883C37.372,36.128 40.262,36.18 40.262,36.18C40.262,36.18 36.39,38.898 31.88,39.413C30.139,41.1 27.765,42.138 25.149,42.138C22.259,42.138 19.665,40.871 17.892,38.863C14.768,40.216 12.81,42.611 12.801,42.496C12.413,37.834 13.889,35.612 15.638,34.26C15.528,33.677 15.47,33.074 15.47,32.459C15.47,27.907 18.612,24.09 22.846,23.056ZM27.428,23.881C28.042,26.92 28.728,29.397 29.429,30.202L25.067,37.239L20.685,30.228C21.383,29.426 22.064,26.962 22.674,23.935C18.981,25.01 16.274,28.424 16.274,32.459C16.274,32.897 16.306,33.328 16.368,33.749C17.92,32.76 19.512,32.262 20.109,31.237L24.718,38.348C22.482,37.703 20.438,37.941 18.698,38.548C20.317,40.262 22.61,41.334 25.149,41.334C27.18,41.334 29.054,40.648 30.551,39.496C28.877,39.511 27.161,39.171 25.559,38.24L30.072,31.117C30.969,32.695 32.336,33.781 33.78,34.53C33.94,33.865 34.024,33.172 34.024,32.459C34.024,28.353 31.221,24.889 27.428,23.881Z" style="fill:#d23a2d;fill-rule:nonzero;"/></g></g></svg>