<?xml version="1.0" encoding="UTF-8" standalone="no"?><!DOCTYPE svg PUBLIC "-//W3C//DTD SVG 1.1//EN" "http://www.w3.org/Graphics/SVG/1.1/DTD/svg11.dtd"><svg width="100%" height="100%" viewBox="0 0 50 50" version="1.1" xmlns="http://www.w3.org/2000/svg" xmlns:xlink="http://www.w3.org/1999/xlink" xml:space="preserve" xmlns:serif="http://www.serif.com/" style="fill-rule:evenodd;clip-rule:evenodd;stroke-linejoin:round;stroke-miterlimit:2;"><rect id="value-ferengi" x="0" y="0" width="50" height="50" style="fill:none;"/><clipPath id="_clip1"><rect id="value-ferengi1" serif:id="value-ferengi" x="0" y="0" width="50" height="50"/></clipPath><g clip-path="url(#_clip1)"><g id="Value-Frame" serif:id="Value Frame"><path d="M7.5,48L7.5,46.438C7.5,46.138 7.456,45.841 7.371,45.554C6.736,43.329 4,33.11 4,22.5C4,10 12.5,2 25,2C37.5,2 44,10 44,17.5C44,21.716 46.421,28.537 47.893,32.297C48.124,32.909 48.04,33.594 47.669,34.132C47.297,34.669 46.685,34.99 46.032,34.99C44.956,35 44,35 44,35L44,41C44,43.761 41.761,46 39,46C38.131,46 37.5,46 37.5,46L37.5,48L7.5,48Z" style="fill:#10273d;"/><path d="M7.5,48L7.5,46.438C7.5,46.138 7.456,45.841 7.371,45.554C6.736,43.329 4,33.11 4,22.5C4,10 12.5,2 25,2C37.5,2 44,10 44,17.5C44,21.716 46.421,28.537 47.893,32.297C48.124,32.909 48.04,33.594 47.669,34.132C47.297,34.669 46.685,34.99 46.032,34.99C44.956,35 44,35 44,35L44,41C44,43.761 41.761,46 39,46C38.131,46 37.5,46 37.5,46L37.5,48L7.5,48Z" style="fill:#10273d;"/><path d="M39.5,48L37.5,48L37.5,46C37.5,46 38.131,46 39,46C41.761,46 44,43.761 44,41L44,35C44,35 44.956,35 46.032,34.99C46.685,34.99 47.297,34.669 47.669,34.132C48.04,33.594 48.124,32.909 47.893,32.297C46.421,28.537 44,21.716 44,17.5C44,10 37.5,2 25,2C12.5,2 4,10 4,22.5C4,32.729 6.543,42.594 7.296,45.283C7.431,45.741 7.5,46.215 7.5,46.692L7.5,48L5.5,48L5.5,46.693C5.5,46.407 5.459,46.122 5.374,45.835L5.371,45.823C4.599,43.07 2,32.971 2,22.5C2,15.641 4.376,10.034 8.423,6.124C12.452,2.232 18.171,-0 25,-0C38.935,-0 46,9.139 46,17.5C46,21.512 48.354,27.99 49.76,31.579L49.764,31.591C50.227,32.817 50.059,34.191 49.314,35.269C48.572,36.342 47.352,36.984 46.048,36.99C46.032,36.99 46.016,36.99 46,36.99L46,41C46,44.698 43.133,47.726 39.5,47.982L39.5,48Z" style="fill:#0077af;"/></g><g id="Ferengi"><path id="Ferengi1" serif:id="Ferengi" d="M42.5,26.573L35.077,39.206L32.079,39.256C25.787,39.354 22.1,39.338 21.018,39.206C17.479,38.813 14.595,37.65 12.367,35.716C10.597,34.242 9.302,32.357 8.483,30.063C7.86,28.457 7.533,26.884 7.5,25.344L23.132,25.344C23.165,26.589 23.509,27.884 24.164,29.228C24.951,30.833 26,32.128 27.31,33.111C28.883,34.258 30.702,34.831 32.767,34.831L41.025,26.573L42.5,26.573ZM38.764,25.344L30.997,33.258C28.998,32.767 27.441,31.767 26.327,30.26C25.475,29.178 24.934,27.933 24.705,26.524L25.885,26.524C26.213,27.507 26.721,28.31 27.409,28.933C27.966,29.391 28.769,29.817 29.817,30.211L32.767,25.344L38.764,25.344ZM42.5,23.427L41.025,23.427L32.767,15.169C30.702,15.169 28.883,15.742 27.31,16.889C26,17.872 24.951,19.167 24.164,20.772C23.509,22.116 23.165,23.411 23.132,24.656L7.5,24.656C7.533,23.116 7.86,21.543 8.483,19.937C9.302,17.643 10.597,15.758 12.367,14.284C14.595,12.35 17.479,11.187 21.018,10.794C22.1,10.662 25.787,10.646 32.079,10.744L35.077,10.794L42.5,23.427ZM38.764,24.656L32.767,24.656L29.817,19.789C28.769,20.183 27.966,20.609 27.409,21.067C26.721,21.69 26.213,22.493 25.885,23.476L24.705,23.476C24.934,22.067 25.475,20.805 26.327,19.691C27.441,18.216 28.998,17.217 30.997,16.692L38.764,24.656ZM28.933,27.261C28.31,27.261 27.786,27.04 27.36,26.598C26.934,26.155 26.721,25.623 26.721,25C26.721,24.377 26.934,23.845 27.36,23.402C27.786,22.96 28.31,22.739 28.933,22.739C29.555,22.739 30.088,22.96 30.53,23.402C30.973,23.845 31.194,24.377 31.194,25C31.194,25.623 30.973,26.155 30.53,26.598C30.088,27.04 29.555,27.261 28.933,27.261Z" style="fill:#78db57;fill-rule:nonzero;"/></g></g></svg>