<svg xmlns="http://www.w3.org/2000/svg" xml:space="preserve" style="fill-rule:evenodd;clip-rule:evenodd;stroke-linejoin:round;stroke-miterlimit:2" viewBox="0 0 50 50"><path d="M0 0h50v50H0z" style="fill:none"/><clipPath id="a"><path d="M0 0h50v50H0z"/></clipPath><g clip-path="url(#a)"><path d="M7.5 48v-1.562q0-.452-.129-.884C6.736 43.329 4 33.11 4 22.5 4 10 12.5 2 25 2s19 8 19 15.5c0 4.216 2.421 11.037 3.893 14.797a1.99 1.99 0 0 1-.224 1.835 1.99 1.99 0 0 1-1.637.858C44.956 35 44 35 44 35v6a5 5 0 0 1-5 5h-1.5v2z" style="fill:#10273d"/><path d="M7.5 48v-1.562q0-.452-.129-.884C6.736 43.329 4 33.11 4 22.5 4 10 12.5 2 25 2s19 8 19 15.5c0 4.216 2.421 11.037 3.893 14.797a1.99 1.99 0 0 1-.224 1.835 1.99 1.99 0 0 1-1.637.858C44.956 35 44 35 44 35v6a5 5 0 0 1-5 5h-1.5v2z" style="fill:#10273d"/><path d="M39.5 48h-2v-2H39a5 5 0 0 0 5-5v-6s.956 0 2.032-.01c.653 0 1.265-.321 1.637-.858a1.99 1.99 0 0 0 .224-1.835C46.421 28.537 44 21.716 44 17.5 44 10 37.5 2 25 2S4 10 4 22.5c0 10.229 2.543 20.094 3.296 22.783.135.458.204.932.204 1.409V48h-2v-1.307q0-.428-.126-.858l-.003-.012C4.599 43.07 2 32.971 2 22.5c0-6.859 2.376-12.466 6.423-16.376C12.452 2.232 18.171 0 25 0c13.935 0 21 9.139 21 17.5 0 4.012 2.354 10.49 3.76 14.079l.004.012a3.99 3.99 0 0 1-3.716 5.399H46V41a7 7 0 0 1-6.5 6.982z" style="fill:#0077af"/><path d="m26.725 23.933.045.046q.137.09.318.635l.318.999-.045-1.044a60 60 0 0 0-.159-1.884 39 39 0 0 0-.205-1.771q-.09-.613.182-1.066.09-.228.318-.454.862-.636.862-1.612t-.976-1.657q-.975-.681-2.36-.681t-2.384.681q-.998.68-.998 1.657 0 .976.862 1.612.181.136.318.454.273.453.182 1.066t-.205 1.771q-.113 1.158-.159 1.884l-.045 1.044.318-.999q.181-.545.318-.635l.045-.046zm0-.181h-3.45q.09-.363.182-.454.09-.091.408-.091h2.27q.317 0 .431.091.114.09.159.454m-1.18 3.177q1.997-.136 2.519-.295.522-.16.84.046.318.204.726.839-.998.41-2.042 1.362-1.18 1.09-1.68 2.225v-.636h-.363zm-1.09 0v3.541h-.363v.636q-.5-1.135-1.634-2.225-1.09-.953-2.088-1.362.453-.68.726-.817.318-.227.84-.068.522.16 2.519.295m1.09-.136v-.136h-1.09v.136q-2.043-.136-2.451-.272-.636-.227-.999.045-.181.091-.545.636l-.181.227q-.817-.273-1.18-.454v-.409l-.046-.181.046-.182-.046-.227-1.725-.409-.136.454q-2.36-1.497-3.7-3.631t-1.339-4.585q0-2.77 1.725-5.153t4.676-3.767Q21.504 7.5 25 7.5t6.446 1.385 4.676 3.767q1.725 2.384 1.725 5.153 0 2.45-1.339 4.585-1.34 2.134-3.7 3.631l-.136-.454-1.725.409-.046.227.046.182-.046.181v.409a9 9 0 0 1-.907.363l-.227.091q-.41-.636-.772-.886t-.999-.022q-.408.136-2.451.272m-1.09 3.813v.182l.182.272h-.409v-.454zm1.09 0h.227v.454h-.409l.182-.272zm.318.636a4 4 0 0 0-.227.908 325 325 0 0 0-.364 6.673l-.136.635h-.272l-.091-.635-.409-6.673a4 4 0 0 0-.227-.908zm-4.676-3.087a7.7 7.7 0 0 1 1.589 1.271q1.316 1.453 1.452 2.724v.272q.181 3.087.363 6.401l.091.409q-.999-.273-1.929-2.089t-1.43-4.358q-.545-2.996-.136-4.63m4.131 11.077.091-.409q.271-5.539.408-6.673.045-1.226 1.407-2.724a10.5 10.5 0 0 1 1.589-1.316q.409 1.679-.136 4.675-.5 2.543-1.43 4.358-.93 1.816-1.929 2.089m-.636.181.046.227h.544l.046-.227q.726-.182 1.475-1.226.749-1.043 1.339-2.678.273 1.044 2.406 1.18-.09 2.815-.091 4.041-1.77.09-3.177-.318a6 6 0 0 0-.863-.182q-.181 0-.613.046-.43.045-.794.045-.363 0-.794-.045a7 7 0 0 0-.613-.046q-.363.045-.863.182-1.407.408-3.132.318a88 88 0 0 1-.091-4.041q2.043-.136 2.406-1.18.545 1.589 1.294 2.656.749 1.066 1.475 1.248m-7.672-8.716h.091q.182-.09.227-.227l.046-.181q.045-.364.227-.613.181-.25.431-.25t.431.25q.182.249.227.613l.045.181q.046.137.227.227h.091l.046.091v.136h-2.134v-.136zm.046-.136.045-.817q.045-.363.318-.636a.85.85 0 0 1 .613-.272.85.85 0 0 1 .613.272q.272.273.317.636l.046.817q-.046 0-.136-.136l-.046-.182a1.33 1.33 0 0 0-.272-.658q-.227-.295-.545-.295a.63.63 0 0 0-.522.272 1.4 1.4 0 0 0-.25.681l-.045.182q-.046.136-.136.136m2.133 2.951v.227l.046.272q.045.681.136 3.722.045 2.679.045 3.723 0 .5-.363.772t-1.021.272-1.044-.272q-.387-.273-.386-.772 0-.907.091-3.723.09-3.04.136-3.722l.045-.499q.091-.363.182-.5l.091-.09q.045-.091 0-.091.227-.363.227-.863 0-.09-.023-.091h-.386v-.09h-.045v-.091h2.224v.091h-.045v.09h-.409v.091q0 .5.227.908v.046h.045q0 .09.046.09zm0-.409q0-.046-.09-.136 0-.046-.046-.091v-.091h-.045a1.53 1.53 0 0 1-.182-.771h.318zm-2.315 0 .046-1.089h.317a1.7 1.7 0 0 1-.181.771q-.046 0-.046.023v.023l-.045.045q0 .045-.045.046zm14.073-2.406h.091q.181-.09.227-.227l.045-.181a1.3 1.3 0 0 1 .227-.613q.182-.25.431-.25.25 0 .431.25.183.249.227.613l.046.181q.045.137.227.227h.091l.045.091v.136h-2.134v-.136zm.045-.136.046-.817a1.07 1.07 0 0 1 .317-.636.88.88 0 0 1 .636-.272q.363 0 .613.272.25.273.295.636l.045.817q-.045 0-.136-.136l-.045-.182a1.4 1.4 0 0 0-.25-.681.63.63 0 0 0-.522-.272q-.318 0-.545.295a1.33 1.33 0 0 0-.272.658l-.046.182q-.045.136-.136.136m2.134 2.951q.045.136.045.499.046.681.136 3.722.091 2.816.091 3.723 0 .5-.386.772-.385.272-1.044.272-.658 0-1.021-.272-.363-.273-.363-.772 0-1.044.045-3.723.091-3.04.136-3.722l.046-.499.181-.5.136-.181a1.9 1.9 0 0 0 .182-.863v-.091h-.409v-.09h-.045v-.091h2.224v.091h-.045v.045l.045.045h-.454v.091q0 .5.227.908v.046h.046l.045.09q.137.227.182.5m0-.409v-.091l-.046-.045q-.045-.046-.045-.091-.045 0-.045-.023v-.068a1.42 1.42 0 0 1-.227-.771h.317zm-2.315 0 .09-1.089h.273q0 .408-.182.771-.045 0-.045.023v.023zm2.133-2.043-.091.091h.091l-.091.091h.091l-.091.091h.091l-.091.09h.091l-.091.091h-1.77l-.091-.091h.091l-.091-.09h.091l-.091-.091h.091l-.091-.091h.091l-.091-.091zm-13.936 0-.091.091h.091l-.091.091h.091l-.091.091h.091l-.091.09h.091l-.091.091h-1.77l-.091-.091h.091l-.091-.09h.091l-.091-.091h.091l-.091-.091h.091l-.091-.091zm-.046-4.857-.045.182h-1.453l-.136-.409.091-.227 1.498.363zm13.71-.227-.136.409h-1.453l-.045-.182.045-.091 1.498-.363zm-7.445 5.084h-.409l-.181-.317v-3.904h.726v3.904zm2.905-6.582q2.86-.772 4.631-2.588 1.77-1.815 1.77-4.085 0-1.907-1.271-3.518-1.27-1.612-3.473-2.565-2.202-.954-4.789-.954t-4.789.954q-2.202.952-3.473 2.565-1.27 1.611-1.271 3.518 0 2.27 1.77 4.108 1.771 1.839 4.676 2.565.091.045.159-.023a.6.6 0 0 0 .113-.159q.046-.09-.022-.159a.6.6 0 0 0-.159-.113q-2.724-.681-4.403-2.406-1.68-1.725-1.68-3.813 0-1.77 1.226-3.291t3.313-2.406q2.09-.886 4.54-.886t4.54.886q2.088.885 3.313 2.406 1.226 1.52 1.226 3.291 0 2.133-1.657 3.836t-4.38 2.383a.6.6 0 0 0-.159.113q-.069.069-.023.159.09.227.272.182m-.045-.136q-.091 0-.091-.091t.046-.091q2.769-.726 4.471-2.451t1.702-3.904q0-1.817-1.248-3.359-1.248-1.544-3.359-2.452T25 11.086t-4.608.908-3.359 2.452q-1.248 1.542-1.248 3.359 0 2.178 1.702 3.927 1.702 1.747 4.471 2.428.091.091.069.136-.023.046-.114.046-2.814-.726-4.562-2.52-1.748-1.793-1.748-4.017 0-1.861 1.271-3.45 1.271-1.588 3.428-2.52 2.155-.93 4.698-.93t4.698.93q2.157.931 3.428 2.52t1.271 3.45q0 2.224-1.748 4.017t-4.562 2.52M25 15.626q1.317 0 2.247.635.93.636.931 1.521 0 .885-.772 1.521-.226.136-.363.499-.273.5-.182 1.18l.046.364q.272 2.27.317 3.223-.182-.59-.363-.727-.045-.498-.204-.635-.159-.136-.522-.136h-2.27q-.363 0-.522.136-.159.137-.204.635-.136.092-.363.681v.046q.045-.954.317-3.223l.046-.364q.09-.68-.182-1.18-.137-.363-.363-.499-.771-.636-.772-1.521 0-.885.931-1.521.93-.635 2.247-.635m0 4.539q.817 0 1.226-.476.409-.477.34-1.294t-.499-1.339q-.431-.522-1.067-.522t-1.067.522-.499 1.339q-.069.817.34 1.294.409.476 1.226.476m0-.136q-.818 0-1.158-.454t-.272-1.18.477-1.226.976-.499q.567 0 .953.499.386.5.431 1.181.182 1.679-1.407 1.679m0-.363q1.044 0 .953-1.407-.045-.636-.295-1.044-.25-.41-.635-.409-.386 0-.659.409-.272.408-.317 1.044-.091 1.407.953 1.407m0-.136q-.908 0-.817-1.271.045-.545.272-.908t.545-.363q.317 0 .545.363.227.363.272.908.091 1.27-.817 1.271m-.045-.273q.181 0 .227-.045h.227q.136-.09.136-.227v-.136q0-.227-.114-.499-.113-.273-.386-.296a.61.61 0 0 0-.476.159.64.64 0 0 0-.205.5.3.3 0 0 0 .091.227v.045l.046.091q0 .272.272.272.091 0 .182-.091m-.273-.953a.4.4 0 0 1 .341-.113q.204.022.295.249.045.091.045.545 0 .136-.091.114a.2.2 0 0 0-.159.022q-.068.046-.249-.045 0 .136-.114.136-.113 0-.113-.113a.44.44 0 0 0-.068-.227q-.069-.114-.068-.159 0-.228.181-.409m.318.726q.227 0 .227-.226 0-.228-.227-.227-.227 0-.227.227 0 .226.227.226m0-.136q-.045 0-.045-.068t.068-.068.068.068-.091.068" style="fill:#f1de7f;fill-rule:nonzero"/></g></svg>