<?xml version="1.0" encoding="UTF-8" standalone="no"?><!DOCTYPE svg PUBLIC "-//W3C//DTD SVG 1.1//EN" "http://www.w3.org/Graphics/SVG/1.1/DTD/svg11.dtd"><svg width="100%" height="100%" viewBox="0 0 50 50" version="1.1" xmlns="http://www.w3.org/2000/svg" xmlns:xlink="http://www.w3.org/1999/xlink" xml:space="preserve" xmlns:serif="http://www.serif.com/" style="fill-rule:evenodd;clip-rule:evenodd;stroke-linejoin:round;stroke-miterlimit:2;"><rect id="value-romulan" x="0" y="0" width="50" height="50" style="fill:none;"/><clipPath id="_clip1"><rect id="value-romulan1" serif:id="value-romulan" x="0" y="0" width="50" height="50"/></clipPath><g clip-path="url(#_clip1)"><g id="Value-Frame" serif:id="Value Frame"><path d="M7.5,48L7.5,46.438C7.5,46.138 7.456,45.841 7.371,45.554C6.736,43.329 4,33.11 4,22.5C4,10 12.5,2 25,2C37.5,2 44,10 44,17.5C44,21.716 46.421,28.537 47.893,32.297C48.124,32.909 48.04,33.594 47.669,34.132C47.297,34.669 46.685,34.99 46.032,34.99C44.956,35 44,35 44,35L44,41C44,43.761 41.761,46 39,46C38.131,46 37.5,46 37.5,46L37.5,48L7.5,48Z" style="fill:#10273d;"/><path d="M7.5,48L7.5,46.438C7.5,46.138 7.456,45.841 7.371,45.554C6.736,43.329 4,33.11 4,22.5C4,10 12.5,2 25,2C37.5,2 44,10 44,17.5C44,21.716 46.421,28.537 47.893,32.297C48.124,32.909 48.04,33.594 47.669,34.132C47.297,34.669 46.685,34.99 46.032,34.99C44.956,35 44,35 44,35L44,41C44,43.761 41.761,46 39,46C38.131,46 37.5,46 37.5,46L37.5,48L7.5,48Z" style="fill:#10273d;"/><path d="M39.5,48L37.5,48L37.5,46C37.5,46 38.131,46 39,46C41.761,46 44,43.761 44,41L44,35C44,35 44.956,35 46.032,34.99C46.685,34.99 47.297,34.669 47.669,34.132C48.04,33.594 48.124,32.909 47.893,32.297C46.421,28.537 44,21.716 44,17.5C44,10 37.5,2 25,2C12.5,2 4,10 4,22.5C4,32.729 6.543,42.594 7.296,45.283C7.431,45.741 7.5,46.215 7.5,46.692L7.5,48L5.5,48L5.5,46.693C5.5,46.407 5.459,46.122 5.374,45.835L5.371,45.823C4.599,43.07 2,32.971 2,22.5C2,15.641 4.376,10.034 8.423,6.124C12.452,2.232 18.171,-0 25,-0C38.935,-0 46,9.139 46,17.5C46,21.512 48.354,27.99 49.76,31.579L49.764,31.591C50.227,32.817 50.059,34.191 49.314,35.269C48.572,36.342 47.352,36.984 46.048,36.99C46.032,36.99 46.016,36.99 46,36.99L46,41C46,44.698 43.133,47.726 39.5,47.982L39.5,48Z" style="fill:#0077af;"/></g><g id="Romulan"><path id="Romulan1" serif:id="Romulan" d="M24.73,31.988C25.008,31.892 25.664,31.695 26.402,31.695L24.589,38.859L22.705,31.53C23.478,31.63 24.182,31.88 24.461,31.989L24.463,31.983L24.583,32.011L24.73,31.988ZM24.594,32.039L24.587,32.04L24.589,32.041C24.59,32.04 24.594,32.039 24.594,32.039ZM24.568,19.507C24.568,19.507 26.603,19.532 27.107,19.561C27.61,19.589 28.905,19.503 29.61,19.287C30.315,19.072 31.423,18.87 31.868,18.87C32.314,18.87 32.616,18.928 32.847,19.1C33.077,19.273 33.293,19.561 32.775,19.561C32.688,19.561 32.487,19.474 32.329,19.46C32.171,19.446 31.494,19.417 31.206,19.474C30.919,19.532 30.2,19.748 29.926,19.906C29.653,20.064 29.524,20.151 29.811,20.136C30.099,20.122 30.185,20.078 30.386,20.165C30.588,20.251 30.603,20.151 30.689,20.122C30.775,20.093 30.948,20.021 31.091,20.194C31.235,20.366 31.394,20.568 31.523,20.381C31.653,20.194 31.897,20.208 32.041,20.352C32.185,20.496 32.357,20.683 32.386,20.438C32.415,20.194 32.487,19.992 32.904,20.208C33.321,20.424 33.278,20.424 33.422,20.28C33.566,20.136 33.667,20.107 33.969,20.266C34.27,20.424 34.558,20.395 34.343,20.222C34.127,20.05 33.839,19.82 34.501,19.762C35.163,19.705 34.904,19.762 35.062,19.748C35.22,19.733 35.216,19.689 35.047,19.647C34.818,19.589 34.846,19.589 34.688,19.517C34.53,19.446 34.587,19.23 34.731,19.187C34.875,19.144 35.58,18.928 35.868,18.899C36.155,18.87 37.321,18.655 37.867,18.64C38.413,18.626 39.162,18.583 39.378,18.597C39.593,18.611 39.593,18.511 39.996,18.381C40.399,18.252 40.917,18.065 41.478,17.964C42.039,17.863 42.14,17.834 42.283,17.777C42.428,17.719 42.658,17.762 42.341,18.021C42.025,18.281 41.075,18.841 40.888,19.014C40.701,19.187 39.884,19.695 40.442,19.892C40.687,19.978 40.737,20.05 40.743,20.171C40.753,20.376 40.458,20.469 40.255,20.568C39.809,20.783 39.004,21.215 38.615,21.517C38.227,21.819 38.299,21.891 38.471,22.078C38.644,22.265 39.147,22.682 38.486,22.812C37.838,22.939 36.946,23.085 36.4,23.287C35.853,23.488 35.331,23.755 35.566,24.107C35.594,24.15 35.688,24.497 35.688,24.632C35.688,24.715 35.711,24.916 35.459,24.959C35.363,24.975 35.208,24.944 35.004,24.912C34.27,24.797 34.127,24.725 33.566,24.697C33.005,24.668 32.99,24.624 33.091,24.926C33.192,25.229 33.26,25.89 32.861,25.624C32.775,25.567 32.012,25.416 31.681,25.445C31.696,25.66 31.624,25.876 31.552,25.991C31.48,26.106 31.423,26.106 31.609,26.12C31.797,26.135 32.012,26.149 32.343,26.12C32.674,26.092 32.775,26.092 32.948,26.077C33.013,26.072 33.199,26.041 33.23,26.144C33.263,26.253 33.228,26.293 33.019,26.408C32.545,26.669 32.132,26.874 31.883,27.142C31.696,27.344 31.782,27.487 31.926,27.631C31.969,27.674 32.271,28.128 31.84,28.314C31.408,28.501 30.703,28.581 30.545,28.653C30.386,28.724 30.29,28.774 30.559,29.012C30.712,29.147 30.759,29.327 30.609,29.445C30.52,29.515 30.309,29.554 30.149,29.573C29.719,29.624 29.15,29.703 28.948,29.775C28.747,29.846 28.545,29.875 28.718,30.278C28.89,30.681 28.661,30.94 28.186,30.811C27.711,30.681 26.993,30.816 26.733,30.868C26.661,30.883 26.301,30.997 26.416,31.213C26.488,31.348 26.51,31.507 26.318,31.59C26.204,31.64 25.989,31.629 25.726,31.659C25.287,31.709 25.384,31.705 25.129,31.76C24.863,31.817 24.589,31.969 24.589,31.969C23.784,31.596 23.179,31.523 22.866,31.471C22.662,31.436 22.568,31.335 22.697,31.148C23.016,30.688 22.144,30.674 22.028,30.659C21.913,30.645 21.079,30.659 21,30.645C20.901,30.627 20.603,30.525 20.705,30.141C20.82,29.71 20.417,29.703 20.266,29.66C20.115,29.617 19.353,29.515 19.31,29.515C18.807,29.515 19.389,28.998 19.007,28.775C18.813,28.661 18.303,28.379 17.994,28.358C17.771,28.342 17.518,28.35 17.871,28.012C18.223,27.674 17.576,27.415 17.497,27.423C17.008,27.467 16.914,26.276 16.541,25.991C16.181,25.716 16.706,25.739 16.763,25.761C17.216,25.931 18.044,25.732 18.101,25.703C18.841,25.334 17.655,25.308 17.522,25.304C16.508,25.277 15.76,25.495 15.609,25.653C15.505,25.762 15.462,25.603 15.49,25.488C15.49,25.322 15.908,25.013 15.274,24.768C14.525,24.479 12.753,24.474 12.678,24.466C12.649,24.272 12.771,24.049 12.793,24.02C13.109,23.599 10.959,22.635 10.57,22.424C10.175,22.208 10.513,22.028 10.599,21.963C10.886,21.748 9.614,20.82 9.254,20.489C8.895,20.158 9.226,19.956 9.333,19.884C8.765,18.834 7.549,18.144 7.528,18.093C7.435,17.877 7.585,17.791 7.801,17.82C9.93,18.104 11.081,18.87 11.081,18.87C11.254,18.813 11.865,18.694 12.807,18.737C13.749,18.78 15.344,18.935 15.202,19.241C15.113,19.435 15.256,19.305 15.537,19.381C15.818,19.456 15.663,19.668 15.634,19.687C15.351,19.864 15.526,19.838 15.562,19.827C16.019,19.69 16.382,19.78 16.404,19.798C16.559,19.927 16.443,20.1 16.42,20.14C16.351,20.257 16.425,20.24 16.456,20.208C16.487,20.176 17.195,19.945 17.22,19.929C17.245,19.913 17.544,19.808 17.564,20.052C17.578,20.226 17.504,20.307 17.47,20.361C17.436,20.415 17.454,20.449 17.475,20.422C17.487,20.408 17.901,20.108 17.961,20.048C18.021,19.988 18.126,20.03 18.168,20.071C18.209,20.113 18.207,20.176 18.195,20.192C18.187,20.201 18.132,20.294 18.114,20.389C18.096,20.485 18.188,20.458 18.198,20.435C18.209,20.411 18.572,20.109 18.673,19.989C18.774,19.868 18.961,19.926 19.006,20.099C19.051,20.271 19.083,20.294 19.112,20.282C19.141,20.269 19.15,20.253 19.152,20.221C19.153,20.194 19.15,20.068 19.15,19.994C19.15,19.92 19.222,19.832 19.322,19.847C19.418,19.86 19.381,19.805 19.381,19.805C19.073,19.599 18.871,19.459 18.194,19.204C17.878,19.086 16.878,19.098 16.778,19.172C16.605,19.302 16.44,19.172 16.591,19.021C16.634,18.978 16.979,18.618 17.655,18.568C18.332,18.518 20,19.036 20.043,19.057C20.086,19.079 21.302,19.532 22.324,19.532C22.431,19.532 24.481,19.507 24.568,19.507ZM18.345,28.302C18.196,28.313 18.464,28.406 18.54,28.437C18.558,28.444 18.69,28.487 18.811,28.539C18.923,28.588 19.238,28.721 19.289,28.812C19.363,28.947 19.34,29.017 19.281,29.199C19.245,29.31 19.295,29.365 19.425,29.39C19.554,29.415 20.061,29.472 20.115,29.48C20.331,29.508 20.73,29.552 20.842,29.717C20.919,29.831 20.911,30.042 20.892,30.138C20.849,30.358 20.903,30.462 20.985,30.494C21.068,30.526 21.298,30.523 21.468,30.516C21.636,30.508 21.82,30.497 22.025,30.501C22.155,30.503 22.393,30.537 22.569,30.585C22.733,30.629 22.838,30.688 22.852,30.695C22.988,30.763 23.071,30.994 22.921,31.166C22.856,31.24 22.823,31.328 23.043,31.361C23.251,31.391 23.5,31.465 23.712,31.512C23.924,31.558 24.233,31.666 24.309,31.681C24.384,31.695 24.565,31.74 24.647,31.695C24.816,31.601 24.668,31.547 24.654,31.396C24.642,31.271 24.655,30.776 24.639,30.497C24.636,30.44 24.607,30.347 24.603,30.317C24.59,30.213 24.55,30.17 24.525,30.208C24.509,30.231 24.503,30.298 24.499,30.361C24.495,30.428 24.456,30.368 24.444,30.518C24.44,30.569 24.408,30.609 24.403,30.645C24.388,30.727 24.377,31.335 24.373,31.411C24.37,31.484 24.42,31.616 24.197,31.523C23.974,31.429 23.18,31.268 23.075,31.264C22.996,31.26 22.985,31.177 23.028,31.148C23.065,31.122 23.098,31.114 23.161,31.098C23.356,31.047 23.316,30.875 23.197,30.8C23.079,30.724 22.852,30.544 22.83,30.526C22.605,30.338 22.259,30.296 22.018,30.289C21.878,30.285 21.575,30.358 21.432,30.401C21.288,30.444 20.982,30.454 20.946,30.361C20.91,30.267 21.076,29.987 21.076,29.987C21.131,29.848 21.176,29.656 21.073,29.518C20.987,29.403 20.796,29.368 20.63,29.34C20.549,29.326 20.246,29.331 19.969,29.336C19.72,29.34 19.493,29.345 19.464,29.336C19.328,29.293 19.395,29.242 19.446,29.177C19.515,29.091 19.536,29.016 19.533,28.915C19.529,28.785 19.454,28.727 19.439,28.713C19.403,28.681 18.957,28.343 18.515,28.293C18.496,28.291 18.479,28.29 18.464,28.29C18.41,28.29 18.371,28.3 18.345,28.302ZM29.746,29.394C29.689,29.415 29.725,29.429 29.617,29.443C29.576,29.449 29.505,29.448 29.425,29.448C29.294,29.447 29.142,29.446 29.071,29.472C28.955,29.515 28.89,29.487 28.725,29.515C28.56,29.544 28.455,29.53 28.304,29.692C28.134,29.874 28.171,30.048 28.186,30.134C28.2,30.22 28.2,30.379 28.2,30.429C28.042,30.422 27.696,30.379 27.395,30.372C27.092,30.364 26.538,30.401 26.208,30.53C25.877,30.659 25.738,30.688 25.755,30.889C25.769,31.062 25.855,31.084 25.934,31.163C26.013,31.242 26.057,31.242 26.071,31.328C26.086,31.414 25.927,31.422 25.812,31.422C25.697,31.422 25.548,31.436 25.553,31.494C25.555,31.516 25.617,31.51 25.675,31.505C25.709,31.502 25.743,31.498 25.762,31.501C25.776,31.503 25.787,31.474 25.809,31.472C25.836,31.471 25.87,31.473 25.9,31.476C25.932,31.479 25.961,31.482 25.977,31.479C26.289,31.427 26.265,31.357 26.243,31.221C26.222,31.084 26.143,30.868 26.373,30.781C26.603,30.695 27.042,30.594 27.294,30.58C27.546,30.566 28.135,30.587 28.301,30.587C28.466,30.587 28.538,30.48 28.481,30.321C28.423,30.163 28.351,30.005 28.502,29.818C28.653,29.631 28.926,29.573 29.301,29.544C29.674,29.515 29.855,29.487 30.055,29.458C30.257,29.429 30.318,29.394 30.167,29.386C30.092,29.383 30.002,29.379 29.923,29.379C29.844,29.379 29.776,29.383 29.746,29.394ZM23.812,26.178C23.704,26.2 23.618,26.293 23.525,26.408C23.431,26.523 23.486,26.531 23.647,26.523C23.805,26.516 23.84,26.757 23.719,27.228C23.64,27.538 23.681,28.015 23.518,28.214C23.316,28.458 23.122,29.034 23.108,29.221C23.093,29.408 23.007,29.775 23.108,30.106C23.208,30.436 23.172,30.055 23.194,29.932C23.215,29.811 23.266,29.271 23.331,29.012C23.395,28.753 23.546,28.336 23.704,28.12C23.863,27.904 23.812,27.696 23.82,27.538C23.827,27.379 24.007,26.437 23.992,26.293C23.982,26.193 23.951,26.166 23.898,26.166C23.874,26.166 23.845,26.172 23.812,26.178ZM25.345,26.308C25.323,26.387 25.301,26.408 25.359,26.574C25.416,26.739 25.445,27.257 25.445,27.365C25.445,27.473 25.4,28.061 25.431,28.192C25.467,28.343 25.632,28.854 25.704,28.955C25.776,29.055 25.884,29.365 25.898,29.472C25.913,29.58 25.934,29.739 25.934,29.818C25.934,29.94 25.927,30.041 25.985,30.062C26.043,30.084 26.05,29.926 26.057,29.861C26.064,29.796 26.086,29.458 26.071,29.358C26.057,29.256 25.905,28.796 25.848,28.71C25.791,28.624 25.64,28.257 25.618,28.135C25.597,28.012 25.597,27.509 25.575,27.257C25.553,27.005 25.474,26.682 25.431,26.596C25.388,26.509 25.431,26.437 25.495,26.437C25.56,26.437 25.69,26.437 25.711,26.43C25.656,26.375 25.654,26.307 25.387,26.307C25.373,26.307 25.359,26.307 25.345,26.308ZM25.747,25.905C25.704,25.912 25.632,25.962 25.826,26.092C26.021,26.221 26.769,27.833 26.819,27.94C26.869,28.049 26.797,28.127 26.948,28.235C27.1,28.343 27.33,28.724 27.452,28.84C27.574,28.955 27.804,29.394 27.862,29.494C27.919,29.594 27.97,29.645 27.956,29.415C27.941,29.185 27.754,28.933 27.689,28.804C27.625,28.674 27.438,28.458 27.416,28.444C27.395,28.429 27.301,28.386 27.344,28.329C27.387,28.271 27.387,28.286 27.207,28.113C27.027,27.94 27.078,27.991 27.027,27.897C26.977,27.804 26.783,27.214 26.647,27.012C26.51,26.811 26.143,26.286 26.1,26.236C26.057,26.185 25.992,26.034 26.215,26.063C26.344,26.08 26.373,26.07 26.416,26.027C26.46,25.984 26.316,25.926 26.229,25.912C26.179,25.904 26.037,25.9 25.92,25.9C25.837,25.9 25.765,25.902 25.747,25.905ZM23.273,25.912C23.079,25.962 23.064,25.934 22.669,26.149C22.273,26.365 22.581,26.275 22.784,26.207C23.129,26.092 23.151,26.267 23.122,26.444C23.1,26.574 23.064,26.639 22.891,26.797C22.666,27.003 22.518,27.444 22.467,27.502C22.373,27.61 22.496,27.66 22.201,27.89C21.991,28.054 21.856,28.286 21.748,28.393C21.64,28.502 21.439,28.775 21.338,29.156C21.237,29.537 21.352,29.336 21.374,29.256C21.396,29.177 21.719,28.653 21.842,28.523C21.964,28.393 22.194,28.019 22.388,27.904C22.582,27.79 22.539,27.71 22.568,27.638C22.597,27.566 22.72,27.282 22.834,27.149C22.964,26.998 23.46,26.322 23.474,26.092C23.484,25.935 23.477,25.885 23.41,25.885C23.379,25.885 23.335,25.896 23.273,25.912ZM23.942,28.314C23.834,28.581 23.638,29.023 23.525,29.199C23.381,29.422 23.518,29.386 23.64,29.321C23.79,29.242 23.97,29.077 24.047,28.892C24.153,28.636 24.117,28.339 24.071,28.214C24.048,28.149 24.029,28.125 24.015,28.125C23.981,28.125 23.965,28.257 23.942,28.314ZM24.554,29.353C24.568,29.336 24.58,29.297 24.589,29.221C24.625,28.918 24.575,28.998 24.64,28.883C24.704,28.768 24.596,28.696 24.683,28.581C24.725,28.525 24.852,28.287 24.926,28.026C25.004,27.749 25.035,27.538 25.05,27.372C25.063,27.223 24.993,26.588 24.992,26.487C24.985,25.862 24.915,25.626 25.237,25.351C25.287,25.308 25.418,25.318 25.452,25.013C25.465,24.904 25.445,24.868 25.415,24.868C25.376,24.868 25.319,24.932 25.294,24.977C25.251,25.056 24.776,25.545 24.783,25.847C24.789,26.092 24.87,26.754 24.834,27.063C24.807,27.295 24.683,27.648 24.622,27.644C24.627,27.623 24.589,27.6 24.589,27.502C24.589,27.106 24.611,27.027 24.553,26.789C24.495,26.552 24.38,26.336 24.359,26.142C24.338,25.948 24.338,25.782 24.294,25.703C24.27,25.659 24.225,25.667 24.188,25.674C24.159,25.68 24.135,25.686 24.129,25.667C24.115,25.624 24.115,25.595 24.222,25.524C24.33,25.452 24.318,25.359 24.33,25.286C24.344,25.2 24.359,25.092 24.237,25.164C24.115,25.236 24.151,25.337 24.014,25.214C23.877,25.092 23.805,24.934 23.733,24.891C23.661,24.847 23.553,24.74 23.726,24.74C23.769,24.74 23.96,24.765 23.983,24.748C24.093,24.668 23.963,24.603 23.927,24.524C23.892,24.445 23.912,24.328 23.919,24.164C23.927,23.983 23.898,23.863 23.892,23.819C23.881,23.746 23.887,23.558 23.986,23.46C24.024,23.421 24.086,23.412 24.143,23.38C24.344,23.265 24.38,23.128 24.46,23.02C24.539,22.912 24.568,22.675 24.388,22.927C24.208,23.179 24.176,23.266 23.992,23.301C23.877,23.323 23.956,23.459 23.805,23.502C23.654,23.546 23.697,23.632 23.553,23.43C23.41,23.229 23.187,22.905 23.086,22.834C22.985,22.762 22.662,22.38 22.539,22.258C22.417,22.136 22.071,21.64 22.057,21.517C22.051,21.46 21.997,21.371 21.998,21.28C21.999,21.162 21.989,21.058 21.923,21.058C21.896,21.058 21.86,21.075 21.813,21.114C21.554,21.33 21.712,21.661 21.798,21.762C21.885,21.862 22.637,22.99 22.906,23.128C23.072,23.214 23.295,23.352 23.386,23.447C23.456,23.521 23.443,23.588 23.331,23.581C23.071,23.567 23.28,24.222 23.381,24.308C23.45,24.367 23.525,24.495 23.575,24.639C23.606,24.73 23.561,24.869 23.596,25.027C23.607,25.076 23.741,25.25 23.934,25.383C23.998,25.426 23.999,25.513 24.028,25.588C24.143,25.883 24.093,25.991 24.143,26.257C24.166,26.378 24.151,26.631 24.201,26.775C24.251,26.919 24.344,27.185 24.366,27.235C24.388,27.286 24.438,27.372 24.373,27.71C24.309,28.049 24.309,28.581 24.323,28.674C24.338,28.768 24.417,29.127 24.438,29.192C24.455,29.241 24.556,29.418 24.554,29.353ZM24.553,28.968C24.552,29.044 24.552,29.113 24.552,29.172C24.552,29.232 24.552,29.281 24.553,29.317C24.552,29.245 24.552,29.12 24.553,28.968ZM31.246,28.304C31.171,28.311 31.253,28.325 31.117,28.347C30.98,28.368 30.653,28.379 30.477,28.419C30.3,28.458 30.113,28.516 29.97,28.66C29.913,28.716 29.88,28.752 29.91,28.815C29.97,28.94 30.048,28.929 30.077,28.983C30.12,29.063 30.142,29.102 30.232,29.16C30.322,29.217 30.451,29.282 30.487,29.253C30.531,29.218 30.419,29.135 30.401,29.113C30.369,29.073 30.2,28.973 30.2,28.775C30.2,28.652 30.343,28.566 30.444,28.538C30.545,28.509 30.779,28.444 30.901,28.422C31.023,28.401 31.279,28.347 31.318,28.332C31.352,28.32 31.33,28.302 31.276,28.302C31.267,28.302 31.257,28.303 31.246,28.304ZM25.266,28.005C25.188,28.034 25.186,28.068 25.186,28.277L25.186,28.293C25.186,28.516 25.237,28.753 25.366,28.955C25.42,29.039 25.495,29.221 25.589,29.214C25.625,29.211 25.632,29.12 25.597,29.062C25.56,29.005 25.495,28.789 25.431,28.681C25.366,28.574 25.337,28.314 25.323,28.221C25.31,28.135 25.339,28.002 25.283,28.002C25.278,28.002 25.272,28.003 25.266,28.005ZM22.841,27.358C22.726,27.588 22.683,27.638 22.705,27.724C22.726,27.811 22.69,27.976 22.597,27.983C22.503,27.991 22.453,28.005 22.367,28.099C22.28,28.192 21.978,28.588 21.964,28.609C21.826,28.815 21.892,28.854 22.007,28.861C22.122,28.868 22.554,28.717 22.69,28.653C22.827,28.588 23.201,28.3 23.194,27.861C23.189,27.588 23.093,27.43 23.093,27.401C23.093,27.381 23.029,27.26 22.951,27.26C22.916,27.26 22.877,27.285 22.841,27.358ZM26.413,27.717C26.384,27.732 26.395,27.764 26.388,27.833C26.383,27.877 26.412,27.945 26.423,28.027C26.429,28.078 26.407,28.139 26.438,28.192C26.513,28.322 26.617,28.458 26.654,28.495C26.689,28.53 26.999,28.804 26.941,28.76C26.914,28.74 26.948,28.773 26.997,28.807C27.05,28.842 27.118,28.878 27.143,28.847C27.201,28.77 27.15,28.746 27.128,28.717C27.107,28.688 27.035,28.559 26.985,28.516C26.934,28.472 26.862,28.386 26.776,28.329C26.689,28.271 26.689,28.228 26.668,28.17C26.647,28.113 26.553,27.861 26.517,27.811C26.486,27.768 26.463,27.713 26.429,27.713C26.424,27.713 26.418,27.714 26.413,27.717ZM24.555,28.844C24.555,28.824 24.556,28.803 24.556,28.782L24.555,28.844ZM26.33,25.502C26.258,25.574 26.416,25.631 26.474,25.675C26.509,25.701 26.665,25.79 26.806,25.917C26.894,25.997 26.963,26.109 27.035,26.178C27.222,26.358 27.754,27.012 27.804,27.07C27.855,27.127 27.977,27.394 28.035,27.466C28.092,27.538 28.675,27.818 28.833,27.962C28.913,28.035 29.107,28.166 29.267,28.312C29.422,28.454 29.543,28.611 29.602,28.688C29.725,28.847 29.718,28.739 29.66,28.631C29.602,28.523 29.66,28.48 29.552,28.329C29.445,28.178 28.984,27.854 28.812,27.768C28.639,27.681 28.214,27.452 28.128,27.351C28.042,27.25 27.977,27.192 28.035,27.092C28.092,26.991 28.171,27.056 28.272,27.12C28.373,27.185 28.783,27.372 28.963,27.423C29.143,27.473 29.926,27.581 30.135,27.588C30.343,27.595 30.984,27.552 31.091,27.523C31.199,27.495 31.25,27.372 31.171,27.293C31.091,27.214 30.308,26.861 30.308,26.861C30.128,26.804 30.013,26.674 29.754,26.833C29.495,26.991 28.982,26.821 28.869,26.782C28.552,26.674 28.292,26.565 27.97,26.178C27.898,26.092 27.639,25.869 27.589,25.847C27.539,25.825 27.481,25.754 27.38,25.775C27.279,25.797 27.315,25.948 27.315,25.998C27.315,26.049 27.395,26.243 27.409,26.279C27.423,26.315 27.416,26.466 27.301,26.344C27.186,26.221 26.848,25.804 26.776,25.775C26.704,25.746 26.617,25.725 26.632,25.66C26.638,25.632 26.618,25.578 26.682,25.559C26.762,25.534 26.938,25.546 27.042,25.538C27.229,25.524 26.812,25.502 26.617,25.502C26.531,25.502 26.464,25.47 26.407,25.47C26.379,25.47 26.354,25.478 26.33,25.502ZM24.557,28.713L24.556,28.765L24.558,28.682L24.557,28.713ZM22.777,25.545C22.532,25.56 22.144,25.56 21.856,25.746C21.568,25.934 21.05,26.265 20.949,26.38C20.849,26.494 20.892,26.581 20.662,26.639C20.547,26.667 20.144,26.725 19.777,26.854C19.41,26.984 19.079,27.185 19.051,27.214C18.909,27.355 18.677,27.43 19.051,27.43C19.526,27.43 20.259,27.444 20.633,27.271C21.007,27.099 20.993,27.315 20.763,27.444C20.648,27.509 20.453,27.627 20.29,27.8C20.126,27.973 19.992,28.199 19.943,28.307C19.869,28.47 19.807,28.644 19.857,28.628C19.88,28.621 19.909,28.557 20,28.465C20.288,28.178 20.692,27.612 21.101,27.394C21.719,27.063 21.295,27.156 21.511,26.984C21.602,26.911 21.776,26.711 22.009,26.489C22.328,26.186 22.72,25.848 22.82,25.79C22.985,25.693 23.018,25.544 22.806,25.544C22.797,25.544 22.787,25.545 22.777,25.545ZM24.568,28.341L24.561,28.562C24.563,28.488 24.565,28.414 24.568,28.341ZM27.143,26.861C27.027,26.897 27.107,27.135 27.121,27.199C27.136,27.264 27.193,27.588 27.416,27.71C27.489,27.75 27.533,27.82 27.587,27.87C27.697,27.973 27.803,28.06 27.963,28.113C28.2,28.192 28.632,28.314 28.847,28.343C29.063,28.372 29.063,28.35 28.955,28.25C28.847,28.149 28.38,27.782 28.186,27.717C27.992,27.653 27.999,27.681 27.855,27.595C27.711,27.509 27.589,27.315 27.531,27.221C27.473,27.127 27.373,27.027 27.373,27.027C27.318,26.93 27.274,26.853 27.192,26.853C27.177,26.853 27.161,26.856 27.143,26.861ZM24.578,28.111C24.576,28.145 24.575,28.18 24.573,28.215C24.572,28.251 24.57,28.287 24.569,28.324C24.572,28.251 24.575,28.179 24.578,28.111ZM31.818,26.883C31.595,26.916 31.511,27.034 31.48,27.092C31.457,27.134 31.426,27.387 31.52,27.52C31.613,27.653 31.692,27.851 31.725,27.908C31.757,27.965 31.774,27.994 31.748,28.05C31.726,28.097 31.68,28.078 31.69,28.131C31.696,28.158 31.692,28.111 31.829,28.102C31.888,28.098 31.931,28.019 31.915,27.962C31.874,27.815 31.779,27.714 31.736,27.634C31.692,27.556 31.624,27.401 31.634,27.311C31.645,27.221 31.703,27.102 31.836,27.02C31.969,26.937 32.088,26.822 32.095,26.789C32.096,26.785 32.095,26.783 32.093,26.783C32.081,26.783 32.009,26.855 31.818,26.883ZM17.181,26.933C17.274,27.156 17.404,27.271 17.706,27.343C17.769,27.359 18.076,27.469 18.101,27.602C18.111,27.654 18.144,27.808 18.065,27.947C17.943,28.164 18.114,27.984 18.137,27.947C18.166,27.901 18.235,27.84 18.259,27.768C18.332,27.552 18.216,27.315 17.979,27.235C17.78,27.169 17.616,27.095 17.522,27.024C17.411,26.939 17.312,26.862 17.195,26.725C17.148,26.671 17.121,26.649 17.107,26.649C17.067,26.649 17.135,26.826 17.181,26.933ZM24.584,28.017C24.585,28 24.586,27.984 24.587,27.967L24.584,28.017ZM21.863,26.761C21.716,26.942 21.554,27.084 21.532,27.178C21.511,27.271 21.547,27.315 21.432,27.379C21.317,27.444 20.949,27.681 20.892,27.761C20.835,27.84 20.669,27.947 20.906,27.962C21.144,27.976 21.626,27.89 21.942,27.624C22.259,27.358 22.237,27.379 22.287,27.106C22.338,26.833 22.23,26.739 22.216,26.682C22.208,26.65 22.175,26.585 22.106,26.585C22.051,26.585 21.972,26.626 21.863,26.761ZM24.595,27.859L24.59,27.924C24.591,27.902 24.593,27.88 24.595,27.859ZM24.606,27.748L24.598,27.826C24.6,27.798 24.603,27.772 24.606,27.748ZM24.618,27.665C24.619,27.661 24.619,27.658 24.62,27.654L24.618,27.665ZM18.343,24.512C18.332,24.589 18.326,24.668 18.326,24.749C18.326,25.162 18.479,25.541 18.73,25.832C18.64,25.751 18.496,25.67 18.281,25.811C17.986,26.005 17.398,25.847 17.555,26.056C17.576,26.084 18.013,26.584 18.806,26.631C19.288,26.66 18.936,26.854 18.792,27.012C18.754,27.055 18.59,27.197 18.525,27.285C18.439,27.401 18.533,27.43 18.612,27.336C18.685,27.251 19.072,26.61 20.259,26.61C20.367,26.61 20.64,26.581 20.734,26.487C20.755,26.466 20.854,26.332 20.984,26.216C21.143,26.073 21.332,25.941 21.28,25.898C21.187,25.819 21.528,25.751 21.561,25.531C21.569,25.479 21.553,25.405 21.539,25.333C21.567,25.258 21.589,25.182 21.607,25.103C21.615,25.103 21.624,25.105 21.633,25.106C21.699,25.12 21.787,25.116 21.875,25.112C22.077,25.103 22.283,25.094 22.244,25.286C22.23,25.358 22.341,25.339 22.438,25.292C22.605,25.211 22.777,25.045 22.604,25.027C22.467,25.013 22.172,25.015 21.904,25.016C21.804,25.017 21.706,25.018 21.623,25.018C21.637,24.93 21.645,24.84 21.645,24.749C21.645,24.659 21.637,24.57 21.623,24.484C21.83,24.388 22.12,24.286 22.129,24.495C22.144,24.819 22.115,24.682 22.273,24.625C22.431,24.567 22.46,24.61 22.662,24.466C22.733,24.415 22.838,24.369 22.901,24.31C23.013,24.204 23.012,24.06 22.82,24.193C22.705,24.272 22.578,24.448 22.458,24.503C22.296,24.577 22.287,24.394 22.374,24.322C22.406,24.296 22.5,24.167 22.48,24.084C22.465,24.022 22.387,23.986 22.172,24.035C21.911,24.095 21.711,24.185 21.572,24.263C21.555,24.206 21.534,24.15 21.511,24.096C21.697,23.957 21.805,23.825 21.64,23.804C21.41,23.776 21.681,23.506 21.525,23.373C21.036,22.956 20.582,22.258 20.461,21.862C20.403,21.675 20.068,21.669 20.202,21.891C20.245,21.963 20.29,22.212 19.827,21.934C19.756,21.891 19.441,21.794 18.749,21.776C18.173,21.762 18.555,21.896 18.418,22.251C18.347,22.433 18.394,22.544 18.411,22.633C18.436,22.763 18.461,22.838 18.504,22.949C18.617,23.243 18.605,23.438 18.418,23.1C18.418,23.1 18.202,22.733 18.245,22.373C18.288,22.013 18.173,21.726 18.101,21.524C18.029,21.323 17.976,20.848 17.986,20.747C17.998,20.637 17.962,20.555 17.925,20.555C17.895,20.555 17.863,20.611 17.857,20.755C17.857,20.755 17.93,21.537 18.044,21.841C18.065,21.898 18.202,22.161 17.936,22.294C17.907,22.308 16.622,22.596 16.526,23.941C16.519,24.042 16.49,24.567 16.447,24.66C16.404,24.754 16.368,24.819 16.569,24.826C16.667,24.829 16.843,24.799 17.056,24.768C17.28,24.736 17.544,24.703 17.799,24.711C18.044,24.718 17.953,24.648 17.929,24.574C17.924,24.56 17.811,24.241 17.89,24.055C17.958,23.898 18.061,23.78 18.31,23.733C18.576,23.682 18.619,23.747 18.605,23.79C18.59,23.833 18.526,23.876 18.468,23.912C18.411,23.949 18.245,24.164 18.339,24.495C18.34,24.501 18.342,24.506 18.343,24.512ZM22.05,25.869C22.033,26.004 22.021,26.2 21.748,26.423C21.475,26.646 21.309,26.797 21.237,26.833C21.165,26.869 20.971,26.948 21.151,27.041C21.331,27.135 21.295,27.077 21.388,27.005C21.482,26.933 21.712,26.667 21.87,26.538C22.029,26.408 22.503,25.941 22.626,25.883C22.748,25.826 22.726,25.739 22.604,25.675C22.482,25.61 22.079,25.639 22.05,25.869ZM29.988,23.351C29.917,23.329 29.843,23.311 29.768,23.298C29.964,23.147 30.131,23.145 30.25,23.15C30.43,23.157 30.336,23.049 30.322,23.028C30.308,23.006 30.25,22.898 30.308,22.776C30.365,22.654 30.365,22.33 30.365,22.251C30.365,22.172 30.343,21.999 30.473,21.884C30.588,21.782 30.544,21.753 30.472,21.753C30.463,21.753 30.454,21.754 30.444,21.755C30.358,21.762 30.237,21.78 29.933,21.877C29.617,21.978 29.027,22.351 28.97,22.402C28.716,22.623 28.229,23.006 28.035,23.452C27.856,23.862 27.921,24.071 27.983,24.181C27.956,24.231 27.932,24.284 27.91,24.337C27.829,24.25 27.732,24.164 27.625,24.114C27.501,24.056 26.977,24.035 26.747,24.063C26.517,24.092 26.647,24.459 26.617,24.502C26.589,24.545 26.553,24.531 26.531,24.538C26.34,24.602 26.064,24.373 25.92,24.287C25.787,24.207 25.899,23.95 25.867,23.95C25.864,23.95 25.86,23.952 25.855,23.956C25.791,24.006 25.762,24.229 25.848,24.344C25.934,24.459 26.171,24.653 26.366,24.682C26.56,24.711 26.913,24.804 26.948,24.804C27.029,24.804 27.078,24.783 26.948,24.581C26.819,24.38 27.006,24.358 27.337,24.394C27.532,24.415 27.708,24.515 27.83,24.598C27.805,24.715 27.791,24.836 27.791,24.961C27.791,25.012 27.793,25.063 27.798,25.113L27.797,25.114C27.732,25.146 27.759,25.384 27.936,25.645C28.199,26.236 28.792,26.649 29.479,26.649C29.632,26.649 29.78,26.628 29.921,26.59C29.986,26.645 30.144,26.639 30.322,26.646C30.509,26.653 31.242,26.617 31.394,26.581C31.545,26.545 31.811,26.451 31.933,26.387C31.811,26.329 31.372,26.214 31.178,26.2C30.984,26.185 30.797,26.236 30.696,26.272C30.595,26.308 30.476,26.434 30.39,26.448C30.332,26.458 30.286,26.464 30.253,26.46C30.795,26.179 31.167,25.613 31.167,24.961C31.167,24.918 31.165,24.875 31.162,24.832L31.091,25.196C31.094,25.239 31.085,25.297 31.056,25.379L31.091,25.196C31.086,25.099 31.025,25.075 31.005,25.02C30.987,24.971 30.919,24.998 30.876,24.977C30.685,24.881 30.937,24.82 31.049,24.696C31.076,24.666 31.101,24.622 31.121,24.57L31.121,24.57C31.164,24.461 31.189,24.314 31.176,24.183L31.175,24.175C31.164,24.072 31.13,23.979 31.063,23.92C30.896,23.771 30.805,23.755 30.751,23.78L30.75,23.781C30.735,23.789 30.723,23.799 30.713,23.81L30.713,23.81C30.696,23.83 30.684,23.853 30.675,23.869C30.638,23.927 30.473,24.387 30.308,24.646C30.142,24.905 30.149,24.617 30.149,24.531C30.149,24.445 30.2,24.071 30.2,24.027C30.2,23.968 30.229,23.517 30.135,23.488C29.939,23.428 29.898,23.473 29.711,23.603C29.524,23.733 29.488,23.941 29.495,24.02C29.5,24.084 29.574,24.193 29.574,24.25C29.574,24.308 29.581,24.495 29.509,24.495C29.437,24.495 29.441,24.467 29.394,24.359C29.351,24.257 29.308,24.042 29.164,24.006C28.696,23.889 28.567,23.999 28.509,24.042L28.416,23.934L28.761,23.704L29.423,23.747L29.624,23.546L29.988,23.351ZM29.912,26.581C29.887,26.552 29.898,26.469 29.926,26.405C29.955,26.34 30.044,26.171 30.074,26.117C30.113,26.045 30.164,25.948 30.106,25.898C30.048,25.847 29.984,25.916 29.912,25.98C29.816,26.067 29.559,26.257 29.495,26.3C29.43,26.344 29.293,26.437 29.135,26.473L29.912,26.581ZM20.676,26.408C20.432,26.495 19.936,26.523 19.727,26.43C19.518,26.336 19.257,26.047 19.353,25.703C19.439,25.394 19.436,25.338 19.612,25.524C19.979,25.912 20.165,26.113 20.31,26.12C20.548,26.132 20.748,26.157 20.842,25.977C20.935,25.797 20.921,25.862 20.971,25.97C20.997,26.024 20.935,26.286 20.676,26.408ZM21.439,24.811C21.439,25.056 21.253,25.591 20.827,25.869C20.64,25.991 20.555,25.908 20.544,25.87C20.528,25.814 20.855,25.683 20.971,25.538C21,25.502 21.216,25.171 21.209,24.768C21.201,24.366 21.053,24.132 21.015,24.107C20.95,24.063 20.85,23.83 21.094,23.992C21.137,24.02 21.439,24.328 21.439,24.811ZM37.766,22.769C37.658,22.79 37.392,22.841 37.162,22.884C36.932,22.927 36.4,23.063 36.062,23.208C35.73,23.349 35.486,23.445 35.314,23.575C35.164,23.687 35.012,23.999 35.177,24.287C35.342,24.574 35.033,24.46 34.868,24.423C34.803,24.409 34.314,24.351 34.055,24.351C33.796,24.351 33.055,24.43 32.933,24.445C32.811,24.459 32.087,24.516 32.321,24.926C32.35,24.977 32.53,25.135 32.516,25.207C32.501,25.279 32.35,25.157 32.314,25.135C32.278,25.114 32.034,25.02 31.804,25.006C31.573,24.991 31.3,24.991 31.329,24.991C31.494,24.991 31.178,24.926 31.213,25.121C31.242,25.269 31.329,25.229 31.394,25.229C31.564,25.229 32.422,25.286 32.71,25.402C32.917,25.484 33.005,25.416 32.948,25.308C32.89,25.2 32.856,25.057 32.731,24.905C32.537,24.668 32.627,24.588 32.782,24.56C32.861,24.545 33.178,24.502 33.674,24.531C33.979,24.549 34.882,24.696 34.975,24.718C35.069,24.74 35.529,24.855 35.472,24.488C35.414,24.121 35.347,24.048 35.328,23.876C35.299,23.61 35.976,23.308 36.321,23.186C36.632,23.076 37.623,22.841 37.809,22.812C37.957,22.789 37.913,22.762 37.834,22.762C37.813,22.762 37.789,22.764 37.766,22.769ZM12.151,22.826C11.847,22.688 11.675,22.651 11.613,22.625C11.561,22.603 11.363,22.546 11.281,22.546C11.205,22.546 11.23,22.595 11.57,22.769C12.275,23.128 12.822,23.502 12.879,23.56C12.937,23.618 13.124,23.675 12.98,23.977C12.836,24.279 13.009,24.337 13.282,24.337C13.556,24.337 14.755,24.457 15.037,24.524C15.339,24.595 15.583,24.631 15.697,24.714C15.76,24.76 15.746,24.867 15.757,24.969C15.774,25.144 15.584,25.473 16.088,25.257C16.591,25.042 17.9,25.056 18.144,25.114C18.389,25.171 18.447,25.114 18.101,24.955C17.756,24.797 16.447,24.969 16.317,25.042C16.188,25.114 16.088,25.171 16.159,24.84C16.231,24.509 16.102,24.639 15.627,24.452C15.452,24.383 15.148,24.344 14.748,24.275C14.391,24.213 13.957,24.115 13.469,24.135C13.042,24.153 13.124,24.035 13.268,23.891C13.412,23.747 13.383,23.546 12.908,23.244C12.671,23.093 12.469,22.98 12.299,22.896C12.379,22.758 12.514,22.511 12.721,22.912C12.839,23.14 13.017,23.02 13.153,23.128C13.225,23.186 13.383,23.272 13.484,23.445C13.584,23.373 14.224,22.211 15.008,21.819C15.095,21.776 15.152,21.632 15.224,21.531C15.296,21.431 15.67,20.683 16.044,20.395C16.29,20.206 16.3,20.06 16.175,20.06C16.11,20.06 16.009,20.1 15.886,20.194C15.526,20.467 15.239,20.683 15.051,21.143C14.916,21.478 14.886,21.448 14.764,21.417C14.718,21.406 14.659,21.394 14.577,21.402C14.43,21.416 13.967,21.427 13.414,21.752C12.896,22.058 12.331,22.532 12.151,22.826ZM27.618,21.244C27.503,21.309 27.416,21.402 27.322,21.546C27.229,21.69 27.172,21.927 27.056,22.043C26.941,22.157 26.654,22.467 26.589,22.632C26.524,22.798 26.38,22.999 26.243,23.114C26.167,23.178 26.058,23.24 25.964,23.302C25.889,23.352 25.829,23.409 25.769,23.409C25.632,23.409 25.69,23.344 25.488,23.258C25.287,23.172 25.359,23.315 25.402,23.387C25.445,23.459 25.51,23.639 25.495,23.79C25.481,23.941 25.381,24.265 25.323,24.358C25.266,24.452 25.006,24.768 24.963,24.833C24.92,24.898 24.841,24.969 24.891,24.984C24.942,24.998 24.934,25.027 25.021,24.955C25.107,24.883 25.179,24.819 25.258,24.783C25.318,24.756 25.388,24.675 25.416,24.704C25.54,24.828 25.517,24.502 25.539,24.366C25.56,24.229 25.656,23.837 25.97,23.625C26.236,23.445 26.488,23.315 26.596,22.927C26.676,22.64 26.725,22.725 26.855,22.654C26.985,22.582 27.236,22.279 27.409,22.1C27.581,21.92 27.668,21.64 27.689,21.582C27.711,21.524 27.812,21.266 27.776,21.237C27.756,21.22 27.745,21.205 27.719,21.205C27.699,21.205 27.669,21.215 27.618,21.244ZM30.869,22.366C30.638,22.488 30.66,22.869 30.595,22.977C30.531,23.085 30.545,23.114 30.667,23.157C30.789,23.2 30.825,23.359 30.775,23.423C30.725,23.488 30.76,23.603 30.825,23.581C30.92,23.55 31.07,23.596 31.163,23.654C31.257,23.711 31.581,23.949 31.581,24.279C31.581,24.61 31.365,24.718 31.307,24.79C31.379,24.79 31.775,24.819 31.976,24.826C31.976,24.826 32.015,24.62 32.07,24.416C32.207,23.905 32.409,22.705 32.077,22.38C31.931,22.237 31.742,22.188 31.554,22.188C31.279,22.188 31.005,22.293 30.869,22.366ZM17.279,20.273C17.241,20.273 17.096,20.319 16.979,20.51C16.619,21.1 16.533,21.79 16.461,21.934C16.389,22.078 16.512,22.251 15.886,22.409C15.408,22.53 14.707,23.563 14.577,23.761C14.454,23.949 14.34,24.142 14.85,24.121C15.234,24.105 15.857,24.322 16.058,24.423C16.26,24.524 16.375,24.595 16.36,24.25C16.346,23.905 16.436,22.844 16.562,22.718C16.603,22.678 16.665,22.541 16.692,22.424C16.762,22.127 16.766,21.72 16.792,21.582C16.843,21.316 17.014,20.846 17.073,20.769C17.166,20.647 17.357,20.274 17.28,20.273L17.279,20.273ZM23.41,23.797C23.424,23.682 23.51,23.596 23.589,23.61C23.668,23.625 23.738,23.662 23.724,23.893C23.717,24.015 23.707,24.121 23.681,24.198C23.658,24.27 23.609,24.315 23.571,24.304C23.492,24.283 23.541,24.251 23.525,24.159C23.507,24.06 23.464,24.134 23.465,23.977C23.467,23.877 23.395,23.912 23.41,23.797ZM21.218,24.022C21.181,24.016 21.205,23.938 21.216,23.92C21.266,23.837 21.21,23.437 20.691,23.783C20.604,23.84 20.396,24.02 20.36,24.135C20.324,24.25 20.209,24.437 20.202,24.128C20.194,23.819 20.518,23.488 20.209,23.466C20.015,23.453 19.934,23.469 19.924,23.44C19.899,23.366 19.943,23.322 20.086,23.301C20.212,23.282 20.281,23.416 20.561,23.315C20.718,23.259 20.96,23.122 21.129,23.195C21.374,23.301 21.353,23.647 21.324,23.855C21.295,24.056 21.252,24.027 21.218,24.022ZM20.014,23.145C19.998,23.165 19.917,23.085 19.827,23.063C19.705,23.035 19.209,22.963 19.166,23.963C19.15,24.338 19.159,24.366 18.96,24.107C18.856,23.971 18.77,23.682 18.742,23.596C18.662,23.358 18.536,22.853 19.31,22.776C19.741,22.733 19.842,22.862 19.936,22.941C19.995,22.992 20.041,23.113 20.014,23.145ZM33.688,20.704C33.955,20.942 34.252,21.615 34.278,22.028C34.285,22.143 34.408,22.301 34.465,22.387C34.522,22.474 34.731,22.725 34.767,22.977C34.803,23.229 34.789,23.618 34.796,23.747C34.8,23.811 34.731,24.229 34.828,24.248C34.846,24.251 34.875,24.01 34.889,23.862C34.918,23.567 35.163,23.301 35.307,23.244C35.373,23.217 36.069,22.891 36.256,22.869C36.443,22.848 36.411,22.723 36.155,22.769C35.954,22.805 35.875,22.567 35.832,22.532C35.703,22.424 35.386,22.05 35.112,21.927C34.971,21.864 34.832,21.769 34.71,21.8C34.576,21.833 34.619,21.94 34.616,22.035C34.612,22.157 34.554,22.176 34.508,22.12C34.475,22.081 34.452,21.993 34.444,21.927C34.422,21.769 34.314,21.366 34.256,21.208C34.199,21.049 33.81,20.575 33.724,20.525C33.696,20.508 33.653,20.496 33.618,20.496C33.548,20.496 33.51,20.545 33.688,20.704ZM32.591,20.87C32.673,21.286 32.523,21.911 32.422,22.086C32.292,22.308 32.3,22.323 32.387,22.524C32.556,22.922 32.314,23.934 32.285,24.092C32.257,24.25 32.314,24.193 32.66,24.092C33.011,23.99 34.068,24.108 34.256,24.135C34.235,23.984 34.415,23.56 33.897,23.071C33.282,22.49 32.742,22.575 32.645,22.524C32.372,22.38 32.861,22.136 32.875,21.618C32.89,21.1 32.818,20.726 32.645,20.481C32.618,20.443 32.586,20.401 32.563,20.401C32.529,20.401 32.519,20.502 32.591,20.87ZM30.538,20.402C30.451,20.474 30.236,20.69 30.135,20.805C30.034,20.92 29.581,21.337 29.459,21.445C29.336,21.553 28.948,21.819 28.861,21.87C28.775,21.92 28.747,21.905 28.625,22.143C28.502,22.38 28.279,22.582 28.157,22.704C28.035,22.826 27.776,23.063 27.661,23.121C27.546,23.179 27.33,23.351 27.243,23.416C27.157,23.481 27.078,23.603 26.977,23.646C26.876,23.689 26.807,23.776 26.74,23.826C26.711,23.848 26.654,23.898 26.682,23.941C26.697,23.962 26.74,23.999 26.862,23.876C26.985,23.754 27.081,23.722 27.247,23.578C27.247,23.578 27.466,23.359 27.531,23.315C27.596,23.272 28.085,22.905 28.287,22.718C28.488,22.532 28.675,22.179 28.847,22.028C29.02,21.877 29.358,21.683 29.423,21.64C29.488,21.596 30.055,21.157 30.178,21.035C30.3,20.913 30.588,20.582 30.638,20.518C30.689,20.453 30.746,20.359 30.71,20.359C30.694,20.359 30.676,20.354 30.652,20.354C30.622,20.354 30.585,20.362 30.538,20.402ZM19.54,20.194C19.511,20.222 19.503,20.302 19.597,20.402C19.806,20.625 20.511,21.143 20.583,21.179C20.655,21.215 20.799,21.359 20.892,21.611C20.985,21.862 21.058,22.1 21.158,22.229C21.259,22.359 21.906,23.056 22.057,23.172C22.209,23.287 22.359,23.473 22.367,23.61C22.374,23.747 22.511,23.919 22.511,23.733C22.511,23.546 22.489,23.387 22.259,23.121C22.028,22.855 21.504,22.38 21.482,22.33C21.46,22.279 21.223,22.164 21.079,21.632C20.935,21.1 20.518,20.899 20.489,20.877C20.489,20.877 20.144,20.676 19.777,20.28C19.716,20.214 19.659,20.164 19.605,20.164C19.583,20.164 19.561,20.173 19.54,20.194ZM30.487,23.632L30.528,23.639C30.444,23.573 30.354,23.514 30.258,23.464L30.487,23.632ZM28.826,23.404C28.763,23.418 28.696,23.443 28.631,23.48C28.565,23.518 28.502,23.567 28.446,23.627C28.562,23.537 28.689,23.462 28.826,23.404ZM29.71,20.697C29.638,20.74 29.689,20.805 29.545,20.848C29.401,20.891 29.38,20.92 29.308,20.978C29.236,21.035 29.092,21.129 28.883,21.301C28.675,21.474 28.826,21.359 28.696,21.445C28.567,21.531 28.272,21.855 28.164,21.992C28.056,22.129 28.121,22.1 28.078,22.164C28.035,22.229 27.941,22.315 27.783,22.46C27.625,22.603 26.97,23.244 26.927,23.287C26.884,23.33 26.74,23.466 26.776,23.495C26.812,23.524 26.873,23.499 26.999,23.373C27.02,23.351 28.308,22.236 28.344,22.114C28.38,21.992 28.488,21.848 28.603,21.747C28.718,21.647 29.027,21.417 29.143,21.33C29.257,21.244 29.574,21.057 29.703,20.949C29.833,20.841 29.948,20.712 29.919,20.676C29.908,20.662 29.885,20.655 29.856,20.655C29.812,20.655 29.754,20.671 29.71,20.697ZM41.593,18.323C41.219,18.474 40.227,19.153 39.903,19.539C39.716,19.762 39.796,19.923 39.924,19.999C39.96,20.021 40.313,20.194 40.075,20.337C39.838,20.482 39.332,20.687 39.076,20.855C38.759,21.064 38.191,21.481 38.112,21.582C38.032,21.683 37.882,21.762 38.09,22.021C38.299,22.279 38.349,22.38 38.385,22.438C38.421,22.495 38.522,22.625 38.515,22.481C38.507,22.337 38.414,22.258 38.378,22.179C38.342,22.1 38.097,21.848 38.234,21.69C38.371,21.532 38.838,21.121 39.104,20.992C39.371,20.863 40.011,20.51 40.097,20.474C40.183,20.438 40.418,20.345 40.406,20.237C40.392,20.1 40.241,20.128 40.032,19.884C39.989,19.834 39.974,19.697 40.032,19.64C40.09,19.582 40.399,19.18 40.903,18.834C40.97,18.788 41.535,18.41 41.601,18.388C41.665,18.367 41.73,18.288 41.593,18.323ZM7.952,18.23C8.312,18.421 8.855,18.974 9.038,19.187C9.215,19.391 9.736,19.949 9.47,20.071C9.204,20.194 9.355,20.402 9.47,20.467C9.585,20.532 10.515,21.425 10.542,21.452C10.75,21.668 10.966,21.92 10.678,22.121C10.391,22.323 10.693,22.38 10.909,22.244C11.124,22.107 11.39,21.97 11.038,21.56C10.871,21.367 10.652,21.137 10.438,20.958C10.199,20.758 10.095,20.711 10.067,20.683C9.966,20.582 9.704,20.5 9.678,20.43C9.636,20.316 9.894,20.33 10.002,20.294C10.512,20.125 11.961,19.863 12.52,19.956C12.606,19.971 12.976,19.884 13.21,19.784C13.714,19.568 14.061,19.421 14.433,19.36C14.476,19.352 15.008,19.28 14.627,19.151C14.246,19.021 12.441,18.877 11.973,18.935C11.506,18.993 12.038,19.029 12.038,19.029C12.038,19.029 13.448,19.021 13.958,19.143C14.469,19.266 14.217,19.287 14.059,19.287C13.901,19.287 13.476,19.366 13.11,19.597C12.743,19.827 12.095,19.769 11.88,19.712C11.664,19.654 10.916,19.539 10.348,19.741C9.779,19.942 9.895,19.875 9.779,19.647C9.599,19.295 8.916,18.69 8.614,18.568C8.401,18.482 8.154,18.316 8.513,18.395C9.083,18.521 10.635,18.993 11.261,19.251C11.906,19.518 12.261,19.575 12.433,19.575C12.606,19.575 13.07,19.579 12.764,19.273C12.584,19.093 12.476,19.208 12.512,19.302C12.534,19.357 12.311,19.395 12.045,19.323C11.779,19.251 11.056,19.052 10.765,18.935C10.621,18.877 9.628,18.539 9.542,18.51C9.473,18.488 8.204,18.165 8.068,18.158C7.995,18.154 7.862,18.12 7.813,18.12C7.772,18.12 7.79,18.144 7.952,18.23ZM31.59,20.57C31.556,20.57 31.488,20.697 31.458,20.755C31.416,20.841 31.242,21.129 31.171,21.237C31.099,21.345 31.034,21.452 30.876,21.611C30.718,21.769 30.516,21.97 30.495,22.121C30.472,22.278 30.574,22.114 30.602,22.057C30.631,21.999 30.789,21.934 30.876,21.819C30.962,21.704 31.165,21.544 31.307,21.359C31.356,21.296 31.473,21.179 31.517,20.957C31.535,20.867 31.602,20.765 31.61,20.683C31.617,20.601 31.608,20.57 31.591,20.57L31.59,20.57ZM15.095,19.661C14.821,19.82 14.114,20.022 13.743,20.51C13.638,20.648 13.543,20.64 13.357,20.632C13.057,20.619 12.518,20.606 11.311,21.201C11.11,21.287 11.038,21.287 11.225,21.417C11.396,21.534 11.426,21.632 11.397,21.79C11.369,21.948 11.403,21.943 11.613,21.805C11.973,21.567 12.606,21.093 13.426,20.985C13.885,20.925 13.82,20.821 13.958,20.683C14.001,20.64 14.821,19.92 15.195,19.82C15.475,19.745 15.433,19.605 15.281,19.605C15.229,19.605 15.164,19.621 15.095,19.661ZM35.342,19.87C35.342,19.87 34.846,19.913 34.522,19.928C34.199,19.942 34.508,20.172 34.551,20.201C34.931,20.455 35.443,20.949 35.573,21.301C35.652,21.518 35.762,21.516 35.918,21.515C35.956,21.515 35.996,21.514 36.04,21.517C36.263,21.531 37.019,21.647 37.364,21.848C37.453,21.9 37.486,21.841 37.529,21.762C37.572,21.683 37.989,21.424 38.04,21.352C38.09,21.28 38.04,21.33 37.91,21.388C37.781,21.445 37.716,21.409 37.615,21.28C37.526,21.165 37.328,21.093 37.134,20.985C36.939,20.877 36.119,20.776 35.896,20.877C35.673,20.978 35.594,20.949 35.457,20.791C35.321,20.632 34.933,20.287 34.688,20.151C34.444,20.014 34.659,20.014 34.696,20.014C34.731,20.014 35.206,20.05 35.414,19.978C35.493,19.951 35.631,19.973 35.618,19.898C35.613,19.87 35.565,19.863 35.508,19.863C35.45,19.863 35.383,19.87 35.342,19.87ZM19.295,20.704C19.463,20.947 19.946,21.346 20.194,21.488C20.432,21.625 20.412,21.5 20.266,21.402C20,21.222 19.389,20.64 19.389,20.64C19.357,20.592 19.314,20.567 19.285,20.567C19.247,20.567 19.231,20.612 19.295,20.704ZM21.833,19.687C21.811,19.752 21.934,19.778 22.007,19.792C22.09,19.806 22.142,19.804 22.192,19.802C22.248,19.8 22.302,19.797 22.394,19.819C22.473,19.838 22.631,19.907 22.712,19.914C22.987,19.938 23.252,19.91 23.53,19.964C23.62,19.981 23.707,19.996 23.789,20.033C23.893,20.08 23.996,20.123 24.098,20.176C24.161,20.208 24.366,20.467 24.415,20.623C24.443,20.713 24.504,20.94 24.589,20.991C24.608,21.003 24.744,21.058 24.758,20.999C24.791,20.863 24.544,20.603 24.499,20.501C24.481,20.461 24.493,20.408 24.516,20.378L24.598,20.15C24.574,20.146 24.496,20.024 24.502,19.98C24.51,19.913 24.578,19.913 24.606,19.893C24.648,19.862 24.635,19.829 24.603,19.804C24.576,19.783 24.409,19.831 24.376,19.853C24.235,19.944 24.171,19.878 24.021,19.868C23.784,19.851 23.704,19.827 23.32,19.771C23.275,19.765 23.181,19.767 23.097,19.771C23.038,19.772 22.984,19.775 22.956,19.773C22.587,19.76 22.47,19.778 22.092,19.712C22.052,19.704 21.942,19.669 21.879,19.669C21.855,19.669 21.838,19.674 21.833,19.687ZM28.402,19.767C28.327,19.773 28.248,19.78 28.16,19.777C27.655,19.82 27.209,19.845 26.7,19.877C26.58,19.884 26.46,19.886 26.341,19.888C26.052,19.892 25.76,19.948 25.464,19.92C25.424,19.917 25.33,19.913 25.245,19.882C25.185,19.86 24.999,19.762 24.949,19.829C24.915,19.872 24.927,19.913 24.953,19.945C24.953,19.945 25.136,20.071 25.062,20.143L25.184,20.358C25.212,20.375 25.267,20.453 25.276,20.478C25.314,20.588 25.273,20.725 25.327,20.828C25.369,20.908 25.524,20.894 25.57,20.813C25.68,20.619 25.683,20.41 25.757,20.205C25.859,19.92 26.52,19.985 26.762,20.006C26.813,20.011 26.864,20.011 26.914,20.011C26.941,20.011 26.968,20.011 26.995,20.012C27.129,20.017 27.261,20.015 27.398,19.997C27.481,19.985 27.56,19.971 27.643,19.967C27.708,19.964 27.772,19.926 27.837,19.923C28.115,19.909 28.383,19.877 28.663,19.833C28.684,19.83 28.713,19.827 28.726,19.807C28.735,19.794 28.733,19.771 28.714,19.767C28.67,19.759 28.626,19.756 28.582,19.756C28.523,19.756 28.464,19.761 28.402,19.767ZM36.465,19.044C36.186,19.097 35.914,19.141 35.687,19.192C35.47,19.241 35.249,19.315 35.181,19.334C35.037,19.374 35.076,19.491 35.159,19.526C35.222,19.554 35.315,19.585 35.422,19.597C35.723,19.628 36.698,19.932 37.019,20.035C37.364,20.147 37.406,19.992 37.615,19.971C37.824,19.949 38.788,19.827 39.55,20.1C39.55,20.1 39.774,20.226 39.795,20.172C39.818,20.113 39.827,20.115 39.629,19.992C39.506,19.916 39.086,19.782 38.602,19.693C38.331,19.643 37.673,19.6 37.385,19.634C37.304,19.643 37.016,19.649 36.95,19.719C36.835,19.841 36.745,19.777 36.702,19.748C36.45,19.58 35.738,19.46 35.436,19.467C35.332,19.47 35.324,19.46 35.32,19.438C35.307,19.357 35.391,19.34 35.45,19.323C35.616,19.275 36.293,19.144 36.834,19.058C37.183,19.002 37.451,18.981 37.572,18.964C37.882,18.921 37.939,18.885 37.666,18.885C37.529,18.885 37,18.943 36.465,19.044ZM30.027,19.482C29.344,19.683 28.97,19.906 28.84,19.978C28.711,20.05 28.646,20.136 28.876,20.071C29.107,20.006 29.689,19.755 29.782,19.733C29.876,19.712 30.487,19.503 30.617,19.467C30.746,19.431 31.142,19.295 31.516,19.266C31.89,19.237 31.984,19.223 32.156,19.237C32.329,19.251 32.451,19.258 32.523,19.273C32.595,19.287 32.667,19.287 32.552,19.223C32.437,19.158 32.207,19.143 31.998,19.143C31.372,19.143 30.71,19.28 30.027,19.482ZM30.587,19.714L30.4,20.049C30.339,20.017 30.29,19.995 30.177,20.056C30.119,20.087 30.036,20.003 30.098,19.963C30.173,19.913 30.405,19.765 30.587,19.714ZM18.409,19.442L18.641,19.856C18.716,19.816 18.776,19.789 18.916,19.865C18.988,19.903 19.089,19.799 19.013,19.749C18.92,19.688 18.633,19.504 18.409,19.442ZM17.447,18.889C17.339,18.893 17.241,18.919 17.145,18.964C17.95,18.942 18.251,19.026 18.403,19.082C18.605,19.158 19.072,19.338 19.344,19.486C19.366,19.497 19.704,19.686 19.865,19.736C20.043,19.791 20.023,19.668 20.015,19.662C19.806,19.511 19.575,19.391 19.342,19.287C18.906,19.091 18.625,18.973 18.141,18.892C18.047,18.876 17.952,18.87 17.861,18.87C17.706,18.87 17.562,18.886 17.447,18.889ZM38.004,19.18C37.803,19.187 37.774,19.151 37.752,19.215C37.731,19.28 37.875,19.273 37.939,19.287C38.004,19.302 38.256,19.273 38.457,19.23C38.658,19.187 39.219,18.942 39.363,18.899C39.507,18.856 39.721,18.736 39.996,18.662C40.291,18.582 40.521,18.496 40.651,18.46C40.78,18.424 40.896,18.388 40.946,18.374C40.996,18.359 41.003,18.318 40.944,18.315C40.872,18.31 40.823,18.345 40.724,18.374C40.419,18.463 40.075,18.561 39.939,18.597C39.802,18.633 39.356,18.798 39.241,18.827C39.126,18.856 38.852,18.964 38.68,19.021C38.507,19.079 38.378,19.136 38.227,19.165C38.076,19.194 38.004,19.18 38.004,19.18ZM24.589,19.215C24.863,19.215 26.1,19.302 26.704,19.273C27.495,19.235 28.445,19.287 28.963,19.158C29.264,19.083 29.806,18.919 30.014,18.879C30.516,18.784 30.919,18.712 31.2,18.68L31.891,17.486L17.287,17.486L17.791,18.35C18.144,18.352 18.878,18.395 20.173,18.798C21.424,19.188 21.684,19.235 22.474,19.273C23.079,19.302 24.316,19.215 24.589,19.215ZM32.684,15.532L32.905,15.141L16.518,15.141L16.753,15.532L16.357,15.532L17.369,17.221L31.788,17.221L32.745,15.532L32.684,15.532ZM30.767,16.105C30.864,16.161 30.934,16.203 30.934,16.287L30.934,16.525L30.095,16.525L30.095,16.189C30.193,16.315 30.362,16.439 30.557,16.413C30.767,16.385 30.529,16.161 30.389,16.105C30.529,16.049 30.767,15.826 30.557,15.798C30.362,15.772 30.193,15.896 30.095,16.022L30.095,15.686L30.934,15.686L30.934,15.924C30.934,16.008 30.864,16.049 30.767,16.105ZM20.783,16.105L21.538,16.105L21.538,16.525L21.412,16.525C21.412,16.362 21.249,16.245 21.076,16.245L20.783,16.245L20.783,16.105ZM27.704,16.154C27.886,16.343 27.802,16.469 27.732,16.525C27.715,16.446 27.542,16.287 27.089,16.287C27.494,16.084 27.648,15.826 27.438,15.798C27.244,15.772 27.075,15.945 26.977,16.071L26.977,15.686L27.816,15.686L27.816,15.924C27.816,16.008 27.781,16.077 27.704,16.154ZM25.697,15.686C25.697,15.686 25.699,15.756 25.621,15.756C25.383,15.756 25.068,15.889 25.068,16.105C25.068,16.273 25.25,16.427 25.488,16.427C25.642,16.427 25.516,16.182 25.264,16.105L25.712,16.105L25.712,16.525L24.999,16.525C24.936,16.525 24.887,16.455 24.887,16.399L24.887,15.819C24.887,15.742 24.943,15.686 24.999,15.686L25.697,15.686ZM29.857,15.686L29.857,16.525L29.662,16.525C29.662,16.273 29.606,16.147 29.102,16.147L29.102,16.071C29.601,16.071 29.675,15.994 29.675,15.686L29.857,15.686ZM24.257,16.525C24.397,16.469 24.649,16.266 24.439,16.238C24.245,16.212 23.915,16.315 23.817,16.441L23.817,16.105L24.656,16.105L24.656,16.525L24.257,16.525ZM18.72,16.525C18.671,16.525 18.65,16.483 18.65,16.406C18.65,16.255 18.743,16.105 18.958,16.105C19.114,16.105 19.391,15.909 19.468,15.686L19.468,16.525L19.355,16.525C19.308,16.343 19.094,16.184 18.944,16.203C18.734,16.231 19.007,16.483 19.174,16.525L18.72,16.525ZM22.803,16.392L22.803,15.819C22.803,15.742 22.859,15.686 22.915,15.686L23.614,15.686C23.614,15.686 23.594,15.735 23.516,15.735C23.278,15.735 23.062,15.889 23.062,16.105C23.062,16.322 23.278,16.476 23.516,16.476C23.594,16.476 23.614,16.525 23.614,16.525L22.915,16.525C22.859,16.525 22.803,16.469 22.803,16.392ZM20.521,16.326L19.681,16.326L19.681,15.906L20.521,15.906L20.521,16.326C20.45,16.158 20.182,15.957 19.989,15.99C19.762,16.029 20.08,16.326 20.521,16.326ZM22.568,16.301C22.258,16.301 22.251,16.001 22.048,16.001C21.908,16.001 21.971,16.21 22.111,16.301L21.775,16.301C21.775,16.147 21.747,15.952 21.894,15.952L22.209,15.952C22.3,15.952 22.419,15.945 22.503,15.784L22.568,15.784L22.568,16.301ZM26.208,16.105C26.348,16.049 26.585,15.826 26.376,15.798C26.182,15.772 26.012,15.896 25.914,16.022L25.914,15.686L26.753,15.686L26.753,16.105L26.208,16.105ZM28.04,16.105C28.48,16.105 28.711,15.826 28.501,15.798C28.307,15.772 28.11,15.938 28.04,16.105L28.04,15.686L28.878,15.686L28.878,16.105L28.04,16.105ZM18.842,15.934L18.003,15.934L18.003,15.515L18.842,15.515L18.842,15.934C18.773,15.766 18.504,15.566 18.311,15.599C18.084,15.637 18.402,15.934 18.842,15.934Z" style="fill:#57db8e;fill-rule:nonzero;"/></g></g></svg>