<?xml version="1.0" encoding="UTF-8" standalone="no"?><!DOCTYPE svg PUBLIC "-//W3C//DTD SVG 1.1//EN" "http://www.w3.org/Graphics/SVG/1.1/DTD/svg11.dtd"><svg width="100%" height="100%" viewBox="0 0 50 50" version="1.1" xmlns="http://www.w3.org/2000/svg" xmlns:xlink="http://www.w3.org/1999/xlink" xml:space="preserve" xmlns:serif="http://www.serif.com/" style="fill-rule:evenodd;clip-rule:evenodd;stroke-linejoin:round;stroke-miterlimit:2;"><rect id="value-comms" x="0" y="0" width="50" height="50" style="fill:none;"/><clipPath id="_clip1"><rect id="value-comms1" serif:id="value-comms" x="0" y="0" width="50" height="50"/></clipPath><g clip-path="url(#_clip1)"><g id="Value-Frame" serif:id="Value Frame"><path d="M7.5,48L7.5,46.438C7.5,46.138 7.456,45.841 7.371,45.554C6.736,43.329 4,33.11 4,22.5C4,10 12.5,2 25,2C37.5,2 44,10 44,17.5C44,21.716 46.421,28.537 47.893,32.297C48.124,32.909 48.04,33.594 47.669,34.132C47.297,34.669 46.685,34.99 46.032,34.99C44.956,35 44,35 44,35L44,41C44,43.761 41.761,46 39,46C38.131,46 37.5,46 37.5,46L37.5,48L7.5,48Z" style="fill:#10273d;"/><path d="M7.5,48L7.5,46.438C7.5,46.138 7.456,45.841 7.371,45.554C6.736,43.329 4,33.11 4,22.5C4,10 12.5,2 25,2C37.5,2 44,10 44,17.5C44,21.716 46.421,28.537 47.893,32.297C48.124,32.909 48.04,33.594 47.669,34.132C47.297,34.669 46.685,34.99 46.032,34.99C44.956,35 44,35 44,35L44,41C44,43.761 41.761,46 39,46C38.131,46 37.5,46 37.5,46L37.5,48L7.5,48Z" style="fill:#10273d;"/><path d="M39.5,48L37.5,48L37.5,46C37.5,46 38.131,46 39,46C41.761,46 44,43.761 44,41L44,35C44,35 44.956,35 46.032,34.99C46.685,34.99 47.297,34.669 47.669,34.132C48.04,33.594 48.124,32.909 47.893,32.297C46.421,28.537 44,21.716 44,17.5C44,10 37.5,2 25,2C12.5,2 4,10 4,22.5C4,32.729 6.543,42.594 7.296,45.283C7.431,45.741 7.5,46.215 7.5,46.692L7.5,48L5.5,48L5.5,46.693C5.5,46.407 5.459,46.122 5.374,45.835L5.371,45.823C4.599,43.07 2,32.971 2,22.5C2,15.641 4.376,10.034 8.423,6.124C12.452,2.232 18.171,-0 25,-0C38.935,-0 46,9.139 46,17.5C46,21.512 48.354,27.99 49.76,31.579L49.764,31.591C50.227,32.817 50.059,34.191 49.314,35.269C48.572,36.342 47.352,36.984 46.048,36.99C46.032,36.99 46.016,36.99 46,36.99L46,41C46,44.698 43.133,47.726 39.5,47.982L39.5,48Z" style="fill:#0077af;"/></g><g id="Comms"><path id="Comms1" serif:id="Comms" d="M24.397,38.841C24.156,38.659 24,38.37 24,38.044C24,37.492 24.448,37.044 25,37.044C25.552,37.044 26,37.492 26,38.044C26,38.37 25.844,38.659 25.603,38.841L25.687,39.508C29.409,39.437 32.801,38.795 35,38.015C35,40.774 30.519,43.015 25,43.015C19.481,43.015 15,40.774 15,38.015C17.199,38.795 20.591,39.437 24.313,39.508L24.397,38.841ZM18,31.015C20.333,32.332 22.667,32.986 25,32.984C27.333,32.981 29.667,32.322 32,31.015C27.333,36.293 22.667,36.384 18,31.015ZM16,27.022C19,28.34 22,28.994 25,28.991C28,28.988 31,28.33 34,27.022C28,32.3 22,32.391 16,27.022ZM14,23.022C17.667,24.34 21.333,24.994 25,24.991C28.667,24.988 32.333,24.33 36,23.022C28.667,28.3 21.333,28.391 14,23.022ZM12,19.015C16.333,20.332 20.667,20.986 25,20.984C29.333,20.981 33.667,20.322 38,19.015C29.333,24.293 20.667,24.384 12,19.015ZM10,15.007C15,16.325 20,16.979 25,16.976C30,16.974 35,16.315 40,15.007C30,20.285 20,20.376 10,15.007ZM8,11C13.667,12.318 19.333,12.972 25,12.969C30.667,12.966 36.333,12.307 42,11C30.667,16.278 19.333,16.369 8,11Z" style="fill:#f1de7f;"/></g></g></svg>