<svg xmlns="http://www.w3.org/2000/svg" xml:space="preserve" style="fill-rule:evenodd;clip-rule:evenodd;stroke-linejoin:round;stroke-miterlimit:2" viewBox="0 0 50 50"><path d="M0 0h50v50H0z" style="fill:none"/><clipPath id="a"><path d="M0 0h50v50H0z"/></clipPath><g clip-path="url(#a)"><path d="M7.5 48v-1.562q0-.452-.129-.884C6.736 43.329 4 33.11 4 22.5 4 10 12.5 2 25 2s19 8 19 15.5c0 4.216 2.421 11.037 3.893 14.797a1.99 1.99 0 0 1-.224 1.835 1.99 1.99 0 0 1-1.637.858C44.956 35 44 35 44 35v6a5 5 0 0 1-5 5h-1.5v2z" style="fill:#10273d"/><path d="M7.5 48v-1.562q0-.452-.129-.884C6.736 43.329 4 33.11 4 22.5 4 10 12.5 2 25 2s19 8 19 15.5c0 4.216 2.421 11.037 3.893 14.797a1.99 1.99 0 0 1-.224 1.835 1.99 1.99 0 0 1-1.637.858C44.956 35 44 35 44 35v6a5 5 0 0 1-5 5h-1.5v2z" style="fill:#10273d"/><path d="M39.5 48h-2v-2H39a5 5 0 0 0 5-5v-6s.956 0 2.032-.01c.653 0 1.265-.321 1.637-.858a1.99 1.99 0 0 0 .224-1.835C46.421 28.537 44 21.716 44 17.5 44 10 37.5 2 25 2S4 10 4 22.5c0 10.229 2.543 20.094 3.296 22.783.135.458.204.932.204 1.409V48h-2v-1.307q0-.428-.126-.858l-.003-.012C4.599 43.07 2 32.971 2 22.5c0-6.859 2.376-12.466 6.423-16.376C12.452 2.232 18.171 0 25 0c13.935 0 21 9.139 21 17.5 0 4.012 2.354 10.49 3.76 14.079l.004.012a3.99 3.99 0 0 1-3.716 5.399H46V41a7 7 0 0 1-6.5 6.982z" style="fill:#0077af"/><path d="M34.074 15.093q-1.296-2.315-4.028-3.38-.694-.14-.833-.648-.185-1.575-1.412-2.523A4.95 4.95 0 0 0 25 7.5a5.24 5.24 0 0 0-2.616.88q-1.18.786-1.551 2.268-.138.88-.74 1.065-2.824.926-4.144 3.31a16.9 16.9 0 0 0-1.829 5.116q3.843 1.667 6.574 5.694 1.158 1.806 1.852 4.815.741 2.917-1.62 4.445l2.083 7.407h1.482l.139-3.102h.787l.092 3.102h1.482l2.129-7.407q-1.25-.741-1.527-2.061a8.3 8.3 0 0 1-.139-2.615q.602-3.241 2.963-6.158 2.407-2.823 5.463-4.12a17 17 0 0 0-1.806-5.046M15.139 19.63a13.9 13.9 0 0 1 1.667-4.26q1.157-1.897 3.472-2.824 1.065-.37 1.435-1.713.741-2.453 3.333-2.407 1.528.046 2.408.926.74.695.926 1.898.139.972 1.342 1.296 1.99.834 3.056 2.269a11.3 11.3 0 0 1 1.759 3.426l-3.241 2.222-1.99.324V18.38l-.649-3.334-1.25-.833-1.99.509.324-1.852 1.25-.463.509-2.129-2.5 1.991-2.5-1.991.509 2.129 1.297.463.277 1.852-1.944-.509-1.296.833-.649 3.334v2.546l1.945 6.667q-2.361-5.371-7.5-7.963m10.787-3.056q-.556-.648-.556-.926l1.111.787.463 2.084-.463.601-1.157 6.111h-.648l-1.111-6.111-.509-.601.509-2.084 1.111-.787q0 .324-.602.926l-.231 1.482.37.972h1.574l.37-.972zm-4.352 1.898.37-3.102.787-.555 1.112.185q.879.139.879.417l-1.342.602-.834 2.546.556.787 1.528 8.102q0 .046.37.046t.417-.046l1.481-8.102.556-.787-.834-2.5q-.046-.14-.231-.232a1.04 1.04 0 0 0-.463-.092q-.602-.046-.602-.463l1.991-.463.787.555.324 3.102-2.037 8.334-1.111 1.666h-.556l-1.111-1.666zm5.046 13.009-1.018-1.62h-1.158l-1.064 1.62-.324-3.842 1.435 1.342h1.018l1.435-1.342zm.232 3.982q-.834 0-1.158-1.157-.231-.603-.416-1.436l-.093-.277h-.37l-.093.277a10 10 0 0 1-.416 1.436q-.324 1.157-1.112 1.157l.186-2.824 1.203-2.408h.834l1.203 2.408zm.787.926-1.389 5.926-.509-4.676L25 36.296l-.741 1.343-.509 4.676-1.343-5.926q1.343 0 1.852-1.019T25 33.194q.14.927.694 2.176.556 1.019 1.945 1.019M30 23.287a19 19 0 0 0-2.731 3.704l1.712-5.741 2.639-.417 3.102-2.222.324.88a9.4 9.4 0 0 0-1.574.787q-1.76 1.203-3.472 3.009m-11.111-4.306a.89.89 0 0 0-.648.278.892.892 0 0 0 0 1.297.89.89 0 0 0 .648.277.89.89 0 0 0 .648-.277.89.89 0 0 0 0-1.297.89.89 0 0 0-.648-.278" style="fill:#d1bd94;fill-rule:nonzero"/></g></svg>