<svg xmlns="http://www.w3.org/2000/svg" xml:space="preserve" style="fill-rule:evenodd;clip-rule:evenodd;stroke-linejoin:round;stroke-miterlimit:2" viewBox="0 0 50 50"><path d="M0 0h50v50H0z" style="fill:none"/><clipPath id="a"><path d="M0 0h50v50H0z"/></clipPath><g clip-path="url(#a)"><path d="M7.5 48v-1.562q0-.452-.129-.884C6.736 43.329 4 33.11 4 22.5 4 10 12.5 2 25 2s19 8 19 15.5c0 4.216 2.421 11.037 3.893 14.797a1.99 1.99 0 0 1-.224 1.835 1.99 1.99 0 0 1-1.637.858C44.956 35 44 35 44 35v6a5 5 0 0 1-5 5h-1.5v2z" style="fill:#10273d"/><path d="M7.5 48v-1.562q0-.452-.129-.884C6.736 43.329 4 33.11 4 22.5 4 10 12.5 2 25 2s19 8 19 15.5c0 4.216 2.421 11.037 3.893 14.797a1.99 1.99 0 0 1-.224 1.835 1.99 1.99 0 0 1-1.637.858C44.956 35 44 35 44 35v6a5 5 0 0 1-5 5h-1.5v2z" style="fill:#10273d"/><path d="M39.5 48h-2v-2H39a5 5 0 0 0 5-5v-6s.956 0 2.032-.01c.653 0 1.265-.321 1.637-.858a1.99 1.99 0 0 0 .224-1.835C46.421 28.537 44 21.716 44 17.5 44 10 37.5 2 25 2S4 10 4 22.5c0 10.229 2.543 20.094 3.296 22.783.135.458.204.932.204 1.409V48h-2v-1.307q0-.428-.126-.858l-.003-.012C4.599 43.07 2 32.971 2 22.5c0-6.859 2.376-12.466 6.423-16.376C12.452 2.232 18.171 0 25 0c13.935 0 21 9.139 21 17.5 0 4.012 2.354 10.49 3.76 14.079l.004.012a3.99 3.99 0 0 1-3.716 5.399H46V41a7 7 0 0 1-6.5 6.982z" style="fill:#0077af"/><path d="m42.5 26.573-7.423 12.633-2.998.05q-9.438.148-11.061-.05-5.309-.59-8.651-3.49-2.655-2.211-3.884-5.653-.934-2.409-.983-4.719h15.632q.05 1.868 1.032 3.884 1.18 2.408 3.146 3.883 2.36 1.72 5.457 1.72l8.258-8.258zm-3.736-1.229-7.767 7.914q-2.999-.737-4.67-2.998-1.278-1.623-1.622-3.736h1.18q.492 1.474 1.524 2.409.836.687 2.408 1.278l2.95-4.867zm3.736-1.917h-1.475l-8.258-8.258q-3.098 0-5.457 1.72-1.965 1.475-3.146 3.883-.983 2.016-1.032 3.884H7.5q.049-2.31.983-4.719 1.229-3.442 3.884-5.653 3.342-2.9 8.651-3.49 1.623-.197 11.061-.05l2.998.05zm-3.736 1.229h-5.997l-2.95-4.867q-1.572.591-2.408 1.278-1.032.934-1.524 2.409h-1.18a8.34 8.34 0 0 1 1.622-3.785q1.671-2.212 4.67-2.999zm-9.831 2.605a2.1 2.1 0 0 1-1.573-.663A2.22 2.22 0 0 1 26.721 25q0-.934.639-1.598.639-.663 1.573-.663t1.597.663q.664.664.664 1.598t-.664 1.598a2.18 2.18 0 0 1-1.597.663" style="fill:#78db57;fill-rule:nonzero"/></g></svg>