<?xml version="1.0" encoding="UTF-8" standalone="no"?><!DOCTYPE svg PUBLIC "-//W3C//DTD SVG 1.1//EN" "http://www.w3.org/Graphics/SVG/1.1/DTD/svg11.dtd"><svg width="100%" height="100%" viewBox="0 0 50 50" version="1.1" xmlns="http://www.w3.org/2000/svg" xmlns:xlink="http://www.w3.org/1999/xlink" xml:space="preserve" xmlns:serif="http://www.serif.com/" style="fill-rule:evenodd;clip-rule:evenodd;stroke-linejoin:round;stroke-miterlimit:2;"><rect id="value-conn" x="0" y="0" width="50" height="50" style="fill:none;"/><clipPath id="_clip1"><rect id="value-conn1" serif:id="value-conn" x="0" y="0" width="50" height="50"/></clipPath><g clip-path="url(#_clip1)"><g id="Value-Frame" serif:id="Value Frame"><path d="M7.5,48L7.5,46.438C7.5,46.138 7.456,45.841 7.371,45.554C6.736,43.329 4,33.11 4,22.5C4,10 12.5,2 25,2C37.5,2 44,10 44,17.5C44,21.716 46.421,28.537 47.893,32.297C48.124,32.909 48.04,33.594 47.669,34.132C47.297,34.669 46.685,34.99 46.032,34.99C44.956,35 44,35 44,35L44,41C44,43.761 41.761,46 39,46C38.131,46 37.5,46 37.5,46L37.5,48L7.5,48Z" style="fill:#10273d;"/><path d="M7.5,48L7.5,46.438C7.5,46.138 7.456,45.841 7.371,45.554C6.736,43.329 4,33.11 4,22.5C4,10 12.5,2 25,2C37.5,2 44,10 44,17.5C44,21.716 46.421,28.537 47.893,32.297C48.124,32.909 48.04,33.594 47.669,34.132C47.297,34.669 46.685,34.99 46.032,34.99C44.956,35 44,35 44,35L44,41C44,43.761 41.761,46 39,46C38.131,46 37.5,46 37.5,46L37.5,48L7.5,48Z" style="fill:#10273d;"/><path d="M39.5,48L37.5,48L37.5,46C37.5,46 38.131,46 39,46C41.761,46 44,43.761 44,41L44,35C44,35 44.956,35 46.032,34.99C46.685,34.99 47.297,34.669 47.669,34.132C48.04,33.594 48.124,32.909 47.893,32.297C46.421,28.537 44,21.716 44,17.5C44,10 37.5,2 25,2C12.5,2 4,10 4,22.5C4,32.729 6.543,42.594 7.296,45.283C7.431,45.741 7.5,46.215 7.5,46.692L7.5,48L5.5,48L5.5,46.693C5.5,46.407 5.459,46.122 5.374,45.835L5.371,45.823C4.599,43.07 2,32.971 2,22.5C2,15.641 4.376,10.034 8.423,6.124C12.452,2.232 18.171,-0 25,-0C38.935,-0 46,9.139 46,17.5C46,21.512 48.354,27.99 49.76,31.579L49.764,31.591C50.227,32.817 50.059,34.191 49.314,35.269C48.572,36.342 47.352,36.984 46.048,36.99C46.032,36.99 46.016,36.99 46,36.99L46,41C46,44.698 43.133,47.726 39.5,47.982L39.5,48Z" style="fill:#0077af;"/></g><g><path d="M13.5,17.978C16,17.478 18.583,15.728 20.5,13.978C22.417,12.228 24.5,9.478 25,7.478C25.5,9.478 27.583,12.228 29.5,13.978C31.417,15.728 34,17.478 36.5,17.978C34,18.478 29.836,20.132 28.5,22.978C26.583,27.062 25.5,38.478 25,42.478C24.5,38.478 23.417,27.062 21.5,22.978C20.164,20.132 16,18.478 13.5,17.978ZM24.934,14.772L24.51,16.954C24.484,17.086 24.42,17.208 24.325,17.303C24.229,17.398 24.108,17.463 23.976,17.488L21.794,17.912C21.762,17.918 21.739,17.946 21.739,17.978C21.739,18.011 21.762,18.039 21.794,18.045L23.976,18.468C24.108,18.494 24.229,18.559 24.325,18.654C24.42,18.749 24.484,18.87 24.51,19.003L24.934,21.185C24.94,21.216 24.968,21.239 25,21.239C25.032,21.239 25.06,21.216 25.066,21.185L25.49,19.003C25.516,18.87 25.58,18.749 25.675,18.654C25.771,18.559 25.892,18.494 26.024,18.468L28.206,18.045C28.238,18.039 28.261,18.011 28.261,17.978C28.261,17.946 28.238,17.918 28.206,17.912L26.024,17.488C25.892,17.463 25.771,17.398 25.675,17.303C25.58,17.208 25.516,17.086 25.49,16.954L25.066,14.772C25.06,14.741 25.032,14.718 25,14.718C24.968,14.718 24.94,14.741 24.934,14.772Z" style="fill:#f54d3d;"/></g></g></svg>