<svg xmlns="http://www.w3.org/2000/svg" xml:space="preserve" style="fill-rule:evenodd;clip-rule:evenodd;stroke-linejoin:round;stroke-miterlimit:2" viewBox="0 0 50 50"><path d="M0 0h50v50H0z" style="fill:none"/><clipPath id="a"><path d="M0 0h50v50H0z"/></clipPath><g clip-path="url(#a)"><path d="M7.5 48v-1.562q0-.452-.129-.884C6.736 43.329 4 33.11 4 22.5 4 10 12.5 2 25 2s19 8 19 15.5c0 4.216 2.421 11.037 3.893 14.797a1.99 1.99 0 0 1-.224 1.835 1.99 1.99 0 0 1-1.637.858C44.956 35 44 35 44 35v6a5 5 0 0 1-5 5h-1.5v2z" style="fill:#10273d"/><path d="M7.5 48v-1.562q0-.452-.129-.884C6.736 43.329 4 33.11 4 22.5 4 10 12.5 2 25 2s19 8 19 15.5c0 4.216 2.421 11.037 3.893 14.797a1.99 1.99 0 0 1-.224 1.835 1.99 1.99 0 0 1-1.637.858C44.956 35 44 35 44 35v6a5 5 0 0 1-5 5h-1.5v2z" style="fill:#10273d"/><path d="M39.5 48h-2v-2H39a5 5 0 0 0 5-5v-6s.956 0 2.032-.01c.653 0 1.265-.321 1.637-.858a1.99 1.99 0 0 0 .224-1.835C46.421 28.537 44 21.716 44 17.5 44 10 37.5 2 25 2S4 10 4 22.5c0 10.229 2.543 20.094 3.296 22.783.135.458.204.932.204 1.409V48h-2v-1.307q0-.428-.126-.858l-.003-.012C4.599 43.07 2 32.971 2 22.5c0-6.859 2.376-12.466 6.423-16.376C12.452 2.232 18.171 0 25 0c13.935 0 21 9.139 21 17.5 0 4.012 2.354 10.49 3.76 14.079l.004.012a3.99 3.99 0 0 1-3.716 5.399H46V41a7 7 0 0 1-6.5 6.982z" style="fill:#0077af"/><path d="M28.249 40.302c-.883-.487-2.197-.778-2.197-.778s-1.323-.216-2.578-.582c-1.224-.357-2.38-.864-2.38-.864s.26.646.12 1.093c-.117.373-.637.559-.637.559s.742.312 1.136.362c.947.12 2.869.084 4.547.356 1.488.242 1.807.677 1.807.677s-.182.191-.821.294c-.912.147-2.278.119-2.278.119l.981.93s1.075.131 2.004-.138c.85-.246 1.56-.895 1.56-.895s-.417-.665-1.264-1.133m-9.686-5.427c-.536-.763-1.808-2.324-1.808-2.324s-.095.751-.32 1.426c-.184.552-.506 1.053-.506 1.053s-.637.094-1.449.023c-1.164-.103-2.632-.384-2.632-.384s1.859 2.279 2.737 2.996c.737.601 1.157.987 2.536 1.306 1.41.326 3.043-.015 3.043-.015s.174-.932-.194-1.822c-.428-1.035-.898-1.533-1.407-2.259m19.121-4.476c.657-.656 3.32-.638 4.341-.766-1.021-.127-3.613-.038-4.341-.766-.766-.766-.638-3.319-.766-4.342-.128 1.023 0 3.576-.766 4.342s-3.32.703-4.342.767c1.021.064 3.576-.001 4.342.765.766.767.638 3.321.766 4.342.128-1.021 0-3.575.766-4.342m-23.873-4.098s-.262.548-.596 1.049c-.281.422-.643.811-.643.811s-1.191-.508-2.187-1.281c-1.399-1.086-2.492-3.064-2.41-3.162 0 0 .224 3.759.774 5.269.521 1.427.926 2.583 2.53 3.79 1.519 1.142 3.72.91 3.72.91s.35-.931.338-1.962c-.014-1.134-.172-1.604-.39-2.377-.254-.903-1.136-3.047-1.136-3.047m12.466-.5c1.094-1.094 5.533-1.063 7.236-1.277-1.703-.212-6.022-.063-7.236-1.276C25 21.971 25.213 17.715 25 16.011c-.213 1.704 0 5.96-1.277 7.237s-5.533 1.171-7.236 1.277c1.702.107 5.959 0 7.236 1.276s1.064 5.534 1.277 7.236c.213-1.702 0-5.959 1.277-7.236m-12.569-6.318s-.456.328-.941.517c-.443.172-.919.285-.919.285s-.843-.74-1.167-1.496c-.492-1.148-.538-2.56-.538-2.56s-1.416 2.383-1.549 3.719c-.134 1.354-.08 2.445.906 4.052.916 1.493 2.5 2.5 2.5 2.5s.655-.576 1.006-1.441c.371-.915.357-1.33.443-2.012.117-.929.259-3.564.259-3.564m18.868-1.001c.657-.657 3.319-.638 4.341-.767-1.021-.127-3.613-.038-4.341-.766-.766-.766-.639-3.319-.766-4.342-.128 1.023 0 3.576-.766 4.342-.767.766-3.32.703-4.342.767 1.021.064 3.575-.001 4.342.766.766.766.638 3.32.765 4.341.128-1.021.001-3.575.767-4.341m-16.131-5.765s-.485.21-.937.283c-.329.053-.81-.025-.81-.025s-.106-.363-.071-.983c.041-.739.372-1.754.372-1.754s-2.027 1.678-2.634 2.686c-.605 1.002-.825 1.765-.865 3.361-.037 1.473.607 2.715.607 2.715s.773-.217 1.393-.9c.645-.711.819-1.049 1.137-1.664.476-.919 1.808-3.719 1.808-3.719m1.291-1.614c1.542-.949 2.997-3.603 2.997-3.603s-.512.028-1.194.403c-.849.467-1.906 1.301-1.906 1.301l.103-1.033s-.841.667-1.378 1.549c-.548.9-.791 2.015-.791 2.015-.047-.046.862.172 2.169-.632" style="fill:#f1de7f"/></g></svg>