<svg xmlns="http://www.w3.org/2000/svg" xml:space="preserve" style="fill-rule:evenodd;clip-rule:evenodd;stroke-linejoin:round;stroke-miterlimit:2" viewBox="0 0 50 50"><path d="M0 0h50v50H0z" style="fill:none"/><clipPath id="a"><path d="M0 0h50v50H0z"/></clipPath><g clip-path="url(#a)"><path d="M7.5 48v-1.562q0-.452-.129-.884C6.736 43.329 4 33.11 4 22.5 4 10 12.5 2 25 2s19 8 19 15.5c0 4.216 2.421 11.037 3.893 14.797a1.99 1.99 0 0 1-.224 1.835 1.99 1.99 0 0 1-1.637.858C44.956 35 44 35 44 35v6a5 5 0 0 1-5 5h-1.5v2z" style="fill:#10273d"/><path d="M7.5 48v-1.562q0-.452-.129-.884C6.736 43.329 4 33.11 4 22.5 4 10 12.5 2 25 2s19 8 19 15.5c0 4.216 2.421 11.037 3.893 14.797a1.99 1.99 0 0 1-.224 1.835 1.99 1.99 0 0 1-1.637.858C44.956 35 44 35 44 35v6a5 5 0 0 1-5 5h-1.5v2z" style="fill:#10273d"/><path d="M39.5 48h-2v-2H39a5 5 0 0 0 5-5v-6s.956 0 2.032-.01c.653 0 1.265-.321 1.637-.858a1.99 1.99 0 0 0 .224-1.835C46.421 28.537 44 21.716 44 17.5 44 10 37.5 2 25 2S4 10 4 22.5c0 10.229 2.543 20.094 3.296 22.783.135.458.204.932.204 1.409V48h-2v-1.307q0-.428-.126-.858l-.003-.012C4.599 43.07 2 32.971 2 22.5c0-6.859 2.376-12.466 6.423-16.376C12.452 2.232 18.171 0 25 0c13.935 0 21 9.139 21 17.5 0 4.012 2.354 10.49 3.76 14.079l.004.012a3.99 3.99 0 0 1-3.716 5.399H46V41a7 7 0 0 1-6.5 6.982z" style="fill:#0077af"/><path d="M29 41.443a8 8 0 0 1-1 .485V39h-2v3.441a8 8 0 0 1-.964.059h-.072a8 8 0 0 1-.964-.059V39h-2v2.928a8 8 0 0 1-1-.485V38h8zM17.014 15H24v7h-7v12.536a7.96 7.96 0 0 0 3 6.228V37h10v3.764q.348-.279.667-.597A7.96 7.96 0 0 0 33 34.536V22h-7v-7h6.986a7.96 7.96 0 0 0-7.95-7.5h-.072a7.96 7.96 0 0 0-7.95 7.5M24 23h-5v13h5zm7 0h-5v13h5zm-8 6v6h-3v-6zm7 0v6h-3v-6zm-10-1v-1h3v1zm7 0v-1h3v1zm3-2h-3v-2h3zm-7 0h-3v-2h3zm10-10v5h-6v-5zm-16 0h6v5h-6zm2 1h-1v3h1zm13 0h-1v3h1z" style="fill:#f1de7f"/></g></svg>