<?xml version="1.0" encoding="UTF-8" standalone="no"?><!DOCTYPE svg PUBLIC "-//W3C//DTD SVG 1.1//EN" "http://www.w3.org/Graphics/SVG/1.1/DTD/svg11.dtd"><svg width="100%" height="100%" viewBox="0 0 50 50" version="1.1" xmlns="http://www.w3.org/2000/svg" xmlns:xlink="http://www.w3.org/1999/xlink" xml:space="preserve" xmlns:serif="http://www.serif.com/" style="fill-rule:evenodd;clip-rule:evenodd;stroke-linejoin:round;stroke-miterlimit:2;"><rect id="value-cardassian" x="0" y="0" width="50" height="50" style="fill:none;"/><clipPath id="_clip1"><rect id="value-cardassian1" serif:id="value-cardassian" x="0" y="0" width="50" height="50"/></clipPath><g clip-path="url(#_clip1)"><g id="Value-Frame" serif:id="Value Frame"><path d="M7.5,48L7.5,46.438C7.5,46.138 7.456,45.841 7.371,45.554C6.736,43.329 4,33.11 4,22.5C4,10 12.5,2 25,2C37.5,2 44,10 44,17.5C44,21.716 46.421,28.537 47.893,32.297C48.124,32.909 48.04,33.594 47.669,34.132C47.297,34.669 46.685,34.99 46.032,34.99C44.956,35 44,35 44,35L44,41C44,43.761 41.761,46 39,46C38.131,46 37.5,46 37.5,46L37.5,48L7.5,48Z" style="fill:#10273d;"/><path d="M7.5,48L7.5,46.438C7.5,46.138 7.456,45.841 7.371,45.554C6.736,43.329 4,33.11 4,22.5C4,10 12.5,2 25,2C37.5,2 44,10 44,17.5C44,21.716 46.421,28.537 47.893,32.297C48.124,32.909 48.04,33.594 47.669,34.132C47.297,34.669 46.685,34.99 46.032,34.99C44.956,35 44,35 44,35L44,41C44,43.761 41.761,46 39,46C38.131,46 37.5,46 37.5,46L37.5,48L7.5,48Z" style="fill:#10273d;"/><path d="M39.5,48L37.5,48L37.5,46C37.5,46 38.131,46 39,46C41.761,46 44,43.761 44,41L44,35C44,35 44.956,35 46.032,34.99C46.685,34.99 47.297,34.669 47.669,34.132C48.04,33.594 48.124,32.909 47.893,32.297C46.421,28.537 44,21.716 44,17.5C44,10 37.5,2 25,2C12.5,2 4,10 4,22.5C4,32.729 6.543,42.594 7.296,45.283C7.431,45.741 7.5,46.215 7.5,46.692L7.5,48L5.5,48L5.5,46.693C5.5,46.407 5.459,46.122 5.374,45.835L5.371,45.823C4.599,43.07 2,32.971 2,22.5C2,15.641 4.376,10.034 8.423,6.124C12.452,2.232 18.171,-0 25,-0C38.935,-0 46,9.139 46,17.5C46,21.512 48.354,27.99 49.76,31.579L49.764,31.591C50.227,32.817 50.059,34.191 49.314,35.269C48.572,36.342 47.352,36.984 46.048,36.99C46.032,36.99 46.016,36.99 46,36.99L46,41C46,44.698 43.133,47.726 39.5,47.982L39.5,48Z" style="fill:#0077af;"/></g><g id="Cardassian"><path id="Cardassian1" serif:id="Cardassian" d="M34.074,15.093C33.21,13.549 31.867,12.423 30.046,11.713C29.583,11.62 29.306,11.404 29.213,11.065C29.09,10.015 28.619,9.174 27.801,8.542C26.983,7.909 26.049,7.562 25,7.5C24.043,7.562 23.171,7.855 22.384,8.38C21.597,8.904 21.08,9.66 20.833,10.648C20.741,11.235 20.494,11.59 20.093,11.713C18.21,12.33 16.829,13.434 15.949,15.023C15.069,16.613 14.46,18.318 14.12,20.139C16.682,21.25 18.873,23.148 20.694,25.833C21.466,27.037 22.083,28.642 22.546,30.648C23.04,32.593 22.5,34.074 20.926,35.093L23.009,42.5L24.491,42.5L24.63,39.398L25.417,39.398L25.509,42.5L26.991,42.5L29.12,35.093C28.287,34.599 27.778,33.912 27.593,33.032C27.407,32.153 27.361,31.281 27.454,30.417C27.855,28.256 28.843,26.204 30.417,24.259C32.022,22.377 33.843,21.003 35.88,20.139C35.54,18.349 34.938,16.667 34.074,15.093ZM15.139,19.63C15.448,18.148 16.003,16.728 16.806,15.37C17.577,14.105 18.735,13.164 20.278,12.546C20.988,12.299 21.466,11.728 21.713,10.833C22.207,9.198 23.318,8.395 25.046,8.426C26.065,8.457 26.867,8.765 27.454,9.352C27.948,9.815 28.256,10.448 28.38,11.25C28.472,11.898 28.92,12.33 29.722,12.546C31.049,13.102 32.068,13.858 32.778,14.815C33.549,15.833 34.136,16.975 34.537,18.241L31.296,20.463L29.306,20.787L29.306,18.38L28.657,15.046L27.407,14.213L25.417,14.722L25.741,12.87L26.991,12.407L27.5,10.278L25,12.269L22.5,10.278L23.009,12.407L24.306,12.87L24.583,14.722L22.639,14.213L21.343,15.046L20.694,18.38L20.694,20.926L22.639,27.593C21.065,24.012 18.565,21.358 15.139,19.63ZM25.926,16.574C25.556,16.142 25.37,15.833 25.37,15.648L26.481,16.435L26.944,18.519L26.481,19.12L25.324,25.231L24.676,25.231L23.565,19.12L23.056,18.519L23.565,16.435L24.676,15.648C24.676,15.864 24.475,16.173 24.074,16.574L23.843,18.056L24.213,19.028L25.787,19.028L26.157,18.056L25.926,16.574ZM21.574,18.472L21.944,15.37L22.731,14.815L23.843,15C24.429,15.093 24.722,15.231 24.722,15.417L23.38,16.019L22.546,18.565L23.102,19.352L24.63,27.454C24.63,27.485 24.753,27.5 25,27.5C25.247,27.5 25.386,27.485 25.417,27.454L26.898,19.352L27.454,18.565L26.62,16.065C26.59,15.972 26.512,15.895 26.389,15.833C26.265,15.772 26.111,15.741 25.926,15.741C25.525,15.71 25.324,15.556 25.324,15.278L27.315,14.815L28.102,15.37L28.426,18.472L26.389,26.806L25.278,28.472L24.722,28.472L23.611,26.806L21.574,18.472ZM26.62,31.481L25.602,29.861L24.444,29.861L23.38,31.481L23.056,27.639L24.491,28.981L25.509,28.981L26.944,27.639L26.62,31.481ZM26.852,35.463C26.296,35.463 25.91,35.077 25.694,34.306C25.54,33.904 25.401,33.426 25.278,32.87L25.185,32.593L24.815,32.593L24.722,32.87C24.599,33.426 24.46,33.904 24.306,34.306C24.09,35.077 23.719,35.463 23.194,35.463L23.38,32.639L24.583,30.231L25.417,30.231L26.62,32.639L26.852,35.463ZM27.639,36.389L26.25,42.315L25.741,37.639L25,36.296L24.259,37.639L23.75,42.315L22.407,36.389C23.302,36.389 23.92,36.049 24.259,35.37C24.599,34.691 24.846,33.966 25,33.194C25.093,33.812 25.324,34.537 25.694,35.37C26.065,36.049 26.713,36.389 27.639,36.389ZM30,23.287C28.951,24.398 28.04,25.633 27.269,26.991L28.981,21.25L31.62,20.833L34.722,18.611L35.046,19.491C34.491,19.707 33.966,19.969 33.472,20.278C32.299,21.08 31.142,22.083 30,23.287ZM18.889,18.981C18.642,18.981 18.426,19.074 18.241,19.259C18.056,19.444 17.963,19.66 17.963,19.907C17.963,20.154 18.056,20.37 18.241,20.556C18.426,20.741 18.642,20.833 18.889,20.833C19.136,20.833 19.352,20.741 19.537,20.556C19.722,20.37 19.815,20.154 19.815,19.907C19.815,19.66 19.722,19.444 19.537,19.259C19.352,19.074 19.136,18.981 18.889,18.981Z" style="fill:#d1bd94;fill-rule:nonzero;"/></g></g></svg>