<svg xmlns="http://www.w3.org/2000/svg" xml:space="preserve" style="fill-rule:evenodd;clip-rule:evenodd;stroke-linejoin:round;stroke-miterlimit:2" viewBox="0 0 50 50"><path d="M0 0h50v50H0z" style="fill:none"/><clipPath id="a"><path d="M0 0h50v50H0z"/></clipPath><g clip-path="url(#a)"><path d="M7.5 48v-1.562q0-.452-.129-.884C6.736 43.329 4 33.11 4 22.5 4 10 12.5 2 25 2s19 8 19 15.5c0 4.216 2.421 11.037 3.893 14.797a1.99 1.99 0 0 1-.224 1.835 1.99 1.99 0 0 1-1.637.858C44.956 35 44 35 44 35v6a5 5 0 0 1-5 5h-1.5v2z" style="fill:#10273d"/><path d="M7.5 48v-1.562q0-.452-.129-.884C6.736 43.329 4 33.11 4 22.5 4 10 12.5 2 25 2s19 8 19 15.5c0 4.216 2.421 11.037 3.893 14.797a1.99 1.99 0 0 1-.224 1.835 1.99 1.99 0 0 1-1.637.858C44.956 35 44 35 44 35v6a5 5 0 0 1-5 5h-1.5v2z" style="fill:#10273d"/><path d="M39.5 48h-2v-2H39a5 5 0 0 0 5-5v-6s.956 0 2.032-.01c.653 0 1.265-.321 1.637-.858a1.99 1.99 0 0 0 .224-1.835C46.421 28.537 44 21.716 44 17.5 44 10 37.5 2 25 2S4 10 4 22.5c0 10.229 2.543 20.094 3.296 22.783.135.458.204.932.204 1.409V48h-2v-1.307q0-.428-.126-.858l-.003-.012C4.599 43.07 2 32.971 2 22.5c0-6.859 2.376-12.466 6.423-16.376C12.452 2.232 18.171 0 25 0c13.935 0 21 9.139 21 17.5 0 4.012 2.354 10.49 3.76 14.079l.004.012a3.99 3.99 0 0 1-3.716 5.399H46V41a7 7 0 0 1-6.5 6.982z" style="fill:#0077af"/><path d="M24.397 38.841a1 1 0 1 1 1.206 0l.084.667c3.722-.071 7.114-.713 9.313-1.493 0 2.759-4.481 5-10 5s-10-2.241-10-5c2.199.78 5.591 1.422 9.313 1.493zM18 31.015q3.5 1.974 7 1.969 3.5-.006 7-1.969c-4.667 5.278-9.333 5.369-14 0m-2-3.993q4.5 1.975 9 1.969t9-1.969c-6 5.278-12 5.369-18 0m-2-4q5.5 1.975 11 1.969t11-1.969c-7.333 5.278-14.667 5.369-22 0m-2-4.007q6.5 1.974 13 1.969 6.5-.006 13-1.969c-8.667 5.278-17.333 5.369-26 0m-2-4.008q7.5 1.975 15 1.969c5-.002 10-.661 15-1.969-10 5.278-20 5.369-30 0M8 11a74.6 74.6 0 0 0 17 1.969c5.667-.003 11.333-.662 17-1.969-11.333 5.278-22.667 5.369-34 0" style="fill:#f1de7f"/></g></svg>