<?xml version="1.0" encoding="UTF-8" standalone="no"?><!DOCTYPE svg PUBLIC "-//W3C//DTD SVG 1.1//EN" "http://www.w3.org/Graphics/SVG/1.1/DTD/svg11.dtd"><svg width="100%" height="100%" viewBox="0 0 50 50" version="1.1" xmlns="http://www.w3.org/2000/svg" xmlns:xlink="http://www.w3.org/1999/xlink" xml:space="preserve" xmlns:serif="http://www.serif.com/" style="fill-rule:evenodd;clip-rule:evenodd;stroke-linejoin:round;stroke-miterlimit:2;"><rect id="value-computers" x="0" y="0" width="50" height="50" style="fill:none;"/><clipPath id="_clip1"><rect id="value-computers1" serif:id="value-computers" x="0" y="0" width="50" height="50"/></clipPath><g clip-path="url(#_clip1)"><g id="Value-Frame" serif:id="Value Frame"><path d="M7.5,48L7.5,46.438C7.5,46.138 7.456,45.841 7.371,45.554C6.736,43.329 4,33.11 4,22.5C4,10 12.5,2 25,2C37.5,2 44,10 44,17.5C44,21.716 46.421,28.537 47.893,32.297C48.124,32.909 48.04,33.594 47.669,34.132C47.297,34.669 46.685,34.99 46.032,34.99C44.956,35 44,35 44,35L44,41C44,43.761 41.761,46 39,46C38.131,46 37.5,46 37.5,46L37.5,48L7.5,48Z" style="fill:#10273d;"/><path d="M7.5,48L7.5,46.438C7.5,46.138 7.456,45.841 7.371,45.554C6.736,43.329 4,33.11 4,22.5C4,10 12.5,2 25,2C37.5,2 44,10 44,17.5C44,21.716 46.421,28.537 47.893,32.297C48.124,32.909 48.04,33.594 47.669,34.132C47.297,34.669 46.685,34.99 46.032,34.99C44.956,35 44,35 44,35L44,41C44,43.761 41.761,46 39,46C38.131,46 37.5,46 37.5,46L37.5,48L7.5,48Z" style="fill:#10273d;"/><path d="M39.5,48L37.5,48L37.5,46C37.5,46 38.131,46 39,46C41.761,46 44,43.761 44,41L44,35C44,35 44.956,35 46.032,34.99C46.685,34.99 47.297,34.669 47.669,34.132C48.04,33.594 48.124,32.909 47.893,32.297C46.421,28.537 44,21.716 44,17.5C44,10 37.5,2 25,2C12.5,2 4,10 4,22.5C4,32.729 6.543,42.594 7.296,45.283C7.431,45.741 7.5,46.215 7.5,46.692L7.5,48L5.5,48L5.5,46.693C5.5,46.407 5.459,46.122 5.374,45.835L5.371,45.823C4.599,43.07 2,32.971 2,22.5C2,15.641 4.376,10.034 8.423,6.124C12.452,2.232 18.171,-0 25,-0C38.935,-0 46,9.139 46,17.5C46,21.512 48.354,27.99 49.76,31.579L49.764,31.591C50.227,32.817 50.059,34.191 49.314,35.269C48.572,36.342 47.352,36.984 46.048,36.99C46.032,36.99 46.016,36.99 46,36.99L46,41C46,44.698 43.133,47.726 39.5,47.982L39.5,48Z" style="fill:#0077af;"/></g><g id="Computers"><path id="Computers1" serif:id="Computers" d="M12,36.732C11.402,36.386 11,35.74 11,35C11,33.896 11.896,33 13,33C14.104,33 15,33.896 15,35C15,35.74 14.598,36.386 14,36.732L14,41.268C14.598,41.614 15,42.26 15,43C15,44.104 14.104,45 13,45C11.896,45 11,44.104 11,43C11,42.26 11.402,41.614 12,41.268L12,36.732ZM15,14.732C14.402,14.386 14,13.74 14,13C14,11.896 14.896,11 16,11C17.104,11 18,11.896 18,13C18,13.74 17.598,14.386 17,14.732L17,22.586L25,30.586L25,45L17,45L17,41L19,41L19,34.414L9,24.414L9,14.732C8.402,14.386 8,13.74 8,13C8,11.896 8.896,11 10,11C11.104,11 12,11.896 12,13C12,13.74 11.598,14.386 11,14.732L11,23.586L21,33.586L21,41L23,41L23,31.414L15,23.414L15,14.732ZM25.518,26.932C25.353,26.976 25.179,27 25,27C23.896,27 23,26.104 23,25C23,23.896 23.896,23 25,23C26.104,23 27,23.896 27,25C27,25.179 26.976,25.353 26.932,25.518L29,27.586C29,27.586 29,40 29,40L38.268,40C38.614,39.402 39.26,39 40,39C41.104,39 42,39.896 42,41C42,42.104 41.104,43 40,43C39.26,43 38.614,42.598 38.268,42L27,42C27,42 27,28.414 27,28.414L25.518,26.932ZM38,12L38,11L42,11L42,21L39.414,21L33,27.414C33,27.414 33,34 33,34L38.268,34C38.614,33.402 39.26,33 40,33C41.104,33 42,33.896 42,35C42,36.104 41.104,37 40,37C39.26,37 38.614,36.598 38.268,36L31,36L31,26.586L38,19.586L38,14L35.414,14L29.414,20L24.732,20C24.386,20.598 23.74,21 23,21C21.896,21 21,20.104 21,19C21,17.896 21.896,17 23,17C23.74,17 24.386,17.402 24.732,18L28.586,18L32.586,14L24.732,14C24.386,14.598 23.74,15 23,15C21.896,15 21,14.104 21,13C21,11.896 21.896,11 23,11C23.74,11 24.386,11.402 24.732,12L38,12Z" style="fill:#f1de7f;"/></g></g></svg>