<?xml version="1.0" encoding="UTF-8" standalone="no"?><!DOCTYPE svg PUBLIC "-//W3C//DTD SVG 1.1//EN" "http://www.w3.org/Graphics/SVG/1.1/DTD/svg11.dtd"><svg width="100%" height="100%" viewBox="0 0 50 50" version="1.1" xmlns="http://www.w3.org/2000/svg" xmlns:xlink="http://www.w3.org/1999/xlink" xml:space="preserve" xmlns:serif="http://www.serif.com/" style="fill-rule:evenodd;clip-rule:evenodd;stroke-linejoin:round;stroke-miterlimit:2;"><rect id="value-aspiration" x="0" y="0" width="50" height="50" style="fill:none;"/><clipPath id="_clip1"><rect id="value-aspiration1" serif:id="value-aspiration" x="0" y="0" width="50" height="50"/></clipPath><g clip-path="url(#_clip1)"><g id="Value-Frame" serif:id="Value Frame"><path d="M7.5,48L7.5,46.438C7.5,46.138 7.456,45.841 7.371,45.554C6.736,43.329 4,33.11 4,22.5C4,10 12.5,2 25,2C37.5,2 44,10 44,17.5C44,21.716 46.421,28.537 47.893,32.297C48.124,32.909 48.04,33.594 47.669,34.132C47.297,34.669 46.685,34.99 46.032,34.99C44.956,35 44,35 44,35L44,41C44,43.761 41.761,46 39,46C38.131,46 37.5,46 37.5,46L37.5,48L7.5,48Z" style="fill:#10273d;"/><path d="M7.5,48L7.5,46.438C7.5,46.138 7.456,45.841 7.371,45.554C6.736,43.329 4,33.11 4,22.5C4,10 12.5,2 25,2C37.5,2 44,10 44,17.5C44,21.716 46.421,28.537 47.893,32.297C48.124,32.909 48.04,33.594 47.669,34.132C47.297,34.669 46.685,34.99 46.032,34.99C44.956,35 44,35 44,35L44,41C44,43.761 41.761,46 39,46C38.131,46 37.5,46 37.5,46L37.5,48L7.5,48Z" style="fill:#10273d;"/><path d="M39.5,48L37.5,48L37.5,46C37.5,46 38.131,46 39,46C41.761,46 44,43.761 44,41L44,35C44,35 44.956,35 46.032,34.99C46.685,34.99 47.297,34.669 47.669,34.132C48.04,33.594 48.124,32.909 47.893,32.297C46.421,28.537 44,21.716 44,17.5C44,10 37.5,2 25,2C12.5,2 4,10 4,22.5C4,32.729 6.543,42.594 7.296,45.283C7.431,45.741 7.5,46.215 7.5,46.692L7.5,48L5.5,48L5.5,46.693C5.5,46.407 5.459,46.122 5.374,45.835L5.371,45.823C4.599,43.07 2,32.971 2,22.5C2,15.641 4.376,10.034 8.423,6.124C12.452,2.232 18.171,-0 25,-0C38.935,-0 46,9.139 46,17.5C46,21.512 48.354,27.99 49.76,31.579L49.764,31.591C50.227,32.817 50.059,34.191 49.314,35.269C48.572,36.342 47.352,36.984 46.048,36.99C46.032,36.99 46.016,36.99 46,36.99L46,41C46,44.698 43.133,47.726 39.5,47.982L39.5,48Z" style="fill:#0077af;"/></g><g id="Aspiration"><path id="Aspiration1" serif:id="Aspiration" d="M34.727,19.222L32.565,17.917C32.526,17.893 32.5,17.836 32.5,17.773C32.5,17.709 32.526,17.652 32.565,17.629L35.688,15.744C35.791,15.681 35.886,15.588 35.964,15.47C36.043,15.351 36.106,15.21 36.147,15.055L37.404,10.37C37.42,10.311 37.458,10.273 37.5,10.273C37.542,10.273 37.58,10.311 37.596,10.37L38.853,15.055C38.894,15.21 38.957,15.351 39.036,15.47C39.114,15.588 39.209,15.681 39.312,15.744L42.435,17.629C42.474,17.652 42.5,17.709 42.5,17.773C42.5,17.836 42.474,17.893 42.435,17.917L39.312,19.802C39.209,19.865 39.114,19.958 39.036,20.076C38.957,20.195 38.894,20.336 38.853,20.491L37.596,25.176C37.58,25.234 37.542,25.273 37.5,25.273C37.458,25.273 37.42,25.234 37.404,25.176L36.427,21.532C34.645,25.448 30.888,31.94 27,37.562C26.938,37.651 26.835,37.8 26.687,37.714C26.653,37.694 26.625,37.678 26.611,37.65C26.553,37.537 26.703,37.221 27.467,35.63C28.177,34.15 29.149,32.124 29.882,30.371C30.982,27.739 30.902,27.215 30.851,27.117C30.846,27.105 30.84,27.1 30.837,27.098C30.836,27.098 30.823,27.092 30.784,27.101C25.787,28.249 14.049,35.748 9.63,38.571C7.699,39.804 7.699,39.804 7.586,39.667L7.5,39.536L7.605,39.427C9.885,37.057 27.729,23.555 34.727,19.222Z" style="fill:#f1de7f;fill-rule:nonzero;"/></g></g></svg>