<svg xmlns="http://www.w3.org/2000/svg" xml:space="preserve" style="fill-rule:evenodd;clip-rule:evenodd;stroke-linejoin:round;stroke-miterlimit:2" viewBox="0 0 50 50"><path d="M0 0h50v50H0z" style="fill:none"/><clipPath id="a"><path d="M0 0h50v50H0z"/></clipPath><g clip-path="url(#a)"><path d="M7.5 48v-1.562q0-.452-.129-.884C6.736 43.329 4 33.11 4 22.5 4 10 12.5 2 25 2s19 8 19 15.5c0 4.216 2.421 11.037 3.893 14.797a1.99 1.99 0 0 1-.224 1.835 1.99 1.99 0 0 1-1.637.858C44.956 35 44 35 44 35v6a5 5 0 0 1-5 5h-1.5v2z" style="fill:#10273d"/><path d="M7.5 48v-1.562q0-.452-.129-.884C6.736 43.329 4 33.11 4 22.5 4 10 12.5 2 25 2s19 8 19 15.5c0 4.216 2.421 11.037 3.893 14.797a1.99 1.99 0 0 1-.224 1.835 1.99 1.99 0 0 1-1.637.858C44.956 35 44 35 44 35v6a5 5 0 0 1-5 5h-1.5v2z" style="fill:#10273d"/><path d="M39.5 48h-2v-2H39a5 5 0 0 0 5-5v-6s.956 0 2.032-.01c.653 0 1.265-.321 1.637-.858a1.99 1.99 0 0 0 .224-1.835C46.421 28.537 44 21.716 44 17.5 44 10 37.5 2 25 2S4 10 4 22.5c0 10.229 2.543 20.094 3.296 22.783.135.458.204.932.204 1.409V48h-2v-1.307q0-.428-.126-.858l-.003-.012C4.599 43.07 2 32.971 2 22.5c0-6.859 2.376-12.466 6.423-16.376C12.452 2.232 18.171 0 25 0c13.935 0 21 9.139 21 17.5 0 4.012 2.354 10.49 3.76 14.079l.004.012a3.99 3.99 0 0 1-3.716 5.399H46V41a7 7 0 0 1-6.5 6.982z" style="fill:#0077af"/><path d="M22.846 23.056c1.28-6.72 2.201-15.556 2.201-15.556s.926 8.803 2.21 15.51c4.331.962 7.571 4.827 7.571 9.449 0 .837-.106 1.649-.306 2.424 2.85 1.245 5.74 1.297 5.74 1.297s-3.872 2.718-8.382 3.233a9.64 9.64 0 0 1-6.731 2.725 9.65 9.65 0 0 1-7.257-3.275c-3.124 1.353-5.082 3.748-5.091 3.633-.388-4.662 1.088-6.884 2.837-8.236a9.7 9.7 0 0 1-.168-1.801c0-4.552 3.142-8.369 7.376-9.403m4.582.825c.614 3.039 1.3 5.516 2.001 6.321l-4.362 7.037-4.382-7.011c.698-.802 1.379-3.266 1.989-6.293-3.693 1.075-6.4 4.489-6.4 8.524q0 .658.094 1.29c1.552-.989 3.144-1.487 3.741-2.512l4.609 7.111c-2.236-.645-4.28-.407-6.02.2a8.85 8.85 0 0 0 6.451 2.786 8.83 8.83 0 0 0 5.402-1.838c-1.674.015-3.39-.325-4.992-1.256l4.513-7.123c.897 1.578 2.264 2.664 3.708 3.413a8.8 8.8 0 0 0 .244-2.071c0-4.106-2.803-7.57-6.596-8.578" style="fill:#d23a2d;fill-rule:nonzero"/></g></svg>