<?xml version="1.0" encoding="UTF-8" standalone="no"?><!DOCTYPE svg PUBLIC "-//W3C//DTD SVG 1.1//EN" "http://www.w3.org/Graphics/SVG/1.1/DTD/svg11.dtd"><svg width="100%" height="100%" viewBox="0 0 50 50" version="1.1" xmlns="http://www.w3.org/2000/svg" xmlns:xlink="http://www.w3.org/1999/xlink" xml:space="preserve" xmlns:serif="http://www.serif.com/" style="fill-rule:evenodd;clip-rule:evenodd;stroke-linejoin:round;stroke-miterlimit:2;"><rect id="value-career-experienced" x="0" y="0" width="50" height="50" style="fill:none;"/><clipPath id="_clip1"><rect id="value-career-experienced1" serif:id="value-career-experienced" x="0" y="0" width="50" height="50"/></clipPath><g clip-path="url(#_clip1)"><g id="Value-Frame" serif:id="Value Frame"><path d="M7.5,48L7.5,46.438C7.5,46.138 7.456,45.841 7.371,45.554C6.736,43.329 4,33.11 4,22.5C4,10 12.5,2 25,2C37.5,2 44,10 44,17.5C44,21.716 46.421,28.537 47.893,32.297C48.124,32.909 48.04,33.594 47.669,34.132C47.297,34.669 46.685,34.99 46.032,34.99C44.956,35 44,35 44,35L44,41C44,43.761 41.761,46 39,46C38.131,46 37.5,46 37.5,46L37.5,48L7.5,48Z" style="fill:#10273d;"/><path d="M7.5,48L7.5,46.438C7.5,46.138 7.456,45.841 7.371,45.554C6.736,43.329 4,33.11 4,22.5C4,10 12.5,2 25,2C37.5,2 44,10 44,17.5C44,21.716 46.421,28.537 47.893,32.297C48.124,32.909 48.04,33.594 47.669,34.132C47.297,34.669 46.685,34.99 46.032,34.99C44.956,35 44,35 44,35L44,41C44,43.761 41.761,46 39,46C38.131,46 37.5,46 37.5,46L37.5,48L7.5,48Z" style="fill:#10273d;"/><path d="M39.5,48L37.5,48L37.5,46C37.5,46 38.131,46 39,46C41.761,46 44,43.761 44,41L44,35C44,35 44.956,35 46.032,34.99C46.685,34.99 47.297,34.669 47.669,34.132C48.04,33.594 48.124,32.909 47.893,32.297C46.421,28.537 44,21.716 44,17.5C44,10 37.5,2 25,2C12.5,2 4,10 4,22.5C4,32.729 6.543,42.594 7.296,45.283C7.431,45.741 7.5,46.215 7.5,46.692L7.5,48L5.5,48L5.5,46.693C5.5,46.407 5.459,46.122 5.374,45.835L5.371,45.823C4.599,43.07 2,32.971 2,22.5C2,15.641 4.376,10.034 8.423,6.124C12.452,2.232 18.171,-0 25,-0C38.935,-0 46,9.139 46,17.5C46,21.512 48.354,27.99 49.76,31.579L49.764,31.591C50.227,32.817 50.059,34.191 49.314,35.269C48.572,36.342 47.352,36.984 46.048,36.99C46.032,36.99 46.016,36.99 46,36.99L46,41C46,44.698 43.133,47.726 39.5,47.982L39.5,48Z" style="fill:#0077af;"/></g><g id="Experienced"><path id="Experienced1" serif:id="Experienced" d="M22.858,28.639C22.871,28.571 22.931,28.522 23,28.522C23.069,28.522 23.129,28.571 23.142,28.639L24.052,33.323C24.107,33.607 24.245,33.867 24.45,34.072C24.654,34.276 24.915,34.415 25.199,34.47L29.883,35.379C29.951,35.393 30,35.452 30,35.522C30,35.591 29.951,35.651 29.883,35.664L25.199,36.573C24.915,36.628 24.654,36.767 24.45,36.971C24.245,37.176 24.107,37.436 24.052,37.72L23.142,42.404C23.129,42.472 23.069,42.522 23,42.522C22.931,42.522 22.871,42.472 22.858,42.404L21.948,37.72C21.893,37.436 21.755,37.176 21.55,36.971C21.346,36.767 21.085,36.628 20.801,36.573L16.117,35.664C16.049,35.651 16,35.591 16,35.522C16,35.452 16.049,35.393 16.117,35.379L20.801,34.47C21.085,34.415 21.346,34.276 21.55,34.072C21.755,33.867 21.893,33.607 21.948,33.323L22.858,28.639ZM33.827,19.142C33.843,19.06 33.916,19 34,19C34.084,19 34.157,19.06 34.173,19.142L35.277,24.83C35.344,25.175 35.512,25.491 35.76,25.74C36.009,25.988 36.325,26.156 36.67,26.223L42.358,27.327C42.44,27.343 42.5,27.416 42.5,27.5C42.5,27.584 42.44,27.657 42.358,27.673L36.67,28.777C36.325,28.844 36.009,29.012 35.76,29.26C35.512,29.509 35.344,29.825 35.277,30.17L34.173,35.858C34.157,35.94 34.084,36 34,36C33.916,36 33.843,35.94 33.827,35.858L32.723,30.17C32.656,29.825 32.488,29.509 32.24,29.26C31.991,29.012 31.675,28.844 31.33,28.777L25.642,27.673C25.56,27.657 25.5,27.584 25.5,27.5C25.5,27.416 25.56,27.343 25.642,27.327L31.33,26.223C31.675,26.156 31.991,25.988 32.24,25.74C32.488,25.491 32.656,25.175 32.723,24.83L33.827,19.142ZM18.276,7.684C18.297,7.577 18.391,7.5 18.5,7.5C18.609,7.5 18.703,7.577 18.724,7.684L20.153,15.045C20.239,15.491 20.457,15.901 20.778,16.222C21.099,16.543 21.509,16.761 21.955,16.847L29.316,18.276C29.423,18.297 29.5,18.391 29.5,18.5C29.5,18.609 29.423,18.703 29.316,18.724L21.955,20.153C21.509,20.239 21.099,20.457 20.778,20.778C20.457,21.099 20.239,21.509 20.153,21.955L18.724,29.316C18.703,29.423 18.609,29.5 18.5,29.5C18.391,29.5 18.297,29.423 18.276,29.316L16.847,21.955C16.761,21.509 16.543,21.099 16.222,20.778C15.901,20.457 15.491,20.239 15.045,20.153L7.684,18.724C7.577,18.703 7.5,18.609 7.5,18.5C7.5,18.391 7.577,18.297 7.684,18.276L15.045,16.847C15.491,16.761 15.901,16.543 16.222,16.222C16.543,15.901 16.761,15.491 16.847,15.045L18.276,7.684Z" style="fill:#f1de7f;"/></g></g></svg>