<?xml version="1.0" encoding="UTF-8" standalone="no"?><!DOCTYPE svg PUBLIC "-//W3C//DTD SVG 1.1//EN" "http://www.w3.org/Graphics/SVG/1.1/DTD/svg11.dtd"><svg width="100%" height="100%" viewBox="0 0 50 50" version="1.1" xmlns="http://www.w3.org/2000/svg" xmlns:xlink="http://www.w3.org/1999/xlink" xml:space="preserve" xmlns:serif="http://www.serif.com/" style="fill-rule:evenodd;clip-rule:evenodd;stroke-linejoin:round;stroke-miterlimit:2;"><rect id="value-torpedo" x="0" y="0" width="50" height="50" style="fill:none;"/><clipPath id="_clip1"><rect id="value-torpedo1" serif:id="value-torpedo" x="0" y="0" width="50" height="50"/></clipPath><g clip-path="url(#_clip1)"><g id="Value-Frame" serif:id="Value Frame"><path d="M7.5,48L7.5,46.438C7.5,46.138 7.456,45.841 7.371,45.554C6.736,43.329 4,33.11 4,22.5C4,10 12.5,2 25,2C37.5,2 44,10 44,17.5C44,21.716 46.421,28.537 47.893,32.297C48.124,32.909 48.04,33.594 47.669,34.132C47.297,34.669 46.685,34.99 46.032,34.99C44.956,35 44,35 44,35L44,41C44,43.761 41.761,46 39,46C38.131,46 37.5,46 37.5,46L37.5,48L7.5,48Z" style="fill:#10273d;"/><path d="M7.5,48L7.5,46.438C7.5,46.138 7.456,45.841 7.371,45.554C6.736,43.329 4,33.11 4,22.5C4,10 12.5,2 25,2C37.5,2 44,10 44,17.5C44,21.716 46.421,28.537 47.893,32.297C48.124,32.909 48.04,33.594 47.669,34.132C47.297,34.669 46.685,34.99 46.032,34.99C44.956,35 44,35 44,35L44,41C44,43.761 41.761,46 39,46C38.131,46 37.5,46 37.5,46L37.5,48L7.5,48Z" style="fill:#10273d;"/><path d="M39.5,48L37.5,48L37.5,46C37.5,46 38.131,46 39,46C41.761,46 44,43.761 44,41L44,35C44,35 44.956,35 46.032,34.99C46.685,34.99 47.297,34.669 47.669,34.132C48.04,33.594 48.124,32.909 47.893,32.297C46.421,28.537 44,21.716 44,17.5C44,10 37.5,2 25,2C12.5,2 4,10 4,22.5C4,32.729 6.543,42.594 7.296,45.283C7.431,45.741 7.5,46.215 7.5,46.692L7.5,48L5.5,48L5.5,46.693C5.5,46.407 5.459,46.122 5.374,45.835L5.371,45.823C4.599,43.07 2,32.971 2,22.5C2,15.641 4.376,10.034 8.423,6.124C12.452,2.232 18.171,-0 25,-0C38.935,-0 46,9.139 46,17.5C46,21.512 48.354,27.99 49.76,31.579L49.764,31.591C50.227,32.817 50.059,34.191 49.314,35.269C48.572,36.342 47.352,36.984 46.048,36.99C46.032,36.99 46.016,36.99 46,36.99L46,41C46,44.698 43.133,47.726 39.5,47.982L39.5,48Z" style="fill:#0077af;"/></g><g id="Torpedo"><path id="Torpedo1" serif:id="Torpedo" d="M29,41.443C28.678,41.628 28.344,41.79 28,41.928L28,39L26,39L26,42.441C25.682,42.48 25.36,42.5 25.036,42.5C25.012,42.5 24.988,42.5 24.964,42.5C24.64,42.5 24.318,42.48 24,42.441L24,39L22,39L22,41.928C21.656,41.79 21.322,41.628 21,41.443L21,38L29,38L29,41.443ZM17.014,15L24,15L24,22L17,22L17,34.536C17,36.648 17.839,38.674 19.333,40.167C19.545,40.379 19.768,40.578 20,40.764L20,37L30,37L30,40.764C30.232,40.578 30.455,40.379 30.667,40.167C32.161,38.674 33,36.648 33,34.536L33,22L26,22L26,15L32.986,15C32.873,13.057 32.051,11.216 30.667,9.833C29.174,8.339 27.148,7.5 25.036,7.5C25.012,7.5 24.988,7.5 24.964,7.5C22.852,7.5 20.826,8.339 19.333,9.833C17.949,11.216 17.127,13.057 17.014,15ZM24,23L19,23L19,36L24,36L24,23ZM31,23L26,23L26,36L31,36L31,23ZM23,29L23,35C23,35 20,35 20,35L20,29L23,29ZM30,29L30,35C30,35 27,35 27,35L27,29L30,29ZM20,28L20,27L23,27L23,28L20,28ZM27,28L27,27L30,27L30,28L27,28ZM30,26L27,26L27,24L30,24L30,26ZM23,26L20,26L20,24L23,24L23,26ZM33,16L33,21L27,21C27,21 27,16 27,16L33,16ZM17,16L23,16L23,21L17,21L17,16ZM19,17L18,17L18,20L19,20L19,17ZM32,17L31,17L31,20L32,20L32,17Z" style="fill:#f1de7f;"/></g></g></svg>