<?xml version="1.0" encoding="UTF-8" standalone="no"?><!DOCTYPE svg PUBLIC "-//W3C//DTD SVG 1.1//EN" "http://www.w3.org/Graphics/SVG/1.1/DTD/svg11.dtd"><svg width="100%" height="100%" viewBox="0 0 50 50" version="1.1" xmlns="http://www.w3.org/2000/svg" xmlns:xlink="http://www.w3.org/1999/xlink" xml:space="preserve" xmlns:serif="http://www.serif.com/" style="fill-rule:evenodd;clip-rule:evenodd;stroke-linejoin:round;stroke-miterlimit:2;"><rect id="value-trill" x="0" y="0" width="50" height="50" style="fill:none;"/><clipPath id="_clip1"><rect id="value-trill1" serif:id="value-trill" x="0" y="0" width="50" height="50"/></clipPath><g clip-path="url(#_clip1)"><g id="Value-Frame" serif:id="Value Frame"><path d="M7.5,48L7.5,46.438C7.5,46.138 7.456,45.841 7.371,45.554C6.736,43.329 4,33.11 4,22.5C4,10 12.5,2 25,2C37.5,2 44,10 44,17.5C44,21.716 46.421,28.537 47.893,32.297C48.124,32.909 48.04,33.594 47.669,34.132C47.297,34.669 46.685,34.99 46.032,34.99C44.956,35 44,35 44,35L44,41C44,43.761 41.761,46 39,46C38.131,46 37.5,46 37.5,46L37.5,48L7.5,48Z" style="fill:#10273d;"/><path d="M7.5,48L7.5,46.438C7.5,46.138 7.456,45.841 7.371,45.554C6.736,43.329 4,33.11 4,22.5C4,10 12.5,2 25,2C37.5,2 44,10 44,17.5C44,21.716 46.421,28.537 47.893,32.297C48.124,32.909 48.04,33.594 47.669,34.132C47.297,34.669 46.685,34.99 46.032,34.99C44.956,35 44,35 44,35L44,41C44,43.761 41.761,46 39,46C38.131,46 37.5,46 37.5,46L37.5,48L7.5,48Z" style="fill:#10273d;"/><path d="M39.5,48L37.5,48L37.5,46C37.5,46 38.131,46 39,46C41.761,46 44,43.761 44,41L44,35C44,35 44.956,35 46.032,34.99C46.685,34.99 47.297,34.669 47.669,34.132C48.04,33.594 48.124,32.909 47.893,32.297C46.421,28.537 44,21.716 44,17.5C44,10 37.5,2 25,2C12.5,2 4,10 4,22.5C4,32.729 6.543,42.594 7.296,45.283C7.431,45.741 7.5,46.215 7.5,46.692L7.5,48L5.5,48L5.5,46.693C5.5,46.407 5.459,46.122 5.374,45.835L5.371,45.823C4.599,43.07 2,32.971 2,22.5C2,15.641 4.376,10.034 8.423,6.124C12.452,2.232 18.171,-0 25,-0C38.935,-0 46,9.139 46,17.5C46,21.512 48.354,27.99 49.76,31.579L49.764,31.591C50.227,32.817 50.059,34.191 49.314,35.269C48.572,36.342 47.352,36.984 46.048,36.99C46.032,36.99 46.016,36.99 46,36.99L46,41C46,44.698 43.133,47.726 39.5,47.982L39.5,48Z" style="fill:#0077af;"/></g><g id="Trill"><path id="Trill1" serif:id="Trill" d="M19.907,30.741L26.898,30.741L26.898,22.685L29.074,22.685L29.074,30.741L30.648,30.741L30.648,22.685L32.824,22.685L32.824,30.741L42.5,30.741L42.5,32.269L41.759,33.194L32.824,33.194L32.824,41.528L30.648,41.528L30.648,33.194L29.074,33.194L29.074,41.528L26.898,41.528L26.898,33.194L19.907,33.194C16.481,33.194 13.557,31.991 11.134,29.583C8.711,27.176 7.5,24.259 7.5,20.833C7.5,19.383 7.762,17.948 8.287,16.528L7.731,15.602L8.796,14.444L9.306,14.444C10.417,12.623 11.883,11.188 13.704,10.139C15.617,9.028 17.693,8.472 19.931,8.472C22.168,8.472 24.228,9.028 26.111,10.139C28.086,11.343 29.568,12.778 30.556,14.444L38.056,14.444C39.012,14.475 39.969,15.046 40.926,16.157C41.821,17.145 42.299,18.117 42.361,19.074L41.62,19.815L35.231,19.815L35.231,21.019L34.676,21.62L25.278,21.667C25.031,22.994 24.414,24.097 23.426,24.977C22.438,25.856 21.265,26.296 19.907,26.296C18.364,26.296 17.068,25.756 16.019,24.676C14.969,23.596 14.444,22.315 14.444,20.833C14.444,19.63 14.846,18.503 15.648,17.454L10.602,17.454C10.201,18.534 10,19.66 10,20.833C10,23.549 10.965,25.88 12.894,27.824C14.823,29.769 17.16,30.741 19.907,30.741ZM27.546,14.444C25.633,12.13 23.086,10.972 19.907,10.972C16.852,10.972 14.321,12.13 12.315,14.444L27.546,14.444Z" style="fill:#ccc;fill-rule:nonzero;"/></g></g></svg>