<svg xmlns="http://www.w3.org/2000/svg" xml:space="preserve" style="fill-rule:evenodd;clip-rule:evenodd;stroke-linejoin:round;stroke-miterlimit:2" viewBox="0 0 50 50"><path d="M0 0h50v50H0z" style="fill:none"/><clipPath id="a"><path d="M0 0h50v50H0z"/></clipPath><g clip-path="url(#a)"><path d="M7.5 48v-1.562q0-.452-.129-.884C6.736 43.329 4 33.11 4 22.5 4 10 12.5 2 25 2s19 8 19 15.5c0 4.216 2.421 11.037 3.893 14.797a1.99 1.99 0 0 1-.224 1.835 1.99 1.99 0 0 1-1.637.858C44.956 35 44 35 44 35v6a5 5 0 0 1-5 5h-1.5v2z" style="fill:#10273d"/><path d="M7.5 48v-1.562q0-.452-.129-.884C6.736 43.329 4 33.11 4 22.5 4 10 12.5 2 25 2s19 8 19 15.5c0 4.216 2.421 11.037 3.893 14.797a1.99 1.99 0 0 1-.224 1.835 1.99 1.99 0 0 1-1.637.858C44.956 35 44 35 44 35v6a5 5 0 0 1-5 5h-1.5v2z" style="fill:#10273d"/><path d="M39.5 48h-2v-2H39a5 5 0 0 0 5-5v-6s.956 0 2.032-.01c.653 0 1.265-.321 1.637-.858a1.99 1.99 0 0 0 .224-1.835C46.421 28.537 44 21.716 44 17.5 44 10 37.5 2 25 2S4 10 4 22.5c0 10.229 2.543 20.094 3.296 22.783.135.458.204.932.204 1.409V48h-2v-1.307q0-.428-.126-.858l-.003-.012C4.599 43.07 2 32.971 2 22.5c0-6.859 2.376-12.466 6.423-16.376C12.452 2.232 18.171 0 25 0c13.935 0 21 9.139 21 17.5 0 4.012 2.354 10.49 3.76 14.079l.004.012a3.99 3.99 0 0 1-3.716 5.399H46V41a7 7 0 0 1-6.5 6.982z" style="fill:#0077af"/><path d="M24 9.033C15.972 9.536 9.542 15.971 9.046 24H7.5v2h1.546C9.543 34.031 15.973 40.465 24 40.968V42.5h2v-1.53c8.041-.489 14.487-6.93 14.984-14.97H42.5v-2h-1.517C40.487 15.961 34.042 9.521 26 9.031V7.5h-2zM38.979 26c-.49 6.935-6.041 12.482-12.979 12.966v-2.007c5.827-.482 10.477-5.133 10.958-10.959zm-25.937 0c.481 5.827 5.133 10.478 10.958 10.959v2.005C17.076 38.466 11.54 32.925 11.05 26zM24 32.434A7.51 7.51 0 0 1 17.566 26H24zM32.433 26A7.51 7.51 0 0 1 26 32.434V26zM24 11.037v6.53A7.51 7.51 0 0 0 17.566 24H11.05c.49-6.924 6.026-12.466 12.95-12.963m2-.002c6.937.483 12.489 6.03 12.979 12.965h-6.545A7.51 7.51 0 0 0 26 17.567z" style="fill:#f5d63d"/></g></svg>