<?xml version="1.0" encoding="UTF-8" standalone="no"?><!DOCTYPE svg PUBLIC "-//W3C//DTD SVG 1.1//EN" "http://www.w3.org/Graphics/SVG/1.1/DTD/svg11.dtd"><svg width="100%" height="100%" viewBox="0 0 50 50" version="1.1" xmlns="http://www.w3.org/2000/svg" xmlns:xlink="http://www.w3.org/1999/xlink" xml:space="preserve" xmlns:serif="http://www.serif.com/" style="fill-rule:evenodd;clip-rule:evenodd;stroke-linejoin:round;stroke-miterlimit:2;"><rect id="value-sensors" x="0" y="0" width="50" height="50" style="fill:none;"/><clipPath id="_clip1"><rect id="value-sensors1" serif:id="value-sensors" x="0" y="0" width="50" height="50"/></clipPath><g clip-path="url(#_clip1)"><g id="Value-Frame" serif:id="Value Frame"><path d="M7.5,48L7.5,46.438C7.5,46.138 7.456,45.841 7.371,45.554C6.736,43.329 4,33.11 4,22.5C4,10 12.5,2 25,2C37.5,2 44,10 44,17.5C44,21.716 46.421,28.537 47.893,32.297C48.124,32.909 48.04,33.594 47.669,34.132C47.297,34.669 46.685,34.99 46.032,34.99C44.956,35 44,35 44,35L44,41C44,43.761 41.761,46 39,46C38.131,46 37.5,46 37.5,46L37.5,48L7.5,48Z" style="fill:#10273d;"/><path d="M7.5,48L7.5,46.438C7.5,46.138 7.456,45.841 7.371,45.554C6.736,43.329 4,33.11 4,22.5C4,10 12.5,2 25,2C37.5,2 44,10 44,17.5C44,21.716 46.421,28.537 47.893,32.297C48.124,32.909 48.04,33.594 47.669,34.132C47.297,34.669 46.685,34.99 46.032,34.99C44.956,35 44,35 44,35L44,41C44,43.761 41.761,46 39,46C38.131,46 37.5,46 37.5,46L37.5,48L7.5,48Z" style="fill:#10273d;"/><path d="M39.5,48L37.5,48L37.5,46C37.5,46 38.131,46 39,46C41.761,46 44,43.761 44,41L44,35C44,35 44.956,35 46.032,34.99C46.685,34.99 47.297,34.669 47.669,34.132C48.04,33.594 48.124,32.909 47.893,32.297C46.421,28.537 44,21.716 44,17.5C44,10 37.5,2 25,2C12.5,2 4,10 4,22.5C4,32.729 6.543,42.594 7.296,45.283C7.431,45.741 7.5,46.215 7.5,46.692L7.5,48L5.5,48L5.5,46.693C5.5,46.407 5.459,46.122 5.374,45.835L5.371,45.823C4.599,43.07 2,32.971 2,22.5C2,15.641 4.376,10.034 8.423,6.124C12.452,2.232 18.171,-0 25,-0C38.935,-0 46,9.139 46,17.5C46,21.512 48.354,27.99 49.76,31.579L49.764,31.591C50.227,32.817 50.059,34.191 49.314,35.269C48.572,36.342 47.352,36.984 46.048,36.99C46.032,36.99 46.016,36.99 46,36.99L46,41C46,44.698 43.133,47.726 39.5,47.982L39.5,48Z" style="fill:#0077af;"/></g><g id="Sensors"><path id="Sensors1" serif:id="Sensors" d="M35.09,24.006C34.799,23.35 34.491,22.782 34.147,22.367C33.683,21.808 33.145,21.5 32.522,21.5C31.898,21.5 31.361,21.808 30.897,22.367C30.552,22.782 30.244,23.35 29.953,24.006C29.362,19.677 28.659,15.668 27.686,13.425C27.312,12.563 26.881,11.93 26.432,11.549C25.992,11.176 25.517,11 25.022,11C24.521,11 24.046,11.179 23.611,11.555C23.169,11.939 22.749,12.576 22.393,13.442C21.483,15.656 20.871,19.59 20.35,23.853C20.156,23.439 19.946,23.063 19.713,22.745C19.143,21.965 18.435,21.5 17.522,21.5C16.608,21.5 15.9,21.965 15.33,22.745C15.097,23.063 14.888,23.439 14.693,23.853C14.173,19.59 13.56,15.656 12.65,13.442C12.294,12.576 11.874,11.939 11.432,11.555C10.997,11.179 10.523,11 10.022,11L10.022,13C10.148,13 10.21,13.142 10.312,13.28C10.489,13.518 10.648,13.831 10.8,14.203C11.878,16.825 12.481,21.97 13.059,27.112L13.162,28.031C12.871,28.816 12.548,29.556 12.148,30.161C11.625,30.951 10.969,31.5 10.022,31.5L10.022,32.5C11.325,32.5 12.262,31.8 12.981,30.714C13.125,30.497 13.26,30.264 13.387,30.019C13.879,34.308 14.397,38.277 15.159,40.501C15.454,41.364 15.806,42 16.171,42.381C16.584,42.811 17.045,43 17.522,43C17.998,43 18.459,42.811 18.872,42.381C19.238,42 19.589,41.364 19.884,40.501C20.646,38.277 21.164,34.308 21.656,30.019C21.784,30.264 21.918,30.497 22.062,30.714C22.781,31.8 23.719,32.5 25.022,32.5C26.313,32.5 27.295,31.807 28.075,30.731C28.287,30.439 28.484,30.117 28.669,29.775C28.743,30.379 28.816,30.976 28.889,31.564C29.406,35.696 29.937,39.342 30.622,41.16C30.858,41.785 31.132,42.234 31.401,42.505C31.751,42.857 32.137,43 32.522,43C32.907,43 33.292,42.857 33.642,42.505C33.911,42.234 34.185,41.785 34.421,41.16C35.106,39.342 35.637,35.696 36.154,31.564C36.227,30.976 36.301,30.379 36.374,29.775C36.559,30.117 36.756,30.439 36.968,30.731C37.748,31.807 38.731,32.5 40.022,32.5L40.022,31.5C38.85,31.5 38.059,30.679 37.415,29.586C37.114,29.076 36.848,28.506 36.602,27.912C37.214,22.933 37.891,17.841 38.928,14.899C39.168,14.22 39.418,13.669 39.705,13.292C39.817,13.146 39.888,13 40.022,13L40.022,11C39.526,11 39.051,11.176 38.611,11.549C38.163,11.93 37.731,12.563 37.358,13.425C36.384,15.668 35.682,19.677 35.09,24.006ZM20.104,25.94C19.832,25.154 19.548,24.414 19.207,23.808C18.78,23.049 18.281,22.5 17.522,22.5C16.763,22.5 16.263,23.049 15.836,23.808C15.495,24.414 15.211,25.154 14.939,25.94C14.975,26.256 15.011,26.572 15.047,26.888C15.628,32.053 16.149,37.22 17.051,39.854C17.18,40.231 17.314,40.549 17.463,40.791C17.48,40.818 17.5,40.847 17.522,40.875C17.543,40.847 17.563,40.818 17.58,40.791C17.729,40.549 17.863,40.231 17.992,39.854C18.894,37.22 19.416,32.053 19.997,26.888C20.032,26.572 20.068,26.256 20.104,25.94ZM34.822,26.039C34.435,24.985 34.057,24.005 33.604,23.314C33.292,22.84 32.967,22.5 32.522,22.5C32.076,22.5 31.751,22.84 31.44,23.314C30.986,24.005 30.608,24.985 30.221,26.039C30.256,26.317 30.291,26.597 30.326,26.876C30.975,32.062 31.523,37.249 32.308,39.893C32.366,40.09 32.444,40.292 32.522,40.473C32.599,40.292 32.677,40.09 32.736,39.893C33.52,37.249 34.069,32.062 34.717,26.876C34.752,26.597 34.787,26.317 34.822,26.039ZM28.441,27.912C27.829,22.933 27.153,17.841 26.115,14.899C25.876,14.22 25.625,13.669 25.338,13.292C25.227,13.146 25.155,13 25.022,13C24.895,13 24.833,13.142 24.731,13.28C24.555,13.518 24.396,13.831 24.243,14.203C23.165,16.825 22.563,21.97 21.984,27.112L21.881,28.031C22.172,28.816 22.495,29.556 22.895,30.161C23.418,30.951 24.075,31.5 25.022,31.5C26.193,31.5 26.984,30.679 27.628,29.586C27.929,29.076 28.195,28.506 28.441,27.912Z" style="fill:#f1de7f;"/></g></g></svg>