<svg xmlns="http://www.w3.org/2000/svg" xml:space="preserve" style="fill-rule:evenodd;clip-rule:evenodd;stroke-linejoin:round;stroke-miterlimit:2" viewBox="0 0 50 50"><path d="M0 0h50v50H0z" style="fill:none"/><clipPath id="a"><path d="M0 0h50v50H0z"/></clipPath><g clip-path="url(#a)"><path d="M7.5 48v-1.562q0-.452-.129-.884C6.736 43.329 4 33.11 4 22.5 4 10 12.5 2 25 2s19 8 19 15.5c0 4.216 2.421 11.037 3.893 14.797a1.99 1.99 0 0 1-.224 1.835 1.99 1.99 0 0 1-1.637.858C44.956 35 44 35 44 35v6a5 5 0 0 1-5 5h-1.5v2z" style="fill:#10273d"/><path d="M7.5 48v-1.562q0-.452-.129-.884C6.736 43.329 4 33.11 4 22.5 4 10 12.5 2 25 2s19 8 19 15.5c0 4.216 2.421 11.037 3.893 14.797a1.99 1.99 0 0 1-.224 1.835 1.99 1.99 0 0 1-1.637.858C44.956 35 44 35 44 35v6a5 5 0 0 1-5 5h-1.5v2z" style="fill:#10273d"/><path d="M39.5 48h-2v-2H39a5 5 0 0 0 5-5v-6s.956 0 2.032-.01c.653 0 1.265-.321 1.637-.858a1.99 1.99 0 0 0 .224-1.835C46.421 28.537 44 21.716 44 17.5 44 10 37.5 2 25 2S4 10 4 22.5c0 10.229 2.543 20.094 3.296 22.783.135.458.204.932.204 1.409V48h-2v-1.307q0-.428-.126-.858l-.003-.012C4.599 43.07 2 32.971 2 22.5c0-6.859 2.376-12.466 6.423-16.376C12.452 2.232 18.171 0 25 0c13.935 0 21 9.139 21 17.5 0 4.012 2.354 10.49 3.76 14.079l.004.012a3.99 3.99 0 0 1-3.716 5.399H46V41a7 7 0 0 1-6.5 6.982z" style="fill:#0077af"/><path d="M35.09 24.006c-.291-.656-.599-1.224-.943-1.639-.464-.559-1.002-.867-1.625-.867-.624 0-1.161.308-1.625.867-.345.415-.653.983-.944 1.639-.591-4.329-1.294-8.338-2.267-10.581-.374-.862-.805-1.495-1.254-1.876-.44-.373-.915-.549-1.41-.549-.501 0-.976.179-1.411.555-.442.384-.862 1.021-1.218 1.887-.91 2.214-1.522 6.148-2.043 10.411a6.7 6.7 0 0 0-.637-1.108c-.57-.78-1.278-1.245-2.191-1.245-.914 0-1.622.465-2.192 1.245a6.8 6.8 0 0 0-.637 1.108c-.52-4.263-1.133-8.197-2.043-10.411-.356-.866-.776-1.503-1.218-1.887-.435-.376-.909-.555-1.41-.555v2c.126 0 .188.142.29.28.177.238.336.551.488.923 1.078 2.622 1.681 7.767 2.259 12.909l.103.919c-.291.785-.614 1.525-1.014 2.13-.523.79-1.179 1.339-2.126 1.339v1c1.303 0 2.24-.7 2.959-1.786q.216-.326.406-.695c.492 4.289 1.01 8.258 1.772 10.482.295.863.647 1.499 1.012 1.88.413.43.874.619 1.351.619.476 0 .937-.189 1.35-.619.366-.381.717-1.017 1.012-1.88.762-2.224 1.28-6.193 1.772-10.482q.191.369.406.695c.719 1.086 1.657 1.786 2.96 1.786 1.291 0 2.273-.693 3.053-1.769.212-.292.409-.614.594-.956l.22 1.789c.517 4.132 1.048 7.778 1.733 9.596.236.625.51 1.074.779 1.345.35.352.736.495 1.121.495s.77-.143 1.12-.495c.269-.271.543-.72.779-1.345.685-1.818 1.216-5.464 1.733-9.596q.11-.883.22-1.789c.185.342.382.664.594.956.78 1.076 1.763 1.769 3.054 1.769v-1c-1.172 0-1.963-.821-2.607-1.914-.301-.51-.567-1.08-.813-1.674.612-4.979 1.289-10.071 2.326-13.013.24-.679.49-1.23.777-1.607.112-.146.183-.292.317-.292v-2c-.496 0-.971.176-1.411.549-.448.381-.88 1.014-1.253 1.876-.974 2.243-1.676 6.252-2.268 10.581M20.104 25.94c-.272-.786-.556-1.526-.897-2.132-.427-.759-.926-1.308-1.685-1.308s-1.259.549-1.686 1.308c-.341.606-.625 1.346-.897 2.132l.108.948c.581 5.165 1.102 10.332 2.004 12.966.129.377.263.695.412.937a1 1 0 0 0 .059.084q.032-.043.058-.084c.149-.242.283-.56.412-.937.902-2.634 1.424-7.801 2.005-12.966zm14.718.099c-.387-1.054-.765-2.034-1.218-2.725-.312-.474-.637-.814-1.082-.814s-.771.34-1.082.814c-.454.691-.832 1.671-1.219 2.725l.105.837c.649 5.186 1.197 10.373 1.982 13.017.058.197.136.399.214.58.077-.181.155-.383.214-.58.784-2.644 1.333-7.831 1.981-13.017zm-6.381 1.873c-.612-4.979-1.288-10.071-2.326-13.013-.239-.679-.49-1.23-.777-1.607-.111-.146-.183-.292-.316-.292-.127 0-.189.142-.291.28-.176.238-.335.551-.488.923-1.078 2.622-1.68 7.767-2.259 12.909l-.103.919c.291.785.614 1.525 1.014 2.13.523.79 1.18 1.339 2.127 1.339 1.171 0 1.962-.821 2.606-1.914.301-.51.567-1.08.813-1.674" style="fill:#f1de7f"/></g></svg>