<svg xmlns="http://www.w3.org/2000/svg" xml:space="preserve" style="fill-rule:evenodd;clip-rule:evenodd;stroke-linejoin:round;stroke-miterlimit:2" viewBox="0 0 50 50"><path d="M0 0h50v50H0z" style="fill:none"/><clipPath id="a"><path d="M0 0h50v50H0z"/></clipPath><g clip-path="url(#a)"><path d="M7.5 48v-1.562q0-.452-.129-.884C6.736 43.329 4 33.11 4 22.5 4 10 12.5 2 25 2s19 8 19 15.5c0 4.216 2.421 11.037 3.893 14.797a1.99 1.99 0 0 1-.224 1.835 1.99 1.99 0 0 1-1.637.858C44.956 35 44 35 44 35v6a5 5 0 0 1-5 5h-1.5v2z" style="fill:#10273d"/><path d="M7.5 48v-1.562q0-.452-.129-.884C6.736 43.329 4 33.11 4 22.5 4 10 12.5 2 25 2s19 8 19 15.5c0 4.216 2.421 11.037 3.893 14.797a1.99 1.99 0 0 1-.224 1.835 1.99 1.99 0 0 1-1.637.858C44.956 35 44 35 44 35v6a5 5 0 0 1-5 5h-1.5v2z" style="fill:#10273d"/><path d="M39.5 48h-2v-2H39a5 5 0 0 0 5-5v-6s.956 0 2.032-.01c.653 0 1.265-.321 1.637-.858a1.99 1.99 0 0 0 .224-1.835C46.421 28.537 44 21.716 44 17.5 44 10 37.5 2 25 2S4 10 4 22.5c0 10.229 2.543 20.094 3.296 22.783.135.458.204.932.204 1.409V48h-2v-1.307q0-.428-.126-.858l-.003-.012C4.599 43.07 2 32.971 2 22.5c0-6.859 2.376-12.466 6.423-16.376C12.452 2.232 18.171 0 25 0c13.935 0 21 9.139 21 17.5 0 4.012 2.354 10.49 3.76 14.079l.004.012a3.99 3.99 0 0 1-3.716 5.399H46V41a7 7 0 0 1-6.5 6.982z" style="fill:#0077af"/><path d="M32.066 38c-6.108 3.32-13.506 1.879-17.987-3.037-.048-.182-.097-.362-.137-.544 4.901 2.365 10.827 2.422 15.973-.375 5.146-2.796 8.322-7.801 9.004-13.199q.194.201.38.41C40.99 27.689 38.173 34.681 32.066 38m4.286-19.243c-.033 5.211-2.823 10.248-7.726 12.912-4.906 2.665-10.648 2.267-15.041-.538.035-5.212 2.824-10.248 7.728-12.914 4.905-2.665 10.648-2.267 15.039.54M17.933 12c6.087-3.309 13.458-1.89 17.944 2.99.04.158.085.318.118.478-4.899-2.364-10.824-2.421-15.971.376-5.146 2.796-8.323 7.799-9.003 13.199-.117-.118-.227-.242-.339-.362C9.029 22.264 11.846 15.308 17.933 12m23.816 7.924a17.6 17.6 0 0 0-3.422-6.267 17.4 17.4 0 0 0-5.15-4.125c-5.001-2.642-11.19-2.81-16.533.093-5.343 2.905-8.567 8.188-9.074 13.823a17.43 17.43 0 0 0 2.056 9.907 17.412 17.412 0 0 0 7.238 7.138c4.996 2.616 11.163 2.778 16.491-.118 5.33-2.897 8.55-8.159 9.071-13.775a17.4 17.4 0 0 0-.677-6.676" style="fill:#6e9cf7;fill-rule:nonzero"/></g></svg>