<svg xmlns="http://www.w3.org/2000/svg" xml:space="preserve" style="fill-rule:evenodd;clip-rule:evenodd;stroke-linejoin:round;stroke-miterlimit:2" viewBox="0 0 50 50"><path d="M0 0h50v50H0z" style="fill:none"/><clipPath id="a"><path d="M0 0h50v50H0z"/></clipPath><g clip-path="url(#a)"><path d="M7.5 48v-1.562q0-.452-.129-.884C6.736 43.329 4 33.11 4 22.5 4 10 12.5 2 25 2s19 8 19 15.5c0 4.216 2.421 11.037 3.893 14.797a1.99 1.99 0 0 1-.224 1.835 1.99 1.99 0 0 1-1.637.858C44.956 35 44 35 44 35v6a5 5 0 0 1-5 5h-1.5v2z" style="fill:#10273d"/><path d="M7.5 48v-1.562q0-.452-.129-.884C6.736 43.329 4 33.11 4 22.5 4 10 12.5 2 25 2s19 8 19 15.5c0 4.216 2.421 11.037 3.893 14.797a1.99 1.99 0 0 1-.224 1.835 1.99 1.99 0 0 1-1.637.858C44.956 35 44 35 44 35v6a5 5 0 0 1-5 5h-1.5v2z" style="fill:#10273d"/><path d="M39.5 48h-2v-2H39a5 5 0 0 0 5-5v-6s.956 0 2.032-.01c.653 0 1.265-.321 1.637-.858a1.99 1.99 0 0 0 .224-1.835C46.421 28.537 44 21.716 44 17.5 44 10 37.5 2 25 2S4 10 4 22.5c0 10.229 2.543 20.094 3.296 22.783.135.458.204.932.204 1.409V48h-2v-1.307q0-.428-.126-.858l-.003-.012C4.599 43.07 2 32.971 2 22.5c0-6.859 2.376-12.466 6.423-16.376C12.452 2.232 18.171 0 25 0c13.935 0 21 9.139 21 17.5 0 4.012 2.354 10.49 3.76 14.079l.004.012a3.99 3.99 0 0 1-3.716 5.399H46V41a7 7 0 0 1-6.5 6.982z" style="fill:#0077af"/><path d="M22.858 28.639a.145.145 0 0 1 .284 0l.91 4.684a1.45 1.45 0 0 0 1.147 1.147l4.684.909a.146.146 0 0 1 0 .285l-4.684.909a1.45 1.45 0 0 0-1.147 1.147l-.91 4.684a.146.146 0 0 1-.142.118.146.146 0 0 1-.142-.118l-.91-4.684a1.45 1.45 0 0 0-1.147-1.147l-4.684-.909a.146.146 0 0 1 0-.285l4.684-.909a1.45 1.45 0 0 0 1.147-1.147zm10.969-9.497a.177.177 0 0 1 .346 0l1.104 5.688c.067.345.235.661.483.91.249.248.565.416.91.483l5.688 1.104a.177.177 0 0 1 0 .346l-5.688 1.104a1.77 1.77 0 0 0-.91.483 1.77 1.77 0 0 0-.483.91l-1.104 5.688a.177.177 0 0 1-.346 0l-1.104-5.688a1.77 1.77 0 0 0-.483-.91 1.77 1.77 0 0 0-.91-.483l-5.688-1.104a.177.177 0 0 1 0-.346l5.688-1.104c.345-.067.661-.235.91-.483.248-.249.416-.565.483-.91zM18.276 7.684a.228.228 0 0 1 .448 0l1.429 7.361a2.27 2.27 0 0 0 1.802 1.802l7.361 1.429a.228.228 0 0 1 0 .448l-7.361 1.429a2.27 2.27 0 0 0-1.802 1.802l-1.429 7.361a.228.228 0 0 1-.448 0l-1.429-7.361a2.27 2.27 0 0 0-1.802-1.802l-7.361-1.429a.228.228 0 0 1 0-.448l7.361-1.429a2.27 2.27 0 0 0 1.802-1.802z" style="fill:#f1de7f"/></g></svg>