<svg xmlns="http://www.w3.org/2000/svg" xml:space="preserve" style="fill-rule:evenodd;clip-rule:evenodd;stroke-linejoin:round;stroke-miterlimit:2" viewBox="0 0 50 50"><path d="M0 0h50v50H0z" style="fill:none"/><clipPath id="a"><path d="M0 0h50v50H0z"/></clipPath><g clip-path="url(#a)"><path d="M7.5 48v-1.562q0-.452-.129-.884C6.736 43.329 4 33.11 4 22.5 4 10 12.5 2 25 2s19 8 19 15.5c0 4.216 2.421 11.037 3.893 14.797a1.99 1.99 0 0 1-.224 1.835 1.99 1.99 0 0 1-1.637.858C44.956 35 44 35 44 35v6a5 5 0 0 1-5 5h-1.5v2z" style="fill:#10273d"/><path d="M7.5 48v-1.562q0-.452-.129-.884C6.736 43.329 4 33.11 4 22.5 4 10 12.5 2 25 2s19 8 19 15.5c0 4.216 2.421 11.037 3.893 14.797a1.99 1.99 0 0 1-.224 1.835 1.99 1.99 0 0 1-1.637.858C44.956 35 44 35 44 35v6a5 5 0 0 1-5 5h-1.5v2z" style="fill:#10273d"/><path d="M39.5 48h-2v-2H39a5 5 0 0 0 5-5v-6s.956 0 2.032-.01c.653 0 1.265-.321 1.637-.858a1.99 1.99 0 0 0 .224-1.835C46.421 28.537 44 21.716 44 17.5 44 10 37.5 2 25 2S4 10 4 22.5c0 10.229 2.543 20.094 3.296 22.783.135.458.204.932.204 1.409V48h-2v-1.307q0-.428-.126-.858l-.003-.012C4.599 43.07 2 32.971 2 22.5c0-6.859 2.376-12.466 6.423-16.376C12.452 2.232 18.171 0 25 0c13.935 0 21 9.139 21 17.5 0 4.012 2.354 10.49 3.76 14.079l.004.012a3.99 3.99 0 0 1-3.716 5.399H46V41a7 7 0 0 1-6.5 6.982z" style="fill:#0077af"/><path d="m11.056 8.272.252-.295a10 10 0 0 1 7.086-3.301l7.677-.265a15 15 0 0 1 2.974.195v.392a4 4 0 0 1-4 4h-.002v2h.002a5.997 5.997 0 0 0 5.998-5.919c2.309.718 4.4 1.982 6.099 3.668a6 6 0 0 0-3.097 5.251V14a5.997 5.997 0 0 0 5.998 5.998l.002-2h-.002A4 4 0 0 1 36.045 14v-.002a4 4 0 0 1 2.467-3.695 14.9 14.9 0 0 1 2.582 5.282l.403 1.53a5 5 0 0 1-4.523 6.263l-5.852.365a10 10 0 0 0-2.077.355v-3.1h-2v3.901a10 10 0 0 0-2.732 2.135l-.268.297v-6.333a4 4 0 0 1 4-4h.002a3.995 3.995 0 0 1 3.998 3.998v.002l2-.002a6 6 0 0 0-5.998-5.998h-.002a6 6 0 0 0-6 6v8.556l-2.816 3.129q-.088.098-.184.189v-3.874a6 6 0 0 0-6-6h-.002v2h.002a4 4 0 0 1 4 4v4.924a4 4 0 0 1-.769.076l-.001-.006a4.41 4.41 0 0 1-4.226-3.16c-1.039-3.396-2.574-8.721-3.004-11.834h6a6 6 0 0 0 6-6v-.002a6 6 0 0 0-5.998-5.998l-.002 2h.002a3.995 3.995 0 0 1 3.998 3.998v.002a4 4 0 0 1-4 4h-6.19a67 67 0 0 1-.092-1.63 10 10 0 0 1 .858-4.803 6 6 0 0 0 5.422 3.433l.002-2h-.002a4 4 0 0 1-3.987-3.726" style="fill:#f1de7f"/></g></svg>