<svg xmlns="http://www.w3.org/2000/svg" xml:space="preserve" style="fill-rule:evenodd;clip-rule:evenodd;stroke-linejoin:round;stroke-miterlimit:2" viewBox="0 0 50 50"><path d="M0 0h50v50H0z" style="fill:none"/><clipPath id="a"><path d="M0 0h50v50H0z"/></clipPath><g clip-path="url(#a)"><path d="M7.5 48v-1.562q0-.452-.129-.884C6.736 43.329 4 33.11 4 22.5 4 10 12.5 2 25 2s19 8 19 15.5c0 4.216 2.421 11.037 3.893 14.797a1.99 1.99 0 0 1-.224 1.835 1.99 1.99 0 0 1-1.637.858C44.956 35 44 35 44 35v6a5 5 0 0 1-5 5h-1.5v2z" style="fill:#10273d"/><path d="M7.5 48v-1.562q0-.452-.129-.884C6.736 43.329 4 33.11 4 22.5 4 10 12.5 2 25 2s19 8 19 15.5c0 4.216 2.421 11.037 3.893 14.797a1.99 1.99 0 0 1-.224 1.835 1.99 1.99 0 0 1-1.637.858C44.956 35 44 35 44 35v6a5 5 0 0 1-5 5h-1.5v2z" style="fill:#10273d"/><path d="M39.5 48h-2v-2H39a5 5 0 0 0 5-5v-6s.956 0 2.032-.01c.653 0 1.265-.321 1.637-.858a1.99 1.99 0 0 0 .224-1.835C46.421 28.537 44 21.716 44 17.5 44 10 37.5 2 25 2S4 10 4 22.5c0 10.229 2.543 20.094 3.296 22.783.135.458.204.932.204 1.409V48h-2v-1.307q0-.428-.126-.858l-.003-.012C4.599 43.07 2 32.971 2 22.5c0-6.859 2.376-12.466 6.423-16.376C12.452 2.232 18.171 0 25 0c13.935 0 21 9.139 21 17.5 0 4.012 2.354 10.49 3.76 14.079l.004.012a3.99 3.99 0 0 1-3.716 5.399H46V41a7 7 0 0 1-6.5 6.982z" style="fill:#0077af"/><path d="M25 6C14.514 6 6 14.514 6 25s8.514 19 19 19 19-8.514 19-19S35.486 6 25 6m-3.413 30.306c.264.89.558 1.695.879 2.402.425.934.889 1.683 1.398 2.192l.066.065a16.5 16.5 0 0 0 2.14 0l.066-.065c.509-.509.973-1.258 1.398-2.192.321-.707.615-1.512.879-2.402a30 30 0 0 1-6.826 0m-5.467-1.203c.673 1.264 1.472 2.387 2.371 3.328.802.84 1.684 1.534 2.628 2.048-.648-1.179-1.221-2.71-1.686-4.505a26 26 0 0 1-3.313-.871m17.76 0a26 26 0 0 1-3.313.871c-.465 1.795-1.038 3.327-1.686 4.505.944-.514 1.826-1.208 2.628-2.048.899-.941 1.698-2.064 2.371-3.328m-23.055-2.679a16.1 16.1 0 0 0 4.615 5.404 19.5 19.5 0 0 1-2.029-3.842 17.3 17.3 0 0 1-2.586-1.562m28.35 0a17.3 17.3 0 0 1-2.586 1.562 19.5 19.5 0 0 1-2.029 3.842 16.1 16.1 0 0 0 4.615-5.404m-18.999-6.433 9.648.004c-.057 3.021-.373 5.832-.886 8.229A28 28 0 0 1 25 34.5c-1.356 0-2.675-.095-3.938-.276-.513-2.397-.829-5.21-.886-8.233m11.648.005c-.053 2.835-.331 5.496-.778 7.837a22 22 0 0 0 3.96-1.305c.699-1.983 1.128-4.193 1.224-6.531zm-18.054-.008c.095 2.341.525 4.555 1.224 6.54 1.205.536 2.535.977 3.96 1.305-.447-2.342-.725-5.005-.778-7.843zm-4.74-.002q.056.919.213 1.806c.521.953 1.297 1.839 2.269 2.634q.465.38.989.733a25 25 0 0 1-.732-5.172zm29.201.012a25 25 0 0 1-.732 5.161q.524-.352.989-.733c.972-.795 1.748-1.681 2.269-2.634q.156-.882.212-1.793zm-.732-7.157c.41 1.625.663 3.357.732 5.157l2.738.001a16 16 0 0 0-.212-1.791c-.521-.953-1.297-1.839-2.269-2.634a13 13 0 0 0-.989-.733m-6.453-2.674c.446 2.338.724 4.996.778 7.829l4.405.001c-.096-2.335-.525-4.543-1.223-6.525a22 22 0 0 0-3.96-1.305m-2.108-.391c.512 2.393.828 5.201.886 8.219l-9.648-.004c.058-3.016.374-5.822.886-8.215A28 28 0 0 1 25 15.5c1.356 0 2.675.095 3.938.276m-9.984.391a22 22 0 0 0-3.96 1.305c-.697 1.979-1.126 4.184-1.223 6.516l4.405.002c.054-2.83.332-5.486.778-7.823m-6.453 2.674a13 13 0 0 0-.989.733c-.972.795-1.748 1.681-2.269 2.634a16 16 0 0 0-.211 1.778l2.738.001c.069-1.796.322-3.524.731-5.146m22.059-6.669a19.5 19.5 0 0 1 2.029 3.842c.945.468 1.812.992 2.586 1.562a16.1 16.1 0 0 0-4.615-5.404m-19.12 0a16.1 16.1 0 0 0-4.615 5.404 17.3 17.3 0 0 1 2.586-1.562 19.5 19.5 0 0 1 2.029-3.842m13.441-2.651c.648 1.179 1.221 2.71 1.686 4.505a26 26 0 0 1 3.313.871c-.673-1.264-1.472-2.387-2.371-3.328-.802-.84-1.684-1.534-2.628-2.048m-7.762 0c-.944.514-1.826 1.208-2.628 2.048-.899.941-1.698 2.064-2.371 3.328a26 26 0 0 1 3.313-.871c.465-1.795 1.038-3.327 1.686-4.505m4.951-.486a16.5 16.5 0 0 0-2.14 0l-.066.065c-.509.509-.973 1.258-1.398 2.192a19 19 0 0 0-.879 2.402 30 30 0 0 1 6.826 0 19 19 0 0 0-.879-2.402c-.425-.934-.889-1.683-1.398-2.192z" style="fill:#f1de7f"/></g></svg>