<svg xmlns="http://www.w3.org/2000/svg" xml:space="preserve" style="fill-rule:evenodd;clip-rule:evenodd;stroke-linejoin:round;stroke-miterlimit:2" viewBox="0 0 50 50"><path d="M0 0h50v50H0z" style="fill:none"/><clipPath id="a"><path d="M0 0h50v50H0z"/></clipPath><g clip-path="url(#a)"><path d="M7.5 48v-1.562q0-.452-.129-.884C6.736 43.329 4 33.11 4 22.5 4 10 12.5 2 25 2s19 8 19 15.5c0 4.216 2.421 11.037 3.893 14.797a1.99 1.99 0 0 1-.224 1.835 1.99 1.99 0 0 1-1.637.858C44.956 35 44 35 44 35v6a5 5 0 0 1-5 5h-1.5v2z" style="fill:#10273d"/><path d="M7.5 48v-1.562q0-.452-.129-.884C6.736 43.329 4 33.11 4 22.5 4 10 12.5 2 25 2s19 8 19 15.5c0 4.216 2.421 11.037 3.893 14.797a1.99 1.99 0 0 1-.224 1.835 1.99 1.99 0 0 1-1.637.858C44.956 35 44 35 44 35v6a5 5 0 0 1-5 5h-1.5v2z" style="fill:#10273d"/><path d="M39.5 48h-2v-2H39a5 5 0 0 0 5-5v-6s.956 0 2.032-.01c.653 0 1.265-.321 1.637-.858a1.99 1.99 0 0 0 .224-1.835C46.421 28.537 44 21.716 44 17.5 44 10 37.5 2 25 2S4 10 4 22.5c0 10.229 2.543 20.094 3.296 22.783.135.458.204.932.204 1.409V48h-2v-1.307q0-.428-.126-.858l-.003-.012C4.599 43.07 2 32.971 2 22.5c0-6.859 2.376-12.466 6.423-16.376C12.452 2.232 18.171 0 25 0c13.935 0 21 9.139 21 17.5 0 4.012 2.354 10.49 3.76 14.079l.004.012a3.99 3.99 0 0 1-3.716 5.399H46V41a7 7 0 0 1-6.5 6.982z" style="fill:#0077af"/><path d="M22.409 40.148q-1.037-1.874-1.037-4.504 0-1.714.499-3.19.498-1.475 1.315-2.351.818-.877 1.814-.877t1.834.877q.837.876 1.315 2.351.479 1.476.479 3.19 0 2.63-1.037 4.504.12-.598.12-1.236 0-1.554-.638-2.75-.798-1.435-2.073-1.435t-2.073 1.435q-.638 1.196-.638 2.75 0 .638.12 1.236m-1.196.718q-2.153-2.034-3.388-5.98-1.316-4.066-1.316-9.089 0-6.019 3.269-11.6-.558 1.914-.757 4.465-.28 4.345.797 6.657.877 1.913 2.79 2.471-.876.678-1.594 1.954-1.236 2.273-1.236 5.361 0 3.09 1.236 5.362zm7.574 0q.12-.2.199-.399 1.236-2.272 1.236-5.382 0-1.355-.239-2.551 1.435-3.787 1.435-8.77 0-8.211-7.096-15.586L25 7.5q8.491 8.65 8.491 18.297 0 5.023-1.316 9.089-1.235 3.946-3.388 5.98m.518-10.524a4.6 4.6 0 0 0-.319-.598q-.518-.957-1.116-1.555.558-2.551.558-5.501 0-6.817-5.341-13.075l.159-.16q.2-.28.279-.398 6.657 6.896 6.657 14.51 0 3.707-.877 6.777m-2.591-2.95q-.678-.359-1.674-.439.638-2.47.638-5.262 0-5.381-3.987-10.324l.16-.239q.319-.439.478-.638 4.983 5.66 4.983 11.759 0 2.791-.598 5.143M25 42.5q-.758 0-1.296-.977-.538-.976-.538-2.332t.538-2.332T25 35.883t1.296.976.538 2.332-.538 2.332T25 42.5" style="fill:#f2200d;fill-rule:nonzero"/></g></svg>