<svg xmlns="http://www.w3.org/2000/svg" xml:space="preserve" style="fill-rule:evenodd;clip-rule:evenodd;stroke-linejoin:round;stroke-miterlimit:2" viewBox="0 0 50 50"><path d="M0 0h50v50H0z" style="fill:none"/><clipPath id="a"><path d="M0 0h50v50H0z"/></clipPath><g clip-path="url(#a)"><path d="M7.5 48v-1.562q0-.452-.129-.884C6.736 43.329 4 33.11 4 22.5 4 10 12.5 2 25 2s19 8 19 15.5c0 4.216 2.421 11.037 3.893 14.797a1.99 1.99 0 0 1-.224 1.835 1.99 1.99 0 0 1-1.637.858C44.956 35 44 35 44 35v6a5 5 0 0 1-5 5h-1.5v2z" style="fill:#10273d"/><path d="M7.5 48v-1.562q0-.452-.129-.884C6.736 43.329 4 33.11 4 22.5 4 10 12.5 2 25 2s19 8 19 15.5c0 4.216 2.421 11.037 3.893 14.797a1.99 1.99 0 0 1-.224 1.835 1.99 1.99 0 0 1-1.637.858C44.956 35 44 35 44 35v6a5 5 0 0 1-5 5h-1.5v2z" style="fill:#10273d"/><path d="M39.5 48h-2v-2H39a5 5 0 0 0 5-5v-6s.956 0 2.032-.01c.653 0 1.265-.321 1.637-.858a1.99 1.99 0 0 0 .224-1.835C46.421 28.537 44 21.716 44 17.5 44 10 37.5 2 25 2S4 10 4 22.5c0 10.229 2.543 20.094 3.296 22.783.135.458.204.932.204 1.409V48h-2v-1.307q0-.428-.126-.858l-.003-.012C4.599 43.07 2 32.971 2 22.5c0-6.859 2.376-12.466 6.423-16.376C12.452 2.232 18.171 0 25 0c13.935 0 21 9.139 21 17.5 0 4.012 2.354 10.49 3.76 14.079l.004.012a3.99 3.99 0 0 1-3.716 5.399H46V41a7 7 0 0 1-6.5 6.982z" style="fill:#0077af"/><path d="M19.907 30.741h6.991v-8.056h2.176v8.056h1.574v-8.056h2.176v8.056H42.5v1.528l-.741.925h-8.935v8.334h-2.176v-8.334h-1.574v8.334h-2.176v-8.334h-6.991q-5.139 0-8.773-3.611-3.634-3.61-3.634-8.75 0-2.175.787-4.305l-.556-.926 1.065-1.158h.51a12.24 12.24 0 0 1 4.398-4.305 12.2 12.2 0 0 1 6.227-1.667q3.355 0 6.18 1.667 2.963 1.806 4.445 4.305h7.5q1.434.046 2.87 1.713 1.342 1.482 1.435 2.917l-.741.741h-6.389v1.204l-.555.601-9.398.047q-.37 1.99-1.852 3.31-1.482 1.319-3.519 1.319-2.314 0-3.888-1.62-1.575-1.62-1.575-3.843 0-1.805 1.204-3.379h-5.046A9.6 9.6 0 0 0 10 20.833q0 4.075 2.894 6.991 2.893 2.917 7.013 2.917m7.639-16.297q-2.87-3.471-7.639-3.472-4.583 0-7.592 3.472z" style="fill:#ccc;fill-rule:nonzero"/></g></svg>