<svg xmlns="http://www.w3.org/2000/svg" xml:space="preserve" style="fill-rule:evenodd;clip-rule:evenodd;stroke-linejoin:round;stroke-miterlimit:2" viewBox="0 0 50 50"><path d="M0 0h50v50H0z" style="fill:none"/><clipPath id="a"><path d="M0 0h50v50H0z"/></clipPath><g clip-path="url(#a)"><path d="M7.5 48v-1.562q0-.452-.129-.884C6.736 43.329 4 33.11 4 22.5 4 10 12.5 2 25 2s19 8 19 15.5c0 4.216 2.421 11.037 3.893 14.797a1.99 1.99 0 0 1-.224 1.835 1.99 1.99 0 0 1-1.637.858C44.956 35 44 35 44 35v6a5 5 0 0 1-5 5h-1.5v2z" style="fill:#10273d"/><path d="M7.5 48v-1.562q0-.452-.129-.884C6.736 43.329 4 33.11 4 22.5 4 10 12.5 2 25 2s19 8 19 15.5c0 4.216 2.421 11.037 3.893 14.797a1.99 1.99 0 0 1-.224 1.835 1.99 1.99 0 0 1-1.637.858C44.956 35 44 35 44 35v6a5 5 0 0 1-5 5h-1.5v2z" style="fill:#10273d"/><path d="M39.5 48h-2v-2H39a5 5 0 0 0 5-5v-6s.956 0 2.032-.01c.653 0 1.265-.321 1.637-.858a1.99 1.99 0 0 0 .224-1.835C46.421 28.537 44 21.716 44 17.5 44 10 37.5 2 25 2S4 10 4 22.5c0 10.229 2.543 20.094 3.296 22.783.135.458.204.932.204 1.409V48h-2v-1.307q0-.428-.126-.858l-.003-.012C4.599 43.07 2 32.971 2 22.5c0-6.859 2.376-12.466 6.423-16.376C12.452 2.232 18.171 0 25 0c13.935 0 21 9.139 21 17.5 0 4.012 2.354 10.49 3.76 14.079l.004.012a3.99 3.99 0 0 1-3.716 5.399H46V41a7 7 0 0 1-6.5 6.982z" style="fill:#0077af"/><path d="m29.702 41.872.426.426L28.426 44l-.852-.851.426-.426.426.426zm-9.404-.638-.426.426.426.425-.426.426.426.425.425-.425.426.425-.426.426.426.425.851-.851-.851-.851.425-.425.852.851.425-.426-1.277-1.276-.851.851zm6.425 1.064.426.425.425-.425.426.425.426-.425-.426-.426.426-.425-.426-.426zm16.468-18L24.894 6 6.596 24.298l18.298 18.298zm-14.34 16.723.426.426-.426.425-.425-.425zm1.489-2.34-.851.851 1.702 1.702.426-.425-1.277-1.277.426-.426zM18.426 37.66l-1.703 1.702 1.703 1.702.425-.426-1.277-1.276.426-.426.426.426.425-.426-.425-.425.425-.426zm13.617 1.021.851.851-.851.851-.426-.426.426-.425-.426-.426-.426.426-.425-.426.425-.425.426.425zm-12.766-.17.851.851-.426.425-.851-.851zm20.51-14.213L24.894 9.404 10 24.298l14.894 14.893zM31.191 37.83l.426.425-.426.426-.425-.426zm-15.063.085-.426.425-.425-.425.425-.426zm18.042-3.064-1.702 1.702 1.702 1.702 1.702-1.702-.851-.851-.425.426.425.425-.851.851-.851-.851 1.277-1.276zm-9.276.766-3.405-3.404.468-.468-1.276-1.277-1.404 1.404 5.617 5.617 4.212-4.212-.936-.937zm-9.192-.681-.425.426.851.851-.426.425-.851-.851-.851.851.426.426.425-.426.851.851.426-.425.425.425.426-.425-.426-.426.426-.425zm-3.574-1.872-.851.851 1.702 1.702 1.702-1.702-.851-.851-.426.425.426.426-.851.851-.426-.426.426-.425zm24.595.085.851.851-.851.851-.425-.425.425-.426-.425-.426-.426.426-.425-.426 1.276-1.276.426.425.425-.425 1.277 1.276-.851.852-.426-.426.426-.426-.851-.851zM24.936 15.064l-2.255 2.255 2.34 2.341v3.234l-3.149 3.149-4-4-2.255 2.255 9.277 9.276 2.255-2.255-1.277-1.276 4.809-4.809 1.276 1.277 2.213-2.213-2.638-2.638-1.447 1.446L28 21.021l1.447-1.447zM12.979 32.213l-.426.425.426.426.425-.426zm-3.575-1.022.426.426-.426.426-.851-.852 1.277-1.276.425.425.426-.425 1.276 1.276-1.702 1.703-.425-.426 1.276-1.277-.851-.851zm30.511-2.085-.851.851.851.852-.426.425-.851-.851-.425.426 1.702 1.702.425-.426-.425-.425.851-.851.425.425.426-.425-.851-.852-.426.426-.425-.426.425-.425zm-8.128-1.234-1.149-1.149-3.489 3.49 1.149 1.149zM7.532 26.766l-1.277 1.277.426.425.425-.425.426.425-.851.851.851.851.425-.425-.425-.426.425-.425.426.425.426-.425-.426-.426.426-.425zm34.936-.213-1.277 1.277.426.425.851-.851.426.426-.426.425.426.426-.851.851.425.425 1.277-1.276-.426-.426.426-.425zm-.425 2.128-.426-.426-.426.426.426.425zm-28.469-4.383 3.277-3.277-.936-.936-4.213 4.213 4.213 4.213.936-.937zm24.511 0-5.659-5.66L31.064 20l1.234 1.234.425-.425 3.49 3.489-3.234 3.234.936.936zm-16.936-7.149 2.808 2.808v2.724l-2.042 2.042-4.17-4.17zm3.745-6.043-4.213 4.213.936.936 3.277-3.276 3.276 3.276.936-.936z" style="fill:#81a2e4"/></g></svg>