<svg xmlns="http://www.w3.org/2000/svg" xml:space="preserve" style="fill-rule:evenodd;clip-rule:evenodd;stroke-linejoin:round;stroke-miterlimit:2" viewBox="0 0 50 50"><path d="M0 0h50v50H0z" style="fill:none"/><clipPath id="a"><path d="M0 0h50v50H0z"/></clipPath><g clip-path="url(#a)"><path d="M7.5 48v-1.562q0-.452-.129-.884C6.736 43.329 4 33.11 4 22.5 4 10 12.5 2 25 2s19 8 19 15.5c0 4.216 2.421 11.037 3.893 14.797a1.99 1.99 0 0 1-.224 1.835 1.99 1.99 0 0 1-1.637.858C44.956 35 44 35 44 35v6a5 5 0 0 1-5 5h-1.5v2z" style="fill:#10273d"/><path d="M7.5 48v-1.562q0-.452-.129-.884C6.736 43.329 4 33.11 4 22.5 4 10 12.5 2 25 2s19 8 19 15.5c0 4.216 2.421 11.037 3.893 14.797a1.99 1.99 0 0 1-.224 1.835 1.99 1.99 0 0 1-1.637.858C44.956 35 44 35 44 35v6a5 5 0 0 1-5 5h-1.5v2z" style="fill:#10273d"/><path d="M39.5 48h-2v-2H39a5 5 0 0 0 5-5v-6s.956 0 2.032-.01c.653 0 1.265-.321 1.637-.858a1.99 1.99 0 0 0 .224-1.835C46.421 28.537 44 21.716 44 17.5 44 10 37.5 2 25 2S4 10 4 22.5c0 10.229 2.543 20.094 3.296 22.783.135.458.204.932.204 1.409V48h-2v-1.307q0-.428-.126-.858l-.003-.012C4.599 43.07 2 32.971 2 22.5c0-6.859 2.376-12.466 6.423-16.376C12.452 2.232 18.171 0 25 0c13.935 0 21 9.139 21 17.5 0 4.012 2.354 10.49 3.76 14.079l.004.012a3.99 3.99 0 0 1-3.716 5.399H46V41a7 7 0 0 1-6.5 6.982z" style="fill:#0077af"/><path d="M25 14.669c1.848-1.883 4.21-3.013 6.781-3.013C37.697 11.656 42.5 17.635 42.5 25s-4.803 13.344-10.719 13.344c-2.571 0-4.933-1.13-6.781-3.013-1.848 1.883-4.21 3.013-6.781 3.013C12.303 38.344 7.5 32.365 7.5 25s4.803-13.344 10.719-13.344c2.571 0 4.933 1.13 6.781 3.013m6.233 22.361.111.001c4.344 0 7.972-4.153 8.801-9.657a1.31 1.31 0 0 0-1.299-1.499H28.111a3.284 3.284 0 0 1-6.326 0s-7.426 0-10.631.007a1.305 1.305 0 0 0-1.292 1.491c.822 5.505 4.45 9.658 8.794 9.658h.06a4.377 4.377 0 0 1 1.909-8.312 4.38 4.38 0 0 1 4.349 3.895 4.38 4.38 0 0 1 4.349-3.895 4.377 4.377 0 0 1 4.375 4.375 4.38 4.38 0 0 1-2.465 3.936m-1.435-1.419a.65.65 0 0 1-.746-.646l.01-.001c0-.292.198-.547.48-.619a1.97 1.97 0 0 0-.477-3.876h-.013a2.626 2.626 0 1 0 .746 5.142m-9.648 0a.65.65 0 0 0 .746-.646l-.01-.001a.64.64 0 0 0-.48-.619 1.97 1.97 0 0 1 .477-3.876h.013a2.626 2.626 0 1 1-.746 5.142m4.798-12.361a1.75 1.75 0 1 1-.001 3.501 1.75 1.75 0 0 1 .001-3.501m-6.232-10.281h-.06c-4.344 0-7.972 4.153-8.801 9.657a1.31 1.31 0 0 0 1.299 1.499h10.631a3.284 3.284 0 0 1 6.326 0s7.51 0 10.735-.007a1.305 1.305 0 0 0 1.292-1.491c-.822-5.505-4.45-9.658-8.794-9.658l-.111.001a4.38 4.38 0 0 1 2.465 3.936 4.377 4.377 0 0 1-4.375 4.375 4.38 4.38 0 0 1-4.349-3.895 4.38 4.38 0 0 1-4.349 3.895 4.377 4.377 0 0 1-1.909-8.312m11.082 1.42a.65.65 0 0 0-.746.646l.01.001c0 .292.198.547.48.619a1.97 1.97 0 0 1-.477 3.876h-.013a2.626 2.626 0 1 1 .746-5.142m-9.648 0a.65.65 0 0 1 .746.646l-.01.001a.64.64 0 0 1-.48.619 1.97 1.97 0 0 0 .477 3.876h.013a2.626 2.626 0 1 0-.746-5.142" style="fill:#f53d4d"/></g></svg>