<?xml version="1.0" encoding="UTF-8" standalone="no"?><!DOCTYPE svg PUBLIC "-//W3C//DTD SVG 1.1//EN" "http://www.w3.org/Graphics/SVG/1.1/DTD/svg11.dtd"><svg width="100%" height="100%" viewBox="0 0 50 50" version="1.1" xmlns="http://www.w3.org/2000/svg" xmlns:xlink="http://www.w3.org/1999/xlink" xml:space="preserve" xmlns:serif="http://www.serif.com/" style="fill-rule:evenodd;clip-rule:evenodd;stroke-linejoin:round;stroke-miterlimit:2;"><rect id="value-ship" x="0" y="0" width="50" height="50" style="fill:none;"/><clipPath id="_clip1"><rect id="value-ship1" serif:id="value-ship" x="0" y="0" width="50" height="50"/></clipPath><g clip-path="url(#_clip1)"><g id="Value-Frame" serif:id="Value Frame"><path d="M7.5,48L7.5,46.438C7.5,46.138 7.456,45.841 7.371,45.554C6.736,43.329 4,33.11 4,22.5C4,10 12.5,2 25,2C37.5,2 44,10 44,17.5C44,21.716 46.421,28.537 47.893,32.297C48.124,32.909 48.04,33.594 47.669,34.132C47.297,34.669 46.685,34.99 46.032,34.99C44.956,35 44,35 44,35L44,41C44,43.761 41.761,46 39,46C38.131,46 37.5,46 37.5,46L37.5,48L7.5,48Z" style="fill:#10273d;"/><path d="M7.5,48L7.5,46.438C7.5,46.138 7.456,45.841 7.371,45.554C6.736,43.329 4,33.11 4,22.5C4,10 12.5,2 25,2C37.5,2 44,10 44,17.5C44,21.716 46.421,28.537 47.893,32.297C48.124,32.909 48.04,33.594 47.669,34.132C47.297,34.669 46.685,34.99 46.032,34.99C44.956,35 44,35 44,35L44,41C44,43.761 41.761,46 39,46C38.131,46 37.5,46 37.5,46L37.5,48L7.5,48Z" style="fill:#10273d;"/><path d="M39.5,48L37.5,48L37.5,46C37.5,46 38.131,46 39,46C41.761,46 44,43.761 44,41L44,35C44,35 44.956,35 46.032,34.99C46.685,34.99 47.297,34.669 47.669,34.132C48.04,33.594 48.124,32.909 47.893,32.297C46.421,28.537 44,21.716 44,17.5C44,10 37.5,2 25,2C12.5,2 4,10 4,22.5C4,32.729 6.543,42.594 7.296,45.283C7.431,45.741 7.5,46.215 7.5,46.692L7.5,48L5.5,48L5.5,46.693C5.5,46.407 5.459,46.122 5.374,45.835L5.371,45.823C4.599,43.07 2,32.971 2,22.5C2,15.641 4.376,10.034 8.423,6.124C12.452,2.232 18.171,-0 25,-0C38.935,-0 46,9.139 46,17.5C46,21.512 48.354,27.99 49.76,31.579L49.764,31.591C50.227,32.817 50.059,34.191 49.314,35.269C48.572,36.342 47.352,36.984 46.048,36.99C46.032,36.99 46.016,36.99 46,36.99L46,41C46,44.698 43.133,47.726 39.5,47.982L39.5,48Z" style="fill:#0077af;"/></g><g id="Ship"><path id="Ship1" serif:id="Ship" d="M26.725,23.933L26.77,23.979C26.861,24.039 26.967,24.251 27.088,24.614L27.406,25.613L27.361,24.569C27.33,24.085 27.277,23.457 27.202,22.685C27.126,21.913 27.058,21.323 26.997,20.914C26.937,20.506 26.997,20.15 27.179,19.848C27.24,19.696 27.345,19.545 27.497,19.394C28.072,18.97 28.359,18.433 28.359,17.782C28.359,17.131 28.034,16.579 27.383,16.125C26.733,15.671 25.946,15.444 25.023,15.444C24.1,15.444 23.305,15.671 22.639,16.125C21.974,16.579 21.641,17.131 21.641,17.782C21.641,18.433 21.928,18.97 22.503,19.394C22.624,19.484 22.73,19.636 22.821,19.848C23.003,20.15 23.063,20.506 23.003,20.914C22.942,21.323 22.874,21.913 22.798,22.685C22.723,23.457 22.67,24.085 22.639,24.569L22.594,25.613L22.912,24.614C23.033,24.251 23.139,24.039 23.23,23.979L23.275,23.933L26.725,23.933ZM26.725,23.752L23.275,23.752C23.335,23.51 23.396,23.358 23.457,23.298C23.517,23.237 23.653,23.207 23.865,23.207L26.135,23.207C26.347,23.207 26.49,23.237 26.566,23.298C26.642,23.358 26.695,23.51 26.725,23.752ZM25.545,26.929C26.876,26.839 27.716,26.74 28.064,26.634C28.412,26.528 28.692,26.543 28.904,26.68C29.116,26.816 29.358,27.096 29.63,27.519C28.965,27.792 28.284,28.246 27.588,28.881C26.801,29.608 26.241,30.349 25.908,31.106L25.908,30.47L25.545,30.47L25.545,26.929ZM24.455,26.929L24.455,30.47L24.092,30.47L24.092,31.106C23.759,30.349 23.214,29.608 22.458,28.881C21.732,28.246 21.035,27.792 20.37,27.519C20.672,27.065 20.914,26.793 21.096,26.702C21.308,26.551 21.588,26.528 21.936,26.634C22.284,26.74 23.124,26.839 24.455,26.929ZM25.545,26.793L25.545,26.657L24.455,26.657L24.455,26.793C23.093,26.702 22.276,26.612 22.004,26.521C21.58,26.369 21.247,26.385 21.005,26.566C20.884,26.627 20.703,26.839 20.46,27.202L20.279,27.429C19.734,27.247 19.341,27.096 19.099,26.975L19.099,26.566L19.053,26.385L19.099,26.203L19.053,25.976L17.328,25.567L17.192,26.021C15.618,25.023 14.385,23.812 13.492,22.39C12.599,20.967 12.153,19.439 12.153,17.805C12.153,15.959 12.728,14.241 13.878,12.652C15.028,11.064 16.587,9.808 18.554,8.885C20.521,7.962 22.67,7.5 25,7.5C27.33,7.5 29.479,7.962 31.446,8.885C33.413,9.808 34.972,11.064 36.122,12.652C37.272,14.241 37.847,15.959 37.847,17.805C37.847,19.439 37.401,20.967 36.508,22.39C35.615,23.812 34.382,25.023 32.808,26.021L32.672,25.567L30.947,25.976L30.901,26.203L30.947,26.385L30.901,26.566L30.901,26.975C30.72,27.065 30.417,27.187 29.994,27.338L29.767,27.429C29.494,27.005 29.237,26.71 28.995,26.543C28.753,26.377 28.42,26.369 27.996,26.521C27.724,26.612 26.907,26.702 25.545,26.793ZM24.455,30.606L24.455,30.788L24.637,31.06L24.228,31.06L24.228,30.606L24.455,30.606ZM25.545,30.606L25.772,30.606L25.772,31.06L25.363,31.06L25.545,30.788L25.545,30.606ZM25.863,31.242C25.741,31.575 25.666,31.877 25.636,32.15C25.514,33.966 25.393,36.19 25.272,38.823L25.136,39.458L24.864,39.458L24.773,38.823L24.364,32.15C24.334,31.877 24.259,31.575 24.137,31.242L25.863,31.242ZM21.187,28.155C21.822,28.548 22.352,28.972 22.776,29.426C23.653,30.395 24.137,31.302 24.228,32.15L24.228,32.422C24.349,34.48 24.47,36.614 24.591,38.823L24.682,39.232C24.016,39.05 23.373,38.354 22.753,37.143C22.133,35.933 21.656,34.48 21.323,32.785C20.96,30.788 20.914,29.244 21.187,28.155ZM25.318,39.232L25.409,38.823C25.59,35.131 25.726,32.906 25.817,32.15C25.847,31.333 26.316,30.425 27.224,29.426C27.739,28.912 28.268,28.473 28.813,28.11C29.086,29.229 29.04,30.788 28.677,32.785C28.344,34.48 27.867,35.933 27.247,37.143C26.627,38.354 25.984,39.05 25.318,39.232ZM24.682,39.413L24.728,39.64L25.272,39.64L25.318,39.413C25.802,39.292 26.294,38.883 26.793,38.187C27.292,37.491 27.739,36.599 28.132,35.509C28.314,36.205 29.116,36.599 30.538,36.689C30.478,38.566 30.447,39.912 30.447,40.73C29.267,40.79 28.208,40.684 27.27,40.412C26.937,40.321 26.649,40.26 26.407,40.23C26.286,40.23 26.082,40.245 25.794,40.276C25.507,40.306 25.242,40.321 25,40.321C24.758,40.321 24.493,40.306 24.206,40.276C23.918,40.245 23.714,40.23 23.593,40.23C23.351,40.26 23.063,40.321 22.73,40.412C21.792,40.684 20.748,40.79 19.598,40.73C19.537,39.398 19.507,38.051 19.507,36.689C20.869,36.599 21.671,36.205 21.913,35.509C22.276,36.568 22.708,37.454 23.207,38.165C23.706,38.876 24.198,39.292 24.682,39.413ZM17.01,30.697L17.101,30.697C17.222,30.637 17.298,30.561 17.328,30.47L17.374,30.289C17.404,30.046 17.479,29.842 17.601,29.676C17.722,29.509 17.865,29.426 18.032,29.426C18.198,29.426 18.342,29.509 18.463,29.676C18.584,29.842 18.66,30.046 18.69,30.289L18.735,30.47C18.766,30.561 18.841,30.637 18.962,30.697L19.053,30.697L19.099,30.788L19.099,30.924L16.965,30.924L16.965,30.788L17.01,30.697ZM17.056,30.561L17.101,29.744C17.131,29.502 17.237,29.29 17.419,29.108C17.601,28.927 17.805,28.836 18.032,28.836C18.259,28.836 18.463,28.927 18.645,29.108C18.826,29.29 18.932,29.502 18.962,29.744L19.008,30.561C18.978,30.561 18.932,30.516 18.872,30.425L18.826,30.243C18.796,30.001 18.705,29.782 18.554,29.585C18.403,29.388 18.221,29.29 18.009,29.29C17.797,29.29 17.623,29.381 17.487,29.562C17.351,29.744 17.268,29.971 17.237,30.243L17.192,30.425C17.162,30.516 17.116,30.561 17.056,30.561ZM19.189,33.512L19.189,33.739L19.235,34.011C19.265,34.465 19.31,35.706 19.371,37.733C19.401,39.519 19.416,40.76 19.416,41.456C19.416,41.789 19.295,42.046 19.053,42.228C18.811,42.409 18.471,42.5 18.032,42.5C17.593,42.5 17.245,42.409 16.988,42.228C16.73,42.046 16.602,41.789 16.602,41.456C16.602,40.851 16.632,39.61 16.693,37.733C16.753,35.706 16.799,34.465 16.829,34.011L16.874,33.512C16.935,33.27 16.995,33.103 17.056,33.012L17.147,32.922C17.177,32.861 17.177,32.831 17.147,32.831C17.298,32.589 17.374,32.301 17.374,31.968C17.374,31.908 17.366,31.877 17.351,31.877L16.965,31.877L16.965,31.787L16.92,31.787L16.92,31.696L19.144,31.696L19.144,31.787L19.099,31.787L19.099,31.877L18.69,31.877L18.69,31.968C18.69,32.301 18.766,32.604 18.917,32.876L18.917,32.922L18.962,32.922C18.962,32.982 18.978,33.012 19.008,33.012L19.189,33.512ZM19.189,33.103C19.189,33.073 19.159,33.027 19.099,32.967C19.099,32.937 19.083,32.906 19.053,32.876L19.053,32.785L19.008,32.785C18.887,32.573 18.826,32.316 18.826,32.014L19.144,32.014L19.189,33.103ZM16.874,33.103L16.92,32.014L17.237,32.014C17.237,32.286 17.177,32.543 17.056,32.785C17.026,32.785 17.01,32.793 17.01,32.808L17.01,32.831L16.965,32.876C16.965,32.906 16.95,32.922 16.92,32.922L16.874,33.103ZM30.947,30.697L31.038,30.697C31.159,30.637 31.234,30.561 31.265,30.47L31.31,30.289C31.34,30.046 31.416,29.842 31.537,29.676C31.658,29.509 31.802,29.426 31.968,29.426C32.135,29.426 32.278,29.509 32.399,29.676C32.521,29.842 32.596,30.046 32.626,30.289L32.672,30.47C32.702,30.561 32.778,30.637 32.899,30.697L32.99,30.697L33.035,30.788L33.035,30.924L30.901,30.924L30.901,30.788L30.947,30.697ZM30.992,30.561L31.038,29.744C31.068,29.502 31.174,29.29 31.355,29.108C31.537,28.927 31.749,28.836 31.991,28.836C32.233,28.836 32.437,28.927 32.604,29.108C32.77,29.29 32.869,29.502 32.899,29.744L32.944,30.561C32.914,30.561 32.869,30.516 32.808,30.425L32.763,30.243C32.732,29.971 32.649,29.744 32.513,29.562C32.377,29.381 32.203,29.29 31.991,29.29C31.779,29.29 31.597,29.388 31.446,29.585C31.295,29.782 31.204,30.001 31.174,30.243L31.128,30.425C31.098,30.516 31.053,30.561 30.992,30.561ZM33.126,33.512C33.156,33.602 33.171,33.769 33.171,34.011C33.201,34.465 33.247,35.706 33.307,37.733C33.368,39.61 33.398,40.851 33.398,41.456C33.398,41.789 33.27,42.046 33.012,42.228C32.755,42.409 32.407,42.5 31.968,42.5C31.529,42.5 31.189,42.409 30.947,42.228C30.705,42.046 30.584,41.789 30.584,41.456C30.584,40.76 30.599,39.519 30.629,37.733C30.69,35.706 30.735,34.465 30.765,34.011L30.811,33.512L30.992,33.012L31.128,32.831C31.249,32.589 31.31,32.301 31.31,31.968L31.31,31.877L30.901,31.877L30.901,31.787L30.856,31.787L30.856,31.696L33.08,31.696L33.08,31.787L33.035,31.787L33.035,31.832L33.08,31.877L32.626,31.877L32.626,31.968C32.626,32.301 32.702,32.604 32.853,32.876L32.853,32.922L32.899,32.922L32.944,33.012C33.035,33.164 33.096,33.33 33.126,33.512ZM33.126,33.103L33.126,33.012L33.08,32.967C33.05,32.937 33.035,32.906 33.035,32.876C33.005,32.876 32.99,32.869 32.99,32.853L32.99,32.785C32.838,32.543 32.763,32.286 32.763,32.014L33.08,32.014L33.126,33.103ZM30.811,33.103L30.901,32.014L31.174,32.014C31.174,32.286 31.113,32.543 30.992,32.785C30.962,32.785 30.947,32.793 30.947,32.808L30.947,32.831L30.811,33.103ZM32.944,31.06L32.853,31.151L32.944,31.151L32.853,31.242L32.944,31.242L32.853,31.333L32.944,31.333L32.853,31.423L32.944,31.423L32.853,31.514L31.083,31.514L30.992,31.423L31.083,31.423L30.992,31.333L31.083,31.333L30.992,31.242L31.083,31.242L30.992,31.151L31.083,31.151L30.992,31.06L32.944,31.06ZM19.008,31.06L18.917,31.151L19.008,31.151L18.917,31.242L19.008,31.242L18.917,31.333L19.008,31.333L18.917,31.423L19.008,31.423L18.917,31.514L17.147,31.514L17.056,31.423L17.147,31.423L17.056,31.333L17.147,31.333L17.056,31.242L17.147,31.242L17.056,31.151L17.147,31.151L17.056,31.06L19.008,31.06ZM18.962,26.203L18.917,26.385L17.464,26.385L17.328,25.976L17.419,25.749L18.917,26.112L18.962,26.203ZM32.672,25.976L32.536,26.385L31.083,26.385L31.038,26.203L31.083,26.112L32.581,25.749L32.672,25.976ZM25.227,31.06L24.818,31.06L24.637,30.743L24.637,26.839L25.363,26.839L25.363,30.743L25.227,31.06ZM28.132,24.478C30.039,23.963 31.582,23.101 32.763,21.89C33.943,20.68 34.533,19.318 34.533,17.805C34.533,16.534 34.109,15.361 33.262,14.287C32.415,13.212 31.257,12.357 29.789,11.722C28.321,11.086 26.725,10.768 25,10.768C23.275,10.768 21.679,11.086 20.211,11.722C18.743,12.357 17.585,13.212 16.738,14.287C15.891,15.361 15.467,16.534 15.467,17.805C15.467,19.318 16.057,20.687 17.237,21.913C18.418,23.139 19.976,23.994 21.913,24.478C21.974,24.508 22.027,24.501 22.072,24.455C22.117,24.41 22.155,24.357 22.185,24.296C22.216,24.236 22.208,24.183 22.163,24.137C22.117,24.092 22.064,24.054 22.004,24.024C20.188,23.57 18.72,22.768 17.601,21.618C16.481,20.468 15.921,19.197 15.921,17.805C15.921,16.625 16.329,15.527 17.147,14.514C17.964,13.5 19.068,12.698 20.46,12.108C21.853,11.518 23.366,11.222 25,11.222C26.634,11.222 28.147,11.518 29.54,12.108C30.932,12.698 32.036,13.5 32.853,14.514C33.671,15.527 34.079,16.625 34.079,17.805C34.079,19.227 33.527,20.506 32.422,21.641C31.318,22.776 29.857,23.57 28.042,24.024C27.981,24.054 27.928,24.092 27.883,24.137C27.837,24.183 27.83,24.236 27.86,24.296C27.92,24.448 28.011,24.508 28.132,24.478ZM28.087,24.342C28.026,24.342 27.996,24.312 27.996,24.251C27.996,24.19 28.011,24.16 28.042,24.16C29.888,23.676 31.378,22.859 32.513,21.709C33.648,20.559 34.215,19.257 34.215,17.805C34.215,16.594 33.799,15.474 32.967,14.446C32.135,13.417 31.015,12.599 29.608,11.994C28.2,11.389 26.665,11.086 25,11.086C23.335,11.086 21.8,11.389 20.392,11.994C18.985,12.599 17.865,13.417 17.033,14.446C16.201,15.474 15.785,16.594 15.785,17.805C15.785,19.257 16.352,20.566 17.487,21.732C18.622,22.897 20.112,23.706 21.958,24.16C22.019,24.221 22.042,24.266 22.027,24.296C22.011,24.327 21.974,24.342 21.913,24.342C20.037,23.858 18.516,23.018 17.351,21.822C16.186,20.627 15.603,19.288 15.603,17.805C15.603,16.564 16.027,15.414 16.874,14.355C17.722,13.296 18.864,12.456 20.302,11.835C21.739,11.215 23.305,10.905 25,10.905C26.695,10.905 28.261,11.215 29.698,11.835C31.136,12.456 32.278,13.296 33.126,14.355C33.973,15.414 34.397,16.564 34.397,17.805C34.397,19.288 33.814,20.627 32.649,21.822C31.484,23.018 29.963,23.858 28.087,24.342ZM25,15.626C25.878,15.626 26.627,15.838 27.247,16.261C27.867,16.685 28.178,17.192 28.178,17.782C28.178,18.372 27.92,18.879 27.406,19.303C27.255,19.394 27.134,19.56 27.043,19.802C26.861,20.135 26.801,20.529 26.861,20.982L26.907,21.346C27.088,22.859 27.194,23.933 27.224,24.569C27.103,24.175 26.982,23.933 26.861,23.842C26.831,23.51 26.763,23.298 26.657,23.207C26.551,23.116 26.377,23.071 26.135,23.071L23.865,23.071C23.623,23.071 23.449,23.116 23.343,23.207C23.237,23.298 23.169,23.51 23.139,23.842C23.048,23.903 22.927,24.13 22.776,24.523L22.776,24.569C22.806,23.933 22.912,22.859 23.093,21.346L23.139,20.982C23.199,20.529 23.139,20.135 22.957,19.802C22.866,19.56 22.745,19.394 22.594,19.303C22.08,18.879 21.822,18.372 21.822,17.782C21.822,17.192 22.133,16.685 22.753,16.261C23.373,15.838 24.122,15.626 25,15.626ZM25,20.165C25.545,20.165 25.953,20.006 26.226,19.689C26.498,19.371 26.612,18.94 26.566,18.395C26.521,17.85 26.354,17.404 26.067,17.056C25.779,16.708 25.424,16.534 25,16.534C24.576,16.534 24.221,16.708 23.933,17.056C23.646,17.404 23.479,17.85 23.434,18.395C23.388,18.94 23.502,19.371 23.774,19.689C24.047,20.006 24.455,20.165 25,20.165ZM25,20.029C24.455,20.029 24.069,19.878 23.842,19.575C23.615,19.273 23.525,18.879 23.57,18.395C23.615,17.911 23.774,17.502 24.047,17.169C24.319,16.836 24.644,16.67 25.023,16.67C25.401,16.67 25.719,16.836 25.976,17.169C26.233,17.502 26.377,17.896 26.407,18.35C26.528,19.469 26.059,20.029 25,20.029ZM25,19.666C25.696,19.666 26.014,19.197 25.953,18.259C25.923,17.835 25.825,17.487 25.658,17.215C25.492,16.942 25.28,16.806 25.023,16.806C24.765,16.806 24.546,16.942 24.364,17.215C24.183,17.487 24.077,17.835 24.047,18.259C23.986,19.197 24.304,19.666 25,19.666ZM25,19.53C24.395,19.53 24.122,19.106 24.183,18.259C24.213,17.896 24.304,17.593 24.455,17.351C24.607,17.109 24.788,16.988 25,16.988C25.212,16.988 25.393,17.109 25.545,17.351C25.696,17.593 25.787,17.896 25.817,18.259C25.878,19.106 25.605,19.53 25,19.53ZM24.955,19.257C25.076,19.257 25.151,19.242 25.182,19.212L25.409,19.212C25.499,19.152 25.545,19.076 25.545,18.985L25.545,18.849C25.545,18.698 25.507,18.531 25.431,18.35C25.356,18.168 25.227,18.07 25.045,18.054C24.864,18.039 24.705,18.092 24.569,18.213C24.433,18.334 24.364,18.501 24.364,18.713C24.364,18.804 24.395,18.879 24.455,18.94L24.455,18.985L24.501,19.076C24.501,19.257 24.591,19.348 24.773,19.348C24.834,19.348 24.894,19.318 24.955,19.257ZM24.682,18.304C24.773,18.213 24.887,18.176 25.023,18.191C25.159,18.206 25.257,18.289 25.318,18.44C25.348,18.501 25.363,18.682 25.363,18.985C25.363,19.076 25.333,19.114 25.272,19.099C25.212,19.083 25.159,19.091 25.113,19.121C25.068,19.152 24.985,19.136 24.864,19.076C24.864,19.167 24.826,19.212 24.75,19.212C24.675,19.212 24.637,19.174 24.637,19.099C24.637,19.023 24.614,18.947 24.569,18.872C24.523,18.796 24.501,18.743 24.501,18.713C24.501,18.561 24.561,18.425 24.682,18.304ZM25,19.03C25.151,19.03 25.227,18.955 25.227,18.804C25.227,18.652 25.151,18.577 25,18.577C24.849,18.577 24.773,18.652 24.773,18.804C24.773,18.955 24.849,19.03 25,19.03ZM25,18.894C24.97,18.894 24.955,18.872 24.955,18.826C24.955,18.781 24.977,18.758 25.023,18.758C25.068,18.758 25.091,18.781 25.091,18.826C25.091,18.872 25.061,18.894 25,18.894Z" style="fill:#f1de7f;fill-rule:nonzero;"/></g></g></svg>