<svg xmlns="http://www.w3.org/2000/svg" xml:space="preserve" style="fill-rule:evenodd;clip-rule:evenodd;stroke-linejoin:round;stroke-miterlimit:2" viewBox="0 0 50 50"><path d="M0 0h50v50H0z" style="fill:none"/><clipPath id="a"><path d="M0 0h50v50H0z"/></clipPath><g clip-path="url(#a)"><path d="M7.5 48v-1.562q0-.452-.129-.884C6.736 43.329 4 33.11 4 22.5 4 10 12.5 2 25 2s19 8 19 15.5c0 4.216 2.421 11.037 3.893 14.797a1.99 1.99 0 0 1-.224 1.835 1.99 1.99 0 0 1-1.637.858C44.956 35 44 35 44 35v6a5 5 0 0 1-5 5h-1.5v2z" style="fill:#10273d"/><path d="M7.5 48v-1.562q0-.452-.129-.884C6.736 43.329 4 33.11 4 22.5 4 10 12.5 2 25 2s19 8 19 15.5c0 4.216 2.421 11.037 3.893 14.797a1.99 1.99 0 0 1-.224 1.835 1.99 1.99 0 0 1-1.637.858C44.956 35 44 35 44 35v6a5 5 0 0 1-5 5h-1.5v2z" style="fill:#10273d"/><path d="M39.5 48h-2v-2H39a5 5 0 0 0 5-5v-6s.956 0 2.032-.01c.653 0 1.265-.321 1.637-.858a1.99 1.99 0 0 0 .224-1.835C46.421 28.537 44 21.716 44 17.5 44 10 37.5 2 25 2S4 10 4 22.5c0 10.229 2.543 20.094 3.296 22.783.135.458.204.932.204 1.409V48h-2v-1.307q0-.428-.126-.858l-.003-.012C4.599 43.07 2 32.971 2 22.5c0-6.859 2.376-12.466 6.423-16.376C12.452 2.232 18.171 0 25 0c13.935 0 21 9.139 21 17.5 0 4.012 2.354 10.49 3.76 14.079l.004.012a3.99 3.99 0 0 1-3.716 5.399H46V41a7 7 0 0 1-6.5 6.982z" style="fill:#0077af"/><path d="m34.727 19.222-2.162-1.305c-.039-.024-.065-.081-.065-.144 0-.064.026-.121.065-.144l3.123-1.885a.9.9 0 0 0 .276-.274 1.4 1.4 0 0 0 .183-.415l1.257-4.685c.016-.059.054-.097.096-.097s.08.038.096.097l1.257 4.685a1.4 1.4 0 0 0 .183.415.9.9 0 0 0 .276.274l3.123 1.885c.039.023.065.08.065.144s-.026.12-.065.144l-3.123 1.885a.9.9 0 0 0-.276.274 1.4 1.4 0 0 0-.183.415l-1.257 4.685c-.016.058-.054.097-.096.097s-.08-.039-.096-.097l-.977-3.644C34.645 25.448 30.888 31.94 27 37.562c-.062.089-.165.238-.313.152-.034-.02-.062-.036-.076-.064-.058-.113.092-.429.856-2.02.71-1.48 1.682-3.506 2.415-5.259 1.1-2.632 1.02-3.156.969-3.254a.04.04 0 0 0-.014-.019c-.001 0-.014-.006-.053.003-4.997 1.148-16.735 8.647-21.154 11.47-1.931 1.233-1.931 1.233-2.044 1.096l-.086-.131.105-.109c2.28-2.37 20.124-15.872 27.122-20.205" style="fill:#f1de7f;fill-rule:nonzero"/></g></svg>