<?xml version="1.0" encoding="UTF-8" standalone="no"?><!DOCTYPE svg PUBLIC "-//W3C//DTD SVG 1.1//EN" "http://www.w3.org/Graphics/SVG/1.1/DTD/svg11.dtd"><svg width="100%" height="100%" viewBox="0 0 50 50" version="1.1" xmlns="http://www.w3.org/2000/svg" xmlns:xlink="http://www.w3.org/1999/xlink" xml:space="preserve" xmlns:serif="http://www.serif.com/" style="fill-rule:evenodd;clip-rule:evenodd;stroke-linejoin:round;stroke-miterlimit:2;"><rect id="value-heritage" x="0" y="0" width="50" height="50" style="fill:none;"/><clipPath id="_clip1"><rect id="value-heritage1" serif:id="value-heritage" x="0" y="0" width="50" height="50"/></clipPath><g clip-path="url(#_clip1)"><g id="Value-Frame" serif:id="Value Frame"><path d="M7.5,48L7.5,46.438C7.5,46.138 7.456,45.841 7.371,45.554C6.736,43.329 4,33.11 4,22.5C4,10 12.5,2 25,2C37.5,2 44,10 44,17.5C44,21.716 46.421,28.537 47.893,32.297C48.124,32.909 48.04,33.594 47.669,34.132C47.297,34.669 46.685,34.99 46.032,34.99C44.956,35 44,35 44,35L44,41C44,43.761 41.761,46 39,46C38.131,46 37.5,46 37.5,46L37.5,48L7.5,48Z" style="fill:#10273d;"/><path d="M7.5,48L7.5,46.438C7.5,46.138 7.456,45.841 7.371,45.554C6.736,43.329 4,33.11 4,22.5C4,10 12.5,2 25,2C37.5,2 44,10 44,17.5C44,21.716 46.421,28.537 47.893,32.297C48.124,32.909 48.04,33.594 47.669,34.132C47.297,34.669 46.685,34.99 46.032,34.99C44.956,35 44,35 44,35L44,41C44,43.761 41.761,46 39,46C38.131,46 37.5,46 37.5,46L37.5,48L7.5,48Z" style="fill:#10273d;"/><path d="M39.5,48L37.5,48L37.5,46C37.5,46 38.131,46 39,46C41.761,46 44,43.761 44,41L44,35C44,35 44.956,35 46.032,34.99C46.685,34.99 47.297,34.669 47.669,34.132C48.04,33.594 48.124,32.909 47.893,32.297C46.421,28.537 44,21.716 44,17.5C44,10 37.5,2 25,2C12.5,2 4,10 4,22.5C4,32.729 6.543,42.594 7.296,45.283C7.431,45.741 7.5,46.215 7.5,46.692L7.5,48L5.5,48L5.5,46.693C5.5,46.407 5.459,46.122 5.374,45.835L5.371,45.823C4.599,43.07 2,32.971 2,22.5C2,15.641 4.376,10.034 8.423,6.124C12.452,2.232 18.171,-0 25,-0C38.935,-0 46,9.139 46,17.5C46,21.512 48.354,27.99 49.76,31.579L49.764,31.591C50.227,32.817 50.059,34.191 49.314,35.269C48.572,36.342 47.352,36.984 46.048,36.99C46.032,36.99 46.016,36.99 46,36.99L46,41C46,44.698 43.133,47.726 39.5,47.982L39.5,48Z" style="fill:#0077af;"/></g><g id="Heritage"><path id="Heritage1" serif:id="Heritage" d="M25,6C14.514,6 6,14.514 6,25C6,35.486 14.514,44 25,44C35.486,44 44,35.486 44,25C44,14.514 35.486,6 25,6ZM21.587,36.306C21.851,37.196 22.145,38.001 22.466,38.708C22.891,39.642 23.355,40.391 23.864,40.9C23.886,40.922 23.908,40.944 23.93,40.965C24.284,40.988 24.641,41 25,41C25.359,41 25.716,40.988 26.07,40.965C26.092,40.944 26.114,40.922 26.136,40.9C26.645,40.391 27.109,39.642 27.534,38.708C27.855,38.001 28.149,37.196 28.413,36.306C27.307,36.433 26.166,36.5 25,36.5C23.834,36.5 22.693,36.433 21.587,36.306ZM16.12,35.103C16.793,36.367 17.592,37.49 18.491,38.431C19.293,39.271 20.175,39.965 21.119,40.479C20.471,39.3 19.898,37.769 19.433,35.974C18.274,35.749 17.166,35.455 16.12,35.103ZM33.88,35.103C32.834,35.455 31.726,35.749 30.567,35.974C30.102,37.769 29.529,39.301 28.881,40.479C29.825,39.965 30.707,39.271 31.509,38.431C32.408,37.49 33.207,36.367 33.88,35.103ZM10.825,32.424C11.943,34.552 13.527,36.399 15.44,37.828C14.653,36.682 13.969,35.391 13.411,33.986C12.466,33.518 11.599,32.994 10.825,32.424ZM39.175,32.424C38.401,32.994 37.534,33.518 36.589,33.986C36.031,35.392 35.347,36.682 34.56,37.828C36.473,36.399 38.057,34.552 39.175,32.424ZM20.176,25.991L29.824,25.995C29.767,29.016 29.451,31.827 28.938,34.224C27.675,34.405 26.356,34.5 25,34.5C23.644,34.5 22.325,34.405 21.062,34.224C20.549,31.827 20.233,29.014 20.176,25.991ZM31.824,25.996C31.771,28.831 31.493,31.492 31.046,33.833C32.47,33.505 33.801,33.064 35.006,32.528C35.705,30.545 36.134,28.335 36.23,25.997L31.824,25.996ZM13.77,25.988C13.865,28.329 14.295,30.543 14.994,32.528C16.199,33.064 17.529,33.505 18.954,33.833C18.507,31.491 18.229,28.828 18.176,25.99L13.77,25.988ZM9.03,25.986C9.067,26.598 9.139,27.201 9.243,27.792C9.764,28.745 10.54,29.631 11.512,30.426C11.822,30.68 12.152,30.924 12.501,31.159C12.09,29.529 11.836,27.793 11.769,25.987L9.03,25.986ZM38.231,25.998C38.162,27.8 37.909,29.532 37.499,31.159C37.848,30.924 38.178,30.68 38.488,30.426C39.46,29.631 40.236,28.745 40.757,27.792C40.86,27.204 40.932,26.606 40.969,25.999L38.231,25.998ZM37.499,18.841C37.909,20.466 38.162,22.198 38.231,23.998L40.969,23.999C40.932,23.393 40.86,22.795 40.757,22.208C40.236,21.255 39.46,20.369 38.488,19.574C38.178,19.32 37.848,19.076 37.499,18.841ZM31.046,16.167C31.492,18.505 31.77,21.163 31.824,23.996L36.229,23.997C36.133,21.662 35.704,19.454 35.006,17.472C33.801,16.936 32.471,16.495 31.046,16.167ZM28.938,15.776C29.45,18.169 29.766,20.977 29.824,23.995L20.176,23.991C20.234,20.975 20.55,18.169 21.062,15.776C22.325,15.595 23.644,15.5 25,15.5C26.356,15.5 27.675,15.595 28.938,15.776ZM18.954,16.167C17.53,16.495 16.199,16.936 14.994,17.472C14.297,19.451 13.868,21.656 13.771,23.988L18.176,23.99C18.23,21.16 18.508,18.504 18.954,16.167ZM12.501,18.841C12.152,19.076 11.822,19.32 11.512,19.574C10.54,20.369 9.764,21.255 9.243,22.208C9.141,22.791 9.069,23.384 9.032,23.986L11.77,23.987C11.839,22.191 12.092,20.463 12.501,18.841ZM34.56,12.172C35.347,13.318 36.031,14.609 36.589,16.014C37.534,16.482 38.401,17.006 39.175,17.576C38.057,15.448 36.473,13.601 34.56,12.172ZM15.44,12.172C13.527,13.601 11.943,15.448 10.825,17.576C11.599,17.006 12.466,16.482 13.411,16.014C13.969,14.608 14.653,13.318 15.44,12.172ZM28.881,9.521C29.529,10.7 30.102,12.231 30.567,14.026C31.726,14.251 32.834,14.545 33.88,14.897C33.207,13.633 32.408,12.51 31.509,11.569C30.707,10.729 29.825,10.035 28.881,9.521ZM21.119,9.521C20.175,10.035 19.293,10.729 18.491,11.569C17.592,12.51 16.793,13.633 16.12,14.897C17.166,14.545 18.274,14.251 19.433,14.026C19.898,12.231 20.471,10.699 21.119,9.521ZM26.07,9.035C25.716,9.012 25.359,9 25,9C24.641,9 24.284,9.012 23.93,9.035C23.908,9.056 23.886,9.078 23.864,9.1C23.355,9.609 22.891,10.358 22.466,11.292C22.145,11.999 21.851,12.804 21.587,13.694C22.693,13.567 23.834,13.5 25,13.5C26.166,13.5 27.307,13.567 28.413,13.694C28.149,12.804 27.855,11.999 27.534,11.292C27.109,10.358 26.645,9.609 26.136,9.1C26.114,9.078 26.092,9.056 26.07,9.035Z" style="fill:#f1de7f;"/></g></g></svg>