<?xml version="1.0" encoding="UTF-8" standalone="no"?><!DOCTYPE svg PUBLIC "-//W3C//DTD SVG 1.1//EN" "http://www.w3.org/Graphics/SVG/1.1/DTD/svg11.dtd"><svg width="100%" height="100%" viewBox="0 0 50 50" version="1.1" xmlns="http://www.w3.org/2000/svg" xmlns:xlink="http://www.w3.org/1999/xlink" xml:space="preserve" xmlns:serif="http://www.serif.com/" style="fill-rule:evenodd;clip-rule:evenodd;stroke-linejoin:round;stroke-miterlimit:2;"><rect id="value-tellarite" x="0" y="0" width="50" height="50" style="fill:none;"/><clipPath id="_clip1"><rect id="value-tellarite1" serif:id="value-tellarite" x="0" y="0" width="50" height="50"/></clipPath><g clip-path="url(#_clip1)"><g id="Value-Frame" serif:id="Value Frame"><path d="M7.5,48L7.5,46.438C7.5,46.138 7.456,45.841 7.371,45.554C6.736,43.329 4,33.11 4,22.5C4,10 12.5,2 25,2C37.5,2 44,10 44,17.5C44,21.716 46.421,28.537 47.893,32.297C48.124,32.909 48.04,33.594 47.669,34.132C47.297,34.669 46.685,34.99 46.032,34.99C44.956,35 44,35 44,35L44,41C44,43.761 41.761,46 39,46C38.131,46 37.5,46 37.5,46L37.5,48L7.5,48Z" style="fill:#10273d;"/><path d="M7.5,48L7.5,46.438C7.5,46.138 7.456,45.841 7.371,45.554C6.736,43.329 4,33.11 4,22.5C4,10 12.5,2 25,2C37.5,2 44,10 44,17.5C44,21.716 46.421,28.537 47.893,32.297C48.124,32.909 48.04,33.594 47.669,34.132C47.297,34.669 46.685,34.99 46.032,34.99C44.956,35 44,35 44,35L44,41C44,43.761 41.761,46 39,46C38.131,46 37.5,46 37.5,46L37.5,48L7.5,48Z" style="fill:#10273d;"/><path d="M39.5,48L37.5,48L37.5,46C37.5,46 38.131,46 39,46C41.761,46 44,43.761 44,41L44,35C44,35 44.956,35 46.032,34.99C46.685,34.99 47.297,34.669 47.669,34.132C48.04,33.594 48.124,32.909 47.893,32.297C46.421,28.537 44,21.716 44,17.5C44,10 37.5,2 25,2C12.5,2 4,10 4,22.5C4,32.729 6.543,42.594 7.296,45.283C7.431,45.741 7.5,46.215 7.5,46.692L7.5,48L5.5,48L5.5,46.693C5.5,46.407 5.459,46.122 5.374,45.835L5.371,45.823C4.599,43.07 2,32.971 2,22.5C2,15.641 4.376,10.034 8.423,6.124C12.452,2.232 18.171,-0 25,-0C38.935,-0 46,9.139 46,17.5C46,21.512 48.354,27.99 49.76,31.579L49.764,31.591C50.227,32.817 50.059,34.191 49.314,35.269C48.572,36.342 47.352,36.984 46.048,36.99C46.032,36.99 46.016,36.99 46,36.99L46,41C46,44.698 43.133,47.726 39.5,47.982L39.5,48Z" style="fill:#0077af;"/></g><g id="Tellarite"><path id="Tellarite1" serif:id="Tellarite" d="M29.702,41.872L30.128,42.298L28.426,44L27.574,43.149L28,42.723L28.426,43.149L29.702,41.872ZM20.298,41.234L19.872,41.66L20.298,42.085L19.872,42.511L20.298,42.936L20.723,42.511L21.149,42.936L20.723,43.362L21.149,43.787L22,42.936L21.149,42.085L21.574,41.66L22.426,42.511L22.851,42.085L21.574,40.809L20.723,41.66L20.298,41.234ZM26.723,42.298L27.149,42.723L27.574,42.298L28,42.723L28.426,42.298L28,41.872L28.426,41.447L28,41.021L26.723,42.298ZM43.191,24.298L24.894,6L6.596,24.298L24.894,42.596L43.191,24.298ZM28.851,41.021L29.277,41.447L28.851,41.872L28.426,41.447L28.851,41.021ZM30.34,38.681L29.489,39.532L31.191,41.234L31.617,40.809L30.34,39.532L30.766,39.106L30.34,38.681ZM18.426,37.66L16.723,39.362L18.426,41.064L18.851,40.638L17.574,39.362L18,38.936L18.426,39.362L18.851,38.936L18.426,38.511L18.851,38.085L18.426,37.66ZM32.043,38.681L32.894,39.532L32.043,40.383L31.617,39.957L32.043,39.532L31.617,39.106L31.191,39.532L30.766,39.106L31.191,38.681L31.617,39.106L32.043,38.681ZM19.277,38.511L20.128,39.362L19.702,39.787L18.851,38.936L19.277,38.511ZM39.787,24.298L24.894,9.404L10,24.298L24.894,39.191L39.787,24.298ZM31.191,37.83L31.617,38.255L31.191,38.681L30.766,38.255L31.191,37.83ZM16.128,37.915L15.702,38.34L15.277,37.915L15.702,37.489L16.128,37.915ZM34.17,34.851L32.468,36.553L34.17,38.255L35.872,36.553L35.021,35.702L34.596,36.128L35.021,36.553L34.17,37.404L33.319,36.553L34.596,35.277L34.17,34.851ZM24.894,35.617L21.489,32.213L21.957,31.745L20.681,30.468L19.277,31.872L24.894,37.489L29.106,33.277L28.17,32.34L24.894,35.617ZM15.702,34.936L15.277,35.362L16.128,36.213L15.702,36.638L14.851,35.787L14,36.638L14.426,37.064L14.851,36.638L15.702,37.489L16.128,37.064L16.553,37.489L16.979,37.064L16.553,36.638L16.979,36.213L15.702,34.936ZM12.128,33.064L11.277,33.915L12.979,35.617L14.681,33.915L13.83,33.064L13.404,33.489L13.83,33.915L12.979,34.766L12.553,34.34L12.979,33.915L12.128,33.064ZM36.723,33.149L37.574,34L36.723,34.851L36.298,34.426L36.723,34L36.298,33.574L35.872,34L35.447,33.574L36.723,32.298L37.149,32.723L37.574,32.298L38.851,33.574L38,34.426L37.574,34L38,33.574L37.149,32.723L36.723,33.149ZM24.936,15.064L22.681,17.319L25.021,19.66L25.021,22.894L21.872,26.043L17.872,22.043L15.617,24.298L24.894,33.574L27.149,31.319L25.872,30.043L30.681,25.234L31.957,26.511L34.17,24.298L31.532,21.66L30.085,23.106L28,21.021L29.447,19.574L24.936,15.064ZM12.979,32.213L12.553,32.638L12.979,33.064L13.404,32.638L12.979,32.213ZM9.404,31.191L9.83,31.617L9.404,32.043L8.553,31.191L9.83,29.915L10.255,30.34L10.681,29.915L11.957,31.191L10.255,32.894L9.83,32.468L11.106,31.191L10.255,30.34L9.404,31.191ZM39.915,29.106L39.064,29.957L39.915,30.809L39.489,31.234L38.638,30.383L38.213,30.809L39.915,32.511L40.34,32.085L39.915,31.66L40.766,30.809L41.191,31.234L41.617,30.809L40.766,29.957L40.34,30.383L39.915,29.957L40.34,29.532L39.915,29.106ZM31.787,27.872L30.638,26.723L27.149,30.213L28.298,31.362L31.787,27.872ZM7.532,26.766L6.255,28.043L6.681,28.468L7.106,28.043L7.532,28.468L6.681,29.319L7.532,30.17L7.957,29.745L7.532,29.319L7.957,28.894L8.383,29.319L8.809,28.894L8.383,28.468L8.809,28.043L7.532,26.766ZM42.468,26.553L41.191,27.83L41.617,28.255L42.468,27.404L42.894,27.83L42.468,28.255L42.894,28.681L42.043,29.532L42.468,29.957L43.745,28.681L43.319,28.255L43.745,27.83L42.468,26.553ZM42.043,28.681L41.617,28.255L41.191,28.681L41.617,29.106L42.043,28.681ZM13.574,24.298L16.851,21.021L15.915,20.085L11.702,24.298L15.915,28.511L16.851,27.574L13.574,24.298ZM38.085,24.298L32.426,18.638L31.064,20L32.298,21.234L32.723,20.809L36.213,24.298L32.979,27.532L33.915,28.468L38.085,24.298ZM21.149,17.149L23.957,19.957L23.957,22.681L21.915,24.723L17.745,20.553L21.149,17.149ZM24.894,11.106L20.681,15.319L21.617,16.255L24.894,12.979L28.17,16.255L29.106,15.319L24.894,11.106Z" style="fill:#81a2e4;"/></g></g></svg>