<svg xmlns="http://www.w3.org/2000/svg" xml:space="preserve" style="fill-rule:evenodd;clip-rule:evenodd;stroke-linejoin:round;stroke-miterlimit:2" viewBox="0 0 50 50"><path d="M0 0h50v50H0z" style="fill:none"/><clipPath id="a"><path d="M0 0h50v50H0z"/></clipPath><g clip-path="url(#a)"><path d="M7.5 48v-1.562q0-.452-.129-.884C6.736 43.329 4 33.11 4 22.5 4 10 12.5 2 25 2s19 8 19 15.5c0 4.216 2.421 11.037 3.893 14.797a1.99 1.99 0 0 1-.224 1.835 1.99 1.99 0 0 1-1.637.858C44.956 35 44 35 44 35v6a5 5 0 0 1-5 5h-1.5v2z" style="fill:#10273d"/><path d="M7.5 48v-1.562q0-.452-.129-.884C6.736 43.329 4 33.11 4 22.5 4 10 12.5 2 25 2s19 8 19 15.5c0 4.216 2.421 11.037 3.893 14.797a1.99 1.99 0 0 1-.224 1.835 1.99 1.99 0 0 1-1.637.858C44.956 35 44 35 44 35v6a5 5 0 0 1-5 5h-1.5v2z" style="fill:#10273d"/><path d="M39.5 48h-2v-2H39a5 5 0 0 0 5-5v-6s.956 0 2.032-.01c.653 0 1.265-.321 1.637-.858a1.99 1.99 0 0 0 .224-1.835C46.421 28.537 44 21.716 44 17.5 44 10 37.5 2 25 2S4 10 4 22.5c0 10.229 2.543 20.094 3.296 22.783.135.458.204.932.204 1.409V48h-2v-1.307q0-.428-.126-.858l-.003-.012C4.599 43.07 2 32.971 2 22.5c0-6.859 2.376-12.466 6.423-16.376C12.452 2.232 18.171 0 25 0c13.935 0 21 9.139 21 17.5 0 4.012 2.354 10.49 3.76 14.079l.004.012a3.99 3.99 0 0 1-3.716 5.399H46V41a7 7 0 0 1-6.5 6.982z" style="fill:#0077af"/><path d="M40.267 37.863 28.978 7.761l-1 .517A6.46 6.46 0 0 1 25 9a6.46 6.46 0 0 1-2.978-.722l-1-.517L9.733 37.863l.906.365A38.4 38.4 0 0 0 25 41a38.4 38.4 0 0 0 14.361-2.772zm-25.161-8.63A28.4 28.4 0 0 0 24 30.983v8.004a36.4 36.4 0 0 1-11.704-2.262zm19.788 0 2.81 7.492A36.4 36.4 0 0 1 26 38.987v-8.004a28.4 28.4 0 0 0 8.894-1.75m-3.512-9.365 2.81 7.492A26.4 26.4 0 0 1 26 28.981v-8.008c1.883-.1 3.691-.483 5.382-1.105m-12.764 0A18.4 18.4 0 0 0 24 20.973v8.008a26.3 26.3 0 0 1-8.192-1.621zm.702-1.873 2.81-7.493a8.5 8.5 0 0 0 1.87.44v8.028a16.4 16.4 0 0 1-4.68-.975m11.36 0a16.4 16.4 0 0 1-4.68.975v-8.028a8.5 8.5 0 0 0 1.87-.44z" style="fill:#f1de7f"/></g></svg>