<svg xmlns="http://www.w3.org/2000/svg" xml:space="preserve" style="fill-rule:evenodd;clip-rule:evenodd;stroke-linejoin:round;stroke-miterlimit:2" viewBox="0 0 50 50"><path d="M0 0h50v50H0z" style="fill:none"/><clipPath id="a"><path d="M0 0h50v50H0z"/></clipPath><g clip-path="url(#a)"><path d="M7.5 48v-1.562q0-.452-.129-.884C6.736 43.329 4 33.11 4 22.5 4 10 12.5 2 25 2s19 8 19 15.5c0 4.216 2.421 11.037 3.893 14.797a1.99 1.99 0 0 1-.224 1.835 1.99 1.99 0 0 1-1.637.858C44.956 35 44 35 44 35v6a5 5 0 0 1-5 5h-1.5v2z" style="fill:#10273d"/><path d="M7.5 48v-1.562q0-.452-.129-.884C6.736 43.329 4 33.11 4 22.5 4 10 12.5 2 25 2s19 8 19 15.5c0 4.216 2.421 11.037 3.893 14.797a1.99 1.99 0 0 1-.224 1.835 1.99 1.99 0 0 1-1.637.858C44.956 35 44 35 44 35v6a5 5 0 0 1-5 5h-1.5v2z" style="fill:#10273d"/><path d="M39.5 48h-2v-2H39a5 5 0 0 0 5-5v-6s.956 0 2.032-.01c.653 0 1.265-.321 1.637-.858a1.99 1.99 0 0 0 .224-1.835C46.421 28.537 44 21.716 44 17.5 44 10 37.5 2 25 2S4 10 4 22.5c0 10.229 2.543 20.094 3.296 22.783.135.458.204.932.204 1.409V48h-2v-1.307q0-.428-.126-.858l-.003-.012C4.599 43.07 2 32.971 2 22.5c0-6.859 2.376-12.466 6.423-16.376C12.452 2.232 18.171 0 25 0c13.935 0 21 9.139 21 17.5 0 4.012 2.354 10.49 3.76 14.079l.004.012a3.99 3.99 0 0 1-3.716 5.399H46V41a7 7 0 0 1-6.5 6.982z" style="fill:#0077af"/><path d="m22.003 19.876 20.4 5.656v.048L25.483 42.5q-.048 0-.048-.048-4.447-16.05-5.656-20.498.725-.242 1.402-.87.58-.677.822-1.208m10.055 12.762-6.285 9.089 7.155-8.799 8.799-7.155-9.041 6.285-11.167-10.539zm6.478-8.992-10.877-2.997q.048-.338.048-.967 0-2.175-1.063-4.012a7.9 7.9 0 0 0-2.877-2.901q-1.812-1.063-3.988-1.063-2.175 0-4.012 1.063a7.8 7.8 0 0 0-2.901 2.901 7.8 7.8 0 0 0-1.064 3.988q0 2.152 1.064 3.988a7.8 7.8 0 0 0 2.901 2.901 7.87 7.87 0 0 0 4.012 1.063q.483 0 .725-.048l2.997 10.877h-.435q-4.206 0-7.831-2.127a15.05 15.05 0 0 1-5.511-5.511 15.2 15.2 0 0 1-2.127-7.831q0-4.206 2.127-7.832a15.06 15.06 0 0 1 5.511-5.511A15.2 15.2 0 0 1 23.066 7.5q4.206 0 7.832 2.127a15.1 15.1 0 0 1 5.511 5.511 15.2 15.2 0 0 1 2.127 7.832zm-20.159-2.03q-1.353 0-2.345-.991-.99-.991-.991-2.369 0-1.377.991-2.369.992-.99 2.345-.991 1.353 0 2.345.991.99.992.991 2.369 0 1.378-.967 2.369t-2.369.991" style="fill:#dbba57;fill-rule:nonzero"/></g></svg>