<?xml version="1.0" encoding="UTF-8" standalone="no"?><!DOCTYPE svg PUBLIC "-//W3C//DTD SVG 1.1//EN" "http://www.w3.org/Graphics/SVG/1.1/DTD/svg11.dtd"><svg width="100%" height="100%" viewBox="0 0 50 50" version="1.1" xmlns="http://www.w3.org/2000/svg" xmlns:xlink="http://www.w3.org/1999/xlink" xml:space="preserve" xmlns:serif="http://www.serif.com/" style="fill-rule:evenodd;clip-rule:evenodd;stroke-linejoin:round;stroke-miterlimit:2;"><rect id="value-custom" x="0" y="0" width="50" height="50" style="fill:none;"/><clipPath id="_clip1"><rect id="value-custom1" serif:id="value-custom" x="0" y="0" width="50" height="50"/></clipPath><g clip-path="url(#_clip1)"><g id="Value-Frame" serif:id="Value Frame"><path d="M7.5,48L7.5,46.438C7.5,46.138 7.456,45.841 7.371,45.554C6.736,43.329 4,33.11 4,22.5C4,10 12.5,2 25,2C37.5,2 44,10 44,17.5C44,21.716 46.421,28.537 47.893,32.297C48.124,32.909 48.04,33.594 47.669,34.132C47.297,34.669 46.685,34.99 46.032,34.99C44.956,35 44,35 44,35L44,41C44,43.761 41.761,46 39,46C38.131,46 37.5,46 37.5,46L37.5,48L7.5,48Z" style="fill:#10273d;"/><path d="M7.5,48L7.5,46.438C7.5,46.138 7.456,45.841 7.371,45.554C6.736,43.329 4,33.11 4,22.5C4,10 12.5,2 25,2C37.5,2 44,10 44,17.5C44,21.716 46.421,28.537 47.893,32.297C48.124,32.909 48.04,33.594 47.669,34.132C47.297,34.669 46.685,34.99 46.032,34.99C44.956,35 44,35 44,35L44,41C44,43.761 41.761,46 39,46C38.131,46 37.5,46 37.5,46L37.5,48L7.5,48Z" style="fill:#10273d;"/><path d="M39.5,48L37.5,48L37.5,46C37.5,46 38.131,46 39,46C41.761,46 44,43.761 44,41L44,35C44,35 44.956,35 46.032,34.99C46.685,34.99 47.297,34.669 47.669,34.132C48.04,33.594 48.124,32.909 47.893,32.297C46.421,28.537 44,21.716 44,17.5C44,10 37.5,2 25,2C12.5,2 4,10 4,22.5C4,32.729 6.543,42.594 7.296,45.283C7.431,45.741 7.5,46.215 7.5,46.692L7.5,48L5.5,48L5.5,46.693C5.5,46.407 5.459,46.122 5.374,45.835L5.371,45.823C4.599,43.07 2,32.971 2,22.5C2,15.641 4.376,10.034 8.423,6.124C12.452,2.232 18.171,-0 25,-0C38.935,-0 46,9.139 46,17.5C46,21.512 48.354,27.99 49.76,31.579L49.764,31.591C50.227,32.817 50.059,34.191 49.314,35.269C48.572,36.342 47.352,36.984 46.048,36.99C46.032,36.99 46.016,36.99 46,36.99L46,41C46,44.698 43.133,47.726 39.5,47.982L39.5,48Z" style="fill:#0077af;"/></g><g id="Custom"><path id="Custom1" serif:id="Custom" d="M17.768,36.223C18.723,34.404 19.587,33.017 20.361,32.061C21.361,30.833 22.271,30.242 23.09,30.288C24.272,30.333 25.364,31.698 26.365,34.381C27.047,36.2 27.684,38.566 28.275,41.477C27.274,42.159 26.183,42.5 25,42.5C23.545,42.5 22.191,41.943 20.941,40.828C19.69,39.714 18.632,38.179 17.768,36.223ZM16.131,31.243C15.721,28.878 15.517,26.808 15.517,25.034C15.517,21.85 15.949,18.917 16.813,16.233C17.677,13.549 18.837,11.423 20.292,9.854C21.748,8.285 23.328,7.5 25.034,7.5C26.74,7.5 28.32,8.285 29.776,9.854C31.231,11.423 32.38,13.549 33.221,16.233C34.063,18.917 34.483,21.85 34.483,25.034C34.483,28.582 33.938,31.834 32.846,34.79C31.845,37.61 30.481,39.725 28.752,41.135C28.616,39.953 28.366,37.906 28.002,34.995C27.502,31.22 27.138,28.309 26.91,26.262C26.501,22.851 25.978,19.917 25.341,17.461C24.431,14.095 23.476,12.412 22.476,12.412C20.565,12.412 18.45,18.689 16.131,31.243Z" style="fill:#f1de7f;fill-rule:nonzero;"/></g></g></svg>