<svg xmlns="http://www.w3.org/2000/svg" xml:space="preserve" style="fill-rule:evenodd;clip-rule:evenodd;stroke-linejoin:round;stroke-miterlimit:2" viewBox="0 0 50 50"><path d="M0 0h50v50H0z" style="fill:none"/><clipPath id="a"><path d="M0 0h50v50H0z"/></clipPath><g clip-path="url(#a)"><path d="M7.5 48v-1.562q0-.452-.129-.884C6.736 43.329 4 33.11 4 22.5 4 10 12.5 2 25 2s19 8 19 15.5c0 4.216 2.421 11.037 3.893 14.797a1.99 1.99 0 0 1-.224 1.835 1.99 1.99 0 0 1-1.637.858C44.956 35 44 35 44 35v6a5 5 0 0 1-5 5h-1.5v2z" style="fill:#10273d"/><path d="M7.5 48v-1.562q0-.452-.129-.884C6.736 43.329 4 33.11 4 22.5 4 10 12.5 2 25 2s19 8 19 15.5c0 4.216 2.421 11.037 3.893 14.797a1.99 1.99 0 0 1-.224 1.835 1.99 1.99 0 0 1-1.637.858C44.956 35 44 35 44 35v6a5 5 0 0 1-5 5h-1.5v2z" style="fill:#10273d"/><path d="M39.5 48h-2v-2H39a5 5 0 0 0 5-5v-6s.956 0 2.032-.01c.653 0 1.265-.321 1.637-.858a1.99 1.99 0 0 0 .224-1.835C46.421 28.537 44 21.716 44 17.5 44 10 37.5 2 25 2S4 10 4 22.5c0 10.229 2.543 20.094 3.296 22.783.135.458.204.932.204 1.409V48h-2v-1.307q0-.428-.126-.858l-.003-.012C4.599 43.07 2 32.971 2 22.5c0-6.859 2.376-12.466 6.423-16.376C12.452 2.232 18.171 0 25 0c13.935 0 21 9.139 21 17.5 0 4.012 2.354 10.49 3.76 14.079l.004.012a3.99 3.99 0 0 1-3.716 5.399H46V41a7 7 0 0 1-6.5 6.982z" style="fill:#0077af"/><path d="M25.37 34.491q-.23.185-.208.44.023.254.301.949l.139.277q.37.834.347 1.158-.022.324-.486.37.463-.278.44-.648t-.579-.926a1.3 1.3 0 0 1-.278-.231q-.694-.648-.787-.834-.092-.184-.023-.324.07-.139.301-.231.185-.047.463-.047t.37.047m.463.092q.463.093.787.278-.324.093-.393.347-.07.255-.07 1.181v.092q.046.973-.092 1.25-.139.279-.602.139.556-.046.625-.486.07-.44-.301-1.273l-.093-.231q-.323-.694-.347-.903-.023-.208.093-.301t.393-.093m-1.759 0q-.14.232 0 .51.231.37.833.879l.278.278q.51.463.556.833 0 .233-.324.417.37-.51.092-.833-.277-.324-1.203-.648 0-.047-.093-.047l-.093-.046q-.648-.231-.902-.44-.255-.209.115-.579.186-.092.602-.277zm-1.111.602q-.046.186.185.44.231.255.926.486l.185.046q.88.37 1.111.602.14.278-.092.602.185-.556-.232-.787-.416-.231-1.342-.185h-.093q-.833.046-1.042-.046-.207-.093-.254-.209t.046-.347v-.046l.139-.139q.278-.324.463-.417m-.833.972q0 .278.324.371t1.157.046h.88q.324.046.463.139.278.14.185.556-.093-.602-.533-.672t-1.273.394q-.046 0-.092.046-.788.37-1.065.37-.37.093-.37-.463.185-.555.324-.787m-.417 1.25a.53.53 0 0 0 .486.209q.302-.023 1.134-.44l.093-.046q.787-.37 1.157-.324.279 0 .371.463-.278-.417-.648-.417t-.926.602l-.278.277q-.464.51-.833.788-.186.092-.301.023-.116-.07-.255-.348zm.093 1.25a.46.46 0 0 0 .555 0q.186-.092.602-.463l.278-.324q.138-.231.278-.277.508-.556.787-.556.277 0 .463.324-.463-.37-.88-.092a2.7 2.7 0 0 0-.324.416l-.324.741-.047.185q-.277.741-.463.926a.37.37 0 0 1-.277.069q-.14-.022-.324-.208a2.8 2.8 0 0 1-.324-.741m.601 1.158q.186.046.463-.139.232-.278.463-.972l.093-.185q.185-.51.301-.764.115-.255.301-.348.231-.23.602.047-.603-.14-.811.231-.207.37-.162 1.343v.092q0 .88-.046 1.111-.138.325-.602.139-.185-.092-.463-.416zm.973.833a.56.56 0 0 0 .37-.347q.093-.255.093-1.181v-.092q-.046-.88.138-1.204.186-.324.556-.185-.556.047-.625.486-.07.44.301 1.273l.093.232q.324.694.324.926.092.416-.463.37-.325-.047-.787-.278m1.25.371q.23-.186.208-.44-.023-.255-.301-.949l-.139-.278q-.37-.834-.347-1.158.022-.324.486-.37-.463.278-.44.648t.579.926q.093.047.324.278.648.555.741.764t.023.347q-.07.14-.301.232-.139.045-.44.046-.3 0-.393-.046m1.296-.093q.14-.231 0-.509-.231-.37-.833-.88a.5.5 0 0 0-.186-.185l-.092-.093q-.463-.509-.556-.833 0-.231.324-.417-.37.51-.092.834.139.184.393.324.255.138.81.324 0 .046.093.046l.093.046q.648.232.902.44.255.209-.115.579-.186.093-.602.278zm1.111-.602q.093-.231-.116-.417-.208-.185-.949-.509l-.231-.046q-.88-.37-1.111-.602-.14-.278.092-.602-.185.556.232.787.416.232 1.342.185h.093q.832-.046 1.065.047.231.092.254.208.024.116-.069.347v.047l-.139.138q-.278.324-.463.417m.833-.972q0-.231-.301-.347-.3-.117-1.18-.07h-.093q-.925.046-1.227-.116-.3-.162-.162-.625.093.649.487.695.393.046 1.273-.37.046 0 .092-.047a5 5 0 0 1 1.065-.37q.185 0 .278.116.092.115.092.393a2.8 2.8 0 0 1-.324.741m.417-1.204q-.093-.231-.44-.208t-1.18.393l-.093.047q-.787.37-1.134.301-.348-.07-.347-.44.231.509.601.463.37-.047.926-.648l.093-.093a.5.5 0 0 0 .185-.185q.464-.51.833-.787.371-.14.556.324zm-.093-1.296q-.277-.231-.555 0-.186.093-.602.463l-.278.324a1.2 1.2 0 0 1-.278.278q-.462.555-.763.555t-.487-.324q.463.37.88.093.277-.232.648-1.158l.139-.416q.278-.556.394-.672t.254-.092q.14.023.324.208.186.278.324.741m-.601-1.158q-.186-.092-.417.139-.231.232-.509.973l-.093.185q-.185.509-.301.764-.115.254-.301.347-.231.231-.602-.046.648.138.834-.278a.9.9 0 0 0 .162-.463 6 6 0 0 0-.023-.834v-.092q0-.88.046-1.111.138-.325.602-.139.185.093.463.417zm2.129 1.991q.972-1.76 1.482-4.074.509-2.315.509-4.907 0-2.871-.648-5.394t-1.783-4.305q-1.134-1.783-2.569-2.477V8.981q2.084.741 3.773 3.125t2.662 5.857q.972 3.611.972 7.639 0 4.583-1.25 8.518-1.203 3.843-3.287 6.111Q27.5 42.501 25 42.5t-4.583-2.269q-2.084-2.268-3.287-6.111-1.25-3.935-1.25-8.518 0-4.028.972-7.639.972-3.472 2.662-5.857 1.69-2.384 3.773-3.125v7.547q-1.435.694-2.569 2.477-1.135 1.782-1.783 4.305t-.648 5.394q0 2.592.509 4.907.51 2.315 1.482 4.074 0-.602.139-1.157-1.482-3.333-1.482-7.824 0-3.982 1.204-7.153t3.148-4.236v.231q-1.852 1.112-3.009 4.19-1.158 3.079-1.158 6.968 0 4.351 1.389 7.546.186-.51.602-1.204-1.157-2.685-1.157-6.342 0-3.148.926-5.695.925-2.546 2.407-3.611v.972q-1.25 1.019-2.037 3.287-.787 2.27-.787 5.047 0 3.24 1.065 5.833 1.111-1.158 2.592-1.435V8.472h.371v24.584q.092 0 .139-.047V7.5h.74v25.509q.047.047.139.047V8.472h.371v24.63q1.48.277 2.592 1.435 1.065-2.593 1.065-5.833 0-2.778-.787-5.047t-2.037-3.287v-.972q1.482 1.065 2.407 3.611.927 2.547.926 5.695 0 3.657-1.157 6.342.37.463.602 1.204 1.389-3.195 1.389-7.546 0-3.889-1.158-6.968-1.157-3.078-3.009-4.19v-.231q1.944 1.065 3.148 4.236t1.204 7.153q0 4.491-1.482 7.824.14.555.139 1.157M26.065 8.843h.324v11.481l-.324.278zm-2.13 0v11.759l-.324-.278V8.843zM25 41.991q1.76 0 2.986-1.25t1.227-2.986q0-1.737-1.227-2.986T25 33.519q-1.76 0-2.986 1.25t-1.227 2.986q0 1.735 1.25 2.986 1.25 1.25 2.963 1.25m0-.463q-1.574 0-2.662-1.088t-1.088-2.662q0-1.575 1.088-2.685 1.088-1.112 2.662-1.112t2.685 1.112q1.111 1.11 1.111 2.685t-1.111 2.662T25 41.528m0-.232q1.482 0 2.523-1.041 1.042-1.042 1.042-2.5 0-1.46-1.042-2.5-1.041-1.042-2.523-1.042t-2.523 1.042q-1.042 1.04-1.042 2.5 0 1.458 1.042 2.5 1.041 1.041 2.523 1.041" style="fill:#db8e57;fill-rule:nonzero"/></g></svg>