<svg xmlns="http://www.w3.org/2000/svg" xml:space="preserve" style="fill-rule:evenodd;clip-rule:evenodd;stroke-linejoin:round;stroke-miterlimit:2" viewBox="0 0 40 40"><path d="M0 0h40v40H0z" style="fill:none"/><path d="m5.01 9.274.253-.295a10 10 0 0 1 7.086-3.301l7.677-.265A15 15 0 0 1 23 5.608V6a4 4 0 0 1-4 4h-.002v2H19a6 6 0 0 0 5.998-5.919c2.309.718 4.4 1.982 6.099 3.668A6 6 0 0 0 28 15v.002A5.997 5.997 0 0 0 33.998 21L34 19h-.002A4 4 0 0 1 30 15.002V15a4 4 0 0 1 2.467-3.695 14.9 14.9 0 0 1 2.582 5.282l.403 1.53a5.002 5.002 0 0 1-4.524 6.262l-5.851.366A9.8 9.8 0 0 0 23 25.1V22h-2v3.901a9.9 9.9 0 0 0-2.732 2.135l-.268.297V22a4 4 0 0 1 4-4h.002A4 4 0 0 1 26 21.998V22l2-.002A5.997 5.997 0 0 0 22.002 16H22a6 6 0 0 0-6 6v8.556l-2.816 3.128q-.088.1-.184.19V30a6 6 0 0 0-6-6h-.002v2H7a4 4 0 0 1 4 4v4.924q-.378.075-.77.076v-.006a4.41 4.41 0 0 1-4.227-3.16C4.965 28.438 3.429 23.113 3 20h6a6 6 0 0 0 6-6v-.002A5.997 5.997 0 0 0 9.002 8L9 10h.002A4 4 0 0 1 13 13.998V14a4 4 0 0 1-4 4H2.809a67 67 0 0 1-.092-1.63 10 10 0 0 1 .859-4.803A5.997 5.997 0 0 0 8.998 15L9 13h-.002A4 4 0 0 1 5.01 9.274" style="fill:#f1de7f"/></svg>