<?xml version="1.0" encoding="UTF-8" standalone="no"?><!DOCTYPE svg PUBLIC "-//W3C//DTD SVG 1.1//EN" "http://www.w3.org/Graphics/SVG/1.1/DTD/svg11.dtd"><svg width="100%" height="100%" viewBox="0 0 40 40" version="1.1" xmlns="http://www.w3.org/2000/svg" xmlns:xlink="http://www.w3.org/1999/xlink" xml:space="preserve" xmlns:serif="http://www.serif.com/" style="fill-rule:evenodd;clip-rule:evenodd;stroke-linejoin:round;stroke-miterlimit:2;"><rect id="plain-computers" x="0" y="0" width="40" height="40" style="fill:none;"/><g id="plain-computers1" serif:id="plain-computers"><g id="Computers"><path id="Computers1" serif:id="Computers" d="M7,28.732C6.402,28.386 6,27.74 6,27C6,25.896 6.896,25 8,25C9.104,25 10,25.896 10,27C10,27.74 9.598,28.386 9,28.732L9,33.268C9.598,33.614 10,34.26 10,35C10,36.104 9.104,37 8,37C6.896,37 6,36.104 6,35C6,34.26 6.402,33.614 7,33.268L7,28.732ZM10,6.732C9.402,6.386 9,5.74 9,5C9,3.896 9.896,3 11,3C12.104,3 13,3.896 13,5C13,5.74 12.598,6.386 12,6.732L12,14.586L20,22.586L20,37L12,37L12,33L14,33L14,26.414L4,16.414L4,6.732C3.402,6.386 3,5.74 3,5C3,3.896 3.896,3 5,3C6.104,3 7,3.896 7,5C7,5.74 6.598,6.386 6,6.732L6,15.586L16,25.586L16,33L18,33L18,23.414L10,15.414L10,6.732ZM20.518,18.932C20.353,18.976 20.179,19 20,19C18.896,19 18,18.104 18,17C18,15.896 18.896,15 20,15C21.104,15 22,15.896 22,17C22,17.179 21.976,17.353 21.932,17.518L24,19.586C24,19.586 24,32 24,32L33.268,32C33.614,31.402 34.26,31 35,31C36.104,31 37,31.896 37,33C37,34.104 36.104,35 35,35C34.26,35 33.614,34.598 33.268,34L22,34C22,34 22,20.414 22,20.414L20.518,18.932ZM33,4L33,3L37,3L37,13L34.414,13L28,19.414C28,19.414 28,26 28,26L33.268,26C33.614,25.402 34.26,25 35,25C36.104,25 37,25.896 37,27C37,28.104 36.104,29 35,29C34.26,29 33.614,28.598 33.268,28L26,28L26,18.586L33,11.586L33,6L30.414,6L24.414,12L19.732,12C19.386,12.598 18.74,13 18,13C16.896,13 16,12.104 16,11C16,9.896 16.896,9 18,9C18.74,9 19.386,9.402 19.732,10L23.586,10L27.586,6L19.732,6C19.386,6.598 18.74,7 18,7C16.896,7 16,6.104 16,5C16,3.896 16.896,3 18,3C18.74,3 19.386,3.402 19.732,4L33,4Z" style="fill:#f1de7f;"/></g></g></svg>