<?xml version="1.0" encoding="UTF-8" standalone="no"?><!DOCTYPE svg PUBLIC "-//W3C//DTD SVG 1.1//EN" "http://www.w3.org/Graphics/SVG/1.1/DTD/svg11.dtd"><svg width="100%" height="100%" viewBox="0 0 40 40" version="1.1" xmlns="http://www.w3.org/2000/svg" xmlns:xlink="http://www.w3.org/1999/xlink" xml:space="preserve" xmlns:serif="http://www.serif.com/" style="fill-rule:evenodd;clip-rule:evenodd;stroke-linejoin:round;stroke-miterlimit:2;"><rect id="plain-trill" x="0" y="0" width="40" height="40" style="fill:none;"/><g id="plain-trill1" serif:id="plain-trill"><g id="Trill"><path id="Trill1" serif:id="Trill" d="M15.198,25.413L21.79,25.413L21.79,17.817L23.841,17.817L23.841,25.413L25.325,25.413L25.325,17.817L27.377,17.817L27.377,25.413L36.5,25.413L36.5,26.853L35.802,27.726L27.377,27.726L27.377,35.583L25.325,35.583L25.325,27.726L23.841,27.726L23.841,35.583L21.79,35.583L21.79,27.726L15.198,27.726C11.968,27.726 9.211,26.591 6.927,24.321C4.642,22.052 3.5,19.302 3.5,16.071C3.5,14.704 3.747,13.351 4.242,12.012L3.718,11.139L4.722,10.048L5.202,10.048C6.25,8.331 7.632,6.978 9.349,5.988C11.153,4.94 13.11,4.417 15.22,4.417C17.33,4.417 19.272,4.94 21.048,5.988C22.91,7.123 24.307,8.476 25.238,10.048L32.31,10.048C33.212,10.077 34.114,10.615 35.016,11.663C35.86,12.594 36.311,13.511 36.369,14.413L35.671,15.111L29.647,15.111L29.647,16.246L29.123,16.813L20.262,16.857C20.029,18.108 19.447,19.149 18.516,19.978C17.585,20.808 16.479,21.222 15.198,21.222C13.743,21.222 12.521,20.713 11.532,19.694C10.542,18.676 10.048,17.468 10.048,16.071C10.048,14.937 10.426,13.874 11.183,12.885L6.425,12.885C6.046,13.903 5.857,14.966 5.857,16.071C5.857,18.632 6.767,20.829 8.585,22.663C10.404,24.496 12.608,25.413 15.198,25.413ZM22.401,10.048C20.597,7.865 18.196,6.774 15.198,6.774C12.317,6.774 9.931,7.865 8.04,10.048L22.401,10.048Z" style="fill:#ccc;fill-rule:nonzero;"/></g></g></svg>