<?xml version="1.0" encoding="UTF-8" standalone="no"?><!DOCTYPE svg PUBLIC "-//W3C//DTD SVG 1.1//EN" "http://www.w3.org/Graphics/SVG/1.1/DTD/svg11.dtd"><svg width="100%" height="100%" viewBox="0 0 40 40" version="1.1" xmlns="http://www.w3.org/2000/svg" xmlns:xlink="http://www.w3.org/1999/xlink" xml:space="preserve" xmlns:serif="http://www.serif.com/" style="fill-rule:evenodd;clip-rule:evenodd;stroke-linejoin:round;stroke-miterlimit:2;"><rect id="plain-defense" x="0" y="0" width="40" height="40" style="fill:none;"/><g id="plain-defense1" serif:id="plain-defense"><g id="Defense"><path id="Defense1" serif:id="Defense" d="M21.882,36L18.118,36L17.176,33.176L4,32.078L4.941,22.667L6.824,23.608L6.824,27.373C6.824,27.373 15.608,28.444 20,28.471C24.392,28.497 33.176,27.529 33.176,27.529L33.176,23.765L35.059,22.824L36,32.235L22.824,33.176L21.882,36ZM13.412,17.176L18.118,15.294L18.118,24.706L13.412,22.824L13.412,17.176ZM26.588,17.176L21.882,15.294L21.882,24.706L26.588,22.824L26.588,17.176ZM21.882,4L18.118,4L17.176,6.824L4,7.765L4.941,17.176L6.824,16.235L6.824,12.471C6.824,12.471 15.608,11.529 20,11.529C24.392,11.529 33.176,12.471 33.176,12.471L33.176,16.235L35.059,17.176L36,7.765L22.824,6.824L21.882,4Z" style="fill:#f1de7f;"/></g></g></svg>