<svg xmlns="http://www.w3.org/2000/svg" xml:space="preserve" style="fill-rule:evenodd;clip-rule:evenodd;stroke-linejoin:round;stroke-miterlimit:2" viewBox="0 0 40 40"><path d="M0 0h40v40H0z" style="fill:none"/><path d="M9 19H8v-4a1 1 0 0 0-1-1H5a1 1 0 0 0-1 1v4h-.5a.5.5 0 0 0-.5.5v1a.5.5 0 0 0 .5.5H4v4a1 1 0 0 0 1 1h2a1 1 0 0 0 1-1v-4h1v6a1 1 0 0 0 1 1h2a1 1 0 0 0 1-1v-6h14v6a1 1 0 0 0 1 1h2a1 1 0 0 0 1-1v-6h1v4a1 1 0 0 0 1 1h2a1 1 0 0 0 1-1v-4h.5a.5.5 0 0 0 .5-.5v-1a.5.5 0 0 0-.5-.5H36v-4a1 1 0 0 0-1-1h-2a1 1 0 0 0-1 1v4h-1v-6a1 1 0 0 0-1-1h-2a1 1 0 0 0-1 1v6H13v-6a1 1 0 0 0-1-1h-2a1 1 0 0 0-1 1z" style="fill:#f1de7f"/></svg>