<?xml version="1.0" encoding="UTF-8" standalone="no"?><!DOCTYPE svg PUBLIC "-//W3C//DTD SVG 1.1//EN" "http://www.w3.org/Graphics/SVG/1.1/DTD/svg11.dtd"><svg width="100%" height="100%" viewBox="0 0 40 40" version="1.1" xmlns="http://www.w3.org/2000/svg" xmlns:xlink="http://www.w3.org/1999/xlink" xml:space="preserve" xmlns:serif="http://www.serif.com/" style="fill-rule:evenodd;clip-rule:evenodd;stroke-linejoin:round;stroke-miterlimit:2;"><rect id="plain-presense" x="-0" y="0" width="40" height="40" style="fill:none;"/><g id="plain-presense1" serif:id="plain-presense"><g id="Presence"><path id="Presence1" serif:id="Presence" d="M20,21C16.689,21 14,18.311 14,15C14,11.689 16.689,9 20,9C23.311,9 26,11.689 26,15C26,18.311 23.311,21 20,21C24.971,21 29,28.163 29,37L11,37C11,28.163 15.029,21 20,21ZM26.428,19.866L29.892,21.866L30.892,20.134L27.428,18.134L26.428,19.866ZM12.572,18.134L9.108,20.134L10.108,21.866L13.572,19.866L12.572,18.134ZM28,16L32,16L32,14L28,14L28,16ZM12,14L8,14L8,16L12,16L12,14ZM13.572,10.134L10.108,8.134L9.108,9.866L12.572,11.866L13.572,10.134ZM27.428,11.866L30.892,9.866L29.892,8.134L26.428,10.134L27.428,11.866ZM16.866,7.572L14.866,4.108L13.134,5.108L15.134,8.572L16.866,7.572ZM24.866,8.572L26.866,5.108L25.134,4.108L23.134,7.572L24.866,8.572ZM21,7L21,3L19,3L19,7L21,7Z" style="fill:#f1de7f;"/></g></g></svg>