<svg xmlns="http://www.w3.org/2000/svg" xml:space="preserve" style="fill-rule:evenodd;clip-rule:evenodd;stroke-linejoin:round;stroke-miterlimit:2" viewBox="0 0 40 40"><path d="M0 0h40v40H0z" style="fill:none"/><path d="M15.75 6.641 3.157 28.452a4.91 4.91 0 0 0 4.25 7.361h25.186a4.907 4.907 0 0 0 4.25-7.361L24.25 6.641a4.907 4.907 0 0 0-8.5 0m-4.485 25.9H7.407a1.64 1.64 0 0 1-1.402-.794 94 94 0 0 1 5.26-1.5zm1.733 0h-1.114v-.427l.567-.63.547.66zm4.798 0h-4.289v-2.839a96 96 0 0 1 4.289-.893zm3.304 0h-1.985v-.296l.999-1.273.986 1.381zm11.509-4.879 1.4 2.426a1.635 1.635 0 0 1-1.416 2.453H21.96v-4.393c3.479-.46 7.153-.702 10.649-.486m-20.007 3.653.396-.44v.917zm-.718.463v-.976l.421.507zm9.216-2.083v1.886l-.699-.978c.301-.387.528-.682.699-.908m-1.26.894-.725.929v-1.945zm11.356-5.374c-1.428.233-4.976.836-9.236 1.732V18.56l-.86.195v.546l-1.982-.916v-.566l-1.322.337v9.716c-1.417.332-2.861.691-4.289 1.073v-4.609l-.463.142v.239l-1.067-.469v-.278l-.712.209v5.392c-1.917.557-3.762 1.157-5.428 1.793a1.64 1.64 0 0 1 .154-1.276L18.583 8.277a1.636 1.636 0 0 1 2.834 0zm-18.739 5.926-.526-.634 1.036.066zm6.658-2.339v-.079l1.898.343a99 99 0 0 1-.885 1.154zm-7.089-.175-.002-.488c.008-.121.122-.607.564-.448.442.16.351.57.351.57l.025.522zm.015-1.47v-.475c.008-.116.127-.572.582-.356s.358.602.358.602l.024.511zm7.141-.909-.003-.896c.014-.22.232-1.085 1.076-.687.845.396.671 1.129.671 1.129l.048.964zm-7.149-.584v-.475c.008-.115.128-.564.582-.32s.358.624.358.624l.024.513zm7.178-2.109v-.872c.015-.211.243-1.02 1.111-.516.867.503.685 1.19.685 1.19l.045.943zm-.016-2.742v-.871c.015-.211.244-1.006 1.111-.451.868.556.685 1.232.685 1.232l.046.946zm.043-9.051c-.839.129-1.564.467-2.056.923-.455.422-.716.946-.716 1.51 0 .563.261 1.087.716 1.509.212.197.466.371.753.516a7 7 0 0 0-.055.506c-.001.024.129-.133.337-.378a4.7 4.7 0 0 0 1.675.336l.108.001c.695 0 1.342-.141 1.885-.381.134.264.22.436.219.407a6 6 0 0 0-.045-.489c.29-.145.546-.32.759-.518.455-.422.716-.946.716-1.509 0-.564-.261-1.088-.716-1.51-.488-.453-1.204-.788-2.034-.92-.364-.927-.685-1.58-.776-1.58s-.408.652-.77 1.577m2.399 4.057A4.2 4.2 0 0 1 20 16.14a4.3 4.3 0 0 1-1.405-.23c.616-.695 1.486-1.585 2.015-1.608.202-.009.669.827 1.027 1.517m-2.626-3.46c-.377 1.031-.764 2.26-.976 3.297a2.7 2.7 0 0 1-.482-.351c-.336-.312-.542-.694-.542-1.11s.206-.798.542-1.11c.361-.335.869-.59 1.458-.726m2 .006c.58.137 1.079.389 1.436.72.336.312.542.693.542 1.11 0 .416-.206.798-.542 1.11q-.21.194-.481.35c-.2-1.041-.58-2.265-.955-3.29" style="fill:#f1de7f;fill-rule:nonzero"/></svg>