<?xml version="1.0" encoding="UTF-8" standalone="no"?><!DOCTYPE svg PUBLIC "-//W3C//DTD SVG 1.1//EN" "http://www.w3.org/Graphics/SVG/1.1/DTD/svg11.dtd"><svg width="100%" height="100%" viewBox="0 0 40 40" version="1.1" xmlns="http://www.w3.org/2000/svg" xmlns:xlink="http://www.w3.org/1999/xlink" xml:space="preserve" xmlns:serif="http://www.serif.com/" style="fill-rule:evenodd;clip-rule:evenodd;stroke-linejoin:round;stroke-miterlimit:2;"><rect id="plain-borg" x="0" y="0" width="40" height="40" style="fill:none;"/><g id="plain-borg1" serif:id="plain-borg"><g id="Borg"><path id="Borg1" serif:id="Borg" d="M17.409,35.148C16.718,33.899 16.372,32.397 16.372,30.644C16.372,29.501 16.539,28.438 16.871,27.454C17.203,26.471 17.641,25.687 18.186,25.103C18.731,24.518 19.336,24.226 20,24.226C20.664,24.226 21.276,24.518 21.834,25.103C22.392,25.687 22.83,26.471 23.149,27.454C23.468,28.438 23.628,29.501 23.628,30.644C23.628,32.397 23.282,33.899 22.591,35.148C22.671,34.749 22.711,34.338 22.711,33.912C22.711,32.876 22.498,31.959 22.073,31.162C21.541,30.205 20.85,29.727 20,29.727C19.15,29.727 18.459,30.205 17.927,31.162C17.502,31.959 17.289,32.876 17.289,33.912C17.289,34.338 17.329,34.749 17.409,35.148ZM16.213,35.866C14.778,34.51 13.648,32.517 12.825,29.886C11.948,27.175 11.509,24.146 11.509,20.797C11.509,16.784 12.599,12.918 14.778,9.197C14.406,10.473 14.153,11.961 14.021,13.662C13.834,16.558 14.1,18.778 14.818,20.319C15.402,21.595 16.333,22.418 17.608,22.79C17.024,23.242 16.492,23.893 16.014,24.744C15.19,26.259 14.778,28.046 14.778,30.105C14.778,32.165 15.19,33.952 16.014,35.467L16.213,35.866ZM23.787,35.866C23.867,35.733 23.933,35.6 23.986,35.467C24.81,33.952 25.222,32.158 25.222,30.085C25.222,29.182 25.142,28.331 24.983,27.534C25.94,25.009 26.418,22.086 26.418,18.764C26.418,13.29 24.053,8.094 19.322,3.178L20,2.5C25.661,8.267 28.491,14.366 28.491,20.797C28.491,24.146 28.052,27.175 27.175,29.886C26.352,32.517 25.222,34.51 23.787,35.866ZM24.305,25.342C24.252,25.209 24.146,25.009 23.986,24.744C23.641,24.106 23.269,23.588 22.87,23.189C23.242,21.488 23.428,19.655 23.428,17.688C23.428,13.144 21.648,8.785 18.087,4.613L18.246,4.453C18.379,4.267 18.472,4.134 18.525,4.055C22.963,8.652 25.182,13.489 25.182,18.565C25.182,21.036 24.89,23.295 24.305,25.342ZM21.714,22.392C21.262,22.153 20.704,22.006 20.04,21.953C20.465,20.306 20.678,18.552 20.678,16.691C20.678,13.104 19.349,9.662 16.691,6.367L16.851,6.128C17.063,5.835 17.223,5.623 17.329,5.49C20.651,9.263 22.312,13.183 22.312,17.249C22.312,19.11 22.113,20.824 21.714,22.392ZM20,37.5C19.495,37.5 19.063,37.174 18.704,36.523C18.346,35.872 18.166,35.095 18.166,34.191C18.166,33.288 18.346,32.51 18.704,31.859C19.063,31.208 19.495,30.883 20,30.883C20.505,30.883 20.937,31.208 21.296,31.859C21.654,32.51 21.834,33.288 21.834,34.191C21.834,35.095 21.654,35.872 21.296,36.523C20.937,37.174 20.505,37.5 20,37.5Z" style="fill:#f2200d;fill-rule:nonzero;"/></g></g></svg>