<?xml version="1.0" encoding="UTF-8" standalone="no"?><!DOCTYPE svg PUBLIC "-//W3C//DTD SVG 1.1//EN" "http://www.w3.org/Graphics/SVG/1.1/DTD/svg11.dtd"><svg width="100%" height="100%" viewBox="0 0 40 40" version="1.1" xmlns="http://www.w3.org/2000/svg" xmlns:xlink="http://www.w3.org/1999/xlink" xml:space="preserve" xmlns:serif="http://www.serif.com/" style="fill-rule:evenodd;clip-rule:evenodd;stroke-linejoin:round;stroke-miterlimit:2;"><rect id="plain-vulcan" x="0" y="0" width="40" height="40" style="fill:none;"/><g id="plain-vulcan1" serif:id="plain-vulcan"><g id="Vulcan"><path id="Vulcan1" serif:id="Vulcan" d="M17.003,15.876L37.403,21.532L37.403,21.58L20.483,38.5C20.451,38.5 20.435,38.484 20.435,38.452C17.47,27.752 15.585,20.919 14.779,17.954C15.262,17.793 15.73,17.503 16.181,17.084C16.568,16.633 16.842,16.23 17.003,15.876ZM27.058,28.638L20.773,37.727L27.928,28.928L36.727,21.773L27.686,28.058L16.519,17.519L27.058,28.638ZM33.536,19.646L22.659,16.649C22.691,16.424 22.707,16.101 22.707,15.682C22.707,14.232 22.353,12.895 21.644,11.67C20.935,10.445 19.976,9.478 18.767,8.769C17.559,8.06 16.229,7.706 14.779,7.706C13.329,7.706 11.991,8.06 10.767,8.769C9.542,9.478 8.575,10.445 7.866,11.67C7.157,12.895 6.802,14.224 6.802,15.658C6.802,17.092 7.157,18.422 7.866,19.646C8.575,20.871 9.542,21.838 10.767,22.547C11.991,23.256 13.329,23.61 14.779,23.61C15.101,23.61 15.343,23.594 15.504,23.562L18.501,34.439L18.066,34.439C15.262,34.439 12.652,33.73 10.235,32.312C7.914,30.959 6.077,29.122 4.724,26.801C3.306,24.384 2.597,21.773 2.597,18.97C2.597,16.166 3.306,13.555 4.724,11.138C6.077,8.818 7.914,6.981 10.235,5.627C12.652,4.209 15.262,3.5 18.066,3.5C20.87,3.5 23.481,4.209 25.898,5.627C28.218,6.981 30.055,8.818 31.409,11.138C32.827,13.555 33.536,16.166 33.536,18.97L33.536,19.646ZM13.377,17.616C12.475,17.616 11.693,17.286 11.032,16.625C10.372,15.964 10.041,15.175 10.041,14.256C10.041,13.338 10.372,12.548 11.032,11.887C11.693,11.227 12.475,10.896 13.377,10.896C14.279,10.896 15.061,11.227 15.722,11.887C16.382,12.548 16.713,13.338 16.713,14.256C16.713,15.175 16.39,15.964 15.746,16.625C15.101,17.286 14.312,17.616 13.377,17.616Z" style="fill:#dbba57;fill-rule:nonzero;"/></g></g></svg>