<?xml version="1.0" encoding="UTF-8" standalone="no"?><!DOCTYPE svg PUBLIC "-//W3C//DTD SVG 1.1//EN" "http://www.w3.org/Graphics/SVG/1.1/DTD/svg11.dtd"><svg width="100%" height="100%" viewBox="0 0 40 40" version="1.1" xmlns="http://www.w3.org/2000/svg" xmlns:xlink="http://www.w3.org/1999/xlink" xml:space="preserve" xmlns:serif="http://www.serif.com/" style="fill-rule:evenodd;clip-rule:evenodd;stroke-linejoin:round;stroke-miterlimit:2;"><rect id="plain-ferengi" x="0" y="0" width="40" height="40" style="fill:none;"/><g id="plain-ferengi1" serif:id="plain-ferengi"><g id="Ferengi"><path id="Ferengi1" serif:id="Ferengi" d="M37.5,21.573L30.077,34.206L27.079,34.256C20.787,34.354 17.1,34.338 16.018,34.206C12.479,33.813 9.595,32.65 7.367,30.716C5.597,29.242 4.302,27.357 3.483,25.063C2.86,23.457 2.533,21.884 2.5,20.344L18.132,20.344C18.165,21.589 18.509,22.884 19.164,24.228C19.951,25.833 21,27.128 22.31,28.111C23.883,29.258 25.702,29.831 27.767,29.831L36.025,21.573L37.5,21.573ZM33.764,20.344L25.997,28.258C23.998,27.767 22.441,26.767 21.327,25.26C20.475,24.178 19.934,22.933 19.705,21.524L20.885,21.524C21.213,22.507 21.721,23.31 22.409,23.933C22.966,24.391 23.769,24.817 24.817,25.211L27.767,20.344L33.764,20.344ZM37.5,18.427L36.025,18.427L27.767,10.169C25.702,10.169 23.883,10.742 22.31,11.889C21,12.872 19.951,14.167 19.164,15.772C18.509,17.116 18.165,18.411 18.132,19.656L2.5,19.656C2.533,18.116 2.86,16.543 3.483,14.937C4.302,12.643 5.597,10.758 7.367,9.284C9.595,7.35 12.479,6.187 16.018,5.794C17.1,5.662 20.787,5.646 27.079,5.744L30.077,5.794L37.5,18.427ZM33.764,19.656L27.767,19.656L24.817,14.789C23.769,15.183 22.966,15.609 22.409,16.067C21.721,16.69 21.213,17.493 20.885,18.476L19.705,18.476C19.934,17.067 20.475,15.805 21.327,14.691C22.441,13.216 23.998,12.217 25.997,11.692L33.764,19.656ZM23.933,22.261C23.31,22.261 22.786,22.04 22.36,21.598C21.934,21.155 21.721,20.623 21.721,20C21.721,19.377 21.934,18.845 22.36,18.402C22.786,17.96 23.31,17.739 23.933,17.739C24.555,17.739 25.088,17.96 25.53,18.402C25.973,18.845 26.194,19.377 26.194,20C26.194,20.623 25.973,21.155 25.53,21.598C25.088,22.04 24.555,22.261 23.933,22.261Z" style="fill:#78db57;fill-rule:nonzero;"/></g></g></svg>