<?xml version="1.0" encoding="UTF-8" standalone="no"?><!DOCTYPE svg PUBLIC "-//W3C//DTD SVG 1.1//EN" "http://www.w3.org/Graphics/SVG/1.1/DTD/svg11.dtd"><svg width="100%" height="100%" viewBox="0 0 40 40" version="1.1" xmlns="http://www.w3.org/2000/svg" xmlns:xlink="http://www.w3.org/1999/xlink" xml:space="preserve" xmlns:serif="http://www.serif.com/" style="fill-rule:evenodd;clip-rule:evenodd;stroke-linejoin:round;stroke-miterlimit:2;"><rect id="plain-security" x="0" y="0" width="40" height="40" style="fill:none;"/><g id="plain-security1" serif:id="plain-security"><g id="Security"><path id="Security1" serif:id="Security" d="M19,4.033C10.972,4.536 4.542,10.971 4.046,19L2.5,19L2.5,21L4.046,21C4.543,29.031 10.973,35.465 19,35.968L19,37.5L21,37.5L21,35.97C29.041,35.481 35.487,29.04 35.984,21L37.5,21L37.5,19L35.983,19C35.487,10.961 29.042,4.521 21,4.031L21,2.5L19,2.5L19,4.033ZM33.979,21C33.489,27.935 27.938,33.482 21,33.966L21,31.959C26.827,31.477 31.477,26.826 31.958,21L33.979,21ZM8.042,21C8.523,26.827 13.175,31.478 19,31.959L19,33.964C12.076,33.466 6.54,27.925 6.05,21L8.042,21ZM19,27.434C15.66,26.988 13.012,24.34 12.566,21L19,21L19,27.434ZM27.433,21C26.988,24.34 24.34,26.988 21,27.434L21,21L27.433,21ZM19,6.037L19,12.567C15.66,13.012 13.013,15.66 12.566,19L6.05,19C6.54,12.076 12.076,6.534 19,6.037ZM21,6.035C27.937,6.518 33.489,12.065 33.979,19L27.434,19C26.987,15.66 24.34,13.012 21,12.567L21,6.035Z" style="fill:#f5d63d;"/></g></g></svg>