<?xml version="1.0" encoding="UTF-8" standalone="no"?><!DOCTYPE svg PUBLIC "-//W3C//DTD SVG 1.1//EN" "http://www.w3.org/Graphics/SVG/1.1/DTD/svg11.dtd"><svg width="100%" height="100%" viewBox="0 0 40 40" version="1.1" xmlns="http://www.w3.org/2000/svg" xmlns:xlink="http://www.w3.org/1999/xlink" xml:space="preserve" xmlns:serif="http://www.serif.com/" style="fill-rule:evenodd;clip-rule:evenodd;stroke-linejoin:round;stroke-miterlimit:2;"><rect id="plain-sensors" x="0" y="0" width="40" height="40" style="fill:none;"/><g id="plain-sensors1" serif:id="plain-sensors"><g id="Sensors"><path id="Sensors1" serif:id="Sensors" d="M30.069,17.006C29.778,16.35 29.47,15.782 29.125,15.367C28.661,14.808 28.124,14.5 27.5,14.5C26.876,14.5 26.339,14.808 25.875,15.367C25.53,15.782 25.222,16.35 24.931,17.006C24.34,12.677 23.637,8.668 22.664,6.425C22.29,5.563 21.859,4.93 21.41,4.549C20.971,4.176 20.496,4 20,4C19.499,4 19.024,4.179 18.59,4.555C18.147,4.939 17.728,5.576 17.372,6.442C16.462,8.656 15.849,12.59 15.329,16.853C15.134,16.439 14.924,16.063 14.692,15.745C14.121,14.965 13.414,14.5 12.5,14.5C11.586,14.5 10.879,14.965 10.308,15.745C10.076,16.063 9.866,16.439 9.671,16.853C9.151,12.59 8.538,8.656 7.628,6.442C7.272,5.576 6.853,4.939 6.41,4.555C5.976,4.179 5.501,4 5,4L5,6C5.127,6 5.188,6.142 5.291,6.28C5.467,6.518 5.626,6.831 5.779,7.203C6.856,9.825 7.459,14.97 8.038,20.112L8.141,21.031C7.849,21.816 7.527,22.556 7.126,23.161C6.603,23.951 5.947,24.5 5,24.5L5,25.5C6.303,25.5 7.24,24.8 7.96,23.714C8.103,23.497 8.238,23.264 8.366,23.019C8.857,27.308 9.376,31.277 10.137,33.501C10.433,34.364 10.784,35 11.15,35.381C11.562,35.811 12.023,36 12.5,36C12.977,36 13.438,35.811 13.85,35.381C14.216,35 14.567,34.364 14.863,33.501C15.624,31.277 16.143,27.308 16.634,23.019C16.762,23.264 16.897,23.497 17.04,23.714C17.76,24.8 18.697,25.5 20,25.5C21.291,25.5 22.273,24.807 23.053,23.731C23.265,23.439 23.462,23.117 23.647,22.775C23.721,23.379 23.794,23.976 23.868,24.564C24.384,28.696 24.916,32.342 25.601,34.16C25.836,34.785 26.11,35.234 26.379,35.505C26.729,35.857 27.115,36 27.5,36C27.885,36 28.271,35.857 28.621,35.505C28.89,35.234 29.164,34.785 29.399,34.16C30.084,32.342 30.616,28.696 31.132,24.564C31.206,23.976 31.279,23.379 31.353,22.775C31.538,23.117 31.735,23.439 31.947,23.731C32.727,24.807 33.709,25.5 35,25.5L35,24.5C33.829,24.5 33.037,23.679 32.393,22.586C32.093,22.076 31.827,21.506 31.58,20.912C32.192,15.933 32.869,10.841 33.907,7.899C34.146,7.22 34.396,6.669 34.684,6.292C34.795,6.146 34.866,6 35,6L35,4C34.504,4 34.029,4.176 33.59,4.549C33.141,4.93 32.71,5.563 32.336,6.425C31.363,8.668 30.66,12.677 30.069,17.006ZM15.083,18.94C14.81,18.154 14.526,17.414 14.185,16.808C13.758,16.049 13.259,15.5 12.5,15.5C11.741,15.5 11.242,16.049 10.815,16.808C10.474,17.414 10.19,18.154 9.917,18.94C9.954,19.256 9.989,19.572 10.025,19.888C10.606,25.053 11.128,30.22 12.029,32.854C12.159,33.231 12.293,33.549 12.442,33.791C12.458,33.818 12.479,33.847 12.5,33.875C12.521,33.847 12.542,33.818 12.558,33.791C12.707,33.549 12.841,33.231 12.971,32.854C13.872,30.22 14.394,25.053 14.975,19.888C15.011,19.572 15.046,19.256 15.083,18.94ZM29.801,19.039C29.413,17.985 29.035,17.005 28.582,16.314C28.27,15.84 27.945,15.5 27.5,15.5C27.055,15.5 26.73,15.84 26.418,16.314C25.965,17.005 25.587,17.985 25.199,19.039C25.235,19.317 25.27,19.597 25.305,19.876C25.953,25.062 26.502,30.249 27.286,32.893C27.344,33.09 27.422,33.292 27.5,33.473C27.578,33.292 27.656,33.09 27.714,32.893C28.498,30.249 29.047,25.062 29.695,19.876C29.73,19.597 29.765,19.317 29.801,19.039ZM23.42,20.912C22.808,15.933 22.131,10.841 21.093,7.899C20.854,7.22 20.604,6.669 20.316,6.292C20.205,6.146 20.134,6 20,6C19.873,6 19.812,6.142 19.709,6.28C19.533,6.518 19.374,6.831 19.221,7.203C18.144,9.825 17.541,14.97 16.962,20.112L16.859,21.031C17.151,21.816 17.473,22.556 17.874,23.161C18.397,23.951 19.053,24.5 20,24.5C21.171,24.5 21.963,23.679 22.607,22.586C22.907,22.076 23.173,21.506 23.42,20.912Z" style="fill:#f1de7f;"/></g></g></svg>