<?xml version="1.0" encoding="UTF-8" standalone="no"?><!DOCTYPE svg PUBLIC "-//W3C//DTD SVG 1.1//EN" "http://www.w3.org/Graphics/SVG/1.1/DTD/svg11.dtd"><svg width="100%" height="100%" viewBox="0 0 40 40" version="1.1" xmlns="http://www.w3.org/2000/svg" xmlns:xlink="http://www.w3.org/1999/xlink" xml:space="preserve" xmlns:serif="http://www.serif.com/" style="fill-rule:evenodd;clip-rule:evenodd;stroke-linejoin:round;stroke-miterlimit:2;"><rect id="plain-engines" x="0" y="0" width="40" height="40" style="fill:none;"/><g id="plain-engines1" serif:id="plain-engines"><g id="Warp-Core" serif:id="Warp Core"><path id="Warp-Core1" serif:id="Warp Core" d="M30,35C30,33.896 29.104,33 28,33L12,33C10.896,33 10,33.896 10,35C10,36.104 10.896,37 12,37L28,37C29.104,37 30,36.104 30,35ZM30,29C30,27.896 29.104,27 28,27L12,27C10.896,27 10,27.896 10,29C10,30.104 10.896,31 12,31L28,31C29.104,31 30,30.104 30,29ZM33,20C33,17.24 30.76,15 28,15L12,15C9.24,15 7,17.24 7,20C7,22.76 9.24,25 12,25L28,25C30.76,25 33,22.76 33,20ZM23,20C23,18.344 21.656,17 20,17C18.344,17 17,18.344 17,20C17,21.656 18.344,23 20,23C21.656,23 23,21.656 23,20ZM30,11C30,9.896 29.104,9 28,9L12,9C10.896,9 10,9.896 10,11C10,12.104 10.896,13 12,13L28,13C29.104,13 30,12.104 30,11ZM30,5C30,3.896 29.104,3 28,3L12,3C10.896,3 10,3.896 10,5C10,6.104 10.896,7 12,7L28,7C29.104,7 30,6.104 30,5Z" style="fill:#f1de7f;"/></g></g></svg>