<svg xmlns="http://www.w3.org/2000/svg" xml:space="preserve" style="fill-rule:evenodd;clip-rule:evenodd;stroke-linejoin:round;stroke-miterlimit:2" viewBox="0 0 40 40"><path d="M0 0h40v40H0z" style="fill:none"/><path d="m29.727 14.222-2.162-1.305c-.039-.024-.065-.081-.065-.144 0-.064.026-.121.065-.144l3.123-1.885a.9.9 0 0 0 .276-.274 1.4 1.4 0 0 0 .183-.415l1.257-4.685c.016-.059.054-.097.096-.097s.08.038.096.097l1.257 4.685a1.4 1.4 0 0 0 .183.415.9.9 0 0 0 .276.274l3.123 1.885c.039.023.065.08.065.144s-.026.12-.065.144l-3.123 1.885a.9.9 0 0 0-.276.274 1.4 1.4 0 0 0-.183.415l-1.257 4.685c-.016.058-.054.097-.096.097s-.08-.039-.096-.097l-.977-3.644C29.645 20.448 25.888 26.94 22 32.562c-.062.089-.165.238-.313.152-.034-.02-.062-.036-.076-.064-.058-.113.092-.429.856-2.02.71-1.48 1.682-3.506 2.415-5.259 1.1-2.632 1.02-3.156.969-3.254a.04.04 0 0 0-.014-.019c-.001 0-.014-.006-.053.003-4.997 1.148-16.735 8.647-21.154 11.47-1.931 1.233-1.931 1.233-2.044 1.096l-.086-.131.105-.109c2.28-2.37 20.124-15.872 27.122-20.205" style="fill:#f1de7f;fill-rule:nonzero"/></svg>