<svg xmlns="http://www.w3.org/2000/svg" xml:space="preserve" style="fill-rule:evenodd;clip-rule:evenodd;stroke-linejoin:round;stroke-miterlimit:2" viewBox="0 0 40 40"><path d="M0 0h40v40H0z" style="fill:none"/><path d="M15.667 17.667h8.666A6.67 6.67 0 0 1 31 24.333 6.67 6.67 0 0 1 24.333 31H10v4h14.333C30.22 35 35 30.22 35 24.333s-4.78-10.666-10.667-10.666h-8.666zm8.666 4.666h-8.666A6.67 6.67 0 0 1 9 15.667 6.67 6.67 0 0 1 15.667 9H30V5H15.667C9.78 5 5 9.78 5 15.667s4.78 10.666 10.667 10.666h8.666z" style="fill:#f1de7f"/></svg>