<?xml version="1.0" encoding="UTF-8" standalone="no"?><!DOCTYPE svg PUBLIC "-//W3C//DTD SVG 1.1//EN" "http://www.w3.org/Graphics/SVG/1.1/DTD/svg11.dtd"><svg width="100%" height="100%" viewBox="0 0 40 40" version="1.1" xmlns="http://www.w3.org/2000/svg" xmlns:xlink="http://www.w3.org/1999/xlink" xml:space="preserve" xmlns:serif="http://www.serif.com/" style="fill-rule:evenodd;clip-rule:evenodd;stroke-linejoin:round;stroke-miterlimit:2;"><rect id="plain-aspiration" x="0" y="0" width="40" height="40" style="fill:none;"/><g id="plain-aspiration1" serif:id="plain-aspiration"><g id="Aspiration"><path id="Aspiration1" serif:id="Aspiration" d="M29.727,14.222L27.565,12.917C27.526,12.893 27.5,12.836 27.5,12.773C27.5,12.709 27.526,12.652 27.565,12.629L30.688,10.744C30.791,10.681 30.886,10.588 30.964,10.47C31.043,10.351 31.106,10.21 31.147,10.055L32.404,5.37C32.42,5.311 32.458,5.273 32.5,5.273C32.542,5.273 32.58,5.311 32.596,5.37L33.853,10.055C33.894,10.21 33.957,10.351 34.036,10.47C34.114,10.588 34.209,10.681 34.312,10.744L37.435,12.629C37.474,12.652 37.5,12.709 37.5,12.773C37.5,12.836 37.474,12.893 37.435,12.917L34.312,14.802C34.209,14.865 34.114,14.958 34.036,15.076C33.957,15.195 33.894,15.336 33.853,15.491L32.596,20.176C32.58,20.234 32.542,20.273 32.5,20.273C32.458,20.273 32.42,20.234 32.404,20.176L31.427,16.532C29.645,20.448 25.888,26.94 22,32.562C21.938,32.651 21.835,32.8 21.687,32.714C21.653,32.694 21.625,32.678 21.611,32.65C21.553,32.537 21.703,32.221 22.467,30.63C23.177,29.15 24.149,27.124 24.882,25.371C25.982,22.739 25.902,22.215 25.851,22.117C25.846,22.105 25.84,22.1 25.837,22.098C25.836,22.098 25.823,22.092 25.784,22.101C20.787,23.249 9.049,30.748 4.63,33.571C2.699,34.804 2.699,34.804 2.586,34.667L2.5,34.536L2.605,34.427C4.885,32.057 22.729,18.555 29.727,14.222Z" style="fill:#f1de7f;fill-rule:nonzero;"/></g></g></svg>