<?xml version="1.0" encoding="UTF-8" standalone="no"?><!DOCTYPE svg PUBLIC "-//W3C//DTD SVG 1.1//EN" "http://www.w3.org/Graphics/SVG/1.1/DTD/svg11.dtd"><svg width="100%" height="100%" viewBox="0 0 40 40" version="1.1" xmlns="http://www.w3.org/2000/svg" xmlns:xlink="http://www.w3.org/1999/xlink" xml:space="preserve" xmlns:serif="http://www.serif.com/" style="fill-rule:evenodd;clip-rule:evenodd;stroke-linejoin:round;stroke-miterlimit:2;"><rect id="plain-human" x="0" y="0" width="40" height="40" style="fill:none;"/><g id="plain-human1" serif:id="plain-human"><g id="Human"><path id="Human1" serif:id="Human" d="M16.673,33.699L16.766,33.995L16.821,34.244L16.743,34.524L16.439,34.82L16.073,35.054L15.785,35.233L16.829,35.241L18.674,35.163L19.336,35.069L19.944,34.898L20.473,34.649L20.816,34.4L19.103,34.384L18.332,34.298L17.701,34.143L17.171,33.948L16.673,33.699ZM14.212,31.129L14.274,31.845L14.259,32.359L14.243,32.92L14.134,33.621L13.495,33.761L12.405,33.886L10.785,33.932L11.206,34.213L11.642,34.4L12.094,34.555L12.577,34.649L13.137,34.727L14.041,34.773L14.632,34.758L15.427,34.586L15.707,34.477L16.019,34.337L15.832,33.636L15.551,32.982L14.866,31.892L14.477,31.409L14.212,31.129ZM37.5,19.786C37.5,12.178 31.333,6.011 23.725,6.011C16.117,6.011 9.95,12.178 9.95,19.786C9.95,27.394 16.117,33.561 23.725,33.561C31.333,33.561 37.5,27.394 37.5,19.786ZM12.4,29.985L12.091,31.108L11.717,31.879L10.66,31.901L9.668,31.835L8.699,31.725L7.884,31.659L8.391,32.121L9.162,32.573L9.845,32.837L10.428,33.013L11.188,33.112L12.091,33.156L13.259,33.112L13.193,31.978L13.061,31.284L12.84,30.689L12.4,29.985ZM31.723,9.338C29.507,7.639 26.734,6.629 23.725,6.629C20.571,6.629 17.677,7.739 15.411,9.588L15.761,9.726L16.042,9.64L16.339,9.406L16.605,9.187L16.949,8.922L17.308,8.75L17.799,8.738L18.808,8.766L18.995,8.547L19.167,8.234L20.417,8.094L20.682,8.219L20.885,8.437L21.526,8.359L22.166,8.266L22.699,8.278L23.088,8.156L23.603,8.25L23.682,8.375L23.572,8.562L23.369,8.844L23.072,9.078L22.854,9.344L22.651,9.656L22.432,9.937L22.229,10.109L22.01,10.218L21.869,10.343L21.651,10.546L21.51,10.796L21.323,11.015L21.088,11.187L20.792,11.281L20.651,11.062L20.542,10.656L20.51,10.203L20.588,9.765L20.651,9.437L20.479,9.14L20.135,8.797L19.854,8.687L19.682,8.812L19.479,9.031L19.386,9.328L19.635,9.453L19.76,9.531L19.776,9.703L20.073,9.953L20.135,10.171L20.026,10.375L19.823,10.546L19.627,10.721L19.448,10.843L19.12,10.953L19.104,11.171L19.432,11.359L19.698,11.656L19.76,11.984L19.823,12.421L19.769,12.765L19.87,13.124L19.87,13.405L19.698,13.546L19.448,13.64L19.026,13.658L18.701,13.774L18.386,13.999L18.12,14.155L17.94,14.258L17.808,14.467L17.732,14.858L17.616,15.164L17.447,15.423L17.217,15.588L17.045,15.827L17.011,16.592L16.98,16.826L16.824,17.029L16.667,17.076L16.542,16.983L16.48,16.858L16.574,16.655L16.62,16.436L16.62,16.233L16.433,16.077L16.152,16.061L15.933,16.186L15.751,16.276L15.636,16.561L15.589,16.78L15.449,16.967L15.418,17.108L15.371,17.404L15.449,17.654L15.527,17.857L15.652,17.998L15.777,17.732L15.964,17.639L16.132,17.569L16.324,17.545L16.402,17.732L16.292,17.904L16.058,18.061L16.105,18.185L16.292,18.357L16.417,18.576L16.464,18.764L16.558,19.045L16.699,19.248L16.917,19.435L17.261,19.263L17.636,19.201L17.995,19.31L18.386,19.56L18.732,19.979L19.104,20.341L19.354,20.529L19.526,20.904L19.712,21.115L20.245,21.45L20.635,21.7L20.79,21.901L20.963,22.153L20.682,22.466L20.604,22.747L20.511,23.22L20.557,23.716L20.51,24.231L20.451,24.606L20.214,24.825L19.855,24.962L19.776,25.309L19.714,26.231L19.589,26.496L19.417,26.824L19.261,27.059L19.089,27.434L19.011,27.699L18.995,27.98C18.995,27.98 18.948,28.215 18.933,28.277C18.917,28.34 18.791,28.579 18.791,28.579L18.808,28.824L18.729,29.152L18.933,29.558L19.057,29.714L19.027,29.916L18.823,30.095L18.651,30.011L18.501,29.784L18.261,29.621L18.105,29.183L18.037,28.75L17.933,28.387L17.823,27.621L17.745,26.934L17.636,26.621L17.589,25.871L17.605,25.231L17.605,24.606L17.527,24.044L17.23,23.528L16.995,23.06L16.73,22.638L16.527,22.2L16.402,21.841L16.511,21.138L16.652,20.685L16.745,20.201L16.761,19.841L16.417,19.591L16.167,19.373L15.996,19.123L15.871,18.826L15.589,18.576L15.277,18.326L14.98,18.185L14.683,17.936L14.23,17.389L14.012,16.92L13.809,16.451L13.68,15.939L13.516,15.545L13.458,15.014L13.511,14.443L13.616,13.925L13.765,13.521L13.98,13.03L14.042,12.666L14.027,11.906L13.965,11.437L13.84,11.234L13.802,11.146C11.788,13.457 10.568,16.479 10.568,19.786C10.568,24.311 12.853,28.303 16.331,30.67L16.355,30.646L16.576,30.646L16.775,30.735L16.973,30.848L17.216,30.867L17.526,30.886L17.835,30.668L18.122,30.646L18.498,30.757L18.741,30.845L18.982,31.049L19.205,31.119L19.526,30.961L19.647,30.713L20.066,30.448L20.442,30.249L20.707,30.205L20.818,30.425L20.707,30.602L20.564,30.713L20.641,31.11L20.971,31.312L21.281,31.464L21.81,31.687L22.187,31.707L22.607,31.663L22.961,31.486L23.27,31.287L23.601,31.061L23.933,30.849L24.33,30.779L24.772,30.823L25.126,30.823L25.324,30.757L25.545,30.735L25.788,30.735L26.012,30.908L26.23,30.934L26.451,30.911L26.738,30.737L26.915,30.646L27.136,30.58L27.445,30.58L27.843,30.558L28.174,30.492L28.351,30.448L28.572,30.646L28.815,30.867L28.997,31.045L29.326,31.136L29.655,31.132L30.185,31.199L30.275,31.199C31.511,30.487 32.621,29.581 33.563,28.522L33.539,28.262L33.539,27.371L33.625,26.996C33.625,26.996 33.578,26.785 33.578,26.723C33.578,26.66 33.43,26.621 33.43,26.621L33.258,26.621L33.086,26.731L32.883,26.746L32.68,26.574L32.68,26.371L32.773,26.215L32.898,26.09L32.961,25.856L32.945,25.606L33.023,25.247L33.117,25.137L33.336,24.903L33.648,24.669L34.008,24.387L34.164,24.247L34.164,24.075L34.289,23.958L34.422,23.872L34.601,23.723L34.75,23.606L34.882,23.481L35.117,23.45L35.086,23.606L35.023,23.763L34.945,23.966L34.929,24.091L35.101,24.176L35.226,24.044L35.304,23.88L35.382,23.731L35.429,23.497L35.585,23.45L35.757,23.481L35.773,23.7L35.742,23.966L35.648,24.169L35.539,24.372L35.539,24.481L35.429,24.778L35.429,25.215L35.523,25.481L35.588,25.481C36.417,23.758 36.881,21.826 36.881,19.786C36.881,16.654 35.787,13.778 33.96,11.519L33.742,11.591L33.587,11.702L33.587,11.868L33.642,11.934L33.731,12.078L33.83,12.243L33.985,12.431L34.106,12.608L34.25,12.762L34.233,13.026L34.349,13.315L34.25,13.58L34.095,13.9L34.018,14.121L33.974,14.209L33.996,14.364L34.095,14.607L34.15,14.817L34.161,15.019L34.173,15.159L34.051,15.259L33.896,15.358L33.753,15.193L33.587,14.916L33.576,14.806L33.581,14.558L33.466,14.43L33.3,14.43L33.193,14.594L33.204,14.762L33.311,14.972L33.366,15.491L33.421,15.601L33.466,15.767L33.521,15.955L33.675,16.132L33.709,16.584L33.653,16.805L33.675,16.905L33.576,17.093L33.399,17.181L33.366,17.336L33.189,17.512L32.781,17.523L32.493,17.545L32.505,17.7L32.571,17.877L32.67,18.054L32.803,18.175L32.792,18.418L32.88,18.562L32.946,18.882L32.879,19.28L32.858,19.545L32.604,19.534L32.482,19.434L32.228,19.302L32.096,19.191L31.886,19.158C31.886,19.158 31.775,19.103 31.775,19.059C31.775,19.015 31.775,18.959 31.798,18.904C31.82,18.849 31.864,18.783 31.864,18.783L31.864,18.65L31.676,18.54L31.51,18.407L31.433,18.241L31.256,18.12L31.157,17.965L31.035,17.755C31.035,17.755 31.124,17.435 31.135,17.391C31.146,17.347 31.013,17.192 31.013,17.192L30.859,17.269L30.715,17.501L30.571,17.645L30.571,17.91L30.594,18.054L30.627,18.263L30.627,18.429L30.459,18.729L30.472,18.926L30.384,19.081L30.339,19.313L30.207,19.49L29.953,19.666C29.953,19.666 29.92,19.556 29.864,19.534C29.809,19.512 29.688,19.39 29.688,19.39L29.666,19.18L29.666,18.959L29.632,18.783L29.555,18.639L29.478,18.429L29.323,18.274L29.356,18.153L29.456,18.043L29.445,17.965L29.367,17.722L29.235,17.556L29.135,17.457C29.135,17.457 29.047,17.203 29.025,17.148C29.003,17.093 28.892,17.026 28.892,17.026L28.671,16.794L28.473,16.783L28.296,16.75L28.296,17.137L28.252,17.413L28.252,17.7L28.208,17.811L28.097,18.054L27.909,18.164L27.655,18.374L27.556,18.518L27.39,18.727C27.39,18.727 27.037,18.86 26.992,18.86C26.948,18.86 26.948,19.103 26.948,19.103L27.136,19.18L27.39,19.247L27.589,19.125L27.755,19.059L27.755,19.258L27.556,20.053C27.556,20.053 27.478,20.417 27.456,20.473C27.434,20.528 27.401,20.638 27.401,20.638L27.158,20.826L27.026,20.959L26.904,21.124L26.816,21.39L26.783,23.29L26.749,23.621L26.672,23.842L26.407,24.206L26.252,24.471L26.112,24.703L26.164,25.101L26.092,25.399L26.046,25.742L25.971,25.83L25.91,25.974L25.755,26.084L25.733,26.338L25.678,26.57L25.501,26.78L25.247,26.802L24.905,26.869C24.905,26.869 24.662,26.813 24.617,26.802C24.573,26.791 24.419,26.747 24.419,26.747L24.308,26.537L24.341,26.261L24.374,26.106L24.374,25.841L24.308,25.676L24.308,25.41L24.22,25.256L24.154,25.002L24.065,24.814L23.988,24.339L23.955,23.908L23.966,23.444L24.032,23.223L24.01,22.759L23.999,22.141L23.933,21.887C23.933,21.887 23.8,21.633 23.778,21.588C23.756,21.544 23.745,21.345 23.745,21.345L23.701,21.102L23.59,20.771L23.458,20.329L23.358,20.075L23.137,20.086L22.938,20.186L22.706,20.274L22.441,20.274L22.198,20.152L21.933,19.92L21.768,19.711L21.646,19.501L21.569,18.926L21.48,17.545L21.502,16.894L21.602,16.64L21.745,16.375L21.867,16.098L22.011,15.789L22.198,15.413L22.452,15.27L22.541,15.038L22.419,14.905L22.242,14.806L22.154,14.64C22.154,14.64 22.165,14.419 22.165,14.375C22.165,14.331 22.088,14.198 22.088,14.198L22.055,14.022L22.099,13.779L22.276,13.757L22.441,13.801L22.729,13.812C22.729,13.812 22.894,13.757 22.894,13.712C22.894,13.668 22.972,13.514 22.972,13.514L22.949,13.392L22.839,13.248C22.839,13.248 22.662,13.215 22.629,13.16C22.596,13.105 22.717,13.072 22.717,13.072L22.839,12.939L23.016,12.784L23.093,12.718L23.226,12.564L23.314,12.442L23.525,12.375L23.612,12.144L23.933,12.166L24.253,12.155L24.507,11.945L24.717,11.702L24.684,11.205L24.441,11.359L24.408,11.558L24.253,11.812L24.043,11.901L23.866,11.68L23.822,11.448L23.623,11.359L23.513,11.249L23.811,10.719L24.021,10.443L24.297,10.222L24.551,10.045L24.859,9.87L25.28,9.78L25.578,9.846L25.81,10.034L26.031,10.211L26.274,10.354L26.606,10.211L26.595,10.001L26.528,9.791L26.363,9.515L26.418,9.272L26.606,9.062L26.948,8.863L27.158,8.863L27.158,9.095C27.158,9.095 27.07,9.316 27.026,9.316C26.981,9.316 26.992,9.493 26.992,9.493L27.003,9.691L27.191,9.78L27.501,9.791L27.655,9.68L27.92,9.515L28.064,9.371L28.351,9.25L28.616,9.117L28.793,8.985L28.782,8.819L28.495,8.653L28.473,8.443L28.683,8.399L29.025,8.421L29.213,8.476L29.699,8.675L30.196,9.062L30.461,9.25L30.737,9.393L31.002,9.448L31.455,9.437L31.723,9.338ZM10.46,27.471L9.68,29.348C9.68,29.348 8.791,29.449 8.076,29.478C7.133,29.517 5.793,29.046 5.793,29.046C5.793,29.046 7.227,30.548 8.463,30.834C9.705,31.281 10.243,31.063 10.243,31.063C10.243,31.063 10.928,31.109 10.906,30.905C11.14,30 10.945,28.925 10.945,28.925L10.46,27.471ZM9.133,28.541C9.133,28.541 9.413,27.798 9.45,26.94C9.466,25.933 9.016,24.573 9.016,24.573C9.016,24.573 8.754,26.171 8.288,26.6C7.749,26.61 6.865,26.509 6.865,26.509C6.865,26.509 6.316,26.417 5.633,26.022C4.7,25.555 3.141,24.07 3.141,24.07C3.141,24.07 4.403,27.036 5.771,27.653C6.483,28.269 9.133,28.541 9.133,28.541ZM26.79,23.809L26.947,23.692L27.072,23.513L27.118,23.341L27.259,23.122L27.478,23.122L27.634,23.216L27.728,23.356L27.673,23.887L27.634,24.098L27.517,24.262L27.415,24.512L27.321,24.747L27.243,24.965L27.196,25.083L27.142,25.223L26.954,25.473L26.806,25.7L26.822,25.09L26.79,24.809L26.79,23.809ZM7.287,25.305C7.287,25.305 7.513,24.69 7.854,23.766C8.107,22.815 8.122,21.768 8.122,21.768L6.727,23.453C6.727,23.453 5.088,22.89 4.441,22.166C3.438,21.149 2.5,19.505 2.5,19.505C2.5,19.505 2.956,22.878 4.283,24.092C5.644,25.116 7.287,25.305 7.287,25.305ZM34.179,21.482L34.336,21.622L34.508,21.685L34.734,21.841L34.929,21.966L35.054,22.153L35.164,22.372L35.226,22.56L35.398,22.716L35.5,22.63L35.539,22.403L35.82,22.489L35.945,22.622L36.054,22.708L36.038,22.528L35.945,22.232L35.718,21.872L35.523,21.763L35.242,21.56L34.976,21.482L34.726,21.419L34.375,21.388L34.179,21.482ZM32.68,21.95L32.602,20.498L32.492,20.201L32.445,20.06L32.336,19.92L32.274,19.779L32.055,19.716L31.883,19.732L31.836,19.904L31.758,20.06L31.758,20.576L31.883,20.685L32.039,20.81C32.039,20.81 32.055,20.888 32.055,20.966L32.055,21.404L32.149,21.7L32.289,21.857L32.414,22.107L32.539,22.185L32.789,22.247L33.008,22.419L33.164,22.528L33.398,22.56L33.68,22.466L33.68,22.247L33.336,22.138L33.07,22.028L32.93,22.013L32.68,21.95ZM6.275,22.005C6.275,22.005 6.988,21.033 7.261,20.352C7.618,19.385 7.632,18.706 7.632,18.706C7.632,18.706 7.397,19.285 6.922,19.58C6.67,19.958 6.103,20.086 6.103,20.086C6.103,20.086 6.054,20.232 5.231,19.457C4.075,18.365 2.885,15.994 2.885,15.994C2.885,15.994 2.718,18.908 3.842,20.275C5.117,21.579 6.275,22.005 6.275,22.005ZM33.617,19.654L33.601,19.888L33.539,20.154L33.43,20.326L33.305,20.513L33.18,20.732L33.039,20.919L32.883,21.107L32.758,21.279L32.852,21.372L32.977,21.482L33.039,21.654L33.102,21.81L33.398,21.794L33.586,21.716L33.648,21.591L33.648,21.263L33.805,21.154L33.976,21.06L34.101,20.904L33.914,20.826L33.836,20.685L33.836,20.013L33.742,19.857L33.617,19.654ZM33.805,17.889L33.805,18.185L33.883,18.295L33.883,18.529L33.805,18.654L33.805,18.998L33.711,19.154L33.82,19.295L33.914,19.482L34.054,19.576L34.164,19.638L34.211,19.732L34.242,19.982L34.304,20.123L34.445,20.123L34.492,19.998L34.539,19.795L34.539,19.638L34.445,19.482L34.429,19.31L34.367,19.217L34.367,19.029L34.195,18.857L33.976,18.545L33.93,18.061L33.805,17.889ZM6.188,18.565C6.188,18.565 7.345,17.619 7.659,16.843C7.992,16.023 8.101,15.635 8.101,15.635L8.08,15.671C8.08,15.671 6.984,16.448 6.232,16.311C5.384,15.189 4.454,12.812 4.454,12.812C4.454,12.812 3.734,14.815 4.503,16.32C5.261,17.802 6.188,18.543 6.188,18.543L6.188,18.565ZM23.229,14.874L23.166,14.717L23.26,14.467L23.354,14.28L23.4,14.046L23.65,14.014L23.853,14.085L23.947,14.186L24.056,14.327L24.275,14.561L24.275,14.796L24.431,14.858C24.609,14.51 24.546,14.691 24.603,14.608L24.697,14.764L24.713,14.999L24.853,15.092L24.978,15.045L25.002,14.866L25.15,14.803L25.337,14.936L25.556,15.124L25.837,15.108L25.962,15.264L25.962,15.467L25.712,15.827L25.416,15.827L24.916,15.85L24.494,15.756L24.369,15.499L24.275,15.295L24.088,15.061L23.822,14.889L23.603,14.874L23.229,14.874ZM34.742,13.577L34.632,13.718L34.648,13.999L34.664,14.249L34.711,14.421L34.742,14.608L34.773,14.874L34.648,15.108L34.445,15.28L34.304,15.327L34.211,15.389L34.179,15.483L34.336,15.67L34.445,15.78L34.586,15.67L34.601,15.577L34.836,15.53L35.054,15.592L35.179,15.374L35.289,15.124L35.32,14.921L35.226,14.717L35.117,14.514L35.086,14.296L35.007,14.061L34.992,13.874L34.898,13.655L34.742,13.577ZM6.793,15.2C6.793,15.2 7.235,14.869 7.899,14.301C8.497,13.79 8.949,12.858 8.949,12.858C8.949,12.858 8.585,13.103 8.15,13.273C7.753,13.427 7.282,13.44 7.282,13.44C7.282,13.44 7.558,14.091 7.268,13.414C6.827,12.384 6.789,9.963 6.789,9.963C6.789,9.963 6.079,11.077 5.978,12.625C5.916,14.433 6.793,15.2 6.793,15.2ZM22.751,11.525L22.883,11.724L22.883,11.89L23.016,12.022L23.049,12.177C23.049,12.177 23.126,12.254 23.126,12.298L23.126,12.431L23.027,12.508L22.916,12.564L22.773,12.608L22.53,12.575L22.32,12.541C22.32,12.541 22.198,12.541 22.198,12.486C22.198,12.431 22.165,12.332 22.165,12.332L22.265,12.265L22.408,12.122L22.596,12.055L22.64,11.857L22.607,11.735L22.673,11.603L22.751,11.525ZM9.661,11.495C10.4,11.169 10.715,10.786 10.782,10.697C10.75,10.704 10.734,10.708 10.706,10.714C10.409,10.783 9.379,10.682 8.934,10.633C8.84,9.62 9.552,7.176 9.552,7.176C9.552,7.176 8.103,8.825 7.874,10.256C7.665,11.558 7.933,12.12 7.933,12.12C7.933,12.12 8.973,12.042 9.661,11.495ZM19.026,9.984L18.901,10.031L18.745,10.171L18.589,10.421L18.542,10.546L18.292,10.64L17.98,10.89L17.558,11.218L17.417,11.39L17.417,11.671L17.745,11.921L18.058,11.999L18.214,11.718L18.37,11.406L18.495,10.999L18.667,10.687L18.933,10.593L19.073,10.343L19.12,10L19.026,9.984ZM12.184,9.028C13.227,8.67 13.606,8.202 13.606,8.202C13.606,8.202 12.885,8.199 12.457,8.132C12.171,8.087 12.004,8.04 11.995,8.038C11.996,8.023 12.002,7.94 12.024,7.552C12.061,6.89 12.772,5.826 12.772,5.826C12.772,5.826 11.686,6.152 10.947,7.037C10.69,7.345 10.371,7.995 10.181,8.304C9.759,9.346 9.808,9.608 9.808,9.608C9.808,9.608 11.284,9.526 12.184,9.028ZM11.995,8.038L11.994,8.037C11.994,8.037 11.994,8.044 11.995,8.038ZM16.415,6.359C17.67,5.33 18,4.759 18,4.759C18,4.759 16.66,4.917 16.049,5.253C15.288,5.672 14.957,5.714 14.957,5.714L15.116,4.943C15.116,4.943 13.723,5.65 13.242,6.441C12.751,7.248 12.819,7.455 12.819,7.455C12.819,7.455 15.375,7.212 16.415,6.359Z" style="fill:#d1ad94;"/></g></g></svg>