<?xml version="1.0" encoding="UTF-8" standalone="no"?><!DOCTYPE svg PUBLIC "-//W3C//DTD SVG 1.1//EN" "http://www.w3.org/Graphics/SVG/1.1/DTD/svg11.dtd"><svg width="100%" height="100%" viewBox="0 0 40 40" version="1.1" xmlns="http://www.w3.org/2000/svg" xmlns:xlink="http://www.w3.org/1999/xlink" xml:space="preserve" xmlns:serif="http://www.serif.com/" style="fill-rule:evenodd;clip-rule:evenodd;stroke-linejoin:round;stroke-miterlimit:2;"><rect id="plain-ship" x="0" y="0" width="40" height="40" style="fill:none;"/><g id="plain-ship1" serif:id="plain-ship"><g id="Ship"><path id="Ship1" serif:id="Ship" d="M21.725,17.933L21.77,17.979C21.861,18.039 21.967,18.251 22.088,18.614L22.406,19.613L22.361,18.569C22.33,18.085 22.277,17.457 22.202,16.685C22.126,15.913 22.058,15.323 21.997,14.914C21.937,14.506 21.997,14.15 22.179,13.848C22.24,13.696 22.345,13.545 22.497,13.394C23.072,12.97 23.359,12.433 23.359,11.782C23.359,11.131 23.034,10.579 22.383,10.125C21.733,9.671 20.946,9.444 20.023,9.444C19.1,9.444 18.305,9.671 17.639,10.125C16.974,10.579 16.641,11.131 16.641,11.782C16.641,12.433 16.928,12.97 17.503,13.394C17.624,13.484 17.73,13.636 17.821,13.848C18.003,14.15 18.063,14.506 18.003,14.914C17.942,15.323 17.874,15.913 17.798,16.685C17.723,17.457 17.67,18.085 17.639,18.569L17.594,19.613L17.912,18.614C18.033,18.251 18.139,18.039 18.23,17.979L18.275,17.933L21.725,17.933ZM21.725,17.752L18.275,17.752C18.335,17.51 18.396,17.358 18.457,17.298C18.517,17.237 18.653,17.207 18.865,17.207L21.135,17.207C21.347,17.207 21.49,17.237 21.566,17.298C21.642,17.358 21.695,17.51 21.725,17.752ZM20.545,20.929C21.876,20.839 22.716,20.74 23.064,20.634C23.412,20.528 23.692,20.543 23.904,20.68C24.116,20.816 24.358,21.096 24.63,21.519C23.965,21.792 23.284,22.246 22.588,22.881C21.801,23.608 21.241,24.349 20.908,25.106L20.908,24.47L20.545,24.47L20.545,20.929ZM19.455,20.929L19.455,24.47L19.092,24.47L19.092,25.106C18.759,24.349 18.214,23.608 17.458,22.881C16.732,22.246 16.035,21.792 15.37,21.519C15.672,21.065 15.914,20.793 16.096,20.702C16.308,20.551 16.588,20.528 16.936,20.634C17.284,20.74 18.124,20.839 19.455,20.929ZM20.545,20.793L20.545,20.657L19.455,20.657L19.455,20.793C18.093,20.702 17.276,20.612 17.004,20.521C16.58,20.369 16.247,20.385 16.005,20.566C15.884,20.627 15.703,20.839 15.46,21.202L15.279,21.429C14.734,21.247 14.341,21.096 14.099,20.975L14.099,20.566L14.053,20.385L14.099,20.203L14.053,19.976L12.328,19.567L12.192,20.021C10.618,19.023 9.385,17.812 8.492,16.39C7.599,14.967 7.153,13.439 7.153,11.805C7.153,9.959 7.728,8.241 8.878,6.652C10.028,5.064 11.587,3.808 13.554,2.885C15.521,1.962 17.67,1.5 20,1.5C22.33,1.5 24.479,1.962 26.446,2.885C28.413,3.808 29.972,5.064 31.122,6.652C32.272,8.241 32.847,9.959 32.847,11.805C32.847,13.439 32.401,14.967 31.508,16.39C30.615,17.812 29.382,19.023 27.808,20.021L27.672,19.567L25.947,19.976L25.901,20.203L25.947,20.385L25.901,20.566L25.901,20.975C25.72,21.065 25.417,21.187 24.994,21.338L24.767,21.429C24.494,21.005 24.237,20.71 23.995,20.543C23.753,20.377 23.42,20.369 22.996,20.521C22.724,20.612 21.907,20.702 20.545,20.793ZM19.455,24.606L19.455,24.788L19.637,25.06L19.228,25.06L19.228,24.606L19.455,24.606ZM20.545,24.606L20.772,24.606L20.772,25.06L20.363,25.06L20.545,24.788L20.545,24.606ZM20.863,25.242C20.741,25.575 20.666,25.877 20.636,26.15C20.514,27.966 20.393,30.19 20.272,32.823L20.136,33.458L19.864,33.458L19.773,32.823L19.364,26.15C19.334,25.877 19.259,25.575 19.137,25.242L20.863,25.242ZM16.187,22.155C16.822,22.548 17.352,22.972 17.776,23.426C18.653,24.395 19.137,25.302 19.228,26.15L19.228,26.422C19.349,28.48 19.47,30.614 19.591,32.823L19.682,33.232C19.016,33.05 18.373,32.354 17.753,31.143C17.133,29.933 16.656,28.48 16.323,26.785C15.96,24.788 15.914,23.244 16.187,22.155ZM20.318,33.232L20.409,32.823C20.59,29.131 20.726,26.906 20.817,26.15C20.847,25.333 21.316,24.425 22.224,23.426C22.739,22.912 23.268,22.473 23.813,22.11C24.086,23.229 24.04,24.788 23.677,26.785C23.344,28.48 22.867,29.933 22.247,31.143C21.627,32.354 20.984,33.05 20.318,33.232ZM19.682,33.413L19.728,33.64L20.272,33.64L20.318,33.413C20.802,33.292 21.294,32.883 21.793,32.187C22.292,31.491 22.739,30.599 23.132,29.509C23.314,30.205 24.116,30.599 25.538,30.689C25.478,32.566 25.447,33.912 25.447,34.73C24.267,34.79 23.208,34.684 22.27,34.412C21.937,34.321 21.649,34.26 21.407,34.23C21.286,34.23 21.082,34.245 20.794,34.276C20.507,34.306 20.242,34.321 20,34.321C19.758,34.321 19.493,34.306 19.206,34.276C18.918,34.245 18.714,34.23 18.593,34.23C18.351,34.26 18.063,34.321 17.73,34.412C16.792,34.684 15.748,34.79 14.598,34.73C14.537,33.398 14.507,32.051 14.507,30.689C15.869,30.599 16.671,30.205 16.913,29.509C17.276,30.568 17.708,31.454 18.207,32.165C18.706,32.876 19.198,33.292 19.682,33.413ZM12.01,24.697L12.101,24.697C12.222,24.637 12.298,24.561 12.328,24.47L12.374,24.289C12.404,24.046 12.479,23.842 12.601,23.676C12.722,23.509 12.865,23.426 13.032,23.426C13.198,23.426 13.342,23.509 13.463,23.676C13.584,23.842 13.66,24.046 13.69,24.289L13.735,24.47C13.766,24.561 13.841,24.637 13.962,24.697L14.053,24.697L14.099,24.788L14.099,24.924L11.965,24.924L11.965,24.788L12.01,24.697ZM12.056,24.561L12.101,23.744C12.131,23.502 12.237,23.29 12.419,23.108C12.601,22.927 12.805,22.836 13.032,22.836C13.259,22.836 13.463,22.927 13.645,23.108C13.826,23.29 13.932,23.502 13.962,23.744L14.008,24.561C13.978,24.561 13.932,24.516 13.872,24.425L13.826,24.243C13.796,24.001 13.705,23.782 13.554,23.585C13.403,23.388 13.221,23.29 13.009,23.29C12.797,23.29 12.623,23.381 12.487,23.562C12.351,23.744 12.268,23.971 12.237,24.243L12.192,24.425C12.162,24.516 12.116,24.561 12.056,24.561ZM14.189,27.512L14.189,27.739L14.235,28.011C14.265,28.465 14.31,29.706 14.371,31.733C14.401,33.519 14.416,34.76 14.416,35.456C14.416,35.789 14.295,36.046 14.053,36.228C13.811,36.409 13.471,36.5 13.032,36.5C12.593,36.5 12.245,36.409 11.988,36.228C11.73,36.046 11.602,35.789 11.602,35.456C11.602,34.851 11.632,33.61 11.693,31.733C11.753,29.706 11.799,28.465 11.829,28.011L11.874,27.512C11.935,27.27 11.995,27.103 12.056,27.012L12.147,26.922C12.177,26.861 12.177,26.831 12.147,26.831C12.298,26.589 12.374,26.301 12.374,25.968C12.374,25.908 12.366,25.877 12.351,25.877L11.965,25.877L11.965,25.787L11.92,25.787L11.92,25.696L14.144,25.696L14.144,25.787L14.099,25.787L14.099,25.877L13.69,25.877L13.69,25.968C13.69,26.301 13.766,26.604 13.917,26.876L13.917,26.922L13.962,26.922C13.962,26.982 13.978,27.012 14.008,27.012L14.189,27.512ZM14.189,27.103C14.189,27.073 14.159,27.027 14.099,26.967C14.099,26.937 14.083,26.906 14.053,26.876L14.053,26.785L14.008,26.785C13.887,26.573 13.826,26.316 13.826,26.014L14.144,26.014L14.189,27.103ZM11.874,27.103L11.92,26.014L12.237,26.014C12.237,26.286 12.177,26.543 12.056,26.785C12.026,26.785 12.01,26.793 12.01,26.808L12.01,26.831L11.965,26.876C11.965,26.906 11.95,26.922 11.92,26.922L11.874,27.103ZM25.947,24.697L26.038,24.697C26.159,24.637 26.234,24.561 26.265,24.47L26.31,24.289C26.34,24.046 26.416,23.842 26.537,23.676C26.658,23.509 26.802,23.426 26.968,23.426C27.135,23.426 27.278,23.509 27.399,23.676C27.521,23.842 27.596,24.046 27.626,24.289L27.672,24.47C27.702,24.561 27.778,24.637 27.899,24.697L27.99,24.697L28.035,24.788L28.035,24.924L25.901,24.924L25.901,24.788L25.947,24.697ZM25.992,24.561L26.038,23.744C26.068,23.502 26.174,23.29 26.355,23.108C26.537,22.927 26.749,22.836 26.991,22.836C27.233,22.836 27.437,22.927 27.604,23.108C27.77,23.29 27.869,23.502 27.899,23.744L27.944,24.561C27.914,24.561 27.869,24.516 27.808,24.425L27.763,24.243C27.732,23.971 27.649,23.744 27.513,23.562C27.377,23.381 27.203,23.29 26.991,23.29C26.779,23.29 26.597,23.388 26.446,23.585C26.295,23.782 26.204,24.001 26.174,24.243L26.128,24.425C26.098,24.516 26.053,24.561 25.992,24.561ZM28.126,27.512C28.156,27.602 28.171,27.769 28.171,28.011C28.201,28.465 28.247,29.706 28.307,31.733C28.368,33.61 28.398,34.851 28.398,35.456C28.398,35.789 28.27,36.046 28.012,36.228C27.755,36.409 27.407,36.5 26.968,36.5C26.529,36.5 26.189,36.409 25.947,36.228C25.705,36.046 25.584,35.789 25.584,35.456C25.584,34.76 25.599,33.519 25.629,31.733C25.69,29.706 25.735,28.465 25.765,28.011L25.811,27.512L25.992,27.012L26.128,26.831C26.249,26.589 26.31,26.301 26.31,25.968L26.31,25.877L25.901,25.877L25.901,25.787L25.856,25.787L25.856,25.696L28.08,25.696L28.08,25.787L28.035,25.787L28.035,25.832L28.08,25.877L27.626,25.877L27.626,25.968C27.626,26.301 27.702,26.604 27.853,26.876L27.853,26.922L27.899,26.922L27.944,27.012C28.035,27.164 28.096,27.33 28.126,27.512ZM28.126,27.103L28.126,27.012L28.08,26.967C28.05,26.937 28.035,26.906 28.035,26.876C28.005,26.876 27.99,26.869 27.99,26.853L27.99,26.785C27.838,26.543 27.763,26.286 27.763,26.014L28.08,26.014L28.126,27.103ZM25.811,27.103L25.901,26.014L26.174,26.014C26.174,26.286 26.113,26.543 25.992,26.785C25.962,26.785 25.947,26.793 25.947,26.808L25.947,26.831L25.811,27.103ZM27.944,25.06L27.853,25.151L27.944,25.151L27.853,25.242L27.944,25.242L27.853,25.333L27.944,25.333L27.853,25.423L27.944,25.423L27.853,25.514L26.083,25.514L25.992,25.423L26.083,25.423L25.992,25.333L26.083,25.333L25.992,25.242L26.083,25.242L25.992,25.151L26.083,25.151L25.992,25.06L27.944,25.06ZM14.008,25.06L13.917,25.151L14.008,25.151L13.917,25.242L14.008,25.242L13.917,25.333L14.008,25.333L13.917,25.423L14.008,25.423L13.917,25.514L12.147,25.514L12.056,25.423L12.147,25.423L12.056,25.333L12.147,25.333L12.056,25.242L12.147,25.242L12.056,25.151L12.147,25.151L12.056,25.06L14.008,25.06ZM13.962,20.203L13.917,20.385L12.464,20.385L12.328,19.976L12.419,19.749L13.917,20.112L13.962,20.203ZM27.672,19.976L27.536,20.385L26.083,20.385L26.038,20.203L26.083,20.112L27.581,19.749L27.672,19.976ZM20.227,25.06L19.818,25.06L19.637,24.743L19.637,20.839L20.363,20.839L20.363,24.743L20.227,25.06ZM23.132,18.478C25.039,17.963 26.582,17.101 27.763,15.89C28.943,14.68 29.533,13.318 29.533,11.805C29.533,10.534 29.109,9.361 28.262,8.287C27.415,7.212 26.257,6.357 24.789,5.722C23.321,5.086 21.725,4.768 20,4.768C18.275,4.768 16.679,5.086 15.211,5.722C13.743,6.357 12.585,7.212 11.738,8.287C10.891,9.361 10.467,10.534 10.467,11.805C10.467,13.318 11.057,14.687 12.237,15.913C13.418,17.139 14.976,17.994 16.913,18.478C16.974,18.508 17.027,18.501 17.072,18.455C17.117,18.41 17.155,18.357 17.185,18.296C17.216,18.236 17.208,18.183 17.163,18.137C17.117,18.092 17.064,18.054 17.004,18.024C15.188,17.57 13.72,16.768 12.601,15.618C11.481,14.468 10.921,13.197 10.921,11.805C10.921,10.625 11.329,9.527 12.147,8.514C12.964,7.5 14.068,6.698 15.46,6.108C16.853,5.518 18.366,5.222 20,5.222C21.634,5.222 23.147,5.518 24.54,6.108C25.932,6.698 27.036,7.5 27.853,8.514C28.671,9.527 29.079,10.625 29.079,11.805C29.079,13.227 28.527,14.506 27.422,15.641C26.318,16.776 24.857,17.57 23.042,18.024C22.981,18.054 22.928,18.092 22.883,18.137C22.837,18.183 22.83,18.236 22.86,18.296C22.92,18.448 23.011,18.508 23.132,18.478ZM23.087,18.342C23.026,18.342 22.996,18.312 22.996,18.251C22.996,18.19 23.011,18.16 23.042,18.16C24.888,17.676 26.378,16.859 27.513,15.709C28.648,14.559 29.215,13.257 29.215,11.805C29.215,10.594 28.799,9.474 27.967,8.446C27.135,7.417 26.015,6.599 24.608,5.994C23.2,5.389 21.665,5.086 20,5.086C18.335,5.086 16.8,5.389 15.392,5.994C13.985,6.599 12.865,7.417 12.033,8.446C11.201,9.474 10.785,10.594 10.785,11.805C10.785,13.257 11.352,14.566 12.487,15.732C13.622,16.897 15.112,17.706 16.958,18.16C17.019,18.221 17.042,18.266 17.027,18.296C17.011,18.327 16.974,18.342 16.913,18.342C15.037,17.858 13.516,17.018 12.351,15.822C11.186,14.627 10.603,13.288 10.603,11.805C10.603,10.564 11.027,9.414 11.874,8.355C12.722,7.296 13.864,6.456 15.302,5.835C16.739,5.215 18.305,4.905 20,4.905C21.695,4.905 23.261,5.215 24.698,5.835C26.136,6.456 27.278,7.296 28.126,8.355C28.973,9.414 29.397,10.564 29.397,11.805C29.397,13.288 28.814,14.627 27.649,15.822C26.484,17.018 24.963,17.858 23.087,18.342ZM20,9.626C20.878,9.626 21.627,9.838 22.247,10.261C22.867,10.685 23.178,11.192 23.178,11.782C23.178,12.372 22.92,12.879 22.406,13.303C22.255,13.394 22.134,13.56 22.043,13.802C21.861,14.135 21.801,14.529 21.861,14.982L21.907,15.346C22.088,16.859 22.194,17.933 22.224,18.569C22.103,18.175 21.982,17.933 21.861,17.842C21.831,17.51 21.763,17.298 21.657,17.207C21.551,17.116 21.377,17.071 21.135,17.071L18.865,17.071C18.623,17.071 18.449,17.116 18.343,17.207C18.237,17.298 18.169,17.51 18.139,17.842C18.048,17.903 17.927,18.13 17.776,18.523L17.776,18.569C17.806,17.933 17.912,16.859 18.093,15.346L18.139,14.982C18.199,14.529 18.139,14.135 17.957,13.802C17.866,13.56 17.745,13.394 17.594,13.303C17.08,12.879 16.822,12.372 16.822,11.782C16.822,11.192 17.133,10.685 17.753,10.261C18.373,9.838 19.122,9.626 20,9.626ZM20,14.165C20.545,14.165 20.953,14.006 21.226,13.689C21.498,13.371 21.612,12.94 21.566,12.395C21.521,11.85 21.354,11.404 21.067,11.056C20.779,10.708 20.424,10.534 20,10.534C19.576,10.534 19.221,10.708 18.933,11.056C18.646,11.404 18.479,11.85 18.434,12.395C18.388,12.94 18.502,13.371 18.774,13.689C19.047,14.006 19.455,14.165 20,14.165ZM20,14.029C19.455,14.029 19.069,13.878 18.842,13.575C18.615,13.273 18.525,12.879 18.57,12.395C18.615,11.911 18.774,11.502 19.047,11.169C19.319,10.836 19.644,10.67 20.023,10.67C20.401,10.67 20.719,10.836 20.976,11.169C21.233,11.502 21.377,11.896 21.407,12.35C21.528,13.469 21.059,14.029 20,14.029ZM20,13.666C20.696,13.666 21.014,13.197 20.953,12.259C20.923,11.835 20.825,11.487 20.658,11.215C20.492,10.942 20.28,10.806 20.023,10.806C19.765,10.806 19.546,10.942 19.364,11.215C19.183,11.487 19.077,11.835 19.047,12.259C18.986,13.197 19.304,13.666 20,13.666ZM20,13.53C19.395,13.53 19.122,13.106 19.183,12.259C19.213,11.896 19.304,11.593 19.455,11.351C19.607,11.109 19.788,10.988 20,10.988C20.212,10.988 20.393,11.109 20.545,11.351C20.696,11.593 20.787,11.896 20.817,12.259C20.878,13.106 20.605,13.53 20,13.53ZM19.955,13.257C20.076,13.257 20.151,13.242 20.182,13.212L20.409,13.212C20.499,13.152 20.545,13.076 20.545,12.985L20.545,12.849C20.545,12.698 20.507,12.531 20.431,12.35C20.356,12.168 20.227,12.07 20.045,12.054C19.864,12.039 19.705,12.092 19.569,12.213C19.433,12.334 19.364,12.501 19.364,12.713C19.364,12.804 19.395,12.879 19.455,12.94L19.455,12.985L19.501,13.076C19.501,13.257 19.591,13.348 19.773,13.348C19.834,13.348 19.894,13.318 19.955,13.257ZM19.682,12.304C19.773,12.213 19.887,12.176 20.023,12.191C20.159,12.206 20.257,12.289 20.318,12.44C20.348,12.501 20.363,12.682 20.363,12.985C20.363,13.076 20.333,13.114 20.272,13.099C20.212,13.083 20.159,13.091 20.113,13.121C20.068,13.152 19.985,13.136 19.864,13.076C19.864,13.167 19.826,13.212 19.75,13.212C19.675,13.212 19.637,13.174 19.637,13.099C19.637,13.023 19.614,12.947 19.569,12.872C19.523,12.796 19.501,12.743 19.501,12.713C19.501,12.561 19.561,12.425 19.682,12.304ZM20,13.03C20.151,13.03 20.227,12.955 20.227,12.804C20.227,12.652 20.151,12.577 20,12.577C19.849,12.577 19.773,12.652 19.773,12.804C19.773,12.955 19.849,13.03 20,13.03ZM20,12.894C19.97,12.894 19.955,12.872 19.955,12.826C19.955,12.781 19.977,12.758 20.023,12.758C20.068,12.758 20.091,12.781 20.091,12.826C20.091,12.872 20.061,12.894 20,12.894Z" style="fill:#f1de7f;fill-rule:nonzero;"/></g></g></svg>