<?xml version="1.0" encoding="UTF-8" standalone="no"?><!DOCTYPE svg PUBLIC "-//W3C//DTD SVG 1.1//EN" "http://www.w3.org/Graphics/SVG/1.1/DTD/svg11.dtd"><svg width="100%" height="100%" viewBox="0 0 40 40" version="1.1" xmlns="http://www.w3.org/2000/svg" xmlns:xlink="http://www.w3.org/1999/xlink" xml:space="preserve" xmlns:serif="http://www.serif.com/" style="fill-rule:evenodd;clip-rule:evenodd;stroke-linejoin:round;stroke-miterlimit:2;"><rect id="plain-relationship" x="0" y="0" width="40" height="40" style="fill:none;"/><g id="plain-relationship1" serif:id="plain-relationship"><g id="Relationship"><path id="Relationship1" serif:id="Relationship" d="M13.596,13.472C12.687,14.414 11.411,15 10,15C7.24,15 5,12.76 5,10C5,7.24 7.24,5 10,5C12.76,5 15,7.24 15,10C15,10.269 14.979,10.532 14.938,10.789L26.404,16.515C27.313,15.573 28.589,14.987 30,14.987C32.76,14.987 35,17.228 35,19.987C35,22.747 32.76,24.987 30,24.987C28.591,24.987 27.317,24.403 26.407,23.464L14.937,29.206C14.979,29.465 15,29.73 15,30C15,32.76 12.76,35 10,35C7.24,35 5,32.76 5,30C5,27.24 7.24,25 10,25C11.409,25 12.683,25.584 13.593,26.524L25.063,20.782C25.021,20.523 25,20.258 25,19.987C25,19.719 25.021,19.455 25.062,19.198L13.596,13.472Z" style="fill:#f1de7f;"/></g></g></svg>