<?xml version="1.0" encoding="UTF-8" standalone="no"?><!DOCTYPE svg PUBLIC "-//W3C//DTD SVG 1.1//EN" "http://www.w3.org/Graphics/SVG/1.1/DTD/svg11.dtd"><svg width="100%" height="100%" viewBox="0 0 40 40" version="1.1" xmlns="http://www.w3.org/2000/svg" xmlns:xlink="http://www.w3.org/1999/xlink" xml:space="preserve" xmlns:serif="http://www.serif.com/" style="fill-rule:evenodd;clip-rule:evenodd;stroke-linejoin:round;stroke-miterlimit:2;"><rect id="plain-torpedo" x="0" y="0" width="40" height="40" style="fill:none;"/><g id="plain-torpedo1" serif:id="plain-torpedo"><g id="Torpedo"><path id="Torpedo1" serif:id="Torpedo" d="M24,36.443C23.678,36.628 23.344,36.79 23,36.928L23,34L21,34L21,37.441C20.682,37.48 20.36,37.5 20.036,37.5C20.012,37.5 19.988,37.5 19.964,37.5C19.64,37.5 19.318,37.48 19,37.441L19,34L17,34L17,36.928C16.656,36.79 16.322,36.628 16,36.443L16,33L24,33L24,36.443ZM12.014,10L19,10L19,17L12,17L12,29.536C12,31.648 12.839,33.674 14.333,35.167C14.545,35.379 14.768,35.578 15,35.764L15,32L25,32L25,35.764C25.232,35.578 25.455,35.379 25.667,35.167C27.161,33.674 28,31.648 28,29.536L28,17L21,17L21,10L27.986,10C27.873,8.057 27.051,6.216 25.667,4.833C24.174,3.339 22.148,2.5 20.036,2.5C20.012,2.5 19.988,2.5 19.964,2.5C17.852,2.5 15.826,3.339 14.333,4.833C12.949,6.216 12.127,8.057 12.014,10ZM19,18L14,18L14,31L19,31L19,18ZM26,18L21,18L21,31L26,31L26,18ZM18,24L18,30C18,30 15,30 15,30L15,24L18,24ZM25,24L25,30C25,30 22,30 22,30L22,24L25,24ZM15,23L15,22L18,22L18,23L15,23ZM22,23L22,22L25,22L25,23L22,23ZM25,21L22,21L22,19L25,19L25,21ZM18,21L15,21L15,19L18,19L18,21ZM28,11L28,16L22,16C22,16 22,11 22,11L28,11ZM12,11L18,11L18,16L12,16L12,11ZM14,12L13,12L13,15L14,15L14,12ZM27,12L26,12L26,15L27,15L27,12Z" style="fill:#f1de7f;"/></g></g></svg>