<svg xmlns="http://www.w3.org/2000/svg" xml:space="preserve" style="fill-rule:evenodd;clip-rule:evenodd;stroke-linejoin:round;stroke-miterlimit:2" viewBox="0 0 40 40"><path d="M0 0h40v40H0z" style="fill:none"/><path d="M5.374 5.751 5 6 2 4l3-2 3 2-1.638 1.092L38 30.444v1.512L6.321 5.119l-.075.05L38 34.978V38h-1.813L6.138 5.241l-.042.028L34.374 38h-2.901L6.025 5.317l-.077.051L28.571 38h-2.175L5.887 5.409l-.044.029L24.945 38h-2.176L5.775 5.483l-.073.049L20.593 38h-2.175L5.625 5.583l-.112.075L15.516 38h-3.263z" style="fill:#f1de7f"/></svg>