<?xml version="1.0" encoding="UTF-8" standalone="no"?><!DOCTYPE svg PUBLIC "-//W3C//DTD SVG 1.1//EN" "http://www.w3.org/Graphics/SVG/1.1/DTD/svg11.dtd"><svg width="100%" height="100%" viewBox="0 0 40 40" version="1.1" xmlns="http://www.w3.org/2000/svg" xmlns:xlink="http://www.w3.org/1999/xlink" xml:space="preserve" xmlns:serif="http://www.serif.com/" style="fill-rule:evenodd;clip-rule:evenodd;stroke-linejoin:round;stroke-miterlimit:2;"><rect id="plain-klingon" x="0" y="0" width="40" height="40" style="fill:none;"/><g id="plain-klingon1" serif:id="plain-klingon"><g id="Klingon"><path id="Klingon1" serif:id="Klingon" d="M17.846,18.056C19.126,11.336 20.047,2.5 20.047,2.5C20.047,2.5 20.973,11.303 22.257,18.01C26.588,18.972 29.828,22.837 29.828,27.459C29.828,28.296 29.722,29.108 29.522,29.883C32.372,31.128 35.262,31.18 35.262,31.18C35.262,31.18 31.39,33.898 26.88,34.413C25.139,36.1 22.765,37.138 20.149,37.138C17.259,37.138 14.665,35.871 12.892,33.863C9.768,35.216 7.81,37.611 7.801,37.496C7.413,32.834 8.889,30.612 10.638,29.26C10.528,28.677 10.47,28.074 10.47,27.459C10.47,22.907 13.612,19.09 17.846,18.056ZM22.428,18.881C23.042,21.92 23.728,24.397 24.429,25.202L20.067,32.239L15.685,25.228C16.383,24.426 17.064,21.962 17.674,18.935C13.981,20.01 11.274,23.424 11.274,27.459C11.274,27.897 11.306,28.328 11.368,28.749C12.92,27.76 14.512,27.262 15.109,26.237L19.718,33.348C17.482,32.703 15.438,32.941 13.698,33.548C15.317,35.262 17.61,36.334 20.149,36.334C22.18,36.334 24.054,35.648 25.551,34.496C23.877,34.511 22.161,34.171 20.559,33.24L25.072,26.117C25.969,27.695 27.336,28.781 28.78,29.53C28.94,28.865 29.024,28.172 29.024,27.459C29.024,23.353 26.221,19.889 22.428,18.881Z" style="fill:#d23a2d;fill-rule:nonzero;"/></g></g></svg>