<svg xmlns="http://www.w3.org/2000/svg" xml:space="preserve" style="fill-rule:evenodd;clip-rule:evenodd;stroke-linejoin:round;stroke-miterlimit:2" viewBox="0 0 40 40"><path d="M0 0h40v40H0z" style="fill:none"/><path d="M8.83 18.236h2.785v.789H8.83zm5.895-3.667h.975q.14 1.439.697 2.507.556 1.067 1.578 1.114v.789q-.975.046-1.555 1.114t-.72 2.553h-.975q-.138-1.485-.719-2.553-.58-1.068-1.555-1.114v-.789q1.021-.047 1.578-1.114t.696-2.507m8.913-11.976L25.17 2.5v35H14.725V24.038h1.022v7.706q0 1.254.51 1.88.511.627 1.346.627 1.718 0 2.878-2.089 1.068-1.857 1.857-5.849.742-3.528 1.068-9.702.232-5.152.232-14.018" style="fill:#bb81e4;fill-rule:nonzero"/></svg>