<svg xmlns="http://www.w3.org/2000/svg" xml:space="preserve" style="fill-rule:evenodd;clip-rule:evenodd;stroke-linejoin:round;stroke-miterlimit:2" viewBox="0 0 40 40"><path d="M0 0h40v40H0z" style="fill:none"/><path d="M23.534 3.371a17 17 0 0 0-7.068 0l-.087 4.404a12.76 12.76 0 0 0-5.156 2.976L7.367 8.625a17 17 0 0 0-3.535 6.122l3.77 2.277a12.8 12.8 0 0 0 0 5.952l-3.77 2.277a17 17 0 0 0 3.535 6.122l3.856-2.126a12.76 12.76 0 0 0 5.156 2.976l.087 4.404c2.33.495 4.738.495 7.068 0l.087-4.404a12.76 12.76 0 0 0 5.156-2.976l3.856 2.126a17 17 0 0 0 3.535-6.122l-3.77-2.277a12.8 12.8 0 0 0 0-5.952l3.77-2.277a17 17 0 0 0-3.535-6.122l-3.856 2.126a12.76 12.76 0 0 0-5.156-2.976zM20 15.75A4.25 4.25 0 0 1 24.25 20 4.25 4.25 0 0 1 20 24.25 4.25 4.25 0 0 1 15.75 20 4.25 4.25 0 0 1 20 15.75" style="fill:#f1de7f"/></svg>