<svg xmlns="http://www.w3.org/2000/svg" xml:space="preserve" style="fill-rule:evenodd;clip-rule:evenodd;stroke-linejoin:round;stroke-miterlimit:2" viewBox="0 0 40 40"><path d="M0 0h40v40H0z" style="fill:none"/><path d="M12.768 31.223q1.432-2.728 2.593-4.162 1.5-1.842 2.729-1.773 1.773.068 3.275 4.093 1.023 2.729 1.91 7.096A5.7 5.7 0 0 1 20 37.5q-2.183 0-4.059-1.672t-3.173-4.605m-1.637-4.98q-.615-3.548-.614-6.209 0-4.776 1.296-8.801t3.479-6.379T20.034 2.5t4.742 2.354 3.445 6.379 1.262 8.801q0 5.322-1.637 9.756-1.501 4.23-4.094 6.345a731 731 0 0 0-.75-6.14q-.75-5.662-1.092-8.733-.613-5.117-1.569-8.801-1.365-5.049-2.865-5.049-2.867 0-6.345 18.831" style="fill:#f1de7f;fill-rule:nonzero"/></svg>