<?xml version="1.0" encoding="UTF-8" standalone="no"?><!DOCTYPE svg PUBLIC "-//W3C//DTD SVG 1.1//EN" "http://www.w3.org/Graphics/SVG/1.1/DTD/svg11.dtd"><svg width="100%" height="100%" viewBox="0 0 40 40" version="1.1" xmlns="http://www.w3.org/2000/svg" xmlns:xlink="http://www.w3.org/1999/xlink" xml:space="preserve" xmlns:serif="http://www.serif.com/" style="fill-rule:evenodd;clip-rule:evenodd;stroke-linejoin:round;stroke-miterlimit:2;"><rect id="plain-andorian" x="0" y="0" width="40" height="40" style="fill:none;"/><g id="plain-andorian1" serif:id="plain-andorian"><g id="Andorian"><path id="Andorian1" serif:id="Andorian" d="M18.739,9.437C24.569,9.437 29.302,14.17 29.302,20C29.302,25.83 24.569,30.563 18.739,30.563C12.909,30.563 8.176,25.83 8.176,20C8.176,14.17 12.909,9.437 18.739,9.437ZM28.758,21.67L28.765,21.66C28.036,24.336 25.586,26.306 22.68,26.306C19.2,26.306 16.374,23.481 16.374,20C16.374,16.519 19.2,13.694 22.68,13.694C25.586,13.694 28.036,15.664 28.765,18.34C28.25,17.627 27.411,17.162 26.464,17.162C24.898,17.162 23.626,18.434 23.626,20C23.626,21.566 24.898,22.838 26.464,22.838C27.406,22.838 28.242,22.378 28.758,21.67ZM31.883,20.576C32.149,21.867 33.293,22.838 34.662,22.838C36.222,22.838 37.49,21.576 37.5,20.018C37.49,22.272 35.657,24.099 33.401,24.099C31.139,24.099 29.302,22.262 29.302,20C29.302,17.738 31.139,15.901 33.401,15.901C35.657,15.901 37.49,17.728 37.5,19.982C37.49,18.424 36.222,17.162 34.662,17.162C33.293,17.162 32.149,18.133 31.883,19.424C31.961,19.389 32.048,19.369 32.14,19.369C32.328,19.369 32.497,19.452 32.613,19.583C32.728,19.452 32.897,19.369 33.086,19.369C33.274,19.369 33.443,19.452 33.559,19.583C33.674,19.452 33.843,19.369 34.032,19.369C34.086,19.369 34.139,19.376 34.189,19.389C34.405,19.001 34.818,18.739 35.293,18.739C35.767,18.739 36.181,19.001 36.396,19.389C36.447,19.376 36.5,19.369 36.554,19.369C36.902,19.369 37.185,19.652 37.185,20C37.185,20.348 36.902,20.631 36.554,20.631C36.5,20.631 36.447,20.624 36.396,20.611C36.181,20.999 35.767,21.261 35.293,21.261C34.818,21.261 34.405,20.999 34.189,20.611C34.139,20.624 34.086,20.631 34.032,20.631C33.843,20.631 33.674,20.548 33.559,20.417C33.443,20.548 33.274,20.631 33.086,20.631C32.897,20.631 32.728,20.548 32.613,20.417C32.497,20.548 32.328,20.631 32.14,20.631C32.048,20.631 31.961,20.611 31.883,20.576ZM5.338,17.162C6.904,17.162 8.176,18.434 8.176,20C8.176,21.566 6.904,22.838 5.338,22.838C3.772,22.838 2.5,21.566 2.5,20C2.5,18.434 3.772,17.162 5.338,17.162ZM15.869,19.382C15.829,19.374 15.786,19.369 15.743,19.369C15.395,19.369 15.113,19.652 15.113,20C15.113,20.348 15.395,20.631 15.743,20.631C15.786,20.631 15.829,20.626 15.869,20.618C15.671,20.911 15.335,21.104 14.955,21.104C14.528,21.104 14.158,20.861 13.974,20.506C13.77,21.739 12.698,22.68 11.408,22.68C10.16,22.68 9.117,21.8 8.865,20.628C9.029,20.613 9.176,20.534 9.279,20.417C9.395,20.548 9.564,20.631 9.752,20.631C10.1,20.631 10.383,20.348 10.383,20C10.383,19.652 10.1,19.369 9.752,19.369C9.564,19.369 9.395,19.452 9.279,19.583C9.184,19.475 9.052,19.399 8.902,19.377C9.209,18.282 10.215,17.477 11.408,17.477C12.658,17.477 13.703,18.361 13.953,19.538C14.128,19.159 14.511,18.896 14.955,18.896C15.335,18.896 15.671,19.089 15.869,19.382ZM28.783,21.635L28.781,21.639L28.783,21.635ZM28.805,21.603L28.802,21.609L28.805,21.603ZM28.835,21.559L28.827,21.571L28.835,21.559ZM28.844,21.546L28.838,21.555L28.844,21.546ZM28.864,21.515L28.855,21.528C28.861,21.519 28.867,21.51 28.872,21.501L28.864,21.515ZM28.9,21.456L28.891,21.471C28.897,21.461 28.902,21.452 28.908,21.442L28.9,21.456ZM28.934,21.397L28.933,21.398C28.928,21.408 28.923,21.417 28.917,21.426L28.934,21.397ZM29.096,21.063L29.096,21.063C29.11,21.029 29.123,20.994 29.135,20.959C29.123,20.994 29.11,21.029 29.096,21.063L29.096,21.063L29.082,21.096L29.08,21.1L29.066,21.133L29.063,21.141L29.058,21.151L29.056,21.156L29.045,21.18L29.037,21.197L29.024,21.226L29.014,21.245L29.006,21.263L28.996,21.282L28.987,21.3L28.977,21.318L28.967,21.337L28.951,21.367L28.964,21.343L28.967,21.337L28.97,21.331L28.977,21.318L28.984,21.306L28.987,21.3L28.989,21.295L28.996,21.282L29.003,21.268L29.006,21.263L29.008,21.258L29.014,21.245L29.021,21.231L29.024,21.226L29.026,21.222L29.033,21.206L29.037,21.197L29.04,21.19L29.045,21.18L29.05,21.169L29.056,21.156L29.057,21.153L29.058,21.151L29.059,21.149L29.063,21.141L29.066,21.134L29.066,21.133L29.067,21.132L29.075,21.113L29.08,21.1L29.082,21.097L29.082,21.096L29.083,21.094L29.096,21.063ZM17.635,18.739C18.331,18.739 18.896,19.304 18.896,20C18.896,20.696 18.331,21.261 17.635,21.261C16.939,21.261 16.374,20.696 16.374,20C16.374,19.304 16.939,18.739 17.635,18.739ZM20.248,19.532C20.434,19.067 20.888,18.739 21.419,18.739C22.115,18.739 22.68,19.304 22.68,20C22.68,20.696 22.115,21.261 21.419,21.261C20.888,21.261 20.434,20.933 20.248,20.468C20.153,20.455 20.068,20.413 20,20.352C19.916,20.427 19.806,20.473 19.685,20.473C19.424,20.473 19.212,20.261 19.212,20C19.212,19.739 19.424,19.527 19.685,19.527C19.806,19.527 19.916,19.573 20,19.648C20.068,19.587 20.153,19.545 20.248,19.532ZM30.405,18.896C31.015,18.896 31.509,19.391 31.509,20C31.509,20.609 31.015,21.104 30.405,21.104C29.796,21.104 29.302,20.609 29.302,20C29.302,19.391 29.796,18.896 30.405,18.896ZM6.021,19.676C6.157,19.269 6.541,18.975 6.993,18.975C7.559,18.975 8.018,19.434 8.018,20C8.018,20.566 7.559,21.025 6.993,21.025C6.541,21.025 6.157,20.731 6.021,20.324C5.921,20.462 5.758,20.552 5.574,20.552C5.27,20.552 5.023,20.305 5.023,20C5.023,19.695 5.27,19.448 5.574,19.448C5.758,19.448 5.921,19.538 6.021,19.676ZM29.158,20.894C29.154,20.905 29.151,20.916 29.147,20.926C29.143,20.937 29.139,20.948 29.136,20.959C29.143,20.937 29.151,20.916 29.158,20.894ZM29.169,20.86L29.174,20.844L29.169,20.861C29.165,20.872 29.162,20.882 29.158,20.893L29.169,20.86ZM35.293,19.133C35.771,19.133 36.16,19.521 36.16,20C36.16,20.479 35.771,20.867 35.293,20.867C34.814,20.867 34.426,20.479 34.426,20C34.426,19.521 34.814,19.133 35.293,19.133ZM29.179,20.828L29.174,20.843L29.179,20.828ZM29.189,20.793L29.189,20.795C29.186,20.805 29.183,20.816 29.18,20.826L29.189,20.793ZM27.41,19.212C27.845,19.212 28.198,19.565 28.198,20C28.198,20.435 27.845,20.788 27.41,20.788C26.975,20.788 26.622,20.435 26.622,20C26.622,19.565 26.975,19.212 27.41,19.212ZM4.077,19.212C4.512,19.212 4.865,19.565 4.865,20C4.865,20.435 4.512,20.788 4.077,20.788C3.642,20.788 3.288,20.435 3.288,20C3.288,19.565 3.642,19.212 4.077,19.212ZM29.198,20.761L29.194,20.775L29.198,20.761ZM29.203,20.743L29.199,20.759C29.202,20.748 29.205,20.737 29.208,20.726L29.203,20.743ZM29.221,20.675L29.217,20.691C29.22,20.68 29.222,20.669 29.225,20.658L29.221,20.675ZM12.432,19.583C12.548,19.452 12.717,19.369 12.905,19.369C13.253,19.369 13.536,19.652 13.536,20C13.536,20.348 13.253,20.631 12.905,20.631C12.717,20.631 12.548,20.548 12.432,20.417C12.317,20.548 12.148,20.631 11.959,20.631C11.611,20.631 11.329,20.348 11.329,20C11.329,19.652 11.611,19.369 11.959,19.369C12.148,19.369 12.317,19.452 12.432,19.583ZM29.237,20.606L29.233,20.623C29.236,20.612 29.238,20.601 29.24,20.59L29.237,20.606ZM29.244,20.574L29.241,20.587L29.244,20.574ZM29.251,20.537L29.248,20.554L29.251,20.537ZM29.26,20.486L29.258,20.5L29.26,20.486ZM29.302,19.993C29.298,19.735 29.088,19.527 28.829,19.527C28.568,19.527 28.356,19.739 28.356,20C28.356,20.261 28.568,20.473 28.829,20.473C29.088,20.473 29.298,20.265 29.302,20.007L29.302,20.017L29.302,20L29.302,19.983L29.302,19.993ZM25.045,19.527C25.306,19.527 25.518,19.739 25.518,20C25.518,20.261 25.306,20.473 25.045,20.473C24.784,20.473 24.572,20.261 24.572,20C24.572,19.739 24.784,19.527 25.045,19.527ZM24.099,19.527C24.36,19.527 24.572,19.739 24.572,20C24.572,20.261 24.36,20.473 24.099,20.473C23.838,20.473 23.626,20.261 23.626,20C23.626,19.739 23.838,19.527 24.099,19.527ZM18.423,19.527C18.684,19.527 18.896,19.739 18.896,20C18.896,20.261 18.684,20.473 18.423,20.473C18.162,20.473 17.95,20.261 17.95,20C17.95,19.739 18.162,19.527 18.423,19.527ZM29.269,20.435L29.267,20.447L29.269,20.435ZM29.276,20.381L29.275,20.394L29.276,20.381ZM29.281,20.343L29.279,20.36C29.281,20.349 29.282,20.338 29.283,20.327L29.281,20.343ZM29.29,20.256L29.289,20.271L29.29,20.256ZM29.297,20.167L29.296,20.179L29.297,20.167ZM29.301,19.949L29.302,19.961L29.301,19.949ZM29.301,19.927L29.301,19.944L29.301,19.927ZM29.3,19.894L29.3,19.905L29.3,19.894ZM29.299,19.875L29.3,19.888L29.299,19.875ZM29.297,19.838L29.298,19.851L29.297,19.838ZM29.292,19.766L29.293,19.779L29.292,19.766ZM29.291,19.749L29.292,19.761L29.291,19.749ZM29.289,19.729L29.29,19.744L29.289,19.729ZM29.287,19.711L29.289,19.728L29.287,19.711ZM29.286,19.695L29.287,19.707L29.286,19.695ZM29.281,19.657L29.283,19.673C29.282,19.662 29.281,19.651 29.279,19.64L29.281,19.657ZM29.277,19.624L29.279,19.636L29.277,19.624ZM29.275,19.606L29.276,19.619L29.275,19.606ZM29.267,19.553L29.269,19.565L29.267,19.553ZM29.251,19.464L29.254,19.479L29.251,19.464ZM29.241,19.413L29.244,19.426L29.241,19.413ZM29.237,19.394L29.24,19.41C29.238,19.399 29.236,19.388 29.233,19.377L29.237,19.394ZM29.225,19.344L29.229,19.358L29.225,19.344ZM29.221,19.325L29.225,19.342C29.222,19.331 29.22,19.32 29.217,19.309L29.221,19.325ZM29.208,19.275L29.212,19.29L29.208,19.275ZM29.203,19.256L29.199,19.241L29.208,19.274L29.203,19.256ZM29.194,19.225L29.198,19.239L29.194,19.225ZM29.184,19.189L29.185,19.191C29.188,19.202 29.191,19.212 29.194,19.223L29.184,19.189ZM29.174,19.157L29.179,19.172L29.174,19.157ZM29.163,19.123L29.164,19.125C29.167,19.135 29.171,19.146 29.174,19.156L29.163,19.123ZM29.136,19.041C29.139,19.052 29.143,19.063 29.147,19.074C29.151,19.084 29.154,19.095 29.158,19.106C29.151,19.084 29.143,19.063 29.136,19.041ZM28.962,18.653L28.951,18.633L28.957,18.644L28.962,18.653L28.969,18.665L28.971,18.67L28.976,18.679L28.993,18.713L28.995,18.717L28.997,18.719L29.002,18.731L29.008,18.742L29.01,18.746L29.012,18.749L29.016,18.758L29.025,18.777L29.03,18.788L29.033,18.794L29.037,18.802L29.04,18.809L29.046,18.821L29.05,18.83L29.052,18.836L29.055,18.842L29.06,18.853L29.065,18.865L29.068,18.871L29.071,18.877L29.075,18.888L29.08,18.899L29.082,18.904L29.085,18.91L29.089,18.921L29.094,18.933L29.099,18.944L29.099,18.946L29.1,18.947L29.101,18.951L29.105,18.961L29.113,18.98L29.117,18.991C29.123,19.007 29.129,19.024 29.135,19.041C29.129,19.024 29.123,19.007 29.117,18.991L29.105,18.961L29.1,18.947L29.099,18.944L29.089,18.921L29.082,18.904L29.075,18.888L29.068,18.871L29.06,18.853L29.052,18.836L29.046,18.821L29.037,18.802L29.03,18.788L29.016,18.758L29.01,18.746L29.002,18.731L28.995,18.717L28.971,18.67L28.962,18.653ZM28.925,18.588L28.926,18.589C28.932,18.598 28.937,18.608 28.943,18.618L28.925,18.588ZM28.9,18.544L28.908,18.558C28.902,18.548 28.897,18.539 28.891,18.529L28.9,18.544ZM28.883,18.516L28.89,18.528L28.883,18.516ZM28.874,18.501L28.881,18.513L28.874,18.501ZM28.864,18.485L28.872,18.499C28.867,18.49 28.861,18.481 28.855,18.472L28.864,18.485ZM28.81,18.404L28.814,18.41L28.81,18.404ZM28.772,18.35L28.774,18.352L28.772,18.35Z" style="fill:#57afdb;"/></g></g></svg>