<?xml version="1.0" encoding="UTF-8" standalone="no"?><!DOCTYPE svg PUBLIC "-//W3C//DTD SVG 1.1//EN" "http://www.w3.org/Graphics/SVG/1.1/DTD/svg11.dtd"><svg width="100%" height="100%" viewBox="0 0 40 40" version="1.1" xmlns="http://www.w3.org/2000/svg" xmlns:xlink="http://www.w3.org/1999/xlink" xml:space="preserve" xmlns:serif="http://www.serif.com/" style="fill-rule:evenodd;clip-rule:evenodd;stroke-linejoin:round;stroke-miterlimit:2;"><rect id="plain-academy" x="0" y="0" width="40" height="40" style="fill:none;"/><g id="plain-academy1" serif:id="plain-academy"><g id="Academy"><path id="Academy1" serif:id="Academy" d="M15.75,6.641L3.157,28.452C2.281,29.97 2.281,31.841 3.157,33.359C4.034,34.878 5.654,35.813 7.407,35.813L32.593,35.813C34.346,35.813 35.966,34.878 36.843,33.359C37.719,31.841 37.719,29.97 36.843,28.452L24.25,6.641C23.373,5.122 21.753,4.187 20,4.187C18.247,4.187 16.627,5.122 15.75,6.641ZM11.265,32.541L7.407,32.541C6.832,32.541 6.3,32.239 6.005,31.747C6.967,31.439 8.83,30.869 11.265,30.247L11.265,32.541ZM12.998,32.541L11.884,32.541L11.884,32.114L12.451,31.484L12.998,32.144L12.998,32.541ZM17.796,32.541L13.507,32.541L13.507,29.702C14.837,29.394 16.279,29.088 17.796,28.809L17.796,32.541ZM21.1,32.541L19.115,32.541L19.115,32.245C19.505,31.749 19.835,31.328 20.114,30.972L21.1,32.353L21.1,32.541ZM32.609,27.662L34.009,30.088C34.301,30.594 34.301,31.217 34.009,31.723C33.717,32.229 33.177,32.541 32.593,32.541L21.96,32.541L21.96,28.148C25.439,27.688 29.113,27.446 32.609,27.662ZM12.602,31.315L12.998,30.875L12.998,31.792L12.602,31.315ZM11.884,31.778L11.884,30.802L12.305,31.309L11.884,31.778ZM21.1,29.695L21.1,31.581L20.401,30.603C20.702,30.216 20.929,29.921 21.1,29.695ZM19.84,30.589C19.603,30.894 19.355,31.212 19.115,31.518L19.115,29.573L19.84,30.589ZM31.196,25.215C29.768,25.448 26.22,26.051 21.96,26.947L21.96,18.56L21.1,18.755L21.1,19.301L19.118,18.385L19.118,17.819L17.796,18.156L17.796,27.872C16.379,28.204 14.935,28.563 13.507,28.945L13.507,24.336L13.044,24.478L13.044,24.717L11.977,24.248L11.977,23.97L11.265,24.179L11.265,29.571C9.348,30.128 7.503,30.728 5.837,31.364C5.714,30.941 5.765,30.479 5.991,30.088L18.583,8.277C18.876,7.77 19.416,7.459 20,7.459C20.584,7.459 21.124,7.77 21.417,8.277L31.196,25.215ZM12.457,31.141L11.931,30.507L12.967,30.573L12.457,31.141ZM19.115,28.802L19.115,28.723L21.013,29.066C20.82,29.325 20.497,29.743 20.128,30.22L19.115,28.802ZM12.026,28.627L12.024,28.139C12.032,28.018 12.146,27.532 12.588,27.691C13.03,27.851 12.939,28.261 12.939,28.261L12.964,28.783L12.026,28.627ZM12.041,27.157L12.041,26.682C12.049,26.566 12.168,26.11 12.623,26.326C13.077,26.541 12.981,26.928 12.981,26.928L13.005,27.439L12.041,27.157ZM19.182,26.248L19.179,25.352C19.193,25.132 19.411,24.267 20.255,24.665C21.1,25.061 20.926,25.794 20.926,25.794L20.974,26.758L19.182,26.248ZM12.033,25.664L12.033,25.189C12.041,25.074 12.161,24.625 12.615,24.869C13.069,25.113 12.973,25.493 12.973,25.493L12.997,26.006L12.033,25.664ZM19.211,23.555L19.211,22.683C19.226,22.472 19.454,21.663 20.322,22.167C21.189,22.67 21.007,23.357 21.007,23.357L21.052,24.3L19.211,23.555ZM19.195,20.813L19.195,19.942C19.21,19.731 19.439,18.936 20.306,19.491C21.174,20.047 20.991,20.723 20.991,20.723L21.037,21.669L19.195,20.813ZM19.238,11.762C18.399,11.891 17.674,12.229 17.182,12.685C16.727,13.107 16.466,13.631 16.466,14.195C16.466,14.758 16.727,15.282 17.182,15.704C17.394,15.901 17.648,16.075 17.935,16.22C17.909,16.399 17.891,16.568 17.88,16.726C17.879,16.75 18.009,16.593 18.217,16.348C18.71,16.549 19.281,16.671 19.892,16.684L20,16.685C20.695,16.685 21.342,16.544 21.885,16.304C22.019,16.568 22.105,16.74 22.104,16.711C22.097,16.557 22.081,16.394 22.059,16.222C22.349,16.077 22.605,15.902 22.818,15.704C23.273,15.282 23.534,14.758 23.534,14.195C23.534,13.631 23.273,13.107 22.818,12.685C22.33,12.232 21.614,11.897 20.784,11.765C20.42,10.838 20.099,10.185 20.008,10.185C19.917,10.185 19.6,10.837 19.238,11.762ZM21.637,15.819C21.165,16.023 20.602,16.14 20,16.14C19.494,16.14 19.016,16.057 18.595,15.91C19.211,15.215 20.081,14.325 20.61,14.302C20.812,14.293 21.279,15.129 21.637,15.819ZM19.011,12.359C18.634,13.39 18.247,14.619 18.035,15.656C17.855,15.552 17.693,15.435 17.553,15.305C17.217,14.993 17.011,14.611 17.011,14.195C17.011,13.778 17.217,13.397 17.553,13.085C17.914,12.75 18.422,12.495 19.011,12.359ZM21.011,12.365C21.591,12.502 22.09,12.754 22.447,13.085C22.783,13.397 22.989,13.778 22.989,14.195C22.989,14.611 22.783,14.993 22.447,15.305C22.307,15.434 22.146,15.552 21.966,15.655C21.766,14.614 21.386,13.39 21.011,12.365Z" style="fill:#f1de7f;fill-rule:nonzero;"/></g></g></svg>