<?xml version="1.0" encoding="UTF-8" standalone="no"?><!DOCTYPE svg PUBLIC "-//W3C//DTD SVG 1.1//EN" "http://www.w3.org/Graphics/SVG/1.1/DTD/svg11.dtd"><svg width="100%" height="100%" viewBox="0 0 40 40" version="1.1" xmlns="http://www.w3.org/2000/svg" xmlns:xlink="http://www.w3.org/1999/xlink" xml:space="preserve" xmlns:serif="http://www.serif.com/" style="fill-rule:evenodd;clip-rule:evenodd;stroke-linejoin:round;stroke-miterlimit:2;"><rect id="plain-tellarite" x="0" y="0" width="40" height="40" style="fill:none;"/><g id="plain-tellarite1" serif:id="plain-tellarite"><g id="Tellarite"><path id="Tellarite1" serif:id="Tellarite" d="M24.331,35.54L24.723,35.932L23.155,37.5L22.371,36.716L22.763,36.324L23.155,36.716L24.331,35.54ZM15.669,34.952L15.277,35.344L15.669,35.736L15.277,36.128L15.669,36.52L16.061,36.128L16.453,36.52L16.061,36.912L16.453,37.304L17.237,36.52L16.453,35.736L16.845,35.344L17.629,36.128L18.021,35.736L16.845,34.56L16.061,35.344L15.669,34.952ZM21.587,35.932L21.979,36.324L22.371,35.932L22.763,36.324L23.155,35.932L22.763,35.54L23.155,35.148L22.763,34.756L21.587,35.932ZM36.755,19.353L19.902,2.5L3.049,19.353L19.902,36.207L36.755,19.353ZM23.547,34.756L23.939,35.148L23.547,35.54L23.155,35.148L23.547,34.756ZM24.919,32.601L24.135,33.385L25.703,34.952L26.095,34.56L24.919,33.385L25.311,32.993L24.919,32.601ZM13.945,31.66L12.377,33.228L13.945,34.796L14.337,34.404L13.161,33.228L13.553,32.836L13.945,33.228L14.337,32.836L13.945,32.444L14.337,32.052L13.945,31.66ZM26.487,32.601L27.27,33.385L26.487,34.169L26.095,33.777L26.487,33.385L26.095,32.993L25.703,33.385L25.311,32.993L25.703,32.601L26.095,32.993L26.487,32.601ZM14.728,32.444L15.512,33.228L15.12,33.62L14.337,32.836L14.728,32.444ZM33.62,19.353L19.902,5.635L6.184,19.353L19.902,33.071L33.62,19.353ZM25.703,31.817L26.095,32.209L25.703,32.601L25.311,32.209L25.703,31.817ZM11.828,31.895L11.436,32.287L11.044,31.895L11.436,31.503L11.828,31.895ZM28.446,29.073L26.878,30.641L28.446,32.209L30.014,30.641L29.23,29.857L28.838,30.249L29.23,30.641L28.446,31.425L27.662,30.641L28.838,29.465L28.446,29.073ZM19.902,29.779L16.767,26.643L17.198,26.212L16.022,25.036L14.728,26.33L19.902,31.503L23.782,27.623L22.92,26.761L19.902,29.779ZM11.436,29.152L11.044,29.544L11.828,30.328L11.436,30.719L10.652,29.936L9.868,30.719L10.26,31.111L10.652,30.719L11.436,31.503L11.828,31.111L12.22,31.503L12.612,31.111L12.22,30.719L12.612,30.328L11.436,29.152ZM8.144,27.427L7.36,28.211L8.928,29.779L10.496,28.211L9.712,27.427L9.32,27.819L9.712,28.211L8.928,28.995L8.536,28.603L8.928,28.211L8.144,27.427ZM30.798,27.506L31.582,28.289L30.798,29.073L30.406,28.681L30.798,28.289L30.406,27.898L30.014,28.289L29.622,27.898L30.798,26.722L31.19,27.114L31.582,26.722L32.758,27.898L31.974,28.681L31.582,28.289L31.974,27.898L31.19,27.114L30.798,27.506ZM19.941,10.848L17.864,12.926L20.02,15.081L20.02,18.06L17.119,20.96L13.435,17.276L11.358,19.353L19.902,27.898L21.979,25.82L20.803,24.644L25.232,20.216L26.408,21.391L28.446,19.353L26.016,16.923L24.684,18.256L22.763,16.335L24.096,15.003L19.941,10.848ZM8.928,26.643L8.536,27.035L8.928,27.427L9.32,27.035L8.928,26.643ZM5.635,25.703L6.027,26.095L5.635,26.487L4.852,25.703L6.027,24.527L6.419,24.919L6.811,24.527L7.987,25.703L6.419,27.27L6.027,26.878L7.203,25.703L6.419,24.919L5.635,25.703ZM33.737,23.782L32.954,24.566L33.737,25.35L33.345,25.742L32.562,24.958L32.17,25.35L33.737,26.918L34.129,26.526L33.737,26.134L34.521,25.35L34.913,25.742L35.305,25.35L34.521,24.566L34.129,24.958L33.737,24.566L34.129,24.174L33.737,23.782ZM26.251,22.646L25.193,21.587L21.979,24.801L23.038,25.859L26.251,22.646ZM3.911,21.627L2.735,22.802L3.127,23.194L3.519,22.802L3.911,23.194L3.127,23.978L3.911,24.762L4.303,24.37L3.911,23.978L4.303,23.586L4.695,23.978L5.087,23.586L4.695,23.194L5.087,22.802L3.911,21.627ZM36.089,21.431L34.913,22.606L35.305,22.998L36.089,22.214L36.481,22.606L36.089,22.998L36.481,23.39L35.697,24.174L36.089,24.566L37.265,23.39L36.873,22.998L37.265,22.606L36.089,21.431ZM35.697,23.39L35.305,22.998L34.913,23.39L35.305,23.782L35.697,23.39ZM9.476,19.353L12.494,16.335L11.632,15.473L7.752,19.353L11.632,23.233L12.494,22.371L9.476,19.353ZM32.052,19.353L26.839,14.141L25.585,15.395L26.722,16.531L27.114,16.139L30.328,19.353L27.349,22.332L28.211,23.194L32.052,19.353ZM16.453,12.769L19.04,15.356L19.04,17.864L17.158,19.745L13.317,15.904L16.453,12.769ZM19.902,7.203L16.022,11.083L16.884,11.946L19.902,8.928L22.92,11.946L23.782,11.083L19.902,7.203Z" style="fill:#81a2e4;"/></g></g></svg>