<?xml version="1.0" encoding="UTF-8" standalone="no"?><!DOCTYPE svg PUBLIC "-//W3C//DTD SVG 1.1//EN" "http://www.w3.org/Graphics/SVG/1.1/DTD/svg11.dtd"><svg width="100%" height="100%" viewBox="0 0 40 40" version="1.1" xmlns="http://www.w3.org/2000/svg" xmlns:xlink="http://www.w3.org/1999/xlink" xml:space="preserve" xmlns:serif="http://www.serif.com/" style="fill-rule:evenodd;clip-rule:evenodd;stroke-linejoin:round;stroke-miterlimit:2;"><rect id="plain-structure" x="0" y="0" width="40" height="40" style="fill:none;"/><g id="plain-structure1" serif:id="plain-structure"><g id="Structure"><path id="Structure1" serif:id="Structure" d="M35.267,31.883L23.978,1.78L22.978,2.298C22.086,2.759 21.073,3.02 20,3.02C18.927,3.02 17.914,2.759 17.022,2.298L16.022,1.78L4.733,31.883L5.639,32.247C10.079,34.035 14.926,35.02 20,35.02C25.074,35.02 29.921,34.035 34.361,32.247L35.267,31.883ZM10.106,23.252C12.891,24.285 15.882,24.894 19,25.002L19,33.006C14.895,32.895 10.958,32.106 7.296,30.744L10.106,23.252ZM29.894,23.252L32.704,30.744C29.042,32.106 25.105,32.895 21,33.006L21,25.002C24.118,24.895 27.109,24.285 29.894,23.252ZM26.382,13.887L29.192,21.379C26.625,22.33 23.871,22.894 21,23.001L21,14.993C22.883,14.892 24.691,14.51 26.382,13.887ZM13.618,13.887C15.309,14.51 17.117,14.892 19,14.993L19,23.001C16.129,22.894 13.375,22.33 10.808,21.379L13.618,13.887ZM14.32,12.014L17.13,4.522C17.725,4.736 18.352,4.885 19,4.961L19,12.99C17.365,12.892 15.793,12.555 14.32,12.014ZM25.68,12.014C24.207,12.555 22.635,12.892 21,12.99L21,4.961C21.648,4.885 22.275,4.736 22.87,4.522L22.87,4.522L25.68,12.014Z" style="fill:#f1de7f;"/></g></g></svg>