<?xml version="1.0" encoding="UTF-8" standalone="no"?><!DOCTYPE svg PUBLIC "-//W3C//DTD SVG 1.1//EN" "http://www.w3.org/Graphics/SVG/1.1/DTD/svg11.dtd"><svg width="100%" height="100%" viewBox="0 0 40 40" version="1.1" xmlns="http://www.w3.org/2000/svg" xmlns:xlink="http://www.w3.org/1999/xlink" xml:space="preserve" xmlns:serif="http://www.serif.com/" style="fill-rule:evenodd;clip-rule:evenodd;stroke-linejoin:round;stroke-miterlimit:2;"><rect id="plain-reason" x="0" y="0" width="40" height="40" style="fill:none;"/><g id="plain-reason1" serif:id="plain-reason"><g id="Reason"><path id="Reason1" serif:id="Reason" d="M5.01,9.274L5.263,8.979C7.079,6.963 9.637,5.771 12.349,5.678C14.794,5.593 17.464,5.501 20.026,5.413C21.037,5.378 22.032,5.445 23,5.608L23,6C23,8.209 21.209,10 19,10C18.999,10 18.998,9.999 18.998,10C18.998,11 18.998,11 18.998,12C18.999,12 18.999,12 19,12C22.287,12 24.956,9.357 24.998,6.081C27.307,6.799 29.398,8.063 31.097,9.749C29.25,10.771 28,12.739 28,15C28,15.001 28,15.001 28,15.002C28,16.593 28.632,18.118 29.757,19.243C30.882,20.368 32.407,21 33.998,21C34,20 34,19 34,19L33.998,19C32.938,19 31.921,18.579 31.171,17.829C30.421,17.079 30,16.062 30,15.002C30,15.001 30,15.001 30,15C30,13.334 31.018,11.906 32.467,11.305C33.643,12.841 34.533,14.624 35.049,16.587C35.186,17.108 35.321,17.62 35.452,18.117C35.832,19.563 35.546,21.104 34.67,22.317C33.794,23.529 32.421,24.286 30.928,24.379C28.972,24.502 26.853,24.634 25.077,24.745C24.368,24.789 23.672,24.909 23,25.1L23,22L21,22L21,25.901C19.98,26.442 19.054,27.162 18.268,28.036L18,28.333L18,22C18,19.791 19.791,18 22,18C22.001,18 22.001,18 22.002,18C23.062,18 24.079,18.421 24.829,19.171C25.579,19.921 26,20.938 26,21.998L26,22C26,22 27,22 28,21.998C28,20.407 27.368,18.882 26.243,17.757C25.118,16.632 23.593,16 22.002,16C22.001,16 22.001,16 22,16C18.686,16 16,18.686 16,22L16,30.556L13.184,33.684C13.125,33.75 13.064,33.814 13,33.874L13,30C13,26.686 10.314,24 7,24C6.999,24 6.999,24 6.998,24C6.998,25 6.998,25 6.998,26C6.998,26.001 6.999,26 7,26C9.209,26 11,27.791 11,30L11,34.924C10.749,34.974 10.491,35 10.23,35C10.23,35 10.23,35 10.23,34.994C8.276,34.994 6.556,33.708 6.003,31.834C4.965,28.438 3.429,23.113 3,20L9,20C12.314,20 15,17.314 15,14C15,13.999 15,13.999 15,13.998C15,12.407 14.368,10.882 13.243,9.757C12.118,8.632 10.593,8 9.002,8C9,9 9,10 9,10L9.002,10C10.062,10 11.079,10.421 11.829,11.171C12.579,11.921 13,12.938 13,13.998C13,13.999 13,13.999 13,14C13,16.209 11.209,18 9,18L2.809,18C2.772,17.478 2.743,16.931 2.717,16.37C2.601,14.707 2.903,13.058 3.576,11.567C3.868,12.184 4.265,12.752 4.757,13.243C5.882,14.368 7.407,15 8.998,15C9,14 9,13 9,13L8.998,13C7.938,13 6.921,12.579 6.171,11.829C5.486,11.144 5.075,10.235 5.01,9.274Z" style="fill:#f1de7f;"/></g></g></svg>