<?xml version="1.0" encoding="UTF-8" standalone="no"?><!DOCTYPE svg PUBLIC "-//W3C//DTD SVG 1.1//EN" "http://www.w3.org/Graphics/SVG/1.1/DTD/svg11.dtd"><svg width="100%" height="100%" viewBox="0 0 40 40" version="1.1" xmlns="http://www.w3.org/2000/svg" xmlns:xlink="http://www.w3.org/1999/xlink" xml:space="preserve" xmlns:serif="http://www.serif.com/" style="fill-rule:evenodd;clip-rule:evenodd;stroke-linejoin:round;stroke-miterlimit:2;"><rect id="plain-medical" x="0" y="0" width="40" height="40" style="fill:none;"/><g id="plain-medical1" serif:id="plain-medical"><g id="Medical"><path id="Medical1" serif:id="Medical" d="M18.783,28.112C18.783,28.173 18.782,28.211 18.783,28.249C18.866,30.286 18.949,32.322 19.032,34.359C19.05,34.803 19.052,35.25 19.089,35.692C19.128,36.169 19.46,36.476 19.916,36.498C19.94,36.499 19.964,36.5 19.988,36.5C20.471,36.5 20.791,36.25 20.891,35.785C20.914,35.678 20.922,35.567 20.926,35.458C20.942,34.969 20.951,34.48 20.97,33.991C21.028,32.454 21.088,30.916 21.154,29.38C21.159,29.264 21.122,29.215 21.024,29.17C20.621,28.984 20.22,28.791 19.819,28.601C19.478,28.44 19.137,28.28 18.783,28.112ZM17.294,22.409C17.231,22.409 17.165,22.418 17.094,22.44C15.42,22.952 14.875,24.893 16.088,26.126C16.361,26.403 16.691,26.649 17.038,26.826C18.098,27.367 19.18,27.867 20.254,28.382C20.6,28.549 20.951,28.707 21.294,28.88C21.542,29.006 21.769,29.165 21.842,29.46C21.889,29.653 21.832,29.747 21.64,29.773C21.535,29.787 21.505,29.831 21.502,29.931C21.491,30.338 21.472,30.744 21.456,31.15C21.453,31.225 21.449,31.299 21.444,31.388C22.108,31.371 22.682,31.204 23.087,30.666C23.616,29.963 23.56,28.942 22.961,28.205C22.624,27.789 22.179,27.523 21.703,27.298C20.461,26.713 19.22,26.128 17.988,25.524C17.701,25.383 17.448,25.171 17.187,24.981C17.065,24.892 17.027,24.751 17.03,24.599C17.035,24.311 17.166,24.113 17.47,24.012C17.659,23.949 17.863,23.93 18.085,23.887C18.048,23.499 18.011,23.106 17.971,22.713C17.968,22.679 17.952,22.625 17.929,22.616C17.718,22.536 17.529,22.409 17.294,22.409ZM17.708,27.684C17.605,27.684 17.496,27.709 17.376,27.772C16.609,28.17 16.12,28.965 16.234,29.734C16.4,30.85 17.415,31.376 18.358,31.376C18.421,31.376 18.484,31.373 18.546,31.368C18.524,30.85 18.502,30.33 18.48,29.816C18.307,29.775 18.144,29.748 17.989,29.695C17.923,29.673 17.843,29.608 17.824,29.546C17.793,29.44 17.84,29.335 17.951,29.288C18.101,29.224 18.256,29.171 18.44,29.101C18.422,28.74 18.403,28.362 18.381,27.984C18.38,27.956 18.36,27.914 18.337,27.903C18.127,27.804 17.933,27.684 17.708,27.684ZM17.258,16.683C17.056,16.712 16.865,16.728 16.68,16.769C15.789,16.969 15.159,17.477 14.904,18.371C14.644,19.284 14.81,20.117 15.492,20.807C15.995,21.316 16.632,21.626 17.276,21.909C18.659,22.516 20.048,23.106 21.433,23.707C21.674,23.812 21.913,23.926 22.139,24.06C22.374,24.199 22.567,24.393 22.654,24.661C22.777,25.043 22.71,25.398 22.236,25.518C22.087,25.556 21.936,25.585 21.768,25.622C21.748,25.895 21.731,26.163 21.707,26.431C21.668,26.859 21.666,26.858 22.056,27.047C22.106,27.071 22.153,27.102 22.204,27.12C22.235,27.132 22.271,27.142 22.304,27.142C22.312,27.142 22.321,27.141 22.328,27.14C22.878,27.041 23.368,26.825 23.746,26.399C24.404,25.658 24.489,24.623 23.958,23.734C23.566,23.077 22.985,22.639 22.292,22.34C20.806,21.697 19.314,21.066 17.835,20.407C17.433,20.228 17.06,19.974 16.688,19.733C16.572,19.658 16.447,19.52 16.422,19.393C16.296,18.736 16.495,18.42 17.1,18.316C17.222,18.295 17.345,18.285 17.472,18.27C17.401,17.741 17.331,17.225 17.258,16.683ZM18.372,22.819C18.409,23.236 18.445,23.635 18.479,24.034C18.513,24.439 18.551,24.844 18.577,25.25C18.584,25.369 18.63,25.43 18.739,25.48C19.272,25.725 19.801,25.98 20.332,26.231C20.648,26.381 20.965,26.529 21.294,26.684C21.305,26.616 21.315,26.569 21.319,26.52C21.378,25.77 21.433,25.019 21.495,24.269C21.503,24.171 21.462,24.135 21.383,24.1C20.42,23.687 19.458,23.271 18.495,22.856C18.46,22.84 18.42,22.833 18.372,22.819ZM22.714,16.862L22.707,16.862C22.637,17.391 22.569,17.906 22.499,18.439C22.582,18.444 22.637,18.446 22.691,18.451C23.058,18.488 23.386,18.609 23.692,18.831C24.082,19.114 23.95,20.058 23.428,20.166C23.161,20.221 22.889,20.265 22.617,20.281C22.282,20.302 22.276,20.286 22.238,20.612C22.189,21.02 22.15,21.428 22.105,21.848C22.166,21.858 22.212,21.872 22.257,21.872L22.265,21.872C22.665,21.854 23.071,21.871 23.463,21.808C24.871,21.579 25.768,20.25 25.452,18.866C25.244,17.951 24.634,17.386 23.778,17.064C23.441,16.937 23.091,16.862 22.714,16.862ZM20.309,3.5L19.682,3.5C19.652,3.51 19.622,3.525 19.591,3.529C18.809,3.641 18.167,4.004 17.676,4.619C16.596,5.969 16.891,7.902 18.319,8.918C18.466,9.022 18.609,9.14 18.721,9.278C18.788,9.361 18.844,9.519 18.808,9.6C18.774,9.677 18.615,9.731 18.508,9.738C18.374,9.746 18.241,9.748 18.106,9.748L17.617,9.745C17.043,9.747 16.656,10.177 16.741,10.748C16.983,12.35 17.25,13.949 17.482,15.553C17.693,17.015 17.873,18.482 18.061,19.948C18.076,20.06 18.11,20.121 18.217,20.166C18.794,20.409 19.367,20.66 19.942,20.908C20.531,21.162 21.121,21.416 21.727,21.677C21.74,21.594 21.752,21.526 21.76,21.456C21.787,21.205 21.809,20.953 21.841,20.702C21.988,19.508 22.127,18.313 22.29,17.121C22.471,15.798 22.669,14.478 22.867,13.157C22.988,12.359 23.131,11.564 23.247,10.765C23.334,10.166 22.956,9.746 22.358,9.745L21.887,9.746C21.742,9.746 21.596,9.745 21.451,9.741C21.154,9.731 21.056,9.548 21.24,9.319C21.371,9.155 21.542,9.017 21.712,8.889C22.631,8.197 23.063,7.275 22.939,6.135C22.82,5.036 22.222,4.237 21.218,3.771C20.934,3.64 20.613,3.588 20.309,3.5ZM23.731,11.206C23.631,11.206 23.562,11.212 23.542,11.342C23.407,12.227 23.262,13.111 23.122,13.995C23.059,14.396 23.154,14.588 23.428,14.588C23.513,14.588 23.615,14.569 23.736,14.532C26.395,13.714 29.054,12.897 31.712,12.073C31.919,12.009 32.122,11.917 32.312,11.811C32.544,11.679 32.715,11.479 32.841,11.208L32.624,11.208C31.299,11.208 29.975,11.208 28.65,11.208L26.803,11.208L23.731,11.206ZM16.217,11.204L16.216,11.204C14.294,11.207 12.372,11.208 10.45,11.208L7.139,11.208C7.197,11.302 7.231,11.363 7.27,11.421C7.509,11.771 7.863,11.948 8.255,12.069C10.918,12.889 13.582,13.71 16.246,14.53C16.37,14.568 16.475,14.587 16.562,14.587C16.838,14.587 16.933,14.393 16.868,13.987C16.73,13.131 16.587,12.275 16.459,11.417C16.435,11.253 16.385,11.204 16.217,11.204ZM14.863,8.194L5.498,8.194C5.528,8.254 5.551,8.303 5.576,8.349C6,9.125 6.427,9.9 6.847,10.678C6.906,10.789 6.972,10.828 7.099,10.828L7.1,10.828C9.195,10.825 11.289,10.825 13.384,10.825L16.349,10.825C16.313,10.36 16.206,9.957 15.849,9.655C15.686,9.516 15.541,9.356 15.39,9.204C15.108,8.922 14.75,8.682 14.863,8.194ZM34.493,8.194L25.158,8.194C25.152,8.23 25.14,8.262 25.142,8.294C25.162,8.589 25.024,8.805 24.815,8.999C24.549,9.245 24.3,9.51 24.038,9.761C23.737,10.05 23.686,10.426 23.64,10.818C23.698,10.821 23.741,10.825 23.784,10.825C26.831,10.825 29.878,10.825 32.925,10.827L32.925,10.827C33.026,10.827 33.08,10.796 33.128,10.706C33.559,9.909 33.996,9.115 34.432,8.32C34.452,8.283 34.469,8.244 34.493,8.194ZM8.989,4.987C7.681,4.987 6.373,4.988 5.065,4.989C4.61,4.989 4.312,5.269 4.313,5.724C4.313,5.903 4.36,6.098 4.44,6.259C4.677,6.73 4.944,7.185 5.191,7.651C5.249,7.762 5.314,7.804 5.443,7.804L5.443,7.804C7.585,7.801 9.728,7.801 11.87,7.801L14.83,7.801C14.837,7.762 14.844,7.742 14.844,7.721C14.844,7.193 14.849,6.665 14.841,6.137C14.836,5.745 14.629,5.464 14.305,5.265C13.971,5.06 13.6,4.989 13.216,4.989C11.807,4.988 10.398,4.987 8.989,4.987ZM31.743,4.987C30.069,4.987 28.394,4.989 26.72,4.996C26.452,4.997 26.173,5.064 25.919,5.155C25.38,5.349 25.146,5.718 25.145,6.291L25.145,7.801L34.517,7.801C34.54,7.801 34.564,7.804 34.588,7.804C34.603,7.804 34.618,7.803 34.631,7.798C34.674,7.786 34.731,7.768 34.749,7.734C35.065,7.138 35.375,6.54 35.687,5.942L35.687,5.612C35.583,5.237 35.373,4.988 34.951,4.988L31.743,4.987Z" style="fill:#3db8f5;fill-rule:nonzero;"/></g></g></svg>