<svg xmlns="http://www.w3.org/2000/svg" xml:space="preserve" style="fill-rule:evenodd;clip-rule:evenodd;stroke-linejoin:round;stroke-miterlimit:2" viewBox="0 0 40 40"><path d="M0 0h40v40H0z" style="fill:none"/><path d="M19 4.033C10.972 4.536 4.542 10.971 4.046 19H2.5v2h1.546C4.543 29.031 10.973 35.465 19 35.968V37.5h2v-1.53c8.041-.489 14.487-6.93 14.984-14.97H37.5v-2h-1.517C35.487 10.961 29.042 4.521 21 4.031V2.5h-2zM33.979 21c-.49 6.935-6.041 12.482-12.979 12.966v-2.007c5.827-.482 10.477-5.133 10.958-10.959zM8.042 21C8.523 26.827 13.175 31.478 19 31.959v2.005C12.076 33.466 6.54 27.925 6.05 21zM19 27.434A7.51 7.51 0 0 1 12.566 21H19zM27.433 21A7.51 7.51 0 0 1 21 27.434V21zM19 6.037v6.53A7.51 7.51 0 0 0 12.566 19H6.05C6.54 12.076 12.076 6.534 19 6.037m2-.002c6.937.483 12.489 6.03 12.979 12.965h-6.545A7.51 7.51 0 0 0 21 12.567z" style="fill:#f5d63d"/></svg>