<svg xmlns="http://www.w3.org/2000/svg" xml:space="preserve" style="fill-rule:evenodd;clip-rule:evenodd;stroke-linejoin:round;stroke-miterlimit:2" viewBox="0 0 40 40"><path d="M0 0h40v40H0z" style="fill:none"/><path d="M24 36.443a8 8 0 0 1-1 .485V34h-2v3.441a8 8 0 0 1-.964.059h-.072a8 8 0 0 1-.964-.059V34h-2v2.928a8 8 0 0 1-1-.485V33h8zM12.014 10H19v7h-7v12.536a7.96 7.96 0 0 0 3 6.228V32h10v3.764q.348-.279.667-.597A7.96 7.96 0 0 0 28 29.536V17h-7v-7h6.986a7.96 7.96 0 0 0-7.95-7.5h-.072a7.96 7.96 0 0 0-7.95 7.5M19 18h-5v13h5zm7 0h-5v13h5zm-8 6v6h-3v-6zm7 0v6h-3v-6zm-10-1v-1h3v1zm7 0v-1h3v1zm3-2h-3v-2h3zm-7 0h-3v-2h3zm10-10v5h-6v-5zm-16 0h6v5h-6zm2 1h-1v3h1zm13 0h-1v3h1z" style="fill:#f1de7f"/></svg>