<svg xmlns="http://www.w3.org/2000/svg" xml:space="preserve" style="fill-rule:evenodd;clip-rule:evenodd;stroke-linejoin:round;stroke-miterlimit:2" viewBox="0 0 40 40"><path d="M0 0h40v40H0z" style="fill:none"/><path d="M22.729 32.049a12.8 12.8 0 0 1-4.12-.646 3.8 3.8 0 0 1-.567.723c-.832.831-1.986 1.226-3.275 1.183-1.766-.058-3.802-.956-5.461-2.615s-2.557-3.695-2.615-5.461c-.043-1.289.352-2.443 1.183-3.275a3.8 3.8 0 0 1 .723-.567 12.8 12.8 0 0 1-.646-4.12c-1.783-2.1-2.793-4.472-2.934-6.54-.116-1.713.355-3.229 1.42-4.294s2.581-1.536 4.294-1.42c2.068.141 4.44 1.151 6.54 2.934 3.477-.047 7.284 1.476 10.293 4.485s4.532 6.816 4.485 10.293c1.783 2.1 2.793 4.472 2.934 6.54.116 1.713-.355 3.229-1.42 4.294s-2.581 1.536-4.294 1.42c-2.068-.141-4.44-1.151-6.54-2.934M15.146 8.187c-1.72.37-3.286 1.173-4.536 2.423s-2.053 2.816-2.423 4.536c-1.013-1.505-1.601-3.088-1.698-4.515-.085-1.251.213-2.373.991-3.151s1.9-1.076 3.151-.991c1.427.097 3.01.685 4.515 1.698m2.049 22.673a2 2 0 0 1-.197.223c-.551.551-1.328.78-2.182.752-1.45-.049-3.104-.822-4.467-2.184s-2.135-3.017-2.184-4.467c-.028-.854.201-1.631.752-2.182q.106-.106.223-.197a15.9 15.9 0 0 0 3.296 4.759 15.9 15.9 0 0 0 4.759 3.296m2.097-18.202a13 13 0 0 0-2.161-2.83q-.205-.206-.416-.399c-1.931.142-3.706.869-5.062 2.224-1.355 1.356-2.082 3.131-2.224 5.062q.193.211.399.416a13 13 0 0 0 2.83 2.161 7.35 7.35 0 0 1 2.125-4.509 7.35 7.35 0 0 1 4.509-2.125m-6.597 8.366a6.5 6.5 0 0 0-1.546-.248 5.2 5.2 0 0 0-1.185.092 12 12 0 0 1-.463-2.022c1.016.892 2.1 1.6 3.185 2.115zm4.554 5.822a7.3 7.3 0 0 1-2.466-1.629 7.3 7.3 0 0 1-1.629-2.466c-.696-.308-1.396-.479-2.054-.501a4 4 0 0 0-.59.024 14.6 14.6 0 0 0 2.969 4.247 14.6 14.6 0 0 0 4.247 2.969q.035-.287.024-.59c-.022-.658-.193-1.358-.501-2.054m3.12-11.478h1.853v9.221h-.369v-5.888h-3.732v5.888h-.694v-7.008h2.942zm-.738 0h-2.204v1.475h2.204zm10.868 5.786c-1.016-.892-2.1-1.6-3.185-2.115a7.35 7.35 0 0 0-2.097-4.256 7.35 7.35 0 0 0-4.256-2.097 13.8 13.8 0 0 0-2.115-3.185c2.656.362 5.418 1.721 7.675 3.978s3.616 5.019 3.978 7.675m-9.384 3.435h-2.256v-5.15h2.256zm.039 5.91a12 12 0 0 1-2.022-.463 5.2 5.2 0 0 0 .092-1.185 6.5 6.5 0 0 0-.248-1.546l.063.009a13.8 13.8 0 0 0 2.115 3.185m9.417-7.214a13 13 0 0 0-.399-.416 13 13 0 0 0-2.83-2.161 7.35 7.35 0 0 1-2.125 4.509 7.35 7.35 0 0 1-4.509 2.125 13 13 0 0 0 2.161 2.83q.205.206.416.399c1.931-.142 3.706-.869 5.062-2.224 1.355-1.356 2.082-3.131 2.224-5.062m1.242 1.569c1.013 1.505 1.601 3.088 1.698 4.515.085 1.251-.213 2.373-.991 3.151s-1.9 1.076-3.151.991c-1.427-.097-3.01-.685-4.515-1.698 1.72-.37 3.286-1.173 4.536-2.423s2.053-2.816 2.423-4.536" style="fill:#dbc557"/></svg>