<svg xmlns="http://www.w3.org/2000/svg" xml:space="preserve" style="fill-rule:evenodd;clip-rule:evenodd;stroke-linejoin:round;stroke-miterlimit:2" viewBox="0 0 40 40"><path d="M0 0h40v40H0z" style="fill:none"/><path d="M20 2.5C10.341 2.5 2.5 10.341 2.5 20S10.341 37.5 20 37.5 37.5 29.659 37.5 20 29.659 2.5 20 2.5m-3.143 27.913c.242.82.513 1.562.809 2.213.391.86.818 1.55 1.288 2.019l.061.059a15 15 0 0 0 1.97 0l.061-.059c.47-.469.897-1.159 1.288-2.019.296-.651.567-1.393.809-2.213a27 27 0 0 1-3.143.179c-1.074 0-2.125-.061-3.143-.179m-5.036-1.108a13.9 13.9 0 0 0 2.183 3.066 10 10 0 0 0 2.421 1.886c-.596-1.086-1.124-2.496-1.553-4.149a24 24 0 0 1-3.051-.803m16.358 0c-.963.325-1.984.595-3.051.803-.429 1.653-.957 3.064-1.553 4.149a10 10 0 0 0 2.421-1.886 13.9 13.9 0 0 0 2.183-3.066M6.944 26.838a14.8 14.8 0 0 0 4.251 4.977 18 18 0 0 1-1.869-3.538 16 16 0 0 1-2.382-1.439m26.112 0a16 16 0 0 1-2.382 1.439 18 18 0 0 1-1.869 3.538 14.8 14.8 0 0 0 4.251-4.977m-17.499-5.926 8.886.004c-.052 2.783-.343 5.372-.816 7.58A26 26 0 0 1 20 28.75c-1.249 0-2.463-.088-3.627-.254-.473-2.208-.764-4.799-.816-7.584m10.728.005c-.049 2.611-.305 5.063-.716 7.219a20 20 0 0 0 3.647-1.203c.643-1.826 1.039-3.861 1.127-6.014zM9.657 20.91c.087 2.157.483 4.196 1.127 6.023a20 20 0 0 0 3.647 1.203c-.412-2.157-.668-4.611-.716-7.224zm-4.366-.002q.052.846.196 1.663c.48.879 1.195 1.694 2.09 2.426q.428.352.91.676a23 23 0 0 1-.674-4.764zm26.895.011a23 23 0 0 1-.673 4.754q.482-.325.91-.676c.895-.732 1.61-1.547 2.09-2.426q.143-.811.196-1.651zm-.673-6.592a23 23 0 0 1 .673 4.75l2.522.001q-.052-.838-.195-1.649c-.48-.879-1.195-1.694-2.09-2.426q-.428-.351-.91-.676m-5.944-2.463c.411 2.153.667 4.602.716 7.211l4.058.002c-.088-2.152-.484-4.186-1.127-6.01a20 20 0 0 0-3.647-1.203m-1.942-.36c.472 2.204.763 4.791.816 7.57l-8.886-.004c.053-2.777.344-5.362.816-7.566A26 26 0 0 1 20 11.25c1.249 0 2.463.088 3.627.254m-9.196.36a20 20 0 0 0-3.647 1.203c-.642 1.822-1.037 3.853-1.127 6.001l4.058.002c.049-2.607.305-5.053.716-7.206m-5.944 2.463q-.482.325-.91.676c-.895.732-1.61 1.547-2.09 2.426q-.142.805-.195 1.637l2.522.001a23 23 0 0 1 .673-4.74m20.318-6.142a18 18 0 0 1 1.869 3.538c.871.432 1.669.914 2.382 1.439a14.8 14.8 0 0 0-4.251-4.977m-17.61 0a14.8 14.8 0 0 0-4.251 4.977 16 16 0 0 1 2.382-1.439 18 18 0 0 1 1.869-3.538m12.38-2.442c.596 1.086 1.124 2.496 1.553 4.149 1.067.208 2.088.478 3.051.803a13.9 13.9 0 0 0-2.183-3.066 10 10 0 0 0-2.421-1.886m-7.15 0a10 10 0 0 0-2.421 1.886 13.9 13.9 0 0 0-2.183 3.066 24 24 0 0 1 3.051-.803c.429-1.653.957-3.064 1.553-4.149m4.56-.447a15 15 0 0 0-1.97 0l-.061.059c-.47.469-.897 1.159-1.288 2.019a17 17 0 0 0-.809 2.213A27 27 0 0 1 20 9.408c1.074 0 2.125.061 3.143.179a17 17 0 0 0-.809-2.213c-.391-.86-.818-1.55-1.288-2.019z" style="fill:#f1de7f"/></svg>