<svg xmlns="http://www.w3.org/2000/svg" xml:space="preserve" style="fill-rule:evenodd;clip-rule:evenodd;stroke-linejoin:round;stroke-miterlimit:2" viewBox="0 0 40 40"><path d="M0 0h40v40H0z" style="fill:none"/><path d="M8.5 12.978c2.5-.5 5.083-2.25 7-4s4-4.5 4.5-6.5c.5 2 2.583 4.75 4.5 6.5s4.5 3.5 7 4c-2.5.5-6.664 2.154-8 5-1.917 4.084-3 15.5-3.5 19.5-.5-4-1.583-15.416-3.5-19.5-1.336-2.846-5.5-4.5-8-5m11.434-3.206-.424 2.182a.68.68 0 0 1-.534.534l-2.182.424a.068.068 0 0 0 0 .133l2.182.423a.675.675 0 0 1 .534.535l.424 2.182a.068.068 0 0 0 .132 0l.424-2.182a.675.675 0 0 1 .534-.535l2.182-.423a.068.068 0 0 0 0-.133l-2.182-.424a.68.68 0 0 1-.534-.534l-.424-2.182a.068.068 0 0 0-.132 0" style="fill:#f54d3d"/></svg>