<?xml version="1.0" encoding="UTF-8" standalone="no"?><!DOCTYPE svg PUBLIC "-//W3C//DTD SVG 1.1//EN" "http://www.w3.org/Graphics/SVG/1.1/DTD/svg11.dtd"><svg width="100%" height="100%" viewBox="0 0 40 40" version="1.1" xmlns="http://www.w3.org/2000/svg" xmlns:xlink="http://www.w3.org/1999/xlink" xml:space="preserve" xmlns:serif="http://www.serif.com/" style="fill-rule:evenodd;clip-rule:evenodd;stroke-linejoin:round;stroke-miterlimit:2;"><rect id="plain-conflict" x="0" y="0" width="40" height="40" style="fill:none;"/><g id="plain-conflict1" serif:id="plain-conflict"><g id="Conflict"><path id="Conflict1" serif:id="Conflict" d="M9.286,35C13.571,35 22.571,27.714 22.571,22.571C22.571,19.143 22.571,20.857 22.571,20.857L5,20.857L5,26C5,26 7.571,22.571 9.714,22.571L17.429,22.571C17.429,26 15.286,33.25 9.286,35ZM30.714,5C26.429,5 17.429,12.286 17.429,17.429C17.429,20.857 17.429,19.143 17.429,19.143L35,19.143L35,14C35,14 32.429,17.429 30.286,17.429L22.571,17.429C22.571,14 24.714,6.75 30.714,5Z" style="fill:#f1de7f;"/></g></g></svg>