<svg xmlns="http://www.w3.org/2000/svg" xml:space="preserve" style="fill-rule:evenodd;clip-rule:evenodd;stroke-linejoin:round;stroke-miterlimit:2" viewBox="0 0 40 40"><path d="M0 0h40v40H0z" style="fill:none"/><path d="m24.331 35.54.392.392-1.568 1.568-.784-.784.392-.392.392.392zm-8.662-.588-.392.392.392.392-.392.392.392.392.392-.392.392.392-.392.392.392.392.784-.784-.784-.784.392-.392.784.784.392-.392-1.176-1.176-.784.784zm5.918.98.392.392.392-.392.392.392.392-.392-.392-.392.392-.392-.392-.392zm15.168-16.579L19.902 2.5 3.049 19.353l16.853 16.854zM23.547 34.756l.392.392-.392.392-.392-.392zm1.372-2.155-.784.784 1.568 1.567.392-.392-1.176-1.175.392-.392zm-10.974-.941-1.568 1.568 1.568 1.568.392-.392-1.176-1.176.392-.392.392.392.392-.392-.392-.392.392-.392zm12.542.941.783.784-.783.784-.392-.392.392-.392-.392-.392-.392.392-.392-.392.392-.392.392.392zm-11.759-.157.784.784-.392.392-.783-.784zM33.62 19.353 19.902 5.635 6.184 19.353l13.718 13.718zm-7.917 12.464.392.392-.392.392-.392-.392zm-13.875.078-.392.392-.392-.392.392-.392zm16.618-2.822-1.568 1.568 1.568 1.568 1.568-1.568-.784-.784-.392.392.392.392-.784.784-.784-.784 1.176-1.176zm-8.544.706-3.135-3.136.431-.431-1.176-1.176-1.294 1.294 5.174 5.173 3.88-3.88-.862-.862zm-8.466-.627-.392.392.784.784-.392.391-.784-.783-.784.783.392.392.392-.392.784.784.392-.392.392.392.392-.392-.392-.392.392-.391zm-3.292-1.725-.784.784 1.568 1.568 1.568-1.568-.784-.784-.392.392.392.392-.784.784-.392-.392.392-.392zm22.654.079.784.783-.784.784-.392-.392.392-.392-.392-.391-.392.391-.392-.391 1.176-1.176.392.392.392-.392 1.176 1.176-.784.783-.392-.392.392-.391-.784-.784zM19.941 10.848l-2.077 2.078 2.156 2.155v2.979l-2.901 2.9-3.684-3.684-2.077 2.077 8.544 8.545 2.077-2.078-1.176-1.176 4.429-4.428 1.176 1.175 2.038-2.038-2.43-2.43-1.332 1.333-1.921-1.921 1.333-1.332zM8.928 26.643l-.392.392.392.392.392-.392zm-3.293-.94.392.392-.392.392-.783-.784 1.175-1.176.392.392.392-.392 1.176 1.176-1.568 1.567-.392-.392 1.176-1.175-.784-.784zm28.102-1.921-.783.784.783.784-.392.392-.783-.784-.392.392 1.567 1.568.392-.392-.392-.392.784-.784.392.392.392-.392-.784-.784-.392.392-.392-.392.392-.392zm-7.486-1.136-1.058-1.059-3.214 3.214 1.059 1.058zm-22.34-1.019-1.176 1.175.392.392.392-.392.392.392-.784.784.784.784.392-.392-.392-.392.392-.392.392.392.392-.392-.392-.392.392-.392zm32.178-.196-1.176 1.175.392.392.784-.784.392.392-.392.392.392.392-.784.784.392.392 1.176-1.176-.392-.392.392-.392zm-.392 1.959-.392-.392-.392.392.392.392zM9.476 19.353l3.018-3.018-.862-.862-3.88 3.88 3.88 3.88.862-.862zm22.576 0-5.213-5.212-1.254 1.254 1.137 1.136.392-.392 3.214 3.214-2.979 2.979.862.862zm-15.599-6.584 2.587 2.587v2.508l-1.882 1.881-3.841-3.841zm3.449-5.566-3.88 3.88.862.863 3.018-3.018 3.018 3.018.862-.863z" style="fill:#81a2e4"/></svg>