<?xml version="1.0" encoding="UTF-8" standalone="no"?><!DOCTYPE svg PUBLIC "-//W3C//DTD SVG 1.1//EN" "http://www.w3.org/Graphics/SVG/1.1/DTD/svg11.dtd"><svg width="100%" height="100%" viewBox="0 0 40 40" version="1.1" xmlns="http://www.w3.org/2000/svg" xmlns:xlink="http://www.w3.org/1999/xlink" xml:space="preserve" xmlns:serif="http://www.serif.com/" style="fill-rule:evenodd;clip-rule:evenodd;stroke-linejoin:round;stroke-miterlimit:2;"><rect id="plain-romulan" x="0" y="0" width="40" height="40" style="fill:none;"/><g id="plain-romulan1" serif:id="plain-romulan"><g id="Romulan"><path id="Romulan1" serif:id="Romulan" d="M19.73,26.988C20.008,26.892 20.664,26.695 21.402,26.695L19.589,33.859L17.705,26.53C18.478,26.63 19.182,26.88 19.461,26.989L19.463,26.983L19.583,27.011L19.73,26.988ZM19.594,27.039L19.587,27.04L19.589,27.041C19.59,27.04 19.594,27.039 19.594,27.039ZM19.568,14.507C19.568,14.507 21.603,14.532 22.107,14.561C22.61,14.589 23.905,14.503 24.61,14.287C25.315,14.072 26.423,13.87 26.868,13.87C27.314,13.87 27.616,13.928 27.847,14.1C28.077,14.273 28.293,14.561 27.775,14.561C27.688,14.561 27.487,14.474 27.329,14.46C27.171,14.446 26.494,14.417 26.206,14.474C25.919,14.532 25.2,14.748 24.926,14.906C24.653,15.064 24.524,15.151 24.811,15.136C25.099,15.122 25.185,15.078 25.386,15.165C25.588,15.251 25.603,15.151 25.689,15.122C25.775,15.093 25.948,15.021 26.091,15.194C26.235,15.366 26.394,15.568 26.523,15.381C26.653,15.194 26.897,15.208 27.041,15.352C27.185,15.496 27.357,15.683 27.386,15.438C27.415,15.194 27.487,14.992 27.904,15.208C28.321,15.424 28.278,15.424 28.422,15.28C28.566,15.136 28.667,15.107 28.969,15.266C29.27,15.424 29.558,15.395 29.343,15.222C29.127,15.05 28.839,14.82 29.501,14.762C30.163,14.705 29.904,14.762 30.062,14.748C30.22,14.733 30.216,14.689 30.047,14.647C29.818,14.589 29.846,14.589 29.688,14.517C29.53,14.446 29.587,14.23 29.731,14.187C29.875,14.144 30.58,13.928 30.868,13.899C31.155,13.87 32.321,13.655 32.867,13.64C33.413,13.626 34.162,13.583 34.378,13.597C34.593,13.611 34.593,13.511 34.996,13.381C35.399,13.252 35.917,13.065 36.478,12.964C37.039,12.863 37.14,12.834 37.283,12.777C37.428,12.719 37.658,12.762 37.341,13.021C37.025,13.281 36.075,13.841 35.888,14.014C35.701,14.187 34.884,14.695 35.442,14.892C35.687,14.978 35.737,15.05 35.743,15.171C35.753,15.376 35.458,15.469 35.255,15.568C34.809,15.783 34.004,16.215 33.615,16.517C33.227,16.819 33.299,16.891 33.471,17.078C33.644,17.265 34.147,17.682 33.486,17.812C32.838,17.939 31.946,18.085 31.4,18.287C30.853,18.488 30.331,18.755 30.566,19.107C30.594,19.15 30.688,19.497 30.688,19.632C30.688,19.715 30.711,19.916 30.459,19.959C30.363,19.975 30.208,19.944 30.004,19.912C29.27,19.797 29.127,19.725 28.566,19.697C28.005,19.668 27.99,19.624 28.091,19.926C28.192,20.229 28.26,20.89 27.861,20.624C27.775,20.567 27.012,20.416 26.681,20.445C26.696,20.66 26.624,20.876 26.552,20.991C26.48,21.106 26.423,21.106 26.609,21.12C26.797,21.135 27.012,21.149 27.343,21.12C27.674,21.092 27.775,21.092 27.948,21.077C28.013,21.072 28.199,21.041 28.23,21.144C28.263,21.253 28.228,21.293 28.019,21.408C27.545,21.669 27.132,21.874 26.883,22.142C26.696,22.344 26.782,22.487 26.926,22.631C26.969,22.674 27.271,23.128 26.84,23.314C26.408,23.501 25.703,23.581 25.545,23.653C25.386,23.724 25.29,23.774 25.559,24.012C25.712,24.147 25.759,24.327 25.609,24.445C25.52,24.515 25.309,24.554 25.149,24.573C24.719,24.624 24.15,24.703 23.948,24.775C23.747,24.846 23.545,24.875 23.718,25.278C23.89,25.681 23.661,25.94 23.186,25.811C22.711,25.681 21.993,25.816 21.733,25.868C21.661,25.883 21.301,25.997 21.416,26.213C21.488,26.348 21.51,26.507 21.318,26.59C21.204,26.64 20.989,26.629 20.726,26.659C20.287,26.709 20.384,26.705 20.129,26.76C19.863,26.817 19.589,26.969 19.589,26.969C18.784,26.596 18.179,26.523 17.866,26.471C17.662,26.436 17.568,26.335 17.697,26.148C18.016,25.688 17.144,25.674 17.028,25.659C16.913,25.645 16.079,25.659 16,25.645C15.901,25.627 15.603,25.525 15.705,25.141C15.82,24.71 15.417,24.703 15.266,24.66C15.115,24.617 14.353,24.515 14.31,24.515C13.807,24.515 14.389,23.998 14.007,23.775C13.813,23.661 13.303,23.379 12.994,23.358C12.771,23.342 12.518,23.35 12.871,23.012C13.223,22.674 12.576,22.415 12.497,22.423C12.008,22.467 11.914,21.276 11.541,20.991C11.181,20.716 11.706,20.739 11.763,20.761C12.216,20.931 13.044,20.732 13.101,20.703C13.841,20.334 12.655,20.308 12.522,20.304C11.508,20.277 10.76,20.495 10.609,20.653C10.505,20.762 10.462,20.603 10.49,20.488C10.49,20.322 10.908,20.013 10.274,19.768C9.525,19.479 7.753,19.474 7.678,19.466C7.649,19.272 7.771,19.049 7.793,19.02C8.109,18.599 5.959,17.635 5.57,17.424C5.175,17.208 5.513,17.028 5.599,16.963C5.886,16.748 4.614,15.82 4.254,15.489C3.895,15.158 4.226,14.956 4.333,14.884C3.765,13.834 2.549,13.144 2.528,13.093C2.435,12.877 2.585,12.791 2.801,12.82C4.93,13.104 6.081,13.87 6.081,13.87C6.254,13.813 6.865,13.694 7.807,13.737C8.749,13.78 10.344,13.935 10.202,14.241C10.113,14.435 10.256,14.305 10.537,14.381C10.818,14.456 10.663,14.668 10.634,14.687C10.351,14.864 10.526,14.838 10.562,14.827C11.019,14.69 11.382,14.78 11.404,14.798C11.559,14.927 11.443,15.1 11.42,15.14C11.351,15.257 11.425,15.24 11.456,15.208C11.487,15.176 12.195,14.945 12.22,14.929C12.245,14.913 12.544,14.808 12.564,15.052C12.578,15.226 12.504,15.307 12.47,15.361C12.436,15.415 12.454,15.449 12.475,15.422C12.487,15.408 12.901,15.108 12.961,15.048C13.021,14.988 13.126,15.03 13.168,15.071C13.209,15.113 13.207,15.176 13.195,15.192C13.187,15.201 13.132,15.294 13.114,15.389C13.096,15.485 13.188,15.458 13.198,15.435C13.209,15.411 13.572,15.109 13.673,14.989C13.774,14.868 13.961,14.926 14.006,15.099C14.051,15.271 14.083,15.294 14.112,15.282C14.141,15.269 14.15,15.253 14.152,15.221C14.153,15.194 14.15,15.068 14.15,14.994C14.15,14.92 14.222,14.832 14.322,14.847C14.418,14.86 14.381,14.805 14.381,14.805C14.073,14.599 13.871,14.459 13.194,14.204C12.878,14.086 11.878,14.098 11.778,14.172C11.605,14.302 11.44,14.172 11.591,14.021C11.634,13.978 11.979,13.618 12.655,13.568C13.332,13.518 15,14.036 15.043,14.057C15.086,14.079 16.302,14.532 17.324,14.532C17.431,14.532 19.481,14.507 19.568,14.507ZM13.345,23.302C13.196,23.313 13.464,23.406 13.54,23.437C13.558,23.444 13.69,23.487 13.811,23.539C13.923,23.588 14.238,23.721 14.289,23.812C14.363,23.947 14.34,24.017 14.281,24.199C14.245,24.31 14.295,24.365 14.425,24.39C14.554,24.415 15.061,24.472 15.115,24.48C15.331,24.508 15.73,24.552 15.842,24.717C15.919,24.831 15.911,25.042 15.892,25.138C15.849,25.358 15.903,25.462 15.985,25.494C16.068,25.526 16.298,25.523 16.468,25.516C16.636,25.508 16.82,25.497 17.025,25.501C17.155,25.503 17.393,25.537 17.569,25.585C17.733,25.629 17.838,25.688 17.852,25.695C17.988,25.763 18.071,25.994 17.921,26.166C17.856,26.24 17.823,26.328 18.043,26.361C18.251,26.391 18.5,26.465 18.712,26.512C18.924,26.558 19.233,26.666 19.309,26.681C19.384,26.695 19.565,26.74 19.647,26.695C19.816,26.601 19.668,26.547 19.654,26.396C19.642,26.271 19.655,25.776 19.639,25.497C19.636,25.44 19.607,25.347 19.603,25.317C19.59,25.213 19.55,25.17 19.525,25.208C19.509,25.231 19.503,25.298 19.499,25.361C19.495,25.428 19.456,25.368 19.444,25.518C19.44,25.569 19.408,25.609 19.403,25.645C19.388,25.727 19.377,26.335 19.373,26.411C19.37,26.484 19.42,26.616 19.197,26.523C18.974,26.429 18.18,26.268 18.075,26.264C17.996,26.26 17.985,26.177 18.028,26.148C18.065,26.122 18.098,26.114 18.161,26.098C18.356,26.047 18.316,25.875 18.197,25.8C18.079,25.724 17.852,25.544 17.83,25.526C17.605,25.338 17.259,25.296 17.018,25.289C16.878,25.285 16.575,25.358 16.432,25.401C16.288,25.444 15.982,25.454 15.946,25.361C15.91,25.267 16.076,24.987 16.076,24.987C16.131,24.848 16.176,24.656 16.073,24.518C15.987,24.403 15.796,24.368 15.63,24.34C15.549,24.326 15.246,24.331 14.969,24.336C14.72,24.34 14.493,24.345 14.464,24.336C14.328,24.293 14.395,24.242 14.446,24.177C14.515,24.091 14.536,24.016 14.533,23.915C14.529,23.785 14.454,23.727 14.439,23.713C14.403,23.681 13.957,23.343 13.515,23.293C13.496,23.291 13.479,23.29 13.464,23.29C13.41,23.29 13.371,23.3 13.345,23.302ZM24.746,24.394C24.689,24.415 24.725,24.429 24.617,24.443C24.576,24.449 24.505,24.448 24.425,24.448C24.294,24.447 24.142,24.446 24.071,24.472C23.955,24.515 23.89,24.487 23.725,24.515C23.56,24.544 23.455,24.53 23.304,24.692C23.134,24.874 23.171,25.048 23.186,25.134C23.2,25.22 23.2,25.379 23.2,25.429C23.042,25.422 22.696,25.379 22.395,25.372C22.092,25.364 21.538,25.401 21.208,25.53C20.877,25.659 20.738,25.688 20.755,25.889C20.769,26.062 20.855,26.084 20.934,26.163C21.013,26.242 21.057,26.242 21.071,26.328C21.086,26.414 20.927,26.422 20.812,26.422C20.697,26.422 20.548,26.436 20.553,26.494C20.555,26.516 20.617,26.51 20.675,26.505C20.709,26.502 20.743,26.498 20.762,26.501C20.776,26.503 20.787,26.474 20.809,26.472C20.836,26.471 20.87,26.473 20.9,26.476C20.932,26.479 20.961,26.482 20.977,26.479C21.289,26.427 21.265,26.357 21.243,26.221C21.222,26.084 21.143,25.868 21.373,25.781C21.603,25.695 22.042,25.594 22.294,25.58C22.546,25.566 23.135,25.587 23.301,25.587C23.466,25.587 23.538,25.48 23.481,25.321C23.423,25.163 23.351,25.005 23.502,24.818C23.653,24.631 23.926,24.573 24.301,24.544C24.674,24.515 24.855,24.487 25.055,24.458C25.257,24.429 25.318,24.394 25.167,24.386C25.092,24.383 25.002,24.379 24.923,24.379C24.844,24.379 24.776,24.383 24.746,24.394ZM18.812,21.178C18.704,21.2 18.618,21.293 18.525,21.408C18.431,21.523 18.486,21.531 18.647,21.523C18.805,21.516 18.84,21.757 18.719,22.228C18.64,22.538 18.681,23.015 18.518,23.214C18.316,23.458 18.122,24.034 18.108,24.221C18.093,24.408 18.007,24.775 18.108,25.106C18.208,25.436 18.172,25.055 18.194,24.932C18.215,24.811 18.266,24.271 18.331,24.012C18.395,23.753 18.546,23.336 18.704,23.12C18.863,22.904 18.812,22.696 18.82,22.538C18.827,22.379 19.007,21.437 18.992,21.293C18.982,21.193 18.951,21.166 18.898,21.166C18.874,21.166 18.845,21.172 18.812,21.178ZM20.345,21.308C20.323,21.387 20.301,21.408 20.359,21.574C20.416,21.739 20.445,22.257 20.445,22.365C20.445,22.473 20.4,23.061 20.431,23.192C20.467,23.343 20.632,23.854 20.704,23.955C20.776,24.055 20.884,24.365 20.898,24.472C20.913,24.58 20.934,24.739 20.934,24.818C20.934,24.94 20.927,25.041 20.985,25.062C21.043,25.084 21.05,24.926 21.057,24.861C21.064,24.796 21.086,24.458 21.071,24.358C21.057,24.256 20.905,23.796 20.848,23.71C20.791,23.624 20.64,23.257 20.618,23.135C20.597,23.012 20.597,22.509 20.575,22.257C20.553,22.005 20.474,21.682 20.431,21.596C20.388,21.509 20.431,21.437 20.495,21.437C20.56,21.437 20.69,21.437 20.711,21.43C20.656,21.375 20.654,21.307 20.387,21.307C20.373,21.307 20.359,21.307 20.345,21.308ZM20.747,20.905C20.704,20.912 20.632,20.962 20.826,21.092C21.021,21.221 21.769,22.833 21.819,22.94C21.869,23.049 21.797,23.127 21.948,23.235C22.1,23.343 22.33,23.724 22.452,23.84C22.574,23.955 22.804,24.394 22.862,24.494C22.919,24.594 22.97,24.645 22.956,24.415C22.941,24.185 22.754,23.933 22.689,23.804C22.625,23.674 22.438,23.458 22.416,23.444C22.395,23.429 22.301,23.386 22.344,23.329C22.387,23.271 22.387,23.286 22.207,23.113C22.027,22.94 22.078,22.991 22.027,22.897C21.977,22.804 21.783,22.214 21.647,22.012C21.51,21.811 21.143,21.286 21.1,21.236C21.057,21.185 20.992,21.034 21.215,21.063C21.344,21.08 21.373,21.07 21.416,21.027C21.46,20.984 21.316,20.926 21.229,20.912C21.179,20.904 21.037,20.9 20.92,20.9C20.837,20.9 20.765,20.902 20.747,20.905ZM18.273,20.912C18.079,20.962 18.064,20.934 17.669,21.149C17.273,21.365 17.581,21.275 17.784,21.207C18.129,21.092 18.151,21.267 18.122,21.444C18.1,21.574 18.064,21.639 17.891,21.797C17.666,22.003 17.518,22.444 17.467,22.502C17.373,22.61 17.496,22.66 17.201,22.89C16.991,23.054 16.856,23.286 16.748,23.393C16.64,23.502 16.439,23.775 16.338,24.156C16.237,24.537 16.352,24.336 16.374,24.256C16.396,24.177 16.719,23.653 16.842,23.523C16.964,23.393 17.194,23.019 17.388,22.904C17.582,22.79 17.539,22.71 17.568,22.638C17.597,22.566 17.72,22.282 17.834,22.149C17.964,21.998 18.46,21.322 18.474,21.092C18.484,20.935 18.477,20.885 18.41,20.885C18.379,20.885 18.335,20.896 18.273,20.912ZM18.942,23.314C18.834,23.581 18.638,24.023 18.525,24.199C18.381,24.422 18.518,24.386 18.64,24.321C18.79,24.242 18.97,24.077 19.047,23.892C19.153,23.636 19.117,23.339 19.071,23.214C19.048,23.149 19.029,23.125 19.015,23.125C18.981,23.125 18.965,23.257 18.942,23.314ZM19.554,24.353C19.568,24.336 19.58,24.297 19.589,24.221C19.625,23.918 19.575,23.998 19.64,23.883C19.704,23.768 19.596,23.696 19.683,23.581C19.725,23.525 19.852,23.287 19.926,23.026C20.004,22.749 20.035,22.538 20.05,22.372C20.063,22.223 19.993,21.588 19.992,21.487C19.985,20.862 19.915,20.626 20.237,20.351C20.287,20.308 20.418,20.318 20.452,20.013C20.465,19.904 20.445,19.868 20.415,19.868C20.376,19.868 20.319,19.932 20.294,19.977C20.251,20.056 19.776,20.545 19.783,20.847C19.789,21.092 19.87,21.754 19.834,22.063C19.807,22.295 19.683,22.648 19.622,22.644C19.627,22.623 19.589,22.6 19.589,22.502C19.589,22.106 19.611,22.027 19.553,21.789C19.495,21.552 19.38,21.336 19.359,21.142C19.338,20.948 19.338,20.782 19.294,20.703C19.27,20.659 19.225,20.667 19.188,20.674C19.159,20.68 19.135,20.686 19.129,20.667C19.115,20.624 19.115,20.595 19.222,20.524C19.33,20.452 19.318,20.359 19.33,20.286C19.344,20.2 19.359,20.092 19.237,20.164C19.115,20.236 19.151,20.337 19.014,20.214C18.877,20.092 18.805,19.934 18.733,19.891C18.661,19.847 18.553,19.74 18.726,19.74C18.769,19.74 18.96,19.765 18.983,19.748C19.093,19.668 18.963,19.603 18.927,19.524C18.892,19.445 18.912,19.328 18.919,19.164C18.927,18.983 18.898,18.863 18.892,18.819C18.881,18.746 18.887,18.558 18.986,18.46C19.024,18.421 19.086,18.412 19.143,18.38C19.344,18.265 19.38,18.128 19.46,18.02C19.539,17.912 19.568,17.675 19.388,17.927C19.208,18.179 19.176,18.266 18.992,18.301C18.877,18.323 18.956,18.459 18.805,18.502C18.654,18.546 18.697,18.632 18.553,18.43C18.41,18.229 18.187,17.905 18.086,17.834C17.985,17.762 17.662,17.38 17.539,17.258C17.417,17.136 17.071,16.64 17.057,16.517C17.051,16.46 16.997,16.371 16.998,16.28C16.999,16.162 16.989,16.058 16.923,16.058C16.896,16.058 16.86,16.075 16.813,16.114C16.554,16.33 16.712,16.661 16.798,16.762C16.885,16.862 17.637,17.99 17.906,18.128C18.072,18.214 18.295,18.352 18.386,18.447C18.456,18.521 18.443,18.588 18.331,18.581C18.071,18.567 18.28,19.222 18.381,19.308C18.45,19.367 18.525,19.495 18.575,19.639C18.606,19.73 18.561,19.869 18.596,20.027C18.607,20.076 18.741,20.25 18.934,20.383C18.998,20.426 18.999,20.513 19.028,20.588C19.143,20.883 19.093,20.991 19.143,21.257C19.166,21.378 19.151,21.631 19.201,21.775C19.251,21.919 19.344,22.185 19.366,22.235C19.388,22.286 19.438,22.372 19.373,22.71C19.309,23.049 19.309,23.581 19.323,23.674C19.338,23.768 19.417,24.127 19.438,24.192C19.455,24.241 19.556,24.418 19.554,24.353ZM19.553,23.968C19.552,24.044 19.552,24.113 19.552,24.172C19.552,24.232 19.552,24.281 19.553,24.317C19.552,24.245 19.552,24.12 19.553,23.968ZM26.246,23.304C26.171,23.311 26.253,23.325 26.117,23.347C25.98,23.368 25.653,23.379 25.477,23.419C25.3,23.458 25.113,23.516 24.97,23.66C24.913,23.716 24.88,23.752 24.91,23.815C24.97,23.94 25.048,23.929 25.077,23.983C25.12,24.063 25.142,24.102 25.232,24.16C25.322,24.217 25.451,24.282 25.487,24.253C25.531,24.218 25.419,24.135 25.401,24.113C25.369,24.073 25.2,23.973 25.2,23.775C25.2,23.652 25.343,23.566 25.444,23.538C25.545,23.509 25.779,23.444 25.901,23.422C26.023,23.401 26.279,23.347 26.318,23.332C26.352,23.32 26.33,23.302 26.276,23.302C26.267,23.302 26.257,23.303 26.246,23.304ZM20.266,23.005C20.188,23.034 20.186,23.068 20.186,23.277L20.186,23.293C20.186,23.516 20.237,23.753 20.366,23.955C20.42,24.039 20.495,24.221 20.589,24.214C20.625,24.211 20.632,24.12 20.597,24.062C20.56,24.005 20.495,23.789 20.431,23.681C20.366,23.574 20.337,23.314 20.323,23.221C20.31,23.135 20.339,23.002 20.283,23.002C20.278,23.002 20.272,23.003 20.266,23.005ZM17.841,22.358C17.726,22.588 17.683,22.638 17.705,22.724C17.726,22.811 17.69,22.976 17.597,22.983C17.503,22.991 17.453,23.005 17.367,23.099C17.28,23.192 16.978,23.588 16.964,23.609C16.826,23.815 16.892,23.854 17.007,23.861C17.122,23.868 17.554,23.717 17.69,23.653C17.827,23.588 18.201,23.3 18.194,22.861C18.189,22.588 18.093,22.43 18.093,22.401C18.093,22.381 18.029,22.26 17.951,22.26C17.916,22.26 17.877,22.285 17.841,22.358ZM21.413,22.717C21.384,22.732 21.395,22.764 21.388,22.833C21.383,22.877 21.412,22.945 21.423,23.027C21.429,23.078 21.407,23.139 21.438,23.192C21.513,23.322 21.617,23.458 21.654,23.495C21.689,23.53 21.999,23.804 21.941,23.76C21.914,23.74 21.948,23.773 21.997,23.807C22.05,23.842 22.118,23.878 22.143,23.847C22.201,23.77 22.15,23.746 22.128,23.717C22.107,23.688 22.035,23.559 21.985,23.516C21.934,23.472 21.862,23.386 21.776,23.329C21.689,23.271 21.689,23.228 21.668,23.17C21.647,23.113 21.553,22.861 21.517,22.811C21.486,22.768 21.463,22.713 21.429,22.713C21.424,22.713 21.418,22.714 21.413,22.717ZM19.555,23.844C19.555,23.824 19.556,23.803 19.556,23.782L19.555,23.844ZM21.33,20.502C21.258,20.574 21.416,20.631 21.474,20.675C21.509,20.701 21.665,20.79 21.806,20.917C21.894,20.997 21.963,21.109 22.035,21.178C22.222,21.358 22.754,22.012 22.804,22.07C22.855,22.127 22.977,22.394 23.035,22.466C23.092,22.538 23.675,22.818 23.833,22.962C23.913,23.035 24.107,23.166 24.267,23.312C24.422,23.454 24.543,23.611 24.602,23.688C24.725,23.847 24.718,23.739 24.66,23.631C24.602,23.523 24.66,23.48 24.552,23.329C24.445,23.178 23.984,22.854 23.812,22.768C23.639,22.681 23.214,22.452 23.128,22.351C23.042,22.25 22.977,22.192 23.035,22.092C23.092,21.991 23.171,22.056 23.272,22.12C23.373,22.185 23.783,22.372 23.963,22.423C24.143,22.473 24.926,22.581 25.135,22.588C25.343,22.595 25.984,22.552 26.091,22.523C26.199,22.495 26.25,22.372 26.171,22.293C26.091,22.214 25.308,21.861 25.308,21.861C25.128,21.804 25.013,21.674 24.754,21.833C24.495,21.991 23.982,21.821 23.869,21.782C23.552,21.674 23.292,21.565 22.97,21.178C22.898,21.092 22.639,20.869 22.589,20.847C22.539,20.825 22.481,20.754 22.38,20.775C22.279,20.797 22.315,20.948 22.315,20.998C22.315,21.049 22.395,21.243 22.409,21.279C22.423,21.315 22.416,21.466 22.301,21.344C22.186,21.221 21.848,20.804 21.776,20.775C21.704,20.746 21.617,20.725 21.632,20.66C21.638,20.632 21.618,20.578 21.682,20.559C21.762,20.534 21.938,20.546 22.042,20.538C22.229,20.524 21.812,20.502 21.617,20.502C21.531,20.502 21.464,20.47 21.407,20.47C21.379,20.47 21.354,20.478 21.33,20.502ZM19.557,23.713L19.556,23.765L19.558,23.682L19.557,23.713ZM17.777,20.545C17.532,20.56 17.144,20.56 16.856,20.746C16.568,20.934 16.05,21.265 15.949,21.38C15.849,21.494 15.892,21.581 15.662,21.639C15.547,21.667 15.144,21.725 14.777,21.854C14.41,21.984 14.079,22.185 14.051,22.214C13.909,22.355 13.677,22.43 14.051,22.43C14.526,22.43 15.259,22.444 15.633,22.271C16.007,22.099 15.993,22.315 15.763,22.444C15.648,22.509 15.453,22.627 15.29,22.8C15.126,22.973 14.992,23.199 14.943,23.307C14.869,23.47 14.807,23.644 14.857,23.628C14.88,23.621 14.909,23.557 15,23.465C15.288,23.178 15.692,22.612 16.101,22.394C16.719,22.063 16.295,22.156 16.511,21.984C16.602,21.911 16.776,21.711 17.009,21.489C17.328,21.186 17.72,20.848 17.82,20.79C17.985,20.693 18.018,20.544 17.806,20.544C17.797,20.544 17.787,20.545 17.777,20.545ZM19.568,23.341L19.561,23.562C19.563,23.488 19.565,23.414 19.568,23.341ZM22.143,21.861C22.027,21.897 22.107,22.135 22.121,22.199C22.136,22.264 22.193,22.588 22.416,22.71C22.489,22.75 22.533,22.82 22.587,22.87C22.697,22.973 22.803,23.06 22.963,23.113C23.2,23.192 23.632,23.314 23.847,23.343C24.063,23.372 24.063,23.35 23.955,23.25C23.847,23.149 23.38,22.782 23.186,22.717C22.992,22.653 22.999,22.681 22.855,22.595C22.711,22.509 22.589,22.315 22.531,22.221C22.473,22.127 22.373,22.027 22.373,22.027C22.318,21.93 22.274,21.853 22.192,21.853C22.177,21.853 22.161,21.856 22.143,21.861ZM19.578,23.111C19.576,23.145 19.575,23.18 19.573,23.215C19.572,23.251 19.57,23.287 19.569,23.324C19.572,23.251 19.575,23.179 19.578,23.111ZM26.818,21.883C26.595,21.916 26.511,22.034 26.48,22.092C26.457,22.134 26.426,22.387 26.52,22.52C26.613,22.653 26.692,22.851 26.725,22.908C26.757,22.965 26.774,22.994 26.748,23.05C26.726,23.097 26.68,23.078 26.69,23.131C26.696,23.158 26.692,23.111 26.829,23.102C26.888,23.098 26.931,23.019 26.915,22.962C26.874,22.815 26.779,22.714 26.736,22.634C26.692,22.556 26.624,22.401 26.634,22.311C26.645,22.221 26.703,22.102 26.836,22.02C26.969,21.937 27.088,21.822 27.095,21.789C27.096,21.785 27.095,21.783 27.093,21.783C27.081,21.783 27.009,21.855 26.818,21.883ZM12.181,21.933C12.274,22.156 12.404,22.271 12.706,22.343C12.769,22.359 13.076,22.469 13.101,22.602C13.111,22.654 13.144,22.808 13.065,22.947C12.943,23.164 13.114,22.984 13.137,22.947C13.166,22.901 13.235,22.84 13.259,22.768C13.332,22.552 13.216,22.315 12.979,22.235C12.78,22.169 12.616,22.095 12.522,22.024C12.411,21.939 12.312,21.862 12.195,21.725C12.148,21.671 12.121,21.649 12.107,21.649C12.067,21.649 12.135,21.826 12.181,21.933ZM19.584,23.017C19.585,23 19.586,22.984 19.587,22.967L19.584,23.017ZM16.863,21.761C16.716,21.942 16.554,22.084 16.532,22.178C16.511,22.271 16.547,22.315 16.432,22.379C16.317,22.444 15.949,22.681 15.892,22.761C15.835,22.84 15.669,22.947 15.906,22.962C16.144,22.976 16.626,22.89 16.942,22.624C17.259,22.358 17.237,22.379 17.287,22.106C17.338,21.833 17.23,21.739 17.216,21.682C17.208,21.65 17.175,21.585 17.106,21.585C17.051,21.585 16.972,21.626 16.863,21.761ZM19.595,22.859L19.59,22.924C19.591,22.902 19.593,22.88 19.595,22.859ZM19.606,22.748L19.598,22.826C19.6,22.798 19.603,22.772 19.606,22.748ZM19.618,22.665C19.619,22.661 19.619,22.658 19.62,22.654L19.618,22.665ZM13.343,19.512C13.332,19.589 13.326,19.668 13.326,19.749C13.326,20.162 13.479,20.541 13.73,20.832C13.64,20.751 13.496,20.67 13.281,20.811C12.986,21.005 12.398,20.847 12.555,21.056C12.576,21.084 13.013,21.584 13.806,21.631C14.288,21.66 13.936,21.854 13.792,22.012C13.754,22.055 13.59,22.197 13.525,22.285C13.439,22.401 13.533,22.43 13.612,22.336C13.685,22.251 14.072,21.61 15.259,21.61C15.367,21.61 15.64,21.581 15.734,21.487C15.755,21.466 15.854,21.332 15.984,21.216C16.143,21.073 16.332,20.941 16.28,20.898C16.187,20.819 16.528,20.751 16.561,20.531C16.569,20.479 16.553,20.405 16.539,20.333C16.567,20.258 16.589,20.182 16.607,20.103C16.615,20.103 16.624,20.105 16.633,20.106C16.699,20.12 16.787,20.116 16.875,20.112C17.077,20.103 17.283,20.094 17.244,20.286C17.23,20.358 17.341,20.339 17.438,20.292C17.605,20.211 17.777,20.045 17.604,20.027C17.467,20.013 17.172,20.015 16.904,20.016C16.804,20.017 16.706,20.018 16.623,20.018C16.637,19.93 16.645,19.84 16.645,19.749C16.645,19.659 16.637,19.57 16.623,19.484C16.83,19.388 17.12,19.286 17.129,19.495C17.144,19.819 17.115,19.682 17.273,19.625C17.431,19.567 17.46,19.61 17.662,19.466C17.733,19.415 17.838,19.369 17.901,19.31C18.013,19.204 18.012,19.06 17.82,19.193C17.705,19.272 17.578,19.448 17.458,19.503C17.296,19.577 17.287,19.394 17.374,19.322C17.406,19.296 17.5,19.167 17.48,19.084C17.465,19.022 17.387,18.986 17.172,19.035C16.911,19.095 16.711,19.185 16.572,19.263C16.555,19.206 16.534,19.15 16.511,19.096C16.697,18.957 16.805,18.825 16.64,18.804C16.41,18.776 16.681,18.506 16.525,18.373C16.036,17.956 15.582,17.258 15.461,16.862C15.403,16.675 15.068,16.669 15.202,16.891C15.245,16.963 15.29,17.212 14.827,16.934C14.756,16.891 14.441,16.794 13.749,16.776C13.173,16.762 13.555,16.896 13.418,17.251C13.347,17.433 13.394,17.544 13.411,17.633C13.436,17.763 13.461,17.838 13.504,17.949C13.617,18.243 13.605,18.438 13.418,18.1C13.418,18.1 13.202,17.733 13.245,17.373C13.288,17.013 13.173,16.726 13.101,16.524C13.029,16.323 12.976,15.848 12.986,15.747C12.998,15.637 12.962,15.555 12.925,15.555C12.895,15.555 12.863,15.611 12.857,15.755C12.857,15.755 12.93,16.537 13.044,16.841C13.065,16.898 13.202,17.161 12.936,17.294C12.907,17.308 11.622,17.596 11.526,18.941C11.519,19.042 11.49,19.567 11.447,19.66C11.404,19.754 11.368,19.819 11.569,19.826C11.667,19.829 11.843,19.799 12.056,19.768C12.28,19.736 12.544,19.703 12.799,19.711C13.044,19.718 12.953,19.648 12.929,19.574C12.924,19.56 12.811,19.241 12.89,19.055C12.958,18.898 13.061,18.78 13.31,18.733C13.576,18.682 13.619,18.747 13.605,18.79C13.59,18.833 13.526,18.876 13.468,18.912C13.411,18.949 13.245,19.164 13.339,19.495C13.34,19.501 13.342,19.506 13.343,19.512ZM17.05,20.869C17.033,21.004 17.021,21.2 16.748,21.423C16.475,21.646 16.309,21.797 16.237,21.833C16.165,21.869 15.971,21.948 16.151,22.041C16.331,22.135 16.295,22.077 16.388,22.005C16.482,21.933 16.712,21.667 16.87,21.538C17.029,21.408 17.503,20.941 17.626,20.883C17.748,20.826 17.726,20.739 17.604,20.675C17.482,20.61 17.079,20.639 17.05,20.869ZM24.988,18.351C24.917,18.329 24.843,18.311 24.768,18.298C24.964,18.147 25.131,18.145 25.25,18.15C25.43,18.157 25.336,18.049 25.322,18.028C25.308,18.006 25.25,17.898 25.308,17.776C25.365,17.654 25.365,17.33 25.365,17.251C25.365,17.172 25.343,16.999 25.473,16.884C25.588,16.782 25.544,16.753 25.472,16.753C25.463,16.753 25.454,16.754 25.444,16.755C25.358,16.762 25.237,16.78 24.933,16.877C24.617,16.978 24.027,17.351 23.97,17.402C23.716,17.623 23.229,18.006 23.035,18.452C22.856,18.862 22.921,19.071 22.983,19.181C22.956,19.231 22.932,19.284 22.91,19.337C22.829,19.25 22.732,19.164 22.625,19.114C22.501,19.056 21.977,19.035 21.747,19.063C21.517,19.092 21.647,19.459 21.617,19.502C21.589,19.545 21.553,19.531 21.531,19.538C21.34,19.602 21.064,19.373 20.92,19.287C20.787,19.207 20.899,18.95 20.867,18.95C20.864,18.95 20.86,18.952 20.855,18.956C20.791,19.006 20.762,19.229 20.848,19.344C20.934,19.459 21.171,19.653 21.366,19.682C21.56,19.711 21.913,19.804 21.948,19.804C22.029,19.804 22.078,19.783 21.948,19.581C21.819,19.38 22.006,19.358 22.337,19.394C22.532,19.415 22.708,19.515 22.83,19.598C22.805,19.715 22.791,19.836 22.791,19.961C22.791,20.012 22.793,20.063 22.798,20.113L22.797,20.114C22.732,20.146 22.759,20.384 22.936,20.645C23.199,21.236 23.792,21.649 24.479,21.649C24.632,21.649 24.78,21.628 24.921,21.59C24.986,21.645 25.144,21.639 25.322,21.646C25.509,21.653 26.242,21.617 26.394,21.581C26.545,21.545 26.811,21.451 26.933,21.387C26.811,21.329 26.372,21.214 26.178,21.2C25.984,21.185 25.797,21.236 25.696,21.272C25.595,21.308 25.476,21.434 25.39,21.448C25.332,21.458 25.286,21.464 25.253,21.46C25.795,21.179 26.167,20.613 26.167,19.961C26.167,19.918 26.165,19.875 26.162,19.832L26.091,20.196C26.094,20.239 26.085,20.297 26.056,20.379L26.091,20.196C26.086,20.099 26.025,20.075 26.005,20.02C25.987,19.971 25.919,19.998 25.876,19.977C25.685,19.881 25.937,19.82 26.049,19.696C26.076,19.666 26.101,19.622 26.121,19.57L26.121,19.57C26.164,19.461 26.189,19.314 26.176,19.183L26.175,19.175C26.164,19.072 26.13,18.979 26.063,18.92C25.896,18.771 25.805,18.755 25.751,18.78L25.75,18.781C25.735,18.789 25.723,18.799 25.713,18.81L25.713,18.81C25.696,18.83 25.684,18.853 25.675,18.869C25.638,18.927 25.473,19.387 25.308,19.646C25.142,19.905 25.149,19.617 25.149,19.531C25.149,19.445 25.2,19.071 25.2,19.027C25.2,18.968 25.229,18.517 25.135,18.488C24.939,18.428 24.898,18.473 24.711,18.603C24.524,18.733 24.488,18.941 24.495,19.02C24.5,19.084 24.574,19.193 24.574,19.25C24.574,19.308 24.581,19.495 24.509,19.495C24.437,19.495 24.441,19.467 24.394,19.359C24.351,19.257 24.308,19.042 24.164,19.006C23.696,18.889 23.567,18.999 23.509,19.042L23.416,18.934L23.761,18.704L24.423,18.747L24.624,18.546L24.988,18.351ZM24.912,21.581C24.887,21.552 24.898,21.469 24.926,21.405C24.955,21.34 25.044,21.171 25.074,21.117C25.113,21.045 25.164,20.948 25.106,20.898C25.048,20.847 24.984,20.916 24.912,20.98C24.816,21.067 24.559,21.257 24.495,21.3C24.43,21.344 24.293,21.437 24.135,21.473L24.912,21.581ZM15.676,21.408C15.432,21.495 14.936,21.523 14.727,21.43C14.518,21.336 14.257,21.047 14.353,20.703C14.439,20.394 14.436,20.338 14.612,20.524C14.979,20.912 15.165,21.113 15.31,21.12C15.548,21.132 15.748,21.157 15.842,20.977C15.935,20.797 15.921,20.862 15.971,20.97C15.997,21.024 15.935,21.286 15.676,21.408ZM16.439,19.811C16.439,20.056 16.253,20.591 15.827,20.869C15.64,20.991 15.555,20.908 15.544,20.87C15.528,20.814 15.855,20.683 15.971,20.538C16,20.502 16.216,20.171 16.209,19.768C16.201,19.366 16.053,19.132 16.015,19.107C15.95,19.063 15.85,18.83 16.094,18.992C16.137,19.02 16.439,19.328 16.439,19.811ZM32.766,17.769C32.658,17.79 32.392,17.841 32.162,17.884C31.932,17.927 31.4,18.063 31.062,18.208C30.73,18.349 30.486,18.445 30.314,18.575C30.164,18.687 30.012,18.999 30.177,19.287C30.342,19.574 30.033,19.46 29.868,19.423C29.803,19.409 29.314,19.351 29.055,19.351C28.796,19.351 28.055,19.43 27.933,19.445C27.811,19.459 27.087,19.516 27.321,19.926C27.35,19.977 27.53,20.135 27.516,20.207C27.501,20.279 27.35,20.157 27.314,20.135C27.278,20.114 27.034,20.02 26.804,20.006C26.573,19.991 26.3,19.991 26.329,19.991C26.494,19.991 26.178,19.926 26.213,20.121C26.242,20.269 26.329,20.229 26.394,20.229C26.564,20.229 27.422,20.286 27.71,20.402C27.917,20.484 28.005,20.416 27.948,20.308C27.89,20.2 27.856,20.057 27.731,19.905C27.537,19.668 27.627,19.588 27.782,19.56C27.861,19.545 28.178,19.502 28.674,19.531C28.979,19.549 29.882,19.696 29.975,19.718C30.069,19.74 30.529,19.855 30.472,19.488C30.414,19.121 30.347,19.048 30.328,18.876C30.299,18.61 30.976,18.308 31.321,18.186C31.632,18.076 32.623,17.841 32.809,17.812C32.957,17.789 32.913,17.762 32.834,17.762C32.813,17.762 32.789,17.764 32.766,17.769ZM7.151,17.826C6.847,17.688 6.675,17.651 6.613,17.625C6.561,17.603 6.363,17.546 6.281,17.546C6.205,17.546 6.23,17.595 6.57,17.769C7.275,18.128 7.822,18.502 7.879,18.56C7.937,18.618 8.124,18.675 7.98,18.977C7.836,19.279 8.009,19.337 8.282,19.337C8.556,19.337 9.755,19.457 10.037,19.524C10.339,19.595 10.583,19.631 10.697,19.714C10.76,19.76 10.746,19.867 10.757,19.969C10.774,20.144 10.584,20.473 11.088,20.257C11.591,20.042 12.9,20.056 13.144,20.114C13.389,20.171 13.447,20.114 13.101,19.955C12.756,19.797 11.447,19.969 11.317,20.042C11.188,20.114 11.088,20.171 11.159,19.84C11.231,19.509 11.102,19.639 10.627,19.452C10.452,19.383 10.148,19.344 9.748,19.275C9.391,19.213 8.957,19.115 8.469,19.135C8.042,19.153 8.124,19.035 8.268,18.891C8.412,18.747 8.383,18.546 7.908,18.244C7.671,18.093 7.469,17.98 7.299,17.896C7.379,17.758 7.514,17.511 7.721,17.912C7.839,18.14 8.017,18.02 8.153,18.128C8.225,18.186 8.383,18.272 8.484,18.445C8.584,18.373 9.224,17.211 10.008,16.819C10.095,16.776 10.152,16.632 10.224,16.531C10.296,16.431 10.67,15.683 11.044,15.395C11.29,15.206 11.3,15.06 11.175,15.06C11.11,15.06 11.009,15.1 10.886,15.194C10.526,15.467 10.239,15.683 10.051,16.143C9.916,16.478 9.886,16.448 9.764,16.417C9.718,16.406 9.659,16.394 9.577,16.402C9.43,16.416 8.967,16.427 8.414,16.752C7.896,17.058 7.331,17.532 7.151,17.826ZM22.618,16.244C22.503,16.309 22.416,16.402 22.322,16.546C22.229,16.69 22.172,16.927 22.056,17.043C21.941,17.157 21.654,17.467 21.589,17.632C21.524,17.798 21.38,17.999 21.243,18.114C21.167,18.178 21.058,18.24 20.964,18.302C20.889,18.352 20.829,18.409 20.769,18.409C20.632,18.409 20.69,18.344 20.488,18.258C20.287,18.172 20.359,18.315 20.402,18.387C20.445,18.459 20.51,18.639 20.495,18.79C20.481,18.941 20.381,19.265 20.323,19.358C20.266,19.452 20.006,19.768 19.963,19.833C19.92,19.898 19.841,19.969 19.891,19.984C19.942,19.998 19.934,20.027 20.021,19.955C20.107,19.883 20.179,19.819 20.258,19.783C20.318,19.756 20.388,19.675 20.416,19.704C20.54,19.828 20.517,19.502 20.539,19.366C20.56,19.229 20.656,18.837 20.97,18.625C21.236,18.445 21.488,18.315 21.596,17.927C21.676,17.64 21.725,17.725 21.855,17.654C21.985,17.582 22.236,17.279 22.409,17.1C22.581,16.92 22.668,16.64 22.689,16.582C22.711,16.524 22.812,16.266 22.776,16.237C22.756,16.22 22.745,16.205 22.719,16.205C22.699,16.205 22.669,16.215 22.618,16.244ZM25.869,17.366C25.638,17.488 25.66,17.869 25.595,17.977C25.531,18.085 25.545,18.114 25.667,18.157C25.789,18.2 25.825,18.359 25.775,18.423C25.725,18.488 25.76,18.603 25.825,18.581C25.92,18.55 26.07,18.596 26.163,18.654C26.257,18.711 26.581,18.949 26.581,19.279C26.581,19.61 26.365,19.718 26.307,19.79C26.379,19.79 26.775,19.819 26.976,19.826C26.976,19.826 27.015,19.62 27.07,19.416C27.207,18.905 27.409,17.705 27.077,17.38C26.931,17.237 26.742,17.188 26.554,17.188C26.279,17.188 26.005,17.293 25.869,17.366ZM12.279,15.273C12.241,15.273 12.096,15.319 11.979,15.51C11.619,16.1 11.533,16.79 11.461,16.934C11.389,17.078 11.512,17.251 10.886,17.409C10.408,17.53 9.707,18.563 9.577,18.761C9.454,18.949 9.34,19.142 9.85,19.121C10.234,19.105 10.857,19.322 11.058,19.423C11.26,19.524 11.375,19.595 11.36,19.25C11.346,18.905 11.436,17.844 11.562,17.718C11.603,17.678 11.665,17.541 11.692,17.424C11.762,17.127 11.766,16.72 11.792,16.582C11.843,16.316 12.014,15.846 12.073,15.769C12.166,15.647 12.357,15.274 12.28,15.273L12.279,15.273ZM18.41,18.797C18.424,18.682 18.51,18.596 18.589,18.61C18.668,18.625 18.738,18.662 18.724,18.893C18.717,19.015 18.707,19.121 18.681,19.198C18.658,19.27 18.609,19.315 18.571,19.304C18.492,19.283 18.541,19.251 18.525,19.159C18.507,19.06 18.464,19.134 18.465,18.977C18.467,18.877 18.395,18.912 18.41,18.797ZM16.218,19.022C16.181,19.016 16.205,18.938 16.216,18.92C16.266,18.837 16.21,18.437 15.691,18.783C15.604,18.84 15.396,19.02 15.36,19.135C15.324,19.25 15.209,19.437 15.202,19.128C15.194,18.819 15.518,18.488 15.209,18.466C15.015,18.453 14.934,18.469 14.924,18.44C14.899,18.366 14.943,18.322 15.086,18.301C15.212,18.282 15.281,18.416 15.561,18.315C15.718,18.259 15.96,18.122 16.129,18.195C16.374,18.301 16.353,18.647 16.324,18.855C16.295,19.056 16.252,19.027 16.218,19.022ZM15.014,18.145C14.998,18.165 14.917,18.085 14.827,18.063C14.705,18.035 14.209,17.963 14.166,18.963C14.15,19.338 14.159,19.366 13.96,19.107C13.856,18.971 13.77,18.682 13.742,18.596C13.662,18.358 13.536,17.853 14.31,17.776C14.741,17.733 14.842,17.862 14.936,17.941C14.995,17.992 15.041,18.113 15.014,18.145ZM28.688,15.704C28.955,15.942 29.252,16.615 29.278,17.028C29.285,17.143 29.408,17.301 29.465,17.387C29.522,17.474 29.731,17.725 29.767,17.977C29.803,18.229 29.789,18.618 29.796,18.747C29.8,18.811 29.731,19.229 29.828,19.248C29.846,19.251 29.875,19.01 29.889,18.862C29.918,18.567 30.163,18.301 30.307,18.244C30.373,18.217 31.069,17.891 31.256,17.869C31.443,17.848 31.411,17.723 31.155,17.769C30.954,17.805 30.875,17.567 30.832,17.532C30.703,17.424 30.386,17.05 30.112,16.927C29.971,16.864 29.832,16.769 29.71,16.8C29.576,16.833 29.619,16.94 29.616,17.035C29.612,17.157 29.554,17.176 29.508,17.12C29.475,17.081 29.452,16.993 29.444,16.927C29.422,16.769 29.314,16.366 29.256,16.208C29.199,16.049 28.81,15.575 28.724,15.525C28.696,15.508 28.653,15.496 28.618,15.496C28.548,15.496 28.51,15.545 28.688,15.704ZM27.591,15.87C27.673,16.286 27.523,16.911 27.422,17.086C27.292,17.308 27.3,17.323 27.387,17.524C27.556,17.922 27.314,18.934 27.285,19.092C27.257,19.25 27.314,19.193 27.66,19.092C28.011,18.99 29.068,19.108 29.256,19.135C29.235,18.984 29.415,18.56 28.897,18.071C28.282,17.49 27.742,17.575 27.645,17.524C27.372,17.38 27.861,17.136 27.875,16.618C27.89,16.1 27.818,15.726 27.645,15.481C27.618,15.443 27.586,15.401 27.563,15.401C27.529,15.401 27.519,15.502 27.591,15.87ZM25.538,15.402C25.451,15.474 25.236,15.69 25.135,15.805C25.034,15.92 24.581,16.337 24.459,16.445C24.336,16.553 23.948,16.819 23.861,16.87C23.775,16.92 23.747,16.905 23.625,17.143C23.502,17.38 23.279,17.582 23.157,17.704C23.035,17.826 22.776,18.063 22.661,18.121C22.546,18.179 22.33,18.351 22.243,18.416C22.157,18.481 22.078,18.603 21.977,18.646C21.876,18.689 21.807,18.776 21.74,18.826C21.711,18.848 21.654,18.898 21.682,18.941C21.697,18.962 21.74,18.999 21.862,18.876C21.985,18.754 22.081,18.722 22.247,18.578C22.247,18.578 22.466,18.359 22.531,18.315C22.596,18.272 23.085,17.905 23.287,17.718C23.488,17.532 23.675,17.179 23.847,17.028C24.02,16.877 24.358,16.683 24.423,16.64C24.488,16.596 25.055,16.157 25.178,16.035C25.3,15.913 25.588,15.582 25.638,15.518C25.689,15.453 25.746,15.359 25.71,15.359C25.694,15.359 25.676,15.354 25.652,15.354C25.622,15.354 25.585,15.362 25.538,15.402ZM14.54,15.194C14.511,15.222 14.503,15.302 14.597,15.402C14.806,15.625 15.511,16.143 15.583,16.179C15.655,16.215 15.799,16.359 15.892,16.611C15.985,16.862 16.058,17.1 16.158,17.229C16.259,17.359 16.906,18.056 17.057,18.172C17.209,18.287 17.359,18.473 17.367,18.61C17.374,18.747 17.511,18.919 17.511,18.733C17.511,18.546 17.489,18.387 17.259,18.121C17.028,17.855 16.504,17.38 16.482,17.33C16.46,17.279 16.223,17.164 16.079,16.632C15.935,16.1 15.518,15.899 15.489,15.877C15.489,15.877 15.144,15.676 14.777,15.28C14.716,15.214 14.659,15.164 14.605,15.164C14.583,15.164 14.561,15.173 14.54,15.194ZM25.487,18.632L25.528,18.639C25.444,18.573 25.354,18.514 25.258,18.464L25.487,18.632ZM23.826,18.404C23.763,18.418 23.696,18.443 23.631,18.48C23.565,18.518 23.502,18.567 23.446,18.627C23.562,18.537 23.689,18.462 23.826,18.404ZM24.71,15.697C24.638,15.74 24.689,15.805 24.545,15.848C24.401,15.891 24.38,15.92 24.308,15.978C24.236,16.035 24.092,16.129 23.883,16.301C23.675,16.474 23.826,16.359 23.696,16.445C23.567,16.531 23.272,16.855 23.164,16.992C23.056,17.129 23.121,17.1 23.078,17.164C23.035,17.229 22.941,17.315 22.783,17.46C22.625,17.603 21.97,18.244 21.927,18.287C21.884,18.33 21.74,18.466 21.776,18.495C21.812,18.524 21.873,18.499 21.999,18.373C22.02,18.351 23.308,17.236 23.344,17.114C23.38,16.992 23.488,16.848 23.603,16.747C23.718,16.647 24.027,16.417 24.143,16.33C24.257,16.244 24.574,16.057 24.703,15.949C24.833,15.841 24.948,15.712 24.919,15.676C24.908,15.662 24.885,15.655 24.856,15.655C24.812,15.655 24.754,15.671 24.71,15.697ZM36.593,13.323C36.219,13.474 35.227,14.153 34.903,14.539C34.716,14.762 34.796,14.923 34.924,14.999C34.96,15.021 35.313,15.194 35.075,15.337C34.838,15.482 34.332,15.687 34.076,15.855C33.759,16.064 33.191,16.481 33.112,16.582C33.032,16.683 32.882,16.762 33.09,17.021C33.299,17.279 33.349,17.38 33.385,17.438C33.421,17.495 33.522,17.625 33.515,17.481C33.507,17.337 33.414,17.258 33.378,17.179C33.342,17.1 33.097,16.848 33.234,16.69C33.371,16.532 33.838,16.121 34.104,15.992C34.371,15.863 35.011,15.51 35.097,15.474C35.183,15.438 35.418,15.345 35.406,15.237C35.392,15.1 35.241,15.128 35.032,14.884C34.989,14.834 34.974,14.697 35.032,14.64C35.09,14.582 35.399,14.18 35.903,13.834C35.97,13.788 36.535,13.41 36.601,13.388C36.665,13.367 36.73,13.288 36.593,13.323ZM2.952,13.23C3.312,13.421 3.855,13.974 4.038,14.187C4.215,14.391 4.736,14.949 4.47,15.071C4.204,15.194 4.355,15.402 4.47,15.467C4.585,15.532 5.515,16.425 5.542,16.452C5.75,16.668 5.966,16.92 5.678,17.121C5.391,17.323 5.693,17.38 5.909,17.244C6.124,17.107 6.39,16.97 6.038,16.56C5.871,16.367 5.652,16.137 5.438,15.958C5.199,15.758 5.095,15.711 5.067,15.683C4.966,15.582 4.704,15.5 4.678,15.43C4.636,15.316 4.894,15.33 5.002,15.294C5.512,15.125 6.961,14.863 7.52,14.956C7.606,14.971 7.976,14.884 8.21,14.784C8.714,14.568 9.061,14.421 9.433,14.36C9.476,14.352 10.008,14.28 9.627,14.151C9.246,14.021 7.441,13.877 6.973,13.935C6.506,13.993 7.038,14.029 7.038,14.029C7.038,14.029 8.448,14.021 8.958,14.143C9.469,14.266 9.217,14.287 9.059,14.287C8.901,14.287 8.476,14.366 8.11,14.597C7.743,14.827 7.095,14.769 6.88,14.712C6.664,14.654 5.916,14.539 5.348,14.741C4.779,14.942 4.895,14.875 4.779,14.647C4.599,14.295 3.916,13.69 3.614,13.568C3.401,13.482 3.154,13.316 3.513,13.395C4.083,13.521 5.635,13.993 6.261,14.251C6.906,14.518 7.261,14.575 7.433,14.575C7.606,14.575 8.07,14.579 7.764,14.273C7.584,14.093 7.476,14.208 7.512,14.302C7.534,14.357 7.311,14.395 7.045,14.323C6.779,14.251 6.056,14.052 5.765,13.935C5.621,13.877 4.628,13.539 4.542,13.51C4.473,13.488 3.204,13.165 3.068,13.158C2.995,13.154 2.862,13.12 2.813,13.12C2.772,13.12 2.79,13.144 2.952,13.23ZM26.59,15.57C26.556,15.57 26.488,15.697 26.458,15.755C26.416,15.841 26.242,16.129 26.171,16.237C26.099,16.345 26.034,16.452 25.876,16.611C25.718,16.769 25.516,16.97 25.495,17.121C25.472,17.278 25.574,17.114 25.602,17.057C25.631,16.999 25.789,16.934 25.876,16.819C25.962,16.704 26.165,16.544 26.307,16.359C26.356,16.296 26.473,16.179 26.517,15.957C26.535,15.867 26.602,15.765 26.61,15.683C26.617,15.601 26.608,15.57 26.591,15.57L26.59,15.57ZM10.095,14.661C9.821,14.82 9.114,15.022 8.743,15.51C8.638,15.648 8.543,15.64 8.357,15.632C8.057,15.619 7.518,15.606 6.311,16.201C6.11,16.287 6.038,16.287 6.225,16.417C6.396,16.534 6.426,16.632 6.397,16.79C6.369,16.948 6.403,16.943 6.613,16.805C6.973,16.567 7.606,16.093 8.426,15.985C8.885,15.925 8.82,15.821 8.958,15.683C9.001,15.64 9.821,14.92 10.195,14.82C10.475,14.745 10.433,14.605 10.281,14.605C10.229,14.605 10.164,14.621 10.095,14.661ZM30.342,14.87C30.342,14.87 29.846,14.913 29.522,14.928C29.199,14.942 29.508,15.172 29.551,15.201C29.931,15.455 30.443,15.949 30.573,16.301C30.652,16.518 30.762,16.516 30.918,16.515C30.956,16.515 30.996,16.514 31.04,16.517C31.263,16.531 32.019,16.647 32.364,16.848C32.453,16.9 32.486,16.841 32.529,16.762C32.572,16.683 32.989,16.424 33.04,16.352C33.09,16.28 33.04,16.33 32.91,16.388C32.781,16.445 32.716,16.409 32.615,16.28C32.526,16.165 32.328,16.093 32.134,15.985C31.939,15.877 31.119,15.776 30.896,15.877C30.673,15.978 30.594,15.949 30.457,15.791C30.321,15.632 29.933,15.287 29.688,15.151C29.444,15.014 29.659,15.014 29.696,15.014C29.731,15.014 30.206,15.05 30.414,14.978C30.493,14.951 30.631,14.973 30.618,14.898C30.613,14.87 30.565,14.863 30.508,14.863C30.45,14.863 30.383,14.87 30.342,14.87ZM14.295,15.704C14.463,15.947 14.946,16.346 15.194,16.488C15.432,16.625 15.412,16.5 15.266,16.402C15,16.222 14.389,15.64 14.389,15.64C14.357,15.592 14.314,15.567 14.285,15.567C14.247,15.567 14.231,15.612 14.295,15.704ZM16.833,14.687C16.811,14.752 16.934,14.778 17.007,14.792C17.09,14.806 17.142,14.804 17.192,14.802C17.248,14.8 17.302,14.797 17.394,14.819C17.473,14.838 17.631,14.907 17.712,14.914C17.987,14.938 18.252,14.91 18.53,14.964C18.62,14.981 18.707,14.996 18.789,15.033C18.893,15.08 18.996,15.123 19.098,15.176C19.161,15.208 19.366,15.467 19.415,15.623C19.443,15.713 19.504,15.94 19.589,15.991C19.608,16.003 19.744,16.058 19.758,15.999C19.791,15.863 19.544,15.603 19.499,15.501C19.481,15.461 19.493,15.408 19.516,15.378L19.598,15.15C19.574,15.146 19.496,15.024 19.502,14.98C19.51,14.913 19.578,14.913 19.606,14.893C19.648,14.862 19.635,14.829 19.603,14.804C19.576,14.783 19.409,14.831 19.376,14.853C19.235,14.944 19.171,14.878 19.021,14.868C18.784,14.851 18.704,14.827 18.32,14.771C18.275,14.765 18.181,14.767 18.097,14.771C18.038,14.772 17.984,14.775 17.956,14.773C17.587,14.76 17.47,14.778 17.092,14.712C17.052,14.704 16.942,14.669 16.879,14.669C16.855,14.669 16.838,14.674 16.833,14.687ZM23.402,14.767C23.327,14.773 23.248,14.78 23.16,14.777C22.655,14.82 22.209,14.845 21.7,14.877C21.58,14.884 21.46,14.886 21.341,14.888C21.052,14.892 20.76,14.948 20.464,14.92C20.424,14.917 20.33,14.913 20.245,14.882C20.185,14.86 19.999,14.762 19.949,14.829C19.915,14.872 19.927,14.913 19.953,14.945C19.953,14.945 20.136,15.071 20.062,15.143L20.184,15.358C20.212,15.375 20.267,15.453 20.276,15.478C20.314,15.588 20.273,15.725 20.327,15.828C20.369,15.908 20.524,15.894 20.57,15.813C20.68,15.619 20.683,15.41 20.757,15.205C20.859,14.92 21.52,14.985 21.762,15.006C21.813,15.011 21.864,15.011 21.914,15.011C21.941,15.011 21.968,15.011 21.995,15.012C22.129,15.017 22.261,15.015 22.398,14.997C22.481,14.985 22.56,14.971 22.643,14.967C22.708,14.964 22.772,14.926 22.837,14.923C23.115,14.909 23.383,14.877 23.663,14.833C23.684,14.83 23.713,14.827 23.726,14.807C23.735,14.794 23.733,14.771 23.714,14.767C23.67,14.759 23.626,14.756 23.582,14.756C23.523,14.756 23.464,14.761 23.402,14.767ZM31.465,14.044C31.186,14.097 30.914,14.141 30.687,14.192C30.47,14.241 30.249,14.315 30.181,14.334C30.037,14.374 30.076,14.491 30.159,14.526C30.222,14.554 30.315,14.585 30.422,14.597C30.723,14.628 31.698,14.932 32.019,15.035C32.364,15.147 32.406,14.992 32.615,14.971C32.824,14.949 33.788,14.827 34.55,15.1C34.55,15.1 34.774,15.226 34.795,15.172C34.818,15.113 34.827,15.115 34.629,14.992C34.506,14.916 34.086,14.782 33.602,14.693C33.331,14.643 32.673,14.6 32.385,14.634C32.304,14.643 32.016,14.649 31.95,14.719C31.835,14.841 31.745,14.777 31.702,14.748C31.45,14.58 30.738,14.46 30.436,14.467C30.332,14.47 30.324,14.46 30.32,14.438C30.307,14.357 30.391,14.34 30.45,14.323C30.616,14.275 31.293,14.144 31.834,14.058C32.183,14.002 32.451,13.981 32.572,13.964C32.882,13.921 32.939,13.885 32.666,13.885C32.529,13.885 32,13.943 31.465,14.044ZM25.027,14.482C24.344,14.683 23.97,14.906 23.84,14.978C23.711,15.05 23.646,15.136 23.876,15.071C24.107,15.006 24.689,14.755 24.782,14.733C24.876,14.712 25.487,14.503 25.617,14.467C25.746,14.431 26.142,14.295 26.516,14.266C26.89,14.237 26.984,14.223 27.156,14.237C27.329,14.251 27.451,14.258 27.523,14.273C27.595,14.287 27.667,14.287 27.552,14.223C27.437,14.158 27.207,14.143 26.998,14.143C26.372,14.143 25.71,14.28 25.027,14.482ZM25.587,14.714L25.4,15.049C25.339,15.017 25.29,14.995 25.177,15.056C25.119,15.087 25.036,15.003 25.098,14.963C25.173,14.913 25.405,14.765 25.587,14.714ZM13.409,14.442L13.641,14.856C13.716,14.816 13.776,14.789 13.916,14.865C13.988,14.903 14.089,14.799 14.013,14.749C13.92,14.688 13.633,14.504 13.409,14.442ZM12.447,13.889C12.339,13.893 12.241,13.919 12.145,13.964C12.95,13.942 13.251,14.026 13.403,14.082C13.605,14.158 14.072,14.338 14.344,14.486C14.366,14.497 14.704,14.686 14.865,14.736C15.043,14.791 15.023,14.668 15.015,14.662C14.806,14.511 14.575,14.391 14.342,14.287C13.906,14.091 13.625,13.973 13.141,13.892C13.047,13.876 12.952,13.87 12.861,13.87C12.706,13.87 12.562,13.886 12.447,13.889ZM33.004,14.18C32.803,14.187 32.774,14.151 32.752,14.215C32.731,14.28 32.875,14.273 32.939,14.287C33.004,14.302 33.256,14.273 33.457,14.23C33.658,14.187 34.219,13.942 34.363,13.899C34.507,13.856 34.721,13.736 34.996,13.662C35.291,13.582 35.521,13.496 35.651,13.46C35.78,13.424 35.896,13.388 35.946,13.374C35.996,13.359 36.003,13.318 35.944,13.315C35.872,13.31 35.823,13.345 35.724,13.374C35.419,13.463 35.075,13.561 34.939,13.597C34.802,13.633 34.356,13.798 34.241,13.827C34.126,13.856 33.852,13.964 33.68,14.021C33.507,14.079 33.378,14.136 33.227,14.165C33.076,14.194 33.004,14.18 33.004,14.18ZM19.589,14.215C19.863,14.215 21.1,14.302 21.704,14.273C22.495,14.235 23.445,14.287 23.963,14.158C24.264,14.083 24.806,13.919 25.014,13.879C25.516,13.784 25.919,13.712 26.2,13.68L26.891,12.486L12.287,12.486L12.791,13.35C13.144,13.352 13.878,13.395 15.173,13.798C16.424,14.188 16.684,14.235 17.474,14.273C18.079,14.302 19.316,14.215 19.589,14.215ZM27.684,10.532L27.905,10.141L11.518,10.141L11.753,10.532L11.357,10.532L12.369,12.221L26.788,12.221L27.745,10.532L27.684,10.532ZM25.767,11.105C25.864,11.161 25.934,11.203 25.934,11.287L25.934,11.525L25.095,11.525L25.095,11.189C25.193,11.315 25.362,11.439 25.557,11.413C25.767,11.385 25.529,11.161 25.389,11.105C25.529,11.049 25.767,10.826 25.557,10.798C25.362,10.772 25.193,10.896 25.095,11.022L25.095,10.686L25.934,10.686L25.934,10.924C25.934,11.008 25.864,11.049 25.767,11.105ZM15.783,11.105L16.538,11.105L16.538,11.525L16.412,11.525C16.412,11.362 16.249,11.245 16.076,11.245L15.783,11.245L15.783,11.105ZM22.704,11.154C22.886,11.343 22.802,11.469 22.732,11.525C22.715,11.446 22.542,11.287 22.089,11.287C22.494,11.084 22.648,10.826 22.438,10.798C22.244,10.772 22.075,10.945 21.977,11.071L21.977,10.686L22.816,10.686L22.816,10.924C22.816,11.008 22.781,11.077 22.704,11.154ZM20.697,10.686C20.697,10.686 20.699,10.756 20.621,10.756C20.383,10.756 20.068,10.889 20.068,11.105C20.068,11.273 20.25,11.427 20.488,11.427C20.642,11.427 20.516,11.182 20.264,11.105L20.712,11.105L20.712,11.525L19.999,11.525C19.936,11.525 19.887,11.455 19.887,11.399L19.887,10.819C19.887,10.742 19.943,10.686 19.999,10.686L20.697,10.686ZM24.857,10.686L24.857,11.525L24.662,11.525C24.662,11.273 24.606,11.147 24.102,11.147L24.102,11.071C24.601,11.071 24.675,10.994 24.675,10.686L24.857,10.686ZM19.257,11.525C19.397,11.469 19.649,11.266 19.439,11.238C19.245,11.212 18.915,11.315 18.817,11.441L18.817,11.105L19.656,11.105L19.656,11.525L19.257,11.525ZM13.72,11.525C13.671,11.525 13.65,11.483 13.65,11.406C13.65,11.255 13.743,11.105 13.958,11.105C14.114,11.105 14.391,10.909 14.468,10.686L14.468,11.525L14.355,11.525C14.308,11.343 14.094,11.184 13.944,11.203C13.734,11.231 14.007,11.483 14.174,11.525L13.72,11.525ZM17.803,11.392L17.803,10.819C17.803,10.742 17.859,10.686 17.915,10.686L18.614,10.686C18.614,10.686 18.594,10.735 18.516,10.735C18.278,10.735 18.062,10.889 18.062,11.105C18.062,11.322 18.278,11.476 18.516,11.476C18.594,11.476 18.614,11.525 18.614,11.525L17.915,11.525C17.859,11.525 17.803,11.469 17.803,11.392ZM15.521,11.326L14.681,11.326L14.681,10.906L15.521,10.906L15.521,11.326C15.45,11.158 15.182,10.957 14.989,10.99C14.762,11.029 15.08,11.326 15.521,11.326ZM17.568,11.301C17.258,11.301 17.251,11.001 17.048,11.001C16.908,11.001 16.971,11.21 17.111,11.301L16.775,11.301C16.775,11.147 16.747,10.952 16.894,10.952L17.209,10.952C17.3,10.952 17.419,10.945 17.503,10.784L17.568,10.784L17.568,11.301ZM21.208,11.105C21.348,11.049 21.585,10.826 21.376,10.798C21.182,10.772 21.012,10.896 20.914,11.022L20.914,10.686L21.753,10.686L21.753,11.105L21.208,11.105ZM23.04,11.105C23.48,11.105 23.711,10.826 23.501,10.798C23.307,10.772 23.11,10.938 23.04,11.105L23.04,10.686L23.878,10.686L23.878,11.105L23.04,11.105ZM13.842,10.934L13.003,10.934L13.003,10.515L13.842,10.515L13.842,10.934C13.773,10.766 13.504,10.566 13.311,10.599C13.084,10.637 13.402,10.934 13.842,10.934Z" style="fill:#57db8e;fill-rule:nonzero;"/></g></g></svg>