<?xml version="1.0" encoding="UTF-8" standalone="no"?><!DOCTYPE svg PUBLIC "-//W3C//DTD SVG 1.1//EN" "http://www.w3.org/Graphics/SVG/1.1/DTD/svg11.dtd"><svg width="100%" height="100%" viewBox="0 0 40 40" version="1.1" xmlns="http://www.w3.org/2000/svg" xmlns:xlink="http://www.w3.org/1999/xlink" xml:space="preserve" xmlns:serif="http://www.serif.com/" style="fill-rule:evenodd;clip-rule:evenodd;stroke-linejoin:round;stroke-miterlimit:2;"><rect id="plain-cardassian" x="0" y="0" width="40" height="40" style="fill:none;"/><g id="plain-cardassian1" serif:id="plain-cardassian"><g id="Cardassian"><path id="Cardassian1" serif:id="Cardassian" d="M29.074,10.093C28.21,8.549 26.867,7.423 25.046,6.713C24.583,6.62 24.306,6.404 24.213,6.065C24.09,5.015 23.619,4.174 22.801,3.542C21.983,2.909 21.049,2.562 20,2.5C19.043,2.562 18.171,2.855 17.384,3.38C16.597,3.904 16.08,4.66 15.833,5.648C15.741,6.235 15.494,6.59 15.093,6.713C13.21,7.33 11.829,8.434 10.949,10.023C10.069,11.613 9.46,13.318 9.12,15.139C11.682,16.25 13.873,18.148 15.694,20.833C16.466,22.037 17.083,23.642 17.546,25.648C18.04,27.593 17.5,29.074 15.926,30.093L18.009,37.5L19.491,37.5L19.63,34.398L20.417,34.398L20.509,37.5L21.991,37.5L24.12,30.093C23.287,29.599 22.778,28.912 22.593,28.032C22.407,27.153 22.361,26.281 22.454,25.417C22.855,23.256 23.843,21.204 25.417,19.259C27.022,17.377 28.843,16.003 30.88,15.139C30.54,13.349 29.938,11.667 29.074,10.093ZM10.139,14.63C10.448,13.148 11.003,11.728 11.806,10.37C12.577,9.105 13.735,8.164 15.278,7.546C15.988,7.299 16.466,6.728 16.713,5.833C17.207,4.198 18.318,3.395 20.046,3.426C21.065,3.457 21.867,3.765 22.454,4.352C22.948,4.815 23.256,5.448 23.38,6.25C23.472,6.898 23.92,7.33 24.722,7.546C26.049,8.102 27.068,8.858 27.778,9.815C28.549,10.833 29.136,11.975 29.537,13.241L26.296,15.463L24.306,15.787L24.306,13.38L23.657,10.046L22.407,9.213L20.417,9.722L20.741,7.87L21.991,7.407L22.5,5.278L20,7.269L17.5,5.278L18.009,7.407L19.306,7.87L19.583,9.722L17.639,9.213L16.343,10.046L15.694,13.38L15.694,15.926L17.639,22.593C16.065,19.012 13.565,16.358 10.139,14.63ZM20.926,11.574C20.556,11.142 20.37,10.833 20.37,10.648L21.481,11.435L21.944,13.519L21.481,14.12L20.324,20.231L19.676,20.231L18.565,14.12L18.056,13.519L18.565,11.435L19.676,10.648C19.676,10.864 19.475,11.173 19.074,11.574L18.843,13.056L19.213,14.028L20.787,14.028L21.157,13.056L20.926,11.574ZM16.574,13.472L16.944,10.37L17.731,9.815L18.843,10C19.429,10.093 19.722,10.231 19.722,10.417L18.38,11.019L17.546,13.565L18.102,14.352L19.63,22.454C19.63,22.485 19.753,22.5 20,22.5C20.247,22.5 20.386,22.485 20.417,22.454L21.898,14.352L22.454,13.565L21.62,11.065C21.59,10.972 21.512,10.895 21.389,10.833C21.265,10.772 21.111,10.741 20.926,10.741C20.525,10.71 20.324,10.556 20.324,10.278L22.315,9.815L23.102,10.37L23.426,13.472L21.389,21.806L20.278,23.472L19.722,23.472L18.611,21.806L16.574,13.472ZM21.62,26.481L20.602,24.861L19.444,24.861L18.38,26.481L18.056,22.639L19.491,23.981L20.509,23.981L21.944,22.639L21.62,26.481ZM21.852,30.463C21.296,30.463 20.91,30.077 20.694,29.306C20.54,28.904 20.401,28.426 20.278,27.87L20.185,27.593L19.815,27.593L19.722,27.87C19.599,28.426 19.46,28.904 19.306,29.306C19.09,30.077 18.719,30.463 18.194,30.463L18.38,27.639L19.583,25.231L20.417,25.231L21.62,27.639L21.852,30.463ZM22.639,31.389L21.25,37.315L20.741,32.639L20,31.296L19.259,32.639L18.75,37.315L17.407,31.389C18.302,31.389 18.92,31.049 19.259,30.37C19.599,29.691 19.846,28.966 20,28.194C20.093,28.812 20.324,29.537 20.694,30.37C21.065,31.049 21.713,31.389 22.639,31.389ZM25,18.287C23.951,19.398 23.04,20.633 22.269,21.991L23.981,16.25L26.62,15.833L29.722,13.611L30.046,14.491C29.491,14.707 28.966,14.969 28.472,15.278C27.299,16.08 26.142,17.083 25,18.287ZM13.889,13.981C13.642,13.981 13.426,14.074 13.241,14.259C13.056,14.444 12.963,14.66 12.963,14.907C12.963,15.154 13.056,15.37 13.241,15.556C13.426,15.741 13.642,15.833 13.889,15.833C14.136,15.833 14.352,15.741 14.537,15.556C14.722,15.37 14.815,15.154 14.815,14.907C14.815,14.66 14.722,14.444 14.537,14.259C14.352,14.074 14.136,13.981 13.889,13.981Z" style="fill:#d1bd94;fill-rule:nonzero;"/></g></g></svg>