<svg xmlns="http://www.w3.org/2000/svg" xml:space="preserve" style="fill-rule:evenodd;clip-rule:evenodd;stroke-linejoin:round;stroke-miterlimit:2" viewBox="0 0 40 40"><path d="M0 0h40v40H0z" style="fill:none"/><path d="M35.267 31.883 23.978 1.78l-1 .518A6.5 6.5 0 0 1 20 3.02a6.5 6.5 0 0 1-2.978-.722l-1-.518L4.733 31.883l.906.364A38.4 38.4 0 0 0 20 35.02a38.4 38.4 0 0 0 14.361-2.773zm-25.161-8.631A28.4 28.4 0 0 0 19 25.002v8.004a36.3 36.3 0 0 1-11.704-2.262zm19.788 0 2.81 7.492A36.3 36.3 0 0 1 21 33.006v-8.004a28.3 28.3 0 0 0 8.894-1.75m-3.512-9.365 2.81 7.492A26.4 26.4 0 0 1 21 23.001v-8.008a18.4 18.4 0 0 0 5.382-1.106m-12.764 0A18.4 18.4 0 0 0 19 14.993v8.008a26.4 26.4 0 0 1-8.192-1.622zm.702-1.873 2.81-7.492a8.4 8.4 0 0 0 1.87.439v8.029a16.4 16.4 0 0 1-4.68-.976m11.36 0a16.4 16.4 0 0 1-4.68.976V4.961a8.4 8.4 0 0 0 1.87-.439z" style="fill:#f1de7f"/></svg>