<?xml version="1.0" encoding="UTF-8" standalone="no"?><!DOCTYPE svg PUBLIC "-//W3C//DTD SVG 1.1//EN" "http://www.w3.org/Graphics/SVG/1.1/DTD/svg11.dtd"><svg width="100%" height="100%" viewBox="0 0 40 40" version="1.1" xmlns="http://www.w3.org/2000/svg" xmlns:xlink="http://www.w3.org/1999/xlink" xml:space="preserve" xmlns:serif="http://www.serif.com/" style="fill-rule:evenodd;clip-rule:evenodd;stroke-linejoin:round;stroke-miterlimit:2;"><rect id="plain-heritage" x="0" y="0" width="40" height="40" style="fill:none;"/><g id="plain-heritage1" serif:id="plain-heritage"><g id="Heritage"><path id="Heritage1" serif:id="Heritage" d="M20,2.5C10.341,2.5 2.5,10.341 2.5,20C2.5,29.659 10.341,37.5 20,37.5C29.659,37.5 37.5,29.659 37.5,20C37.5,10.341 29.659,2.5 20,2.5ZM16.857,30.413C17.099,31.233 17.37,31.975 17.666,32.626C18.057,33.486 18.484,34.176 18.954,34.645C18.974,34.665 18.994,34.685 19.015,34.704C19.34,34.726 19.669,34.737 20,34.737C20.331,34.737 20.66,34.726 20.985,34.704C21.006,34.685 21.026,34.665 21.046,34.645C21.516,34.176 21.943,33.486 22.334,32.626C22.63,31.975 22.901,31.233 23.143,30.413C22.125,30.531 21.074,30.592 20,30.592C18.926,30.592 17.875,30.531 16.857,30.413ZM11.821,29.305C12.441,30.47 13.177,31.504 14.004,32.371C14.743,33.145 15.556,33.784 16.425,34.257C15.829,33.171 15.301,31.761 14.872,30.108C13.805,29.9 12.784,29.63 11.821,29.305ZM28.179,29.305C27.216,29.63 26.195,29.9 25.128,30.108C24.699,31.761 24.171,33.172 23.575,34.257C24.444,33.784 25.257,33.145 25.996,32.371C26.823,31.504 27.559,30.47 28.179,29.305ZM6.944,26.838C7.974,28.798 9.433,30.499 11.195,31.815C10.47,30.76 9.84,29.571 9.326,28.277C8.455,27.845 7.657,27.363 6.944,26.838ZM33.056,26.838C32.343,27.363 31.545,27.845 30.674,28.277C30.16,29.571 29.53,30.76 28.805,31.815C30.567,30.499 32.026,28.798 33.056,26.838ZM15.557,20.912L24.443,20.916C24.391,23.699 24.1,26.288 23.627,28.496C22.463,28.662 21.249,28.75 20,28.75C18.751,28.75 17.537,28.662 16.373,28.496C15.9,26.288 15.609,23.697 15.557,20.912ZM26.285,20.917C26.236,23.528 25.98,25.98 25.569,28.136C26.881,27.834 28.106,27.428 29.216,26.933C29.859,25.107 30.255,23.072 30.343,20.919L26.285,20.917ZM9.657,20.91C9.744,23.067 10.14,25.106 10.784,26.933C11.894,27.428 13.119,27.834 14.431,28.136C14.019,25.979 13.763,23.525 13.715,20.912L9.657,20.91ZM5.291,20.908C5.325,21.472 5.391,22.027 5.487,22.571C5.967,23.45 6.682,24.265 7.577,24.997C7.862,25.231 8.166,25.457 8.487,25.673C8.109,24.172 7.876,22.572 7.813,20.909L5.291,20.908ZM32.186,20.919C32.123,22.579 31.89,24.175 31.513,25.673C31.834,25.457 32.138,25.231 32.423,24.997C33.318,24.265 34.033,23.45 34.513,22.571C34.608,22.03 34.674,21.48 34.709,20.92L32.186,20.919ZM31.513,14.327C31.89,15.824 32.123,17.419 32.186,19.077L34.708,19.078C34.674,18.52 34.608,17.969 34.513,17.429C34.033,16.55 33.318,15.735 32.423,15.003C32.138,14.769 31.834,14.543 31.513,14.327ZM25.569,11.864C25.98,14.017 26.236,16.466 26.285,19.075L30.343,19.077C30.255,16.925 29.859,14.891 29.216,13.067C28.106,12.572 26.881,12.166 25.569,11.864ZM23.627,11.504C24.099,13.708 24.39,16.295 24.443,19.074L15.557,19.07C15.61,16.293 15.901,13.708 16.373,11.504C17.537,11.338 18.751,11.25 20,11.25C21.249,11.25 22.463,11.338 23.627,11.504ZM14.431,11.864C13.119,12.166 11.894,12.572 10.784,13.067C10.142,14.889 9.747,16.92 9.657,19.068L13.715,19.07C13.764,16.463 14.02,14.017 14.431,11.864ZM8.487,14.327C8.166,14.543 7.862,14.769 7.577,15.003C6.682,15.735 5.967,16.55 5.487,17.429C5.393,17.965 5.327,18.512 5.292,19.066L7.814,19.067C7.878,17.412 8.111,15.821 8.487,14.327ZM28.805,8.185C29.53,9.24 30.16,10.429 30.674,11.723C31.545,12.155 32.343,12.637 33.056,13.162C32.026,11.202 30.567,9.501 28.805,8.185ZM11.195,8.185C9.433,9.501 7.974,11.202 6.944,13.162C7.657,12.637 8.455,12.155 9.326,11.723C9.84,10.429 10.47,9.24 11.195,8.185ZM23.575,5.743C24.171,6.829 24.699,8.239 25.128,9.892C26.195,10.1 27.216,10.37 28.179,10.695C27.559,9.53 26.823,8.496 25.996,7.629C25.257,6.855 24.444,6.216 23.575,5.743ZM16.425,5.743C15.556,6.216 14.743,6.855 14.004,7.629C13.177,8.496 12.441,9.53 11.821,10.695C12.784,10.37 13.805,10.1 14.872,9.892C15.301,8.239 15.829,6.828 16.425,5.743ZM20.985,5.296C20.66,5.274 20.331,5.263 20,5.263C19.669,5.263 19.34,5.274 19.015,5.296C18.994,5.315 18.974,5.335 18.954,5.355C18.484,5.824 18.057,6.514 17.666,7.374C17.37,8.025 17.099,8.767 16.857,9.587C17.875,9.469 18.926,9.408 20,9.408C21.074,9.408 22.125,9.469 23.143,9.587C22.901,8.767 22.63,8.025 22.334,7.374C21.943,6.514 21.516,5.824 21.046,5.355C21.026,5.335 21.006,5.315 20.985,5.296Z" style="fill:#f1de7f;"/></g></g></svg>