<svg xmlns="http://www.w3.org/2000/svg" xml:space="preserve" style="fill-rule:evenodd;clip-rule:evenodd;stroke-linejoin:round;stroke-miterlimit:2" viewBox="0 0 40 40"><path d="M0 0h40v40H0z" style="fill:none"/><path d="M30 35a2 2 0 0 0-2-2H12a2 2 0 0 0 0 4h16a2 2 0 0 0 2-2m0-6a2 2 0 0 0-2-2H12a2 2 0 0 0 0 4h16a2 2 0 0 0 2-2m3-9c0-2.76-2.24-5-5-5H12c-2.76 0-5 2.24-5 5s2.24 5 5 5h16c2.76 0 5-2.24 5-5m-10 0a3.001 3.001 0 0 0-6 0 3.001 3.001 0 0 0 6 0m7-9a2 2 0 0 0-2-2H12a2 2 0 0 0 0 4h16a2 2 0 0 0 2-2m0-6a2 2 0 0 0-2-2H12a2 2 0 0 0 0 4h16a2 2 0 0 0 2-2" style="fill:#f1de7f"/></svg>