<?xml version="1.0" encoding="UTF-8" standalone="no"?><!DOCTYPE svg PUBLIC "-//W3C//DTD SVG 1.1//EN" "http://www.w3.org/Graphics/SVG/1.1/DTD/svg11.dtd"><svg width="100%" height="100%" viewBox="0 0 40 40" version="1.1" xmlns="http://www.w3.org/2000/svg" xmlns:xlink="http://www.w3.org/1999/xlink" xml:space="preserve" xmlns:serif="http://www.serif.com/" style="fill-rule:evenodd;clip-rule:evenodd;stroke-linejoin:round;stroke-miterlimit:2;"><rect id="plain-denobulan" x="0" y="0" width="40" height="40" style="fill:none;"/><g id="plain-denobulan1" serif:id="plain-denobulan"><g id="Denobulan"><path id="Denobulan1" serif:id="Denobulan" d="M20,9.669C21.848,7.786 24.21,6.656 26.781,6.656C32.697,6.656 37.5,12.635 37.5,20C37.5,27.365 32.697,33.344 26.781,33.344C24.21,33.344 21.848,32.214 20,30.331C18.152,32.214 15.79,33.344 13.219,33.344C7.303,33.344 2.5,27.365 2.5,20C2.5,12.635 7.303,6.656 13.219,6.656C15.79,6.656 18.152,7.786 20,9.669ZM26.233,32.03C26.27,32.031 26.307,32.031 26.344,32.031C30.688,32.031 34.316,27.878 35.145,22.374C35.199,21.997 35.087,21.615 34.837,21.328C34.588,21.04 34.226,20.875 33.846,20.875L23.111,20.875C22.728,22.262 21.456,23.281 19.948,23.281C18.44,23.281 17.168,22.262 16.785,20.875C16.785,20.875 9.359,20.875 6.154,20.882C5.776,20.882 5.416,21.046 5.168,21.332C4.92,21.618 4.809,21.998 4.862,22.373C5.684,27.878 9.312,32.031 13.656,32.031C13.676,32.031 13.696,32.031 13.716,32.031C12.257,31.322 11.25,29.824 11.25,28.094C11.25,25.679 13.21,23.719 15.625,23.719C17.878,23.719 19.735,25.425 19.974,27.614C20.213,25.425 22.07,23.719 24.323,23.719C26.738,23.719 28.698,25.679 28.698,28.094C28.698,29.824 27.691,31.321 26.233,32.03ZM24.798,30.611C24.636,30.635 24.468,30.596 24.331,30.5C24.156,30.378 24.052,30.178 24.052,29.965C24.052,29.964 24.052,29.964 24.062,29.964C24.062,29.672 24.26,29.417 24.542,29.345C25.392,29.127 26.021,28.355 26.021,27.437C26.021,26.355 25.145,25.476 24.065,25.469L24.052,25.469C22.603,25.469 21.427,26.645 21.427,28.094C21.427,29.543 22.603,30.719 24.052,30.719C24.311,30.719 24.562,30.681 24.798,30.611ZM15.15,30.611C15.312,30.635 15.48,30.596 15.617,30.5C15.792,30.378 15.896,30.178 15.896,29.965C15.896,29.964 15.896,29.964 15.886,29.964C15.886,29.672 15.688,29.417 15.406,29.345C14.556,29.127 13.927,28.355 13.927,27.437C13.927,26.355 14.802,25.476 15.883,25.469L15.896,25.469C17.345,25.469 18.521,26.645 18.521,28.094C18.521,29.543 17.345,30.719 15.896,30.719C15.637,30.719 15.386,30.681 15.15,30.611ZM19.948,18.25C20.914,18.25 21.698,19.034 21.698,20C21.698,20.966 20.914,21.75 19.948,21.75C18.982,21.75 18.198,20.966 18.198,20C18.198,19.034 18.982,18.25 19.948,18.25ZM13.716,7.969C13.696,7.969 13.676,7.969 13.656,7.969C9.312,7.969 5.684,12.122 4.855,17.626C4.801,18.003 4.913,18.385 5.163,18.672C5.412,18.96 5.774,19.125 6.154,19.125L16.785,19.125C17.168,17.738 18.44,16.719 19.948,16.719C21.456,16.719 22.728,17.738 23.111,19.125C23.111,19.125 30.621,19.125 33.846,19.118C34.224,19.118 34.584,18.954 34.832,18.668C35.08,18.382 35.191,18.002 35.138,17.627C34.316,12.122 30.688,7.969 26.344,7.969C26.307,7.969 26.27,7.969 26.233,7.97C27.691,8.679 28.698,10.176 28.698,11.906C28.698,14.321 26.738,16.281 24.323,16.281C22.07,16.281 20.213,14.575 19.974,12.386C19.735,14.575 17.878,16.281 15.625,16.281C13.21,16.281 11.25,14.321 11.25,11.906C11.25,10.176 12.257,8.678 13.716,7.969ZM24.798,9.389C24.636,9.365 24.468,9.404 24.331,9.5C24.156,9.622 24.052,9.822 24.052,10.035C24.052,10.036 24.052,10.036 24.062,10.036C24.062,10.328 24.26,10.583 24.542,10.655C25.392,10.873 26.021,11.645 26.021,12.562C26.021,13.645 25.145,14.524 24.065,14.531L24.052,14.531C22.603,14.531 21.427,13.355 21.427,11.906C21.427,10.457 22.603,9.281 24.052,9.281C24.311,9.281 24.562,9.319 24.798,9.389ZM15.15,9.389C15.312,9.365 15.48,9.404 15.617,9.5C15.792,9.622 15.896,9.822 15.896,10.035C15.896,10.036 15.896,10.036 15.886,10.036C15.886,10.328 15.688,10.583 15.406,10.655C14.556,10.873 13.927,11.645 13.927,12.562C13.927,13.645 14.802,14.524 15.883,14.531L15.896,14.531C17.345,14.531 18.521,13.355 18.521,11.906C18.521,10.457 17.345,9.281 15.896,9.281C15.637,9.281 15.386,9.319 15.15,9.389Z" style="fill:#f53d4d;"/></g></g></svg>