<?xml version="1.0" encoding="UTF-8" standalone="no"?><!DOCTYPE svg PUBLIC "-//W3C//DTD SVG 1.1//EN" "http://www.w3.org/Graphics/SVG/1.1/DTD/svg11.dtd"><svg width="100%" height="100%" viewBox="0 0 40 40" version="1.1" xmlns="http://www.w3.org/2000/svg" xmlns:xlink="http://www.w3.org/1999/xlink" xml:space="preserve" xmlns:serif="http://www.serif.com/" style="fill-rule:evenodd;clip-rule:evenodd;stroke-linejoin:round;stroke-miterlimit:2;"><rect id="plain-tractor-beam" x="0" y="0" width="40" height="40" style="fill:none;"/><g id="plain-tractor-beam1" serif:id="plain-tractor-beam"><g id="Traktor-Beam" serif:id="Traktor Beam"><path id="Traktor-Beam1" serif:id="Traktor Beam" d="M5.374,5.751L5,6L2,4L5,2L8,4L6.362,5.092L38,30.444L38,31.956L6.321,5.119L6.246,5.169L38,34.978L38,38L36.187,38L6.138,5.241L6.096,5.269L34.374,38L31.473,38L6.025,5.317L5.948,5.368L28.571,38L26.396,38L5.887,5.409L5.843,5.438L24.945,38L22.769,38L5.775,5.483L5.702,5.532L20.593,38L18.418,38L5.625,5.583L5.513,5.658L15.516,38L12.253,38L5.374,5.751Z" style="fill:#f1de7f;"/></g></g></svg>