<svg xmlns="http://www.w3.org/2000/svg" xml:space="preserve" style="fill-rule:evenodd;clip-rule:evenodd;stroke-linejoin:round;stroke-miterlimit:2" viewBox="0 0 40 40"><path d="M0 0h40v40H0z" style="fill:none"/><path d="M18.739 9.437c5.83 0 10.563 4.733 10.563 10.563s-4.733 10.563-10.563 10.563S8.176 25.83 8.176 20 12.909 9.437 18.739 9.437M28.758 21.67l.007-.01a6.31 6.31 0 0 1-6.085 4.646A6.31 6.31 0 0 1 16.374 20a6.31 6.31 0 0 1 6.306-6.306 6.31 6.31 0 0 1 6.085 4.646 2.83 2.83 0 0 0-2.301-1.178A2.84 2.84 0 0 0 23.626 20a2.84 2.84 0 0 0 2.838 2.838c.942 0 1.778-.46 2.294-1.168m3.125-1.094a2.84 2.84 0 0 0 5.617-.558 4.1 4.1 0 0 1-4.099 4.081A4.1 4.1 0 0 1 29.302 20a4.1 4.1 0 0 1 4.099-4.099 4.1 4.1 0 0 1 4.099 4.081 2.84 2.84 0 0 0-5.617-.558.63.63 0 0 1 .73.159.627.627 0 0 1 .946 0 .63.63 0 0 1 .63-.194 1.262 1.262 0 0 1 2.207 0 .632.632 0 1 1 0 1.222 1.26 1.26 0 0 1-2.207 0 .63.63 0 0 1-.63-.194.63.63 0 0 1-.946 0 .63.63 0 0 1-.73.159M5.338 17.162A2.84 2.84 0 0 1 8.176 20a2.84 2.84 0 0 1-2.838 2.838A2.84 2.84 0 0 1 2.5 20a2.84 2.84 0 0 1 2.838-2.838m10.531 2.22a.63.63 0 1 0 0 1.236 1.102 1.102 0 0 1-1.895-.112 2.603 2.603 0 0 1-5.109.122.63.63 0 0 0 .414-.211.63.63 0 1 0 0-.834.62.62 0 0 0-.377-.206 2.605 2.605 0 0 1 2.506-1.9c1.25 0 2.295.884 2.545 2.061a1.104 1.104 0 0 1 1.916-.156m12.914 2.253-.002.004zm.022-.032-.003.006zm.03-.044-.008.012zm.009-.013-.006.009zm.02-.031-.009.013.017-.027zm.036-.059-.009.015.017-.029zm.034-.059-.001.001-.016.028zm.162-.334-.014.033-.002.004-.014.033-.003.008-.005.01-.002.005-.011.024-.008.017-.013.029-.01.019-.008.018-.01.019-.009.018-.01.018-.01.019-.016.03.013-.024.003-.006.003-.006.007-.013.007-.012.003-.006.002-.005.007-.013.007-.014.003-.005.002-.005.006-.013.007-.014.003-.005.002-.004.007-.016.004-.009.003-.007.005-.01.005-.011.006-.013.001-.003.001-.002.001-.002.004-.008.003-.007v-.001l.001-.001.008-.019.005-.013.002-.003v-.001l.001-.002zm-11.461-2.324a1.262 1.262 0 1 1-.001 2.523 1.262 1.262 0 0 1 .001-2.523m2.613.793a1.26 1.26 0 1 1 0 .936.47.47 0 0 1-.248-.116.471.471 0 0 1-.788-.352.473.473 0 0 1 .788-.352.47.47 0 0 1 .248-.116m10.157-.636a1.104 1.104 0 1 1 0 2.209 1.104 1.104 0 0 1 0-2.209m-24.384.78A1.026 1.026 0 0 1 8.018 20a1.025 1.025 0 0 1-1.997.324.551.551 0 1 1 0-.648m23.137 1.218-.011.032-.011.033zm.011-.034.005-.016-.005.017-.011.032zm6.124-1.727a.867.867 0 1 1 0 1.735.867.867 0 0 1 0-1.735m-6.114 1.695-.005.015zm.01-.035v.002l-.009.031zm-1.779-1.581a.788.788 0 1 1 0 1.577.788.788 0 0 1 0-1.577m-23.333 0a.788.788 0 1 1 0 1.577.788.788 0 0 1 0-1.577m25.121 1.549-.004.014zm.005-.018-.004.016.009-.033zm.018-.068-.004.016.008-.033zm-16.789-1.092a.63.63 0 1 1 0 .834.63.63 0 1 1 0-.834m16.805 1.023-.004.017.007-.033zm.007-.032-.003.013zm.007-.037-.003.017zm.009-.051-.002.014zm.042-.493a.473.473 0 1 0 0 .014v.01-.034zm-4.257-.466a.473.473 0 1 1 0 .947.473.473 0 0 1 0-.947m-.946 0a.473.473 0 1 1 0 .947.473.473 0 0 1 0-.947m-5.676 0a.473.473 0 1 1 0 .947.473.473 0 0 1 0-.947m10.846.908-.002.012zm.007-.054-.001.013zm.005-.038-.002.017.004-.033zm.009-.087-.001.015zm.007-.089-.001.012zm.004-.218.001.012zm0-.022v.017zm-.001-.033v.011zm-.001-.019.001.013zm-.002-.037.001.013zm-.005-.072.001.013zm-.001-.017.001.012zm-.002-.02.001.015zm-.002-.018.002.017zm-.001-.016.001.012zm-.005-.038.002.016-.004-.033zm-.004-.033.002.012zm-.002-.018.001.013zm-.008-.053.002.012zm-.016-.089.003.015zm-.01-.051.003.013zm-.004-.019.003.016-.007-.033zm-.012-.05.004.014zm-.004-.019.004.017-.008-.033zm-.013-.05.004.015zm-.005-.019-.004-.015.009.033zm-.009-.031.004.014zm-.01-.036.001.002.009.032zm-.01-.032.005.015zm-.011-.034.001.002.01.031zm-.027-.082.011.033.011.032zm-.174-.388-.011-.02.006.011zl.007.012.002.005.005.009.017.034.002.004.002.002.005.012.006.011.002.004.002.003.004.009.009.019.005.011.003.006.004.008.003.007.006.012.004.009.002.006.003.006.005.011.005.012.003.006.003.006.004.011.005.011.002.005.003.006.004.011.005.012.005.011v.002l.001.001.001.004.004.01.008.019.004.011.018.05-.018-.05-.012-.03-.005-.014-.001-.003-.01-.023-.007-.017-.007-.016-.007-.017-.008-.018-.008-.017-.006-.015-.009-.019-.007-.014-.014-.03-.006-.012-.008-.015-.007-.014-.024-.047zm-.037-.065zl.017.029zm-.025-.044.008.014-.017-.029zm-.017-.028.007.012zm-.009-.015.007.012zm-.01-.016.008.014-.017-.027zm-.054-.081.004.006zm-.038-.054.002.002z" style="fill:#57afdb"/></svg>