<?xml version="1.0" encoding="UTF-8" standalone="no"?><!DOCTYPE svg PUBLIC "-//W3C//DTD SVG 1.1//EN" "http://www.w3.org/Graphics/SVG/1.1/DTD/svg11.dtd"><svg width="100%" height="100%" viewBox="0 0 40 40" version="1.1" xmlns="http://www.w3.org/2000/svg" xmlns:xlink="http://www.w3.org/1999/xlink" xml:space="preserve" xmlns:serif="http://www.serif.com/" style="fill-rule:evenodd;clip-rule:evenodd;stroke-linejoin:round;stroke-miterlimit:2;"><rect id="plain-bajoran" x="0" y="0" width="40" height="40" style="fill:none;"/><g id="plain-bajoran1" serif:id="plain-bajoran"><g id="Bajoran"><path id="Bajoran1" serif:id="Bajoran" d="M20.37,29.491C20.216,29.614 20.147,29.761 20.162,29.931C20.177,30.1 20.278,30.417 20.463,30.88L20.602,31.157C20.849,31.713 20.965,32.099 20.949,32.315C20.934,32.531 20.772,32.654 20.463,32.685C20.772,32.5 20.918,32.284 20.903,32.037C20.887,31.79 20.694,31.481 20.324,31.111C20.262,31.08 20.17,31.003 20.046,30.88C19.583,30.448 19.321,30.17 19.259,30.046C19.198,29.923 19.19,29.815 19.236,29.722C19.282,29.63 19.383,29.552 19.537,29.491C19.66,29.46 19.815,29.444 20,29.444C20.185,29.444 20.309,29.46 20.37,29.491ZM20.833,29.583C21.142,29.645 21.404,29.738 21.62,29.861C21.404,29.923 21.273,30.039 21.227,30.208C21.181,30.378 21.157,30.772 21.157,31.389L21.157,31.481C21.188,32.13 21.157,32.546 21.065,32.731C20.972,32.917 20.772,32.963 20.463,32.87C20.833,32.84 21.042,32.677 21.088,32.384C21.134,32.091 21.034,31.667 20.787,31.111L20.694,30.88C20.478,30.417 20.363,30.116 20.347,29.977C20.332,29.838 20.363,29.738 20.44,29.676C20.517,29.614 20.648,29.583 20.833,29.583ZM19.074,29.583C18.981,29.738 18.981,29.907 19.074,30.093C19.228,30.34 19.506,30.633 19.907,30.972C19.907,30.972 20.154,31.219 20.185,31.25C20.525,31.559 20.71,31.836 20.741,32.083C20.741,32.238 20.633,32.377 20.417,32.5C20.664,32.16 20.694,31.883 20.509,31.667C20.324,31.451 19.923,31.235 19.306,31.019C19.306,30.988 19.275,30.972 19.213,30.972L19.12,30.926C18.688,30.772 18.387,30.625 18.218,30.486C18.048,30.347 18.086,30.154 18.333,29.907C18.457,29.846 18.657,29.753 18.935,29.63L19.074,29.583ZM17.963,30.185C17.932,30.309 17.994,30.455 18.148,30.625C18.302,30.795 18.611,30.957 19.074,31.111L19.259,31.157C19.846,31.404 20.216,31.605 20.37,31.759C20.463,31.944 20.432,32.145 20.278,32.361C20.401,31.991 20.324,31.728 20.046,31.574C19.769,31.42 19.321,31.358 18.704,31.389L18.611,31.389C18.056,31.42 17.708,31.404 17.569,31.343C17.431,31.281 17.346,31.211 17.315,31.134C17.284,31.057 17.299,30.941 17.361,30.787L17.361,30.741L17.5,30.602C17.685,30.386 17.84,30.247 17.963,30.185ZM17.13,31.157C17.13,31.343 17.238,31.466 17.454,31.528C17.67,31.59 18.056,31.605 18.611,31.574L19.491,31.574C19.707,31.605 19.861,31.651 19.954,31.713C20.139,31.806 20.201,31.991 20.139,32.269C20.077,31.867 19.9,31.644 19.606,31.597C19.313,31.551 18.889,31.682 18.333,31.991C18.302,31.991 18.272,32.006 18.241,32.037C17.716,32.284 17.361,32.407 17.176,32.407C16.929,32.469 16.806,32.315 16.806,31.944C16.929,31.574 17.037,31.312 17.13,31.157ZM16.713,32.407C16.836,32.562 16.998,32.631 17.199,32.616C17.4,32.6 17.778,32.454 18.333,32.176L18.426,32.13C18.951,31.883 19.336,31.775 19.583,31.806C19.769,31.806 19.892,31.96 19.954,32.269C19.769,31.991 19.552,31.852 19.306,31.852C19.059,31.852 18.75,32.052 18.38,32.454L18.102,32.731C17.793,33.071 17.515,33.333 17.269,33.519C17.145,33.58 17.045,33.588 16.968,33.542C16.89,33.495 16.806,33.38 16.713,33.194L16.713,32.407ZM16.806,33.657C16.991,33.781 17.176,33.781 17.361,33.657C17.485,33.596 17.685,33.441 17.963,33.194L18.241,32.87C18.333,32.716 18.426,32.623 18.519,32.593C18.858,32.222 19.12,32.037 19.306,32.037C19.491,32.037 19.645,32.145 19.769,32.361C19.46,32.114 19.167,32.083 18.889,32.269C18.796,32.361 18.688,32.5 18.565,32.685L18.241,33.426L18.194,33.611C18.009,34.105 17.855,34.414 17.731,34.537C17.639,34.599 17.546,34.622 17.454,34.606C17.361,34.591 17.253,34.522 17.13,34.398C17.006,34.213 16.898,33.966 16.806,33.657ZM17.407,34.815C17.531,34.846 17.685,34.799 17.87,34.676C18.025,34.491 18.179,34.167 18.333,33.704L18.426,33.519C18.549,33.179 18.65,32.924 18.727,32.755C18.804,32.585 18.904,32.469 19.028,32.407C19.182,32.253 19.383,32.269 19.63,32.454C19.228,32.361 18.958,32.438 18.819,32.685C18.681,32.932 18.627,33.38 18.657,34.028L18.657,34.12C18.657,34.707 18.642,35.077 18.611,35.231C18.519,35.448 18.318,35.494 18.009,35.37C17.886,35.309 17.731,35.17 17.546,34.954L17.407,34.815ZM18.38,35.648C18.565,35.586 18.688,35.471 18.75,35.301C18.812,35.131 18.843,34.738 18.843,34.12L18.843,34.028C18.812,33.441 18.858,33.04 18.981,32.824C19.105,32.608 19.29,32.546 19.537,32.639C19.167,32.67 18.958,32.832 18.912,33.125C18.866,33.418 18.966,33.843 19.213,34.398L19.306,34.63C19.522,35.093 19.63,35.401 19.63,35.556C19.691,35.833 19.537,35.957 19.167,35.926C18.951,35.895 18.688,35.802 18.38,35.648ZM19.63,36.019C19.784,35.895 19.853,35.748 19.838,35.579C19.823,35.409 19.722,35.093 19.537,34.63L19.398,34.352C19.151,33.796 19.035,33.41 19.051,33.194C19.066,32.978 19.228,32.855 19.537,32.824C19.228,33.009 19.082,33.225 19.097,33.472C19.113,33.719 19.306,34.028 19.676,34.398C19.738,34.429 19.846,34.522 20,34.676C20.432,35.046 20.679,35.301 20.741,35.44C20.802,35.579 20.81,35.694 20.764,35.787C20.718,35.88 20.617,35.957 20.463,36.019C20.37,36.049 20.224,36.065 20.023,36.065C19.823,36.065 19.691,36.049 19.63,36.019ZM20.926,35.926C21.019,35.772 21.019,35.602 20.926,35.417C20.772,35.17 20.494,34.877 20.093,34.537C20.062,34.475 20,34.414 19.907,34.352L19.815,34.259C19.506,33.92 19.321,33.642 19.259,33.426C19.259,33.272 19.367,33.133 19.583,33.009C19.336,33.349 19.306,33.627 19.491,33.843C19.583,33.966 19.715,34.074 19.884,34.167C20.054,34.259 20.324,34.367 20.694,34.491C20.694,34.522 20.725,34.537 20.787,34.537L20.88,34.583C21.312,34.738 21.613,34.884 21.782,35.023C21.952,35.162 21.914,35.355 21.667,35.602C21.543,35.664 21.343,35.756 21.065,35.88L20.926,35.926ZM22.037,35.324C22.099,35.17 22.06,35.031 21.921,34.907C21.782,34.784 21.466,34.614 20.972,34.398L20.741,34.352C20.154,34.105 19.784,33.904 19.63,33.75C19.537,33.565 19.568,33.364 19.722,33.148C19.599,33.519 19.676,33.781 19.954,33.935C20.231,34.09 20.679,34.151 21.296,34.12L21.389,34.12C21.944,34.09 22.299,34.105 22.454,34.167C22.608,34.228 22.693,34.298 22.708,34.375C22.724,34.452 22.701,34.568 22.639,34.722L22.639,34.769L22.5,34.907C22.315,35.123 22.16,35.262 22.037,35.324ZM22.87,34.352C22.87,34.198 22.77,34.082 22.569,34.005C22.369,33.927 21.975,33.904 21.389,33.935L21.296,33.935C20.679,33.966 20.27,33.927 20.069,33.819C19.869,33.711 19.815,33.503 19.907,33.194C19.969,33.627 20.131,33.858 20.394,33.889C20.656,33.92 21.08,33.796 21.667,33.519C21.698,33.519 21.728,33.503 21.759,33.472C22.16,33.287 22.515,33.164 22.824,33.102C22.948,33.102 23.04,33.14 23.102,33.218C23.164,33.295 23.194,33.426 23.194,33.611C23.102,33.92 22.994,34.167 22.87,34.352ZM23.287,33.148C23.225,32.994 23.079,32.924 22.847,32.94C22.616,32.955 22.222,33.086 21.667,33.333L21.574,33.38C21.049,33.627 20.671,33.727 20.44,33.681C20.208,33.634 20.093,33.488 20.093,33.241C20.247,33.58 20.448,33.735 20.694,33.704C20.941,33.673 21.25,33.457 21.62,33.056L21.713,32.963C21.806,32.901 21.867,32.84 21.898,32.778C22.207,32.438 22.485,32.176 22.731,31.991C22.978,31.898 23.164,32.006 23.287,32.315L23.287,33.148ZM23.194,31.852C23.009,31.698 22.824,31.698 22.639,31.852C22.515,31.914 22.315,32.068 22.037,32.315L21.759,32.639C21.667,32.762 21.574,32.855 21.481,32.917C21.173,33.287 20.918,33.472 20.718,33.472C20.517,33.472 20.355,33.364 20.231,33.148C20.54,33.395 20.833,33.426 21.111,33.241C21.296,33.086 21.512,32.701 21.759,32.083L21.898,31.667C22.083,31.296 22.215,31.073 22.292,30.995C22.369,30.918 22.454,30.887 22.546,30.903C22.639,30.918 22.747,30.988 22.87,31.111C22.994,31.296 23.102,31.543 23.194,31.852ZM22.593,30.694C22.469,30.633 22.33,30.679 22.176,30.833C22.022,30.988 21.852,31.312 21.667,31.806L21.574,31.991C21.451,32.33 21.35,32.585 21.273,32.755C21.196,32.924 21.096,33.04 20.972,33.102C20.818,33.256 20.617,33.241 20.37,33.056C20.802,33.148 21.08,33.056 21.204,32.778C21.296,32.654 21.35,32.5 21.366,32.315C21.381,32.13 21.373,31.852 21.343,31.481L21.343,31.389C21.343,30.802 21.358,30.432 21.389,30.278C21.481,30.062 21.682,30.015 21.991,30.139C22.114,30.201 22.269,30.34 22.454,30.556L22.593,30.694ZM24.722,32.685C25.37,31.512 25.864,30.154 26.204,28.611C26.543,27.068 26.713,25.432 26.713,23.704C26.713,21.79 26.497,19.992 26.065,18.31C25.633,16.628 25.039,15.193 24.282,14.005C23.526,12.816 22.67,11.991 21.713,11.528L21.713,3.981C23.102,4.475 24.36,5.517 25.486,7.106C26.613,8.696 27.5,10.648 28.148,12.963C28.796,15.37 29.12,17.917 29.12,20.602C29.12,23.657 28.704,26.497 27.87,29.12C27.068,31.682 25.972,33.719 24.583,35.231C23.194,36.744 21.667,37.5 20,37.5C18.333,37.5 16.806,36.744 15.417,35.231C14.028,33.719 12.932,31.682 12.13,29.12C11.296,26.497 10.88,23.657 10.88,20.602C10.88,17.917 11.204,15.37 11.852,12.963C12.5,10.648 13.387,8.696 14.514,7.106C15.64,5.517 16.898,4.475 18.287,3.981L18.287,11.528C17.33,11.991 16.474,12.816 15.718,14.005C14.961,15.193 14.367,16.628 13.935,18.31C13.503,19.992 13.287,21.79 13.287,23.704C13.287,25.432 13.457,27.068 13.796,28.611C14.136,30.154 14.63,31.512 15.278,32.685C15.278,32.284 15.324,31.898 15.417,31.528C14.429,29.306 13.935,26.698 13.935,23.704C13.935,21.049 14.336,18.665 15.139,16.551C15.941,14.437 16.991,13.025 18.287,12.315L18.287,12.546C17.052,13.287 16.049,14.684 15.278,16.736C14.506,18.789 14.12,21.111 14.12,23.704C14.12,26.605 14.583,29.12 15.509,31.25C15.633,30.91 15.833,30.509 16.111,30.046C15.34,28.256 14.954,26.142 14.954,23.704C14.954,21.605 15.262,19.707 15.88,18.009C16.497,16.312 17.299,15.108 18.287,14.398L18.287,15.37C17.454,16.049 16.775,17.145 16.25,18.657C15.725,20.17 15.463,21.852 15.463,23.704C15.463,25.864 15.818,27.809 16.528,29.537C17.269,28.765 18.133,28.287 19.12,28.102L19.12,3.472L19.491,3.472L19.491,28.056C19.552,28.056 19.599,28.04 19.63,28.009L19.63,2.5L20.37,2.5L20.37,28.009C20.401,28.04 20.448,28.056 20.509,28.056L20.509,3.472L20.88,3.472L20.88,28.102C21.867,28.287 22.731,28.765 23.472,29.537C24.182,27.809 24.537,25.864 24.537,23.704C24.537,21.852 24.275,20.17 23.75,18.657C23.225,17.145 22.546,16.049 21.713,15.37L21.713,14.398C22.701,15.108 23.503,16.312 24.12,18.009C24.738,19.707 25.046,21.605 25.046,23.704C25.046,26.142 24.66,28.256 23.889,30.046C24.136,30.355 24.336,30.756 24.491,31.25C25.417,29.12 25.88,26.605 25.88,23.704C25.88,21.111 25.494,18.789 24.722,16.736C23.951,14.684 22.948,13.287 21.713,12.546L21.713,12.315C23.009,13.025 24.059,14.437 24.861,16.551C25.664,18.665 26.065,21.049 26.065,23.704C26.065,26.698 25.571,29.306 24.583,31.528C24.676,31.898 24.722,32.284 24.722,32.685ZM21.065,3.843L21.389,3.843L21.389,15.324L21.065,15.602L21.065,3.843ZM18.935,3.843L18.935,15.602L18.611,15.324L18.611,3.843L18.935,3.843ZM20,36.991C21.173,36.991 22.168,36.574 22.986,35.741C23.804,34.907 24.213,33.912 24.213,32.755C24.213,31.597 23.804,30.602 22.986,29.769C22.168,28.935 21.173,28.519 20,28.519C18.827,28.519 17.832,28.935 17.014,29.769C16.196,30.602 15.787,31.597 15.787,32.755C15.787,33.912 16.204,34.907 17.037,35.741C17.87,36.574 18.858,36.991 20,36.991ZM20,36.528C18.951,36.528 18.063,36.165 17.338,35.44C16.613,34.715 16.25,33.827 16.25,32.778C16.25,31.728 16.613,30.833 17.338,30.093C18.063,29.352 18.951,28.981 20,28.981C21.049,28.981 21.944,29.352 22.685,30.093C23.426,30.833 23.796,31.728 23.796,32.778C23.796,33.827 23.426,34.715 22.685,35.44C21.944,36.165 21.049,36.528 20,36.528ZM20,36.296C20.988,36.296 21.829,35.949 22.523,35.255C23.218,34.56 23.565,33.727 23.565,32.755C23.565,31.782 23.218,30.949 22.523,30.255C21.829,29.56 20.988,29.213 20,29.213C19.012,29.213 18.171,29.56 17.477,30.255C16.782,30.949 16.435,31.782 16.435,32.755C16.435,33.727 16.782,34.56 17.477,35.255C18.171,35.949 19.012,36.296 20,36.296Z" style="fill:#db8e57;fill-rule:nonzero;"/></g></g></svg>