<?xml version="1.0" encoding="UTF-8" standalone="no"?><!DOCTYPE svg PUBLIC "-//W3C//DTD SVG 1.1//EN" "http://www.w3.org/Graphics/SVG/1.1/DTD/svg11.dtd"><svg width="100%" height="100%" viewBox="0 0 40 40" version="1.1" xmlns="http://www.w3.org/2000/svg" xmlns:xlink="http://www.w3.org/1999/xlink" xml:space="preserve" xmlns:serif="http://www.serif.com/" style="fill-rule:evenodd;clip-rule:evenodd;stroke-linejoin:round;stroke-miterlimit:2;"><rect id="plain-knowledge" x="0" y="0" width="40" height="40" style="fill:none;"/><g id="plain-knowledge1" serif:id="plain-knowledge"><g id="Knowledge"><path id="Knowledge1" serif:id="Knowledge" d="M20,29.989L5,29.989L5,37.489L20,37.489L20,29.989ZM5,28.989L5,25.989C5,22.676 7.686,19.989 11,19.989C16.891,19.989 25,19.989 25,19.989L25,23.989L22,23.989C21.47,23.989 20.961,24.2 20.586,24.575C20.211,24.95 20,25.459 20,25.989L20,28.989L5,28.989ZM35,19.989L26,19.989L26,23.989L35,23.989L35,19.989ZM5,8.989L5,11.989C5,15.303 7.686,17.989 11,17.989C16.891,17.989 25,17.989 25,17.989L25,13.989L22,13.989C21.47,13.989 20.961,13.779 20.586,13.404C20.211,13.029 20,12.52 20,11.989L20,8.989L5,8.989ZM35,13.989L26,13.989L26,17.989L35,17.989L35,13.989ZM20,2.511L5,2.511L5,7.989L20,7.989L20,2.511Z" style="fill:#f1de7f;"/></g></g></svg>