<svg xmlns="http://www.w3.org/2000/svg" xml:space="preserve" style="fill-rule:evenodd;clip-rule:evenodd;stroke-linejoin:round;stroke-miterlimit:2" viewBox="0 0 40 40"><path d="M0 0h40v40H0z" style="fill:none"/><path d="M19.644 2.772a.363.363 0 0 1 .712 0l2.276 11.725c.138.71.485 1.363.997 1.874a3.63 3.63 0 0 0 1.874.997l11.725 2.276a.363.363 0 0 1 0 .712l-11.725 2.276a3.63 3.63 0 0 0-1.874.997 3.63 3.63 0 0 0-.997 1.874l-2.276 11.725a.363.363 0 0 1-.712 0l-2.276-11.725a3.63 3.63 0 0 0-.997-1.874 3.63 3.63 0 0 0-1.874-.997L2.772 20.356a.363.363 0 0 1 0-.712l11.725-2.276a3.63 3.63 0 0 0 1.874-.997 3.63 3.63 0 0 0 .997-1.874z" style="fill:#f1de7f"/></svg>