<?xml version="1.0" encoding="UTF-8" standalone="no"?><!DOCTYPE svg PUBLIC "-//W3C//DTD SVG 1.1//EN" "http://www.w3.org/Graphics/SVG/1.1/DTD/svg11.dtd"><svg width="100%" height="100%" viewBox="0 0 40 40" version="1.1" xmlns="http://www.w3.org/2000/svg" xmlns:xlink="http://www.w3.org/1999/xlink" xml:space="preserve" xmlns:serif="http://www.serif.com/" style="fill-rule:evenodd;clip-rule:evenodd;stroke-linejoin:round;stroke-miterlimit:2;"><rect id="plain-core" x="0" y="0" width="40" height="40" style="fill:none;"/><g id="plain-core1" serif:id="plain-core"><g id="Core"><path id="Core1" serif:id="Core" d="M19.644,2.772C19.677,2.602 19.826,2.478 20,2.478C20.174,2.478 20.323,2.602 20.356,2.772L22.632,14.497C22.77,15.207 23.117,15.86 23.629,16.371C24.14,16.883 24.793,17.23 25.503,17.368L37.228,19.644C37.398,19.677 37.522,19.826 37.522,20C37.522,20.174 37.398,20.323 37.228,20.356L25.503,22.632C24.793,22.77 24.14,23.117 23.629,23.629C23.117,24.14 22.77,24.793 22.632,25.503L20.356,37.228C20.323,37.398 20.174,37.522 20,37.522C19.826,37.522 19.677,37.398 19.644,37.228L17.368,25.503C17.23,24.793 16.883,24.14 16.371,23.629C15.86,23.117 15.207,22.77 14.497,22.632L2.772,20.356C2.602,20.323 2.478,20.174 2.478,20C2.478,19.826 2.602,19.677 2.772,19.644L14.497,17.368C15.207,17.23 15.86,16.883 16.371,16.371C16.883,15.86 17.23,15.207 17.368,14.497L19.644,2.772Z" style="fill:#f1de7f;"/></g></g></svg>