<svg xmlns="http://www.w3.org/2000/svg" xml:space="preserve" style="fill-rule:evenodd;clip-rule:evenodd;stroke-linejoin:round;stroke-miterlimit:2" viewBox="0 0 40 40"><path d="M0 0h40v40H0z" style="fill:none"/><path d="M7 28.732A1.999 1.999 0 0 1 8 25a2 2 0 0 1 1 3.732v4.536A1.999 1.999 0 0 1 8 37a2 2 0 0 1-1-3.732zm3-22A1.999 1.999 0 0 1 11 3a2 2 0 0 1 1 3.732v7.854l8 8V37h-8v-4h2v-6.586l-10-10V6.732A1.999 1.999 0 0 1 5 3a2 2 0 0 1 1 3.732v8.854l10 10V33h2v-9.586l-8-8zm10.518 12.2a2 2 0 1 1 1.414-1.414L24 19.586V32h9.268A1.999 1.999 0 0 1 37 33a2 2 0 0 1-3.732 1H22V20.414zM33 4V3h4v10h-2.586L28 19.414V26h5.268A1.999 1.999 0 0 1 37 27a2 2 0 0 1-3.732 1H26v-9.414l7-7V6h-2.586l-6 6h-4.682A1.999 1.999 0 0 1 16 11a2 2 0 0 1 3.732-1h3.854l4-4h-7.854A1.999 1.999 0 0 1 16 5a2 2 0 0 1 3.732-1z" style="fill:#f1de7f"/></svg>