<?xml version="1.0" encoding="UTF-8" standalone="no"?><!DOCTYPE svg PUBLIC "-//W3C//DTD SVG 1.1//EN" "http://www.w3.org/Graphics/SVG/1.1/DTD/svg11.dtd"><svg width="100%" height="100%" viewBox="0 0 40 40" version="1.1" xmlns="http://www.w3.org/2000/svg" xmlns:xlink="http://www.w3.org/1999/xlink" xml:space="preserve" xmlns:serif="http://www.serif.com/" style="fill-rule:evenodd;clip-rule:evenodd;stroke-linejoin:round;stroke-miterlimit:2;"><rect id="plain-fitness" x="0" y="0" width="40" height="40" style="fill:none;"/><g id="plain-fitness1" serif:id="plain-fitness"><g id="Fitness"><path id="Fitness1" serif:id="Fitness" d="M9,19L8,19L8,15C8,14.448 7.552,14 7,14L5,14C4.448,14 4,14.448 4,15L4,19L3.5,19C3.224,19 3,19.224 3,19.5L3,20.5C3,20.776 3.224,21 3.5,21L4,21L4,25C4,25.552 4.448,26 5,26L7,26C7.552,26 8,25.552 8,25L8,21L9,21L9,27C9,27.552 9.448,28 10,28L12,28C12.552,28 13,27.552 13,27L13,21L27,21L27,27C27,27.552 27.448,28 28,28L30,28C30.552,28 31,27.552 31,27L31,21L32,21L32,25C32,25.552 32.448,26 33,26L35,26C35.552,26 36,25.552 36,25L36,21L36.5,21C36.776,21 37,20.776 37,20.5L37,19.5C37,19.224 36.776,19 36.5,19L36,19L36,15C36,14.448 35.552,14 35,14L33,14C32.448,14 32,14.448 32,15L32,19L31,19L31,13C31,12.448 30.552,12 30,12L28,12C27.448,12 27,12.448 27,13L27,19L13,19L13,13C13,12.448 12.552,12 12,12L10,12C9.448,12 9,12.448 9,13L9,19Z" style="fill:#f1de7f;"/></g></g></svg>