<svg xmlns="http://www.w3.org/2000/svg" xml:space="preserve" style="fill-rule:evenodd;clip-rule:evenodd;stroke-linejoin:round;stroke-miterlimit:2" viewBox="0 0 40 40"><path d="M0 0h40v40H0z" style="fill:none"/><path d="M25.439 23.756c.082.328.247.631.479.879A7.9 7.9 0 0 1 28 30c0 4.415-3.585 8-8 8s-8-3.585-8-8a7.97 7.97 0 0 1 2.075-5.373c.23-.246.393-.547.475-.874.084-.29.178-.666.261-.996a1 1 0 0 1 .97-.757h8.438a1 1 0 0 1 .97.757zM15.542 21h.508l3.282-3.281-.755-.755V8h-5v11.036zm1.922 0 4.036-4.036V8h5v11.036L24.536 21zM11.011 5 13 7h14l2.011-2L27 2H13z" style="fill:#f1de7f"/></svg>