<?xml version="1.0" encoding="UTF-8" standalone="no"?><!DOCTYPE svg PUBLIC "-//W3C//DTD SVG 1.1//EN" "http://www.w3.org/Graphics/SVG/1.1/DTD/svg11.dtd"><svg width="100%" height="100%" viewBox="0 0 40 40" version="1.1" xmlns="http://www.w3.org/2000/svg" xmlns:xlink="http://www.w3.org/1999/xlink" xml:space="preserve" xmlns:serif="http://www.serif.com/" style="fill-rule:evenodd;clip-rule:evenodd;stroke-linejoin:round;stroke-miterlimit:2;"><rect id="plain-dominion" x="0" y="0" width="40" height="40" style="fill:none;"/><g id="plain-dominion1" serif:id="plain-dominion"><g id="Dominion"><path id="Dominion1" serif:id="Dominion" d="M8.83,18.236L11.615,18.236L11.615,19.025L8.83,19.025L8.83,18.236ZM14.725,14.569L15.7,14.569C15.793,15.528 16.025,16.364 16.397,17.076C16.768,17.787 17.294,18.159 17.975,18.19L17.975,18.979C17.325,19.01 16.807,19.381 16.42,20.093C16.033,20.805 15.793,21.656 15.7,22.646L14.725,22.646C14.633,21.656 14.393,20.805 14.006,20.093C13.619,19.381 13.101,19.01 12.451,18.979L12.451,18.19C13.132,18.159 13.658,17.787 14.029,17.076C14.401,16.364 14.633,15.528 14.725,14.569ZM23.638,2.593L25.17,2.5L25.17,37.5L14.725,37.5L14.725,24.038L15.747,24.038L15.747,31.744C15.747,32.58 15.917,33.206 16.257,33.624C16.598,34.042 17.046,34.251 17.603,34.251C18.748,34.251 19.708,33.554 20.481,32.162C21.193,30.924 21.812,28.974 22.338,26.313C22.833,23.961 23.189,20.727 23.406,16.611C23.561,13.176 23.638,8.504 23.638,2.593Z" style="fill:#bb81e4;fill-rule:nonzero;"/></g></g></svg>