<?xml version="1.0" encoding="UTF-8" standalone="no"?><!DOCTYPE svg PUBLIC "-//W3C//DTD SVG 1.1//EN" "http://www.w3.org/Graphics/SVG/1.1/DTD/svg11.dtd"><svg width="100%" height="100%" viewBox="0 0 40 40" version="1.1" xmlns="http://www.w3.org/2000/svg" xmlns:xlink="http://www.w3.org/1999/xlink" xml:space="preserve" xmlns:serif="http://www.serif.com/" style="fill-rule:evenodd;clip-rule:evenodd;stroke-linejoin:round;stroke-miterlimit:2;"><rect id="plain-career-veteran" x="0" y="0" width="40" height="40" style="fill:none;"/><g id="plain-career-veteran1" serif:id="plain-career-veteran"><g id="Veteran"><path id="Veteran1" serif:id="Veteran" d="M25.439,23.756C25.521,24.084 25.686,24.387 25.918,24.635C27.214,26.047 28,27.933 28,30C28,34.415 24.415,38 20,38C15.585,38 12,34.415 12,30C12,27.933 12.786,26.047 14.075,24.627C14.305,24.381 14.468,24.08 14.55,23.753C14.634,23.463 14.728,23.087 14.811,22.757C14.922,22.312 15.322,22 15.781,22C17.648,22 22.352,22 24.219,22C24.678,22 25.078,22.312 25.189,22.757C25.272,23.087 25.366,23.463 25.439,23.756ZM15.542,21L16.05,21L19.332,17.719L18.577,16.964C18.577,16.964 18.577,8 18.577,8L13.577,8L13.577,19.036L15.542,21ZM17.464,21L21.5,16.964L21.5,8L26.5,8L26.5,19.036L24.536,21L17.464,21ZM11.011,5L13,7L27,7L29.011,5L27,2L13,2L11.011,5Z" style="fill:#f1de7f;"/></g></g></svg>