<?xml version="1.0" encoding="UTF-8" standalone="no"?><!DOCTYPE svg PUBLIC "-//W3C//DTD SVG 1.1//EN" "http://www.w3.org/Graphics/SVG/1.1/DTD/svg11.dtd"><svg width="100%" height="100%" viewBox="0 0 40 40" version="1.1" xmlns="http://www.w3.org/2000/svg" xmlns:xlink="http://www.w3.org/1999/xlink" xml:space="preserve" xmlns:serif="http://www.serif.com/" style="fill-rule:evenodd;clip-rule:evenodd;stroke-linejoin:round;stroke-miterlimit:2;"><rect id="plain-betazoid" x="0" y="0" width="40" height="40" style="fill:none;"/><g id="plain-betazoid1" serif:id="plain-betazoid"><g id="Betazoid"><path id="Betazoid1" serif:id="Betazoid" d="M22.729,32.049C21.383,32.067 19.988,31.85 18.609,31.403C18.451,31.664 18.261,31.907 18.042,32.126C17.21,32.957 16.056,33.352 14.767,33.309C13.001,33.251 10.965,32.353 9.306,30.694C7.647,29.035 6.749,26.999 6.691,25.233C6.648,23.944 7.043,22.79 7.874,21.958C8.093,21.739 8.336,21.549 8.597,21.391C8.15,20.012 7.933,18.617 7.951,17.271C6.168,15.171 5.158,12.799 5.017,10.731C4.901,9.018 5.372,7.502 6.437,6.437C7.502,5.372 9.018,4.901 10.731,5.017C12.799,5.158 15.171,6.168 17.271,7.951C20.748,7.904 24.555,9.427 27.564,12.436C30.573,15.445 32.096,19.252 32.049,22.729C33.832,24.829 34.842,27.201 34.983,29.269C35.099,30.982 34.628,32.498 33.563,33.563C32.498,34.628 30.982,35.099 29.269,34.983C27.201,34.842 24.829,33.832 22.729,32.049ZM15.146,8.187C13.426,8.557 11.86,9.36 10.61,10.61C9.36,11.86 8.557,13.426 8.187,15.146C7.174,13.641 6.586,12.058 6.489,10.631C6.404,9.38 6.702,8.258 7.48,7.48C8.258,6.702 9.38,6.404 10.631,6.489C12.058,6.586 13.641,7.174 15.146,8.187ZM17.195,30.86C17.134,30.938 17.069,31.012 16.998,31.083C16.447,31.634 15.67,31.863 14.816,31.835C13.366,31.786 11.712,31.013 10.349,29.651C8.987,28.288 8.214,26.634 8.165,25.184C8.137,24.33 8.366,23.553 8.917,23.002C8.988,22.931 9.062,22.866 9.14,22.805C9.89,24.492 10.992,26.12 12.436,27.564C13.88,29.008 15.508,30.11 17.195,30.86ZM19.292,12.658C18.745,11.68 18.019,10.716 17.131,9.828C16.994,9.691 16.856,9.558 16.715,9.429C14.784,9.571 13.009,10.298 11.653,11.653C10.298,13.009 9.571,14.784 9.429,16.715C9.558,16.856 9.691,16.994 9.828,17.131C10.716,18.019 11.68,18.745 12.658,19.292C12.816,17.646 13.524,16.043 14.783,14.783C16.043,13.524 17.646,12.816 19.292,12.658ZM12.695,21.024C12.168,20.876 11.647,20.792 11.149,20.776C10.738,20.762 10.341,20.793 9.964,20.868C9.747,20.194 9.593,19.516 9.501,18.846C10.517,19.738 11.601,20.446 12.686,20.961C12.689,20.982 12.692,21.003 12.695,21.024ZM17.249,26.846C16.351,26.487 15.51,25.943 14.783,25.217C14.057,24.49 13.513,23.649 13.154,22.751C12.458,22.443 11.758,22.272 11.1,22.25C10.898,22.243 10.701,22.251 10.51,22.274C11.194,23.778 12.19,25.232 13.479,26.521C14.768,27.81 16.222,28.806 17.726,29.49C17.749,29.299 17.757,29.102 17.75,28.9C17.728,28.242 17.557,27.542 17.249,26.846ZM20.369,15.368L22.222,15.368L22.222,24.589L21.853,24.589L21.853,18.701L18.121,18.701L18.121,24.589L17.427,24.589L17.427,17.581L20.369,17.581L20.369,15.368ZM19.631,15.368L17.427,15.368L17.427,16.843L19.631,16.843L19.631,15.368ZM30.499,21.154C29.483,20.262 28.399,19.554 27.314,19.039C27.11,17.482 26.411,15.978 25.217,14.783C24.022,13.589 22.518,12.89 20.961,12.686C20.446,11.6 19.738,10.516 18.846,9.501C21.502,9.863 24.264,11.222 26.521,13.479C28.778,15.736 30.137,18.498 30.499,21.154ZM21.115,24.589L18.859,24.589L18.859,19.439C18.859,19.439 21.115,19.439 21.115,19.439L21.115,24.589ZM21.154,30.499C20.483,30.407 19.806,30.252 19.132,30.036C19.207,29.659 19.238,29.262 19.224,28.851C19.208,28.353 19.124,27.832 18.976,27.305C18.997,27.308 19.018,27.311 19.039,27.314C19.554,28.4 20.262,29.484 21.154,30.499ZM30.571,23.285C30.442,23.144 30.309,23.006 30.172,22.869C29.284,21.981 28.32,21.255 27.342,20.708C27.184,22.354 26.476,23.957 25.217,25.217C23.957,26.476 22.354,27.184 20.708,27.342C21.255,28.32 21.981,29.284 22.869,30.172C23.006,30.309 23.144,30.442 23.285,30.571C25.216,30.429 26.991,29.702 28.347,28.347C29.702,26.991 30.429,25.216 30.571,23.285ZM31.813,24.854C32.826,26.359 33.414,27.942 33.511,29.369C33.596,30.62 33.298,31.742 32.52,32.52C31.742,33.298 30.62,33.596 29.369,33.511C27.942,33.414 26.359,32.826 24.854,31.813C26.574,31.443 28.14,30.64 29.39,29.39C30.64,28.14 31.443,26.574 31.813,24.854Z" style="fill:#dbc557;"/></g></g></svg>