<?xml version="1.0" encoding="UTF-8" standalone="no"?><!DOCTYPE svg PUBLIC "-//W3C//DTD SVG 1.1//EN" "http://www.w3.org/Graphics/SVG/1.1/DTD/svg11.dtd"><svg width="100%" height="100%" viewBox="0 0 40 40" version="1.1" xmlns="http://www.w3.org/2000/svg" xmlns:xlink="http://www.w3.org/1999/xlink" xml:space="preserve" xmlns:serif="http://www.serif.com/" style="fill-rule:evenodd;clip-rule:evenodd;stroke-linejoin:round;stroke-miterlimit:2;"><rect id="plain-custom" x="0" y="0" width="40" height="40" style="fill:none;"/><g id="plain-custom1" serif:id="plain-custom"><g id="Custom"><path id="Custom1" serif:id="Custom" d="M12.768,31.223C13.723,29.404 14.587,28.017 15.361,27.061C16.361,25.833 17.271,25.242 18.09,25.288C19.272,25.333 20.364,26.698 21.365,29.381C22.047,31.2 22.684,33.566 23.275,36.477C22.274,37.159 21.183,37.5 20,37.5C18.545,37.5 17.191,36.943 15.941,35.828C14.69,34.714 13.632,33.179 12.768,31.223ZM11.131,26.243C10.721,23.878 10.517,21.808 10.517,20.034C10.517,16.85 10.949,13.917 11.813,11.233C12.677,8.549 13.837,6.423 15.292,4.854C16.748,3.285 18.328,2.5 20.034,2.5C21.74,2.5 23.32,3.285 24.776,4.854C26.231,6.423 27.38,8.549 28.221,11.233C29.063,13.917 29.483,16.85 29.483,20.034C29.483,23.582 28.938,26.834 27.846,29.79C26.845,32.61 25.481,34.725 23.752,36.135C23.616,34.953 23.366,32.906 23.002,29.995C22.502,26.22 22.138,23.309 21.91,21.262C21.501,17.851 20.978,14.917 20.341,12.461C19.431,9.095 18.476,7.412 17.476,7.412C15.565,7.412 13.45,13.689 11.131,26.243Z" style="fill:#f1de7f;fill-rule:nonzero;"/></g></g></svg>