<?xml version="1.0" encoding="UTF-8" standalone="no"?><!DOCTYPE svg PUBLIC "-//W3C//DTD SVG 1.1//EN" "http://www.w3.org/Graphics/SVG/1.1/DTD/svg11.dtd"><svg width="100%" height="100%" viewBox="0 0 40 40" version="1.1" xmlns="http://www.w3.org/2000/svg" xmlns:xlink="http://www.w3.org/1999/xlink" xml:space="preserve" xmlns:serif="http://www.serif.com/" style="fill-rule:evenodd;clip-rule:evenodd;stroke-linejoin:round;stroke-miterlimit:2;"><rect id="plain-career-experienced" x="0" y="0" width="40" height="40" style="fill:none;"/><g id="plain-career-experienced1" serif:id="plain-career-experienced"><g id="Experienced"><path id="Experienced1" serif:id="Experienced" d="M17.858,24.628C17.871,24.56 17.931,24.511 18,24.511C18.069,24.511 18.129,24.56 18.142,24.628L19.052,29.312C19.107,29.596 19.245,29.857 19.45,30.061C19.654,30.265 19.915,30.404 20.199,30.459L24.883,31.368C24.951,31.382 25,31.441 25,31.511C25,31.58 24.951,31.64 24.883,31.653L20.199,32.562C19.915,32.618 19.654,32.756 19.45,32.961C19.245,33.165 19.107,33.426 19.052,33.709L18.142,38.393C18.129,38.462 18.069,38.511 18,38.511C17.931,38.511 17.871,38.462 17.858,38.393L16.948,33.709C16.893,33.426 16.755,33.165 16.55,32.961C16.346,32.756 16.085,32.618 15.801,32.562L11.117,31.653C11.049,31.64 11,31.58 11,31.511C11,31.441 11.049,31.382 11.117,31.368L15.801,30.459C16.085,30.404 16.346,30.265 16.55,30.061C16.755,29.857 16.893,29.596 16.948,29.312L17.858,24.628ZM28.827,15.132C28.843,15.049 28.916,14.989 29,14.989C29.084,14.989 29.157,15.049 29.173,15.132L30.277,20.82C30.344,21.164 30.512,21.481 30.76,21.729C31.009,21.977 31.325,22.145 31.67,22.212L37.358,23.316C37.44,23.332 37.5,23.405 37.5,23.489C37.5,23.573 37.44,23.646 37.358,23.662L31.67,24.766C31.325,24.833 31.009,25.001 30.76,25.25C30.512,25.498 30.344,25.814 30.277,26.159L29.173,31.847C29.157,31.929 29.084,31.989 29,31.989C28.916,31.989 28.843,31.929 28.827,31.847L27.723,26.159C27.656,25.814 27.488,25.498 27.24,25.25C26.991,25.001 26.675,24.833 26.33,24.766L20.642,23.662C20.56,23.646 20.5,23.573 20.5,23.489C20.5,23.405 20.56,23.332 20.642,23.316L26.33,22.212C26.675,22.145 26.991,21.977 27.24,21.729C27.488,21.481 27.656,21.164 27.723,20.82L28.827,15.132ZM13.276,3.674C13.297,3.567 13.391,3.489 13.5,3.489C13.609,3.489 13.703,3.567 13.724,3.674L15.153,11.034C15.239,11.48 15.457,11.89 15.778,12.211C16.099,12.532 16.509,12.75 16.955,12.837L24.316,14.266C24.423,14.286 24.5,14.38 24.5,14.489C24.5,14.598 24.423,14.692 24.316,14.713L16.955,16.142C16.509,16.228 16.099,16.446 15.778,16.767C15.457,17.089 15.239,17.498 15.153,17.944L13.724,25.305C13.703,25.412 13.609,25.489 13.5,25.489C13.391,25.489 13.297,25.412 13.276,25.305L11.847,17.944C11.761,17.498 11.543,17.089 11.222,16.767C10.901,16.446 10.491,16.228 10.045,16.142L2.684,14.713C2.577,14.692 2.5,14.598 2.5,14.489C2.5,14.38 2.577,14.286 2.684,14.266L10.045,12.837C10.491,12.75 10.901,12.532 11.222,12.211C11.543,11.89 11.761,11.48 11.847,11.034L13.276,3.674Z" style="fill:#f1de7f;"/></g></g></svg>