<?xml version="1.0" encoding="UTF-8" standalone="no"?><!DOCTYPE svg PUBLIC "-//W3C//DTD SVG 1.1//EN" "http://www.w3.org/Graphics/SVG/1.1/DTD/svg11.dtd"><svg width="100%" height="100%" viewBox="0 0 40 40" version="1.1" xmlns="http://www.w3.org/2000/svg" xmlns:xlink="http://www.w3.org/1999/xlink" xml:space="preserve" xmlns:serif="http://www.serif.com/" style="fill-rule:evenodd;clip-rule:evenodd;stroke-linejoin:round;stroke-miterlimit:2;"><rect id="plain-insight" x="0" y="0" width="40" height="40" style="fill:none;"/><g id="plain-insight1" serif:id="plain-insight"><g id="Insight"><path id="Insight1" serif:id="Insight" d="M15.667,17.667L24.333,17.667C28.013,17.667 31,20.654 31,24.333C31,28.013 28.013,31 24.333,31L10,31L10,35L24.333,35C30.22,35 35,30.22 35,24.333C35,18.446 30.22,13.667 24.333,13.667L15.667,13.667L15.667,17.667ZM24.333,22.333L15.667,22.333C11.987,22.333 9,19.346 9,15.667C9,11.987 11.987,9 15.667,9L30,9L30,5L15.667,5C9.78,5 5,9.78 5,15.667C5,21.554 9.78,26.333 15.667,26.333L24.333,26.333L24.333,22.333Z" style="fill:#f1de7f;"/></g></g></svg>