<?xml version="1.0" encoding="UTF-8" standalone="no"?><!DOCTYPE svg PUBLIC "-//W3C//DTD SVG 1.1//EN" "http://www.w3.org/Graphics/SVG/1.1/DTD/svg11.dtd"><svg width="100%" height="100%" viewBox="0 0 40 40" version="1.1" xmlns="http://www.w3.org/2000/svg" xmlns:xlink="http://www.w3.org/1999/xlink" xml:space="preserve" xmlns:serif="http://www.serif.com/" style="fill-rule:evenodd;clip-rule:evenodd;stroke-linejoin:round;stroke-miterlimit:2;"><rect id="plain-control" x="0" y="0" width="40" height="40" style="fill:none;"/><g id="plain-control1" serif:id="plain-control"><g id="Control"><path id="Control1" serif:id="Control" d="M23.534,3.371C21.204,2.876 18.796,2.876 16.466,3.371L16.379,7.775C14.45,8.347 12.683,9.366 11.223,10.751L7.367,8.625C5.772,10.395 4.568,12.481 3.832,14.747L7.602,17.024C7.133,18.98 7.133,21.02 7.602,22.976L3.832,25.253C4.568,27.519 5.772,29.605 7.367,31.375L11.223,29.249C12.683,30.634 14.45,31.653 16.379,32.225L16.466,36.629C18.796,37.124 21.204,37.124 23.534,36.629L23.621,32.225C25.55,31.653 27.317,30.634 28.777,29.249L32.633,31.375C34.228,29.605 35.432,27.519 36.168,25.253L32.398,22.976C32.867,21.02 32.867,18.98 32.398,17.024L36.168,14.747C35.432,12.481 34.228,10.395 32.633,8.625L28.777,10.751C27.317,9.366 25.55,8.347 23.621,7.775L23.534,3.371ZM20,15.75C22.346,15.75 24.25,17.654 24.25,20C24.25,22.346 22.346,24.25 20,24.25C17.654,24.25 15.75,22.346 15.75,20C15.75,17.654 17.654,15.75 20,15.75Z" style="fill:#f1de7f;"/></g></g></svg>