<svg xmlns="http://www.w3.org/2000/svg" xml:space="preserve" style="fill-rule:evenodd;clip-rule:evenodd;stroke-linejoin:round;stroke-miterlimit:2" viewBox="0 0 40 40"><path d="M0 0h40v40H0z" style="fill:none"/><path d="M20 21c-3.311 0-6-2.689-6-6s2.689-6 6-6 6 2.689 6 6-2.689 6-6 6c4.971 0 9 7.163 9 16H11c0-8.837 4.029-16 9-16m6.428-1.134 3.464 2 1-1.732-3.464-2zm-13.856-1.732-3.464 2 1 1.732 3.464-2zM28 16h4v-2h-4zm-16-2H8v2h4zm1.572-3.866-3.464-2-1 1.732 3.464 2zm13.856 1.732 3.464-2-1-1.732-3.464 2zM16.866 7.572l-2-3.464-1.732 1 2 3.464zm8 1 2-3.464-1.732-1-2 3.464zM21 7V3h-2v4z" style="fill:#f1de7f"/></svg>