<svg xmlns="http://www.w3.org/2000/svg" xml:space="preserve" style="fill-rule:evenodd;clip-rule:evenodd;stroke-linejoin:round;stroke-miterlimit:2" viewBox="0 0 40 40"><path d="M0 0h40v40H0z" style="fill:none"/><path d="M13.596 13.472A4.98 4.98 0 0 1 10 15c-2.76 0-5-2.24-5-5s2.24-5 5-5a5.002 5.002 0 0 1 4.938 5.789l11.466 5.726A4.98 4.98 0 0 1 30 14.987c2.76 0 5 2.241 5 5a5.002 5.002 0 0 1-8.593 3.477l-11.47 5.742Q15 29.595 15 30c0 2.76-2.24 5-5 5s-5-2.24-5-5 2.24-5 5-5c1.409 0 2.683.584 3.593 1.524l11.47-5.742a5 5 0 0 1-.001-1.584z" style="fill:#f1de7f"/></svg>