<?xml version="1.0" encoding="UTF-8" standalone="no"?><!DOCTYPE svg PUBLIC "-//W3C//DTD SVG 1.1//EN" "http://www.w3.org/Graphics/SVG/1.1/DTD/svg11.dtd"><svg width="100%" height="100%" viewBox="0 0 40 40" version="1.1" xmlns="http://www.w3.org/2000/svg" xmlns:xlink="http://www.w3.org/1999/xlink" xml:space="preserve" xmlns:serif="http://www.serif.com/" style="fill-rule:evenodd;clip-rule:evenodd;stroke-linejoin:round;stroke-miterlimit:2;"><rect id="plain-peace" x="0" y="0" width="40" height="40" style="fill:none;"/><g id="plain-peace1" serif:id="plain-peace"><g id="Diplomacy"><path id="Diplomacy1" serif:id="Diplomacy" d="M23.249,35.302C22.366,34.815 21.052,34.524 21.052,34.524C21.052,34.524 19.729,34.308 18.474,33.942C17.25,33.585 16.094,33.078 16.094,33.078C16.094,33.078 16.354,33.724 16.214,34.171C16.097,34.544 15.577,34.73 15.577,34.73C15.577,34.73 16.319,35.042 16.713,35.092C17.66,35.212 19.582,35.176 21.26,35.448C22.748,35.69 23.067,36.125 23.067,36.125C23.067,36.125 22.885,36.316 22.246,36.419C21.334,36.566 19.968,36.538 19.968,36.538L20.949,37.468C20.949,37.468 22.024,37.599 22.953,37.33C23.803,37.084 24.513,36.435 24.513,36.435C24.513,36.435 24.096,35.77 23.249,35.302ZM13.563,29.875C13.027,29.112 11.755,27.551 11.755,27.551C11.755,27.551 11.66,28.302 11.435,28.977C11.251,29.529 10.929,30.03 10.929,30.03C10.929,30.03 10.292,30.124 9.48,30.053C8.316,29.95 6.848,29.669 6.848,29.669C6.848,29.669 8.707,31.948 9.585,32.665C10.322,33.266 10.742,33.652 12.121,33.971C13.531,34.297 15.164,33.956 15.164,33.956C15.164,33.956 15.338,33.024 14.97,32.134C14.542,31.099 14.072,30.601 13.563,29.875ZM32.684,25.399C33.341,24.743 36.004,24.761 37.025,24.633C36.004,24.506 33.412,24.595 32.684,23.867C31.918,23.101 32.046,20.548 31.918,19.525C31.79,20.548 31.918,23.101 31.152,23.867C30.386,24.633 27.832,24.57 26.81,24.634C27.831,24.698 30.386,24.633 31.152,25.399C31.918,26.166 31.79,28.72 31.918,29.741C32.046,28.72 31.918,26.166 32.684,25.399ZM8.811,21.301C8.811,21.301 8.549,21.849 8.215,22.35C7.934,22.772 7.572,23.161 7.572,23.161C7.572,23.161 6.381,22.653 5.385,21.88C3.986,20.794 2.893,18.816 2.975,18.718C2.975,18.718 3.199,22.477 3.749,23.987C4.27,25.414 4.675,26.57 6.279,27.777C7.798,28.919 9.999,28.687 9.999,28.687C9.999,28.687 10.349,27.756 10.337,26.725C10.323,25.591 10.165,25.121 9.947,24.348C9.693,23.445 8.811,21.301 8.811,21.301ZM21.277,20.801C22.371,19.707 26.81,19.738 28.513,19.524C26.81,19.312 22.491,19.461 21.277,18.248C20,16.971 20.213,12.715 20,11.011C19.787,12.715 20,16.971 18.723,18.248C17.446,19.525 13.19,19.419 11.487,19.525C13.189,19.632 17.446,19.525 18.723,20.801C20,22.078 19.787,26.335 20,28.037C20.213,26.335 20,22.078 21.277,20.801ZM8.708,14.483C8.708,14.483 8.252,14.811 7.767,15C7.324,15.172 6.848,15.285 6.848,15.285C6.848,15.285 6.005,14.545 5.681,13.789C5.189,12.641 5.143,11.229 5.143,11.229C5.143,11.229 3.727,13.612 3.594,14.948C3.46,16.302 3.514,17.393 4.5,19C5.416,20.493 7,21.5 7,21.5C7,21.5 7.655,20.924 8.006,20.059C8.377,19.144 8.363,18.729 8.449,18.047C8.566,17.118 8.708,14.483 8.708,14.483ZM27.576,13.482C28.233,12.825 30.895,12.844 31.917,12.715C30.896,12.588 28.304,12.677 27.576,11.949C26.81,11.183 26.937,8.63 26.81,7.607C26.682,8.63 26.81,11.183 26.044,11.949C25.277,12.715 22.724,12.652 21.702,12.716C22.723,12.78 25.277,12.715 26.044,13.482C26.81,14.248 26.682,16.802 26.809,17.823C26.937,16.802 26.81,14.248 27.576,13.482ZM11.445,7.717C11.445,7.717 10.96,7.927 10.508,8C10.179,8.053 9.698,7.975 9.698,7.975C9.698,7.975 9.592,7.612 9.627,6.992C9.668,6.253 9.999,5.238 9.999,5.238C9.999,5.238 7.972,6.916 7.365,7.924C6.76,8.926 6.54,9.689 6.5,11.285C6.463,12.758 7.107,14 7.107,14C7.107,14 7.88,13.783 8.5,13.1C9.145,12.389 9.319,12.051 9.637,11.436C10.113,10.517 11.445,7.717 11.445,7.717ZM12.736,6.103C14.278,5.154 15.733,2.5 15.733,2.5C15.733,2.5 15.221,2.528 14.539,2.903C13.69,3.37 12.633,4.204 12.633,4.204L12.736,3.171C12.736,3.171 11.895,3.838 11.358,4.72C10.81,5.62 10.567,6.735 10.567,6.735C10.52,6.689 11.429,6.907 12.736,6.103Z" style="fill:#f1de7f;"/></g></g></svg>