<?xml version="1.0" encoding="UTF-8" standalone="no"?><!DOCTYPE svg PUBLIC "-//W3C//DTD SVG 1.1//EN" "http://www.w3.org/Graphics/SVG/1.1/DTD/svg11.dtd"><svg width="100%" height="100%" viewBox="0 0 40 40" version="1.1" xmlns="http://www.w3.org/2000/svg" xmlns:xlink="http://www.w3.org/1999/xlink" xml:space="preserve" xmlns:serif="http://www.serif.com/" style="fill-rule:evenodd;clip-rule:evenodd;stroke-linejoin:round;stroke-miterlimit:2;"><rect id="plain-science" x="0" y="0" width="40" height="40" style="fill:none;"/><g id="plain-science1" serif:id="plain-science"><g id="Science"><path id="Science1" serif:id="Science" d="M27.066,33C20.958,36.32 13.56,34.879 9.079,29.963C9.031,29.781 8.982,29.601 8.942,29.419C13.843,31.784 19.769,31.841 24.915,29.044C30.061,26.248 33.237,21.243 33.919,15.845C34.049,15.978 34.174,16.117 34.299,16.255C35.99,22.689 33.173,29.681 27.066,33M31.352,13.757C31.319,18.968 28.529,24.005 23.626,26.669C18.72,29.334 12.978,28.936 8.585,26.131C8.62,20.919 11.409,15.883 16.313,13.217C21.218,10.552 26.961,10.95 31.352,13.757M12.933,7C19.02,3.691 26.391,5.11 30.877,9.99C30.917,10.148 30.962,10.308 30.995,10.468C26.096,8.104 20.171,8.047 15.024,10.844C9.878,13.64 6.701,18.643 6.021,24.043C5.904,23.925 5.794,23.801 5.682,23.681C4.029,17.264 6.846,10.308 12.933,7M36.749,14.924C36.41,13.809 35.953,12.71 35.374,11.644C34.784,10.558 34.095,9.561 33.327,8.657C31.864,6.936 30.11,5.549 28.177,4.532C23.176,1.89 16.987,1.722 11.644,4.625C6.301,7.53 3.077,12.813 2.57,18.448C2.375,20.623 2.584,22.849 3.232,25.012C3.574,26.149 4.036,27.27 4.626,28.355C5.205,29.421 5.877,30.402 6.629,31.294C8.11,33.05 9.896,34.462 11.864,35.493C16.86,38.109 23.027,38.271 28.355,35.375C33.685,32.478 36.905,27.216 37.426,21.6C37.629,19.389 37.419,17.122 36.749,14.924" style="fill:#6e9cf7;fill-rule:nonzero;"/></g></g></svg>