<?xml version="1.0" encoding="UTF-8" standalone="no"?><!DOCTYPE svg PUBLIC "-//W3C//DTD SVG 1.1//EN" "http://www.w3.org/Graphics/SVG/1.1/DTD/svg11.dtd"><svg width="100%" height="100%" viewBox="0 0 40 40" version="1.1" xmlns="http://www.w3.org/2000/svg" xmlns:xlink="http://www.w3.org/1999/xlink" xml:space="preserve" xmlns:serif="http://www.serif.com/" style="fill-rule:evenodd;clip-rule:evenodd;stroke-linejoin:round;stroke-miterlimit:2;"><rect id="plain-comms" x="0" y="0" width="40" height="40" style="fill:none;"/><g id="plain-comms1" serif:id="plain-comms"><g id="Comms"><path id="Comms1" serif:id="Comms" d="M19.397,31.827C19.156,31.644 19,31.355 19,31.029C19,30.478 19.448,30.029 20,30.029C20.552,30.029 21,30.478 21,31.029C21,31.355 20.844,31.644 20.603,31.827L20.687,32.493C24.409,32.422 27.801,31.78 30,31C30,33.76 25.519,36 20,36C14.481,36 10,33.76 10,31C12.199,31.78 15.591,32.422 19.313,32.493L19.397,31.827ZM13,24C15.333,25.318 17.667,25.972 20,25.969C22.333,25.966 24.667,25.307 27,24C22.333,29.278 17.667,29.369 13,24ZM11,20.007C14,21.325 17,21.979 20,21.976C23,21.974 26,21.315 29,20.007C23,25.285 17,25.376 11,20.007ZM9,16.007C12.667,17.325 16.333,17.979 20,17.976C23.667,17.974 27.333,17.315 31,16.007C23.667,21.285 16.333,21.376 9,16.007ZM7,12C11.333,13.318 15.667,13.972 20,13.969C24.333,13.966 28.667,13.307 33,12C24.333,17.278 15.667,17.369 7,12ZM5,7.993C10,9.31 15,9.964 20,9.962C25,9.959 30,9.3 35,7.993C25,13.271 15,13.362 5,7.993ZM3,3.985C8.667,5.303 14.333,5.957 20,5.954C25.667,5.952 31.333,5.293 37,3.985C25.667,9.263 14.333,9.354 3,3.985Z" style="fill:#f1de7f;"/></g></g></svg>