<svg xmlns="http://www.w3.org/2000/svg" xml:space="preserve" style="fill-rule:evenodd;clip-rule:evenodd;stroke-linejoin:round;stroke-miterlimit:2" viewBox="0 0 40 40"><path d="M0 0h40v40H0z" style="fill:none"/><path d="M21.882 36h-3.764l-.942-2.824L4 32.078l.941-9.411 1.883.941v3.765S15.608 28.444 20 28.471c4.392.026 13.176-.942 13.176-.942v-3.764l1.883-.941.941 9.411-13.176.941zm-8.47-18.824 4.706-1.882v9.412l-4.706-1.882zm13.176 0-4.706-1.882v9.412l4.706-1.882zM21.882 4h-3.764l-.942 2.824L4 7.765l.941 9.411 1.883-.941v-3.764s8.784-.942 13.176-.942 13.176.942 13.176.942v3.764l1.883.941L36 7.765l-13.176-.941z" style="fill:#f1de7f"/></svg>