<?xml version="1.0" encoding="UTF-8" standalone="no"?><!DOCTYPE svg PUBLIC "-//W3C//DTD SVG 1.1//EN" "http://www.w3.org/Graphics/SVG/1.1/DTD/svg11.dtd"><svg width="100%" height="100%" viewBox="0 0 50 50" version="1.1" xmlns="http://www.w3.org/2000/svg" xmlns:xlink="http://www.w3.org/1999/xlink" xml:space="preserve" xmlns:serif="http://www.serif.com/" style="fill-rule:evenodd;clip-rule:evenodd;stroke-linejoin:round;stroke-miterlimit:2;"><rect id="weapon-disruptor-array-area" x="0" y="0" width="50" height="50" style="fill:none;"/><g id="weapon-disruptor-array-area1" serif:id="weapon-disruptor-array-area"><path d="M8,42C8,42 27.87,29.201 34.87,22.201C36.821,20.25 36.821,17.081 34.87,15.13C32.919,13.179 29.75,13.179 27.799,15.13C20.799,22.13 8,42 8,42Z" style="fill:#fff;"/><path d="M8,42C8,42 20.799,22.13 27.799,15.13C29.75,13.179 32.919,13.179 34.87,15.13C36.821,17.081 36.821,20.25 34.87,22.201C27.87,29.201 8,42 8,42ZM23.71,26.29C27.025,23.805 30.062,21.352 32.042,19.373C32.432,18.982 32.432,18.349 32.042,17.958C31.651,17.568 31.018,17.568 30.627,17.958C28.648,19.938 26.195,22.975 23.71,26.29Z" style="fill:#a6f20d;"/><path d="M8,42C8,42 20.799,22.13 27.799,15.13C29.75,13.179 32.919,13.179 34.87,15.13C36.821,17.081 36.821,20.25 34.87,22.201C27.87,29.201 8,42 8,42ZM15.207,34.793C21.423,30.537 29.511,24.732 33.456,20.787C34.627,19.616 34.627,17.715 33.456,16.544C32.285,15.373 30.384,15.373 29.213,16.544C25.268,20.489 19.463,28.577 15.207,34.793Z" style="fill:#0df26c;"/><path d="M6.03,40.495C3.262,37.124 0.193,32.165 0.193,32.165C0.193,32.165 5.111,34.127 8.862,36.164C9.223,36.057 9.605,36 10,36C12.208,36 14,37.792 14,40C14,40.405 13.94,40.797 13.827,41.165C15.849,44.907 17.785,49.757 17.785,49.757C17.785,49.757 12.887,46.726 9.518,43.971C7.7,43.752 6.255,42.312 6.03,40.495Z" style="fill:#fff;"/><path d="M6.03,40.495C3.262,37.124 0.193,32.165 0.193,32.165C0.193,32.165 5.111,34.127 8.862,36.164C9.223,36.057 9.605,36 10,36C12.208,36 14,37.792 14,40C14,40.405 13.94,40.797 13.827,41.165C15.849,44.907 17.785,49.757 17.785,49.757C17.785,49.757 12.887,46.726 9.518,43.971C7.7,43.752 6.255,42.312 6.03,40.495ZM8.718,39.161C8.867,39.463 8.966,39.789 9.008,40.127C9.064,40.579 9.423,40.938 9.876,40.993C10.209,41.033 10.531,41.128 10.829,41.273C10.817,40.944 10.86,40.612 10.957,40.291C10.985,40.199 11,40.101 11,40C11,39.448 10.552,39 10,39C9.901,39 9.805,39.014 9.715,39.041C9.389,39.137 9.051,39.177 8.718,39.161Z" style="fill:#a6f20d;"/><path d="M6.03,40.495C3.262,37.124 0.193,32.165 0.193,32.165C0.193,32.165 5.111,34.127 8.862,36.164C9.223,36.057 9.605,36 10,36C12.208,36 14,37.792 14,40C14,40.405 13.94,40.797 13.827,41.165C15.849,44.907 17.785,49.757 17.785,49.757C17.785,49.757 12.887,46.726 9.518,43.971C7.7,43.752 6.255,42.312 6.03,40.495ZM8.015,40.25C8.127,41.157 8.849,41.876 9.757,41.986L10.334,42.055L10.784,42.423C11.522,43.026 12.335,43.643 13.153,44.237C12.802,43.518 12.436,42.798 12.068,42.116L11.671,41.382L11.914,40.583C11.97,40.398 12,40.203 12,40C12,38.896 11.104,38 10,38C9.802,38 9.611,38.028 9.431,38.082L8.636,38.318L7.908,37.922C7.204,37.54 6.458,37.161 5.712,36.797C6.323,37.636 6.957,38.472 7.576,39.226L7.944,39.674L8.015,40.25Z" style="fill:#46f20d;"/><path d="M40,10L45,0L50,10L40,10Z" style="fill:#f1de7f;"/><path d="M40,22L45,12L50,22L40,22Z" style="fill:#f1de7f;"/><path d="M28,10L33,0L38,10L28,10Z" style="fill:#f1de7f;"/></g></svg>