<svg xmlns="http://www.w3.org/2000/svg" xml:space="preserve" style="fill-rule:evenodd;clip-rule:evenodd;stroke-linejoin:round;stroke-miterlimit:2" viewBox="0 0 50 50"><path d="M0 0h50v50H0z" style="fill:none"/><path d="m25.345 25.926-.692-1.877 3.006-1.13-2.093-1.681-1.039-.841 3.147-2.409.213-.162 3.201-.503-1.1-1.142-1.34-1.368 7.051-1.214 1.21-.743-2.431-2.654-.941-.94 10.481-.128L44.5 6.5l-.213 2.799-.015.123-7.999.815 2.435 2.229.686.686-2.883 2.04-.151.1-3.587.776 1.237 1.245 1.432 1.462-6.698 1.061-.817.618 2.439 1.992 1.41 1.142z" style="fill:#0d59f2"/><path d="m25.604 24.118-.565 1.919-2.571-.737.483 2.171.273 1.255-3.618.063-.273.004-2.376-1.266.11 1.241.18 1.833-5.694-2.933-1.161-.106.182 3.099.139 1.275-7.406-5.539L1.5 28l1.692-1.907.089-.089 5.917 3.559-.445-2.79-.101-.926 3.203.056.184.009 2.793 1.276-.15-1.408-.192-1.96 5.358 2.847.782-.008-.555-2.61-.37-1.701z" style="fill:#0d59f2"/><path d="m25.95 24.691-1.907.602-.877-2.723-3.672.707-2.17.408 2.078-3.782-5.031.563-2.262.252 3.939-5.824-4.953-.339-5.154.949-2.325.513 7.018-6.16-3.372-2.364-.083-.053.351-3.975-.006 3.786 3.896 2.271.395.253-3.886 3.877 2.939-.758.107-.023 6.942.126 1.797.077-3.337 5.041 4.808-.534 2.024-.226-1.927 3.479 2.39-.439.888-.167z" style="fill:#0d59f2"/><path d="m21.753 28.443.244-2.085.049-.441 2.356-1.724 1.19 1.607-1.622 1.217-.446 4.21-.285 2.561-1.43-1.846-.698 4.778-.442 3.004-2.127-3.7-1.114 4.492-.731 5.223-.319 3.32-1.762-7.594-1.776 3.282-.025.053-1.928.046 1.793-.233 1.772-4.262.398-.835.841 2.845.109-2.085.005-.049 1.353-7.172.567-2.599 1.734 2.991.629-4.254.36-2.448z" style="fill:#0d59f2"/><path d="m24.524 14.108 1.121.04 1.423.061-1.627 4.634.456.583 1.425.278 2.129.403-4.057 3.454.448.979-1.812.847-.799-1.674-.326-.698 1.907-1.656-.084-.016-1.309-1.648-.361-.457 1.075-3.052-.089-.005-1.509-.085-1.953-.084 3.656-4.596-.045-.038-3.787.379-1.383.217 3.646-4.38.959-1.664-2.17-.346 2.445.059.237.022-.949 2.24-.013.026-1.62 2.425 2.767-.594.335-.053 1.298.908.684.519z" style="fill:#0d59f2"/><path d="m29.297 24.429 1.253-1.388.378-.416 3.52.515-.413-.776-1.292-2.377 7.021 2.661-2.075-2.781-1.367-1.657 7.148 2.857 2.386.685-.773-1.907 1.138 2.06.124.261s-3.04-.527-3.057-.531l-3.271-.972 1.636 1.797.294.356-.449 1.387-.287.807-4.087-1.338.172.312 1.007 1.855-6.57-.959-.173.188.346 1.014.85 2.458-6.249-3.247-1.01.576-1.004-1.73 1.484-.875.479-.278z" style="fill:#0d59f2"/><path d="m24.265 25.658 1.473-1.353 2.492 2.684.671.731-2.099 2.052 1.847.176 2.04.202-4.058 4.642 4.138.119 1.751.036-4.214 6.591-.063.103-2.027 1.712 4.678-.731.421-.084-.002 4.479 3.197 1.981-3.466-1.723-.088-.05-.319-3.788-6.522 1.577-2.332.463 5.133-4.896 2.107-3.678-4.686-.06-2.267-.047 4.336-4.956-2.033-.209-2.23-.221 3.913-3.779z" style="fill:#0d59f2"/><path d="m24.314 25.766 1.499-1.324 1.098 1.227 3.769-1.956 1.911-.98-.802 4.124.629 1.145 4.631.317 1.382.094-1.121 3.175-.039.109 4.048-.932.831-.215.569 2.442.083.32-2.414 3.741 4.045-.848.029-.008 2.84-.021.235-.013-1.136 3.251.695-2.883-2.525.268-5.25 1.625-1.315.34 3.083-5.658-.134-.449-5.026 1.448-1.854.48 1.264-3.685.194-.566-3.836-.258-.58-.039-1.356-2.503-.181-.333.131-.664-2.569 1.3-.701.36z" style="fill:#0d59f2"/><circle cx="25" cy="25" r="9" style="fill:#fff"/><path d="M25 16c4.967 0 9 4.033 9 9s-4.033 9-9 9-9-4.033-9-9 4.033-9 9-9m0 6a3.001 3.001 0 0 0 0 6 3.001 3.001 0 0 0 0-6" style="fill:#6e9cf7"/><path d="M25 16c4.967 0 9 4.033 9 9s-4.033 9-9 9-9-4.033-9-9 4.033-9 9-9m0 3c-3.311 0-6 2.689-6 6s2.689 6 6 6 6-2.689 6-6-2.689-6-6-6" style="fill:#0d59f2"/></svg>