<svg xmlns="http://www.w3.org/2000/svg" xml:space="preserve" style="fill-rule:evenodd;clip-rule:evenodd;stroke-linejoin:round;stroke-miterlimit:2" viewBox="0 0 50 50"><path d="M0 0h50v50H0z" style="fill:none"/><path d="M8 42s19.87-12.799 26.87-19.799a5.003 5.003 0 0 0 0-7.071 5.003 5.003 0 0 0-7.071 0C20.799 22.13 8 42 8 42" style="fill:#fff"/><path d="M8 42s12.799-19.87 19.799-26.87a5.003 5.003 0 0 1 7.071 0 5.003 5.003 0 0 1 0 7.071C27.87 29.201 8 42 8 42m15.71-15.71c3.315-2.485 6.352-4.938 8.332-6.917.39-.391.39-1.024 0-1.415a1 1 0 0 0-1.415 0c-1.979 1.98-4.432 5.017-6.917 8.332" style="fill:#6ec9f7"/><path d="M8 42s12.799-19.87 19.799-26.87a5.003 5.003 0 0 1 7.071 0 5.003 5.003 0 0 1 0 7.071C27.87 29.201 8 42 8 42m7.207-7.207c6.216-4.256 14.304-10.061 18.249-14.006a3.001 3.001 0 0 0-4.243-4.243c-3.945 3.945-9.75 12.033-14.006 18.249" style="fill:#3d7af5"/><path d="M6.03 40.495c-2.768-3.371-5.837-8.33-5.837-8.33s4.918 1.962 8.669 3.999a4.001 4.001 0 0 1 4.965 5.001c2.022 3.742 3.958 8.592 3.958 8.592s-4.898-3.031-8.267-5.786a4.005 4.005 0 0 1-3.488-3.476" style="fill:#fff"/><path d="M6.03 40.495c-2.768-3.371-5.837-8.33-5.837-8.33s4.918 1.962 8.669 3.999a4.001 4.001 0 0 1 4.965 5.001c2.022 3.742 3.958 8.592 3.958 8.592s-4.898-3.031-8.267-5.786a4.005 4.005 0 0 1-3.488-3.476m2.688-1.334c.149.302.248.628.29.966a1 1 0 0 0 .868.866c.333.04.655.135.953.28a3 3 0 0 1 .128-.982 1 1 0 0 0-1.242-1.25 3 3 0 0 1-.997.12" style="fill:#6ec9f7"/><path d="M6.03 40.495c-2.768-3.371-5.837-8.33-5.837-8.33s4.918 1.962 8.669 3.999a4.001 4.001 0 0 1 4.965 5.001c2.022 3.742 3.958 8.592 3.958 8.592s-4.898-3.031-8.267-5.786a4.005 4.005 0 0 1-3.488-3.476m1.985-.245a2 2 0 0 0 1.742 1.736l.577.069.45.368c.738.603 1.551 1.22 2.369 1.814a59 59 0 0 0-1.085-2.121l-.397-.734.243-.799q.085-.278.086-.583a2 2 0 0 0-2.569-1.918l-.795.236-.728-.396a58 58 0 0 0-2.196-1.125 54 54 0 0 0 1.864 2.429l.368.448z" style="fill:#3d7af5"/><path d="m40 10 5-10 5 10zM40 22l5-10 5 10zM28 10l5-10 5 10z" style="fill:#f1de7f"/></svg>