<svg xmlns="http://www.w3.org/2000/svg" xml:space="preserve" style="fill-rule:evenodd;clip-rule:evenodd;stroke-linejoin:round;stroke-miterlimit:2" viewBox="0 0 50 50"><path d="M0 0h50v50H0z" style="fill:none"/><path d="M25 25s15.91-8.839 21.213-14.142a5.001 5.001 0 0 0-7.071-7.071C33.839 9.09 25 25 25 25" style="fill:#fff"/><path d="M25 25S33.839 9.09 39.142 3.787a5.001 5.001 0 0 1 7.071 7.071C40.91 16.161 25 25 25 25m11.962-11.962c2.587-1.758 4.94-3.526 6.423-5.009a1 1 0 0 0-1.414-1.414c-1.483 1.483-3.251 3.836-5.009 6.423" style="fill:#6ec9f7"/><path d="M25 25S33.839 9.09 39.142 3.787a5.001 5.001 0 0 1 7.071 7.071C40.91 16.161 25 25 25 25m5.518-5.518c4.913-2.96 11.306-7.063 14.281-10.038a3.001 3.001 0 0 0-4.243-4.243c-2.975 2.975-7.078 9.368-10.038 14.281" style="fill:#3d7af5"/><path d="M2.787 47.213S18.697 38.374 24 33.071A5.003 5.003 0 0 0 24 26a5.003 5.003 0 0 0-7.071 0C11.626 31.303 2.787 47.213 2.787 47.213" style="fill:#fff"/><path d="M2.787 47.213S11.626 31.303 16.929 26A5.003 5.003 0 0 1 24 26a5.003 5.003 0 0 1 0 7.071C18.697 38.374 2.787 47.213 2.787 47.213m11.962-11.962c2.587-1.758 4.94-3.525 6.423-5.008.39-.391.39-1.024 0-1.415a1 1 0 0 0-1.415 0c-1.482 1.483-3.25 3.836-5.008 6.423" style="fill:#6ec9f7"/><path d="M2.787 47.213S11.626 31.303 16.929 26A5.003 5.003 0 0 1 24 26a5.003 5.003 0 0 1 0 7.071C18.697 38.374 2.787 47.213 2.787 47.213m5.518-5.518c4.913-2.959 11.306-7.063 14.281-10.038a3.001 3.001 0 0 0-4.243-4.243c-2.975 2.975-7.079 9.368-10.038 14.281" style="fill:#3d7af5"/></svg>