<svg xmlns="http://www.w3.org/2000/svg" xml:space="preserve" style="fill-rule:evenodd;clip-rule:evenodd;stroke-linejoin:round;stroke-miterlimit:2" viewBox="0 0 50 50"><path d="M0 0h50v50H0z" style="fill:none"/><path d="m26.039 25.6-2.078-1.2L9.402 46.017l4.831-5.968-2.731 5.929 2.687-3.452L12 47.517l5.395-8.144-3.272 6.867 2.686-3.453-2.211 6.23z" style="fill:#f2200d"/><path d="M27 25h-4L20 1l2 7 1-6 1 4 1-5 1 9 1-7 1 4 2-6z" style="fill:#f2200d"/><path d="m25.688 24.017-1.376 1.966 21.904 17.535-6.002-5.668 6.078 3.524-3.478-3.168 5.122 2.854-8.257-6.514 7.034 4.193-3.478-3.168 6.422 3.032z" style="fill:#f2200d"/><path d="m23.068 25.518 3.864-1.036 7.556 16.611-3.29-4.554.198 4.606-1.742-2.639.005 3.881-2.713-6.262.393 5.33-1.743-2.639-.767 4.865z" style="fill:#f2200d"/><path d="m24.653 23.03.694 3.94-21.145 6.774 5.972-3.084-5.59-.029 3.438-1.622-4.688-.189 7.951-2.417-6.493.129 3.438-1.621-5.764-1.015z" style="fill:#f2200d"/><path d="m24.379 22.682 1.242 4.636 20.25-1.699-6.255-.808 4.519-2.453-3.531-.297 3.715-2.237-7.556.782 5.324-2.669-3.53-.297 4.209-3.612z" style="fill:#f2200d"/><path d="m23.972 26.226 2.056-2.452L6.122 3.938l5.227 6.475-5.876-3.887 3.061 3.613-4.983-3.137 7.529 7.362-6.77-4.637 3.06 3.613-6.39-3.274z" style="fill:#f2200d"/><circle cx="25" cy="25" r="6" style="fill:#fff"/><path d="M25 19c3.311 0 6 2.689 6 6s-2.689 6-6 6-6-2.689-6-6 2.689-6 6-6m0 4a2 2 0 1 0 .001 4.001A2 2 0 0 0 25 23" style="fill:#f26c0d"/><path d="M25 19c3.311 0 6 2.689 6 6s-2.689 6-6 6-6-2.689-6-6 2.689-6 6-6m0 2c-2.208 0-4 1.792-4 4s1.792 4 4 4 4-1.792 4-4-1.792-4-4-4" style="fill:#f2200d"/></svg>