<?xml version="1.0" encoding="UTF-8" standalone="no"?><!DOCTYPE svg PUBLIC "-//W3C//DTD SVG 1.1//EN" "http://www.w3.org/Graphics/SVG/1.1/DTD/svg11.dtd"><svg width="100%" height="100%" viewBox="0 0 50 50" version="1.1" xmlns="http://www.w3.org/2000/svg" xmlns:xlink="http://www.w3.org/1999/xlink" xml:space="preserve" xmlns:serif="http://www.serif.com/" style="fill-rule:evenodd;clip-rule:evenodd;stroke-linejoin:round;stroke-miterlimit:2;"><rect id="weapon-quantum-torpedo-salvo" x="0" y="0" width="50" height="50" style="fill:none;"/><clipPath id="_clip1"><rect id="weapon-quantum-torpedo-salvo1" serif:id="weapon-quantum-torpedo-salvo" x="0" y="0" width="50" height="50"/></clipPath><g clip-path="url(#_clip1)"><rect x="0" y="0" width="30" height="30" style="fill:none;"/><path id="Weapons" d="M15.624,14.775L14.376,15.225L5.641,7.119L8.54,9.357L6.901,7.133L8.513,8.428L7.2,6.556L10.437,9.61L8.474,7.035L10.085,8.33L8.759,5.994L15.624,14.775Z" style="fill:#0da6f2;"/><path id="Weapons1" serif:id="Weapons" d="M16.2,15L13.8,15L12,24L13.2,21.375L13.8,23.625L14.4,22.125L15,24L15.6,20.625L16.2,23.25L16.8,21.75L18,24L16.2,15Z" style="fill:#0da6f2;"/><path id="Weapons2" serif:id="Weapons" d="M15.413,15.369L14.587,14.631L27.729,8.056L24.128,10.181L27.775,8.86L25.688,10.048L28.762,8.977L23.808,11.42L28.028,9.848L25.941,11.036L29.794,9.899L15.413,15.369Z" style="fill:#0da6f2;"/><path id="Weapons3" serif:id="Weapons" d="M13.841,14.806L16.159,15.194L20.693,8.965L18.719,10.673L18.838,8.946L17.792,9.935L17.795,8.48L16.167,10.828L16.403,8.829L15.358,9.819L14.897,7.995L13.841,14.806Z" style="fill:#0da6f2;"/><path id="Weapons4" serif:id="Weapons" d="M14.792,15.739L15.208,14.261L2.521,11.721L6.105,12.877L2.751,12.888L4.813,13.497L2.001,13.567L6.771,14.474L2.875,14.425L4.938,15.033L1.48,15.414L14.792,15.739Z" style="fill:#0da6f2;"/><path id="Weapons5" serif:id="Weapons" d="M14.627,15.869L15.373,14.131L27.523,14.768L23.769,15.071L26.481,15.991L24.363,16.102L26.591,16.941L22.058,16.648L25.252,17.649L23.134,17.76L25.659,19.114L14.627,15.869Z" style="fill:#0da6f2;"/><path id="Weapons6" serif:id="Weapons" d="M14.383,14.54L15.617,15.46L3.673,22.898L6.81,20.47L3.284,21.928L5.12,20.573L2.13,21.749L6.648,18.988L2.586,20.727L4.422,19.373L0.588,20.6L14.383,14.54Z" style="fill:#0da6f2;"/><ellipse cx="15" cy="15" rx="5.392" ry="4.2" style="fill:#fff;"/><path d="M15,19.2C12.024,19.2 9.608,17.318 9.608,15C9.608,12.682 12.024,10.8 15,10.8C17.976,10.8 20.392,12.682 20.392,15C20.392,17.318 17.976,19.2 15,19.2ZM15,17.2C16.005,17.2 16.923,16.905 17.583,16.391C18.05,16.028 18.392,15.555 18.392,15C18.392,14.445 18.05,13.972 17.583,13.609C16.923,13.095 16.005,12.8 15,12.8C13.995,12.8 13.077,13.095 12.417,13.609C11.95,13.972 11.608,14.445 11.608,15C11.608,15.555 11.95,16.028 12.417,16.391C13.077,16.905 13.995,17.2 15,17.2Z" style="fill:#6ec9f7;"/><rect x="5" y="20" width="30" height="30" style="fill:none;"/><path id="Weapons7" serif:id="Weapons" d="M19.376,35.225L20.624,34.775L29.359,42.881L26.46,40.643L28.099,42.867L26.487,41.572L27.8,43.444L24.563,40.39L26.526,42.965L24.915,41.67L26.241,44.006L19.376,35.225Z" style="fill:#0da6f2;"/><path id="Weapons8" serif:id="Weapons" d="M18.8,35L21.2,35L23,26L21.8,28.625L21.2,26.375L20.6,27.875L20,26L19.4,29.375L18.8,26.75L18.2,28.25L17,26L18.8,35Z" style="fill:#0da6f2;"/><path id="Weapons9" serif:id="Weapons" d="M19.587,34.631L20.413,35.369L7.271,41.944L10.872,39.819L7.225,41.14L9.312,39.952L6.238,41.023L11.192,38.58L6.972,40.152L9.059,38.964L5.206,40.101L19.587,34.631Z" style="fill:#0da6f2;"/><path id="Weapons10" serif:id="Weapons" d="M21.159,35.194L18.841,34.806L14.307,41.035L16.281,39.327L16.162,41.054L17.208,40.065L17.205,41.52L18.833,39.172L18.597,41.171L19.642,40.181L20.103,42.005L21.159,35.194Z" style="fill:#0da6f2;"/><path id="Weapons11" serif:id="Weapons" d="M20.208,34.261L19.792,35.739L32.479,38.279L28.895,37.123L32.249,37.112L30.187,36.503L32.999,36.433L28.229,35.526L32.125,35.575L30.062,34.967L33.52,34.586L20.208,34.261Z" style="fill:#0da6f2;"/><path id="Weapons12" serif:id="Weapons" d="M20.373,34.131L19.627,35.869L7.477,35.232L11.231,34.929L8.519,34.009L10.637,33.898L8.409,33.059L12.942,33.352L9.748,32.351L11.866,32.24L9.341,30.886L20.373,34.131Z" style="fill:#0da6f2;"/><path id="Weapons13" serif:id="Weapons" d="M20.617,35.46L19.383,34.54L31.327,27.102L28.19,29.53L31.716,28.072L29.88,29.427L32.87,28.251L28.352,31.012L32.414,29.273L30.578,30.627L34.412,29.4L20.617,35.46Z" style="fill:#0da6f2;"/><ellipse cx="20" cy="35" rx="5.392" ry="4.2" style="fill:#fff;"/><path d="M20,30.8C22.976,30.8 25.392,32.682 25.392,35C25.392,37.318 22.976,39.2 20,39.2C17.024,39.2 14.608,37.318 14.608,35C14.608,32.682 17.024,30.8 20,30.8ZM20,32.8C18.995,32.8 18.077,33.095 17.417,33.609C16.95,33.972 16.608,34.445 16.608,35C16.608,35.555 16.95,36.028 17.417,36.391C18.077,36.905 18.995,37.2 20,37.2C21.005,37.2 21.923,36.905 22.583,36.391C23.05,36.028 23.392,35.555 23.392,35C23.392,34.445 23.05,33.972 22.583,33.609C21.923,33.095 21.005,32.8 20,32.8Z" style="fill:#6ec9f7;"/><rect x="20.392" y="5" width="30" height="30" style="fill:none;"/><path id="Weapons14" serif:id="Weapons" d="M36.015,20.225L34.768,19.775L26.033,27.881L28.932,25.643L27.293,27.867L28.905,26.572L27.592,28.444L30.829,25.39L28.865,27.965L30.477,26.67L29.151,29.006L36.015,20.225Z" style="fill:#0da6f2;"/><path id="Weapons15" serif:id="Weapons" d="M36.592,20L34.192,20L32.392,11L33.592,13.625L34.192,11.375L34.792,12.875L35.392,11L35.992,14.375L36.592,11.75L37.192,13.25L38.392,11L36.592,20Z" style="fill:#0da6f2;"/><path id="Weapons16" serif:id="Weapons" d="M35.805,19.631L34.979,20.369L48.121,26.944L44.52,24.819L48.167,26.14L46.08,24.952L49.154,26.023L44.2,23.58L48.42,25.152L46.333,23.964L50.186,25.101L35.805,19.631Z" style="fill:#0da6f2;"/><path id="Weapons17" serif:id="Weapons" d="M34.233,20.194L36.551,19.806L41.085,26.035L39.111,24.327L39.23,26.054L38.184,25.065L38.187,26.52L36.559,24.172L36.795,26.171L35.75,25.181L35.289,27.005L34.233,20.194Z" style="fill:#0da6f2;"/><path id="Weapons18" serif:id="Weapons" d="M35.184,19.261L35.6,20.739L22.913,23.279L26.497,22.123L23.142,22.112L25.205,21.503L22.392,21.433L27.163,20.526L23.267,20.575L25.33,19.967L21.872,19.586L35.184,19.261Z" style="fill:#0da6f2;"/><path id="Weapons19" serif:id="Weapons" d="M35.019,19.131L35.765,20.869L47.915,20.232L44.161,19.929L46.873,19.009L44.755,18.898L46.983,18.059L42.45,18.352L45.644,17.351L43.526,17.24L46.051,15.886L35.019,19.131Z" style="fill:#0da6f2;"/><path id="Weapons20" serif:id="Weapons" d="M34.775,20.46L36.009,19.54L24.065,12.102L27.202,14.53L23.676,13.072L25.512,14.427L22.522,13.251L27.04,16.012L22.978,14.273L24.814,15.627L20.98,14.4L34.775,20.46Z" style="fill:#0da6f2;"/><ellipse cx="35.392" cy="20" rx="5.392" ry="4.2" style="fill:#fff;"/><path d="M35.392,15.8C38.368,15.8 40.784,17.682 40.784,20C40.784,22.318 38.368,24.2 35.392,24.2C32.416,24.2 30,22.318 30,20C30,17.682 32.416,15.8 35.392,15.8ZM35.392,17.8C34.387,17.8 33.468,18.095 32.809,18.609C32.342,18.972 32,19.445 32,20C32,20.555 32.342,21.028 32.809,21.391C33.468,21.905 34.387,22.2 35.392,22.2C36.397,22.2 37.315,21.905 37.975,21.391C38.442,21.028 38.784,20.555 38.784,20C38.784,19.445 38.442,18.972 37.975,18.609C37.315,18.095 36.397,17.8 35.392,17.8Z" style="fill:#6ec9f7;"/></g></svg>