<?xml version="1.0" encoding="UTF-8" standalone="no"?><!DOCTYPE svg PUBLIC "-//W3C//DTD SVG 1.1//EN" "http://www.w3.org/Graphics/SVG/1.1/DTD/svg11.dtd"><svg width="100%" height="100%" viewBox="0 0 50 50" version="1.1" xmlns="http://www.w3.org/2000/svg" xmlns:xlink="http://www.w3.org/1999/xlink" xml:space="preserve" xmlns:serif="http://www.serif.com/" style="fill-rule:evenodd;clip-rule:evenodd;stroke-linejoin:round;stroke-miterlimit:2;"><rect id="weapon-photon-torpedo-salvo" x="0" y="0" width="50" height="50" style="fill:none;"/><clipPath id="_clip1"><rect id="weapon-photon-torpedo-salvo1" serif:id="weapon-photon-torpedo-salvo" x="0" y="0" width="50" height="50"/></clipPath><g clip-path="url(#_clip1)"><rect x="0" y="0" width="30" height="30" style="fill:none;"/><path id="Weapons" d="M15.624,15.36L14.376,14.64L5.641,27.61L8.54,24.03L6.901,27.587L8.513,25.515L7.2,28.51L10.437,23.624L8.474,27.744L10.085,25.672L8.759,29.41L15.624,15.36Z" style="fill:#f2200d;"/><path id="Weapons1" serif:id="Weapons" d="M16.2,15L13.8,15L12,0.6L13.2,4.8L13.8,1.2L14.4,3.6L15,0.6L15.6,6L16.2,1.8L16.8,4.2L18,0.6L16.2,15Z" style="fill:#f2200d;"/><path id="Weapons2" serif:id="Weapons" d="M15.413,14.41L14.587,15.59L27.729,26.111L24.128,22.71L27.775,24.824L25.688,22.923L28.762,24.636L23.808,20.728L28.028,23.243L25.941,21.342L29.794,23.162L15.413,14.41Z" style="fill:#f2200d;"/><path id="Weapons3" serif:id="Weapons" d="M13.841,15.311L16.159,14.689L20.693,24.656L18.719,21.923L18.838,24.687L17.792,23.103L17.795,25.432L16.167,21.675L16.403,24.873L15.358,23.29L14.897,26.208L13.841,15.311Z" style="fill:#f2200d;"/><path id="Weapons4" serif:id="Weapons" d="M14.792,13.818L15.208,16.182L2.521,20.247L6.105,18.396L2.751,18.378L4.813,17.406L2.001,17.292L6.771,15.842L2.875,15.919L4.938,14.946L1.48,14.338L14.792,13.818Z" style="fill:#f2200d;"/><path id="Weapons5" serif:id="Weapons" d="M14.627,13.609L15.373,16.391L27.523,15.372L23.769,14.886L26.481,13.415L24.363,13.237L26.591,11.894L22.058,12.363L25.252,10.762L23.134,10.584L25.659,8.417L14.627,13.609Z" style="fill:#f2200d;"/><path id="Weapons6" serif:id="Weapons" d="M14.383,15.735L15.617,14.265L3.673,2.363L6.81,6.248L3.284,3.916L5.12,6.083L2.13,4.201L6.648,8.618L2.586,5.836L4.422,8.004L0.588,6.04L14.383,15.735Z" style="fill:#f2200d;"/><circle cx="15" cy="15" r="3.6" style="fill:#fff;"/><path d="M15,11.4C16.987,11.4 18.6,13.013 18.6,15C18.6,16.987 16.987,18.6 15,18.6C13.013,18.6 11.4,16.987 11.4,15C11.4,13.013 13.013,11.4 15,11.4ZM15,13.4C14.117,13.4 13.4,14.117 13.4,15C13.4,15.883 14.117,16.6 15,16.6C15.883,16.6 16.6,15.883 16.6,15C16.6,14.117 15.883,13.4 15,13.4Z" style="fill:#f26c0d;"/><path d="M55.49,25.49L40.49,-0.49L14.51,14.51L29.51,40.49L55.49,25.49Z" style="fill:none;"/><path id="Weapons7" serif:id="Weapons" d="M35,20.72L35,19.28L19.4,18.2L23.95,18.92L20.05,19.28L22.65,19.64L19.4,20L25.25,20.36L20.7,20.72L23.3,21.08L19.4,21.8L35,20.72Z" style="fill:#f2200d;"/><path id="Weapons8" serif:id="Weapons" d="M35.6,21.039L34.4,18.961L45.971,10.202L42.933,13.341L46.351,12.061L44.573,13.78L47.471,12.8L43.094,16.02L47.032,14.439L45.253,16.159L48.971,15.398L35.6,21.039Z" style="fill:#f2200d;"/><path id="Weapons9" serif:id="Weapons" d="M35.717,20.063L34.283,19.937L31.743,36.579L32.887,31.761L32.88,35.976L33.482,33.218L33.536,36.736L34.443,30.491L34.375,35.404L34.978,32.646L35.329,36.893L35.717,20.063Z" style="fill:#f2200d;"/><path id="Weapons10" serif:id="Weapons" d="M34.151,19.151L35.849,20.849L29.485,29.758L30.863,26.682L28.53,28.167L29.379,26.47L27.363,27.637L29.803,24.349L27.151,26.152L28,24.455L25.242,25.515L34.151,19.151Z" style="fill:#f2200d;"/><path id="Weapons11" serif:id="Weapons" d="M35.919,19.229L34.081,20.771L24.217,11.817L27.611,13.995L25.949,11.081L27.823,12.381L26.515,9.888L30.157,13.294L28.142,9.96L30.015,11.259L28.813,7.96L35.919,19.229Z" style="fill:#f2200d;"/><path id="Weapons12" serif:id="Weapons" d="M36.018,18.982L33.982,21.018L40.94,31.031L39.483,27.538L42.113,29.15L41.208,27.227L43.485,28.485L40.812,24.794L43.796,26.76L42.891,24.837L46.031,25.94L36.018,18.982Z" style="fill:#f2200d;"/><path id="Weapons13" serif:id="Weapons" d="M34.055,19.833L35.945,20.167L40.281,3.872L38.485,8.531L38.741,4.311L37.782,6.985L37.917,3.455L36.351,9.576L36.729,4.667L35.77,7.341L35.554,3.038L34.055,19.833Z" style="fill:#f2200d;"/><path d="M38.118,18.2C39.111,19.921 38.521,22.124 36.8,23.118C35.079,24.111 32.876,23.521 31.882,21.8C30.889,20.079 31.479,17.876 33.2,16.882C34.921,15.889 37.124,16.479 38.118,18.2Z" style="fill:#fff;"/><path d="M38.118,18.2C39.111,19.921 38.521,22.124 36.8,23.118C35.079,24.111 32.876,23.521 31.882,21.8C30.889,20.079 31.479,17.876 33.2,16.882C34.921,15.889 37.124,16.479 38.118,18.2ZM36.386,19.2C35.944,18.435 34.965,18.173 34.2,18.614C33.435,19.056 33.173,20.035 33.614,20.8C34.056,21.565 35.035,21.827 35.8,21.386C36.565,20.944 36.827,19.965 36.386,19.2Z" style="fill:#f26c0d;"/><path d="M9.393,16.629L1.629,45.607L30.607,53.371L38.371,24.393L9.393,16.629Z" style="fill:none;"/><path id="Weapons14" serif:id="Weapons" d="M20.509,34.491L19.491,35.509L29.758,47.304L27.05,43.577L30.062,46.08L28.478,43.987L31.031,46.031L27.149,41.64L30.621,44.603L29.037,42.509L32.304,44.758L20.509,34.491Z" style="fill:#f2200d;"/><path id="Weapons15" serif:id="Weapons" d="M20.311,33.841L19.689,36.159L5.314,34.171L9.682,34.099L6.36,32.587L8.833,32.629L6.091,31.273L11.462,32.091L7.56,30.424L10.034,30.466L6.867,28.375L20.311,33.841Z" style="fill:#f2200d;"/><path id="Weapons16" serif:id="Weapons" d="M19.537,34.448L20.463,35.552L34.027,25.58L29.81,28.178L32.796,25.203L30.42,26.727L32.87,24.201L27.812,27.975L31.334,24.55L28.958,26.074L31.713,22.822L19.537,34.448Z" style="fill:#f2200d;"/><path id="Weapons17" serif:id="Weapons" d="M20,36.2L20,33.8L30.8,32L27.65,33.2L30.35,33.8L28.55,34.4L30.8,35L26.75,35.6L29.9,36.2L28.1,36.8L30.8,38L20,36.2Z" style="fill:#f2200d;"/><path id="Weapons18" serif:id="Weapons" d="M18.805,34.895L21.195,35.105L21.838,48.411L20.978,44.471L20.093,47.706L19.687,45.463L18.85,48.15L18.683,43.166L17.75,46.949L17.344,44.705L15.861,47.888L18.805,34.895Z" style="fill:#f2200d;"/><path id="Weapons19" serif:id="Weapons" d="M18.56,35L21.44,35L23.6,23L22.16,26.5L21.44,23.5L20.72,25.5L20,23L19.28,27.5L18.56,24L17.84,26L16.4,23L18.56,35Z" style="fill:#f2200d;"/><path id="Weapons20" serif:id="Weapons" d="M20.551,35.786L19.449,34.214L4.862,42.67L9.426,40.646L6.261,43.448L8.83,42.235L6.238,44.636L11.674,41.416L7.936,44.619L10.505,43.407L7.615,46.602L20.551,35.786Z" style="fill:#f2200d;"/><path d="M16.523,34.068C17.037,32.149 19.013,31.008 20.932,31.523C22.851,32.037 23.992,34.013 23.477,35.932C22.963,37.851 20.987,38.992 19.068,38.477C17.149,37.963 16.008,35.987 16.523,34.068Z" style="fill:#fff;"/><path d="M16.523,34.068C17.037,32.149 19.013,31.008 20.932,31.523C22.851,32.037 23.992,34.013 23.477,35.932C22.963,37.851 20.987,38.992 19.068,38.477C17.149,37.963 16.008,35.987 16.523,34.068ZM18.455,34.586C18.226,35.439 18.733,36.317 19.586,36.545C20.439,36.774 21.317,36.267 21.545,35.414C21.774,34.561 21.267,33.683 20.414,33.455C19.561,33.226 18.683,33.733 18.455,34.586Z" style="fill:#f26c0d;"/></g></svg>