<svg xmlns="http://www.w3.org/2000/svg" xml:space="preserve" style="fill-rule:evenodd;clip-rule:evenodd;stroke-linejoin:round;stroke-miterlimit:2" viewBox="0 0 50 50"><path d="M0 0h50v50H0z" style="fill:none"/><path d="m4.5 5 10 45H26z" style="fill:#0d59f2"/><path d="M4.5 5 19 50h4z" style="fill:#0da6f2"/><path d="M4.5 5 29 50h16z" style="fill:#0d59f2"/><path d="M4.5 5 37 50h4zM4.5 5 32 50h2z" style="fill:#0da6f2"/><path d="m4.5 5 43 45H50V40z" style="fill:#0d59f2"/><path d="M4.5 5 50 46v-4z" style="fill:#0da6f2"/><path d="M4.5 2 9 5 4.5 8 0 5z" style="fill:#0da6f2"/><path d="M4.5 2 9 5 4.5 8 0 5zm0 2.404L3.606 5l.894.596L5.394 5z" style="fill:#0d59f2"/></svg>