<?xml version="1.0" encoding="UTF-8" standalone="no"?><!DOCTYPE svg PUBLIC "-//W3C//DTD SVG 1.1//EN" "http://www.w3.org/Graphics/SVG/1.1/DTD/svg11.dtd"><svg width="100%" height="100%" viewBox="0 0 50 50" version="1.1" xmlns="http://www.w3.org/2000/svg" xmlns:xlink="http://www.w3.org/1999/xlink" xml:space="preserve" xmlns:serif="http://www.serif.com/" style="fill-rule:evenodd;clip-rule:evenodd;stroke-linejoin:round;stroke-miterlimit:2;"><rect id="weapon-energy-drain" x="0" y="0" width="50" height="50" style="fill:none;"/><g id="weapon-energy-drain1" serif:id="weapon-energy-drain"><path d="M25.894,24.552L24.106,25.447L23.036,23.341L20.434,24.551L18.399,25.484L19.445,21.689L15.861,22.994L13.731,23.769C13.731,23.769 15.957,17.755 15.957,17.755L12.238,18.314L8.294,20.089L6.168,21.152L10.955,14.141L7.929,12.665L7.836,12.626L7.5,9L8.157,12.367L11.644,13.663L12.04,13.833L9.745,17.785L11.624,16.748L11.732,16.694L17.321,15.513L19.047,15.201L17.245,20.241L20.639,19.008L22.565,18.308L21.607,21.736L23.075,21.072L23.972,20.661L25.894,24.552Z" style="fill:#0df2cc;"/><path d="M24.707,25.961L25.281,24.045L27.548,24.709L28.449,21.984L29.164,19.863L31.211,23.224L32.716,19.72L33.611,17.637C33.611,17.637 36.467,23.379 36.467,23.379L38.607,20.287L40.016,16.198L40.698,13.921L42.527,22.211L45.674,21.017L45.767,20.977L48.638,23.216L45.736,21.388L42.402,23.04L42.007,23.212L40.701,18.833L40.169,20.912L40.134,21.028L37.165,25.908L36.21,27.379L33.773,22.614L32.346,25.931L31.537,27.813L29.696,24.768L29.174,26.291L28.859,27.226L24.707,25.961Z" style="fill:#0df2cc;"/><path d="M24.331,24.261L25.661,25.754L24.454,26.848L25.764,28.417L27.187,30.142L24.073,30.114L25.534,32.209L26.83,34.069L21.714,33.579L22.718,35.943L24.8,38.567L26.372,40.349L19.724,37.954L19.212,40.44L19.198,40.54L16.5,41.5C16.5,41.5 18.864,40.3 18.864,40.301L19.091,37.408L19.152,36.979L22.193,37.783L21.357,36.93L21.278,36.84L19.21,32.835L18.462,31.246L22.522,31.584L21.177,29.652L20.007,27.972L22.746,28.004L22.254,27.399L21.63,26.641L24.331,24.261Z" style="fill:#0df2cc;"/><path id="Weapons" d="M27,24.999L23,24.999L20,8.01L22,12.966L23,8.718L24,11.55L25,8.01L26,14.381L27,9.426L28,12.258L30,8.01L27,24.999Z" style="fill:#0df2cc;"/><path id="Weapons1" serif:id="Weapons" d="M25.688,24.303L24.312,25.695L46.216,38.107L40.214,34.096L46.292,36.59L42.814,34.347L47.936,36.368L39.679,31.757L46.713,34.725L43.235,32.482L49.657,34.628L25.688,24.303Z" style="fill:#0df2cc;"/><path id="Weapons2" serif:id="Weapons" d="M24.653,23.605L25.347,26.394L4.202,31.189L10.174,29.006L4.584,28.985L8.022,27.837L3.334,27.704L11.285,25.992L4.792,26.084L8.23,24.936L2.466,24.218L24.653,23.605Z" style="fill:#0df2cc;"/><path d="M27.793,22.704L27.755,22.628L28.277,20.589L28.423,20.024L31.505,19.038L31.455,18.964L30.611,17.71L29.498,16.103L35.369,16.24L35.372,16.181L32.782,13.392L31.773,12.421L37.466,12.681C37.466,12.681 39.372,12.439 39.372,12.439L38.337,10.5L39.766,12.484L39.892,12.687L37.534,13.284L37.505,13.289L34.594,13.464L36.74,15.309L36.985,15.545L37.044,17.127L37.044,17.986L33.396,18.094L34.042,19.011L34.853,20.182L30.178,21.686L29.988,22.401L30.628,23.704L31.593,25.644C31.593,25.644 26.39,24.498 26.39,24.498L25.88,25.447L24.111,24.515L24.962,22.867L25.321,22.185L27.793,22.704Z" style="fill:#0df2cc;"/><path d="M26.531,27.702L28.129,28.575L28.637,28.856L28.807,31.569L30.053,31.176L31.855,30.576L30.401,35.462L33.311,34.044L34.479,33.378L32.934,38.157L32.716,39.751L34.603,39.374L32.565,40.119L32.339,40.183L32.332,38.067L32.334,38.036L32.785,35.731L30.801,37.038L30.516,37.2L29.106,36.886L28.276,36.664L28.96,33.722L28.171,33.992L26.871,34.425L26.597,30.146L26.089,29.862L24.842,30.082L22.735,30.466L24.952,26.3L24.326,25.733L25.654,24.238L26.897,25.322L27.492,25.851L26.531,27.702Z" style="fill:#0df2cc;"/><path d="M16.596,29.383L16.318,28.476L15.952,27.236C15.952,27.236 20.048,26.878 20.048,26.878L20.361,26.294L20.167,24.976L19.846,22.89L23.816,25.088L24.365,24.446L25.898,25.731L24.826,27.034L24.291,27.673L22.52,26.717L21.647,28.38L21.377,28.889L18.698,29.119L18.716,29.182L19.079,30.49L19.596,32.236C19.596,32.236 14.887,30.843 14.887,30.843L14.886,30.848L16.225,33.882L16.811,35.003L12.241,33.521L10.705,33.334L11.027,35.275L10.333,33.177L10.278,32.955L12.325,32.917L12.358,32.918L14.608,33.357L13.331,31.257L13.188,30.982L13.505,29.548L13.728,28.717L16.596,29.383Z" style="fill:#0df2cc;"/><ellipse cx="25" cy="25" rx="11" ry="8" style="fill:#fff;"/><path d="M25,17C31.071,17 36,20.585 36,25C36,29.415 31.071,33 25,33C18.929,33 14,29.415 14,25C14,20.585 18.929,17 25,17ZM25,22C23.12,22 21.398,22.491 20.164,23.388C19.556,23.83 19,24.326 19,25C19,25.674 19.556,26.17 20.164,26.612C21.398,27.509 23.12,28 25,28C26.88,28 28.602,27.509 29.836,26.612C30.444,26.17 31,25.674 31,25C31,24.326 30.444,23.83 29.836,23.388C28.602,22.491 26.88,22 25,22Z" style="fill:#6ef7e0;"/><path d="M25,17C31.071,17 36,20.585 36,25C36,29.415 31.071,33 25,33C18.929,33 14,29.415 14,25C14,20.585 18.929,17 25,17ZM25,19C21.943,19 19.212,20.03 17.532,21.697C16.593,22.628 16,23.758 16,25C16,26.242 16.593,27.372 17.532,28.303C19.212,29.97 21.943,31 25,31C28.057,31 30.788,29.97 32.468,28.303C33.407,27.372 34,26.242 34,25C34,23.758 33.407,22.628 32.468,21.697C30.788,20.03 28.057,19 25,19Z" style="fill:#0df2cc;"/></g></svg>