<svg xmlns="http://www.w3.org/2000/svg" xml:space="preserve" style="fill-rule:evenodd;clip-rule:evenodd;stroke-linejoin:round;stroke-miterlimit:2" viewBox="0 0 50 50"><path d="M0 0h50v50H0z" style="fill:none"/><clipPath id="a"><path d="M0 0h50v50H0z"/></clipPath><g clip-path="url(#a)"><path d="M0 0h30v30H0z" style="fill:none"/><path d="m15.624 15.36-1.248-.72-8.735 12.97 2.899-3.58-1.639 3.557 1.612-2.072L7.2 28.51l3.237-4.886-1.963 4.12 1.611-2.072-1.326 3.738z" style="fill:#f2200d"/><path d="M16.2 15h-2.4L12 .6l1.2 4.2.6-3.6.6 2.4.6-3 .6 5.4.6-4.2.6 2.4L18 .6z" style="fill:#f2200d"/><path d="m15.413 14.41-.826 1.18 13.142 10.521-3.601-3.401 3.647 2.114-2.087-1.901 3.074 1.713-4.954-3.908 4.22 2.515-2.087-1.901 3.853 1.82z" style="fill:#f2200d"/><path d="m13.841 15.311 2.318-.622 4.534 9.967-1.974-2.733.119 2.764-1.046-1.584.003 2.329-1.628-3.757.236 3.198-1.045-1.583-.461 2.918z" style="fill:#f2200d"/><path d="m14.792 13.818.416 2.364-12.687 4.065 3.584-1.851-3.354-.018 2.062-.972-2.812-.114 4.77-1.45-3.896.077 2.063-.973-3.458-.608z" style="fill:#f2200d"/><path d="m14.627 13.609.746 2.782 12.15-1.019-3.754-.486 2.712-1.471-2.118-.178 2.228-1.343-4.533.469 3.194-1.601-2.118-.178 2.525-2.167z" style="fill:#f2200d"/><path d="m14.383 15.735 1.234-1.47L3.673 2.363 6.81 6.248 3.284 3.916 5.12 6.083 2.13 4.201l4.518 4.417-4.062-2.782 1.836 2.168L.588 6.04z" style="fill:#f2200d"/><circle cx="15" cy="15" r="3.6" style="fill:#fff"/><path d="M15 11.4c1.987 0 3.6 1.613 3.6 3.6s-1.613 3.6-3.6 3.6a3.6 3.6 0 0 1-3.6-3.6c0-1.987 1.613-3.6 3.6-3.6m0 2a1.6 1.6 0 1 0 .002 3.202A1.6 1.6 0 0 0 15 13.4" style="fill:#f26c0d"/><path d="m55.49 25.49-15-25.98-25.98 15 15 25.98z" style="fill:none"/><path d="M35 20.72v-1.44L19.4 18.2l4.55.72-3.9.36 2.6.36-3.25.36 5.85.36-4.55.36 2.6.36-3.9.72z" style="fill:#f2200d"/><path d="m35.6 21.039-1.2-2.078 11.571-8.759-3.038 3.139 3.418-1.28-1.778 1.719 2.898-.98-4.377 3.22 3.938-1.581-1.779 1.72 3.718-.761z" style="fill:#f2200d"/><path d="m35.717 20.063-1.434-.126-2.54 16.642 1.144-4.818-.007 4.215.602-2.758.054 3.518.907-6.245-.068 4.913.603-2.758.351 4.247z" style="fill:#f2200d"/><path d="m34.151 19.151 1.698 1.698-6.364 8.909 1.378-3.076-2.333 1.485.849-1.697-2.016 1.167 2.44-3.288-2.652 1.803.849-1.697-2.758 1.06z" style="fill:#f2200d"/><path d="m35.919 19.229-1.838 1.542-9.864-8.954 3.394 2.178-1.662-2.914 1.874 1.3-1.308-2.493 3.642 3.406-2.015-3.334 1.873 1.299-1.202-3.299z" style="fill:#f2200d"/><path d="m36.018 18.982-2.036 2.036 6.958 10.013-1.457-3.493 2.63 1.612-.905-1.923 2.277 1.258-2.673-3.691 2.984 1.966-.905-1.923 3.14 1.103z" style="fill:#f2200d"/><path d="m34.055 19.833 1.89.334 4.336-16.295-1.796 4.659.256-4.22-.959 2.674.135-3.53-1.566 6.121.378-4.909-.959 2.674-.216-4.303z" style="fill:#f2200d"/><path d="M38.118 18.2a3.6 3.6 0 0 1-1.318 4.918 3.6 3.6 0 0 1-4.918-1.318 3.6 3.6 0 0 1 1.318-4.918 3.6 3.6 0 0 1 4.918 1.318" style="fill:#fff"/><path d="M38.118 18.2a3.6 3.6 0 0 1-1.318 4.918 3.6 3.6 0 0 1-4.918-1.318 3.6 3.6 0 0 1 1.318-4.918 3.6 3.6 0 0 1 4.918 1.318m-1.732 1a1.6 1.6 0 0 0-2.186-.586 1.6 1.6 0 0 0-.586 2.186 1.6 1.6 0 0 0 2.186.586 1.6 1.6 0 0 0 .586-2.186" style="fill:#f26c0d"/><path d="M9.393 16.629 1.629 45.607l28.978 7.764 7.764-28.978z" style="fill:none"/><path d="m20.509 34.491-1.018 1.018 10.267 11.795-2.708-3.727 3.012 2.503-1.584-2.093 2.553 2.044-3.882-4.391 3.472 2.963-1.584-2.094 3.267 2.249z" style="fill:#f2200d"/><path d="m20.311 33.841-.622 2.318-14.375-1.988 4.368-.072-3.322-1.512 2.473.042-2.742-1.356 5.371.818-3.902-1.667 2.474.042-3.167-2.091z" style="fill:#f2200d"/><path d="m19.537 34.448.926 1.104 13.564-9.972-4.217 2.598 2.986-2.975-2.376 1.524 2.45-2.526-5.058 3.774 3.522-3.425-2.376 1.524 2.755-3.252z" style="fill:#f2200d"/><path d="M20 36.2v-2.4L30.8 32l-3.15 1.2 2.7.6-1.8.6 2.25.6-4.05.6 3.15.6-1.8.6 2.7 1.2z" style="fill:#f2200d"/><path d="m18.805 34.895 2.39.21.643 13.306-.86-3.94-.885 3.235-.406-2.243-.837 2.687-.167-4.984-.933 3.783-.406-2.244-1.483 3.183z" style="fill:#f2200d"/><path d="M18.56 35h2.88l2.16-12-1.44 3.5-.72-3-.72 2L20 23l-.72 4.5-.72-3.5-.72 2-1.44-3z" style="fill:#f2200d"/><path d="m20.551 35.786-1.102-1.572L4.862 42.67l4.564-2.024-3.165 2.802 2.569-1.213-2.592 2.401 5.436-3.22-3.738 3.203 2.569-1.212-2.89 3.195z" style="fill:#f2200d"/><path d="M16.523 34.068a3.6 3.6 0 0 1 6.954 1.864 3.6 3.6 0 0 1-6.954-1.864" style="fill:#fff"/><path d="M16.523 34.068a3.6 3.6 0 0 1 6.954 1.864 3.6 3.6 0 0 1-6.954-1.864m1.932.518a1.6 1.6 0 1 0 3.09.828 1.6 1.6 0 0 0-3.09-.828" style="fill:#f26c0d"/></g></svg>