<svg xmlns="http://www.w3.org/2000/svg" xml:space="preserve" style="fill-rule:evenodd;clip-rule:evenodd;stroke-linejoin:round;stroke-miterlimit:2" viewBox="0 0 50 50"><path d="M0 0h50v50H0z" style="fill:none"/><path d="M32.749 17.251s10.96-3.889 14.142-7.071a5.003 5.003 0 0 0 0-7.071 5.003 5.003 0 0 0-7.071 0c-3.182 3.182-7.071 14.142-7.071 14.142" style="fill:#fff"/><path d="M32.749 17.251s3.889-10.96 7.071-14.142a5.003 5.003 0 0 1 7.071 0 5.003 5.003 0 0 1 0 7.071c-3.182 3.182-14.142 7.071-14.142 7.071m7.322-7.321c1.658-.834 3.141-1.728 3.991-2.578a.999.999 0 1 0-1.414-1.414c-.851.85-1.744 2.333-2.577 3.992" style="fill:#a6f20d"/><path d="M32.749 17.251s3.889-10.96 7.071-14.142a5.003 5.003 0 0 1 7.071 0 5.003 5.003 0 0 1 0 7.071c-3.182 3.182-14.142 7.071-14.142 7.071m3.452-3.452c3.252-1.324 7.522-3.279 9.276-5.033a3.003 3.003 0 0 0 0-4.243 3.003 3.003 0 0 0-4.243 0c-1.754 1.754-3.709 6.024-5.033 9.276" style="fill:#0df26c"/><path d="M25.678 24.322s10.96-3.889 14.142-7.071a5.003 5.003 0 0 0 0-7.071 5.003 5.003 0 0 0-7.071 0c-3.182 3.182-7.071 14.142-7.071 14.142" style="fill:#fff"/><path d="M25.678 24.322s3.889-10.96 7.071-14.142a5.003 5.003 0 0 1 7.071 0 5.003 5.003 0 0 1 0 7.071c-3.182 3.182-14.142 7.071-14.142 7.071M33 17.001c1.658-.834 3.141-1.727 3.991-2.578a.999.999 0 1 0-1.414-1.414c-.851.85-1.744 2.333-2.577 3.992" style="fill:#a6f20d"/><path d="M25.678 24.322s3.889-10.96 7.071-14.142a5.003 5.003 0 0 1 7.071 0 5.003 5.003 0 0 1 0 7.071c-3.182 3.182-14.142 7.071-14.142 7.071m3.452-3.452c3.252-1.324 7.521-3.279 9.276-5.033a3.003 3.003 0 0 0 0-4.243 3.003 3.003 0 0 0-4.243 0c-1.754 1.755-3.709 6.024-5.033 9.276" style="fill:#0df26c"/><path d="M8 42s18.385-11.314 24.749-17.678a5.003 5.003 0 0 0 0-7.071 5.003 5.003 0 0 0-7.071 0C19.314 23.615 8 42 8 42" style="fill:#fff"/><path d="M8 42s11.314-18.385 17.678-24.749a5.003 5.003 0 0 1 7.071 0 5.003 5.003 0 0 1 0 7.071C26.385 30.686 8 42 8 42m14.303-14.303c3.042-2.213 5.824-4.409 7.617-6.203a.999.999 0 1 0-1.414-1.414c-1.794 1.794-3.99 4.575-6.203 7.617" style="fill:#a6f20d"/><path d="M8 42s11.314-18.385 17.678-24.749a5.003 5.003 0 0 1 7.071 0 5.003 5.003 0 0 1 0 7.071C26.385 30.686 8 42 8 42m6.571-6.571c5.729-3.771 13.182-8.939 16.764-12.521a3.003 3.003 0 0 0 0-4.243 3.003 3.003 0 0 0-4.243 0c-3.582 3.582-8.75 11.035-12.521 16.764" style="fill:#0df26c"/><path d="M6.03 40.495c-2.768-3.371-5.837-8.33-5.837-8.33s4.918 1.962 8.669 3.999a4.001 4.001 0 0 1 4.965 5.001c2.022 3.742 3.958 8.592 3.958 8.592s-4.898-3.031-8.267-5.786a4.005 4.005 0 0 1-3.488-3.476" style="fill:#fff"/><path d="M6.03 40.495c-2.768-3.371-5.837-8.33-5.837-8.33s4.918 1.962 8.669 3.999a4.001 4.001 0 0 1 4.965 5.001c2.022 3.742 3.958 8.592 3.958 8.592s-4.898-3.031-8.267-5.786a4.005 4.005 0 0 1-3.488-3.476m2.688-1.334c.149.302.248.628.29.966a1 1 0 0 0 .868.866c.333.04.655.135.953.28a3 3 0 0 1 .128-.982 1 1 0 0 0-1.242-1.25 3 3 0 0 1-.997.12" style="fill:#a6f20d"/><path d="M6.03 40.495c-2.768-3.371-5.837-8.33-5.837-8.33s4.918 1.962 8.669 3.999a4.001 4.001 0 0 1 4.965 5.001c2.022 3.742 3.958 8.592 3.958 8.592s-4.898-3.031-8.267-5.786a4.005 4.005 0 0 1-3.488-3.476m1.985-.245a2 2 0 0 0 1.742 1.736l.577.069.45.368c.738.603 1.551 1.22 2.369 1.814a59 59 0 0 0-1.085-2.121l-.397-.734.243-.799q.085-.278.086-.583a2 2 0 0 0-2.569-1.918l-.795.236-.728-.396a58 58 0 0 0-2.196-1.125 54 54 0 0 0 1.864 2.429l.368.448z" style="fill:#46f20d"/></svg>