<?xml version="1.0" encoding="UTF-8" standalone="no"?><!DOCTYPE svg PUBLIC "-//W3C//DTD SVG 1.1//EN" "http://www.w3.org/Graphics/SVG/1.1/DTD/svg11.dtd"><svg width="100%" height="100%" viewBox="0 0 50 50" version="1.1" xmlns="http://www.w3.org/2000/svg" xmlns:xlink="http://www.w3.org/1999/xlink" xml:space="preserve" xmlns:serif="http://www.serif.com/" style="fill-rule:evenodd;clip-rule:evenodd;stroke-linejoin:round;stroke-miterlimit:2;"><rect id="weapon-photon-torpedo" x="0" y="0" width="50" height="50" style="fill:none;"/><g id="weapon-photon-torpedo1" serif:id="weapon-photon-torpedo"><path id="Weapons" d="M26.039,25.6L23.961,24.4L9.402,46.017L14.233,40.049L11.502,45.978L14.189,42.526L12,47.517L17.395,39.373L14.123,46.24L16.809,42.787L14.598,49.017L26.039,25.6Z" style="fill:#f2200d;"/><path id="Weapons1" serif:id="Weapons" d="M27,25L23,25L20,1L22,8L23,2L24,6L25,1L26,10L27,3L28,7L30,1L27,25Z" style="fill:#f2200d;"/><path id="Weapons2" serif:id="Weapons" d="M25.688,24.017L24.312,25.983L46.216,43.518L40.214,37.85L46.292,41.374L42.814,38.206L47.936,41.06L39.679,34.546L46.713,38.739L43.235,35.571L49.657,38.603L25.688,24.017Z" style="fill:#f2200d;"/><path id="Weapons3" serif:id="Weapons" d="M23.068,25.518L26.932,24.482L34.488,41.093L31.198,36.539L31.396,41.145L29.654,38.506L29.659,42.387L26.946,36.125L27.339,41.455L25.596,38.816L24.829,43.681L23.068,25.518Z" style="fill:#f2200d;"/><path id="Weapons4" serif:id="Weapons" d="M24.653,23.03L25.347,26.97L4.202,33.744L10.174,30.66L4.584,30.631L8.022,29.009L3.334,28.82L11.285,26.403L4.792,26.532L8.23,24.911L2.466,23.896L24.653,23.03Z" style="fill:#f2200d;"/><path id="Weapons5" serif:id="Weapons" d="M24.379,22.682L25.621,27.318L45.871,25.619L39.616,24.811L44.135,22.358L40.604,22.061L44.319,19.824L36.763,20.606L42.087,17.937L38.557,17.64L42.766,14.028L24.379,22.682Z" style="fill:#f2200d;"/><path id="Weapons6" serif:id="Weapons" d="M23.972,26.226L26.028,23.774L6.122,3.938L11.349,10.413L5.473,6.526L8.534,10.139L3.551,7.002L11.08,14.364L4.31,9.727L7.37,13.34L0.98,10.066L23.972,26.226Z" style="fill:#f2200d;"/><circle cx="25" cy="25" r="6" style="fill:#fff;"/><path d="M25,19C28.311,19 31,21.689 31,25C31,28.311 28.311,31 25,31C21.689,31 19,28.311 19,25C19,21.689 21.689,19 25,19ZM25,23C23.896,23 23,23.896 23,25C23,26.104 23.896,27 25,27C26.104,27 27,26.104 27,25C27,23.896 26.104,23 25,23Z" style="fill:#f26c0d;"/><path d="M25,19C28.311,19 31,21.689 31,25C31,28.311 28.311,31 25,31C21.689,31 19,28.311 19,25C19,21.689 21.689,19 25,19ZM25,21C22.792,21 21,22.792 21,25C21,27.208 22.792,29 25,29C27.208,29 29,27.208 29,25C29,22.792 27.208,21 25,21Z" style="fill:#f2200d;"/></g></svg>