<?xml version="1.0" encoding="UTF-8" standalone="no"?><!DOCTYPE svg PUBLIC "-//W3C//DTD SVG 1.1//EN" "http://www.w3.org/Graphics/SVG/1.1/DTD/svg11.dtd"><svg width="100%" height="100%" viewBox="0 0 50 50" version="1.1" xmlns="http://www.w3.org/2000/svg" xmlns:xlink="http://www.w3.org/1999/xlink" xml:space="preserve" xmlns:serif="http://www.serif.com/" style="fill-rule:evenodd;clip-rule:evenodd;stroke-linejoin:round;stroke-miterlimit:2;"><rect id="weapon-phaser-array" x="0" y="0" width="50" height="50" style="fill:none;"/><g id="weapon-phaser-array1" serif:id="weapon-phaser-array"><path d="M8,42C8,42 36.284,20.787 46.891,10.18C48.842,8.229 48.842,5.06 46.891,3.109C44.94,1.158 41.771,1.158 39.82,3.109C29.213,13.716 8,42 8,42Z" style="fill:#fff;"/><path d="M8,42C8,42 29.213,13.716 39.82,3.109C41.771,1.158 44.94,1.158 46.891,3.109C48.842,5.06 48.842,8.229 46.891,10.18C36.284,20.787 8,42 8,42ZM31.713,18.287C36.557,14.273 41.037,10.377 44.062,7.352C44.453,6.962 44.453,6.328 44.062,5.938C43.672,5.547 43.038,5.547 42.648,5.938C39.623,8.963 35.726,13.443 31.713,18.287Z" style="fill:#f2a60d;"/><path d="M8,42C8,42 29.213,13.716 39.82,3.109C41.771,1.158 44.94,1.158 46.891,3.109C48.842,5.06 48.842,8.229 46.891,10.18C36.284,20.787 8,42 8,42ZM18.83,31.17C27.793,24.172 39.478,14.764 45.477,8.766C46.647,7.595 46.647,5.694 45.477,4.523C44.306,3.353 42.405,3.353 41.234,4.523C35.236,10.521 25.828,22.207 18.83,31.17Z" style="fill:#f26c0d;"/><path d="M6.03,40.495C3.262,37.124 0.193,32.165 0.193,32.165C0.193,32.165 5.111,34.127 8.862,36.164C9.223,36.057 9.605,36 10,36C12.208,36 14,37.792 14,40C14,40.405 13.94,40.797 13.827,41.165C15.849,44.907 17.785,49.757 17.785,49.757C17.785,49.757 12.887,46.726 9.518,43.971C7.7,43.752 6.255,42.312 6.03,40.495Z" style="fill:#fff;"/><path d="M6.03,40.495C3.262,37.124 0.193,32.165 0.193,32.165C0.193,32.165 5.111,34.127 8.862,36.164C9.223,36.057 9.605,36 10,36C12.208,36 14,37.792 14,40C14,40.405 13.94,40.797 13.827,41.165C15.849,44.907 17.785,49.757 17.785,49.757C17.785,49.757 12.887,46.726 9.518,43.971C7.7,43.752 6.255,42.312 6.03,40.495ZM8.718,39.161C8.867,39.463 8.966,39.789 9.008,40.127C9.064,40.579 9.423,40.938 9.876,40.993C10.209,41.033 10.531,41.128 10.829,41.273C10.817,40.944 10.86,40.612 10.957,40.291C10.985,40.199 11,40.101 11,40C11,39.448 10.552,39 10,39C9.901,39 9.805,39.014 9.715,39.041C9.389,39.137 9.051,39.177 8.718,39.161Z" style="fill:#f2a60d;"/><path d="M6.03,40.495C3.262,37.124 0.193,32.165 0.193,32.165C0.193,32.165 5.111,34.127 8.862,36.164C9.223,36.057 9.605,36 10,36C12.208,36 14,37.792 14,40C14,40.405 13.94,40.797 13.827,41.165C15.849,44.907 17.785,49.757 17.785,49.757C17.785,49.757 12.887,46.726 9.518,43.971C7.7,43.752 6.255,42.312 6.03,40.495ZM8.015,40.25C8.127,41.157 8.849,41.876 9.757,41.986L10.334,42.055L10.784,42.423C11.522,43.026 12.335,43.643 13.153,44.237C12.802,43.518 12.436,42.798 12.068,42.116L11.671,41.382L11.914,40.583C11.97,40.398 12,40.203 12,40C12,38.896 11.104,38 10,38C9.802,38 9.611,38.028 9.431,38.082L8.636,38.318L7.908,37.922C7.204,37.54 6.458,37.161 5.712,36.797C6.323,37.636 6.957,38.472 7.576,39.226L7.944,39.674L8.015,40.25Z" style="fill:#f26c0d;"/></g></svg>