<svg xmlns="http://www.w3.org/2000/svg" xml:space="preserve" style="fill-rule:evenodd;clip-rule:evenodd;stroke-linejoin:round;stroke-miterlimit:2" viewBox="0 0 50 50"><path d="M0 0h50v50H0z" style="fill:none"/><path d="M4 44S29.854 18.634 39.785 6.798a3.501 3.501 0 0 0-5.363-4.499C24.491 14.134 4 44 4 44" style="fill:#fff"/><path d="M4 44S24.491 14.134 34.422 2.299a3.501 3.501 0 0 1 5.363 4.499C29.854 18.634 4 44 4 44m24.285-28.941c3.592-3.812 6.847-7.383 9.202-10.189a.5.5 0 0 0-.766-.643c-2.355 2.806-5.307 6.632-8.436 10.832" style="fill:#6ec9f7"/><path d="M4 44S24.491 14.134 34.422 2.299a3.501 3.501 0 0 1 5.363 4.499C29.854 18.634 4 44 4 44m14.909-17.767c7.124-7.271 14.862-15.379 19.344-20.72a1.5 1.5 0 0 0-2.299-1.928c-4.482 5.341-11.122 14.369-17.045 22.648" style="fill:#3d7af5"/><path d="M6 46s29.866-20.491 41.701-30.422a3.501 3.501 0 0 0-4.499-5.363C31.366 20.146 6 46 6 46" style="fill:#fff"/><path d="M6 46s25.366-25.854 37.202-35.785a3.501 3.501 0 0 1 4.499 5.363C35.866 25.509 6 46 6 46m28.941-24.285c4.2-3.129 8.025-6.081 10.832-8.436a.5.5 0 0 0-.643-.766c-2.806 2.355-6.377 5.61-10.189 9.202" style="fill:#6ec9f7"/><path d="M6 46s25.366-25.854 37.202-35.785a3.501 3.501 0 0 1 4.499 5.363C35.866 25.509 6 46 6 46m17.767-14.909c8.279-5.923 17.307-12.563 22.648-17.045a1.5 1.5 0 0 0-1.928-2.299c-5.341 4.482-13.449 12.22-20.72 19.344" style="fill:#3d7af5"/><path d="M3.129 46.871A3.001 3.001 0 0 1 4 41c1.353 0 2.498.897 2.871 2.129A3.001 3.001 0 0 1 6 49a3 3 0 0 1-2.871-2.129" style="fill:#fff"/><path d="M3.129 46.871A3.001 3.001 0 0 1 4 41c1.353 0 2.498.897 2.871 2.129A3.001 3.001 0 0 1 6 49a3 3 0 0 1-2.871-2.129" style="fill:#6ec9f7"/><path d="M3.129 46.871A3.001 3.001 0 0 1 4 41c1.353 0 2.498.897 2.871 2.129A3.001 3.001 0 0 1 6 49a3 3 0 0 1-2.871-2.129m1.914-.58a1 1 0 1 0 1.248-1.248l-1.023-.311-.311-1.023a1 1 0 1 0-1.248 1.248l1.023.311z" style="fill:#3d7af5"/></svg>