<svg xmlns="http://www.w3.org/2000/svg" xml:space="preserve" style="fill-rule:evenodd;clip-rule:evenodd;stroke-linejoin:round;stroke-miterlimit:2" viewBox="0 0 50 50"><path d="M0 0h50v50H0z" style="fill:none"/><path d="M8 42s28.284-21.213 38.891-31.82a5.003 5.003 0 0 0 0-7.071 5.003 5.003 0 0 0-7.071 0C29.213 13.716 8 42 8 42" style="fill:#fff"/><path d="M8 42S29.213 13.716 39.82 3.109a5.003 5.003 0 0 1 7.071 0 5.003 5.003 0 0 1 0 7.071C36.284 20.787 8 42 8 42m23.713-23.713c4.844-4.014 9.324-7.91 12.349-10.935a.999.999 0 1 0-1.414-1.414c-3.025 3.025-6.922 7.505-10.935 12.349" style="fill:#a6f20d"/><path d="M8 42S29.213 13.716 39.82 3.109a5.003 5.003 0 0 1 7.071 0 5.003 5.003 0 0 1 0 7.071C36.284 20.787 8 42 8 42m10.83-10.83c8.963-6.998 20.648-16.406 26.647-22.404a3.003 3.003 0 0 0 0-4.243 3.003 3.003 0 0 0-4.243 0C35.236 10.521 25.828 22.207 18.83 31.17" style="fill:#0df26c"/><path d="M6.03 40.495c-2.768-3.371-5.837-8.33-5.837-8.33s4.918 1.962 8.669 3.999a4.001 4.001 0 0 1 4.965 5.001c2.022 3.742 3.958 8.592 3.958 8.592s-4.898-3.031-8.267-5.786a4.005 4.005 0 0 1-3.488-3.476" style="fill:#fff"/><path d="M6.03 40.495c-2.768-3.371-5.837-8.33-5.837-8.33s4.918 1.962 8.669 3.999a4.001 4.001 0 0 1 4.965 5.001c2.022 3.742 3.958 8.592 3.958 8.592s-4.898-3.031-8.267-5.786a4.005 4.005 0 0 1-3.488-3.476m2.688-1.334c.149.302.248.628.29.966a1 1 0 0 0 .868.866c.333.04.655.135.953.28a3 3 0 0 1 .128-.982 1 1 0 0 0-1.242-1.25 3 3 0 0 1-.997.12" style="fill:#a6f20d"/><path d="M6.03 40.495c-2.768-3.371-5.837-8.33-5.837-8.33s4.918 1.962 8.669 3.999a4.001 4.001 0 0 1 4.965 5.001c2.022 3.742 3.958 8.592 3.958 8.592s-4.898-3.031-8.267-5.786a4.005 4.005 0 0 1-3.488-3.476m1.985-.245a2 2 0 0 0 1.742 1.736l.577.069.45.368c.738.603 1.551 1.22 2.369 1.814a59 59 0 0 0-1.085-2.121l-.397-.734.243-.799q.085-.278.086-.583a2 2 0 0 0-2.569-1.918l-.795.236-.728-.396a58 58 0 0 0-2.196-1.125 54 54 0 0 0 1.864 2.429l.368.448z" style="fill:#46f20d"/></svg>