<?xml version="1.0" encoding="UTF-8" standalone="no"?><!DOCTYPE svg PUBLIC "-//W3C//DTD SVG 1.1//EN" "http://www.w3.org/Graphics/SVG/1.1/DTD/svg11.dtd"><svg width="100%" height="100%" viewBox="0 0 50 50" version="1.1" xmlns="http://www.w3.org/2000/svg" xmlns:xlink="http://www.w3.org/1999/xlink" xml:space="preserve" xmlns:serif="http://www.serif.com/" style="fill-rule:evenodd;clip-rule:evenodd;stroke-linejoin:round;stroke-miterlimit:2;"><rect id="weapon-polaron-bank" x="0" y="0" width="50" height="50" style="fill:none;"/><g id="weapon-polaron-bank1" serif:id="weapon-polaron-bank"><path d="M4,44C4,44 29.854,18.634 39.785,6.798C41.026,5.319 40.833,3.109 39.353,1.868C37.874,0.626 35.664,0.819 34.422,2.299C24.491,14.134 4,44 4,44Z" style="fill:#fff;"/><path d="M4,44C4,44 24.491,14.134 34.422,2.299C35.664,0.819 37.874,0.626 39.353,1.868C40.833,3.109 41.026,5.319 39.785,6.798C29.854,18.634 4,44 4,44ZM28.285,15.059C31.877,11.247 35.132,7.676 37.487,4.87C37.664,4.659 37.636,4.343 37.425,4.166C37.214,3.988 36.898,4.016 36.721,4.227C34.366,7.033 31.414,10.859 28.285,15.059Z" style="fill:#6ec9f7;"/><path d="M4,44C4,44 24.491,14.134 34.422,2.299C35.664,0.819 37.874,0.626 39.353,1.868C40.833,3.109 41.026,5.319 39.785,6.798C29.854,18.634 4,44 4,44ZM18.909,26.233C26.033,18.962 33.771,10.854 38.253,5.513C38.785,4.879 38.702,3.932 38.068,3.4C37.434,2.867 36.487,2.95 35.954,3.585C31.472,8.926 24.832,17.954 18.909,26.233Z" style="fill:#3d7af5;"/><path d="M6,46C6,46 35.866,25.509 47.701,15.578C49.181,14.336 49.374,12.126 48.132,10.647C46.891,9.167 44.681,8.974 43.202,10.215C31.366,20.146 6,46 6,46Z" style="fill:#fff;"/><path d="M6,46C6,46 31.366,20.146 43.202,10.215C44.681,8.974 46.891,9.167 48.132,10.647C49.374,12.126 49.181,14.336 47.701,15.578C35.866,25.509 6,46 6,46ZM34.941,21.715C39.141,18.586 42.966,15.634 45.773,13.279C45.984,13.102 46.012,12.786 45.834,12.575C45.657,12.364 45.341,12.336 45.13,12.513C42.324,14.868 38.753,18.123 34.941,21.715Z" style="fill:#6ec9f7;"/><path d="M6,46C6,46 31.366,20.146 43.202,10.215C44.681,8.974 46.891,9.167 48.132,10.647C49.374,12.126 49.181,14.336 47.701,15.578C35.866,25.509 6,46 6,46ZM23.767,31.091C32.046,25.168 41.074,18.528 46.415,14.046C47.05,13.513 47.133,12.566 46.6,11.932C46.068,11.298 45.121,11.215 44.487,11.747C39.146,16.229 31.038,23.967 23.767,31.091Z" style="fill:#3d7af5;"/><path d="M3.129,46.871C1.897,46.498 1,45.353 1,44C1,42.344 2.344,41 4,41C5.353,41 6.498,41.897 6.871,43.129C8.103,43.502 9,44.647 9,46C9,47.656 7.656,49 6,49C4.647,49 3.502,48.103 3.129,46.871Z" style="fill:#fff;"/><path d="M3.129,46.871C1.897,46.498 1,45.353 1,44C1,42.344 2.344,41 4,41C5.353,41 6.498,41.897 6.871,43.129C8.103,43.502 9,44.647 9,46C9,47.656 7.656,49 6,49C4.647,49 3.502,48.103 3.129,46.871Z" style="fill:#6ec9f7;"/><path d="M3.129,46.871C1.897,46.498 1,45.353 1,44C1,42.344 2.344,41 4,41C5.353,41 6.498,41.897 6.871,43.129C8.103,43.502 9,44.647 9,46C9,47.656 7.656,49 6,49C4.647,49 3.502,48.103 3.129,46.871ZM5.043,46.291C5.167,46.701 5.549,47 6,47C6.552,47 7,46.552 7,46C7,45.549 6.701,45.167 6.291,45.043L5.268,44.732L4.957,43.709C4.833,43.299 4.451,43 4,43C3.448,43 3,43.448 3,44C3,44.451 3.299,44.833 3.709,44.957L4.732,45.268L5.043,46.291Z" style="fill:#3d7af5;"/></g></svg>