<svg xmlns="http://www.w3.org/2000/svg" xml:space="preserve" style="fill-rule:evenodd;clip-rule:evenodd;stroke-linejoin:round;stroke-miterlimit:2" viewBox="0 0 50 50"><path d="M0 0h50v50H0z" style="fill:none"/><clipPath id="a"><path d="M0 0h50v50H0z"/></clipPath><g clip-path="url(#a)"><path d="M0 0h30v30H0z" style="fill:none"/><path d="m15.624 14.775-1.248.45-8.735-8.106L8.54 9.357 6.901 7.133l1.612 1.295L7.2 6.556l3.237 3.054-1.963-2.575 1.611 1.295-1.326-2.336z" style="fill:#0da6f2"/><path d="M16.2 15h-2.4L12 24l1.2-2.625.6 2.25.6-1.5L15 24l.6-3.375.6 2.625.6-1.5L18 24z" style="fill:#0da6f2"/><path d="m15.413 15.369-.826-.738 13.142-6.575-3.601 2.125 3.647-1.321-2.087 1.188 3.074-1.071-4.954 2.443 4.22-1.572-2.087 1.188 3.853-1.137z" style="fill:#0da6f2"/><path d="m13.841 14.806 2.318.388 4.534-6.229-1.974 1.708.119-1.727-1.046.989.003-1.455-1.628 2.348.236-1.999-1.045.99-.461-1.824z" style="fill:#0da6f2"/><path d="m14.792 15.739.416-1.478-12.687-2.54 3.584 1.156-3.354.011 2.062.609-2.812.07 4.77.907-3.896-.049 2.063.608-3.458.381z" style="fill:#0da6f2"/><path d="m14.627 15.869.746-1.738 12.15.637-3.754.303 2.712.92-2.118.111 2.228.839-4.533-.293 3.194 1.001-2.118.111 2.525 1.354z" style="fill:#0da6f2"/><path d="m14.383 14.54 1.234.92-11.944 7.438L6.81 20.47l-3.526 1.458 1.836-1.355-2.99 1.176 4.518-2.761-4.062 1.739 1.836-1.354L.588 20.6z" style="fill:#0da6f2"/><ellipse cx="15" cy="15" rx="5.392" ry="4.2" style="fill:#fff"/><path d="M15 19.2c-2.976 0-5.392-1.882-5.392-4.2s2.416-4.2 5.392-4.2 5.392 1.882 5.392 4.2-2.416 4.2-5.392 4.2m0-2c1.005 0 1.923-.295 2.583-.809.467-.363.809-.836.809-1.391s-.342-1.028-.809-1.391c-.66-.514-1.578-.809-2.583-.809s-1.923.295-2.583.809c-.467.363-.809.836-.809 1.391s.342 1.028.809 1.391c.66.514 1.578.809 2.583.809" style="fill:#6ec9f7"/><path d="M5 20h30v30H5z" style="fill:none"/><path d="m19.376 35.225 1.248-.45 8.735 8.106-2.899-2.238 1.639 2.224-1.612-1.295 1.313 1.872-3.237-3.054 1.963 2.575-1.611-1.295 1.326 2.336z" style="fill:#0da6f2"/><path d="M18.8 35h2.4l1.8-9-1.2 2.625-.6-2.25-.6 1.5L20 26l-.6 3.375-.6-2.625-.6 1.5L17 26z" style="fill:#0da6f2"/><path d="m19.587 34.631.826.738-13.142 6.575 3.601-2.125-3.647 1.321 2.087-1.188-3.074 1.071 4.954-2.443-4.22 1.572 2.087-1.188-3.853 1.137z" style="fill:#0da6f2"/><path d="m21.159 35.194-2.318-.388-4.534 6.229 1.974-1.708-.119 1.727 1.046-.989-.003 1.455 1.628-2.348-.236 1.999 1.045-.99.461 1.824z" style="fill:#0da6f2"/><path d="m20.208 34.261-.416 1.478 12.687 2.54-3.584-1.156 3.354-.011-2.062-.609 2.812-.07-4.77-.907 3.896.049-2.063-.608 3.458-.381z" style="fill:#0da6f2"/><path d="m20.373 34.131-.746 1.738-12.15-.637 3.754-.303-2.712-.92 2.118-.111-2.228-.839 4.533.293-3.194-1.001 2.118-.111-2.525-1.354z" style="fill:#0da6f2"/><path d="m20.617 35.46-1.234-.92 11.944-7.438-3.137 2.428 3.526-1.458-1.836 1.355 2.99-1.176-4.518 2.761 4.062-1.739-1.836 1.354 3.834-1.227z" style="fill:#0da6f2"/><ellipse cx="20" cy="35" rx="5.392" ry="4.2" style="fill:#fff"/><path d="M20 30.8c2.976 0 5.392 1.882 5.392 4.2S22.976 39.2 20 39.2s-5.392-1.882-5.392-4.2 2.416-4.2 5.392-4.2m0 2c-1.005 0-1.923.295-2.583.809-.467.363-.809.836-.809 1.391s.342 1.028.809 1.391c.66.514 1.578.809 2.583.809s1.923-.295 2.583-.809c.467-.363.809-.836.809-1.391s-.342-1.028-.809-1.391c-.66-.514-1.578-.809-2.583-.809" style="fill:#6ec9f7"/><path d="M20.392 5h30v30h-30z" style="fill:none"/><path d="m36.015 20.225-1.247-.45-8.735 8.106 2.899-2.238-1.639 2.224 1.612-1.295-1.313 1.872 3.237-3.054-1.964 2.575 1.612-1.295-1.326 2.336z" style="fill:#0da6f2"/><path d="M36.592 20h-2.4l-1.8-9 1.2 2.625.6-2.25.6 1.5.6-1.875.6 3.375.6-2.625.6 1.5 1.2-2.25z" style="fill:#0da6f2"/><path d="m35.805 19.631-.826.738 13.142 6.575-3.601-2.125 3.647 1.321-2.087-1.188 3.074 1.071L44.2 23.58l4.22 1.572-2.087-1.188 3.853 1.137z" style="fill:#0da6f2"/><path d="m34.233 20.194 2.318-.388 4.534 6.229-1.974-1.708.119 1.727-1.046-.989.003 1.455-1.628-2.348.236 1.999-1.045-.99-.461 1.824z" style="fill:#0da6f2"/><path d="m35.184 19.261.416 1.478-12.687 2.54 3.584-1.156-3.355-.011 2.063-.609-2.813-.07 4.771-.907-3.896.049 2.063-.608-3.458-.381z" style="fill:#0da6f2"/><path d="m35.019 19.131.746 1.738 12.15-.637-3.754-.303 2.712-.92-2.118-.111 2.228-.839-4.533.293 3.194-1.001-2.118-.111 2.525-1.354z" style="fill:#0da6f2"/><path d="m34.775 20.46 1.234-.92-11.944-7.438 3.137 2.428-3.526-1.458 1.836 1.355-2.99-1.176 4.518 2.761-4.062-1.739 1.836 1.354L20.98 14.4z" style="fill:#0da6f2"/><ellipse cx="35.392" cy="20" rx="5.392" ry="4.2" style="fill:#fff"/><path d="M35.392 15.8c2.976 0 5.392 1.882 5.392 4.2s-2.416 4.2-5.392 4.2S30 22.318 30 20s2.416-4.2 5.392-4.2m0 2c-1.005 0-1.924.295-2.583.809-.467.363-.809.836-.809 1.391s.342 1.028.809 1.391c.659.514 1.578.809 2.583.809s1.923-.295 2.583-.809c.467-.363.809-.836.809-1.391s-.342-1.028-.809-1.391c-.66-.514-1.578-.809-2.583-.809" style="fill:#6ec9f7"/></g></svg>