<?xml version="1.0" encoding="UTF-8" standalone="no"?><!DOCTYPE svg PUBLIC "-//W3C//DTD SVG 1.1//EN" "http://www.w3.org/Graphics/SVG/1.1/DTD/svg11.dtd"><svg width="100%" height="100%" viewBox="0 0 50 50" version="1.1" xmlns="http://www.w3.org/2000/svg" xmlns:xlink="http://www.w3.org/1999/xlink" xml:space="preserve" xmlns:serif="http://www.serif.com/" style="fill-rule:evenodd;clip-rule:evenodd;stroke-linejoin:round;stroke-miterlimit:2;"><rect id="weapon-electro-magnetic-pulse" x="0" y="0" width="50" height="50" style="fill:none;"/><g id="weapon-electro-magnetic-pulse1" serif:id="weapon-electro-magnetic-pulse"><path d="M25.345,25.926L24.653,24.049C24.653,24.049 27.659,22.919 27.659,22.919L25.566,21.238L24.527,20.397L27.674,17.988L27.887,17.826L31.088,17.323L29.988,16.181L28.648,14.813L35.699,13.599L36.909,12.856L34.478,10.202L33.537,9.262L44.018,9.134L44.5,6.5L44.287,9.299L44.272,9.422L36.273,10.237L38.708,12.466L39.394,13.152L36.511,15.192L36.36,15.292L32.773,16.068L34.01,17.313L35.442,18.775L28.744,19.836C28.744,19.836 27.927,20.454 27.927,20.454L30.366,22.446L31.776,23.588L25.345,25.926Z" style="fill:#0d59f2;"/><path d="M25.604,24.118L25.039,26.037L22.468,25.3L22.951,27.471L23.224,28.726L19.606,28.789L19.333,28.793L16.957,27.527L17.067,28.768L17.247,30.601L11.553,27.668L10.392,27.562L10.574,30.661L10.713,31.936L3.307,26.397L1.5,28L3.192,26.093L3.281,26.004L9.198,29.563L8.753,26.773L8.652,25.847L11.855,25.903L12.039,25.912L14.832,27.188L14.682,25.78L14.49,23.82L19.848,26.667C19.848,26.667 20.63,26.659 20.63,26.659L20.075,24.049L19.705,22.348L25.604,24.118Z" style="fill:#0d59f2;"/><path d="M25.95,24.691L24.043,25.293L23.166,22.57L19.494,23.277L17.324,23.685L19.402,19.903L14.371,20.466L12.109,20.718L16.048,14.894L11.095,14.555L5.941,15.504L3.616,16.017C3.616,16.017 10.634,9.857 10.634,9.857L7.262,7.493L7.179,7.44L7.53,3.465L7.524,7.251L11.42,9.522L11.815,9.775L7.929,13.652L10.868,12.894L10.975,12.871L17.917,12.997L19.714,13.074L16.377,18.115L21.185,17.581L23.209,17.355L21.282,20.834L23.672,20.395L24.56,20.228L25.95,24.691Z" style="fill:#0d59f2;"/><path d="M21.753,28.443L21.997,26.358L22.046,25.917L24.402,24.193L25.592,25.8L23.97,27.017L23.524,31.227L23.239,33.788L21.809,31.942L21.111,36.72L20.669,39.724L18.542,36.024L17.428,40.516L16.697,45.739L16.378,49.059L14.616,41.465L12.84,44.747L12.815,44.8L10.887,44.846C10.887,44.846 12.68,44.613 12.68,44.613L14.452,40.351L14.85,39.516L15.691,42.361L15.8,40.276L15.805,40.227L17.158,33.055L17.725,30.456L19.459,33.447L20.088,29.193L20.448,26.745L21.753,28.443Z" style="fill:#0d59f2;"/><path d="M24.524,14.108L25.645,14.148L27.068,14.209L25.441,18.843L25.897,19.426L27.322,19.704L29.451,20.107C29.451,20.107 25.394,23.561 25.394,23.561L25.842,24.54L24.03,25.387L23.231,23.713L22.905,23.015L24.812,21.359L24.728,21.343L23.419,19.695L23.058,19.238L24.133,16.186L24.044,16.181L22.535,16.096L20.582,16.012L24.238,11.416L24.193,11.378L20.406,11.757L19.023,11.974L22.669,7.594C22.669,7.594 23.628,5.93 23.628,5.93L21.458,5.584L23.903,5.643L24.14,5.665L23.191,7.905L23.178,7.931L21.558,10.356L24.325,9.762L24.66,9.709L25.958,10.617L26.642,11.136L24.524,14.108Z" style="fill:#0d59f2;"/><path d="M29.297,24.429L30.55,23.041L30.928,22.625L34.448,23.14L34.035,22.364L32.743,19.987L39.764,22.648L37.689,19.867L36.322,18.21L43.47,21.067L45.856,21.752L45.083,19.845L46.221,21.905L46.345,22.166C46.345,22.166 43.305,21.639 43.288,21.635L40.017,20.663L41.653,22.46L41.947,22.816L41.498,24.203L41.211,25.01L37.124,23.672L37.296,23.984L38.303,25.839C38.303,25.839 31.733,24.88 31.733,24.88L31.56,25.068L31.906,26.082L32.756,28.54L26.507,25.293L25.497,25.869L24.493,24.139L25.977,23.264L26.456,22.986L29.297,24.429Z" style="fill:#0d59f2;"/><path d="M24.265,25.658L25.738,24.305L28.23,26.989L28.901,27.72C28.901,27.72 26.802,29.772 26.802,29.772L28.649,29.948L30.689,30.15L26.631,34.792L30.769,34.911L32.52,34.947L28.306,41.538L28.243,41.641L26.216,43.353L30.894,42.622L31.315,42.538L31.313,47.017L34.51,48.998L31.044,47.275L30.956,47.225L30.637,43.437L24.115,45.014L21.783,45.477L26.916,40.581L29.023,36.903L24.337,36.843L22.07,36.796L26.406,31.84L24.373,31.631L22.143,31.41C22.143,31.41 26.056,27.631 26.056,27.631L24.265,25.658Z" style="fill:#0d59f2;"/><path d="M24.314,25.766L25.813,24.442C25.813,24.442 26.911,25.669 26.911,25.669L30.68,23.713L32.591,22.733L31.789,26.857C31.789,26.857 32.418,28.002 32.418,28.002L37.049,28.319L38.431,28.413L37.31,31.588C37.31,31.588 37.271,31.697 37.271,31.697L41.319,30.765L42.15,30.55L42.719,32.992L42.802,33.312L40.388,37.053L44.433,36.205L44.462,36.197L47.302,36.176L47.537,36.163L46.401,39.414L47.096,36.531L44.571,36.799L39.321,38.424L38.006,38.764L41.089,33.106C41.089,33.106 40.955,32.657 40.955,32.657L35.929,34.105L34.075,34.585L35.339,30.9L35.533,30.334L31.697,30.076L31.117,30.037L29.761,27.534L29.58,27.201C29.58,27.201 29.711,26.537 29.711,26.537L27.142,27.837L26.441,28.197L24.314,25.766Z" style="fill:#0d59f2;"/><circle cx="25" cy="25" r="9" style="fill:#fff;"/><path d="M25,16C29.967,16 34,20.033 34,25C34,29.967 29.967,34 25,34C20.033,34 16,29.967 16,25C16,20.033 20.033,16 25,16ZM25,22C23.344,22 22,23.344 22,25C22,26.656 23.344,28 25,28C26.656,28 28,26.656 28,25C28,23.344 26.656,22 25,22Z" style="fill:#6e9cf7;"/><path d="M25,16C29.967,16 34,20.033 34,25C34,29.967 29.967,34 25,34C20.033,34 16,29.967 16,25C16,20.033 20.033,16 25,16ZM25,19C21.689,19 19,21.689 19,25C19,28.311 21.689,31 25,31C28.311,31 31,28.311 31,25C31,21.689 28.311,19 25,19Z" style="fill:#0d59f2;"/></g></svg>