<?xml version="1.0" encoding="UTF-8" standalone="no"?><!DOCTYPE svg PUBLIC "-//W3C//DTD SVG 1.1//EN" "http://www.w3.org/Graphics/SVG/1.1/DTD/svg11.dtd"><svg width="100%" height="100%" viewBox="0 0 50 50" version="1.1" xmlns="http://www.w3.org/2000/svg" xmlns:xlink="http://www.w3.org/1999/xlink" xml:space="preserve" xmlns:serif="http://www.serif.com/" style="fill-rule:evenodd;clip-rule:evenodd;stroke-linejoin:round;stroke-miterlimit:2;"><rect id="weapon-phaser-cannon" x="0" y="0" width="50" height="50" style="fill:none;"/><g id="weapon-phaser-cannon1" serif:id="weapon-phaser-cannon"><path d="M25,25C25,25 40.91,16.161 46.213,10.858C48.165,8.907 48.165,5.738 46.213,3.787C44.262,1.835 41.093,1.835 39.142,3.787C33.839,9.09 25,25 25,25Z" style="fill:#fff;"/><path d="M25,25C25,25 33.839,9.09 39.142,3.787C41.093,1.835 44.262,1.835 46.213,3.787C48.165,5.738 48.165,8.907 46.213,10.858C40.91,16.161 25,25 25,25ZM36.962,13.038C39.549,11.28 41.902,9.512 43.385,8.029C43.775,7.639 43.775,7.005 43.385,6.615C42.995,6.225 42.361,6.225 41.971,6.615C40.488,8.098 38.72,10.451 36.962,13.038Z" style="fill:#f2a60d;"/><path d="M25,25C25,25 33.839,9.09 39.142,3.787C41.093,1.835 44.262,1.835 46.213,3.787C48.165,5.738 48.165,8.907 46.213,10.858C40.91,16.161 25,25 25,25ZM30.518,19.482C35.431,16.522 41.824,12.419 44.799,9.444C45.97,8.273 45.97,6.372 44.799,5.201C43.628,4.03 41.727,4.03 40.556,5.201C37.581,8.176 33.478,14.569 30.518,19.482Z" style="fill:#f26c0d;"/><path d="M2.787,47.213C2.787,47.213 18.697,38.374 24,33.071C25.951,31.12 25.951,27.951 24,26C22.049,24.049 18.88,24.049 16.929,26C11.626,31.303 2.787,47.213 2.787,47.213Z" style="fill:#fff;"/><path d="M2.787,47.213C2.787,47.213 11.626,31.303 16.929,26C18.88,24.049 22.049,24.049 24,26C25.951,27.951 25.951,31.12 24,33.071C18.697,38.374 2.787,47.213 2.787,47.213ZM14.749,35.251C17.336,33.493 19.689,31.726 21.172,30.243C21.562,29.852 21.562,29.219 21.172,28.828C20.781,28.438 20.148,28.438 19.757,28.828C18.275,30.311 16.507,32.664 14.749,35.251Z" style="fill:#f2a60d;"/><path d="M2.787,47.213C2.787,47.213 11.626,31.303 16.929,26C18.88,24.049 22.049,24.049 24,26C25.951,27.951 25.951,31.12 24,33.071C18.697,38.374 2.787,47.213 2.787,47.213ZM8.305,41.695C13.218,38.736 19.611,34.632 22.586,31.657C23.757,30.486 23.757,28.585 22.586,27.414C21.415,26.243 19.514,26.243 18.343,27.414C15.368,30.389 11.264,36.782 8.305,41.695Z" style="fill:#f26c0d;"/></g></svg>