<svg xmlns="http://www.w3.org/2000/svg" xml:space="preserve" style="fill-rule:evenodd;clip-rule:evenodd;stroke-linejoin:round;stroke-miterlimit:2" viewBox="0 0 50 50"><path d="M0 0h50v50H0z" style="fill:none"/><clipPath id="a"><path d="M0 0h50v50H0z"/></clipPath><g clip-path="url(#a)"><path d="M0 0h30v30H0z" style="fill:none"/><path d="m15.624 15.36-1.248-.72-8.735 12.97 2.899-3.58-1.639 3.557 1.612-2.072L7.2 28.51l3.237-4.886-1.963 4.12 1.611-2.072-1.326 3.738z" style="fill:#a6f20d"/><path d="M16.2 15h-2.4L12 .6l1.2 4.2.6-3.6.6 2.4.6-3 .6 5.4.6-4.2.6 2.4L18 .6z" style="fill:#a6f20d"/><path d="m15.413 14.41-.826 1.18 13.142 10.521-3.601-3.401 3.647 2.114-2.087-1.901 3.074 1.713-4.954-3.908 4.22 2.515-2.087-1.901 3.853 1.82z" style="fill:#a6f20d"/><path d="m13.841 15.311 2.318-.622 4.534 9.967-1.974-2.733.119 2.764-1.046-1.584.003 2.329-1.628-3.757.236 3.198-1.045-1.583-.461 2.918z" style="fill:#a6f20d"/><path d="m14.792 13.818.416 2.364-12.687 4.065 3.584-1.851-3.354-.018 2.062-.972-2.812-.114 4.77-1.45-3.896.077 2.063-.973-3.458-.608z" style="fill:#a6f20d"/><path d="m14.627 13.609.746 2.782 12.15-1.019-3.754-.486 2.712-1.471-2.118-.178 2.228-1.343-4.533.469 3.194-1.601-2.118-.178 2.525-2.167z" style="fill:#a6f20d"/><path d="m14.383 15.735 1.234-1.47L3.673 2.363 6.81 6.248 3.284 3.916 5.12 6.083 2.13 4.201l4.518 4.417-4.062-2.782 1.836 2.168L.588 6.04z" style="fill:#a6f20d"/><circle cx="15" cy="15" r="7.5" style="fill:#fff"/><path d="M15 7.5c4.139 0 7.5 3.361 7.5 7.5s-3.361 7.5-7.5 7.5A7.504 7.504 0 0 1 7.5 15c0-4.139 3.361-7.5 7.5-7.5m0 4a3.5 3.5 0 0 0-3.5 3.5c0 1.932 1.568 3.5 3.5 3.5s3.5-1.568 3.5-3.5-1.568-3.5-3.5-3.5" style="fill:#f2cc0d"/><path d="M15 7.5c4.139 0 7.5 3.361 7.5 7.5s-3.361 7.5-7.5 7.5A7.504 7.504 0 0 1 7.5 15c0-4.139 3.361-7.5 7.5-7.5m0 2A5.5 5.5 0 0 0 9.5 15c0 3.036 2.464 5.5 5.5 5.5s5.5-2.464 5.5-5.5-2.464-5.5-5.5-5.5" style="fill:#a6f20d"/><path d="m36.612 48.193-3.419-29.805-29.805 3.419 3.419 29.805z" style="fill:none"/><path d="m19.713 35.661.574-1.322-13.881-7.2 3.887 2.472-3.721-1.222 2.242 1.365-3.125-.964 5.223 2.659-4.317-1.481 2.242 1.366-3.864-.892z" style="fill:#a6f20d"/><path d="m20.137 36.192-.274-2.384 14.101-3.429-4.036 1.67 3.645.186-2.316.87 3.049.254-5.296 1.211 4.241.118-2.316.87 3.713.781z" style="fill:#a6f20d"/><path d="m20.633 35.343-1.266-.686-8.955 14.256 2.968-3.965-1.685 3.864 1.651-2.29-1.351 3.248 3.318-5.367-2.018 4.479 1.651-2.29-1.369 4.036z" style="fill:#a6f20d"/><path d="m19.559 33.884.882 2.232-9.385 5.64 2.489-2.273-2.731.434 1.454-1.219-2.313.268 3.546-2.045-3.15.598 1.454-1.219-2.952-.125z" style="fill:#a6f20d"/><path d="m21.15 34.658-2.3.684-5.484-12.141 2.246 3.349-.364-3.335 1.201 1.938-.208-2.807 1.985 4.575-.521-3.862 1.202 1.938.21-3.505z" style="fill:#a6f20d"/><path d="m21.339 34.471-2.678 1.058 2.397 11.955.054-3.785 1.772 2.526-.065-2.124 1.588 2.061-.983-4.45 1.955 2.991-.065-2.125 2.441 2.262z" style="fill:#a6f20d"/><path d="m19.199 34.471 1.602 1.058 10.463-13.222-3.502 3.559 1.915-3.769-1.944 2.071 1.529-3.184-3.874 4.991 2.301-4.353-1.944 2.072 1.515-4.033z" style="fill:#a6f20d"/><path d="M27.451 34.145a7.503 7.503 0 0 1-6.596 8.306 7.503 7.503 0 0 1-8.306-6.596 7.503 7.503 0 0 1 6.596-8.306 7.503 7.503 0 0 1 8.306 6.596" style="fill:#fff"/><path d="M27.451 34.145a7.503 7.503 0 0 1-6.596 8.306 7.503 7.503 0 0 1-8.306-6.596 7.503 7.503 0 0 1 6.596-8.306 7.503 7.503 0 0 1 8.306 6.596m-3.974.456a3.5 3.5 0 0 0-3.876-3.078 3.5 3.5 0 0 0-3.078 3.876 3.5 3.5 0 0 0 3.876 3.078 3.5 3.5 0 0 0 3.078-3.876" style="fill:#f2cc0d"/><path d="M27.451 34.145a7.503 7.503 0 0 1-6.596 8.306 7.503 7.503 0 0 1-8.306-6.596 7.503 7.503 0 0 1 6.596-8.306 7.503 7.503 0 0 1 8.306 6.596m-1.987.228a5.5 5.5 0 0 0-6.091-4.837 5.5 5.5 0 0 0-4.837 6.091 5.5 5.5 0 0 0 6.091 4.837 5.5 5.5 0 0 0 4.837-6.091" style="fill:#a6f20d"/><path d="M53.959 29.517 44.517 1.041l-28.476 9.442 9.442 28.476z" style="fill:none"/><path d="m34.855 20.705.29-1.41-15.06-4.21 4.311 1.625-3.892-.436 2.473.878-3.255-.304 5.656 1.535-4.529-.567 2.474.878-3.965-.083z" style="fill:#a6f20d"/><path d="m35.378 21.139-.756-2.278 13.102-6.241-3.609 2.461 3.606-.563-2.089 1.325 3.036-.375-4.937 2.269 4.176-.752-2.089 1.325 3.794.006z" style="fill:#a6f20d"/><path d="m35.69 20.206-1.38-.412-5.85 15.785 2.095-4.488-.859 4.127 1.147-2.579-.658 3.456 2.15-5.932-1.059 4.797 1.147-2.579-.514 4.23z" style="fill:#a6f20d"/><path d="m34.34 18.998 1.32 2.004-8.033 7.441 1.972-2.734-2.586.983 1.174-1.491-2.209.735 3.053-2.727-2.961 1.23 1.174-1.49-2.915.481z" style="fill:#a6f20d"/><path d="m36.056 19.43-2.112 1.14-7.851-10.763 2.884 2.819-1.039-3.19 1.573 1.652-.778-2.705 2.878 4.071-1.3-3.673 1.573 1.651-.511-3.474z" style="fill:#a6f20d"/><path d="m36.203 19.208-2.406 1.584 4.792 11.211-.721-3.715 2.25 2.11-.498-2.066 1.976 1.693-1.872-4.155 2.525 2.528-.498-2.067 2.852 1.715z" style="fill:#a6f20d"/><path d="m34.108 19.646 1.784.708L43.43 5.271l-2.7 4.2 1.104-4.08-1.48 2.425.846-3.43-2.771 5.678 1.362-4.731-1.48 2.425.658-4.258z" style="fill:#a6f20d"/><path d="M42.119 17.64a7.503 7.503 0 0 1-4.759 9.479 7.503 7.503 0 0 1-9.479-4.759 7.503 7.503 0 0 1 4.759-9.479 7.503 7.503 0 0 1 9.479 4.759" style="fill:#fff"/><path d="M42.119 17.64a7.503 7.503 0 0 1-4.759 9.479 7.503 7.503 0 0 1-9.479-4.759 7.503 7.503 0 0 1 4.759-9.479 7.503 7.503 0 0 1 9.479 4.759m-3.797 1.258a3.5 3.5 0 0 0-4.424-2.22 3.5 3.5 0 0 0-2.22 4.424 3.5 3.5 0 0 0 4.424 2.22 3.5 3.5 0 0 0 2.22-4.424" style="fill:#f2cc0d"/><path d="M42.119 17.64a7.503 7.503 0 0 1-4.759 9.479 7.503 7.503 0 0 1-9.479-4.759 7.503 7.503 0 0 1 4.759-9.479 7.503 7.503 0 0 1 9.479 4.759m-1.898.629a5.504 5.504 0 0 0-6.952-3.49 5.504 5.504 0 0 0-3.49 6.952 5.504 5.504 0 0 0 6.952 3.49 5.504 5.504 0 0 0 3.49-6.952" style="fill:#a6f20d"/></g></svg>