<svg xmlns="http://www.w3.org/2000/svg" xml:space="preserve" style="fill-rule:evenodd;clip-rule:evenodd;stroke-linejoin:round;stroke-miterlimit:2" viewBox="0 0 50 50"><path d="M0 0h50v50H0z" style="fill:none"/><path d="m26.039 25.375-2.078-.75-14.559 13.51 4.831-3.729-2.731 3.706 2.687-2.158L12 39.073l5.395-5.09-3.272 4.292 2.686-2.158-2.211 3.893z" style="fill:#0da6f2"/><path d="M27 25h-4l-3-15 2 4.375 1-3.75 1 2.5L25 10l1 5.625 1-4.375 1 2.5L30 10z" style="fill:#0da6f2"/><path d="m25.688 24.386-1.376 1.228 21.904 10.959-6.002-3.541 6.078 2.202-3.478-1.98 5.122 1.784-8.257-4.072 7.034 2.621-3.478-1.98 6.422 1.895z" style="fill:#0da6f2"/><path d="m23.068 25.324 3.864-.648 7.556 10.382-3.29-2.846.198 2.878-1.742-1.649.005 2.426-2.713-3.914.393 3.332-1.743-1.65-.767 3.04z" style="fill:#0da6f2"/><path d="m24.653 23.769.694 2.462-21.145 4.234 5.972-1.927-5.59-.019 3.438-1.013-4.688-.118 7.951-1.511-6.493.081 3.438-1.014-5.764-.634z" style="fill:#0da6f2"/><path d="m24.379 23.551 1.242 2.898 20.25-1.062-6.255-.505 4.519-1.534-3.531-.185 3.715-1.398-7.556.489 5.324-1.669-3.53-.185 4.209-2.257z" style="fill:#0da6f2"/><path d="m23.972 25.766 2.056-1.532L6.122 11.836l5.227 4.047-5.876-2.429 3.061 2.258-4.983-1.961 7.529 4.602-6.77-2.898 3.06 2.257-6.39-2.046z" style="fill:#0da6f2"/><ellipse cx="25" cy="25" rx="8.987" ry="7" style="fill:#fff"/><path d="M25 18c4.96 0 8.987 3.137 8.987 7S29.96 32 25 32s-8.987-3.137-8.987-7S20.04 18 25 18m0 4c-1.515 0-2.902.433-3.895 1.207-.609.474-1.092 1.07-1.092 1.793s.483 1.319 1.092 1.793C22.098 27.567 23.485 28 25 28s2.902-.433 3.895-1.207c.609-.474 1.092-1.07 1.092-1.793s-.483-1.319-1.092-1.793C27.902 22.433 26.515 22 25 22" style="fill:#6ec9f7"/><path d="M25 18c4.96 0 8.987 3.137 8.987 7S29.96 32 25 32s-8.987-3.137-8.987-7S20.04 18 25 18m0 2c-3.741 0-6.987 2.086-6.987 5s3.246 5 6.987 5 6.987-2.086 6.987-5-3.246-5-6.987-5" style="fill:#0da6f2"/></svg>