<?xml version="1.0" encoding="UTF-8" standalone="no"?><!DOCTYPE svg PUBLIC "-//W3C//DTD SVG 1.1//EN" "http://www.w3.org/Graphics/SVG/1.1/DTD/svg11.dtd"><svg width="100%" height="100%" viewBox="0 0 50 50" version="1.1" xmlns="http://www.w3.org/2000/svg" xmlns:xlink="http://www.w3.org/1999/xlink" xml:space="preserve" xmlns:serif="http://www.serif.com/" style="fill-rule:evenodd;clip-rule:evenodd;stroke-linejoin:round;stroke-miterlimit:2;"><rect id="weapon-plasma-torpedo-salvo" x="0" y="0" width="50" height="50" style="fill:none;"/><clipPath id="_clip1"><rect id="weapon-plasma-torpedo-salvo1" serif:id="weapon-plasma-torpedo-salvo" x="0" y="0" width="50" height="50"/></clipPath><g clip-path="url(#_clip1)"><rect x="0" y="0" width="30" height="30" style="fill:none;"/><path id="Weapons" d="M15.624,15.36L14.376,14.64L5.641,27.61L8.54,24.03L6.901,27.587L8.513,25.515L7.2,28.51L10.437,23.624L8.474,27.744L10.085,25.672L8.759,29.41L15.624,15.36Z" style="fill:#a6f20d;"/><path id="Weapons1" serif:id="Weapons" d="M16.2,15L13.8,15L12,0.6L13.2,4.8L13.8,1.2L14.4,3.6L15,0.6L15.6,6L16.2,1.8L16.8,4.2L18,0.6L16.2,15Z" style="fill:#a6f20d;"/><path id="Weapons2" serif:id="Weapons" d="M15.413,14.41L14.587,15.59L27.729,26.111L24.128,22.71L27.775,24.824L25.688,22.923L28.762,24.636L23.808,20.728L28.028,23.243L25.941,21.342L29.794,23.162L15.413,14.41Z" style="fill:#a6f20d;"/><path id="Weapons3" serif:id="Weapons" d="M13.841,15.311L16.159,14.689L20.693,24.656L18.719,21.923L18.838,24.687L17.792,23.103L17.795,25.432L16.167,21.675L16.403,24.873L15.358,23.29L14.897,26.208L13.841,15.311Z" style="fill:#a6f20d;"/><path id="Weapons4" serif:id="Weapons" d="M14.792,13.818L15.208,16.182L2.521,20.247L6.105,18.396L2.751,18.378L4.813,17.406L2.001,17.292L6.771,15.842L2.875,15.919L4.938,14.946L1.48,14.338L14.792,13.818Z" style="fill:#a6f20d;"/><path id="Weapons5" serif:id="Weapons" d="M14.627,13.609L15.373,16.391L27.523,15.372L23.769,14.886L26.481,13.415L24.363,13.237L26.591,11.894L22.058,12.363L25.252,10.762L23.134,10.584L25.659,8.417L14.627,13.609Z" style="fill:#a6f20d;"/><path id="Weapons6" serif:id="Weapons" d="M14.383,15.735L15.617,14.265L3.673,2.363L6.81,6.248L3.284,3.916L5.12,6.083L2.13,4.201L6.648,8.618L2.586,5.836L4.422,8.004L0.588,6.04L14.383,15.735Z" style="fill:#a6f20d;"/><circle cx="15" cy="15" r="7.5" style="fill:#fff;"/><path d="M15,7.5C19.139,7.5 22.5,10.861 22.5,15C22.5,19.139 19.139,22.5 15,22.5C10.861,22.5 7.5,19.139 7.5,15C7.5,10.861 10.861,7.5 15,7.5ZM15,11.5C13.068,11.5 11.5,13.068 11.5,15C11.5,16.932 13.068,18.5 15,18.5C16.932,18.5 18.5,16.932 18.5,15C18.5,13.068 16.932,11.5 15,11.5Z" style="fill:#f2cc0d;"/><path d="M15,7.5C19.139,7.5 22.5,10.861 22.5,15C22.5,19.139 19.139,22.5 15,22.5C10.861,22.5 7.5,19.139 7.5,15C7.5,10.861 10.861,7.5 15,7.5ZM15,9.5C11.964,9.5 9.5,11.964 9.5,15C9.5,18.036 11.964,20.5 15,20.5C18.036,20.5 20.5,18.036 20.5,15C20.5,11.964 18.036,9.5 15,9.5Z" style="fill:#a6f20d;"/><path d="M36.612,48.193L33.193,18.388L3.388,21.807L6.807,51.612L36.612,48.193Z" style="fill:none;"/><path id="Weapons7" serif:id="Weapons" d="M19.713,35.661L20.287,34.339L6.406,27.139L10.293,29.611L6.572,28.389L8.814,29.754L5.689,28.79L10.912,31.449L6.595,29.968L8.837,31.334L4.973,30.442L19.713,35.661Z" style="fill:#a6f20d;"/><path id="Weapons8" serif:id="Weapons" d="M20.137,36.192L19.863,33.808L33.964,30.379L29.928,32.049L33.573,32.235L31.257,33.105L34.306,33.359L29.01,34.57L33.251,34.688L30.935,35.558L34.648,36.339L20.137,36.192Z" style="fill:#a6f20d;"/><path id="Weapons9" serif:id="Weapons" d="M20.633,35.343L19.367,34.657L10.412,48.913L13.38,44.948L11.695,48.812L13.346,46.522L11.995,49.77L15.313,44.403L13.295,48.882L14.946,46.592L13.577,50.628L20.633,35.343Z" style="fill:#a6f20d;"/><path id="Weapons10" serif:id="Weapons" d="M19.559,33.884L20.441,36.116L11.056,41.756L13.545,39.483L10.814,39.917L12.268,38.698L9.955,38.966L13.501,36.921L10.351,37.519L11.805,36.3L8.853,36.175L19.559,33.884Z" style="fill:#a6f20d;"/><path id="Weapons11" serif:id="Weapons" d="M21.15,34.658L18.85,35.342L13.366,23.201L15.612,26.55L15.248,23.215L16.449,25.153L16.241,22.346L18.226,26.921L17.705,23.059L18.907,24.997L19.117,21.492L21.15,34.658Z" style="fill:#a6f20d;"/><path id="Weapons12" serif:id="Weapons" d="M21.339,34.471L18.661,35.529L21.058,47.484L21.112,43.699L22.884,46.225L22.819,44.101L24.407,46.162L23.424,41.712L25.379,44.703L25.314,42.578L27.755,44.84L21.339,34.471Z" style="fill:#a6f20d;"/><path id="Weapons13" serif:id="Weapons" d="M19.199,34.471L20.801,35.529L31.264,22.307L27.762,25.866L29.677,22.097L27.733,24.168L29.262,20.984L25.388,25.975L27.689,21.622L25.745,23.694L27.26,19.661L19.199,34.471Z" style="fill:#a6f20d;"/><path d="M27.451,34.145C27.923,38.258 24.967,41.979 20.855,42.451C16.742,42.923 13.021,39.967 12.549,35.855C12.077,31.742 15.033,28.021 19.145,27.549C23.258,27.077 26.979,30.033 27.451,34.145Z" style="fill:#fff;"/><path d="M27.451,34.145C27.923,38.258 24.967,41.979 20.855,42.451C16.742,42.923 13.021,39.967 12.549,35.855C12.077,31.742 15.033,28.021 19.145,27.549C23.258,27.077 26.979,30.033 27.451,34.145ZM23.477,34.601C23.257,32.682 21.52,31.303 19.601,31.523C17.682,31.743 16.303,33.48 16.523,35.399C16.743,37.318 18.48,38.697 20.399,38.477C22.318,38.257 23.697,36.52 23.477,34.601Z" style="fill:#f2cc0d;"/><path d="M27.451,34.145C27.923,38.258 24.967,41.979 20.855,42.451C16.742,42.923 13.021,39.967 12.549,35.855C12.077,31.742 15.033,28.021 19.145,27.549C23.258,27.077 26.979,30.033 27.451,34.145ZM25.464,34.373C25.118,31.357 22.389,29.19 19.373,29.536C16.357,29.882 14.19,32.611 14.536,35.627C14.882,38.643 17.611,40.81 20.627,40.464C23.643,40.118 25.81,37.389 25.464,34.373Z" style="fill:#a6f20d;"/><path d="M53.959,29.517L44.517,1.041L16.041,10.483L25.483,38.959L53.959,29.517Z" style="fill:none;"/><path id="Weapons14" serif:id="Weapons" d="M34.855,20.705L35.145,19.295L20.085,15.085L24.396,16.71L20.504,16.274L22.977,17.152L19.722,16.848L25.378,18.383L20.849,17.816L23.323,18.694L19.358,18.611L34.855,20.705Z" style="fill:#a6f20d;"/><path id="Weapons15" serif:id="Weapons" d="M35.378,21.139L34.622,18.861L47.724,12.62L44.115,15.081L47.721,14.518L45.632,15.843L48.668,15.468L43.731,17.737L47.907,16.985L45.818,18.31L49.612,18.316L35.378,21.139Z" style="fill:#a6f20d;"/><path id="Weapons16" serif:id="Weapons" d="M35.69,20.206L34.31,19.794L28.46,35.579L30.555,31.091L29.696,35.218L30.843,32.639L30.185,36.095L32.335,30.163L31.276,34.96L32.423,32.381L31.909,36.611L35.69,20.206Z" style="fill:#a6f20d;"/><path id="Weapons17" serif:id="Weapons" d="M34.34,18.998L35.66,21.002L27.627,28.443L29.599,25.709L27.013,26.692L28.187,25.201L25.978,25.936L29.031,23.209L26.07,24.439L27.244,22.949L24.329,23.43L34.34,18.998Z" style="fill:#a6f20d;"/><path id="Weapons18" serif:id="Weapons" d="M36.056,19.43L33.944,20.57L26.093,9.807L28.977,12.626L27.938,9.436L29.511,11.088L28.733,8.383L31.611,12.454L30.311,8.781L31.884,10.432L31.373,6.958L36.056,19.43Z" style="fill:#a6f20d;"/><path id="Weapons19" serif:id="Weapons" d="M36.203,19.208L33.797,20.792L38.589,32.003L37.868,28.288L40.118,30.398L39.62,28.332L41.596,30.025L39.724,25.87L42.249,28.398L41.751,26.331L44.603,28.046L36.203,19.208Z" style="fill:#a6f20d;"/><path id="Weapons20" serif:id="Weapons" d="M34.108,19.646L35.892,20.354L43.43,5.271L40.73,9.471L41.834,5.391L40.354,7.816L41.2,4.386L38.429,10.064L39.791,5.333L38.311,7.758L38.969,3.5L34.108,19.646Z" style="fill:#a6f20d;"/><path d="M42.119,17.64C43.422,21.569 41.289,25.816 37.36,27.119C33.431,28.422 29.184,26.289 27.881,22.36C26.578,18.431 28.711,14.184 32.64,12.881C36.569,11.578 40.816,13.711 42.119,17.64Z" style="fill:#fff;"/><path d="M42.119,17.64C43.422,21.569 41.289,25.816 37.36,27.119C33.431,28.422 29.184,26.289 27.881,22.36C26.578,18.431 28.711,14.184 32.64,12.881C36.569,11.578 40.816,13.711 42.119,17.64ZM38.322,18.898C37.714,17.065 35.732,16.07 33.898,16.678C32.065,17.286 31.07,19.268 31.678,21.102C32.286,22.935 34.268,23.93 36.102,23.322C37.935,22.714 38.93,20.732 38.322,18.898Z" style="fill:#f2cc0d;"/><path d="M42.119,17.64C43.422,21.569 41.289,25.816 37.36,27.119C33.431,28.422 29.184,26.289 27.881,22.36C26.578,18.431 28.711,14.184 32.64,12.881C36.569,11.578 40.816,13.711 42.119,17.64ZM40.221,18.269C39.265,15.388 36.15,13.824 33.269,14.779C30.388,15.735 28.824,18.85 29.779,21.731C30.735,24.612 33.85,26.176 36.731,25.221C39.612,24.265 41.176,21.15 40.221,18.269Z" style="fill:#a6f20d;"/></g></svg>