<?xml version="1.0" encoding="UTF-8" standalone="no"?><!DOCTYPE svg PUBLIC "-//W3C//DTD SVG 1.1//EN" "http://www.w3.org/Graphics/SVG/1.1/DTD/svg11.dtd"><svg width="100%" height="100%" viewBox="0 0 50 50" version="1.1" xmlns="http://www.w3.org/2000/svg" xmlns:xlink="http://www.w3.org/1999/xlink" xml:space="preserve" xmlns:serif="http://www.serif.com/" style="fill-rule:evenodd;clip-rule:evenodd;stroke-linejoin:round;stroke-miterlimit:2;"><rect id="weapon-polaron-array-spread" x="0" y="0" width="50" height="50" style="fill:none;"/><g id="weapon-polaron-array-spread1" serif:id="weapon-polaron-array-spread"><path d="M32.749,17.251C32.749,17.251 43.709,13.362 46.891,10.18C48.842,8.229 48.842,5.06 46.891,3.109C44.94,1.158 41.771,1.158 39.82,3.109C36.638,6.291 32.749,17.251 32.749,17.251Z" style="fill:#fff;"/><path d="M32.749,17.251C32.749,17.251 36.638,6.291 39.82,3.109C41.771,1.158 44.94,1.158 46.891,3.109C48.842,5.06 48.842,8.229 46.891,10.18C43.709,13.362 32.749,17.251 32.749,17.251ZM40.071,9.93C41.729,9.096 43.212,8.202 44.062,7.352C44.453,6.962 44.453,6.328 44.062,5.938C43.672,5.547 43.038,5.547 42.648,5.938C41.797,6.788 40.904,8.271 40.071,9.93Z" style="fill:#6ec9f7;"/><path d="M32.749,17.251C32.749,17.251 36.638,6.291 39.82,3.109C41.771,1.158 44.94,1.158 46.891,3.109C48.842,5.06 48.842,8.229 46.891,10.18C43.709,13.362 32.749,17.251 32.749,17.251ZM36.201,13.799C39.453,12.475 43.723,10.52 45.477,8.766C46.647,7.595 46.647,5.694 45.477,4.523C44.306,3.353 42.405,3.353 41.234,4.523C39.48,6.277 37.525,10.547 36.201,13.799Z" style="fill:#3d7af5;"/><path d="M25.678,24.322C25.678,24.322 36.638,20.433 39.82,17.251C41.771,15.3 41.771,12.132 39.82,10.18C37.868,8.229 34.7,8.229 32.749,10.18C29.567,13.362 25.678,24.322 25.678,24.322Z" style="fill:#fff;"/><path d="M25.678,24.322C25.678,24.322 29.567,13.362 32.749,10.18C34.7,8.229 37.868,8.229 39.82,10.18C41.771,12.132 41.771,15.3 39.82,17.251C36.638,20.433 25.678,24.322 25.678,24.322ZM33,17.001C34.658,16.167 36.141,15.274 36.991,14.423C37.382,14.033 37.382,13.399 36.991,13.009C36.601,12.618 35.967,12.618 35.577,13.009C34.726,13.859 33.833,15.342 33,17.001Z" style="fill:#6ec9f7;"/><path d="M25.678,24.322C25.678,24.322 29.567,13.362 32.749,10.18C34.7,8.229 37.868,8.229 39.82,10.18C41.771,12.132 41.771,15.3 39.82,17.251C36.638,20.433 25.678,24.322 25.678,24.322ZM29.13,20.87C32.382,19.546 36.651,17.591 38.406,15.837C39.576,14.666 39.576,12.765 38.406,11.594C37.235,10.424 35.334,10.424 34.163,11.594C32.409,13.349 30.454,17.618 29.13,20.87Z" style="fill:#3d7af5;"/><path d="M8,42C8,42 26.385,30.686 32.749,24.322C34.7,22.371 34.7,19.203 32.749,17.251C30.797,15.3 27.629,15.3 25.678,17.251C19.314,23.615 8,42 8,42Z" style="fill:#fff;"/><path d="M8,42C8,42 19.314,23.615 25.678,17.251C27.629,15.3 30.797,15.3 32.749,17.251C34.7,19.203 34.7,22.371 32.749,24.322C26.385,30.686 8,42 8,42ZM22.303,27.697C25.345,25.484 28.127,23.288 29.92,21.494C30.311,21.104 30.311,20.47 29.92,20.08C29.53,19.689 28.896,19.689 28.506,20.08C26.712,21.874 24.516,24.655 22.303,27.697Z" style="fill:#6ec9f7;"/><path d="M8,42C8,42 19.314,23.615 25.678,17.251C27.629,15.3 30.797,15.3 32.749,17.251C34.7,19.203 34.7,22.371 32.749,24.322C26.385,30.686 8,42 8,42ZM14.571,35.429C20.3,31.658 27.753,26.49 31.335,22.908C32.505,21.737 32.505,19.836 31.335,18.665C30.164,17.495 28.263,17.495 27.092,18.665C23.51,22.247 18.342,29.7 14.571,35.429Z" style="fill:#3d7af5;"/><path d="M6.03,40.495C3.262,37.124 0.193,32.165 0.193,32.165C0.193,32.165 5.111,34.127 8.862,36.164C9.223,36.057 9.605,36 10,36C12.208,36 14,37.792 14,40C14,40.405 13.94,40.797 13.827,41.165C15.849,44.907 17.785,49.757 17.785,49.757C17.785,49.757 12.887,46.726 9.518,43.971C7.7,43.752 6.255,42.312 6.03,40.495Z" style="fill:#fff;"/><path d="M6.03,40.495C3.262,37.124 0.193,32.165 0.193,32.165C0.193,32.165 5.111,34.127 8.862,36.164C9.223,36.057 9.605,36 10,36C12.208,36 14,37.792 14,40C14,40.405 13.94,40.797 13.827,41.165C15.849,44.907 17.785,49.757 17.785,49.757C17.785,49.757 12.887,46.726 9.518,43.971C7.7,43.752 6.255,42.312 6.03,40.495ZM8.718,39.161C8.867,39.463 8.966,39.789 9.008,40.127C9.064,40.579 9.423,40.938 9.876,40.993C10.209,41.033 10.531,41.128 10.829,41.273C10.817,40.944 10.86,40.612 10.957,40.291C10.985,40.199 11,40.101 11,40C11,39.448 10.552,39 10,39C9.901,39 9.805,39.014 9.715,39.041C9.389,39.137 9.051,39.177 8.718,39.161Z" style="fill:#6ec9f7;"/><path d="M6.03,40.495C3.262,37.124 0.193,32.165 0.193,32.165C0.193,32.165 5.111,34.127 8.862,36.164C9.223,36.057 9.605,36 10,36C12.208,36 14,37.792 14,40C14,40.405 13.94,40.797 13.827,41.165C15.849,44.907 17.785,49.757 17.785,49.757C17.785,49.757 12.887,46.726 9.518,43.971C7.7,43.752 6.255,42.312 6.03,40.495ZM8.015,40.25C8.127,41.157 8.849,41.876 9.757,41.986L10.334,42.055L10.784,42.423C11.522,43.026 12.335,43.643 13.153,44.237C12.802,43.518 12.436,42.798 12.068,42.116L11.671,41.382L11.914,40.583C11.97,40.398 12,40.203 12,40C12,38.896 11.104,38 10,38C9.802,38 9.611,38.028 9.431,38.082L8.636,38.318L7.908,37.922C7.204,37.54 6.458,37.161 5.712,36.797C6.323,37.636 6.957,38.472 7.576,39.226L7.944,39.674L8.015,40.25Z" style="fill:#3d7af5;"/></g></svg>