<svg xmlns="http://www.w3.org/2000/svg" xml:space="preserve" style="fill-rule:evenodd;clip-rule:evenodd;stroke-linejoin:round;stroke-miterlimit:2" viewBox="0 0 50 50"><path d="M0 0h50v50H0z" style="fill:none"/><path d="m25.894 24.552-1.788.895-1.07-2.106-2.602 1.21-2.035.933 1.046-3.795-3.584 1.305-2.13.775 2.226-6.014-3.719.559-3.944 1.775-2.126 1.063 4.787-7.011-3.026-1.476-.093-.039L7.5 9l.657 3.367 3.487 1.296.396.17-2.295 3.952 1.879-1.037.108-.054 5.589-1.181 1.726-.312-1.802 5.04 3.394-1.233 1.926-.7-.958 3.428 1.468-.664.897-.411z" style="fill:#0df2cc"/><path d="m24.707 25.961.574-1.916 2.267.664.901-2.725.715-2.121 2.047 3.361 1.505-3.504.895-2.083 2.856 5.742 2.14-3.092 1.409-4.089.682-2.277 1.829 8.29 3.147-1.194.093-.04 2.871 2.239-2.902-1.828-3.334 1.652-.395.172-1.306-4.379-.532 2.079-.035.116-2.969 4.88-.955 1.471-2.437-4.765-1.427 3.317-.809 1.882-1.841-3.045-.522 1.523-.315.935z" style="fill:#0df2cc"/><path d="m24.331 24.261 1.33 1.493-1.207 1.094 1.31 1.569 1.423 1.725-3.114-.028 1.461 2.095 1.296 1.86-5.116-.49 1.004 2.364 2.082 2.624 1.572 1.782-6.648-2.395-.512 2.486-.014.1-2.698.96 2.364-1.199.227-2.893.061-.429 3.041.804-.836-.853-.079-.09-2.068-4.005-.748-1.589 4.06.338-1.345-1.932-1.17-1.68 2.739.032-.492-.605-.624-.758z" style="fill:#0df2cc"/><path d="M27 24.999h-4L20 8.01l2 4.956 1-4.248 1 2.832 1-3.54 1 6.371 1-4.955 1 2.832 2-4.248z" style="fill:#0df2cc"/><path d="m25.688 24.303-1.376 1.392 21.904 12.412-6.002-4.011 6.078 2.494-3.478-2.243 5.122 2.021-8.257-4.611 7.034 2.968-3.478-2.243 6.422 2.146z" style="fill:#0df2cc"/><path d="m24.653 23.605.694 2.789-21.145 4.795 5.972-2.183-5.59-.021 3.438-1.148-4.688-.133 7.951-1.712-6.493.092 3.438-1.148-5.764-.718z" style="fill:#0df2cc"/><path d="m27.793 22.704-.038-.076.522-2.039.146-.565 3.082-.986-.05-.074-.844-1.254-1.113-1.607 5.871.137.003-.059-2.59-2.789-1.009-.971 5.693.26 1.906-.242-1.035-1.939 1.429 1.984.126.203-2.358.597-.029.005-2.911.175 2.146 1.845.245.236.059 1.582v.859l-3.648.108.646.917.811 1.171-4.675 1.504-.19.715.64 1.303.965 1.94-5.203-1.146-.51.949-1.769-.932.851-1.648.359-.682z" style="fill:#0df2cc"/><path d="m26.531 27.702 1.598.873.508.281.17 2.713 1.246-.393 1.802-.6-1.454 4.886 2.91-1.418 1.168-.666-1.545 4.779-.218 1.594 1.887-.377-2.038.745-.226.064-.007-2.116.002-.031.451-2.305-1.984 1.307-.285.162-1.41-.314-.83-.222.684-2.942-.789.27-1.3.433-.274-4.279-.508-.284-1.247.22-2.107.384 2.217-4.166-.626-.567 1.328-1.495 1.243 1.084.595.529z" style="fill:#0df2cc"/><path d="m16.596 29.383-.278-.907-.366-1.24 4.096-.358.313-.584-.194-1.318-.321-2.086 3.97 2.198.549-.642 1.533 1.285-1.072 1.303-.535.639-1.771-.956-.873 1.663-.27.509-2.679.23.018.063.363 1.308.517 1.746-4.709-1.393-.001.005 1.339 3.034.586 1.121-4.57-1.482-1.536-.187.322 1.941-.694-2.098-.055-.222 2.047-.038.033.001 2.25.439-1.277-2.1-.143-.275.317-1.434.223-.831z" style="fill:#0df2cc"/><ellipse cx="25" cy="25" rx="11" ry="8" style="fill:#fff"/><path d="M25 17c6.071 0 11 3.585 11 8s-4.929 8-11 8-11-3.585-11-8 4.929-8 11-8m0 5c-1.88 0-3.602.491-4.836 1.388C19.556 23.83 19 24.326 19 25s.556 1.17 1.164 1.612C21.398 27.509 23.12 28 25 28s3.602-.491 4.836-1.388C30.444 26.17 31 25.674 31 25s-.556-1.17-1.164-1.612C28.602 22.491 26.88 22 25 22" style="fill:#6ef7e0"/><path d="M25 17c6.071 0 11 3.585 11 8s-4.929 8-11 8-11-3.585-11-8 4.929-8 11-8m0 2c-3.057 0-5.788 1.03-7.468 2.697C16.593 22.628 16 23.758 16 25s.593 2.372 1.532 3.303C19.212 29.97 21.943 31 25 31s5.788-1.03 7.468-2.697C33.407 27.372 34 26.242 34 25s-.593-2.372-1.532-3.303C30.788 20.03 28.057 19 25 19" style="fill:#0df2cc"/></svg>