<?xml version="1.0" encoding="UTF-8" standalone="no"?><!DOCTYPE svg PUBLIC "-//W3C//DTD SVG 1.1//EN" "http://www.w3.org/Graphics/SVG/1.1/DTD/svg11.dtd"><svg width="100%" height="100%" viewBox="0 0 50 50" version="1.1" xmlns="http://www.w3.org/2000/svg" xmlns:xlink="http://www.w3.org/1999/xlink" xml:space="preserve" xmlns:serif="http://www.serif.com/" style="fill-rule:evenodd;clip-rule:evenodd;stroke-linejoin:round;stroke-miterlimit:2;"><rect id="weapon-quantum-torpedo" x="0" y="0" width="50" height="50" style="fill:none;"/><g id="weapon-quantum-torpedo1" serif:id="weapon-quantum-torpedo"><path id="Weapons" d="M26.039,25.375L23.961,24.625L9.402,38.135L14.233,34.406L11.502,38.112L14.189,35.954L12,39.073L17.395,33.983L14.123,38.275L16.809,36.117L14.598,40.01L26.039,25.375Z" style="fill:#0da6f2;"/><path id="Weapons1" serif:id="Weapons" d="M27,25L23,25L20,10L22,14.375L23,10.625L24,13.125L25,10L26,15.625L27,11.25L28,13.75L30,10L27,25Z" style="fill:#0da6f2;"/><path id="Weapons2" serif:id="Weapons" d="M25.688,24.386L24.312,25.614L46.216,36.573L40.214,33.032L46.292,35.234L42.814,33.254L47.936,35.038L39.679,30.966L46.713,33.587L43.235,31.607L49.657,33.502L25.688,24.386Z" style="fill:#0da6f2;"/><path id="Weapons3" serif:id="Weapons" d="M23.068,25.324L26.932,24.676L34.488,35.058L31.198,32.212L31.396,35.09L29.654,33.441L29.659,35.867L26.946,31.953L27.339,35.285L25.596,33.635L24.829,36.675L23.068,25.324Z" style="fill:#0da6f2;"/><path id="Weapons4" serif:id="Weapons" d="M24.653,23.769L25.347,26.231L4.202,30.465L10.174,28.538L4.584,28.519L8.022,27.506L3.334,27.388L11.285,25.877L4.792,25.958L8.23,24.944L2.466,24.31L24.653,23.769Z" style="fill:#0da6f2;"/><path id="Weapons5" serif:id="Weapons" d="M24.379,23.551L25.621,26.449L45.871,25.387L39.616,24.882L44.135,23.348L40.604,23.163L44.319,21.765L36.763,22.254L42.087,20.585L38.557,20.4L42.766,18.143L24.379,23.551Z" style="fill:#0da6f2;"/><path id="Weapons6" serif:id="Weapons" d="M23.972,25.766L26.028,24.234L6.122,11.836L11.349,15.883L5.473,13.454L8.534,15.712L3.551,13.751L11.08,18.353L4.31,15.455L7.37,17.712L0.98,15.666L23.972,25.766Z" style="fill:#0da6f2;"/><ellipse cx="25" cy="25" rx="8.987" ry="7" style="fill:#fff;"/><path d="M25,18C29.96,18 33.987,21.137 33.987,25C33.987,28.863 29.96,32 25,32C20.04,32 16.013,28.863 16.013,25C16.013,21.137 20.04,18 25,18ZM25,22C23.485,22 22.098,22.433 21.105,23.207C20.496,23.681 20.013,24.277 20.013,25C20.013,25.723 20.496,26.319 21.105,26.793C22.098,27.567 23.485,28 25,28C26.515,28 27.902,27.567 28.895,26.793C29.504,26.319 29.987,25.723 29.987,25C29.987,24.277 29.504,23.681 28.895,23.207C27.902,22.433 26.515,22 25,22Z" style="fill:#6ec9f7;"/><path d="M25,18C29.96,18 33.987,21.137 33.987,25C33.987,28.863 29.96,32 25,32C20.04,32 16.013,28.863 16.013,25C16.013,21.137 20.04,18 25,18ZM25,20C21.259,20 18.013,22.086 18.013,25C18.013,27.914 21.259,30 25,30C28.741,30 31.987,27.914 31.987,25C31.987,22.086 28.741,20 25,20Z" style="fill:#0da6f2;"/></g></svg>