<?xml version="1.0" encoding="UTF-8" standalone="no"?><!DOCTYPE svg PUBLIC "-//W3C//DTD SVG 1.1//EN" "http://www.w3.org/Graphics/SVG/1.1/DTD/svg11.dtd"><svg width="100%" height="100%" viewBox="0 0 50 50" version="1.1" xmlns="http://www.w3.org/2000/svg" xmlns:xlink="http://www.w3.org/1999/xlink" xml:space="preserve" xmlns:serif="http://www.serif.com/" style="fill-rule:evenodd;clip-rule:evenodd;stroke-linejoin:round;stroke-miterlimit:2;"><rect id="talent-custom" x="0" y="0" width="50" height="50" style="fill:none;"/><g id="talent-custom1" serif:id="talent-custom"><g id="Talent-Frame" serif:id="Talent Frame"><path d="M1,6L25,1L49,6L49,24L44,23L44,30L49,31L49,49L25,44L1,49L1,31L6,30L6,23L1,24L1,6Z" style="fill:#10273d;"/><path d="M0,5L25,0L50,5L50,25L45,24L45,29L50,30L50,50L25,45L0,50L0,30L5,29L5,24L0,25L0,5ZM2,6.64L25,2.04C25,2.04 48,6.64 48,6.64C48,6.64 48,22.56 48,22.56C48,22.56 43,21.56 43,21.56L43,30.64L48,31.64C48,31.64 48,47.56 48,47.56C48,47.56 25,42.96 25,42.96L2,47.56C2,47.56 2,31.64 2,31.64C2,31.64 7,30.64 7,30.64L7,21.56L2,22.56L2,6.64Z" style="fill:#0077af;"/></g><g id="Custom"><path id="Custom1" serif:id="Custom" d="M17.768,34.223C18.723,32.404 19.587,31.017 20.361,30.061C21.361,28.833 22.271,28.242 23.09,28.288C24.272,28.333 25.364,29.698 26.365,32.381C27.047,34.2 27.684,36.566 28.275,39.477C27.274,40.159 26.183,40.5 25,40.5C23.545,40.5 22.191,39.943 20.941,38.828C19.69,37.714 18.632,36.179 17.768,34.223ZM16.131,29.243C15.721,26.878 15.517,24.808 15.517,23.034C15.517,19.85 15.949,16.917 16.813,14.233C17.677,11.549 18.837,9.423 20.292,7.854C21.748,6.285 23.328,5.5 25.034,5.5C26.74,5.5 28.32,6.285 29.776,7.854C31.231,9.423 32.38,11.549 33.221,14.233C34.063,16.917 34.483,19.85 34.483,23.034C34.483,26.582 33.938,29.834 32.846,32.79C31.845,35.61 30.481,37.725 28.752,39.135C28.616,37.953 28.366,35.906 28.002,32.995C27.502,29.22 27.138,26.309 26.91,24.262C26.501,20.851 25.978,17.917 25.341,15.461C24.431,12.095 23.476,10.412 22.476,10.412C20.565,10.412 18.45,16.689 16.131,29.243Z" style="fill:#f1de7f;fill-rule:nonzero;"/></g></g></svg>