<svg xmlns="http://www.w3.org/2000/svg" xml:space="preserve" style="fill-rule:evenodd;clip-rule:evenodd;stroke-linejoin:round;stroke-miterlimit:2" viewBox="0 0 50 50"><path d="M0 0h50v50H0z" style="fill:none"/><path d="m1 6 24-5 24 5v18l-5-1v7l5 1v18l-24-5-24 5V31l5-1v-7l-5 1z" style="fill:#10273d"/><path d="m0 5 25-5 25 5v20l-5-1v5l5 1v20l-25-5-25 5V30l5-1v-5l-5 1zm2 1.64 23-4.6 23 4.6v15.92l-5-1v9.08l5 1v15.92l-23-4.6-23 4.6V31.64l5-1v-9.08l-5 1z" style="fill:#0077af"/><path d="M29 39.943a8 8 0 0 1-1 .485V37.5h-2v3.441a8 8 0 0 1-.964.059h-.072a8 8 0 0 1-.964-.059V37.5h-2v2.928a8 8 0 0 1-1-.485V36.5h8zM17.014 13.5H24v7h-7v12.536a7.96 7.96 0 0 0 3 6.228V35.5h10v3.764q.348-.279.667-.597A7.96 7.96 0 0 0 33 33.036V20.5h-7v-7h6.986a7.96 7.96 0 0 0-7.95-7.5h-.072a7.96 7.96 0 0 0-7.95 7.5m6.986 8h-5v13h5zm7 0h-5v13h5zm-8 6v6h-3v-6zm7 0v6h-3v-6zm-10-1v-1h3v1zm7 0v-1h3v1zm3-2h-3v-2h3zm-7 0h-3v-2h3zm10-10v5h-6v-5zm-16 0h6v5h-6zm2 1h-1v3h1zm13 0h-1v3h1z" style="fill:#f1de7f"/></svg>