<?xml version="1.0" encoding="UTF-8" standalone="no"?><!DOCTYPE svg PUBLIC "-//W3C//DTD SVG 1.1//EN" "http://www.w3.org/Graphics/SVG/1.1/DTD/svg11.dtd"><svg width="100%" height="100%" viewBox="0 0 50 50" version="1.1" xmlns="http://www.w3.org/2000/svg" xmlns:xlink="http://www.w3.org/1999/xlink" xml:space="preserve" xmlns:serif="http://www.serif.com/" style="fill-rule:evenodd;clip-rule:evenodd;stroke-linejoin:round;stroke-miterlimit:2;"><rect id="talent-fitness" x="0" y="0" width="50" height="50" style="fill:none;"/><g id="talent-fitness1" serif:id="talent-fitness"><g id="Talent-Frame" serif:id="Talent Frame"><path d="M1,6L25,1L49,6L49,24L44,23L44,30L49,31L49,49L25,44L1,49L1,31L6,30L6,23L1,24L1,6Z" style="fill:#10273d;"/><path d="M0,5L25,0L50,5L50,25L45,24L45,29L50,30L50,50L25,45L0,50L0,30L5,29L5,24L0,25L0,5ZM2,6.64L25,2.04C25,2.04 48,6.64 48,6.64C48,6.64 48,22.56 48,22.56C48,22.56 43,21.56 43,21.56L43,30.64L48,31.64C48,31.64 48,47.56 48,47.56C48,47.56 25,42.96 25,42.96L2,47.56C2,47.56 2,31.64 2,31.64C2,31.64 7,30.64 7,30.64L7,21.56L2,22.56L2,6.64Z" style="fill:#0077af;"/></g><g id="Fitness"><path id="Fitness1" serif:id="Fitness" d="M14,24L13,24L13,20C13,19.448 12.552,19 12,19L10,19C9.448,19 9,19.448 9,20L9,24L8.5,24C8.224,24 8,24.224 8,24.5L8,25.5C8,25.776 8.224,26 8.5,26L9,26L9,30C9,30.552 9.448,31 10,31L12,31C12.552,31 13,30.552 13,30L13,26L14,26L14,32C14,32.552 14.448,33 15,33L17,33C17.552,33 18,32.552 18,32L18,26L32,26L32,32C32,32.552 32.448,33 33,33L35,33C35.552,33 36,32.552 36,32L36,26L37,26L37,30C37,30.552 37.448,31 38,31L40,31C40.552,31 41,30.552 41,30L41,26L41.5,26C41.776,26 42,25.776 42,25.5L42,24.5C42,24.224 41.776,24 41.5,24L41,24L41,20C41,19.448 40.552,19 40,19L38,19C37.448,19 37,19.448 37,20L37,24L36,24L36,18C36,17.448 35.552,17 35,17L33,17C32.448,17 32,17.448 32,18L32,24L18,24L18,18C18,17.448 17.552,17 17,17L15,17C14.448,17 14,17.448 14,18L14,24Z" style="fill:#f1de7f;"/></g></g></svg>