<svg xmlns="http://www.w3.org/2000/svg" xml:space="preserve" style="fill-rule:evenodd;clip-rule:evenodd;stroke-linejoin:round;stroke-miterlimit:2" viewBox="0 0 50 50"><path d="M0 0h50v50H0z" style="fill:none"/><path d="m1 6 24-5 24 5v18l-5-1v7l5 1v18l-24-5-24 5V31l5-1v-7l-5 1z" style="fill:#10273d"/><path d="m0 5 25-5 25 5v20l-5-1v5l5 1v20l-25-5-25 5V30l5-1v-5l-5 1zm2 1.64 23-4.6 23 4.6v15.92l-5-1v9.08l5 1v15.92l-23-4.6-23 4.6V31.64l5-1v-9.08l-5 1z" style="fill:#0077af"/><path d="M14 24h-1v-4a1 1 0 0 0-1-1h-2a1 1 0 0 0-1 1v4h-.5a.5.5 0 0 0-.5.5v1a.5.5 0 0 0 .5.5H9v4a1 1 0 0 0 1 1h2a1 1 0 0 0 1-1v-4h1v6a1 1 0 0 0 1 1h2a1 1 0 0 0 1-1v-6h14v6a1 1 0 0 0 1 1h2a1 1 0 0 0 1-1v-6h1v4a1 1 0 0 0 1 1h2a1 1 0 0 0 1-1v-4h.5a.5.5 0 0 0 .5-.5v-1a.5.5 0 0 0-.5-.5H41v-4a1 1 0 0 0-1-1h-2a1 1 0 0 0-1 1v4h-1v-6a1 1 0 0 0-1-1h-2a1 1 0 0 0-1 1v6H18v-6a1 1 0 0 0-1-1h-2a1 1 0 0 0-1 1z" style="fill:#f1de7f"/></svg>