<?xml version="1.0" encoding="UTF-8" standalone="no"?><!DOCTYPE svg PUBLIC "-//W3C//DTD SVG 1.1//EN" "http://www.w3.org/Graphics/SVG/1.1/DTD/svg11.dtd"><svg width="100%" height="100%" viewBox="0 0 50 50" version="1.1" xmlns="http://www.w3.org/2000/svg" xmlns:xlink="http://www.w3.org/1999/xlink" xml:space="preserve" xmlns:serif="http://www.serif.com/" style="fill-rule:evenodd;clip-rule:evenodd;stroke-linejoin:round;stroke-miterlimit:2;"><rect id="talent-operations" x="0" y="0" width="50" height="50" style="fill:none;"/><g id="talent-operations1" serif:id="talent-operations"><g id="Talent-Frame" serif:id="Talent Frame"><path d="M1,6L25,1L49,6L49,24L44,23L44,30L49,31L49,49L25,44L1,49L1,31L6,30L6,23L1,24L1,6Z" style="fill:#10273d;"/><path d="M0,5L25,0L50,5L50,25L45,24L45,29L50,30L50,50L25,45L0,50L0,30L5,29L5,24L0,25L0,5ZM2,6.64L25,2.04C25,2.04 48,6.64 48,6.64C48,6.64 48,22.56 48,22.56C48,22.56 43,21.56 43,21.56L43,30.64L48,31.64C48,31.64 48,47.56 48,47.56C48,47.56 25,42.96 25,42.96L2,47.56C2,47.56 2,31.64 2,31.64C2,31.64 7,30.64 7,30.64L7,21.56L2,22.56L2,6.64Z" style="fill:#0077af;"/></g><g id="Operations"><path id="Operations1" serif:id="Operations" d="M37.865,40.236C37.865,40.236 25.047,36.595 18.907,30.184C12.768,23.775 15.417,16.615 18.124,13.994C21.975,10.262 28.957,8.035 34.013,14.655C38.566,20.617 34.553,28.688 28.716,27.296C24.683,26.332 23.512,22.81 23.512,22.81L22.398,23.263L26.73,30.936L36.663,29.251L37.596,13.181L26.49,6.5L12.135,14.895L14.091,34.097L37.865,41.5L37.865,40.236Z" style="fill:#f5d63d;fill-rule:nonzero;"/></g></g></svg>