<svg xmlns="http://www.w3.org/2000/svg" xml:space="preserve" style="fill-rule:evenodd;clip-rule:evenodd;stroke-linejoin:round;stroke-miterlimit:2" viewBox="0 0 50 50"><path d="M0 0h50v50H0z" style="fill:none"/><path d="m1 6 24-5 24 5v18l-5-1v7l5 1v18l-24-5-24 5V31l5-1v-7l-5 1z" style="fill:#10273d"/><path d="m0 5 25-5 25 5v20l-5-1v5l5 1v20l-25-5-25 5V30l5-1v-5l-5 1zm2 1.64 23-4.6 23 4.6v15.92l-5-1v9.08l5 1v15.92l-23-4.6-23 4.6V31.64l5-1v-9.08l-5 1z" style="fill:#0077af"/><path d="M13.83 21.236h2.785v.789H13.83zm5.895-3.667h.975q.14 1.439.697 2.507.556 1.067 1.578 1.114v.789q-.975.046-1.555 1.114t-.72 2.553h-.975q-.138-1.485-.719-2.553-.58-1.068-1.555-1.114v-.789q1.022-.047 1.578-1.114.558-1.068.696-2.507m8.913-11.976L30.17 5.5v35H19.725V27.038h1.022v7.706q0 1.254.51 1.88.511.627 1.346.627 1.718 0 2.878-2.089 1.068-1.857 1.857-5.849.742-3.528 1.068-9.702.232-5.152.232-14.018" style="fill:#bb81e4;fill-rule:nonzero"/></svg>