<?xml version="1.0" encoding="UTF-8" standalone="no"?><!DOCTYPE svg PUBLIC "-//W3C//DTD SVG 1.1//EN" "http://www.w3.org/Graphics/SVG/1.1/DTD/svg11.dtd"><svg width="100%" height="100%" viewBox="0 0 50 50" version="1.1" xmlns="http://www.w3.org/2000/svg" xmlns:xlink="http://www.w3.org/1999/xlink" xml:space="preserve" xmlns:serif="http://www.serif.com/" style="fill-rule:evenodd;clip-rule:evenodd;stroke-linejoin:round;stroke-miterlimit:2;"><rect id="talent-andorian" x="0" y="0" width="50" height="50" style="fill:none;"/><g id="talent-andorian1" serif:id="talent-andorian"><g id="Talent-Frame" serif:id="Talent Frame"><path d="M1,6L25,1L49,6L49,24L44,23L44,30L49,31L49,49L25,44L1,49L1,31L6,30L6,23L1,24L1,6Z" style="fill:#10273d;"/><path d="M0,5L25,0L50,5L50,25L45,24L45,29L50,30L50,50L25,45L0,50L0,30L5,29L5,24L0,25L0,5ZM2,6.64L25,2.04C25,2.04 48,6.64 48,6.64C48,6.64 48,22.56 48,22.56C48,22.56 43,21.56 43,21.56L43,30.64L48,31.64C48,31.64 48,47.56 48,47.56C48,47.56 25,42.96 25,42.96L2,47.56C2,47.56 2,31.64 2,31.64C2,31.64 7,30.64 7,30.64L7,21.56L2,22.56L2,6.64Z" style="fill:#0077af;"/></g><g id="Andorian"><path id="Andorian1" serif:id="Andorian" d="M23.739,14.437C29.569,14.437 34.302,19.17 34.302,25C34.302,30.83 29.569,35.563 23.739,35.563C17.909,35.563 13.176,30.83 13.176,25C13.176,19.17 17.909,14.437 23.739,14.437ZM33.758,26.67L33.765,26.66C33.036,29.336 30.586,31.306 27.68,31.306C24.2,31.306 21.374,28.481 21.374,25C21.374,21.519 24.2,18.694 27.68,18.694C30.586,18.694 33.036,20.664 33.765,23.34C33.25,22.627 32.411,22.162 31.464,22.162C29.898,22.162 28.626,23.434 28.626,25C28.626,26.566 29.898,27.838 31.464,27.838C32.406,27.838 33.242,27.378 33.758,26.67ZM36.883,25.576C37.149,26.867 38.293,27.838 39.662,27.838C41.222,27.838 42.49,26.576 42.5,25.018C42.49,27.272 40.657,29.099 38.401,29.099C36.139,29.099 34.302,27.262 34.302,25C34.302,22.738 36.139,20.901 38.401,20.901C40.657,20.901 42.49,22.728 42.5,24.982C42.49,23.424 41.222,22.162 39.662,22.162C38.293,22.162 37.149,23.133 36.883,24.424C36.961,24.389 37.048,24.369 37.14,24.369C37.328,24.369 37.497,24.452 37.613,24.583C37.728,24.452 37.897,24.369 38.086,24.369C38.274,24.369 38.443,24.452 38.559,24.583C38.674,24.452 38.843,24.369 39.032,24.369C39.086,24.369 39.139,24.376 39.189,24.389C39.405,24.001 39.818,23.739 40.293,23.739C40.767,23.739 41.181,24.001 41.396,24.389C41.447,24.376 41.5,24.369 41.554,24.369C41.902,24.369 42.185,24.652 42.185,25C42.185,25.348 41.902,25.631 41.554,25.631C41.5,25.631 41.447,25.624 41.396,25.611C41.181,25.999 40.767,26.261 40.293,26.261C39.818,26.261 39.405,25.999 39.189,25.611C39.139,25.624 39.086,25.631 39.032,25.631C38.843,25.631 38.674,25.548 38.559,25.417C38.443,25.548 38.274,25.631 38.086,25.631C37.897,25.631 37.728,25.548 37.613,25.417C37.497,25.548 37.328,25.631 37.14,25.631C37.048,25.631 36.961,25.611 36.883,25.576ZM10.338,22.162C11.904,22.162 13.176,23.434 13.176,25C13.176,26.566 11.904,27.838 10.338,27.838C8.772,27.838 7.5,26.566 7.5,25C7.5,23.434 8.772,22.162 10.338,22.162ZM20.869,24.382C20.829,24.374 20.786,24.369 20.743,24.369C20.395,24.369 20.113,24.652 20.113,25C20.113,25.348 20.395,25.631 20.743,25.631C20.786,25.631 20.829,25.626 20.869,25.618C20.671,25.911 20.335,26.104 19.955,26.104C19.528,26.104 19.158,25.861 18.974,25.506C18.77,26.739 17.698,27.68 16.408,27.68C15.16,27.68 14.117,26.8 13.865,25.628C14.029,25.613 14.176,25.534 14.279,25.417C14.395,25.548 14.564,25.631 14.752,25.631C15.1,25.631 15.383,25.348 15.383,25C15.383,24.652 15.1,24.369 14.752,24.369C14.564,24.369 14.395,24.452 14.279,24.583C14.184,24.475 14.052,24.399 13.902,24.377C14.209,23.282 15.215,22.477 16.408,22.477C17.658,22.477 18.703,23.361 18.953,24.538C19.128,24.159 19.511,23.896 19.955,23.896C20.335,23.896 20.671,24.089 20.869,24.382ZM33.783,26.635L33.781,26.639L33.783,26.635ZM33.805,26.603L33.802,26.609L33.805,26.603ZM33.835,26.559L33.827,26.571L33.835,26.559ZM33.844,26.546L33.838,26.555L33.844,26.546ZM33.864,26.515L33.855,26.528C33.861,26.519 33.867,26.51 33.872,26.501L33.864,26.515ZM33.9,26.456L33.891,26.471C33.897,26.461 33.902,26.452 33.908,26.442L33.9,26.456ZM33.934,26.397L33.933,26.398C33.928,26.408 33.923,26.417 33.917,26.426L33.934,26.397ZM34.096,26.063L34.096,26.063C34.11,26.029 34.123,25.994 34.135,25.959C34.123,25.994 34.11,26.029 34.096,26.063L34.096,26.063L34.082,26.096L34.08,26.1L34.066,26.133L34.063,26.141L34.058,26.151L34.056,26.156L34.045,26.18L34.037,26.197L34.024,26.226L34.014,26.245L34.006,26.263L33.996,26.282L33.987,26.3L33.977,26.318L33.967,26.337L33.951,26.367L33.964,26.343L33.967,26.337L33.97,26.331L33.977,26.318L33.984,26.306L33.987,26.3L33.989,26.295L33.996,26.282L34.003,26.268L34.006,26.263L34.008,26.258L34.014,26.245L34.021,26.231L34.024,26.226L34.026,26.222L34.033,26.206L34.037,26.197L34.04,26.19L34.045,26.18L34.05,26.169L34.056,26.156L34.057,26.153L34.058,26.151L34.059,26.149L34.063,26.141L34.066,26.134L34.066,26.133L34.067,26.132L34.075,26.113L34.08,26.1L34.082,26.097L34.082,26.096L34.083,26.094L34.096,26.063ZM22.635,23.739C23.331,23.739 23.896,24.304 23.896,25C23.896,25.696 23.331,26.261 22.635,26.261C21.939,26.261 21.374,25.696 21.374,25C21.374,24.304 21.939,23.739 22.635,23.739ZM25.248,24.532C25.434,24.067 25.888,23.739 26.419,23.739C27.115,23.739 27.68,24.304 27.68,25C27.68,25.696 27.115,26.261 26.419,26.261C25.888,26.261 25.434,25.933 25.248,25.468C25.153,25.455 25.068,25.413 25,25.352C24.916,25.427 24.806,25.473 24.685,25.473C24.424,25.473 24.212,25.261 24.212,25C24.212,24.739 24.424,24.527 24.685,24.527C24.806,24.527 24.916,24.573 25,24.648C25.068,24.587 25.153,24.545 25.248,24.532ZM35.405,23.896C36.015,23.896 36.509,24.391 36.509,25C36.509,25.609 36.015,26.104 35.405,26.104C34.796,26.104 34.302,25.609 34.302,25C34.302,24.391 34.796,23.896 35.405,23.896ZM11.021,24.676C11.157,24.269 11.541,23.975 11.993,23.975C12.559,23.975 13.018,24.434 13.018,25C13.018,25.566 12.559,26.025 11.993,26.025C11.541,26.025 11.157,25.731 11.021,25.324C10.921,25.462 10.758,25.552 10.574,25.552C10.27,25.552 10.023,25.305 10.023,25C10.023,24.695 10.27,24.448 10.574,24.448C10.758,24.448 10.921,24.538 11.021,24.676ZM34.158,25.894C34.154,25.905 34.151,25.916 34.147,25.926C34.143,25.937 34.139,25.948 34.136,25.959C34.143,25.937 34.151,25.916 34.158,25.894ZM34.169,25.86L34.174,25.844L34.169,25.861C34.165,25.872 34.162,25.882 34.158,25.893L34.169,25.86ZM40.293,24.133C40.771,24.133 41.16,24.521 41.16,25C41.16,25.479 40.771,25.867 40.293,25.867C39.814,25.867 39.426,25.479 39.426,25C39.426,24.521 39.814,24.133 40.293,24.133ZM34.179,25.828L34.174,25.843L34.179,25.828ZM34.189,25.793L34.189,25.795C34.186,25.805 34.183,25.816 34.18,25.826L34.189,25.793ZM32.41,24.212C32.845,24.212 33.198,24.565 33.198,25C33.198,25.435 32.845,25.788 32.41,25.788C31.975,25.788 31.622,25.435 31.622,25C31.622,24.565 31.975,24.212 32.41,24.212ZM9.077,24.212C9.512,24.212 9.865,24.565 9.865,25C9.865,25.435 9.512,25.788 9.077,25.788C8.642,25.788 8.288,25.435 8.288,25C8.288,24.565 8.642,24.212 9.077,24.212ZM34.198,25.761L34.194,25.775L34.198,25.761ZM34.203,25.743L34.199,25.759C34.202,25.748 34.205,25.737 34.208,25.726L34.203,25.743ZM34.221,25.675L34.217,25.691C34.22,25.68 34.222,25.669 34.225,25.658L34.221,25.675ZM17.432,24.583C17.548,24.452 17.717,24.369 17.905,24.369C18.253,24.369 18.536,24.652 18.536,25C18.536,25.348 18.253,25.631 17.905,25.631C17.717,25.631 17.548,25.548 17.432,25.417C17.317,25.548 17.148,25.631 16.959,25.631C16.611,25.631 16.329,25.348 16.329,25C16.329,24.652 16.611,24.369 16.959,24.369C17.148,24.369 17.317,24.452 17.432,24.583ZM34.237,25.606L34.233,25.623C34.236,25.612 34.238,25.601 34.24,25.59L34.237,25.606ZM34.244,25.574L34.241,25.587L34.244,25.574ZM34.251,25.537L34.248,25.554L34.251,25.537ZM34.26,25.486L34.258,25.5L34.26,25.486ZM34.302,24.993C34.298,24.735 34.088,24.527 33.829,24.527C33.568,24.527 33.356,24.739 33.356,25C33.356,25.261 33.568,25.473 33.829,25.473C34.088,25.473 34.298,25.265 34.302,25.007L34.302,25.017L34.302,25L34.302,24.983L34.302,24.993ZM30.045,24.527C30.306,24.527 30.518,24.739 30.518,25C30.518,25.261 30.306,25.473 30.045,25.473C29.784,25.473 29.572,25.261 29.572,25C29.572,24.739 29.784,24.527 30.045,24.527ZM29.099,24.527C29.36,24.527 29.572,24.739 29.572,25C29.572,25.261 29.36,25.473 29.099,25.473C28.838,25.473 28.626,25.261 28.626,25C28.626,24.739 28.838,24.527 29.099,24.527ZM23.423,24.527C23.684,24.527 23.896,24.739 23.896,25C23.896,25.261 23.684,25.473 23.423,25.473C23.162,25.473 22.95,25.261 22.95,25C22.95,24.739 23.162,24.527 23.423,24.527ZM34.269,25.435L34.267,25.447L34.269,25.435ZM34.276,25.381L34.275,25.394L34.276,25.381ZM34.281,25.343L34.279,25.36C34.281,25.349 34.282,25.338 34.283,25.327L34.281,25.343ZM34.29,25.256L34.289,25.271L34.29,25.256ZM34.297,25.167L34.296,25.179L34.297,25.167ZM34.301,24.949L34.302,24.961L34.301,24.949ZM34.301,24.927L34.301,24.944L34.301,24.927ZM34.3,24.894L34.3,24.905L34.3,24.894ZM34.299,24.875L34.3,24.888L34.299,24.875ZM34.297,24.838L34.298,24.851L34.297,24.838ZM34.292,24.766L34.293,24.779L34.292,24.766ZM34.291,24.749L34.292,24.761L34.291,24.749ZM34.289,24.729L34.29,24.744L34.289,24.729ZM34.287,24.711L34.289,24.728L34.287,24.711ZM34.286,24.695L34.287,24.707L34.286,24.695ZM34.281,24.657L34.283,24.673C34.282,24.662 34.281,24.651 34.279,24.64L34.281,24.657ZM34.277,24.624L34.279,24.636L34.277,24.624ZM34.275,24.606L34.276,24.619L34.275,24.606ZM34.267,24.553L34.269,24.565L34.267,24.553ZM34.251,24.464L34.254,24.479L34.251,24.464ZM34.241,24.413L34.244,24.426L34.241,24.413ZM34.237,24.394L34.24,24.41C34.238,24.399 34.236,24.388 34.233,24.377L34.237,24.394ZM34.225,24.344L34.229,24.358L34.225,24.344ZM34.221,24.325L34.225,24.342C34.222,24.331 34.22,24.32 34.217,24.309L34.221,24.325ZM34.208,24.275L34.212,24.29L34.208,24.275ZM34.203,24.256L34.199,24.241L34.208,24.274L34.203,24.256ZM34.194,24.225L34.198,24.239L34.194,24.225ZM34.184,24.189L34.185,24.191C34.188,24.202 34.191,24.212 34.194,24.223L34.184,24.189ZM34.174,24.157L34.179,24.172L34.174,24.157ZM34.163,24.123L34.164,24.125C34.167,24.135 34.171,24.146 34.174,24.156L34.163,24.123ZM34.136,24.041C34.139,24.052 34.143,24.063 34.147,24.074C34.151,24.084 34.154,24.095 34.158,24.106C34.151,24.084 34.143,24.063 34.136,24.041ZM33.962,23.653L33.951,23.633L33.957,23.644L33.962,23.653L33.969,23.665L33.971,23.67L33.976,23.679L33.993,23.713L33.995,23.717L33.997,23.719L34.002,23.731L34.008,23.742L34.01,23.746L34.012,23.749L34.016,23.758L34.025,23.777L34.03,23.788L34.033,23.794L34.037,23.802L34.04,23.809L34.046,23.821L34.05,23.83L34.052,23.836L34.055,23.842L34.06,23.853L34.065,23.865L34.068,23.871L34.071,23.877L34.075,23.888L34.08,23.899L34.082,23.904L34.085,23.91L34.089,23.921L34.094,23.933L34.099,23.944L34.099,23.946L34.1,23.947L34.101,23.951L34.105,23.961L34.113,23.98L34.117,23.991C34.123,24.007 34.129,24.024 34.135,24.041C34.129,24.024 34.123,24.007 34.117,23.991L34.105,23.961L34.1,23.947L34.099,23.944L34.089,23.921L34.082,23.904L34.075,23.888L34.068,23.871L34.06,23.853L34.052,23.836L34.046,23.821L34.037,23.802L34.03,23.788L34.016,23.758L34.01,23.746L34.002,23.731L33.995,23.717L33.971,23.67L33.962,23.653ZM33.925,23.588L33.926,23.589C33.932,23.598 33.937,23.608 33.943,23.618L33.925,23.588ZM33.9,23.544L33.908,23.558C33.902,23.548 33.897,23.539 33.891,23.529L33.9,23.544ZM33.883,23.516L33.89,23.528L33.883,23.516ZM33.874,23.501L33.881,23.513L33.874,23.501ZM33.864,23.485L33.872,23.499C33.867,23.49 33.861,23.481 33.855,23.472L33.864,23.485ZM33.81,23.404L33.814,23.41L33.81,23.404ZM33.772,23.35L33.774,23.352L33.772,23.35Z" style="fill:#57afdb;"/></g></g></svg>