<?xml version="1.0" encoding="UTF-8" standalone="no"?><!DOCTYPE svg PUBLIC "-//W3C//DTD SVG 1.1//EN" "http://www.w3.org/Graphics/SVG/1.1/DTD/svg11.dtd"><svg width="100%" height="100%" viewBox="0 0 50 50" version="1.1" xmlns="http://www.w3.org/2000/svg" xmlns:xlink="http://www.w3.org/1999/xlink" xml:space="preserve" xmlns:serif="http://www.serif.com/" style="fill-rule:evenodd;clip-rule:evenodd;stroke-linejoin:round;stroke-miterlimit:2;"><rect id="talent-borg" x="0" y="0" width="50" height="50" style="fill:none;"/><g id="talent-borg1" serif:id="talent-borg"><g id="Talent-Frame" serif:id="Talent Frame"><path d="M1,6L25,1L49,6L49,24L44,23L44,30L49,31L49,49L25,44L1,49L1,31L6,30L6,23L1,24L1,6Z" style="fill:#10273d;"/><path d="M0,5L25,0L50,5L50,25L45,24L45,29L50,30L50,50L25,45L0,50L0,30L5,29L5,24L0,25L0,5ZM2,6.64L25,2.04C25,2.04 48,6.64 48,6.64C48,6.64 48,22.56 48,22.56C48,22.56 43,21.56 43,21.56L43,30.64L48,31.64C48,31.64 48,47.56 48,47.56C48,47.56 25,42.96 25,42.96L2,47.56C2,47.56 2,31.64 2,31.64C2,31.64 7,30.64 7,30.64L7,21.56L2,22.56L2,6.64Z" style="fill:#0077af;"/></g><g id="Borg"><path id="Borg1" serif:id="Borg" d="M22.409,38.148C21.718,36.899 21.372,35.397 21.372,33.644C21.372,32.501 21.539,31.438 21.871,30.454C22.203,29.471 22.641,28.687 23.186,28.103C23.731,27.518 24.336,27.226 25,27.226C25.664,27.226 26.276,27.518 26.834,28.103C27.392,28.687 27.83,29.471 28.149,30.454C28.468,31.438 28.628,32.501 28.628,33.644C28.628,35.397 28.282,36.899 27.591,38.148C27.671,37.749 27.711,37.338 27.711,36.912C27.711,35.876 27.498,34.959 27.073,34.162C26.541,33.205 25.85,32.727 25,32.727C24.15,32.727 23.459,33.205 22.927,34.162C22.502,34.959 22.289,35.876 22.289,36.912C22.289,37.338 22.329,37.749 22.409,38.148ZM21.213,38.866C19.778,37.51 18.648,35.517 17.825,32.886C16.948,30.175 16.509,27.146 16.509,23.797C16.509,19.784 17.599,15.918 19.778,12.197C19.406,13.473 19.153,14.961 19.021,16.662C18.834,19.558 19.1,21.778 19.818,23.319C20.402,24.595 21.333,25.418 22.608,25.79C22.024,26.242 21.492,26.893 21.014,27.744C20.19,29.259 19.778,31.046 19.778,33.105C19.778,35.165 20.19,36.952 21.014,38.467L21.213,38.866ZM28.787,38.866C28.867,38.733 28.933,38.6 28.986,38.467C29.81,36.952 30.222,35.158 30.222,33.085C30.222,32.182 30.142,31.331 29.983,30.534C30.94,28.009 31.418,25.086 31.418,21.764C31.418,16.29 29.053,11.094 24.322,6.178L25,5.5C30.661,11.267 33.491,17.366 33.491,23.797C33.491,27.146 33.052,30.175 32.175,32.886C31.352,35.517 30.222,37.51 28.787,38.866ZM29.305,28.342C29.252,28.209 29.146,28.009 28.986,27.744C28.641,27.106 28.269,26.588 27.87,26.189C28.242,24.488 28.428,22.655 28.428,20.688C28.428,16.144 26.648,11.785 23.087,7.613L23.246,7.453C23.379,7.267 23.472,7.134 23.525,7.055C27.963,11.652 30.182,16.489 30.182,21.565C30.182,24.036 29.89,26.295 29.305,28.342ZM26.714,25.392C26.262,25.153 25.704,25.006 25.04,24.953C25.465,23.306 25.678,21.552 25.678,19.691C25.678,16.104 24.349,12.662 21.691,9.367L21.851,9.128C22.063,8.835 22.223,8.623 22.329,8.49C25.651,12.263 27.312,16.183 27.312,20.249C27.312,22.11 27.113,23.824 26.714,25.392ZM25,40.5C24.495,40.5 24.063,40.174 23.704,39.523C23.346,38.872 23.166,38.095 23.166,37.191C23.166,36.288 23.346,35.51 23.704,34.859C24.063,34.208 24.495,33.883 25,33.883C25.505,33.883 25.937,34.208 26.296,34.859C26.654,35.51 26.834,36.288 26.834,37.191C26.834,38.095 26.654,38.872 26.296,39.523C25.937,40.174 25.505,40.5 25,40.5Z" style="fill:#f2200d;fill-rule:nonzero;"/></g></g></svg>