<?xml version="1.0" encoding="UTF-8" standalone="no"?><!DOCTYPE svg PUBLIC "-//W3C//DTD SVG 1.1//EN" "http://www.w3.org/Graphics/SVG/1.1/DTD/svg11.dtd"><svg width="100%" height="100%" viewBox="0 0 50 50" version="1.1" xmlns="http://www.w3.org/2000/svg" xmlns:xlink="http://www.w3.org/1999/xlink" xml:space="preserve" xmlns:serif="http://www.serif.com/" style="fill-rule:evenodd;clip-rule:evenodd;stroke-linejoin:round;stroke-miterlimit:2;"><rect id="talent-insight" x="0" y="0" width="50" height="50" style="fill:none;"/><g id="talent-insight1" serif:id="talent-insight"><g id="Talent-Frame" serif:id="Talent Frame"><path d="M1,6L25,1L49,6L49,24L44,23L44,30L49,31L49,49L25,44L1,49L1,31L6,30L6,23L1,24L1,6Z" style="fill:#10273d;"/><path d="M0,5L25,0L50,5L50,25L45,24L45,29L50,30L50,50L25,45L0,50L0,30L5,29L5,24L0,25L0,5ZM2,6.64L25,2.04C25,2.04 48,6.64 48,6.64C48,6.64 48,22.56 48,22.56C48,22.56 43,21.56 43,21.56L43,30.64L48,31.64C48,31.64 48,47.56 48,47.56C48,47.56 25,42.96 25,42.96L2,47.56C2,47.56 2,31.64 2,31.64C2,31.64 7,30.64 7,30.64L7,21.56L2,22.56L2,6.64Z" style="fill:#0077af;"/></g><g id="Insight"><path id="Insight1" serif:id="Insight" d="M20.667,21.667L29.333,21.667C33.013,21.667 36,24.654 36,28.333C36,32.013 33.013,35 29.333,35L15,35L15,39L29.333,39C35.22,39 40,34.22 40,28.333C40,22.446 35.22,17.667 29.333,17.667L20.667,17.667L20.667,21.667ZM29.333,26.333L20.667,26.333C16.987,26.333 14,23.346 14,19.667C14,15.987 16.987,13 20.667,13L35,13L35,9L20.667,9C14.78,9 10,13.78 10,19.667C10,25.554 14.78,30.333 20.667,30.333L29.333,30.333L29.333,26.333Z" style="fill:#f1de7f;"/></g></g></svg>