<?xml version="1.0" encoding="UTF-8" standalone="no"?><!DOCTYPE svg PUBLIC "-//W3C//DTD SVG 1.1//EN" "http://www.w3.org/Graphics/SVG/1.1/DTD/svg11.dtd"><svg width="100%" height="100%" viewBox="0 0 50 50" version="1.1" xmlns="http://www.w3.org/2000/svg" xmlns:xlink="http://www.w3.org/1999/xlink" xml:space="preserve" xmlns:serif="http://www.serif.com/" style="fill-rule:evenodd;clip-rule:evenodd;stroke-linejoin:round;stroke-miterlimit:2;"><rect id="talent-denobulan" x="0" y="0" width="50" height="50" style="fill:none;"/><g id="talent-denobulan1" serif:id="talent-denobulan"><g id="Talent-Frame" serif:id="Talent Frame"><path d="M1,6L25,1L49,6L49,24L44,23L44,30L49,31L49,49L25,44L1,49L1,31L6,30L6,23L1,24L1,6Z" style="fill:#10273d;"/><path d="M0,5L25,0L50,5L50,25L45,24L45,29L50,30L50,50L25,45L0,50L0,30L5,29L5,24L0,25L0,5ZM2,6.64L25,2.04C25,2.04 48,6.64 48,6.64C48,6.64 48,22.56 48,22.56C48,22.56 43,21.56 43,21.56L43,30.64L48,31.64C48,31.64 48,47.56 48,47.56C48,47.56 25,42.96 25,42.96L2,47.56C2,47.56 2,31.64 2,31.64C2,31.64 7,30.64 7,30.64L7,21.56L2,22.56L2,6.64Z" style="fill:#0077af;"/></g><g id="Denobulan"><path id="Denobulan1" serif:id="Denobulan" d="M25,14.669C26.848,12.786 29.21,11.656 31.781,11.656C37.697,11.656 42.5,17.635 42.5,25C42.5,32.365 37.697,38.344 31.781,38.344C29.21,38.344 26.848,37.214 25,35.331C23.152,37.214 20.79,38.344 18.219,38.344C12.303,38.344 7.5,32.365 7.5,25C7.5,17.635 12.303,11.656 18.219,11.656C20.79,11.656 23.152,12.786 25,14.669ZM31.233,37.03C31.27,37.031 31.307,37.031 31.344,37.031C35.688,37.031 39.316,32.878 40.145,27.374C40.199,26.997 40.087,26.615 39.837,26.328C39.588,26.04 39.226,25.875 38.846,25.875L28.111,25.875C27.728,27.262 26.456,28.281 24.948,28.281C23.44,28.281 22.168,27.262 21.785,25.875C21.785,25.875 14.359,25.875 11.154,25.882C10.776,25.882 10.416,26.046 10.168,26.332C9.92,26.618 9.809,26.998 9.862,27.373C10.684,32.878 14.312,37.031 18.656,37.031C18.676,37.031 18.696,37.031 18.716,37.031C17.257,36.322 16.25,34.824 16.25,33.094C16.25,30.679 18.21,28.719 20.625,28.719C22.878,28.719 24.735,30.425 24.974,32.614C25.213,30.425 27.07,28.719 29.323,28.719C31.738,28.719 33.698,30.679 33.698,33.094C33.698,34.824 32.691,36.321 31.233,37.03ZM29.798,35.611C29.636,35.635 29.468,35.596 29.331,35.5C29.156,35.378 29.052,35.178 29.052,34.965C29.052,34.964 29.052,34.964 29.062,34.964C29.062,34.672 29.26,34.417 29.542,34.345C30.392,34.127 31.021,33.355 31.021,32.437C31.021,31.355 30.145,30.476 29.065,30.469L29.052,30.469C27.603,30.469 26.427,31.645 26.427,33.094C26.427,34.543 27.603,35.719 29.052,35.719C29.311,35.719 29.562,35.681 29.798,35.611ZM20.15,35.611C20.312,35.635 20.48,35.596 20.617,35.5C20.792,35.378 20.896,35.178 20.896,34.965C20.896,34.964 20.896,34.964 20.886,34.964C20.886,34.672 20.688,34.417 20.406,34.345C19.556,34.127 18.927,33.355 18.927,32.437C18.927,31.355 19.802,30.476 20.883,30.469L20.896,30.469C22.345,30.469 23.521,31.645 23.521,33.094C23.521,34.543 22.345,35.719 20.896,35.719C20.637,35.719 20.386,35.681 20.15,35.611ZM24.948,23.25C25.914,23.25 26.698,24.034 26.698,25C26.698,25.966 25.914,26.75 24.948,26.75C23.982,26.75 23.198,25.966 23.198,25C23.198,24.034 23.982,23.25 24.948,23.25ZM18.716,12.969C18.696,12.969 18.676,12.969 18.656,12.969C14.312,12.969 10.684,17.122 9.855,22.626C9.801,23.003 9.913,23.385 10.163,23.672C10.412,23.96 10.774,24.125 11.154,24.125L21.785,24.125C22.168,22.738 23.44,21.719 24.948,21.719C26.456,21.719 27.728,22.738 28.111,24.125C28.111,24.125 35.621,24.125 38.846,24.118C39.224,24.118 39.584,23.954 39.832,23.668C40.08,23.382 40.191,23.002 40.138,22.627C39.316,17.122 35.688,12.969 31.344,12.969C31.307,12.969 31.27,12.969 31.233,12.97C32.691,13.679 33.698,15.176 33.698,16.906C33.698,19.321 31.738,21.281 29.323,21.281C27.07,21.281 25.213,19.575 24.974,17.386C24.735,19.575 22.878,21.281 20.625,21.281C18.21,21.281 16.25,19.321 16.25,16.906C16.25,15.176 17.257,13.678 18.716,12.969ZM29.798,14.389C29.636,14.365 29.468,14.404 29.331,14.5C29.156,14.622 29.052,14.822 29.052,15.035C29.052,15.036 29.052,15.036 29.062,15.036C29.062,15.328 29.26,15.583 29.542,15.655C30.392,15.873 31.021,16.645 31.021,17.562C31.021,18.645 30.145,19.524 29.065,19.531L29.052,19.531C27.603,19.531 26.427,18.355 26.427,16.906C26.427,15.457 27.603,14.281 29.052,14.281C29.311,14.281 29.562,14.319 29.798,14.389ZM20.15,14.389C20.312,14.365 20.48,14.404 20.617,14.5C20.792,14.622 20.896,14.822 20.896,15.035C20.896,15.036 20.896,15.036 20.886,15.036C20.886,15.328 20.688,15.583 20.406,15.655C19.556,15.873 18.927,16.645 18.927,17.562C18.927,18.645 19.802,19.524 20.883,19.531L20.896,19.531C22.345,19.531 23.521,18.355 23.521,16.906C23.521,15.457 22.345,14.281 20.896,14.281C20.637,14.281 20.386,14.319 20.15,14.389Z" style="fill:#f53d4d;"/></g></g></svg>