<?xml version="1.0" encoding="UTF-8" standalone="no"?><!DOCTYPE svg PUBLIC "-//W3C//DTD SVG 1.1//EN" "http://www.w3.org/Graphics/SVG/1.1/DTD/svg11.dtd"><svg width="100%" height="100%" viewBox="0 0 50 50" version="1.1" xmlns="http://www.w3.org/2000/svg" xmlns:xlink="http://www.w3.org/1999/xlink" xml:space="preserve" xmlns:serif="http://www.serif.com/" style="fill-rule:evenodd;clip-rule:evenodd;stroke-linejoin:round;stroke-miterlimit:2;"><rect id="talent-betazoid" x="0" y="0" width="50" height="50" style="fill:none;"/><g id="talent-betazoid1" serif:id="talent-betazoid"><g id="Talent-Frame" serif:id="Talent Frame"><path d="M1,6L25,1L49,6L49,24L44,23L44,30L49,31L49,49L25,44L1,49L1,31L6,30L6,23L1,24L1,6Z" style="fill:#10273d;"/><path d="M0,5L25,0L50,5L50,25L45,24L45,29L50,30L50,50L25,45L0,50L0,30L5,29L5,24L0,25L0,5ZM2,6.64L25,2.04C25,2.04 48,6.64 48,6.64C48,6.64 48,22.56 48,22.56C48,22.56 43,21.56 43,21.56L43,30.64L48,31.64C48,31.64 48,47.56 48,47.56C48,47.56 25,42.96 25,42.96L2,47.56C2,47.56 2,31.64 2,31.64C2,31.64 7,30.64 7,30.64L7,21.56L2,22.56L2,6.64Z" style="fill:#0077af;"/></g><g id="Betazoid"><path id="Betazoid1" serif:id="Betazoid" d="M28.184,39.057C26.613,39.078 24.986,38.825 23.377,38.303C23.192,38.608 22.971,38.891 22.715,39.147C21.746,40.117 20.398,40.577 18.894,40.528C16.835,40.459 14.459,39.412 12.524,37.476C10.588,35.541 9.541,33.165 9.472,31.106C9.423,29.602 9.883,28.254 10.853,27.285C11.109,27.029 11.392,26.808 11.697,26.623C11.175,25.014 10.922,23.386 10.943,21.816C8.862,19.366 7.684,16.599 7.52,14.187C7.384,12.188 7.934,10.419 9.176,9.176C10.419,7.934 12.188,7.384 14.187,7.52C16.599,7.684 19.366,8.862 21.816,10.943C25.873,10.888 30.314,12.665 33.825,16.175C37.335,19.686 39.112,24.127 39.057,28.184C41.138,30.634 42.316,33.401 42.48,35.813C42.616,37.812 42.066,39.581 40.824,40.824C39.581,42.066 37.812,42.616 35.813,42.48C33.401,42.316 30.634,41.138 28.184,39.057ZM19.337,11.218C17.33,11.649 15.503,12.587 14.045,14.045C12.587,15.503 11.649,17.33 11.218,19.337C10.037,17.582 9.351,15.735 9.238,14.07C9.138,12.61 9.486,11.301 10.394,10.394C11.301,9.486 12.61,9.138 14.07,9.238C15.735,9.351 17.582,10.037 19.337,11.218ZM21.727,37.67C21.657,37.761 21.58,37.848 21.498,37.93C20.855,38.573 19.948,38.84 18.952,38.807C17.26,38.751 15.33,37.849 13.741,36.259C12.151,34.67 11.249,32.74 11.193,31.048C11.16,30.052 11.427,29.145 12.07,28.502C12.152,28.42 12.239,28.343 12.33,28.273C13.205,30.241 14.49,32.14 16.175,33.825C17.86,35.51 19.759,36.795 21.727,37.67ZM24.174,16.434C23.536,15.293 22.689,14.169 21.653,13.132C21.493,12.973 21.332,12.818 21.168,12.667C18.915,12.832 16.844,13.681 15.262,15.262C13.681,16.844 12.832,18.915 12.667,21.168C12.818,21.332 12.973,21.493 13.132,21.653C14.169,22.689 15.293,23.536 16.434,24.174C16.618,22.253 17.445,20.383 18.914,18.914C20.383,17.445 22.253,16.618 24.174,16.434ZM16.478,26.195C15.862,26.022 15.255,25.924 14.673,25.905C14.195,25.889 13.732,25.925 13.292,26.012C13.039,25.226 12.858,24.436 12.751,23.654C13.936,24.694 15.201,25.521 16.468,26.121C16.471,26.145 16.474,26.17 16.478,26.195ZM21.79,32.987C20.743,32.568 19.762,31.934 18.914,31.086C18.066,30.238 17.432,29.257 17.013,28.21C16.201,27.851 15.384,27.651 14.616,27.625C14.381,27.617 14.151,27.626 13.928,27.653C14.726,29.407 15.888,31.104 17.392,32.608C18.896,34.112 20.593,35.274 22.347,36.072C22.374,35.849 22.383,35.619 22.375,35.384C22.349,34.616 22.149,33.799 21.79,32.987ZM25.43,19.595L27.592,19.595L27.592,30.354L27.162,30.354L27.162,23.485L22.808,23.485L22.808,30.354L21.998,30.354L21.998,22.178L25.43,22.178L25.43,19.595ZM24.57,19.595L21.998,19.595L21.998,21.317L24.57,21.317L24.57,19.595ZM37.249,26.346C36.064,25.306 34.799,24.479 33.532,23.879C33.295,22.063 32.48,20.308 31.086,18.914C29.692,17.52 27.937,16.705 26.121,16.468C25.521,15.201 24.694,13.936 23.654,12.751C26.753,13.174 29.975,14.759 32.608,17.392C35.241,20.025 36.826,23.247 37.249,26.346ZM26.301,30.354L23.669,30.354L23.669,24.346C23.669,24.346 26.301,24.346 26.301,24.346L26.301,30.354ZM26.346,37.249C25.564,37.142 24.774,36.961 23.988,36.708C24.075,36.268 24.111,35.805 24.095,35.327C24.076,34.745 23.978,34.138 23.805,33.522C23.83,33.526 23.855,33.529 23.879,33.532C24.479,34.799 25.306,36.064 26.346,37.249ZM37.333,28.832C37.182,28.668 37.027,28.507 36.868,28.347C35.831,27.311 34.707,26.464 33.566,25.826C33.382,27.747 32.555,29.617 31.086,31.086C29.617,32.555 27.747,33.382 25.826,33.566C26.464,34.707 27.311,35.831 28.347,36.868C28.507,37.027 28.668,37.182 28.832,37.333C31.085,37.168 33.156,36.319 34.738,34.738C36.319,33.156 37.168,31.085 37.333,28.832ZM38.782,30.663C39.963,32.418 40.649,34.265 40.762,35.93C40.862,37.39 40.514,38.699 39.606,39.606C38.699,40.514 37.39,40.862 35.93,40.762C34.265,40.649 32.418,39.963 30.663,38.782C32.67,38.351 34.497,37.413 35.955,35.955C37.413,34.497 38.351,32.67 38.782,30.663Z" style="fill:#dbc557;"/></g></g></svg>