<?xml version="1.0" encoding="UTF-8" standalone="no"?><!DOCTYPE svg PUBLIC "-//W3C//DTD SVG 1.1//EN" "http://www.w3.org/Graphics/SVG/1.1/DTD/svg11.dtd"><svg width="100%" height="100%" viewBox="0 0 50 50" version="1.1" xmlns="http://www.w3.org/2000/svg" xmlns:xlink="http://www.w3.org/1999/xlink" xml:space="preserve" xmlns:serif="http://www.serif.com/" style="fill-rule:evenodd;clip-rule:evenodd;stroke-linejoin:round;stroke-miterlimit:2;"><rect id="talent-computers" x="0" y="0" width="50" height="50" style="fill:none;"/><g id="talent-computers1" serif:id="talent-computers"><g id="Talent-Frame" serif:id="Talent Frame"><path d="M1,6L25,1L49,6L49,24L44,23L44,30L49,31L49,49L25,44L1,49L1,31L6,30L6,23L1,24L1,6Z" style="fill:#10273d;"/><path d="M0,5L25,0L50,5L50,25L45,24L45,29L50,30L50,50L25,45L0,50L0,30L5,29L5,24L0,25L0,5ZM2,6.64L25,2.04C25,2.04 48,6.64 48,6.64C48,6.64 48,22.56 48,22.56C48,22.56 43,21.56 43,21.56L43,30.64L48,31.64C48,31.64 48,47.56 48,47.56C48,47.56 25,42.96 25,42.96L2,47.56C2,47.56 2,31.64 2,31.64C2,31.64 7,30.64 7,30.64L7,21.56L2,22.56L2,6.64Z" style="fill:#0077af;"/></g><g id="Computers"><path id="Computers1" serif:id="Computers" d="M12,32.732C11.402,32.386 11,31.74 11,31C11,29.896 11.896,29 13,29C14.104,29 15,29.896 15,31C15,31.74 14.598,32.386 14,32.732L14,37.268C14.598,37.614 15,38.26 15,39C15,40.104 14.104,41 13,41C11.896,41 11,40.104 11,39C11,38.26 11.402,37.614 12,37.268L12,32.732ZM15,10.732C14.402,10.386 14,9.74 14,9C14,7.896 14.896,7 16,7C17.104,7 18,7.896 18,9C18,9.74 17.598,10.386 17,10.732L17,18.586L25,26.586L25,41L17,41L17,37L19,37L19,30.414L9,20.414L9,10.732C8.402,10.386 8,9.74 8,9C8,7.896 8.896,7 10,7C11.104,7 12,7.896 12,9C12,9.74 11.598,10.386 11,10.732L11,19.586L21,29.586L21,37L23,37L23,27.414L15,19.414L15,10.732ZM25.518,22.932C25.353,22.976 25.179,23 25,23C23.896,23 23,22.104 23,21C23,19.896 23.896,19 25,19C26.104,19 27,19.896 27,21C27,21.179 26.976,21.353 26.932,21.518L29,23.586C29,23.586 29,36 29,36L38.268,36C38.614,35.402 39.26,35 40,35C41.104,35 42,35.896 42,37C42,38.104 41.104,39 40,39C39.26,39 38.614,38.598 38.268,38L27,38C27,38 27,24.414 27,24.414L25.518,22.932ZM38,8L38,7L42,7L42,17L39.414,17L33,23.414C33,23.414 33,30 33,30L38.268,30C38.614,29.402 39.26,29 40,29C41.104,29 42,29.896 42,31C42,32.104 41.104,33 40,33C39.26,33 38.614,32.598 38.268,32L31,32L31,22.586L38,15.586L38,10L35.414,10L29.414,16L24.732,16C24.386,16.598 23.74,17 23,17C21.896,17 21,16.104 21,15C21,13.896 21.896,13 23,13C23.74,13 24.386,13.402 24.732,14L28.586,14L32.586,10L24.732,10C24.386,10.598 23.74,11 23,11C21.896,11 21,10.104 21,9C21,7.896 21.896,7 23,7C23.74,7 24.386,7.402 24.732,8L38,8Z" style="fill:#f1de7f;"/></g></g></svg>