<svg xmlns="http://www.w3.org/2000/svg" xml:space="preserve" style="fill-rule:evenodd;clip-rule:evenodd;stroke-linejoin:round;stroke-miterlimit:2" viewBox="0 0 50 50"><path d="M0 0h50v50H0z" style="fill:none"/><path d="m1 6 24-5 24 5v18l-5-1v7l5 1v18l-24-5-24 5V31l5-1v-7l-5 1z" style="fill:#10273d"/><path d="m0 5 25-5 25 5v20l-5-1v5l5 1v20l-25-5-25 5V30l5-1v-5l-5 1zm2 1.64 23-4.6 23 4.6v15.92l-5-1v9.08l5 1v15.92l-23-4.6-23 4.6V31.64l5-1v-9.08l-5 1z" style="fill:#0077af"/><path d="M20.667 21.667h8.666A6.67 6.67 0 0 1 36 28.333 6.67 6.67 0 0 1 29.333 35H15v4h14.333C35.22 39 40 34.22 40 28.333s-4.78-10.666-10.667-10.666h-8.666zm8.666 4.666h-8.666A6.67 6.67 0 0 1 14 19.667 6.67 6.67 0 0 1 20.667 13H35V9H20.667C14.78 9 10 13.78 10 19.667s4.78 10.666 10.667 10.666h8.666z" style="fill:#f1de7f"/></svg>