<svg xmlns="http://www.w3.org/2000/svg" xml:space="preserve" style="fill-rule:evenodd;clip-rule:evenodd;stroke-linejoin:round;stroke-miterlimit:2" viewBox="0 0 50 50"><path d="M0 0h50v50H0z" style="fill:none"/><path d="m1 6 24-5 24 5v18l-5-1v7l5 1v18l-24-5-24 5V31l5-1v-7l-5 1z" style="fill:#10273d"/><path d="m0 5 25-5 25 5v20l-5-1v5l5 1v20l-25-5-25 5V30l5-1v-5l-5 1zm2 1.64 23-4.6 23 4.6v15.92l-5-1v9.08l5 1v15.92l-23-4.6-23 4.6V31.64l5-1v-9.08l-5 1z" style="fill:#0077af"/><path d="M40.267 36.863 28.978 6.761l-1 .517A6.46 6.46 0 0 1 25 8a6.46 6.46 0 0 1-2.978-.722l-1-.517L9.733 36.863l.906.365A38.4 38.4 0 0 0 25 40a38.4 38.4 0 0 0 14.361-2.772zm-25.161-8.63A28.4 28.4 0 0 0 24 29.983v8.004a36.4 36.4 0 0 1-11.704-2.262zm19.788 0 2.81 7.492A36.4 36.4 0 0 1 26 37.987v-8.004a28.4 28.4 0 0 0 8.894-1.75m-3.512-9.365 2.81 7.492A26.4 26.4 0 0 1 26 27.981v-8.008c1.883-.1 3.691-.483 5.382-1.105m-12.764 0A18.4 18.4 0 0 0 24 19.973v8.008a26.3 26.3 0 0 1-8.192-1.621zm.702-1.873 2.81-7.493a8.5 8.5 0 0 0 1.87.44v8.028a16.4 16.4 0 0 1-4.68-.975m11.36 0a16.4 16.4 0 0 1-4.68.975V9.942a8.5 8.5 0 0 0 1.87-.44z" style="fill:#f1de7f"/></svg>