<?xml version="1.0" encoding="UTF-8" standalone="no"?><!DOCTYPE svg PUBLIC "-//W3C//DTD SVG 1.1//EN" "http://www.w3.org/Graphics/SVG/1.1/DTD/svg11.dtd"><svg width="100%" height="100%" viewBox="0 0 50 50" version="1.1" xmlns="http://www.w3.org/2000/svg" xmlns:xlink="http://www.w3.org/1999/xlink" xml:space="preserve" xmlns:serif="http://www.serif.com/" style="fill-rule:evenodd;clip-rule:evenodd;stroke-linejoin:round;stroke-miterlimit:2;"><rect id="talent-structure" x="0" y="0" width="50" height="50" style="fill:none;"/><g id="talent-structure1" serif:id="talent-structure"><g id="Talent-Frame" serif:id="Talent Frame"><path d="M1,6L25,1L49,6L49,24L44,23L44,30L49,31L49,49L25,44L1,49L1,31L6,30L6,23L1,24L1,6Z" style="fill:#10273d;"/><path d="M0,5L25,0L50,5L50,25L45,24L45,29L50,30L50,50L25,45L0,50L0,30L5,29L5,24L0,25L0,5ZM2,6.64L25,2.04C25,2.04 48,6.64 48,6.64C48,6.64 48,22.56 48,22.56C48,22.56 43,21.56 43,21.56L43,30.64L48,31.64C48,31.64 48,47.56 48,47.56C48,47.56 25,42.96 25,42.96L2,47.56C2,47.56 2,31.64 2,31.64C2,31.64 7,30.64 7,30.64L7,21.56L2,22.56L2,6.64Z" style="fill:#0077af;"/></g><g id="Structure"><path id="Structure1" serif:id="Structure" d="M40.267,36.863L28.978,6.761L27.978,7.278C27.086,7.74 26.073,8 25,8C23.927,8 22.914,7.74 22.022,7.278L21.022,6.761L9.733,36.863L10.639,37.228C15.079,39.016 19.926,40 25,40C30.074,40 34.921,39.016 39.361,37.228L40.267,36.863ZM15.106,28.233C17.891,29.265 20.882,29.875 24,29.983L24,37.987C19.895,37.876 15.958,37.086 12.296,35.725L15.106,28.233ZM34.894,28.233L37.704,35.725C34.042,37.086 30.105,37.876 26,37.987L26,29.983C29.118,29.875 32.109,29.266 34.894,28.233ZM31.382,18.868L34.192,26.36C31.625,27.31 28.871,27.875 26,27.981L26,19.973C27.883,19.873 29.691,19.49 31.382,18.868ZM18.618,18.868C20.309,19.49 22.117,19.873 24,19.973L24,27.981C21.129,27.875 18.375,27.311 15.808,26.36L18.618,18.868ZM19.32,16.995L22.13,9.502C22.725,9.716 23.352,9.865 24,9.942L24,17.97C22.365,17.872 20.793,17.536 19.32,16.995ZM30.68,16.995C29.207,17.536 27.635,17.872 26,17.97L26,9.942C26.648,9.865 27.275,9.716 27.87,9.502L27.87,9.502L30.68,16.995Z" style="fill:#f1de7f;"/></g></g></svg>