<?xml version="1.0" encoding="UTF-8" standalone="no"?><!DOCTYPE svg PUBLIC "-//W3C//DTD SVG 1.1//EN" "http://www.w3.org/Graphics/SVG/1.1/DTD/svg11.dtd"><svg width="100%" height="100%" viewBox="0 0 50 50" version="1.1" xmlns="http://www.w3.org/2000/svg" xmlns:xlink="http://www.w3.org/1999/xlink" xml:space="preserve" xmlns:serif="http://www.serif.com/" style="fill-rule:evenodd;clip-rule:evenodd;stroke-linejoin:round;stroke-miterlimit:2;"><rect id="talent-bajoran" x="0" y="0" width="50" height="50" style="fill:none;"/><g id="talent-bajoran1" serif:id="talent-bajoran"><g id="Talent-Frame" serif:id="Talent Frame"><path d="M1,6L25,1L49,6L49,24L44,23L44,30L49,31L49,49L25,44L1,49L1,31L6,30L6,23L1,24L1,6Z" style="fill:#10273d;"/><path d="M0,5L25,0L50,5L50,25L45,24L45,29L50,30L50,50L25,45L0,50L0,30L5,29L5,24L0,25L0,5ZM2,6.64L25,2.04C25,2.04 48,6.64 48,6.64C48,6.64 48,22.56 48,22.56C48,22.56 43,21.56 43,21.56L43,30.64L48,31.64C48,31.64 48,47.56 48,47.56C48,47.56 25,42.96 25,42.96L2,47.56C2,47.56 2,31.64 2,31.64C2,31.64 7,30.64 7,30.64L7,21.56L2,22.56L2,6.64Z" style="fill:#0077af;"/></g><g id="Bajoran"><path id="Bajoran1" serif:id="Bajoran" d="M25.37,32.491C25.216,32.614 25.147,32.761 25.162,32.931C25.177,33.1 25.278,33.417 25.463,33.88L25.602,34.157C25.849,34.713 25.965,35.099 25.949,35.315C25.934,35.531 25.772,35.654 25.463,35.685C25.772,35.5 25.918,35.284 25.903,35.037C25.887,34.79 25.694,34.481 25.324,34.111C25.262,34.08 25.17,34.003 25.046,33.88C24.583,33.448 24.321,33.17 24.259,33.046C24.198,32.923 24.19,32.815 24.236,32.722C24.282,32.63 24.383,32.552 24.537,32.491C24.66,32.46 24.815,32.444 25,32.444C25.185,32.444 25.309,32.46 25.37,32.491ZM25.833,32.583C26.142,32.645 26.404,32.738 26.62,32.861C26.404,32.923 26.273,33.039 26.227,33.208C26.181,33.378 26.157,33.772 26.157,34.389L26.157,34.481C26.188,35.13 26.157,35.546 26.065,35.731C25.972,35.917 25.772,35.963 25.463,35.87C25.833,35.84 26.042,35.677 26.088,35.384C26.134,35.091 26.034,34.667 25.787,34.111L25.694,33.88C25.478,33.417 25.363,33.116 25.347,32.977C25.332,32.838 25.363,32.738 25.44,32.676C25.517,32.614 25.648,32.583 25.833,32.583ZM24.074,32.583C23.981,32.738 23.981,32.907 24.074,33.093C24.228,33.34 24.506,33.633 24.907,33.972C24.907,33.972 25.154,34.219 25.185,34.25C25.525,34.559 25.71,34.836 25.741,35.083C25.741,35.238 25.633,35.377 25.417,35.5C25.664,35.16 25.694,34.883 25.509,34.667C25.324,34.451 24.923,34.235 24.306,34.019C24.306,33.988 24.275,33.972 24.213,33.972L24.12,33.926C23.688,33.772 23.387,33.625 23.218,33.486C23.048,33.347 23.086,33.154 23.333,32.907C23.457,32.846 23.657,32.753 23.935,32.63L24.074,32.583ZM22.963,33.185C22.932,33.309 22.994,33.455 23.148,33.625C23.302,33.795 23.611,33.957 24.074,34.111L24.259,34.157C24.846,34.404 25.216,34.605 25.37,34.759C25.463,34.944 25.432,35.145 25.278,35.361C25.401,34.991 25.324,34.728 25.046,34.574C24.769,34.42 24.321,34.358 23.704,34.389L23.611,34.389C23.056,34.42 22.708,34.404 22.569,34.343C22.431,34.281 22.346,34.211 22.315,34.134C22.284,34.057 22.299,33.941 22.361,33.787L22.361,33.741L22.5,33.602C22.685,33.386 22.84,33.247 22.963,33.185ZM22.13,34.157C22.13,34.343 22.238,34.466 22.454,34.528C22.67,34.59 23.056,34.605 23.611,34.574L24.491,34.574C24.707,34.605 24.861,34.651 24.954,34.713C25.139,34.806 25.201,34.991 25.139,35.269C25.077,34.867 24.9,34.644 24.606,34.597C24.313,34.551 23.889,34.682 23.333,34.991C23.302,34.991 23.272,35.006 23.241,35.037C22.716,35.284 22.361,35.407 22.176,35.407C21.929,35.469 21.806,35.315 21.806,34.944C21.929,34.574 22.037,34.312 22.13,34.157ZM21.713,35.407C21.836,35.562 21.998,35.631 22.199,35.616C22.4,35.6 22.778,35.454 23.333,35.176L23.426,35.13C23.951,34.883 24.336,34.775 24.583,34.806C24.769,34.806 24.892,34.96 24.954,35.269C24.769,34.991 24.552,34.852 24.306,34.852C24.059,34.852 23.75,35.052 23.38,35.454L23.102,35.731C22.793,36.071 22.515,36.333 22.269,36.519C22.145,36.58 22.045,36.588 21.968,36.542C21.89,36.495 21.806,36.38 21.713,36.194L21.713,35.407ZM21.806,36.657C21.991,36.781 22.176,36.781 22.361,36.657C22.485,36.596 22.685,36.441 22.963,36.194L23.241,35.87C23.333,35.716 23.426,35.623 23.519,35.593C23.858,35.222 24.12,35.037 24.306,35.037C24.491,35.037 24.645,35.145 24.769,35.361C24.46,35.114 24.167,35.083 23.889,35.269C23.796,35.361 23.688,35.5 23.565,35.685L23.241,36.426L23.194,36.611C23.009,37.105 22.855,37.414 22.731,37.537C22.639,37.599 22.546,37.622 22.454,37.606C22.361,37.591 22.253,37.522 22.13,37.398C22.006,37.213 21.898,36.966 21.806,36.657ZM22.407,37.815C22.531,37.846 22.685,37.799 22.87,37.676C23.025,37.491 23.179,37.167 23.333,36.704L23.426,36.519C23.549,36.179 23.65,35.924 23.727,35.755C23.804,35.585 23.904,35.469 24.028,35.407C24.182,35.253 24.383,35.269 24.63,35.454C24.228,35.361 23.958,35.438 23.819,35.685C23.681,35.932 23.627,36.38 23.657,37.028L23.657,37.12C23.657,37.707 23.642,38.077 23.611,38.231C23.519,38.448 23.318,38.494 23.009,38.37C22.886,38.309 22.731,38.17 22.546,37.954L22.407,37.815ZM23.38,38.648C23.565,38.586 23.688,38.471 23.75,38.301C23.812,38.131 23.843,37.738 23.843,37.12L23.843,37.028C23.812,36.441 23.858,36.04 23.981,35.824C24.105,35.608 24.29,35.546 24.537,35.639C24.167,35.67 23.958,35.832 23.912,36.125C23.866,36.418 23.966,36.843 24.213,37.398L24.306,37.63C24.522,38.093 24.63,38.401 24.63,38.556C24.691,38.833 24.537,38.957 24.167,38.926C23.951,38.895 23.688,38.802 23.38,38.648ZM24.63,39.019C24.784,38.895 24.853,38.748 24.838,38.579C24.823,38.409 24.722,38.093 24.537,37.63L24.398,37.352C24.151,36.796 24.035,36.41 24.051,36.194C24.066,35.978 24.228,35.855 24.537,35.824C24.228,36.009 24.082,36.225 24.097,36.472C24.113,36.719 24.306,37.028 24.676,37.398C24.738,37.429 24.846,37.522 25,37.676C25.432,38.046 25.679,38.301 25.741,38.44C25.802,38.579 25.81,38.694 25.764,38.787C25.718,38.88 25.617,38.957 25.463,39.019C25.37,39.049 25.224,39.065 25.023,39.065C24.823,39.065 24.691,39.049 24.63,39.019ZM25.926,38.926C26.019,38.772 26.019,38.602 25.926,38.417C25.772,38.17 25.494,37.877 25.093,37.537C25.062,37.475 25,37.414 24.907,37.352L24.815,37.259C24.506,36.92 24.321,36.642 24.259,36.426C24.259,36.272 24.367,36.133 24.583,36.009C24.336,36.349 24.306,36.627 24.491,36.843C24.583,36.966 24.715,37.074 24.884,37.167C25.054,37.259 25.324,37.367 25.694,37.491C25.694,37.522 25.725,37.537 25.787,37.537L25.88,37.583C26.312,37.738 26.613,37.884 26.782,38.023C26.952,38.162 26.914,38.355 26.667,38.602C26.543,38.664 26.343,38.756 26.065,38.88L25.926,38.926ZM27.037,38.324C27.099,38.17 27.06,38.031 26.921,37.907C26.782,37.784 26.466,37.614 25.972,37.398L25.741,37.352C25.154,37.105 24.784,36.904 24.63,36.75C24.537,36.565 24.568,36.364 24.722,36.148C24.599,36.519 24.676,36.781 24.954,36.935C25.231,37.09 25.679,37.151 26.296,37.12L26.389,37.12C26.944,37.09 27.299,37.105 27.454,37.167C27.608,37.228 27.693,37.298 27.708,37.375C27.724,37.452 27.701,37.568 27.639,37.722L27.639,37.769L27.5,37.907C27.315,38.123 27.16,38.262 27.037,38.324ZM27.87,37.352C27.87,37.198 27.77,37.082 27.569,37.005C27.369,36.927 26.975,36.904 26.389,36.935L26.296,36.935C25.679,36.966 25.27,36.927 25.069,36.819C24.869,36.711 24.815,36.503 24.907,36.194C24.969,36.627 25.131,36.858 25.394,36.889C25.656,36.92 26.08,36.796 26.667,36.519C26.698,36.519 26.728,36.503 26.759,36.472C27.16,36.287 27.515,36.164 27.824,36.102C27.948,36.102 28.04,36.14 28.102,36.218C28.164,36.295 28.194,36.426 28.194,36.611C28.102,36.92 27.994,37.167 27.87,37.352ZM28.287,36.148C28.225,35.994 28.079,35.924 27.847,35.94C27.616,35.955 27.222,36.086 26.667,36.333L26.574,36.38C26.049,36.627 25.671,36.727 25.44,36.681C25.208,36.634 25.093,36.488 25.093,36.241C25.247,36.58 25.448,36.735 25.694,36.704C25.941,36.673 26.25,36.457 26.62,36.056L26.713,35.963C26.806,35.901 26.867,35.84 26.898,35.778C27.207,35.438 27.485,35.176 27.731,34.991C27.978,34.898 28.164,35.006 28.287,35.315L28.287,36.148ZM28.194,34.852C28.009,34.698 27.824,34.698 27.639,34.852C27.515,34.914 27.315,35.068 27.037,35.315L26.759,35.639C26.667,35.762 26.574,35.855 26.481,35.917C26.173,36.287 25.918,36.472 25.718,36.472C25.517,36.472 25.355,36.364 25.231,36.148C25.54,36.395 25.833,36.426 26.111,36.241C26.296,36.086 26.512,35.701 26.759,35.083L26.898,34.667C27.083,34.296 27.215,34.073 27.292,33.995C27.369,33.918 27.454,33.887 27.546,33.903C27.639,33.918 27.747,33.988 27.87,34.111C27.994,34.296 28.102,34.543 28.194,34.852ZM27.593,33.694C27.469,33.633 27.33,33.679 27.176,33.833C27.022,33.988 26.852,34.312 26.667,34.806L26.574,34.991C26.451,35.33 26.35,35.585 26.273,35.755C26.196,35.924 26.096,36.04 25.972,36.102C25.818,36.256 25.617,36.241 25.37,36.056C25.802,36.148 26.08,36.056 26.204,35.778C26.296,35.654 26.35,35.5 26.366,35.315C26.381,35.13 26.373,34.852 26.343,34.481L26.343,34.389C26.343,33.802 26.358,33.432 26.389,33.278C26.481,33.062 26.682,33.015 26.991,33.139C27.114,33.201 27.269,33.34 27.454,33.556L27.593,33.694ZM29.722,35.685C30.37,34.512 30.864,33.154 31.204,31.611C31.543,30.068 31.713,28.432 31.713,26.704C31.713,24.79 31.497,22.992 31.065,21.31C30.633,19.628 30.039,18.193 29.282,17.005C28.526,15.816 27.67,14.991 26.713,14.528L26.713,6.981C28.102,7.475 29.36,8.517 30.486,10.106C31.613,11.696 32.5,13.648 33.148,15.963C33.796,18.37 34.12,20.917 34.12,23.602C34.12,26.657 33.704,29.497 32.87,32.12C32.068,34.682 30.972,36.719 29.583,38.231C28.194,39.744 26.667,40.5 25,40.5C23.333,40.5 21.806,39.744 20.417,38.231C19.028,36.719 17.932,34.682 17.13,32.12C16.296,29.497 15.88,26.657 15.88,23.602C15.88,20.917 16.204,18.37 16.852,15.963C17.5,13.648 18.387,11.696 19.514,10.106C20.64,8.517 21.898,7.475 23.287,6.981L23.287,14.528C22.33,14.991 21.474,15.816 20.718,17.005C19.961,18.193 19.367,19.628 18.935,21.31C18.503,22.992 18.287,24.79 18.287,26.704C18.287,28.432 18.457,30.068 18.796,31.611C19.136,33.154 19.63,34.512 20.278,35.685C20.278,35.284 20.324,34.898 20.417,34.528C19.429,32.306 18.935,29.698 18.935,26.704C18.935,24.049 19.336,21.665 20.139,19.551C20.941,17.437 21.991,16.025 23.287,15.315L23.287,15.546C22.052,16.287 21.049,17.684 20.278,19.736C19.506,21.789 19.12,24.111 19.12,26.704C19.12,29.605 19.583,32.12 20.509,34.25C20.633,33.91 20.833,33.509 21.111,33.046C20.34,31.256 19.954,29.142 19.954,26.704C19.954,24.605 20.262,22.707 20.88,21.009C21.497,19.312 22.299,18.108 23.287,17.398L23.287,18.37C22.454,19.049 21.775,20.145 21.25,21.657C20.725,23.17 20.463,24.852 20.463,26.704C20.463,28.864 20.818,30.809 21.528,32.537C22.269,31.765 23.133,31.287 24.12,31.102L24.12,6.472L24.491,6.472L24.491,31.056C24.552,31.056 24.599,31.04 24.63,31.009L24.63,5.5L25.37,5.5L25.37,31.009C25.401,31.04 25.448,31.056 25.509,31.056L25.509,6.472L25.88,6.472L25.88,31.102C26.867,31.287 27.731,31.765 28.472,32.537C29.182,30.809 29.537,28.864 29.537,26.704C29.537,24.852 29.275,23.17 28.75,21.657C28.225,20.145 27.546,19.049 26.713,18.37L26.713,17.398C27.701,18.108 28.503,19.312 29.12,21.009C29.738,22.707 30.046,24.605 30.046,26.704C30.046,29.142 29.66,31.256 28.889,33.046C29.136,33.355 29.336,33.756 29.491,34.25C30.417,32.12 30.88,29.605 30.88,26.704C30.88,24.111 30.494,21.789 29.722,19.736C28.951,17.684 27.948,16.287 26.713,15.546L26.713,15.315C28.009,16.025 29.059,17.437 29.861,19.551C30.664,21.665 31.065,24.049 31.065,26.704C31.065,29.698 30.571,32.306 29.583,34.528C29.676,34.898 29.722,35.284 29.722,35.685ZM26.065,6.843L26.389,6.843L26.389,18.324L26.065,18.602L26.065,6.843ZM23.935,6.843L23.935,18.602L23.611,18.324L23.611,6.843L23.935,6.843ZM25,39.991C26.173,39.991 27.168,39.574 27.986,38.741C28.804,37.907 29.213,36.912 29.213,35.755C29.213,34.597 28.804,33.602 27.986,32.769C27.168,31.935 26.173,31.519 25,31.519C23.827,31.519 22.832,31.935 22.014,32.769C21.196,33.602 20.787,34.597 20.787,35.755C20.787,36.912 21.204,37.907 22.037,38.741C22.87,39.574 23.858,39.991 25,39.991ZM25,39.528C23.951,39.528 23.063,39.165 22.338,38.44C21.613,37.715 21.25,36.827 21.25,35.778C21.25,34.728 21.613,33.833 22.338,33.093C23.063,32.352 23.951,31.981 25,31.981C26.049,31.981 26.944,32.352 27.685,33.093C28.426,33.833 28.796,34.728 28.796,35.778C28.796,36.827 28.426,37.715 27.685,38.44C26.944,39.165 26.049,39.528 25,39.528ZM25,39.296C25.988,39.296 26.829,38.949 27.523,38.255C28.218,37.56 28.565,36.727 28.565,35.755C28.565,34.782 28.218,33.949 27.523,33.255C26.829,32.56 25.988,32.213 25,32.213C24.012,32.213 23.171,32.56 22.477,33.255C21.782,33.949 21.435,34.782 21.435,35.755C21.435,36.727 21.782,37.56 22.477,38.255C23.171,38.949 24.012,39.296 25,39.296Z" style="fill:#db8e57;fill-rule:nonzero;"/></g></g></svg>