<svg xmlns="http://www.w3.org/2000/svg" xml:space="preserve" style="fill-rule:evenodd;clip-rule:evenodd;stroke-linejoin:round;stroke-miterlimit:2" viewBox="0 0 50 50"><path d="M0 0h50v50H0z" style="fill:none"/><path d="m1 6 24-5 24 5v18l-5-1v7l5 1v18l-24-5-24 5V31l5-1v-7l-5 1z" style="fill:#10273d"/><path d="m0 5 25-5 25 5v20l-5-1v5l5 1v20l-25-5-25 5V30l5-1v-5l-5 1zm2 1.64 23-4.6 23 4.6v15.92l-5-1v9.08l5 1v15.92l-23-4.6-23 4.6V31.64l5-1v-9.08l-5 1z" style="fill:#0077af"/><path d="M25 24c-3.311 0-6-2.689-6-6s2.689-6 6-6 6 2.689 6 6-2.689 6-6 6c4.971 0 9 7.163 9 16H16c0-8.837 4.029-16 9-16m6.428-1.134 3.464 2 1-1.732-3.464-2zm-13.856-1.732-3.464 2 1 1.732 3.464-2zM33 19h4v-2h-4zm-16-2h-4v2h4zm1.572-3.866-3.464-2-1 1.732 3.464 2zm13.856 1.732 3.464-2-1-1.732-3.464 2zm-10.562-4.294-2-3.464-1.732 1 2 3.464zm8 1 2-3.464-1.732-1-2 3.464zM26 10V6h-2v4z" style="fill:#f1de7f"/></svg>