<svg xmlns="http://www.w3.org/2000/svg" xml:space="preserve" style="fill-rule:evenodd;clip-rule:evenodd;stroke-linejoin:round;stroke-miterlimit:2" viewBox="0 0 50 50"><path d="M0 0h50v50H0z" style="fill:none"/><path d="m1 6 24-5 24 5v18l-5-1v7l5 1v18l-24-5-24 5V31l5-1v-7l-5 1z" style="fill:#10273d"/><path d="m0 5 25-5 25 5v20l-5-1v5l5 1v20l-25-5-25 5V30l5-1v-5l-5 1zm2 1.64 23-4.6 23 4.6v15.92l-5-1v9.08l5 1v15.92l-23-4.6-23 4.6V31.64l5-1v-9.08l-5 1z" style="fill:#0077af"/><path d="m29.39 38.752.397.397-1.589 1.589-.794-.794.397-.397.397.397zm-8.78-.596-.397.397.397.398-.397.397.397.397.397-.397.398.397-.398.397.398.398.794-.795-.794-.794.397-.398.794.795.398-.397-1.192-1.192-.795.794zm5.999.993.397.398.398-.398.397.398.397-.398-.397-.397.397-.397-.397-.398zm15.375-16.805L24.901 5.262 7.818 22.344l17.083 17.083zM28.595 37.957l.398.398-.398.397-.397-.397zm1.391-2.185-.795.795 1.589 1.589.398-.397-1.192-1.192.397-.397zm-11.124-.953-1.589 1.589 1.589 1.589.397-.397-1.191-1.192.397-.397.397.397.397-.397-.397-.397.397-.398zm12.713.953.794.795-.794.795-.397-.398.397-.397-.397-.397-.398.397-.397-.397.397-.398.398.398zm-11.918-.158.794.794-.397.397-.795-.794zm19.148-13.27L24.901 8.44 10.996 22.344l13.905 13.905zM30.78 34.978l.398.397-.398.397-.397-.397zm-14.063.079-.397.398-.398-.398.398-.397zm16.844-2.86-1.589 1.589 1.589 1.589 1.589-1.589-.794-.795-.397.398.397.397-.795.795-.794-.795 1.192-1.192zm-8.66.715-3.179-3.178.437-.437-1.191-1.192-1.311 1.311 5.244 5.244 3.933-3.933-.874-.874zm-8.581-.636-.398.398.795.794-.397.397-.795-.794-.795.794.398.398.397-.398.795.795.397-.397.397.397.397-.397-.397-.398.397-.397zm-3.338-1.748-.794.795 1.589 1.589 1.589-1.589-.794-.795-.398.398.398.397-.795.794-.397-.397.397-.397zm22.963.08.795.794-.795.795-.397-.397.397-.398-.397-.397-.398.397-.397-.397 1.192-1.192.397.398.398-.398 1.191 1.192-.794.795-.397-.398.397-.397-.795-.794zM24.94 13.724l-2.105 2.105 2.185 2.185v3.019l-2.94 2.94-3.734-3.734-2.106 2.105 8.661 8.661 2.105-2.105-1.192-1.192 4.49-4.489 1.191 1.191 2.066-2.066-2.463-2.463-1.351 1.351-1.946-1.947 1.351-1.35zm-11.163 16.01-.397.397.397.397.397-.397zm-3.337-.954.397.398-.397.397-.795-.795 1.192-1.191.397.397.398-.397 1.191 1.191-1.589 1.589-.397-.397 1.192-1.192-.795-.794zm28.485-1.946-.795.794.795.795-.398.397-.794-.794-.398.397 1.59 1.589.397-.397-.397-.398.794-.794.397.397.398-.397-.795-.795-.397.398-.397-.398.397-.397zm-7.588-1.152-1.073-1.073-3.258 3.258 1.073 1.072zM8.692 24.649 7.5 25.841l.397.397.398-.397.397.397-.795.794.795.795.397-.397-.397-.398.397-.397.397.397.398-.397-.398-.397.398-.397zm32.616-.199-1.192 1.192.398.397.794-.794.397.397-.397.397.397.397-.794.795.397.397 1.192-1.192-.397-.397.397-.397zm-.397 1.986-.397-.397-.398.397.398.398zm-26.578-4.092 3.059-3.059-.874-.874-3.933 3.933 3.933 3.934.874-.874zm22.883 0-5.284-5.283-1.271 1.271 1.152 1.152.398-.397 3.257 3.257-3.019 3.02.874.874zM21.405 15.67l2.622 2.622v2.543l-1.907 1.907-3.894-3.894zm3.496-5.641-3.933 3.933.874.874 3.059-3.059 3.059 3.059.874-.874z" style="fill:#81a2e4"/></svg>