<svg xmlns="http://www.w3.org/2000/svg" xml:space="preserve" style="fill-rule:evenodd;clip-rule:evenodd;stroke-linejoin:round;stroke-miterlimit:2" viewBox="0 0 50 50"><path d="M0 0h50v50H0z" style="fill:none"/><path d="m1 6 24-5 24 5v18l-5-1v7l5 1v18l-24-5-24 5V31l5-1v-7l-5 1z" style="fill:#10273d"/><path d="m0 5 25-5 25 5v20l-5-1v5l5 1v20l-25-5-25 5V30l5-1v-5l-5 1zm2 1.64 23-4.6 23 4.6v15.92l-5-1v9.08l5 1v15.92l-23-4.6-23 4.6V31.64l5-1v-9.08l-5 1z" style="fill:#0077af"/><path d="m34.727 19.222-2.162-1.305c-.039-.024-.065-.081-.065-.144 0-.064.026-.121.065-.144l3.123-1.885a.9.9 0 0 0 .276-.274 1.4 1.4 0 0 0 .183-.415l1.257-4.685c.016-.059.054-.097.096-.097s.08.038.096.097l1.257 4.685a1.4 1.4 0 0 0 .183.415.9.9 0 0 0 .276.274l3.123 1.885c.039.023.065.08.065.144s-.026.12-.065.144l-3.123 1.885a.9.9 0 0 0-.276.274 1.4 1.4 0 0 0-.183.415l-1.257 4.685c-.016.058-.054.097-.096.097s-.08-.039-.096-.097l-.977-3.644C34.645 25.448 30.888 31.94 27 37.562c-.062.089-.165.238-.313.152-.034-.02-.062-.036-.076-.064-.058-.113.092-.429.856-2.02.71-1.48 1.682-3.506 2.415-5.259 1.1-2.632 1.02-3.156.969-3.254a.04.04 0 0 0-.014-.019c-.001 0-.014-.006-.053.003-4.997 1.148-16.735 8.647-21.154 11.47-1.931 1.233-1.931 1.233-2.044 1.096l-.086-.131.105-.109c2.28-2.37 20.124-15.872 27.122-20.205" style="fill:#f1de7f;fill-rule:nonzero"/></svg>