<?xml version="1.0" encoding="UTF-8" standalone="no"?><!DOCTYPE svg PUBLIC "-//W3C//DTD SVG 1.1//EN" "http://www.w3.org/Graphics/SVG/1.1/DTD/svg11.dtd"><svg width="100%" height="100%" viewBox="0 0 50 50" version="1.1" xmlns="http://www.w3.org/2000/svg" xmlns:xlink="http://www.w3.org/1999/xlink" xml:space="preserve" xmlns:serif="http://www.serif.com/" style="fill-rule:evenodd;clip-rule:evenodd;stroke-linejoin:round;stroke-miterlimit:2;"><rect id="talent-peace" x="0" y="0" width="50" height="50" style="fill:none;"/><g id="talent-peace1" serif:id="talent-peace"><g id="Talent-Frame" serif:id="Talent Frame"><path d="M1,6L25,1L49,6L49,24L44,23L44,30L49,31L49,49L25,44L1,49L1,31L6,30L6,23L1,24L1,6Z" style="fill:#10273d;"/><path d="M0,5L25,0L50,5L50,25L45,24L45,29L50,30L50,50L25,45L0,50L0,30L5,29L5,24L0,25L0,5ZM2,6.64L25,2.04C25,2.04 48,6.64 48,6.64C48,6.64 48,22.56 48,22.56C48,22.56 43,21.56 43,21.56L43,30.64L48,31.64C48,31.64 48,47.56 48,47.56C48,47.56 25,42.96 25,42.96L2,47.56C2,47.56 2,31.64 2,31.64C2,31.64 7,30.64 7,30.64L7,21.56L2,22.56L2,6.64Z" style="fill:#0077af;"/></g><g id="Diplomacy"><path id="Diplomacy1" serif:id="Diplomacy" d="M28.249,38.302C27.366,37.815 26.052,37.524 26.052,37.524C26.052,37.524 24.729,37.308 23.474,36.942C22.25,36.585 21.094,36.078 21.094,36.078C21.094,36.078 21.354,36.724 21.214,37.171C21.097,37.544 20.577,37.73 20.577,37.73C20.577,37.73 21.319,38.042 21.713,38.092C22.66,38.212 24.582,38.176 26.26,38.448C27.748,38.69 28.067,39.125 28.067,39.125C28.067,39.125 27.885,39.316 27.246,39.419C26.334,39.566 24.968,39.538 24.968,39.538L25.949,40.468C25.949,40.468 27.024,40.599 27.953,40.33C28.803,40.084 29.513,39.435 29.513,39.435C29.513,39.435 29.096,38.77 28.249,38.302ZM18.563,32.875C18.027,32.112 16.755,30.551 16.755,30.551C16.755,30.551 16.66,31.302 16.435,31.977C16.251,32.529 15.929,33.03 15.929,33.03C15.929,33.03 15.292,33.124 14.48,33.053C13.316,32.95 11.848,32.669 11.848,32.669C11.848,32.669 13.707,34.948 14.585,35.665C15.322,36.266 15.742,36.652 17.121,36.971C18.531,37.297 20.164,36.956 20.164,36.956C20.164,36.956 20.338,36.024 19.97,35.134C19.542,34.099 19.072,33.601 18.563,32.875ZM37.684,28.399C38.341,27.743 41.004,27.761 42.025,27.633C41.004,27.506 38.412,27.595 37.684,26.867C36.918,26.101 37.046,23.548 36.918,22.525C36.79,23.548 36.918,26.101 36.152,26.867C35.386,27.633 32.832,27.57 31.81,27.634C32.831,27.698 35.386,27.633 36.152,28.399C36.918,29.166 36.79,31.72 36.918,32.741C37.046,31.72 36.918,29.166 37.684,28.399ZM13.811,24.301C13.811,24.301 13.549,24.849 13.215,25.35C12.934,25.772 12.572,26.161 12.572,26.161C12.572,26.161 11.381,25.653 10.385,24.88C8.986,23.794 7.893,21.816 7.975,21.718C7.975,21.718 8.199,25.477 8.749,26.987C9.27,28.414 9.675,29.57 11.279,30.777C12.798,31.919 14.999,31.687 14.999,31.687C14.999,31.687 15.349,30.756 15.337,29.725C15.323,28.591 15.165,28.121 14.947,27.348C14.693,26.445 13.811,24.301 13.811,24.301ZM26.277,23.801C27.371,22.707 31.81,22.738 33.513,22.524C31.81,22.312 27.491,22.461 26.277,21.248C25,19.971 25.213,15.715 25,14.011C24.787,15.715 25,19.971 23.723,21.248C22.446,22.525 18.19,22.419 16.487,22.525C18.189,22.632 22.446,22.525 23.723,23.801C25,25.078 24.787,29.335 25,31.037C25.213,29.335 25,25.078 26.277,23.801ZM13.708,17.483C13.708,17.483 13.252,17.811 12.767,18C12.324,18.172 11.848,18.285 11.848,18.285C11.848,18.285 11.005,17.545 10.681,16.789C10.189,15.641 10.143,14.229 10.143,14.229C10.143,14.229 8.727,16.612 8.594,17.948C8.46,19.302 8.514,20.393 9.5,22C10.416,23.493 12,24.5 12,24.5C12,24.5 12.655,23.924 13.006,23.059C13.377,22.144 13.363,21.729 13.449,21.047C13.566,20.118 13.708,17.483 13.708,17.483ZM32.576,16.482C33.233,15.825 35.895,15.844 36.917,15.715C35.896,15.588 33.304,15.677 32.576,14.949C31.81,14.183 31.937,11.63 31.81,10.607C31.682,11.63 31.81,14.183 31.044,14.949C30.277,15.715 27.724,15.652 26.702,15.716C27.723,15.78 30.277,15.715 31.044,16.482C31.81,17.248 31.682,19.802 31.809,20.823C31.937,19.802 31.81,17.248 32.576,16.482ZM16.445,10.717C16.445,10.717 15.96,10.927 15.508,11C15.179,11.053 14.698,10.975 14.698,10.975C14.698,10.975 14.592,10.612 14.627,9.992C14.668,9.253 14.999,8.238 14.999,8.238C14.999,8.238 12.972,9.916 12.365,10.924C11.76,11.926 11.54,12.689 11.5,14.285C11.463,15.758 12.107,17 12.107,17C12.107,17 12.88,16.783 13.5,16.1C14.145,15.389 14.319,15.051 14.637,14.436C15.113,13.517 16.445,10.717 16.445,10.717ZM17.736,9.103C19.278,8.154 20.733,5.5 20.733,5.5C20.733,5.5 20.221,5.528 19.539,5.903C18.69,6.37 17.633,7.204 17.633,7.204L17.736,6.171C17.736,6.171 16.895,6.838 16.358,7.72C15.81,8.62 15.567,9.735 15.567,9.735C15.52,9.689 16.429,9.907 17.736,9.103Z" style="fill:#f1de7f;"/></g></g></svg>