<svg xmlns="http://www.w3.org/2000/svg" xml:space="preserve" style="fill-rule:evenodd;clip-rule:evenodd;stroke-linejoin:round;stroke-miterlimit:2" viewBox="0 0 50 50"><path d="M0 0h50v50H0z" style="fill:none"/><path d="m1 6 24-5 24 5v18l-5-1v7l5 1v18l-24-5-24 5V31l5-1v-7l-5 1z" style="fill:#10273d"/><path d="m0 5 25-5 25 5v20l-5-1v5l5 1v20l-25-5-25 5V30l5-1v-5l-5 1zm2 1.64 23-4.6 23 4.6v15.92l-5-1v9.08l5 1v15.92l-23-4.6-23 4.6V31.64l5-1v-9.08l-5 1z" style="fill:#0077af"/><path d="M22.846 21.056c1.28-6.72 2.201-15.556 2.201-15.556s.926 8.803 2.21 15.51c4.331.962 7.571 4.827 7.571 9.449 0 .837-.106 1.649-.306 2.424 2.85 1.245 5.74 1.297 5.74 1.297s-3.872 2.718-8.382 3.233a9.64 9.64 0 0 1-6.731 2.725 9.65 9.65 0 0 1-7.257-3.275c-3.124 1.353-5.082 3.748-5.091 3.633-.388-4.662 1.088-6.884 2.837-8.236a9.7 9.7 0 0 1-.168-1.801c0-4.552 3.142-8.369 7.376-9.403m4.582.825c.614 3.039 1.3 5.516 2.001 6.321l-4.362 7.037-4.382-7.011c.698-.802 1.379-3.266 1.989-6.293-3.693 1.075-6.4 4.489-6.4 8.524q0 .658.094 1.29c1.552-.989 3.144-1.487 3.741-2.512l4.609 7.111c-2.236-.645-4.28-.407-6.02.2a8.85 8.85 0 0 0 6.451 2.786 8.83 8.83 0 0 0 5.402-1.838c-1.674.015-3.39-.325-4.992-1.256l4.513-7.123c.897 1.578 2.264 2.664 3.708 3.413a8.8 8.8 0 0 0 .244-2.071c0-4.106-2.803-7.57-6.596-8.578" style="fill:#d23a2d;fill-rule:nonzero"/></svg>