<?xml version="1.0" encoding="UTF-8" standalone="no"?><!DOCTYPE svg PUBLIC "-//W3C//DTD SVG 1.1//EN" "http://www.w3.org/Graphics/SVG/1.1/DTD/svg11.dtd"><svg width="100%" height="100%" viewBox="0 0 50 50" version="1.1" xmlns="http://www.w3.org/2000/svg" xmlns:xlink="http://www.w3.org/1999/xlink" xml:space="preserve" xmlns:serif="http://www.serif.com/" style="fill-rule:evenodd;clip-rule:evenodd;stroke-linejoin:round;stroke-miterlimit:2;"><rect id="talent-career-veteran" x="0" y="0" width="50" height="50" style="fill:none;"/><g id="talent-career-veteran1" serif:id="talent-career-veteran"><g id="Talent-Frame" serif:id="Talent Frame"><path d="M1,6L25,1L49,6L49,24L44,23L44,30L49,31L49,49L25,44L1,49L1,31L6,30L6,23L1,24L1,6Z" style="fill:#10273d;"/><path d="M0,5L25,0L50,5L50,25L45,24L45,29L50,30L50,50L25,45L0,50L0,30L5,29L5,24L0,25L0,5ZM2,6.64L25,2.04C25,2.04 48,6.64 48,6.64C48,6.64 48,22.56 48,22.56C48,22.56 43,21.56 43,21.56L43,30.64L48,31.64C48,31.64 48,47.56 48,47.56C48,47.56 25,42.96 25,42.96L2,47.56C2,47.56 2,31.64 2,31.64C2,31.64 7,30.64 7,30.64L7,21.56L2,22.56L2,6.64Z" style="fill:#0077af;"/></g><g id="Veteran"><path id="Veteran1" serif:id="Veteran" d="M30.439,26.756C30.521,27.084 30.686,27.387 30.918,27.635C32.214,29.047 33,30.933 33,33C33,37.415 29.415,41 25,41C20.585,41 17,37.415 17,33C17,30.933 17.786,29.047 19.075,27.627C19.305,27.381 19.468,27.08 19.55,26.753C19.634,26.463 19.728,26.087 19.811,25.757C19.922,25.312 20.322,25 20.781,25C22.648,25 27.352,25 29.219,25C29.678,25 30.078,25.312 30.189,25.757C30.272,26.087 30.366,26.463 30.439,26.756ZM20.542,24L21.05,24L24.332,20.719L23.577,19.964C23.577,19.964 23.577,11 23.577,11L18.577,11L18.577,22.036L20.542,24ZM22.464,24L26.5,19.964L26.5,11L31.5,11L31.5,22.036L29.536,24L22.464,24ZM16.011,8L18,10L32,10L34.011,8L32,5L18,5L16.011,8Z" style="fill:#f1de7f;"/></g></g></svg>