<?xml version="1.0" encoding="UTF-8" standalone="no"?><!DOCTYPE svg PUBLIC "-//W3C//DTD SVG 1.1//EN" "http://www.w3.org/Graphics/SVG/1.1/DTD/svg11.dtd"><svg width="100%" height="100%" viewBox="0 0 50 50" version="1.1" xmlns="http://www.w3.org/2000/svg" xmlns:xlink="http://www.w3.org/1999/xlink" xml:space="preserve" xmlns:serif="http://www.serif.com/" style="fill-rule:evenodd;clip-rule:evenodd;stroke-linejoin:round;stroke-miterlimit:2;"><rect id="talent-aspiration" x="0" y="0" width="50" height="50" style="fill:none;"/><g id="talent-aspiration1" serif:id="talent-aspiration"><g id="Talent-Frame" serif:id="Talent Frame"><path d="M1,6L25,1L49,6L49,24L44,23L44,30L49,31L49,49L25,44L1,49L1,31L6,30L6,23L1,24L1,6Z" style="fill:#10273d;"/><path d="M0,5L25,0L50,5L50,25L45,24L45,29L50,30L50,50L25,45L0,50L0,30L5,29L5,24L0,25L0,5ZM2,6.64L25,2.04C25,2.04 48,6.64 48,6.64C48,6.64 48,22.56 48,22.56C48,22.56 43,21.56 43,21.56L43,30.64L48,31.64C48,31.64 48,47.56 48,47.56C48,47.56 25,42.96 25,42.96L2,47.56C2,47.56 2,31.64 2,31.64C2,31.64 7,30.64 7,30.64L7,21.56L2,22.56L2,6.64Z" style="fill:#0077af;"/></g><g id="Aspiration"><path id="Aspiration1" serif:id="Aspiration" d="M34.727,19.222L32.565,17.917C32.526,17.893 32.5,17.836 32.5,17.773C32.5,17.709 32.526,17.652 32.565,17.629L35.688,15.744C35.791,15.681 35.886,15.588 35.964,15.47C36.043,15.351 36.106,15.21 36.147,15.055L37.404,10.37C37.42,10.311 37.458,10.273 37.5,10.273C37.542,10.273 37.58,10.311 37.596,10.37L38.853,15.055C38.894,15.21 38.957,15.351 39.036,15.47C39.114,15.588 39.209,15.681 39.312,15.744L42.435,17.629C42.474,17.652 42.5,17.709 42.5,17.773C42.5,17.836 42.474,17.893 42.435,17.917L39.312,19.802C39.209,19.865 39.114,19.958 39.036,20.076C38.957,20.195 38.894,20.336 38.853,20.491L37.596,25.176C37.58,25.234 37.542,25.273 37.5,25.273C37.458,25.273 37.42,25.234 37.404,25.176L36.427,21.532C34.645,25.448 30.888,31.94 27,37.562C26.938,37.651 26.835,37.8 26.687,37.714C26.653,37.694 26.625,37.678 26.611,37.65C26.553,37.537 26.703,37.221 27.467,35.63C28.177,34.15 29.149,32.124 29.882,30.371C30.982,27.739 30.902,27.215 30.851,27.117C30.846,27.105 30.84,27.1 30.837,27.098C30.836,27.098 30.823,27.092 30.784,27.101C25.787,28.249 14.049,35.748 9.63,38.571C7.699,39.804 7.699,39.804 7.586,39.667L7.5,39.536L7.605,39.427C9.885,37.057 27.729,23.555 34.727,19.222Z" style="fill:#f1de7f;fill-rule:nonzero;"/></g></g></svg>