<svg xmlns="http://www.w3.org/2000/svg" xml:space="preserve" style="fill-rule:evenodd;clip-rule:evenodd;stroke-linejoin:round;stroke-miterlimit:2" viewBox="0 0 50 50"><path d="M0 0h50v50H0z" style="fill:none"/><path d="m1 6 24-5 24 5v18l-5-1v7l5 1v18l-24-5-24 5V31l5-1v-7l-5 1z" style="fill:#10273d"/><path d="m0 5 25-5 25 5v20l-5-1v5l5 1v20l-25-5-25 5V30l5-1v-5l-5 1zm2 1.64 23-4.6 23 4.6v15.92l-5-1v9.08l5 1v15.92l-23-4.6-23 4.6V31.64l5-1v-9.08l-5 1z" style="fill:#0077af"/><path d="M27 40h-4l-1-3-14-1.167 1-10 2 1v4S20.333 31.972 25 32s14-1 14-1v-4l2-1 1 10-14 1zm-9-20 5-2v10l-5-2zm14 0-5-2v10l5-2zM27 6h-4l-1 3-14 1 1 10 2-1v-4s9.333-1 14-1 14 1 14 1v4l2 1 1-10-14-1z" style="fill:#f1de7f"/></svg>