<svg xmlns="http://www.w3.org/2000/svg" xml:space="preserve" style="fill-rule:evenodd;clip-rule:evenodd;stroke-linejoin:round;stroke-miterlimit:2" viewBox="0 0 50 50"><path d="M0 0h50v50H0z" style="fill:none"/><path d="m1 6 24-5 24 5v18l-5-1v7l5 1v18l-24-5-24 5V31l5-1v-7l-5 1z" style="fill:#10273d"/><path d="m0 5 25-5 25 5v20l-5-1v5l5 1v20l-25-5-25 5V30l5-1v-5l-5 1zm2 1.64 23-4.6 23 4.6v15.92l-5-1v9.08l5 1v15.92l-23-4.6-23 4.6V31.64l5-1v-9.08l-5 1z" style="fill:#0077af"/><path d="M12.5 42.5C17.5 42.5 28 34 28 28v-2H7.5v6s3-4 5.5-4h9c0 4-2.5 12.459-9.5 14.5m25-35C32.5 7.5 22 16 22 22v2h20.5v-6s-3 4-5.5 4h-9c0-4 2.5-12.459 9.5-14.5" style="fill:#f1de7f"/></svg>