<svg xmlns="http://www.w3.org/2000/svg" xml:space="preserve" style="fill-rule:evenodd;clip-rule:evenodd;stroke-linejoin:round;stroke-miterlimit:2" viewBox="0 0 50 50"><path d="M0 0h50v50H0z" style="fill:none"/><path d="m1 6 24-5 24 5v18l-5-1v7l5 1v18l-24-5-24 5V31l5-1v-7l-5 1z" style="fill:#10273d"/><path d="m0 5 25-5 25 5v20l-5-1v5l5 1v20l-25-5-25 5V30l5-1v-5l-5 1zm2 1.64 23-4.6 23 4.6v15.92l-5-1v9.08l5 1v15.92l-23-4.6-23 4.6V31.64l5-1v-9.08l-5 1z" style="fill:#0077af"/><path d="M24.644 5.772a.363.363 0 0 1 .712 0l2.276 11.725c.138.71.485 1.363.997 1.874a3.63 3.63 0 0 0 1.874.997l11.725 2.276a.363.363 0 0 1 0 .712l-11.725 2.276a3.63 3.63 0 0 0-1.874.997 3.63 3.63 0 0 0-.997 1.874l-2.276 11.725a.363.363 0 0 1-.712 0l-2.276-11.725a3.63 3.63 0 0 0-.997-1.874 3.63 3.63 0 0 0-1.874-.997L7.772 23.356a.363.363 0 0 1 0-.712l11.725-2.276a3.63 3.63 0 0 0 1.874-.997 3.63 3.63 0 0 0 .997-1.874z" style="fill:#f1de7f"/></svg>