<?xml version="1.0" encoding="UTF-8" standalone="no"?><!DOCTYPE svg PUBLIC "-//W3C//DTD SVG 1.1//EN" "http://www.w3.org/Graphics/SVG/1.1/DTD/svg11.dtd"><svg width="100%" height="100%" viewBox="0 0 50 50" version="1.1" xmlns="http://www.w3.org/2000/svg" xmlns:xlink="http://www.w3.org/1999/xlink" xml:space="preserve" xmlns:serif="http://www.serif.com/" style="fill-rule:evenodd;clip-rule:evenodd;stroke-linejoin:round;stroke-miterlimit:2;"><rect id="talent-security" x="0" y="0" width="50" height="50" style="fill:none;"/><g id="talent-security1" serif:id="talent-security"><g id="Talent-Frame" serif:id="Talent Frame"><path d="M1,6L25,1L49,6L49,24L44,23L44,30L49,31L49,49L25,44L1,49L1,31L6,30L6,23L1,24L1,6Z" style="fill:#10273d;"/><path d="M0,5L25,0L50,5L50,25L45,24L45,29L50,30L50,50L25,45L0,50L0,30L5,29L5,24L0,25L0,5ZM2,6.64L25,2.04C25,2.04 48,6.64 48,6.64C48,6.64 48,22.56 48,22.56C48,22.56 43,21.56 43,21.56L43,30.64L48,31.64C48,31.64 48,47.56 48,47.56C48,47.56 25,42.96 25,42.96L2,47.56C2,47.56 2,31.64 2,31.64C2,31.64 7,30.64 7,30.64L7,21.56L2,22.56L2,6.64Z" style="fill:#0077af;"/></g><g id="Security"><path id="Security1" serif:id="Security" d="M24,7.033C15.972,7.536 9.542,13.971 9.046,22L7.5,22L7.5,24L9.046,24C9.543,32.031 15.973,38.465 24,38.968L24,40.5L26,40.5L26,38.97C34.041,38.481 40.487,32.04 40.984,24L42.5,24L42.5,22L40.983,22C40.487,13.961 34.042,7.521 26,7.031L26,5.5L24,5.5L24,7.033ZM38.979,24C38.489,30.935 32.938,36.482 26,36.966L26,34.959C31.827,34.477 36.477,29.826 36.958,24L38.979,24ZM13.042,24C13.523,29.827 18.175,34.478 24,34.959L24,36.964C17.076,36.466 11.54,30.925 11.05,24L13.042,24ZM24,30.434C20.66,29.988 18.012,27.34 17.566,24L24,24L24,30.434ZM32.433,24C31.988,27.34 29.34,29.988 26,30.434L26,24L32.433,24ZM24,9.037L24,15.567C20.66,16.012 18.013,18.66 17.566,22L11.05,22C11.54,15.076 17.076,9.534 24,9.037ZM26,9.035C32.937,9.518 38.489,15.065 38.979,22L32.434,22C31.987,18.66 29.34,16.012 26,15.567L26,9.035Z" style="fill:#f5d63d;"/></g></g></svg>