<?xml version="1.0" encoding="UTF-8" standalone="no"?><!DOCTYPE svg PUBLIC "-//W3C//DTD SVG 1.1//EN" "http://www.w3.org/Graphics/SVG/1.1/DTD/svg11.dtd"><svg width="100%" height="100%" viewBox="0 0 50 50" version="1.1" xmlns="http://www.w3.org/2000/svg" xmlns:xlink="http://www.w3.org/1999/xlink" xml:space="preserve" xmlns:serif="http://www.serif.com/" style="fill-rule:evenodd;clip-rule:evenodd;stroke-linejoin:round;stroke-miterlimit:2;"><rect id="talent-dominion" x="0" y="0" width="50" height="50" style="fill:none;"/><g id="talent-dominion1" serif:id="talent-dominion"><g id="Talent-Frame" serif:id="Talent Frame"><path d="M1,6L25,1L49,6L49,24L44,23L44,30L49,31L49,49L25,44L1,49L1,31L6,30L6,23L1,24L1,6Z" style="fill:#10273d;"/><path d="M0,5L25,0L50,5L50,25L45,24L45,29L50,30L50,50L25,45L0,50L0,30L5,29L5,24L0,25L0,5ZM2,6.64L25,2.04C25,2.04 48,6.64 48,6.64C48,6.64 48,22.56 48,22.56C48,22.56 43,21.56 43,21.56L43,30.64L48,31.64C48,31.64 48,47.56 48,47.56C48,47.56 25,42.96 25,42.96L2,47.56C2,47.56 2,31.64 2,31.64C2,31.64 7,30.64 7,30.64L7,21.56L2,22.56L2,6.64Z" style="fill:#0077af;"/></g><g id="Dominion"><path id="Dominion1" serif:id="Dominion" d="M13.83,21.236L16.615,21.236L16.615,22.025L13.83,22.025L13.83,21.236ZM19.725,17.569L20.7,17.569C20.793,18.528 21.025,19.364 21.397,20.076C21.768,20.787 22.294,21.159 22.975,21.19L22.975,21.979C22.325,22.01 21.807,22.381 21.42,23.093C21.033,23.805 20.793,24.656 20.7,25.646L19.725,25.646C19.633,24.656 19.393,23.805 19.006,23.093C18.619,22.381 18.101,22.01 17.451,21.979L17.451,21.19C18.132,21.159 18.658,20.787 19.029,20.076C19.401,19.364 19.633,18.528 19.725,17.569ZM28.638,5.593L30.17,5.5L30.17,40.5L19.725,40.5L19.725,27.038L20.747,27.038L20.747,34.744C20.747,35.58 20.917,36.206 21.257,36.624C21.598,37.042 22.046,37.251 22.603,37.251C23.748,37.251 24.708,36.554 25.481,35.162C26.193,33.924 26.812,31.974 27.338,29.313C27.833,26.961 28.189,23.727 28.406,19.611C28.561,16.176 28.638,11.504 28.638,5.593Z" style="fill:#bb81e4;fill-rule:nonzero;"/></g></g></svg>