<?xml version="1.0" encoding="UTF-8" standalone="no"?><!DOCTYPE svg PUBLIC "-//W3C//DTD SVG 1.1//EN" "http://www.w3.org/Graphics/SVG/1.1/DTD/svg11.dtd"><svg width="100%" height="100%" viewBox="0 0 50 50" version="1.1" xmlns="http://www.w3.org/2000/svg" xmlns:xlink="http://www.w3.org/1999/xlink" xml:space="preserve" xmlns:serif="http://www.serif.com/" style="fill-rule:evenodd;clip-rule:evenodd;stroke-linejoin:round;stroke-miterlimit:2;"><rect id="talent-tellarite" x="0" y="0" width="50" height="50" style="fill:none;"/><g id="talent-tellarite1" serif:id="talent-tellarite"><g id="Talent-Frame" serif:id="Talent Frame"><path d="M1,6L25,1L49,6L49,24L44,23L44,30L49,31L49,49L25,44L1,49L1,31L6,30L6,23L1,24L1,6Z" style="fill:#10273d;"/><path d="M0,5L25,0L50,5L50,25L45,24L45,29L50,30L50,50L25,45L0,50L0,30L5,29L5,24L0,25L0,5ZM2,6.64L25,2.04C25,2.04 48,6.64 48,6.64C48,6.64 48,22.56 48,22.56C48,22.56 43,21.56 43,21.56L43,30.64L48,31.64C48,31.64 48,47.56 48,47.56C48,47.56 25,42.96 25,42.96L2,47.56C2,47.56 2,31.64 2,31.64C2,31.64 7,30.64 7,30.64L7,21.56L2,22.56L2,6.64Z" style="fill:#0077af;"/></g><g id="Tellarite"><path id="Tellarite1" serif:id="Tellarite" d="M29.39,38.752L29.787,39.149L28.198,40.738L27.404,39.944L27.801,39.547L28.198,39.944L29.39,38.752ZM20.61,38.156L20.213,38.553L20.61,38.951L20.213,39.348L20.61,39.745L21.007,39.348L21.405,39.745L21.007,40.142L21.405,40.54L22.199,39.745L21.405,38.951L21.802,38.553L22.596,39.348L22.994,38.951L21.802,37.759L21.007,38.553L20.61,38.156ZM26.609,39.149L27.006,39.547L27.404,39.149L27.801,39.547L28.198,39.149L27.801,38.752L28.198,38.355L27.801,37.957L26.609,39.149ZM41.984,22.344L24.901,5.262L7.818,22.344L24.901,39.427L41.984,22.344ZM28.595,37.957L28.993,38.355L28.595,38.752L28.198,38.355L28.595,37.957ZM29.986,35.772L29.191,36.567L30.78,38.156L31.178,37.759L29.986,36.567L30.383,36.17L29.986,35.772ZM18.862,34.819L17.273,36.408L18.862,37.997L19.259,37.6L18.068,36.408L18.465,36.011L18.862,36.408L19.259,36.011L18.862,35.614L19.259,35.216L18.862,34.819ZM31.575,35.772L32.369,36.567L31.575,37.362L31.178,36.964L31.575,36.567L31.178,36.17L30.78,36.567L30.383,36.17L30.78,35.772L31.178,36.17L31.575,35.772ZM19.657,35.614L20.451,36.408L20.054,36.805L19.259,36.011L19.657,35.614ZM38.805,22.344L24.901,8.44L10.996,22.344L24.901,36.249L38.805,22.344ZM30.78,34.978L31.178,35.375L30.78,35.772L30.383,35.375L30.78,34.978ZM16.717,35.057L16.32,35.455L15.922,35.057L16.32,34.66L16.717,35.057ZM33.561,32.197L31.972,33.786L33.561,35.375L35.15,33.786L34.356,32.991L33.959,33.389L34.356,33.786L33.561,34.581L32.767,33.786L33.959,32.594L33.561,32.197ZM24.901,32.912L21.722,29.734L22.159,29.297L20.968,28.105L19.657,29.416L24.901,34.66L28.834,30.727L27.96,29.853L24.901,32.912ZM16.32,32.276L15.922,32.674L16.717,33.468L16.32,33.865L15.525,33.071L14.73,33.865L15.128,34.263L15.525,33.865L16.32,34.66L16.717,34.263L17.114,34.66L17.511,34.263L17.114,33.865L17.511,33.468L16.32,32.276ZM12.982,30.528L12.188,31.323L13.777,32.912L15.366,31.323L14.572,30.528L14.174,30.926L14.572,31.323L13.777,32.117L13.38,31.72L13.777,31.323L12.982,30.528ZM35.945,30.608L36.74,31.402L35.945,32.197L35.548,31.8L35.945,31.402L35.548,31.005L35.15,31.402L34.753,31.005L35.945,29.813L36.342,30.211L36.74,29.813L37.931,31.005L37.137,31.8L36.74,31.402L37.137,31.005L36.342,30.211L35.945,30.608ZM24.94,13.724L22.835,15.829L25.02,18.014L25.02,21.033L22.08,23.973L18.346,20.239L16.24,22.344L24.901,31.005L27.006,28.9L25.814,27.708L30.304,23.219L31.495,24.41L33.561,22.344L31.098,19.881L29.747,21.232L27.801,19.285L29.152,17.935L24.94,13.724ZM13.777,29.734L13.38,30.131L13.777,30.528L14.174,30.131L13.777,29.734ZM10.44,28.78L10.837,29.178L10.44,29.575L9.645,28.78L10.837,27.589L11.234,27.986L11.632,27.589L12.823,28.78L11.234,30.369L10.837,29.972L12.029,28.78L11.234,27.986L10.44,28.78ZM38.925,26.834L38.13,27.628L38.925,28.423L38.527,28.82L37.733,28.026L37.335,28.423L38.925,30.012L39.322,29.615L38.925,29.217L39.719,28.423L40.116,28.82L40.514,28.423L39.719,27.628L39.322,28.026L38.925,27.628L39.322,27.231L38.925,26.834ZM31.337,25.682L30.264,24.609L27.006,27.867L28.079,28.939L31.337,25.682ZM8.692,24.649L7.5,25.841L7.897,26.238L8.295,25.841L8.692,26.238L7.897,27.032L8.692,27.827L9.089,27.43L8.692,27.032L9.089,26.635L9.486,27.032L9.884,26.635L9.486,26.238L9.884,25.841L8.692,24.649ZM41.308,24.45L40.116,25.642L40.514,26.039L41.308,25.245L41.705,25.642L41.308,26.039L41.705,26.436L40.911,27.231L41.308,27.628L42.5,26.436L42.103,26.039L42.5,25.642L41.308,24.45ZM40.911,26.436L40.514,26.039L40.116,26.436L40.514,26.834L40.911,26.436ZM14.333,22.344L17.392,19.285L16.518,18.411L12.585,22.344L16.518,26.278L17.392,25.404L14.333,22.344ZM37.216,22.344L31.932,17.061L30.661,18.332L31.813,19.484L32.211,19.087L35.468,22.344L32.449,25.364L33.323,26.238L37.216,22.344ZM21.405,15.67L24.027,18.292L24.027,20.835L22.12,22.742L18.226,18.848L21.405,15.67ZM24.901,10.029L20.968,13.962L21.842,14.836L24.901,11.777L27.96,14.836L28.834,13.962L24.901,10.029Z" style="fill:#81a2e4;"/></g></g></svg>