<svg xmlns="http://www.w3.org/2000/svg" xml:space="preserve" style="fill-rule:evenodd;clip-rule:evenodd;stroke-linejoin:round;stroke-miterlimit:2" viewBox="0 0 50 50"><path d="M0 0h50v50H0z" style="fill:none"/><path d="m1 6 24-5 24 5v18l-5-1v7l5 1v18l-24-5-24 5V31l5-1v-7l-5 1z" style="fill:#10273d"/><path d="m0 5 25-5 25 5v20l-5-1v5l5 1v20l-25-5-25 5V30l5-1v-5l-5 1zm2 1.64 23-4.6 23 4.6v15.92l-5-1v9.08l5 1v15.92l-23-4.6-23 4.6V31.64l5-1v-9.08l-5 1z" style="fill:#0077af"/><path d="M32.066 36c-6.108 3.32-13.506 1.879-17.987-3.037-.048-.182-.097-.362-.137-.544 4.901 2.365 10.827 2.422 15.973-.375 5.146-2.796 8.322-7.801 9.004-13.199q.194.201.38.41C40.99 25.689 38.173 32.681 32.066 36m4.286-19.243c-.033 5.211-2.823 10.248-7.726 12.912-4.906 2.665-10.648 2.267-15.041-.538.035-5.212 2.824-10.248 7.728-12.914 4.905-2.665 10.648-2.267 15.039.54M17.933 10c6.087-3.309 13.458-1.89 17.944 2.99.04.158.085.318.118.478-4.899-2.364-10.824-2.421-15.971.376-5.146 2.796-8.323 7.799-9.003 13.199-.117-.118-.227-.242-.339-.362C9.029 20.264 11.846 13.308 17.933 10m23.816 7.924a17.6 17.6 0 0 0-3.422-6.267 17.4 17.4 0 0 0-5.15-4.125c-5.001-2.642-11.19-2.81-16.533.093-5.343 2.905-8.567 8.188-9.074 13.823a17.43 17.43 0 0 0 2.056 9.907 17.412 17.412 0 0 0 7.238 7.138c4.996 2.616 11.163 2.778 16.491-.118 5.33-2.897 8.55-8.159 9.071-13.775a17.4 17.4 0 0 0-.677-6.676" style="fill:#6e9cf7;fill-rule:nonzero"/></svg>