<svg xmlns="http://www.w3.org/2000/svg" xml:space="preserve" style="fill-rule:evenodd;clip-rule:evenodd;stroke-linejoin:round;stroke-miterlimit:2" viewBox="0 0 50 50"><path d="M0 0h50v50H0z" style="fill:none"/><path d="m1 6 24-5 24 5v18l-5-1v7l5 1v18l-24-5-24 5V31l5-1v-7l-5 1z" style="fill:#10273d"/><path d="m0 5 25-5 25 5v20l-5-1v5l5 1v20l-25-5-25 5V30l5-1v-5l-5 1zm2 1.64 23-4.6 23 4.6v15.92l-5-1v9.08l5 1v15.92l-23-4.6-23 4.6V31.64l5-1v-9.08l-5 1z" style="fill:#0077af"/><path d="M24 7.033C15.972 7.536 9.542 13.971 9.046 22H7.5v2h1.546C9.543 32.031 15.973 38.465 24 38.968V40.5h2v-1.53c8.041-.489 14.487-6.93 14.984-14.97H42.5v-2h-1.517C40.487 13.961 34.042 7.521 26 7.031V5.5h-2zM38.979 24c-.49 6.935-6.041 12.482-12.979 12.966v-2.007c5.827-.482 10.477-5.133 10.958-10.959zm-25.937 0c.481 5.827 5.133 10.478 10.958 10.959v2.005C17.076 36.466 11.54 30.925 11.05 24zM24 30.434A7.51 7.51 0 0 1 17.566 24H24zM32.433 24A7.51 7.51 0 0 1 26 30.434V24zM24 9.037v6.53A7.51 7.51 0 0 0 17.566 22H11.05C11.54 15.076 17.076 9.534 24 9.037m2-.002c6.937.483 12.489 6.03 12.979 12.965h-6.545A7.51 7.51 0 0 0 26 15.567z" style="fill:#f5d63d"/></svg>