<?xml version="1.0" encoding="UTF-8" standalone="no"?><!DOCTYPE svg PUBLIC "-//W3C//DTD SVG 1.1//EN" "http://www.w3.org/Graphics/SVG/1.1/DTD/svg11.dtd"><svg width="100%" height="100%" viewBox="0 0 50 50" version="1.1" xmlns="http://www.w3.org/2000/svg" xmlns:xlink="http://www.w3.org/1999/xlink" xml:space="preserve" xmlns:serif="http://www.serif.com/" style="fill-rule:evenodd;clip-rule:evenodd;stroke-linejoin:round;stroke-miterlimit:2;"><rect id="talent-trill" x="0" y="0" width="50" height="50" style="fill:none;"/><g id="talent-trill1" serif:id="talent-trill"><g id="Talent-Frame" serif:id="Talent Frame"><path d="M1,6L25,1L49,6L49,24L44,23L44,30L49,31L49,49L25,44L1,49L1,31L6,30L6,23L1,24L1,6Z" style="fill:#10273d;"/><path d="M0,5L25,0L50,5L50,25L45,24L45,29L50,30L50,50L25,45L0,50L0,30L5,29L5,24L0,25L0,5ZM2,6.64L25,2.04C25,2.04 48,6.64 48,6.64C48,6.64 48,22.56 48,22.56C48,22.56 43,21.56 43,21.56L43,30.64L48,31.64C48,31.64 48,47.56 48,47.56C48,47.56 25,42.96 25,42.96L2,47.56C2,47.56 2,31.64 2,31.64C2,31.64 7,30.64 7,30.64L7,21.56L2,22.56L2,6.64Z" style="fill:#0077af;"/></g><g id="Trill"><path id="Trill1" serif:id="Trill" d="M19.907,29.741L26.898,29.741L26.898,21.685L29.074,21.685L29.074,29.741L30.648,29.741L30.648,21.685L32.824,21.685L32.824,29.741L42.5,29.741L42.5,31.269L41.759,32.194L32.824,32.194L32.824,40.528L30.648,40.528L30.648,32.194L29.074,32.194L29.074,40.528L26.898,40.528L26.898,32.194L19.907,32.194C16.481,32.194 13.557,30.991 11.134,28.583C8.711,26.176 7.5,23.259 7.5,19.833C7.5,18.383 7.762,16.948 8.287,15.528L7.731,14.602L8.796,13.444L9.306,13.444C10.417,11.623 11.883,10.188 13.704,9.139C15.617,8.028 17.693,7.472 19.931,7.472C22.168,7.472 24.228,8.028 26.111,9.139C28.086,10.343 29.568,11.778 30.556,13.444L38.056,13.444C39.012,13.475 39.969,14.046 40.926,15.157C41.821,16.145 42.299,17.117 42.361,18.074L41.62,18.815L35.231,18.815L35.231,20.019L34.676,20.62L25.278,20.667C25.031,21.994 24.414,23.097 23.426,23.977C22.438,24.856 21.265,25.296 19.907,25.296C18.364,25.296 17.068,24.756 16.019,23.676C14.969,22.596 14.444,21.315 14.444,19.833C14.444,18.63 14.846,17.503 15.648,16.454L10.602,16.454C10.201,17.534 10,18.66 10,19.833C10,22.549 10.965,24.88 12.894,26.824C14.823,28.769 17.16,29.741 19.907,29.741ZM27.546,13.444C25.633,11.13 23.086,9.972 19.907,9.972C16.852,9.972 14.321,11.13 12.315,13.444L27.546,13.444Z" style="fill:#ccc;fill-rule:nonzero;"/></g></g></svg>