<svg xmlns="http://www.w3.org/2000/svg" xml:space="preserve" style="fill-rule:evenodd;clip-rule:evenodd;stroke-linejoin:round;stroke-miterlimit:2" viewBox="0 0 50 50"><path d="M0 0h50v50H0z" style="fill:none"/><path d="m1 6 24-5 24 5v18l-5-1v7l5 1v18l-24-5-24 5V31l5-1v-7l-5 1z" style="fill:#10273d"/><path d="m0 5 25-5 25 5v20l-5-1v5l5 1v20l-25-5-25 5V30l5-1v-5l-5 1zm2 1.64 23-4.6 23 4.6v15.92l-5-1v9.08l5 1v15.92l-23-4.6-23 4.6V31.64l5-1v-9.08l-5 1z" style="fill:#0077af"/><path d="M24.397 35.827a1 1 0 1 1 1.206 0l.084.666C29.409 36.422 32.801 35.78 35 35c0 2.76-4.481 5-10 5s-10-2.24-10-5c2.199.78 5.591 1.422 9.313 1.493zM18 28q3.5 1.975 7 1.969T32 28c-4.667 5.278-9.333 5.369-14 0m-2-3.993q4.5 1.975 9 1.969c3-.002 6-.661 9-1.969-6 5.278-12 5.369-18 0m-2-4q5.5 1.975 11 1.969c3.667-.002 7.333-.661 11-1.969-7.333 5.278-14.667 5.369-22 0M12 16q6.5 1.975 13 1.969T38 16c-8.667 5.278-17.333 5.369-26 0m-2-4.007q7.5 1.974 15 1.969 7.5-.007 15-1.969c-10 5.278-20 5.369-30 0M8 7.985a74.6 74.6 0 0 0 17 1.969q8.5-.005 17-1.969c-11.333 5.278-22.667 5.369-34 0" style="fill:#f1de7f"/></svg>