<svg xmlns="http://www.w3.org/2000/svg" xml:space="preserve" style="fill-rule:evenodd;clip-rule:evenodd;stroke-linejoin:round;stroke-miterlimit:2" viewBox="0 0 50 50"><path d="M0 0h50v50H0z" style="fill:none"/><path d="m1 6 24-5 24 5v18l-5-1v7l5 1v18l-24-5-24 5V31l5-1v-7l-5 1z" style="fill:#10273d"/><path d="m0 5 25-5 25 5v20l-5-1v5l5 1v20l-25-5-25 5V30l5-1v-5l-5 1zm2 1.64 23-4.6 23 4.6v15.92l-5-1v9.08l5 1v15.92l-23-4.6-23 4.6V31.64l5-1v-9.08l-5 1z" style="fill:#0077af"/><path d="M22.858 27.628a.145.145 0 0 1 .284 0l.91 4.684a1.44 1.44 0 0 0 1.147 1.147l4.684.909a.146.146 0 0 1 0 .285l-4.684.909a1.45 1.45 0 0 0-1.147 1.147l-.91 4.684a.145.145 0 0 1-.284 0l-.91-4.684a1.451 1.451 0 0 0-1.147-1.147l-4.684-.909a.146.146 0 0 1 0-.285l4.684-.909a1.45 1.45 0 0 0 1.147-1.147zm10.969-9.496a.177.177 0 0 1 .346 0l1.104 5.688a1.76 1.76 0 0 0 1.393 1.392l5.688 1.104a.177.177 0 0 1 0 .346l-5.688 1.104a1.76 1.76 0 0 0-1.393 1.393l-1.104 5.688a.177.177 0 0 1-.346 0l-1.104-5.688a1.76 1.76 0 0 0-1.393-1.393l-5.688-1.104a.177.177 0 0 1 0-.346l5.688-1.104a1.765 1.765 0 0 0 1.393-1.392zM18.276 6.674a.23.23 0 0 1 .224-.185.23.23 0 0 1 .224.185l1.429 7.36a2.27 2.27 0 0 0 1.802 1.803l7.361 1.429a.228.228 0 0 1 0 .447l-7.361 1.429a2.27 2.27 0 0 0-1.802 1.802l-1.429 7.361a.228.228 0 0 1-.448 0l-1.429-7.361a2.28 2.28 0 0 0-1.802-1.802l-7.361-1.429a.228.228 0 0 1 0-.447l7.361-1.429a2.28 2.28 0 0 0 1.802-1.803z" style="fill:#f1de7f"/></svg>