<svg xmlns="http://www.w3.org/2000/svg" xml:space="preserve" style="fill-rule:evenodd;clip-rule:evenodd;stroke-linejoin:round;stroke-miterlimit:2" viewBox="0 0 50 50"><path d="M0 0h50v50H0z" style="fill:none"/><path d="m1 6 24-5 24 5v18l-5-1v7l5 1v18l-24-5-24 5V31l5-1v-7l-5 1z" style="fill:#10273d"/><path d="m0 5 25-5 25 5v20l-5-1v5l5 1v20l-25-5-25 5V30l5-1v-5l-5 1zm2 1.64 23-4.6 23 4.6v15.92l-5-1v9.08l5 1v15.92l-23-4.6-23 4.6V31.64l5-1v-9.08l-5 1z" style="fill:#0077af"/><path d="M18.596 18.472A4.98 4.98 0 0 1 15 20c-2.76 0-5-2.24-5-5s2.24-5 5-5a5.002 5.002 0 0 1 4.938 5.789l11.466 5.726A4.98 4.98 0 0 1 35 19.987c2.76 0 5 2.241 5 5a5.002 5.002 0 0 1-8.593 3.477l-11.47 5.742Q20 34.595 20 35c0 2.76-2.24 5-5 5s-5-2.24-5-5 2.24-5 5-5c1.409 0 2.683.584 3.593 1.524l11.47-5.742a5 5 0 0 1-.001-1.584z" style="fill:#f1de7f"/></svg>