<?xml version="1.0" encoding="UTF-8" standalone="no"?><!DOCTYPE svg PUBLIC "-//W3C//DTD SVG 1.1//EN" "http://www.w3.org/Graphics/SVG/1.1/DTD/svg11.dtd"><svg width="100%" height="100%" viewBox="0 0 50 50" version="1.1" xmlns="http://www.w3.org/2000/svg" xmlns:xlink="http://www.w3.org/1999/xlink" xml:space="preserve" xmlns:serif="http://www.serif.com/" style="fill-rule:evenodd;clip-rule:evenodd;stroke-linejoin:round;stroke-miterlimit:2;"><rect id="talent-knowledge" x="0" y="0" width="50" height="50" style="fill:none;"/><g id="talent-knowledge1" serif:id="talent-knowledge"><g id="Talent-Frame" serif:id="Talent Frame"><path d="M1,6L25,1L49,6L49,24L44,23L44,30L49,31L49,49L25,44L1,49L1,31L6,30L6,23L1,24L1,6Z" style="fill:#10273d;"/><path d="M0,5L25,0L50,5L50,25L45,24L45,29L50,30L50,50L25,45L0,50L0,30L5,29L5,24L0,25L0,5ZM2,6.64L25,2.04C25,2.04 48,6.64 48,6.64C48,6.64 48,22.56 48,22.56C48,22.56 43,21.56 43,21.56L43,30.64L48,31.64C48,31.64 48,47.56 48,47.56C48,47.56 25,42.96 25,42.96L2,47.56C2,47.56 2,31.64 2,31.64C2,31.64 7,30.64 7,30.64L7,21.56L2,22.56L2,6.64Z" style="fill:#0077af;"/></g><g id="Knowledge"><path id="Knowledge1" serif:id="Knowledge" d="M26,33.989L11,33.989L11,41.489L26,41.489L26,33.989ZM11,32.989L11,29.989C11,26.676 13.686,23.989 17,23.989C22.891,23.989 31,23.989 31,23.989L31,27.989L28,27.989C27.47,27.989 26.961,28.2 26.586,28.575C26.211,28.95 26,29.459 26,29.989L26,32.989L11,32.989ZM41,23.989L32,23.989L32,27.989L41,27.989L41,23.989ZM11,12.989L11,15.989C11,19.303 13.686,21.989 17,21.989C22.891,21.989 31,21.989 31,21.989L31,17.989L28,17.989C27.47,17.989 26.961,17.779 26.586,17.404C26.211,17.029 26,16.52 26,15.989L26,12.989L11,12.989ZM41,17.989L32,17.989L32,21.989L41,21.989L41,17.989ZM26,6.511L11,6.511L11,11.989L26,11.989L26,6.511Z" style="fill:#f1de7f;"/></g></g></svg>