<?xml version="1.0" encoding="UTF-8" standalone="no"?><!DOCTYPE svg PUBLIC "-//W3C//DTD SVG 1.1//EN" "http://www.w3.org/Graphics/SVG/1.1/DTD/svg11.dtd"><svg width="100%" height="100%" viewBox="0 0 50 50" version="1.1" xmlns="http://www.w3.org/2000/svg" xmlns:xlink="http://www.w3.org/1999/xlink" xml:space="preserve" xmlns:serif="http://www.serif.com/" style="fill-rule:evenodd;clip-rule:evenodd;stroke-linejoin:round;stroke-miterlimit:2;"><rect id="talent-klingon" x="0" y="0" width="50" height="50" style="fill:none;"/><g id="talent-klingon1" serif:id="talent-klingon"><g id="Talent-Frame" serif:id="Talent Frame"><path d="M1,6L25,1L49,6L49,24L44,23L44,30L49,31L49,49L25,44L1,49L1,31L6,30L6,23L1,24L1,6Z" style="fill:#10273d;"/><path d="M0,5L25,0L50,5L50,25L45,24L45,29L50,30L50,50L25,45L0,50L0,30L5,29L5,24L0,25L0,5ZM2,6.64L25,2.04C25,2.04 48,6.64 48,6.64C48,6.64 48,22.56 48,22.56C48,22.56 43,21.56 43,21.56L43,30.64L48,31.64C48,31.64 48,47.56 48,47.56C48,47.56 25,42.96 25,42.96L2,47.56C2,47.56 2,31.64 2,31.64C2,31.64 7,30.64 7,30.64L7,21.56L2,22.56L2,6.64Z" style="fill:#0077af;"/></g><g id="Klingon"><path id="Klingon1" serif:id="Klingon" d="M22.846,21.056C24.126,14.336 25.047,5.5 25.047,5.5C25.047,5.5 25.973,14.303 27.257,21.01C31.588,21.972 34.828,25.837 34.828,30.459C34.828,31.296 34.722,32.108 34.522,32.883C37.372,34.128 40.262,34.18 40.262,34.18C40.262,34.18 36.39,36.898 31.88,37.413C30.139,39.1 27.765,40.138 25.149,40.138C22.259,40.138 19.665,38.871 17.892,36.863C14.768,38.216 12.81,40.611 12.801,40.496C12.413,35.834 13.889,33.612 15.638,32.26C15.528,31.677 15.47,31.074 15.47,30.459C15.47,25.907 18.612,22.09 22.846,21.056ZM27.428,21.881C28.042,24.92 28.728,27.397 29.429,28.202L25.067,35.239L20.685,28.228C21.383,27.426 22.064,24.962 22.674,21.935C18.981,23.01 16.274,26.424 16.274,30.459C16.274,30.897 16.306,31.328 16.368,31.749C17.92,30.76 19.512,30.262 20.109,29.237L24.718,36.348C22.482,35.703 20.438,35.941 18.698,36.548C20.317,38.262 22.61,39.334 25.149,39.334C27.18,39.334 29.054,38.648 30.551,37.496C28.877,37.511 27.161,37.171 25.559,36.24L30.072,29.117C30.969,30.695 32.336,31.781 33.78,32.53C33.94,31.865 34.024,31.172 34.024,30.459C34.024,26.353 31.221,22.889 27.428,21.881Z" style="fill:#d23a2d;fill-rule:nonzero;"/></g></g></svg>