<svg xmlns="http://www.w3.org/2000/svg" xml:space="preserve" style="fill-rule:evenodd;clip-rule:evenodd;stroke-linejoin:round;stroke-miterlimit:2" viewBox="0 0 50 50"><path d="M0 0h50v50H0z" style="fill:none"/><path d="m1 6 24-5 24 5v18l-5-1v7l5 1v18l-24-5-24 5V31l5-1v-7l-5 1z" style="fill:#10273d"/><path d="m0 5 25-5 25 5v20l-5-1v5l5 1v20l-25-5-25 5V30l5-1v-5l-5 1zm2 1.64 23-4.6 23 4.6v15.92l-5-1v9.08l5 1v15.92l-23-4.6-23 4.6V31.64l5-1v-9.08l-5 1z" style="fill:#0077af"/><path d="M13.5 16c2.5-.5 5.083-2.25 7-4s4-4.5 4.5-6.5c.5 2 2.583 4.75 4.5 6.5s4.5 3.5 7 4c-2.5.5-6.664 2.153-8 5-1.917 4.083-3 15.5-3.5 19.5-.5-4-1.583-15.417-3.5-19.5-1.336-2.847-5.5-4.5-8-5m11.434-3.206-.424 2.182a.7.7 0 0 1-.185.349.7.7 0 0 1-.349.185l-2.182.424a.07.07 0 0 0-.055.066c0 .032.023.06.055.066l2.182.424c.132.026.253.09.349.185a.7.7 0 0 1 .185.349l.424 2.182a.07.07 0 0 0 .066.055c.032 0 .06-.023.066-.055l.424-2.182a.7.7 0 0 1 .185-.349.7.7 0 0 1 .349-.185l2.182-.424a.07.07 0 0 0 .055-.066.07.07 0 0 0-.055-.066l-2.182-.424a.7.7 0 0 1-.349-.185.7.7 0 0 1-.185-.349l-.424-2.182a.07.07 0 0 0-.066-.055.07.07 0 0 0-.066.055" style="fill:#f54d3d"/></svg>