<?xml version="1.0" encoding="UTF-8" standalone="no"?><!DOCTYPE svg PUBLIC "-//W3C//DTD SVG 1.1//EN" "http://www.w3.org/Graphics/SVG/1.1/DTD/svg11.dtd"><svg width="100%" height="100%" viewBox="0 0 50 50" version="1.1" xmlns="http://www.w3.org/2000/svg" xmlns:xlink="http://www.w3.org/1999/xlink" xml:space="preserve" xmlns:serif="http://www.serif.com/" style="fill-rule:evenodd;clip-rule:evenodd;stroke-linejoin:round;stroke-miterlimit:2;"><rect id="talent-vulcan" x="0" y="0" width="50" height="50" style="fill:none;"/><g id="talent-vulcan1" serif:id="talent-vulcan"><g id="Talent-Frame" serif:id="Talent Frame"><path d="M1,6L25,1L49,6L49,24L44,23L44,30L49,31L49,49L25,44L1,49L1,31L6,30L6,23L1,24L1,6Z" style="fill:#10273d;"/><path d="M0,5L25,0L50,5L50,25L45,24L45,29L50,30L50,50L25,45L0,50L0,30L5,29L5,24L0,25L0,5ZM2,6.64L25,2.04C25,2.04 48,6.64 48,6.64C48,6.64 48,22.56 48,22.56C48,22.56 43,21.56 43,21.56L43,30.64L48,31.64C48,31.64 48,47.56 48,47.56C48,47.56 25,42.96 25,42.96L2,47.56C2,47.56 2,31.64 2,31.64C2,31.64 7,30.64 7,30.64L7,21.56L2,22.56L2,6.64Z" style="fill:#0077af;"/></g><g id="Vulcan"><path id="Vulcan1" serif:id="Vulcan" d="M22.003,18.876L42.403,24.532L42.403,24.58L25.483,41.5C25.451,41.5 25.435,41.484 25.435,41.452C22.47,30.752 20.585,23.919 19.779,20.954C20.262,20.793 20.73,20.503 21.181,20.084C21.568,19.633 21.842,19.23 22.003,18.876ZM32.058,31.638L25.773,40.727L32.928,31.928L41.727,24.773L32.686,31.058L21.519,20.519L32.058,31.638ZM38.536,22.646L27.659,19.649C27.691,19.424 27.707,19.101 27.707,18.682C27.707,17.232 27.353,15.895 26.644,14.67C25.935,13.445 24.976,12.478 23.767,11.769C22.559,11.06 21.229,10.706 19.779,10.706C18.329,10.706 16.991,11.06 15.767,11.769C14.542,12.478 13.575,13.445 12.866,14.67C12.157,15.895 11.802,17.224 11.802,18.658C11.802,20.092 12.157,21.422 12.866,22.646C13.575,23.871 14.542,24.838 15.767,25.547C16.991,26.256 18.329,26.61 19.779,26.61C20.101,26.61 20.343,26.594 20.504,26.562L23.501,37.439L23.066,37.439C20.262,37.439 17.652,36.73 15.235,35.312C12.914,33.959 11.077,32.122 9.724,29.801C8.306,27.384 7.597,24.773 7.597,21.97C7.597,19.166 8.306,16.555 9.724,14.138C11.077,11.818 12.914,9.981 15.235,8.627C17.652,7.209 20.262,6.5 23.066,6.5C25.87,6.5 28.481,7.209 30.898,8.627C33.218,9.981 35.055,11.818 36.409,14.138C37.827,16.555 38.536,19.166 38.536,21.97L38.536,22.646ZM18.377,20.616C17.475,20.616 16.693,20.286 16.032,19.625C15.372,18.964 15.041,18.175 15.041,17.256C15.041,16.338 15.372,15.548 16.032,14.887C16.693,14.227 17.475,13.896 18.377,13.896C19.279,13.896 20.061,14.227 20.722,14.887C21.382,15.548 21.713,16.338 21.713,17.256C21.713,18.175 21.39,18.964 20.746,19.625C20.101,20.286 19.312,20.616 18.377,20.616Z" style="fill:#dbba57;fill-rule:nonzero;"/></g></g></svg>