<svg xmlns="http://www.w3.org/2000/svg" xml:space="preserve" style="fill-rule:evenodd;clip-rule:evenodd;stroke-linejoin:round;stroke-miterlimit:2" viewBox="0 0 50 50"><path d="M0 0h50v50H0z" style="fill:none"/><path d="m1 6 24-5 24 5v18l-5-1v7l5 1v18l-24-5-24 5V31l5-1v-7l-5 1z" style="fill:#10273d"/><path d="m0 5 25-5 25 5v20l-5-1v5l5 1v20l-25-5-25 5V30l5-1v-5l-5 1zm2 1.64 23-4.6 23 4.6v15.92l-5-1v9.08l5 1v15.92l-23-4.6-23 4.6V31.64l5-1v-9.08l-5 1z" style="fill:#0077af"/><path d="M19.094 12.281 25 9l5.906 3.281-3.281 12.093 6.374-10.406 5.531 3.375-11.062 11.202 11.062-6.234.141 8.765Q32.218 39.138 25 38.998q-7.218.14-14.671-7.922l.141-8.765 11.062 6.234L10.47 17.343l5.531-3.375 6.374 10.406z" style="fill:#f2200d;fill-rule:nonzero"/></svg>