<svg xmlns="http://www.w3.org/2000/svg" xml:space="preserve" style="fill-rule:evenodd;clip-rule:evenodd;stroke-linejoin:round;stroke-miterlimit:2" viewBox="0 0 50 50"><path d="M0 0h50v50H0z" style="fill:none"/><path d="m1 6 24-5 24 5v18l-5-1v7l5 1v18l-24-5-24 5V31l5-1v-7l-5 1z" style="fill:#10273d"/><path d="m0 5 25-5 25 5v20l-5-1v5l5 1v20l-25-5-25 5V30l5-1v-5l-5 1zm2 1.64 23-4.6 23 4.6v15.92l-5-1v9.08l5 1v15.92l-23-4.6-23 4.6V31.64l5-1v-9.08l-5 1z" style="fill:#0077af"/><path d="m42.5 26.573-7.423 12.633-2.998.05q-9.438.148-11.061-.05-5.309-.59-8.651-3.49-2.655-2.211-3.884-5.653-.934-2.409-.983-4.719h15.632q.05 1.868 1.032 3.884 1.18 2.408 3.146 3.883 2.36 1.72 5.457 1.72l8.258-8.258zm-3.736-1.229-7.767 7.914q-2.999-.737-4.67-2.998-1.278-1.623-1.622-3.736h1.18q.492 1.474 1.524 2.409.836.687 2.408 1.278l2.95-4.867zm3.736-1.917h-1.475l-8.258-8.258q-3.098 0-5.457 1.72-1.965 1.475-3.146 3.883-.983 2.016-1.032 3.884H7.5q.049-2.31.983-4.719 1.229-3.442 3.884-5.653 3.342-2.9 8.651-3.49 1.623-.197 11.061-.05l2.998.05zm-3.736 1.229h-5.997l-2.95-4.867q-1.572.591-2.408 1.278-1.032.934-1.524 2.409h-1.18a8.34 8.34 0 0 1 1.622-3.785q1.671-2.212 4.67-2.999zm-9.831 2.605a2.1 2.1 0 0 1-1.573-.663A2.22 2.22 0 0 1 26.721 25q0-.934.639-1.598.639-.663 1.573-.663t1.597.663q.664.664.664 1.598t-.664 1.598a2.18 2.18 0 0 1-1.597.663" style="fill:#78db57;fill-rule:nonzero"/></svg>