<svg xmlns="http://www.w3.org/2000/svg" xml:space="preserve" style="fill-rule:evenodd;clip-rule:evenodd;stroke-linejoin:round;stroke-miterlimit:2" viewBox="0 0 50 50"><path d="M0 0h50v50H0z" style="fill:none"/><path d="m1 6 24-5 24 5v18l-5-1v7l5 1v18l-24-5-24 5V31l5-1v-7l-5 1z" style="fill:#10273d"/><path d="m0 5 25-5 25 5v20l-5-1v5l5 1v20l-25-5-25 5V30l5-1v-5l-5 1zm2 1.64 23-4.6 23 4.6v15.92l-5-1v9.08l5 1v15.92l-23-4.6-23 4.6V31.64l5-1v-9.08l-5 1z" style="fill:#0077af"/><path d="M37.865 40.236s-12.818-3.641-18.958-10.052c-6.139-6.409-3.49-13.569-.783-16.19 3.851-3.732 10.833-5.959 15.889.661 4.553 5.962.54 14.033-5.297 12.641-4.033-.964-5.204-4.486-5.204-4.486l-1.114.453 4.332 7.673 9.933-1.685.933-16.07L26.49 6.5l-14.355 8.395 1.956 19.202L37.865 41.5z" style="fill:#f5d63d;fill-rule:nonzero"/></svg>