<?xml version="1.0" encoding="UTF-8" standalone="no"?><!DOCTYPE svg PUBLIC "-//W3C//DTD SVG 1.1//EN" "http://www.w3.org/Graphics/SVG/1.1/DTD/svg11.dtd"><svg width="100%" height="100%" viewBox="0 0 50 50" version="1.1" xmlns="http://www.w3.org/2000/svg" xmlns:xlink="http://www.w3.org/1999/xlink" xml:space="preserve" xmlns:serif="http://www.serif.com/" style="fill-rule:evenodd;clip-rule:evenodd;stroke-linejoin:round;stroke-miterlimit:2;"><rect id="talent-career-experienced" x="0" y="0" width="50" height="50" style="fill:none;"/><g id="talent-career-experienced1" serif:id="talent-career-experienced"><g id="Talent-Frame" serif:id="Talent Frame"><path d="M1,6L25,1L49,6L49,24L44,23L44,30L49,31L49,49L25,44L1,49L1,31L6,30L6,23L1,24L1,6Z" style="fill:#10273d;"/><path d="M0,5L25,0L50,5L50,25L45,24L45,29L50,30L50,50L25,45L0,50L0,30L5,29L5,24L0,25L0,5ZM2,6.64L25,2.04C25,2.04 48,6.64 48,6.64C48,6.64 48,22.56 48,22.56C48,22.56 43,21.56 43,21.56L43,30.64L48,31.64C48,31.64 48,47.56 48,47.56C48,47.56 25,42.96 25,42.96L2,47.56C2,47.56 2,31.64 2,31.64C2,31.64 7,30.64 7,30.64L7,21.56L2,22.56L2,6.64Z" style="fill:#0077af;"/></g><g id="Experienced"><path id="Experienced1" serif:id="Experienced" d="M22.858,27.628C22.871,27.56 22.931,27.511 23,27.511C23.069,27.511 23.129,27.56 23.142,27.628L24.052,32.312C24.107,32.596 24.245,32.857 24.45,33.061C24.654,33.265 24.915,33.404 25.199,33.459L29.883,34.368C29.951,34.382 30,34.441 30,34.511C30,34.58 29.951,34.64 29.883,34.653L25.199,35.562C24.915,35.618 24.654,35.756 24.45,35.961C24.245,36.165 24.107,36.426 24.052,36.709L23.142,41.393C23.129,41.462 23.069,41.511 23,41.511C22.931,41.511 22.871,41.462 22.858,41.393L21.948,36.709C21.893,36.426 21.755,36.165 21.55,35.961C21.346,35.756 21.085,35.618 20.801,35.562L16.117,34.653C16.049,34.64 16,34.58 16,34.511C16,34.441 16.049,34.382 16.117,34.368L20.801,33.459C21.085,33.404 21.346,33.265 21.55,33.061C21.755,32.857 21.893,32.596 21.948,32.312L22.858,27.628ZM33.827,18.132C33.843,18.049 33.916,17.989 34,17.989C34.084,17.989 34.157,18.049 34.173,18.132L35.277,23.82C35.344,24.164 35.512,24.481 35.76,24.729C36.009,24.977 36.325,25.145 36.67,25.212L42.358,26.316C42.44,26.332 42.5,26.405 42.5,26.489C42.5,26.573 42.44,26.646 42.358,26.662L36.67,27.766C36.325,27.833 36.009,28.001 35.76,28.25C35.512,28.498 35.344,28.814 35.277,29.159L34.173,34.847C34.157,34.929 34.084,34.989 34,34.989C33.916,34.989 33.843,34.929 33.827,34.847L32.723,29.159C32.656,28.814 32.488,28.498 32.24,28.25C31.991,28.001 31.675,27.833 31.33,27.766L25.642,26.662C25.56,26.646 25.5,26.573 25.5,26.489C25.5,26.405 25.56,26.332 25.642,26.316L31.33,25.212C31.675,25.145 31.991,24.977 32.24,24.729C32.488,24.481 32.656,24.164 32.723,23.82L33.827,18.132ZM18.276,6.674C18.297,6.567 18.391,6.489 18.5,6.489C18.609,6.489 18.703,6.567 18.724,6.674L20.153,14.034C20.239,14.48 20.457,14.89 20.778,15.211C21.099,15.532 21.509,15.75 21.955,15.837L29.316,17.266C29.423,17.286 29.5,17.38 29.5,17.489C29.5,17.598 29.423,17.692 29.316,17.713L21.955,19.142C21.509,19.228 21.099,19.446 20.778,19.767C20.457,20.089 20.239,20.498 20.153,20.944L18.724,28.305C18.703,28.412 18.609,28.489 18.5,28.489C18.391,28.489 18.297,28.412 18.276,28.305L16.847,20.944C16.761,20.498 16.543,20.089 16.222,19.767C15.901,19.446 15.491,19.228 15.045,19.142L7.684,17.713C7.577,17.692 7.5,17.598 7.5,17.489C7.5,17.38 7.577,17.286 7.684,17.266L15.045,15.837C15.491,15.75 15.901,15.532 16.222,15.211C16.543,14.89 16.761,14.48 16.847,14.034L18.276,6.674Z" style="fill:#f1de7f;"/></g></g></svg>