<?xml version="1.0" encoding="UTF-8" standalone="no"?><!DOCTYPE svg PUBLIC "-//W3C//DTD SVG 1.1//EN" "http://www.w3.org/Graphics/SVG/1.1/DTD/svg11.dtd"><svg width="100%" height="100%" viewBox="0 0 50 50" version="1.1" xmlns="http://www.w3.org/2000/svg" xmlns:xlink="http://www.w3.org/1999/xlink" xml:space="preserve" xmlns:serif="http://www.serif.com/" style="fill-rule:evenodd;clip-rule:evenodd;stroke-linejoin:round;stroke-miterlimit:2;"><rect id="talent-maquis" x="0" y="0" width="50" height="50" style="fill:none;"/><g id="talent-maquis1" serif:id="talent-maquis"><g id="Talent-Frame" serif:id="Talent Frame"><path d="M1,6L25,1L49,6L49,24L44,23L44,30L49,31L49,49L25,44L1,49L1,31L6,30L6,23L1,24L1,6Z" style="fill:#10273d;"/><path d="M0,5L25,0L50,5L50,25L45,24L45,29L50,30L50,50L25,45L0,50L0,30L5,29L5,24L0,25L0,5ZM2,6.64L25,2.04C25,2.04 48,6.64 48,6.64C48,6.64 48,22.56 48,22.56C48,22.56 43,21.56 43,21.56L43,30.64L48,31.64C48,31.64 48,47.56 48,47.56C48,47.56 25,42.96 25,42.96L2,47.56C2,47.56 2,31.64 2,31.64C2,31.64 7,30.64 7,30.64L7,21.56L2,22.56L2,6.64Z" style="fill:#0077af;"/></g><g id="Maquis"><path id="Maquis1" serif:id="Maquis" d="M19.094,12.281L25,9L30.906,12.281L27.625,24.374L33.999,13.968L39.53,17.343L28.468,28.545L39.53,22.311L39.671,31.076C34.702,36.451 29.812,39.091 25,38.998C20.188,39.091 15.298,36.451 10.329,31.076L10.47,22.311L21.532,28.545L10.47,17.343L16.001,13.968L22.375,24.374L19.094,12.281Z" style="fill:#f2200d;fill-rule:nonzero;"/></g></g></svg>