<?xml version="1.0" encoding="UTF-8" standalone="no"?><!DOCTYPE svg PUBLIC "-//W3C//DTD SVG 1.1//EN" "http://www.w3.org/Graphics/SVG/1.1/DTD/svg11.dtd"><svg width="100%" height="100%" viewBox="0 0 50 50" version="1.1" xmlns="http://www.w3.org/2000/svg" xmlns:xlink="http://www.w3.org/1999/xlink" xml:space="preserve" xmlns:serif="http://www.serif.com/" style="fill-rule:evenodd;clip-rule:evenodd;stroke-linejoin:round;stroke-miterlimit:2;"><rect id="talent-relationship" x="0" y="0" width="50" height="50" style="fill:none;"/><g id="talent-relationship1" serif:id="talent-relationship"><g id="Talent-Frame" serif:id="Talent Frame"><path d="M1,6L25,1L49,6L49,24L44,23L44,30L49,31L49,49L25,44L1,49L1,31L6,30L6,23L1,24L1,6Z" style="fill:#10273d;"/><path d="M0,5L25,0L50,5L50,25L45,24L45,29L50,30L50,50L25,45L0,50L0,30L5,29L5,24L0,25L0,5ZM2,6.64L25,2.04C25,2.04 48,6.64 48,6.64C48,6.64 48,22.56 48,22.56C48,22.56 43,21.56 43,21.56L43,30.64L48,31.64C48,31.64 48,47.56 48,47.56C48,47.56 25,42.96 25,42.96L2,47.56C2,47.56 2,31.64 2,31.64C2,31.64 7,30.64 7,30.64L7,21.56L2,22.56L2,6.64Z" style="fill:#0077af;"/></g><g id="Relationship"><path id="Relationship1" serif:id="Relationship" d="M18.596,18.472C17.687,19.414 16.411,20 15,20C12.24,20 10,17.76 10,15C10,12.24 12.24,10 15,10C17.76,10 20,12.24 20,15C20,15.269 19.979,15.532 19.938,15.789L31.404,21.515C32.313,20.573 33.589,19.987 35,19.987C37.76,19.987 40,22.228 40,24.987C40,27.747 37.76,29.987 35,29.987C33.591,29.987 32.317,29.403 31.407,28.464L19.937,34.206C19.979,34.465 20,34.73 20,35C20,37.76 17.76,40 15,40C12.24,40 10,37.76 10,35C10,32.24 12.24,30 15,30C16.409,30 17.683,30.584 18.593,31.524L30.063,25.782C30.021,25.523 30,25.258 30,24.987C30,24.719 30.021,24.455 30.062,24.198L18.596,18.472Z" style="fill:#f1de7f;"/></g></g></svg>