<svg xmlns="http://www.w3.org/2000/svg" xml:space="preserve" style="fill-rule:evenodd;clip-rule:evenodd;stroke-linejoin:round;stroke-miterlimit:2" viewBox="0 0 50 50"><path d="M0 0h50v50H0z" style="fill:none"/><path d="m1 6 24-5 24 5v18l-5-1v7l5 1v18l-24-5-24 5V31l5-1v-7l-5 1z" style="fill:#10273d"/><path d="m0 5 25-5 25 5v20l-5-1v5l5 1v20l-25-5-25 5V30l5-1v-5l-5 1zm2 1.64 23-4.6 23 4.6v15.92l-5-1v9.08l5 1v15.92l-23-4.6-23 4.6V31.64l5-1v-9.08l-5 1z" style="fill:#0077af"/><path d="M28.184 39.057c-1.571.021-3.198-.232-4.807-.754a4.5 4.5 0 0 1-.662.844c-.969.97-2.317 1.43-3.821 1.381-2.059-.069-4.435-1.116-6.37-3.052s-2.983-4.311-3.052-6.37c-.049-1.504.411-2.852 1.381-3.821a4.5 4.5 0 0 1 .844-.662c-.522-1.609-.775-3.237-.754-4.807-2.081-2.45-3.259-5.217-3.423-7.629-.136-1.999.414-3.768 1.656-5.011 1.243-1.242 3.012-1.792 5.011-1.656 2.412.164 5.179 1.342 7.629 3.423 4.057-.055 8.498 1.722 12.009 5.232 3.51 3.511 5.287 7.952 5.232 12.009 2.081 2.45 3.259 5.217 3.423 7.629.136 1.999-.414 3.768-1.656 5.011-1.243 1.242-3.012 1.792-5.011 1.656-2.412-.164-5.179-1.342-7.629-3.423m-8.847-27.839c-2.007.431-3.834 1.369-5.292 2.827s-2.396 3.285-2.827 5.292c-1.181-1.755-1.867-3.602-1.98-5.267-.1-1.46.248-2.769 1.156-3.676.907-.908 2.216-1.256 3.676-1.156 1.665.113 3.512.799 5.267 1.98m2.39 26.452q-.105.137-.229.26c-.643.643-1.55.91-2.546.877-1.692-.056-3.622-.958-5.211-2.548-1.59-1.589-2.492-3.519-2.548-5.211-.033-.996.234-1.903.877-2.546q.123-.123.26-.229a18.5 18.5 0 0 0 3.845 5.552 18.5 18.5 0 0 0 5.552 3.845m2.447-21.236a15.2 15.2 0 0 0-2.521-3.302q-.24-.239-.485-.465c-2.253.165-4.324 1.014-5.906 2.595s-2.43 3.653-2.595 5.906q.226.245.465.485a15.2 15.2 0 0 0 3.302 2.521 8.57 8.57 0 0 1 2.48-5.26 8.57 8.57 0 0 1 5.26-2.48m-7.696 9.761a7.6 7.6 0 0 0-1.805-.29 6 6 0 0 0-1.381.107 14 14 0 0 1-.541-2.358 16.2 16.2 0 0 0 3.717 2.467zm5.312 6.792a8.6 8.6 0 0 1-2.876-1.901 8.6 8.6 0 0 1-1.901-2.876c-.812-.359-1.629-.559-2.397-.585a4.5 4.5 0 0 0-.688.028 17 17 0 0 0 3.464 4.955 17 17 0 0 0 4.955 3.464q.04-.335.028-.688c-.026-.768-.226-1.585-.585-2.397m3.64-13.392h2.162v10.759h-.43v-6.869h-4.354v6.869h-.81v-8.176h3.432zm-.86 0h-2.572v1.722h2.572zm12.679 6.751a16.2 16.2 0 0 0-3.717-2.467 8.57 8.57 0 0 0-2.446-4.965 8.57 8.57 0 0 0-4.965-2.446 16.2 16.2 0 0 0-2.467-3.717c3.099.423 6.321 2.008 8.954 4.641s4.218 5.855 4.641 8.954m-10.948 4.008h-2.632v-6.008h2.632zm.045 6.895a14 14 0 0 1-2.358-.541c.087-.44.123-.903.107-1.381a7.6 7.6 0 0 0-.29-1.805l.074.01a16.2 16.2 0 0 0 2.467 3.717m10.987-8.417a18 18 0 0 0-.465-.485 15.2 15.2 0 0 0-3.302-2.521 8.57 8.57 0 0 1-2.48 5.26 8.57 8.57 0 0 1-5.26 2.48 15.2 15.2 0 0 0 2.521 3.302q.24.238.485.465c2.253-.165 4.324-1.014 5.906-2.595s2.43-3.653 2.595-5.906m1.449 1.831c1.181 1.755 1.867 3.602 1.98 5.267.1 1.46-.248 2.769-1.156 3.676-.907.908-2.216 1.256-3.676 1.156-1.665-.113-3.512-.799-5.267-1.98 2.007-.431 3.834-1.369 5.292-2.827s2.396-3.285 2.827-5.292" style="fill:#dbc557"/></svg>