<svg xmlns="http://www.w3.org/2000/svg" xml:space="preserve" style="fill-rule:evenodd;clip-rule:evenodd;stroke-linejoin:round;stroke-miterlimit:2" viewBox="0 0 50 50"><path d="M0 0h50v50H0z" style="fill:none"/><path d="m1 6 24-5 24 5v18l-5-1v7l5 1v18l-24-5-24 5V31l5-1v-7l-5 1z" style="fill:#10273d"/><path d="m0 5 25-5 25 5v20l-5-1v5l5 1v20l-25-5-25 5V30l5-1v-5l-5 1zm2 1.64 23-4.6 23 4.6v15.92l-5-1v9.08l5 1v15.92l-23-4.6-23 4.6V31.64l5-1v-9.08l-5 1z" style="fill:#0077af"/><path d="M17.768 34.223q1.432-2.728 2.593-4.162 1.5-1.842 2.729-1.773 1.773.068 3.275 4.093 1.023 2.729 1.91 7.096A5.7 5.7 0 0 1 25 40.5q-2.183 0-4.059-1.672t-3.173-4.605m-1.637-4.98q-.614-3.548-.614-6.209 0-4.776 1.296-8.801t3.479-6.379T25.034 5.5t4.742 2.354 3.445 6.379 1.262 8.801q0 5.322-1.637 9.756-1.501 4.23-4.094 6.345a731 731 0 0 0-.75-6.14q-.75-5.663-1.092-8.733-.613-5.117-1.569-8.801-1.365-5.049-2.865-5.049-2.867 0-6.345 18.831" style="fill:#f1de7f;fill-rule:nonzero"/></svg>