<svg xmlns="http://www.w3.org/2000/svg" xml:space="preserve" style="fill-rule:evenodd;clip-rule:evenodd;stroke-linejoin:round;stroke-miterlimit:2" viewBox="0 0 50 50"><path d="M0 0h50v50H0z" style="fill:none"/><path d="m1 6 24-5 24 5v18l-5-1v7l5 1v18l-24-5-24 5V31l5-1v-7l-5 1z" style="fill:#10273d"/><path d="m0 5 25-5 25 5v20l-5-1v5l5 1v20l-25-5-25 5V30l5-1v-5l-5 1zm2 1.64 23-4.6 23 4.6v15.92l-5-1v9.08l5 1v15.92l-23-4.6-23 4.6V31.64l5-1v-9.08l-5 1z" style="fill:#0077af"/><path d="M28.534 6.371a17 17 0 0 0-7.068 0l-.087 4.404a12.76 12.76 0 0 0-5.156 2.976l-3.856-2.126a17 17 0 0 0-3.535 6.122l3.77 2.277a12.8 12.8 0 0 0 0 5.952l-3.77 2.277a17 17 0 0 0 3.535 6.122l3.856-2.126a12.76 12.76 0 0 0 5.156 2.976l.087 4.404c2.33.495 4.738.495 7.068 0l.087-4.404a12.76 12.76 0 0 0 5.156-2.976l3.856 2.126a17 17 0 0 0 3.535-6.122l-3.77-2.277a12.8 12.8 0 0 0 0-5.952l3.77-2.277a17 17 0 0 0-3.535-6.122l-3.856 2.126a12.76 12.76 0 0 0-5.156-2.976zM25 18.75A4.25 4.25 0 0 1 29.25 23 4.25 4.25 0 0 1 25 27.25 4.25 4.25 0 0 1 20.75 23 4.25 4.25 0 0 1 25 18.75" style="fill:#f1de7f"/></svg>