<svg xmlns="http://www.w3.org/2000/svg" xml:space="preserve" style="fill-rule:evenodd;clip-rule:evenodd;stroke-linejoin:round;stroke-miterlimit:2" viewBox="0 0 50 50"><path d="M0 0h50v50H0z" style="fill:none"/><path d="m1 6 24-5 24 5v18l-5-1v7l5 1v18l-24-5-24 5V31l5-1v-7l-5 1z" style="fill:#10273d"/><path d="m0 5 25-5 25 5v20l-5-1v5l5 1v20l-25-5-25 5V30l5-1v-5l-5 1zm2 1.64 23-4.6 23 4.6v15.92l-5-1v9.08l5 1v15.92l-23-4.6-23 4.6V31.64l5-1v-9.08l-5 1z" style="fill:#0077af"/><path d="M12 32.732A1.999 1.999 0 0 1 13 29a2 2 0 0 1 1 3.732v4.536A1.999 1.999 0 0 1 13 41a2 2 0 0 1-1-3.732zm3-22A1.999 1.999 0 0 1 16 7a2 2 0 0 1 1 3.732v7.854l8 8V41h-8v-4h2v-6.586l-10-10v-9.682A1.999 1.999 0 0 1 10 7a2 2 0 0 1 1 3.732v8.854l10 10V37h2v-9.586l-8-8zm10.518 12.2a2 2 0 1 1 1.414-1.414L29 23.586V36h9.268A1.999 1.999 0 0 1 42 37a2 2 0 0 1-3.732 1H27V24.414zM38 8V7h4v10h-2.586L33 23.414V30h5.268A1.999 1.999 0 0 1 42 31a2 2 0 0 1-3.732 1H31v-9.414l7-7V10h-2.586l-6 6h-4.682A1.999 1.999 0 0 1 21 15a2 2 0 0 1 3.732-1h3.854l4-4h-7.854A1.999 1.999 0 0 1 21 9a2 2 0 0 1 3.732-1z" style="fill:#f1de7f"/></svg>