<svg xmlns="http://www.w3.org/2000/svg" xml:space="preserve" style="fill-rule:evenodd;clip-rule:evenodd;stroke-linejoin:round;stroke-miterlimit:2" viewBox="0 0 50 50"><path d="M0 0h50v50H0z" style="fill:none"/><path d="m1 6 24-5 24 5v18l-5-1v7l5 1v18l-24-5-24 5V31l5-1v-7l-5 1z" style="fill:#10273d"/><path d="m0 5 25-5 25 5v20l-5-1v5l5 1v20l-25-5-25 5V30l5-1v-5l-5 1zm2 1.64 23-4.6 23 4.6v15.92l-5-1v9.08l5 1v15.92l-23-4.6-23 4.6V31.64l5-1v-9.08l-5 1z" style="fill:#0077af"/><path d="M34.074 13.093q-1.296-2.315-4.028-3.38-.694-.14-.833-.648-.185-1.575-1.412-2.523A4.95 4.95 0 0 0 25 5.5a5.24 5.24 0 0 0-2.616.88q-1.18.786-1.551 2.268-.138.88-.74 1.065-2.824.926-4.144 3.31a16.9 16.9 0 0 0-1.829 5.116q3.843 1.667 6.574 5.694 1.158 1.806 1.852 4.815.741 2.917-1.62 4.445l2.083 7.407h1.482l.139-3.102h.787l.092 3.102h1.482l2.129-7.407q-1.25-.741-1.527-2.061a8.3 8.3 0 0 1-.139-2.615q.602-3.241 2.963-6.158 2.407-2.823 5.463-4.12a17 17 0 0 0-1.806-5.046M15.139 17.63a13.9 13.9 0 0 1 1.667-4.26q1.157-1.897 3.472-2.824 1.065-.37 1.435-1.713.741-2.453 3.333-2.407 1.528.046 2.408.926.74.695.926 1.898.139.972 1.342 1.296 1.99.834 3.056 2.269a11.3 11.3 0 0 1 1.759 3.426l-3.241 2.222-1.99.324V16.38l-.649-3.334-1.25-.833-1.99.509.324-1.852 1.25-.463.509-2.129-2.5 1.991-2.5-1.991.509 2.129 1.297.463.277 1.852-1.944-.509-1.296.833-.649 3.334v2.546l1.945 6.667q-2.361-5.371-7.5-7.963m10.787-3.056q-.556-.648-.556-.926l1.111.787.463 2.084-.463.601-1.157 6.111h-.648l-1.111-6.111-.509-.601.509-2.084 1.111-.787q0 .324-.602.926l-.231 1.482.37.972h1.574l.37-.972zm-4.352 1.898.37-3.102.787-.555 1.112.185q.879.139.879.417l-1.342.602-.834 2.546.556.787 1.528 8.102q0 .046.37.046t.417-.046l1.481-8.102.556-.787-.834-2.5q-.046-.14-.231-.232a1.04 1.04 0 0 0-.463-.092q-.602-.046-.602-.463l1.991-.463.787.555.324 3.102-2.037 8.334-1.111 1.666h-.556l-1.111-1.666zm5.046 13.009-1.018-1.62h-1.158l-1.064 1.62-.324-3.842 1.435 1.342h1.018l1.435-1.342zm.232 3.982q-.834 0-1.158-1.157-.231-.602-.416-1.436l-.093-.277h-.37l-.093.277a10 10 0 0 1-.416 1.436q-.324 1.157-1.112 1.157l.186-2.824 1.203-2.408h.834l1.203 2.408zm.787.926-1.389 5.926-.509-4.676L25 34.296l-.741 1.343-.509 4.676-1.343-5.926q1.343 0 1.852-1.019T25 31.194q.14.927.694 2.176.556 1.019 1.945 1.019M30 21.287a19 19 0 0 0-2.731 3.704l1.712-5.741 2.639-.417 3.102-2.222.324.88a9.4 9.4 0 0 0-1.574.787q-1.76 1.203-3.472 3.009m-11.111-4.306a.89.89 0 0 0-.648.278.892.892 0 0 0 0 1.297.89.89 0 0 0 .648.277.89.89 0 0 0 .648-.277.89.89 0 0 0 0-1.297.89.89 0 0 0-.648-.278" style="fill:#d1bd94;fill-rule:nonzero"/></svg>