<?xml version="1.0" encoding="UTF-8" standalone="no"?><!DOCTYPE svg PUBLIC "-//W3C//DTD SVG 1.1//EN" "http://www.w3.org/Graphics/SVG/1.1/DTD/svg11.dtd"><svg width="100%" height="100%" viewBox="0 0 50 50" version="1.1" xmlns="http://www.w3.org/2000/svg" xmlns:xlink="http://www.w3.org/1999/xlink" xml:space="preserve" xmlns:serif="http://www.serif.com/" style="fill-rule:evenodd;clip-rule:evenodd;stroke-linejoin:round;stroke-miterlimit:2;"><rect id="talent-cardassian" x="0" y="0" width="50" height="50" style="fill:none;"/><g id="talent-cardassian1" serif:id="talent-cardassian"><g id="Talent-Frame" serif:id="Talent Frame"><path d="M1,6L25,1L49,6L49,24L44,23L44,30L49,31L49,49L25,44L1,49L1,31L6,30L6,23L1,24L1,6Z" style="fill:#10273d;"/><path d="M0,5L25,0L50,5L50,25L45,24L45,29L50,30L50,50L25,45L0,50L0,30L5,29L5,24L0,25L0,5ZM2,6.64L25,2.04C25,2.04 48,6.64 48,6.64C48,6.64 48,22.56 48,22.56C48,22.56 43,21.56 43,21.56L43,30.64L48,31.64C48,31.64 48,47.56 48,47.56C48,47.56 25,42.96 25,42.96L2,47.56C2,47.56 2,31.64 2,31.64C2,31.64 7,30.64 7,30.64L7,21.56L2,22.56L2,6.64Z" style="fill:#0077af;"/></g><g id="Cardassian"><path id="Cardassian1" serif:id="Cardassian" d="M34.074,13.093C33.21,11.549 31.867,10.423 30.046,9.713C29.583,9.62 29.306,9.404 29.213,9.065C29.09,8.015 28.619,7.174 27.801,6.542C26.983,5.909 26.049,5.562 25,5.5C24.043,5.562 23.171,5.855 22.384,6.38C21.597,6.904 21.08,7.66 20.833,8.648C20.741,9.235 20.494,9.59 20.093,9.713C18.21,10.33 16.829,11.434 15.949,13.023C15.069,14.613 14.46,16.318 14.12,18.139C16.682,19.25 18.873,21.148 20.694,23.833C21.466,25.037 22.083,26.642 22.546,28.648C23.04,30.593 22.5,32.074 20.926,33.093L23.009,40.5L24.491,40.5L24.63,37.398L25.417,37.398L25.509,40.5L26.991,40.5L29.12,33.093C28.287,32.599 27.778,31.912 27.593,31.032C27.407,30.153 27.361,29.281 27.454,28.417C27.855,26.256 28.843,24.204 30.417,22.259C32.022,20.377 33.843,19.003 35.88,18.139C35.54,16.349 34.938,14.667 34.074,13.093ZM15.139,17.63C15.448,16.148 16.003,14.728 16.806,13.37C17.577,12.105 18.735,11.164 20.278,10.546C20.988,10.299 21.466,9.728 21.713,8.833C22.207,7.198 23.318,6.395 25.046,6.426C26.065,6.457 26.867,6.765 27.454,7.352C27.948,7.815 28.256,8.448 28.38,9.25C28.472,9.898 28.92,10.33 29.722,10.546C31.049,11.102 32.068,11.858 32.778,12.815C33.549,13.833 34.136,14.975 34.537,16.241L31.296,18.463L29.306,18.787L29.306,16.38L28.657,13.046L27.407,12.213L25.417,12.722L25.741,10.87L26.991,10.407L27.5,8.278L25,10.269L22.5,8.278L23.009,10.407L24.306,10.87L24.583,12.722L22.639,12.213L21.343,13.046L20.694,16.38L20.694,18.926L22.639,25.593C21.065,22.012 18.565,19.358 15.139,17.63ZM25.926,14.574C25.556,14.142 25.37,13.833 25.37,13.648L26.481,14.435L26.944,16.519L26.481,17.12L25.324,23.231L24.676,23.231L23.565,17.12L23.056,16.519L23.565,14.435L24.676,13.648C24.676,13.864 24.475,14.173 24.074,14.574L23.843,16.056L24.213,17.028L25.787,17.028L26.157,16.056L25.926,14.574ZM21.574,16.472L21.944,13.37L22.731,12.815L23.843,13C24.429,13.093 24.722,13.231 24.722,13.417L23.38,14.019L22.546,16.565L23.102,17.352L24.63,25.454C24.63,25.485 24.753,25.5 25,25.5C25.247,25.5 25.386,25.485 25.417,25.454L26.898,17.352L27.454,16.565L26.62,14.065C26.59,13.972 26.512,13.895 26.389,13.833C26.265,13.772 26.111,13.741 25.926,13.741C25.525,13.71 25.324,13.556 25.324,13.278L27.315,12.815L28.102,13.37L28.426,16.472L26.389,24.806L25.278,26.472L24.722,26.472L23.611,24.806L21.574,16.472ZM26.62,29.481L25.602,27.861L24.444,27.861L23.38,29.481L23.056,25.639L24.491,26.981L25.509,26.981L26.944,25.639L26.62,29.481ZM26.852,33.463C26.296,33.463 25.91,33.077 25.694,32.306C25.54,31.904 25.401,31.426 25.278,30.87L25.185,30.593L24.815,30.593L24.722,30.87C24.599,31.426 24.46,31.904 24.306,32.306C24.09,33.077 23.719,33.463 23.194,33.463L23.38,30.639L24.583,28.231L25.417,28.231L26.62,30.639L26.852,33.463ZM27.639,34.389L26.25,40.315L25.741,35.639L25,34.296L24.259,35.639L23.75,40.315L22.407,34.389C23.302,34.389 23.92,34.049 24.259,33.37C24.599,32.691 24.846,31.966 25,31.194C25.093,31.812 25.324,32.537 25.694,33.37C26.065,34.049 26.713,34.389 27.639,34.389ZM30,21.287C28.951,22.398 28.04,23.633 27.269,24.991L28.981,19.25L31.62,18.833L34.722,16.611L35.046,17.491C34.491,17.707 33.966,17.969 33.472,18.278C32.299,19.08 31.142,20.083 30,21.287ZM18.889,16.981C18.642,16.981 18.426,17.074 18.241,17.259C18.056,17.444 17.963,17.66 17.963,17.907C17.963,18.154 18.056,18.37 18.241,18.556C18.426,18.741 18.642,18.833 18.889,18.833C19.136,18.833 19.352,18.741 19.537,18.556C19.722,18.37 19.815,18.154 19.815,17.907C19.815,17.66 19.722,17.444 19.537,17.259C19.352,17.074 19.136,16.981 18.889,16.981Z" style="fill:#d1bd94;fill-rule:nonzero;"/></g></g></svg>