<svg xmlns="http://www.w3.org/2000/svg" xml:space="preserve" style="fill-rule:evenodd;clip-rule:evenodd;stroke-linejoin:round;stroke-miterlimit:2" viewBox="0 0 50 50"><path d="M0 0h50v50H0z" style="fill:none"/><path d="m1 6 24-5 24 5v18l-5-1v7l5 1v18l-24-5-24 5V31l5-1v-7l-5 1z" style="fill:#10273d"/><path d="m0 5 25-5 25 5v20l-5-1v5l5 1v20l-25-5-25 5V30l5-1v-5l-5 1zm2 1.64 23-4.6 23 4.6v15.92l-5-1v9.08l5 1v15.92l-23-4.6-23 4.6V31.64l5-1v-9.08l-5 1z" style="fill:#0077af"/><path d="M10.374 9.751 10 10 7 8l3-2 3 2-1.638 1.092L43 34.444v1.512L11.321 9.119l-.075.05L43 38.978V42h-1.813L11.138 9.241l-.042.028L39.374 42h-2.901L11.025 9.317l-.077.051L33.571 42h-2.175L10.887 9.409l-.044.029L29.945 42h-2.176L10.775 9.483l-.073.049L25.593 42h-2.175L10.625 9.583l-.112.075L20.516 42h-3.263z" style="fill:#f1de7f"/></svg>