<svg xmlns="http://www.w3.org/2000/svg" xml:space="preserve" style="fill-rule:evenodd;clip-rule:evenodd;stroke-linejoin:round;stroke-miterlimit:2" viewBox="0 0 50 50"><path d="M0 0h50v50H0z" style="fill:none"/><path d="m1 6 24-5 24 5v18l-5-1v7l5 1v18l-24-5-24 5V31l5-1v-7l-5 1z" style="fill:#10273d"/><path d="m0 5 25-5 25 5v20l-5-1v5l5 1v20l-25-5-25 5V30l5-1v-5l-5 1zm2 1.64 23-4.6 23 4.6v15.92l-5-1v9.08l5 1v15.92l-23-4.6-23 4.6V31.64l5-1v-9.08l-5 1z" style="fill:#0077af"/><path d="m22.003 18.876 20.4 5.656v.048L25.483 41.5q-.048 0-.048-.048-4.447-16.05-5.656-20.498.725-.242 1.402-.87.58-.677.822-1.208m10.055 12.762-6.285 9.089 7.155-8.799 8.799-7.155-9.041 6.285-11.167-10.539zm6.478-8.992-10.877-2.997q.048-.338.048-.967 0-2.175-1.063-4.012a7.9 7.9 0 0 0-2.877-2.901q-1.812-1.063-3.988-1.063-2.175 0-4.012 1.063a7.8 7.8 0 0 0-2.901 2.901 7.8 7.8 0 0 0-1.064 3.988q0 2.152 1.064 3.988a7.8 7.8 0 0 0 2.901 2.901 7.87 7.87 0 0 0 4.012 1.063q.483 0 .725-.048l2.997 10.877h-.435q-4.206 0-7.831-2.127a15.05 15.05 0 0 1-5.511-5.511 15.2 15.2 0 0 1-2.127-7.831q0-4.206 2.127-7.832a15.06 15.06 0 0 1 5.511-5.511A15.2 15.2 0 0 1 23.066 6.5q4.206 0 7.832 2.127a15.1 15.1 0 0 1 5.511 5.511 15.2 15.2 0 0 1 2.127 7.832zm-20.159-2.03q-1.353 0-2.345-.991-.99-.991-.991-2.369 0-1.377.991-2.369.992-.99 2.345-.991 1.353 0 2.345.991.99.992.991 2.369 0 1.378-.967 2.369t-2.369.991" style="fill:#dbba57;fill-rule:nonzero"/></svg>