<svg xmlns="http://www.w3.org/2000/svg" xml:space="preserve" style="fill-rule:evenodd;clip-rule:evenodd;stroke-linejoin:round;stroke-miterlimit:2" viewBox="0 0 50 50"><path d="M0 0h50v50H0z" style="fill:none"/><path d="m1 6 24-5 24 5v18l-5-1v7l5 1v18l-24-5-24 5V31l5-1v-7l-5 1z" style="fill:#10273d"/><path d="m0 5 25-5 25 5v20l-5-1v5l5 1v20l-25-5-25 5V30l5-1v-5l-5 1zm2 1.64 23-4.6 23 4.6v15.92l-5-1v9.08l5 1v15.92l-23-4.6-23 4.6V31.64l5-1v-9.08l-5 1z" style="fill:#0077af"/><path d="M23.71 32.604c0 .064-.002.104 0 .145l.263 6.48c.019.472.021.945.06 1.414.042.506.395.831.878.855l.076.002c.513 0 .852-.265.958-.758.025-.113.033-.231.037-.347.017-.519.027-1.037.047-1.556q.091-2.446.195-4.891c.005-.123-.034-.175-.138-.222-.428-.197-.852-.402-1.278-.604zm-1.58-6.049a.7.7 0 0 0-.212.033c-1.776.543-2.354 2.601-1.067 3.909.29.294.64.555 1.007.742 1.125.574 2.272 1.105 3.411 1.651.367.177.74.345 1.103.528.264.134.504.303.581.615.051.205-.01.305-.214.332-.111.015-.143.061-.146.168q-.02.647-.049 1.293l-.012.252c.704-.017 1.312-.195 1.742-.766.561-.745.501-1.828-.133-2.61-.358-.441-.83-.723-1.335-.961-1.317-.622-2.634-1.241-3.94-1.882-.304-.15-.573-.374-.85-.576-.129-.095-.17-.244-.166-.405.006-.305.145-.516.466-.623.201-.066.417-.086.653-.132q-.058-.62-.12-1.246c-.004-.036-.021-.093-.046-.103-.223-.084-.423-.219-.673-.219m.439 5.595a.74.74 0 0 0-.352.093c-.813.422-1.332 1.266-1.211 2.081.176 1.183 1.253 1.741 2.253 1.741q.1 0 .199-.008l-.07-1.646c-.183-.043-.356-.072-.52-.128-.071-.024-.155-.093-.175-.159-.034-.111.016-.223.134-.273.159-.068.323-.125.519-.198-.02-.384-.039-.784-.063-1.185-.002-.03-.022-.075-.047-.086-.222-.105-.428-.232-.667-.232m-.477-11.668c-.215.031-.417.048-.613.091-.946.212-1.613.752-1.884 1.699-.276.969-.1 1.852.624 2.584.533.539 1.208.869 1.892 1.169 1.466.644 2.94 1.269 4.409 1.907.255.111.509.232.748.374.249.148.455.353.547.638.13.404.06.781-.444.909-.158.04-.318.071-.495.109-.022.29-.04.575-.065.859-.042.453-.044.453.37.653.052.026.102.058.157.078a.3.3 0 0 0 .106.023l.025-.002c.583-.105 1.103-.335 1.504-.786.698-.786.788-1.883.225-2.827-.416-.696-1.032-1.161-1.767-1.478-1.576-.682-3.158-1.351-4.727-2.05-.427-.19-.822-.459-1.217-.715-.123-.08-.255-.226-.281-.361-.134-.697.077-1.032.718-1.142.129-.022.26-.033.395-.049zm1.181 6.508c.04.442.078.865.114 1.289.036.429.076.859.103 1.289.009.127.057.191.172.244.566.26 1.127.531 1.69.797.335.159.672.316 1.02.48.012-.072.023-.122.027-.174.062-.795.121-1.592.186-2.387.009-.104-.034-.143-.119-.179q-1.531-.66-3.062-1.32c-.038-.017-.08-.024-.131-.039m4.606-6.318h-.008l-.221 1.673c.089.005.146.007.204.012.39.039.737.168 1.061.403.415.3.275 1.302-.279 1.416a6 6 0 0 1-.86.122c-.355.022-.362.006-.403.351-.051.433-.093.866-.14 1.311.064.01.114.025.16.025h.01c.423-.018.854-.001 1.27-.068a2.56 2.56 0 0 0 2.11-3.12c-.222-.97-.868-1.57-1.776-1.911a3.2 3.2 0 0 0-1.128-.214M25.328 6.5h-.665c-.032.011-.064.026-.097.031a3.07 3.07 0 0 0-2.031 1.155c-1.145 1.432-.832 3.483.682 4.56.156.111.308.236.427.383.071.087.13.255.091.341-.036.082-.204.138-.318.146a7 7 0 0 1-.425.011l-.519-.003c-.609.001-1.02.457-.929 1.063.256 1.7.539 3.395.785 5.096.224 1.551.415 3.107.615 4.662.015.119.051.183.165.231.612.257 1.22.524 1.83.787l1.893.816c.013-.088.026-.161.034-.234.03-.267.053-.534.086-.8.157-1.267.304-2.535.476-3.799.192-1.403.403-2.803.613-4.203.128-.847.28-1.69.403-2.537.092-.636-.308-1.081-.943-1.082l-.5.001q-.23 0-.463-.006c-.314-.011-.418-.205-.223-.448.139-.174.321-.319.5-.455.975-.735 1.433-1.713 1.302-2.921-.126-1.166-.76-2.013-1.826-2.507-.3-.14-.641-.194-.963-.288m3.63 8.174c-.107 0-.18.005-.201.143-.144.939-.297 1.876-.446 2.814-.067.425.034.629.324.629q.136 0 .327-.059 4.23-1.3 8.46-2.608a3.2 3.2 0 0 0 .636-.279c.246-.139.427-.351.561-.639h-6.404zm-7.97-.003h-.001q-3.058.005-6.116.004H11.36c.061.1.097.165.139.226.253.372.629.559 1.044.687q4.237 1.306 8.476 2.61.197.061.335.061c.293 0 .393-.206.324-.636-.146-.909-.298-1.817-.434-2.727-.025-.173-.079-.225-.256-.225m-1.436-3.193H9.619c.032.065.056.116.083.165.45.823.902 1.645 1.347 2.47.064.118.133.16.269.16q3.333-.005 6.665-.004h3.145c-.039-.494-.152-.921-.53-1.241-.174-.147-.327-.317-.488-.478-.299-.299-.678-.554-.558-1.072m20.819 0h-9.9c-.007.039-.019.073-.017.106.021.314-.125.543-.347.748-.282.262-.546.542-.824.809-.319.306-.374.705-.422 1.12.061.003.106.008.152.008q4.848 0 9.695.002c.108 0 .165-.032.216-.128.457-.845.921-1.687 1.383-2.531.021-.039.039-.08.064-.134M13.322 8.077l-4.162.002c-.482 0-.799.298-.798.78 0 .19.05.397.135.567.251.499.534.982.796 1.476.062.119.13.163.267.163h.001q3.408-.004 6.817-.003h3.138c.008-.041.016-.063.016-.085 0-.56.005-1.12-.003-1.68-.006-.416-.226-.714-.57-.925-.353-.218-.747-.292-1.154-.293zm24.133.001q-2.664-.002-5.327.009a2.6 2.6 0 0 0-.85.169c-.572.205-.82.597-.821 1.204v1.602h9.94l.075.003a.1.1 0 0 0 .046-.006c.045-.013.106-.033.125-.068q.5-.949.995-1.901v-.35c-.111-.397-.334-.662-.781-.662z" style="fill:#3db8f5;fill-rule:nonzero"/></svg>