<?xml version="1.0" encoding="UTF-8" standalone="no"?><!DOCTYPE svg PUBLIC "-//W3C//DTD SVG 1.1//EN" "http://www.w3.org/Graphics/SVG/1.1/DTD/svg11.dtd"><svg width="100%" height="100%" viewBox="0 0 50 50" version="1.1" xmlns="http://www.w3.org/2000/svg" xmlns:xlink="http://www.w3.org/1999/xlink" xml:space="preserve" xmlns:serif="http://www.serif.com/" style="fill-rule:evenodd;clip-rule:evenodd;stroke-linejoin:round;stroke-miterlimit:2;"><rect id="talent-reason" x="0" y="0" width="50" height="50" style="fill:none;"/><g id="talent-reason1" serif:id="talent-reason"><g id="Talent-Frame" serif:id="Talent Frame"><path d="M1,6L25,1L49,6L49,24L44,23L44,30L49,31L49,49L25,44L1,49L1,31L6,30L6,23L1,24L1,6Z" style="fill:#10273d;"/><path d="M0,5L25,0L50,5L50,25L45,24L45,29L50,30L50,50L25,45L0,50L0,30L5,29L5,24L0,25L0,5ZM2,6.64L25,2.04C25,2.04 48,6.64 48,6.64C48,6.64 48,22.56 48,22.56C48,22.56 43,21.56 43,21.56L43,30.64L48,31.64C48,31.64 48,47.56 48,47.56C48,47.56 25,42.96 25,42.96L2,47.56C2,47.56 2,31.64 2,31.64C2,31.64 7,30.64 7,30.64L7,21.56L2,22.56L2,6.64Z" style="fill:#0077af;"/></g><g id="Reason"><path id="Reason1" serif:id="Reason" d="M11.056,14.274L11.308,13.979C13.124,11.963 15.682,10.771 18.394,10.678C20.84,10.593 23.51,10.501 26.071,10.413C27.083,10.378 28.078,10.445 29.045,10.608L29.045,11C29.045,13.209 27.255,15 25.045,15C25.045,15 25.043,14.999 25.043,15C25.043,16 25.043,16 25.043,17C25.044,17 25.045,17 25.045,17C28.332,17 31.002,14.357 31.043,11.081C33.352,11.799 35.443,13.063 37.142,14.749C35.296,15.771 34.045,17.739 34.045,20C34.045,20.001 34.045,20.001 34.045,20.002C34.045,21.593 34.677,23.118 35.802,24.243C36.927,25.368 38.453,26 40.043,26C40.045,25 40.045,24 40.045,24L40.043,24C38.983,24 37.966,23.579 37.216,22.829C36.467,22.079 36.045,21.062 36.045,20.002C36.045,20.001 36.045,20.001 36.045,20C36.045,18.334 37.064,16.906 38.512,16.305C39.688,17.841 40.578,19.624 41.094,21.587C41.232,22.108 41.366,22.62 41.497,23.117C41.878,24.563 41.591,26.104 40.715,27.317C39.839,28.529 38.467,29.286 36.974,29.379C35.018,29.502 32.898,29.634 31.122,29.745C30.414,29.789 29.718,29.909 29.045,30.1L29.045,27L27.045,27L27.045,30.901C26.026,31.442 25.099,32.162 24.313,33.036L24.045,33.333L24.045,27C24.045,24.791 25.836,23 28.045,23C28.046,23 28.047,23 28.047,23C29.108,23 30.125,23.421 30.874,24.171C31.624,24.921 32.045,25.938 32.045,26.998L32.045,27C32.045,27 33.045,27 34.045,26.998C34.045,25.407 33.413,23.882 32.289,22.757C31.164,21.632 29.638,21 28.047,21C28.047,21 28.046,21 28.045,21C24.732,21 22.045,23.686 22.045,27L22.045,35.556L19.229,38.684C19.17,38.75 19.109,38.814 19.045,38.874L19.045,35C19.045,31.686 16.359,29 13.045,29C13.045,29 13.044,29 13.043,29C13.043,30 13.043,30 13.043,31C13.043,31.001 13.045,31 13.045,31C15.255,31 17.045,32.791 17.045,35L17.045,39.924C16.794,39.974 16.536,40 16.276,40C16.275,40 16.275,40 16.275,39.994C14.322,39.994 12.601,38.708 12.049,36.834C11.01,33.438 9.475,28.113 9.045,25L15.045,25C18.359,25 21.045,22.314 21.045,19C21.045,18.999 21.045,18.999 21.045,18.998C21.045,17.407 20.413,15.882 19.289,14.757C18.164,13.632 16.638,13 15.047,13C15.045,14 15.045,15 15.045,15L15.047,15C16.108,15 17.125,15.421 17.874,16.171C18.624,16.921 19.045,17.938 19.045,18.998C19.045,18.999 19.045,18.999 19.045,19C19.045,21.209 17.255,23 15.045,23L8.855,23C8.818,22.478 8.789,21.931 8.763,21.37C8.646,19.707 8.948,18.058 9.621,16.567C9.913,17.184 10.311,17.752 10.802,18.243C11.927,19.368 13.453,20 15.043,20C15.045,19 15.045,18 15.045,18L15.043,18C13.983,18 12.966,17.579 12.216,16.829C11.531,16.144 11.12,15.235 11.056,14.274Z" style="fill:#f1de7f;"/></g></g></svg>