<?xml version="1.0" encoding="UTF-8" standalone="no"?><!DOCTYPE svg PUBLIC "-//W3C//DTD SVG 1.1//EN" "http://www.w3.org/Graphics/SVG/1.1/DTD/svg11.dtd"><svg width="100%" height="100%" viewBox="0 0 50 50" version="1.1" xmlns="http://www.w3.org/2000/svg" xmlns:xlink="http://www.w3.org/1999/xlink" xml:space="preserve" xmlns:serif="http://www.serif.com/" style="fill-rule:evenodd;clip-rule:evenodd;stroke-linejoin:round;stroke-miterlimit:2;"><rect id="talent-defense" x="0" y="0" width="50" height="50" style="fill:none;"/><g id="talent-defense1" serif:id="talent-defense"><g id="Talent-Frame" serif:id="Talent Frame"><path d="M1,6L25,1L49,6L49,24L44,23L44,30L49,31L49,49L25,44L1,49L1,31L6,30L6,23L1,24L1,6Z" style="fill:#10273d;"/><path d="M0,5L25,0L50,5L50,25L45,24L45,29L50,30L50,50L25,45L0,50L0,30L5,29L5,24L0,25L0,5ZM2,6.64L25,2.04C25,2.04 48,6.64 48,6.64C48,6.64 48,22.56 48,22.56C48,22.56 43,21.56 43,21.56L43,30.64L48,31.64C48,31.64 48,47.56 48,47.56C48,47.56 25,42.96 25,42.96L2,47.56C2,47.56 2,31.64 2,31.64C2,31.64 7,30.64 7,30.64L7,21.56L2,22.56L2,6.64Z" style="fill:#0077af;"/></g><g id="Defense"><path id="Defense1" serif:id="Defense" d="M27,40L23,40L22,37L8,35.833L9,25.833L11,26.833L11,30.833C11,30.833 20.333,31.972 25,32C29.667,32.028 39,31 39,31L39,27L41,26L42,36L28,37L27,40ZM18,20L23,18L23,28L18,26L18,20ZM32,20L27,18L27,28L32,26L32,20ZM27,6L23,6L22,9L8,10L9,20L11,19L11,15C11,15 20.333,14 25,14C29.667,14 39,15 39,15L39,19L41,20L42,10L28,9L27,6Z" style="fill:#f1de7f;"/></g></g></svg>