<svg xmlns="http://www.w3.org/2000/svg" xml:space="preserve" style="fill-rule:evenodd;clip-rule:evenodd;stroke-linejoin:round;stroke-miterlimit:2" viewBox="0 0 50 50"><path d="M0 0h50v50H0z" style="fill:none"/><path d="m1 6 24-5 24 5v18l-5-1v7l5 1v18l-24-5-24 5V31l5-1v-7l-5 1z" style="fill:#10273d"/><path d="m0 5 25-5 25 5v20l-5-1v5l5 1v20l-25-5-25 5V30l5-1v-5l-5 1zm2 1.64 23-4.6 23 4.6v15.92l-5-1v9.08l5 1v15.92l-23-4.6-23 4.6V31.64l5-1v-9.08l-5 1z" style="fill:#0077af"/><path d="m11.056 14.274.252-.295a10 10 0 0 1 7.086-3.301l7.677-.265a15 15 0 0 1 2.974.195V11a4 4 0 0 1-4 4h-.002v2h.002a5.997 5.997 0 0 0 5.998-5.919c2.309.718 4.4 1.982 6.099 3.668A6 6 0 0 0 34.045 20v.002A5.997 5.997 0 0 0 40.043 26l.002-2h-.002a4 4 0 0 1-3.998-3.998V20a4 4 0 0 1 2.467-3.695 14.9 14.9 0 0 1 2.582 5.282l.403 1.53a5 5 0 0 1-4.523 6.262l-5.852.366a10 10 0 0 0-2.077.355V27h-2v3.901a10 10 0 0 0-2.732 2.135l-.268.297V27a4 4 0 0 1 4-4h.002a3.995 3.995 0 0 1 3.998 3.998V27l2-.002A6 6 0 0 0 28.047 21h-.002a6 6 0 0 0-6 6v8.556l-2.816 3.128q-.088.1-.184.19V35a6 6 0 0 0-6-6h-.002v2h.002a4 4 0 0 1 4 4v4.924a4 4 0 0 1-.769.076l-.001-.006a4.41 4.41 0 0 1-4.226-3.16C11.01 33.438 9.475 28.113 9.045 25h6a6 6 0 0 0 6-6v-.002A6 6 0 0 0 15.047 13l-.002 2h.002a3.995 3.995 0 0 1 3.998 3.998V19a4 4 0 0 1-4 4h-6.19a67 67 0 0 1-.092-1.63 10 10 0 0 1 .858-4.803A6 6 0 0 0 15.043 20l.002-2h-.002a4 4 0 0 1-3.987-3.726" style="fill:#f1de7f"/></svg>