<?xml version="1.0" encoding="UTF-8" standalone="no"?><!DOCTYPE svg PUBLIC "-//W3C//DTD SVG 1.1//EN" "http://www.w3.org/Graphics/SVG/1.1/DTD/svg11.dtd"><svg width="100%" height="100%" viewBox="0 0 50 50" version="1.1" xmlns="http://www.w3.org/2000/svg" xmlns:xlink="http://www.w3.org/1999/xlink" xml:space="preserve" xmlns:serif="http://www.serif.com/" style="fill-rule:evenodd;clip-rule:evenodd;stroke-linejoin:round;stroke-miterlimit:2;"><rect id="talent-tractor-beam" x="0" y="0" width="50" height="50" style="fill:none;"/><g id="talent-tractor-beam1" serif:id="talent-tractor-beam"><g id="Talent-Frame" serif:id="Talent Frame"><path d="M1,6L25,1L49,6L49,24L44,23L44,30L49,31L49,49L25,44L1,49L1,31L6,30L6,23L1,24L1,6Z" style="fill:#10273d;"/><path d="M0,5L25,0L50,5L50,25L45,24L45,29L50,30L50,50L25,45L0,50L0,30L5,29L5,24L0,25L0,5ZM2,6.64L25,2.04C25,2.04 48,6.64 48,6.64C48,6.64 48,22.56 48,22.56C48,22.56 43,21.56 43,21.56L43,30.64L48,31.64C48,31.64 48,47.56 48,47.56C48,47.56 25,42.96 25,42.96L2,47.56C2,47.56 2,31.64 2,31.64C2,31.64 7,30.64 7,30.64L7,21.56L2,22.56L2,6.64Z" style="fill:#0077af;"/></g><g id="Traktor-Beam" serif:id="Traktor Beam"><path id="Traktor-Beam1" serif:id="Traktor Beam" d="M10.374,9.751L10,10L7,8L10,6L13,8L11.362,9.092L43,34.444L43,35.956L11.321,9.119L11.246,9.169L43,38.978L43,42L41.187,42L11.138,9.241L11.096,9.269L39.374,42L36.473,42L11.025,9.317L10.948,9.368L33.571,42L31.396,42L10.887,9.409L10.843,9.438L29.945,42L27.769,42L10.775,9.483L10.702,9.532L25.593,42L23.418,42L10.625,9.583L10.513,9.658L20.516,42L17.253,42L10.374,9.751Z" style="fill:#f1de7f;"/></g></g></svg>