<?xml version="1.0" encoding="UTF-8" standalone="no"?><!DOCTYPE svg PUBLIC "-//W3C//DTD SVG 1.1//EN" "http://www.w3.org/Graphics/SVG/1.1/DTD/svg11.dtd"><svg width="100%" height="100%" viewBox="0 0 50 50" version="1.1" xmlns="http://www.w3.org/2000/svg" xmlns:xlink="http://www.w3.org/1999/xlink" xml:space="preserve" xmlns:serif="http://www.serif.com/" style="fill-rule:evenodd;clip-rule:evenodd;stroke-linejoin:round;stroke-miterlimit:2;"><rect id="talent-core" x="0" y="0" width="50" height="50" style="fill:none;"/><g id="talent-core1" serif:id="talent-core"><g id="Talent-Frame" serif:id="Talent Frame"><path d="M1,6L25,1L49,6L49,24L44,23L44,30L49,31L49,49L25,44L1,49L1,31L6,30L6,23L1,24L1,6Z" style="fill:#10273d;"/><path d="M0,5L25,0L50,5L50,25L45,24L45,29L50,30L50,50L25,45L0,50L0,30L5,29L5,24L0,25L0,5ZM2,6.64L25,2.04C25,2.04 48,6.64 48,6.64C48,6.64 48,22.56 48,22.56C48,22.56 43,21.56 43,21.56L43,30.64L48,31.64C48,31.64 48,47.56 48,47.56C48,47.56 25,42.96 25,42.96L2,47.56C2,47.56 2,31.64 2,31.64C2,31.64 7,30.64 7,30.64L7,21.56L2,22.56L2,6.64Z" style="fill:#0077af;"/></g><g id="Core"><path id="Core1" serif:id="Core" d="M24.644,5.772C24.677,5.602 24.826,5.478 25,5.478C25.174,5.478 25.323,5.602 25.356,5.772L27.632,17.497C27.77,18.207 28.117,18.86 28.629,19.371C29.14,19.883 29.793,20.23 30.503,20.368L42.228,22.644C42.398,22.677 42.522,22.826 42.522,23C42.522,23.174 42.398,23.323 42.228,23.356L30.503,25.632C29.793,25.77 29.14,26.117 28.629,26.629C28.117,27.14 27.77,27.793 27.632,28.503L25.356,40.228C25.323,40.398 25.174,40.522 25,40.522C24.826,40.522 24.677,40.398 24.644,40.228L22.368,28.503C22.23,27.793 21.883,27.14 21.371,26.629C20.86,26.117 20.207,25.77 19.497,25.632L7.772,23.356C7.602,23.323 7.478,23.174 7.478,23C7.478,22.826 7.602,22.677 7.772,22.644L19.497,20.368C20.207,20.23 20.86,19.883 21.371,19.371C21.883,18.86 22.23,18.207 22.368,17.497L24.644,5.772Z" style="fill:#f1de7f;"/></g></g></svg>