<svg xmlns="http://www.w3.org/2000/svg" xml:space="preserve" style="fill-rule:evenodd;clip-rule:evenodd;stroke-linejoin:round;stroke-miterlimit:2" viewBox="0 0 50 50"><path d="M0 0h50v50H0z" style="fill:none"/><path d="m1 6 24-5 24 5v18l-5-1v7l5 1v18l-24-5-24 5V31l5-1v-7l-5 1z" style="fill:#10273d"/><path d="m0 5 25-5 25 5v20l-5-1v5l5 1v20l-25-5-25 5V30l5-1v-5l-5 1zm2 1.64 23-4.6 23 4.6v15.92l-5-1v9.08l5 1v15.92l-23-4.6-23 4.6V31.64l5-1v-9.08l-5 1z" style="fill:#0077af"/><path d="M19.907 29.741h6.991v-8.056h2.176v8.056h1.574v-8.056h2.176v8.056H42.5v1.528l-.741.925h-8.935v8.334h-2.176v-8.334h-1.574v8.334h-2.176v-8.334h-6.991q-5.139 0-8.773-3.611-3.634-3.61-3.634-8.75 0-2.175.787-4.305l-.556-.926 1.065-1.158h.51a12.24 12.24 0 0 1 4.398-4.305 12.2 12.2 0 0 1 6.227-1.667q3.355 0 6.18 1.667 2.963 1.806 4.445 4.305h7.5q1.434.046 2.87 1.713 1.342 1.482 1.435 2.917l-.741.741h-6.389v1.204l-.555.601-9.398.047q-.37 1.99-1.852 3.31-1.482 1.319-3.519 1.319-2.314 0-3.888-1.62-1.575-1.62-1.575-3.843 0-1.805 1.204-3.379h-5.046A9.6 9.6 0 0 0 10 19.833q0 4.075 2.894 6.991 2.893 2.917 7.013 2.917m7.639-16.297q-2.87-3.471-7.639-3.472-4.583 0-7.592 3.472z" style="fill:#ccc;fill-rule:nonzero"/></svg>