<?xml version="1.0" encoding="UTF-8" standalone="no"?><!DOCTYPE svg PUBLIC "-//W3C//DTD SVG 1.1//EN" "http://www.w3.org/Graphics/SVG/1.1/DTD/svg11.dtd"><svg width="100%" height="100%" viewBox="0 0 50 50" version="1.1" xmlns="http://www.w3.org/2000/svg" xmlns:xlink="http://www.w3.org/1999/xlink" xml:space="preserve" xmlns:serif="http://www.serif.com/" style="fill-rule:evenodd;clip-rule:evenodd;stroke-linejoin:round;stroke-miterlimit:2;"><rect id="talent-presence" x="0" y="0" width="50" height="50" style="fill:none;"/><g id="talent-presence1" serif:id="talent-presence"><g id="Talent-Frame" serif:id="Talent Frame"><path d="M1,6L25,1L49,6L49,24L44,23L44,30L49,31L49,49L25,44L1,49L1,31L6,30L6,23L1,24L1,6Z" style="fill:#10273d;"/><path d="M0,5L25,0L50,5L50,25L45,24L45,29L50,30L50,50L25,45L0,50L0,30L5,29L5,24L0,25L0,5ZM2,6.64L25,2.04C25,2.04 48,6.64 48,6.64C48,6.64 48,22.56 48,22.56C48,22.56 43,21.56 43,21.56L43,30.64L48,31.64C48,31.64 48,47.56 48,47.56C48,47.56 25,42.96 25,42.96L2,47.56C2,47.56 2,31.64 2,31.64C2,31.64 7,30.64 7,30.64L7,21.56L2,22.56L2,6.64Z" style="fill:#0077af;"/></g><g id="Presence"><path id="Presence1" serif:id="Presence" d="M25,24C21.689,24 19,21.311 19,18C19,14.689 21.689,12 25,12C28.311,12 31,14.689 31,18C31,21.311 28.311,24 25,24C29.971,24 34,31.163 34,40L16,40C16,31.163 20.029,24 25,24ZM31.428,22.866L34.892,24.866L35.892,23.134L32.428,21.134L31.428,22.866ZM17.572,21.134L14.108,23.134L15.108,24.866L18.572,22.866L17.572,21.134ZM33,19L37,19L37,17L33,17L33,19ZM17,17L13,17L13,19L17,19L17,17ZM18.572,13.134L15.108,11.134L14.108,12.866L17.572,14.866L18.572,13.134ZM32.428,14.866L35.892,12.866L34.892,11.134L31.428,13.134L32.428,14.866ZM21.866,10.572L19.866,7.108L18.134,8.108L20.134,11.572L21.866,10.572ZM29.866,11.572L31.866,8.108L30.134,7.108L28.134,10.572L29.866,11.572ZM26,10L26,6L24,6L24,10L26,10Z" style="fill:#f1de7f;"/></g></g></svg>