<?xml version="1.0" encoding="UTF-8" standalone="no"?><!DOCTYPE svg PUBLIC "-//W3C//DTD SVG 1.1//EN" "http://www.w3.org/Graphics/SVG/1.1/DTD/svg11.dtd"><svg width="100%" height="100%" viewBox="0 0 50 50" version="1.1" xmlns="http://www.w3.org/2000/svg" xmlns:xlink="http://www.w3.org/1999/xlink" xml:space="preserve" xmlns:serif="http://www.serif.com/" style="fill-rule:evenodd;clip-rule:evenodd;stroke-linejoin:round;stroke-miterlimit:2;"><rect id="talent-torpedo" x="0" y="0" width="50" height="50" style="fill:none;"/><g id="talent-torpedo1" serif:id="talent-torpedo"><g id="Talent-Frame" serif:id="Talent Frame"><path d="M1,6L25,1L49,6L49,24L44,23L44,30L49,31L49,49L25,44L1,49L1,31L6,30L6,23L1,24L1,6Z" style="fill:#10273d;"/><path d="M0,5L25,0L50,5L50,25L45,24L45,29L50,30L50,50L25,45L0,50L0,30L5,29L5,24L0,25L0,5ZM2,6.64L25,2.04C25,2.04 48,6.64 48,6.64C48,6.64 48,22.56 48,22.56C48,22.56 43,21.56 43,21.56L43,30.64L48,31.64C48,31.64 48,47.56 48,47.56C48,47.56 25,42.96 25,42.96L2,47.56C2,47.56 2,31.64 2,31.64C2,31.64 7,30.64 7,30.64L7,21.56L2,22.56L2,6.64Z" style="fill:#0077af;"/></g><g id="Torpedo"><path id="Torpedo1" serif:id="Torpedo" d="M29,39.943C28.678,40.128 28.344,40.29 28,40.428L28,37.5L26,37.5L26,40.941C25.682,40.98 25.36,41 25.036,41C25.012,41 24.988,41 24.964,41C24.64,41 24.318,40.98 24,40.941L24,37.5L22,37.5L22,40.428C21.656,40.29 21.322,40.128 21,39.943L21,36.5L29,36.5L29,39.943ZM17.014,13.5L24,13.5L24,20.5L17,20.5L17,33.036C17,35.148 17.839,37.174 19.333,38.667C19.545,38.879 19.768,39.078 20,39.264L20,35.5L30,35.5L30,39.264C30.232,39.078 30.455,38.879 30.667,38.667C32.161,37.174 33,35.148 33,33.036L33,20.5L26,20.5L26,13.5L32.986,13.5C32.873,11.557 32.051,9.716 30.667,8.333C29.174,6.839 27.148,6 25.036,6C25.012,6 24.988,6 24.964,6C22.852,6 20.826,6.839 19.333,8.333C17.949,9.716 17.127,11.557 17.014,13.5ZM24,21.5L19,21.5L19,34.5L24,34.5L24,21.5ZM31,21.5L26,21.5L26,34.5L31,34.5L31,21.5ZM23,27.5L23,33.5C23,33.5 20,33.5 20,33.5L20,27.5L23,27.5ZM30,27.5L30,33.5C30,33.5 27,33.5 27,33.5L27,27.5L30,27.5ZM20,26.5L20,25.5L23,25.5L23,26.5L20,26.5ZM27,26.5L27,25.5L30,25.5L30,26.5L27,26.5ZM30,24.5L27,24.5L27,22.5L30,22.5L30,24.5ZM23,24.5L20,24.5L20,22.5L23,22.5L23,24.5ZM33,14.5L33,19.5L27,19.5C27,19.5 27,14.5 27,14.5L33,14.5ZM17,14.5L23,14.5L23,19.5L17,19.5L17,14.5ZM19,15.5L18,15.5L18,18.5L19,18.5L19,15.5ZM32,15.5L31,15.5L31,18.5L32,18.5L32,15.5Z" style="fill:#f1de7f;"/></g></g></svg>