<svg xmlns="http://www.w3.org/2000/svg" xml:space="preserve" style="fill-rule:evenodd;clip-rule:evenodd;stroke-linejoin:round;stroke-miterlimit:2" viewBox="0 0 50 50"><path d="M0 0h50v50H0z" style="fill:none"/><path d="m1 6 24-5 24 5v18l-5-1v7l5 1v18l-24-5-24 5V31l5-1v-7l-5 1z" style="fill:#10273d"/><path d="m0 5 25-5 25 5v20l-5-1v5l5 1v20l-25-5-25 5V30l5-1v-5l-5 1zm2 1.64 23-4.6 23 4.6v15.92l-5-1v9.08l5 1v15.92l-23-4.6-23 4.6V31.64l5-1v-9.08l-5 1z" style="fill:#0077af"/><path d="M30.439 26.756c.082.328.247.631.479.879A7.9 7.9 0 0 1 33 33c0 4.415-3.585 8-8 8s-8-3.585-8-8a7.97 7.97 0 0 1 2.075-5.373c.23-.246.393-.547.475-.874.084-.29.178-.666.261-.996a1 1 0 0 1 .97-.757h8.438a1 1 0 0 1 .97.757zM20.542 24h.508l3.282-3.281-.755-.755V11h-5v11.036zm1.922 0 4.036-4.036V11h5v11.036L29.536 24zM16.011 8 18 10h14l2.011-2L32 5H18z" style="fill:#f1de7f"/></svg>