<svg xmlns="http://www.w3.org/2000/svg" xml:space="preserve" style="fill-rule:evenodd;clip-rule:evenodd;stroke-linejoin:round;stroke-miterlimit:2" viewBox="0 0 50 50"><path d="M0 0h50v50H0z" style="fill:none"/><path d="m1 6 24-5 24 5v18l-5-1v7l5 1v18l-24-5-24 5V31l5-1v-7l-5 1z" style="fill:#10273d"/><path d="m0 5 25-5 25 5v20l-5-1v5l5 1v20l-25-5-25 5V30l5-1v-5l-5 1zm2 1.64 23-4.6 23 4.6v15.92l-5-1v9.08l5 1v15.92l-23-4.6-23 4.6V31.64l5-1v-9.08l-5 1z" style="fill:#0077af"/><path d="M6.5 40.116c2.299-4.228 6.867-10.045 12.71-15.888 9.867-9.867 19.658-16.098 21.851-13.905 1.531 1.532-1.047 6.77-6.104 13.153 1.511-2.657 2.039-4.505 1.336-5.207-2.192-2.193-15.541 7.596-29.793 21.847" style="fill:#f1de7f"/></svg>