<svg xmlns="http://www.w3.org/2000/svg" xml:space="preserve" style="fill-rule:evenodd;clip-rule:evenodd;stroke-linejoin:round;stroke-miterlimit:2" viewBox="0 0 50 50"><path d="M0 0h50v50H0z" style="fill:none"/><path d="m1 6 24-5 24 5v18l-5-1v7l5 1v18l-24-5-24 5V31l5-1v-7l-5 1z" style="fill:#10273d"/><path d="m0 5 25-5 25 5v20l-5-1v5l5 1v20l-25-5-25 5V30l5-1v-5l-5 1zm2 1.64 23-4.6 23 4.6v15.92l-5-1v9.08l5 1v15.92l-23-4.6-23 4.6V31.64l5-1v-9.08l-5 1z" style="fill:#0077af"/><path d="m21.673 38.699.093.296.055.249-.078.28-.304.296-.366.234-.288.179 1.044.008 1.845-.078.662-.094.608-.171.529-.249.343-.249-1.713-.016-.771-.086-.631-.155-.53-.195zm-2.461-2.57.062.716-.015.514-.016.561-.109.701-.639.14-1.09.125-1.62.046.421.281.436.187.452.155.483.094.56.078.904.046.591-.015.795-.172.28-.109.312-.14-.187-.701-.281-.654-.685-1.09-.389-.483zM42.5 24.786c0-7.608-6.167-13.775-13.775-13.775S14.95 17.178 14.95 24.786s6.167 13.775 13.775 13.775S42.5 32.394 42.5 24.786M17.4 34.985l-.309 1.123-.374.771-1.057.022-.992-.066-.969-.11-.815-.066.507.462.771.452.683.264.583.176.76.099.903.044 1.168-.044-.066-1.134-.132-.694-.221-.595zm19.323-20.647a13.1 13.1 0 0 0-7.998-2.709c-3.154 0-6.048 1.11-8.314 2.959l.35.138.281-.086.297-.234.266-.219.344-.265.359-.172.491-.012 1.009.028.187-.219.172-.313 1.25-.14.265.125.203.218.641-.078.64-.093.533.012.389-.122.515.094.079.125-.11.187-.203.282-.297.234-.218.266-.203.312-.219.281-.203.172-.219.109-.141.125-.218.203-.141.25-.187.219-.235.172-.296.094-.141-.219-.109-.406-.032-.453.078-.438.063-.328-.172-.297-.344-.343-.281-.11-.172.125-.203.219-.093.297.249.125.125.078.016.172.297.25.062.218-.109.204-.203.171-.196.175-.179.122-.328.11-.016.218.328.188.266.297.062.328.063.437-.054.344.101.359v.281l-.172.141-.25.094-.422.018-.325.116-.315.225-.266.156-.18.103-.132.209-.076.391-.116.306-.169.259-.23.165-.172.239-.034.765-.031.234-.156.203-.157.047-.125-.093-.062-.125.094-.203.046-.219v-.203l-.187-.156-.281-.016-.219.125-.182.09-.115.285-.047.219-.14.187-.031.141-.047.296.078.25.078.203.125.141.125-.266.187-.093.168-.07.192-.024.078.187-.11.172-.234.157.047.124.187.172.125.219.047.188.094.281.141.203.218.187.344-.172.375-.062.359.109.391.25.346.419.372.362.25.188.172.375.186.211.533.335.39.25.155.201.173.252-.281.313-.078.281-.093.473.046.496-.047.515-.059.375-.237.219-.359.137-.079.347-.062.922-.125.265-.172.328-.156.235-.172.375-.078.265-.016.281s-.047.235-.062.297a3 3 0 0 1-.142.302l.017.245-.079.328.204.406.124.156-.03.202-.204.179-.172-.084-.15-.227-.24-.163-.156-.438-.068-.433-.104-.363-.11-.766-.078-.687-.109-.313-.047-.75.016-.64v-.625l-.078-.562-.297-.516-.235-.468-.265-.422-.203-.438-.125-.359.109-.703.141-.453.093-.484.016-.36-.344-.25-.25-.218-.171-.25-.125-.297-.282-.25-.312-.25-.297-.141-.297-.249-.453-.547-.218-.469-.203-.469-.129-.512-.164-.394-.058-.531.053-.571.105-.518.149-.404.215-.491.062-.364-.015-.76-.062-.469-.125-.203-.038-.088a13.1 13.1 0 0 0-3.234 8.64c0 4.525 2.285 8.517 5.763 10.884l.024-.024h.221l.199.089.198.113.243.019.31.019.309-.218.287-.022.376.111.243.088.241.204.223.07.321-.158.121-.248.419-.265.376-.199.265-.044.111.22-.111.177-.143.111.077.397.33.202.31.152.529.223.377.02.42-.044.354-.177.309-.199.331-.226.332-.212.397-.07.442.044h.354l.198-.066.221-.022h.243l.224.173.218.026.221-.023.287-.174.177-.091.221-.066h.309l.398-.022.331-.066.177-.044.221.198.243.221.182.178.329.091.329-.004.53.067h.09a13.3 13.3 0 0 0 3.288-2.677l-.024-.26v-.891l.086-.375s-.047-.211-.047-.273-.148-.102-.148-.102h-.172l-.172.11-.203.015-.203-.172v-.203l.093-.156.125-.125.063-.234-.016-.25.078-.359.094-.11.219-.234.312-.234.36-.282.156-.14v-.172l.125-.117.133-.086.179-.149.149-.117.132-.125.235-.031-.031.156-.063.157-.078.203-.016.125.172.085.125-.132.078-.164.078-.149.047-.234.156-.047.172.031.016.219-.031.266-.094.203-.109.203v.109l-.11.297v.437l.094.266h.065a13.1 13.1 0 0 0 1.293-5.695 13.1 13.1 0 0 0-2.921-8.267l-.218.072-.155.111v.166l.055.066.089.144.099.165.155.188.121.177.144.154-.017.264.116.289-.099.265-.155.32-.077.221-.044.088.022.155.099.243.055.21.011.202.012.14-.122.1-.155.099-.143-.165-.166-.277-.011-.11.005-.248-.115-.128H38.3l-.107.164.011.168.107.21.055.519.055.11.045.166.055.188.154.177.034.452-.056.221.022.1-.099.188-.177.088-.033.155-.177.176-.408.011-.288.022.012.155.066.177.099.177.133.121-.011.243.088.144.066.32-.067.398-.021.265-.254-.011-.122-.1-.254-.132-.132-.111-.21-.033s-.111-.055-.111-.099 0-.1.023-.155c.022-.055.066-.121.066-.121v-.133l-.188-.11-.166-.133-.077-.166-.177-.121-.099-.155-.122-.21s.089-.32.1-.364-.122-.199-.122-.199l-.154.077-.144.232-.144.144v.265l.023.144.033.209v.166l-.168.3.013.197-.088.155-.045.232-.132.177-.254.176s-.033-.11-.089-.132a1 1 0 0 1-.176-.144l-.022-.21v-.221l-.034-.176-.077-.144-.077-.21-.155-.155.033-.121.1-.11-.011-.078-.078-.243-.132-.166-.1-.099s-.088-.254-.11-.309-.133-.122-.133-.122l-.221-.232-.198-.011-.177-.033v.387l-.044.276v.287l-.044.111-.111.243-.188.11-.254.21-.099.144-.166.209s-.353.133-.398.133c-.044 0-.044.243-.044.243l.188.077.254.067.199-.122.166-.066v.199l-.199.795s-.078.364-.1.42-.055.165-.055.165l-.243.188-.132.133-.122.165-.088.266-.033 1.9-.034.331-.077.221-.265.364-.155.265-.14.232.052.398-.072.298-.046.343-.075.088-.061.144-.155.11-.022.254-.055.232-.177.21-.254.022-.342.067-.288-.067-.198-.055-.111-.21.033-.276.033-.155v-.265l-.066-.165v-.266l-.088-.154-.066-.254-.089-.188-.077-.475-.033-.431.011-.464.066-.221-.022-.464-.011-.618-.066-.254s-.133-.254-.155-.299a1.2 1.2 0 0 1-.033-.243l-.044-.243-.111-.331-.132-.442-.1-.254-.221.011-.199.1-.232.088h-.265l-.243-.122-.265-.232-.165-.209-.122-.21-.077-.575-.089-1.381.022-.651.1-.254.143-.265.122-.277.144-.309.187-.376.254-.143.089-.232-.122-.133-.177-.099-.088-.166s.011-.221.011-.265-.077-.177-.077-.177l-.033-.176.044-.243.177-.022.165.044.288.011s.165-.055.165-.1c0-.044.078-.198.078-.198l-.023-.122-.11-.144s-.177-.033-.21-.088.088-.088.088-.088l.122-.133.177-.155.077-.066.133-.154.088-.122.211-.067.087-.231.321.022.32-.011.254-.21.21-.243-.033-.497-.243.154-.033.199-.155.254-.21.089-.177-.221-.044-.232-.199-.089-.11-.11.298-.53.21-.276.276-.221.254-.177.308-.175.421-.09.298.066.232.188.221.177.243.143.332-.143-.011-.21-.067-.21-.165-.276.055-.243.188-.21.342-.199h.21v.232s-.088.221-.132.221-.034.177-.034.177l.011.198.188.089.31.011.154-.111.265-.165.144-.144.287-.121.265-.133.177-.132-.011-.166-.287-.166-.022-.21.21-.044.342.022.188.055.486.199.497.387.265.188.276.143.265.055.453-.011zM15.46 32.471l-.78 1.877s-.889.101-1.604.13c-.943.039-2.283-.432-2.283-.432s1.434 1.502 2.67 1.788c1.242.447 1.78.229 1.78.229s.685.046.663-.158c.234-.905.039-1.98.039-1.98zm-1.327 1.07s.28-.743.317-1.601c.016-1.007-.434-2.367-.434-2.367s-.262 1.598-.728 2.027c-.539.01-1.423-.091-1.423-.091s-.549-.092-1.232-.487c-.933-.467-2.492-1.952-2.492-1.952s1.262 2.966 2.63 3.583c.712.616 3.362.888 3.362.888m17.657-4.732.157-.117.125-.179.046-.172.141-.219h.219l.156.094.094.14-.055.531-.039.211-.117.164-.102.25-.094.235-.078.218-.047.118-.054.14-.188.25-.148.227.016-.61-.032-.281zm-19.503 1.496.567-1.539c.253-.951.268-1.998.268-1.998l-1.395 1.685s-1.639-.563-2.286-1.287C8.438 26.149 7.5 24.505 7.5 24.505s.456 3.373 1.783 4.587c1.361 1.024 3.004 1.213 3.004 1.213m26.892-3.823.157.14.172.063.226.156.195.125.125.187.11.219.062.188.172.156.102-.086.039-.227.281.086.125.133.109.086-.016-.18-.093-.296-.227-.36-.195-.109-.281-.203-.266-.078-.25-.063-.351-.031zm-1.499.468-.078-1.452-.11-.297-.047-.141-.109-.14-.062-.141-.219-.063-.172.016-.047.172-.078.156v.516l.125.109.156.125s.016.078.016.156v.438l.094.296.14.157.125.25.125.078.25.062.219.172.156.109.234.032.282-.094v-.219l-.344-.109-.266-.11-.14-.015zm-26.405.055s.713-.972.986-1.653c.357-.967.371-1.646.371-1.646s-.235.579-.71.874c-.252.378-.819.506-.819.506s-.049.146-.872-.629c-1.156-1.092-2.346-3.463-2.346-3.463s-.167 2.914.957 4.281c1.275 1.304 2.433 1.73 2.433 1.73m27.342-2.351-.016.234-.062.266-.109.172-.125.187-.125.219-.141.187-.156.188-.125.172.094.093.125.11.062.172.063.156.296-.016.188-.078.062-.125v-.328l.157-.109.171-.094.125-.156-.187-.078-.078-.141v-.672l-.094-.156zm.188-1.765v.296l.078.11v.234l-.078.125v.344l-.094.156.109.141.094.187.14.094.11.062.047.094.031.25.062.141h.141l.047-.125.047-.203v-.157l-.094-.156-.016-.172-.062-.093v-.188l-.172-.172-.219-.312-.046-.484zm-27.617.676s1.157-.946 1.471-1.722c.333-.82.442-1.208.442-1.208l-.021.036s-1.096.777-1.848.64c-.848-1.122-1.778-3.499-1.778-3.499s-.72 2.003.049 3.508c.758 1.482 1.685 2.223 1.685 2.223zm17.041-3.691-.063-.157.094-.25.094-.187.046-.234.25-.032.203.071.094.101.109.141.219.234v.235l.156.062c.178-.348.115-.167.172-.25l.094.156.016.235.14.093.125-.047.024-.179.148-.063.187.133.219.188.281-.016.125.156v.203l-.25.36h-.296l-.5.023-.422-.094-.125-.257-.094-.204-.187-.234-.266-.172-.219-.015zm11.513-1.297-.11.141.016.281.016.25.047.172.031.187.031.266-.125.234-.203.172-.141.047-.093.062-.032.094.157.187.109.11.141-.11.015-.093.235-.047.218.062.125-.218.11-.25.031-.203-.094-.204-.109-.203-.031-.218-.079-.235-.015-.187-.094-.219zM11.793 20.2s.442-.331 1.106-.899c.598-.511 1.05-1.443 1.05-1.443s-.364.245-.799.415c-.397.154-.868.167-.868.167s.276.651-.014-.026c-.441-1.03-.479-3.451-.479-3.451s-.71 1.114-.811 2.662c-.062 1.808.815 2.575.815 2.575m15.958-3.675.132.199v.166l.133.132.033.155s.077.077.077.121v.133l-.099.077-.111.056-.143.044-.243-.033-.21-.034s-.122 0-.122-.055-.033-.154-.033-.154l.1-.067.143-.143.188-.067.044-.198-.033-.122.066-.132zm-13.09-.03c.739-.326 1.054-.709 1.121-.798l-.076.017c-.297.069-1.327-.032-1.772-.081-.094-1.013.618-3.457.618-3.457s-1.449 1.649-1.678 3.08c-.209 1.302.059 1.864.059 1.864s1.04-.078 1.728-.625m9.365-1.511-.125.047-.156.14-.156.25-.047.125-.25.094-.312.25-.422.328-.141.172v.281l.328.25.313.078.156-.281.156-.312.125-.407.172-.312.266-.094.14-.25.047-.343zm-6.842-.956c1.043-.358 1.422-.826 1.422-.826s-.721-.003-1.149-.07c-.286-.045-.453-.092-.462-.094.001-.015.007-.098.029-.486.037-.662.748-1.726.748-1.726s-1.086.326-1.825 1.211c-.257.308-.576.958-.766 1.267-.422 1.042-.373 1.304-.373 1.304s1.476-.082 2.376-.58m-.189-.99-.001-.001s0 .007.001.001m4.42-1.679C22.67 10.33 23 9.759 23 9.759s-1.34.158-1.951.494c-.761.419-1.092.461-1.092.461l.159-.771s-1.393.707-1.874 1.498c-.491.807-.423 1.014-.423 1.014s2.556-.243 3.596-1.096" style="fill:#d1ad94"/></svg>