<svg xmlns="http://www.w3.org/2000/svg" xml:space="preserve" style="fill-rule:evenodd;clip-rule:evenodd;stroke-linejoin:round;stroke-miterlimit:2" viewBox="0 0 50 50"><path d="M0 0h50v50H0z" style="fill:none"/><path d="m1 6 24-5 24 5v18l-5-1v7l5 1v18l-24-5-24 5V31l5-1v-7l-5 1z" style="fill:#10273d"/><path d="m0 5 25-5 25 5v20l-5-1v5l5 1v20l-25-5-25 5V30l5-1v-5l-5 1zm2 1.64 23-4.6 23 4.6v15.92l-5-1v9.08l5 1v15.92l-23-4.6-23 4.6V31.64l5-1v-9.08l-5 1z" style="fill:#0077af"/><path d="M35 39a2 2 0 0 0-2-2H17a2 2 0 0 0 0 4h16a2 2 0 0 0 2-2m0-6a2 2 0 0 0-2-2H17a2 2 0 0 0 0 4h16a2 2 0 0 0 2-2m3-9c0-2.76-2.24-5-5-5H17c-2.76 0-5 2.24-5 5s2.24 5 5 5h16c2.76 0 5-2.24 5-5m-10 0a3.001 3.001 0 0 0-6 0 3.001 3.001 0 0 0 6 0m7-9a2 2 0 0 0-2-2H17a2 2 0 0 0 0 4h16a2 2 0 0 0 2-2m0-6a2 2 0 0 0-2-2H17a2 2 0 0 0 0 4h16a2 2 0 0 0 2-2" style="fill:#f1de7f"/></svg>