<?xml version="1.0" encoding="UTF-8" standalone="no"?><!DOCTYPE svg PUBLIC "-//W3C//DTD SVG 1.1//EN" "http://www.w3.org/Graphics/SVG/1.1/DTD/svg11.dtd"><svg width="100%" height="100%" viewBox="0 0 50 50" version="1.1" xmlns="http://www.w3.org/2000/svg" xmlns:xlink="http://www.w3.org/1999/xlink" xml:space="preserve" xmlns:serif="http://www.serif.com/" style="fill-rule:evenodd;clip-rule:evenodd;stroke-linejoin:round;stroke-miterlimit:2;"><rect id="talent-conn" x="0" y="0" width="50" height="50" style="fill:none;"/><g id="talent-conn1" serif:id="talent-conn"><g id="Talent-Frame" serif:id="Talent Frame"><path d="M1,6L25,1L49,6L49,24L44,23L44,30L49,31L49,49L25,44L1,49L1,31L6,30L6,23L1,24L1,6Z" style="fill:#10273d;"/><path d="M0,5L25,0L50,5L50,25L45,24L45,29L50,30L50,50L25,45L0,50L0,30L5,29L5,24L0,25L0,5ZM2,6.64L25,2.04C25,2.04 48,6.64 48,6.64C48,6.64 48,22.56 48,22.56C48,22.56 43,21.56 43,21.56L43,30.64L48,31.64C48,31.64 48,47.56 48,47.56C48,47.56 25,42.96 25,42.96L2,47.56C2,47.56 2,31.64 2,31.64C2,31.64 7,30.64 7,30.64L7,21.56L2,22.56L2,6.64Z" style="fill:#0077af;"/></g><g><path d="M13.5,16C16,15.5 18.583,13.75 20.5,12C22.417,10.25 24.5,7.5 25,5.5C25.5,7.5 27.583,10.25 29.5,12C31.417,13.75 34,15.5 36.5,16C34,16.5 29.836,18.153 28.5,21C26.583,25.083 25.5,36.5 25,40.5C24.5,36.5 23.417,25.083 21.5,21C20.164,18.153 16,16.5 13.5,16ZM24.934,12.794L24.51,14.976C24.484,15.108 24.42,15.229 24.325,15.325C24.229,15.42 24.108,15.484 23.976,15.51L21.794,15.934C21.762,15.94 21.739,15.968 21.739,16C21.739,16.032 21.762,16.06 21.794,16.066L23.976,16.49C24.108,16.516 24.229,16.58 24.325,16.675C24.42,16.771 24.484,16.892 24.51,17.024L24.934,19.206C24.94,19.238 24.968,19.261 25,19.261C25.032,19.261 25.06,19.238 25.066,19.206L25.49,17.024C25.516,16.892 25.58,16.771 25.675,16.675C25.771,16.58 25.892,16.516 26.024,16.49L28.206,16.066C28.238,16.06 28.261,16.032 28.261,16C28.261,15.968 28.238,15.94 28.206,15.934L26.024,15.51C25.892,15.484 25.771,15.42 25.675,15.325C25.58,15.229 25.516,15.108 25.49,14.976L25.066,12.794C25.06,12.762 25.032,12.739 25,12.739C24.968,12.739 24.94,12.762 24.934,12.794Z" style="fill:#f54d3d;"/></g></g></svg>