<?xml version="1.0" encoding="UTF-8" standalone="no"?><!DOCTYPE svg PUBLIC "-//W3C//DTD SVG 1.1//EN" "http://www.w3.org/Graphics/SVG/1.1/DTD/svg11.dtd"><svg width="100%" height="100%" viewBox="0 0 50 50" version="1.1" xmlns="http://www.w3.org/2000/svg" xmlns:xlink="http://www.w3.org/1999/xlink" xml:space="preserve" xmlns:serif="http://www.serif.com/" style="fill-rule:evenodd;clip-rule:evenodd;stroke-miterlimit:2.5;"><rect id="role-executive-officer" x="0" y="0" width="50" height="50" style="fill:none;"/><clipPath id="_clip1"><rect id="role-executive-officer1" serif:id="role-executive-officer" x="0" y="0" width="50" height="50"/></clipPath><g clip-path="url(#_clip1)"><path id="Role-Frame" serif:id="Role Frame" d="M21,45L9,45C4.585,45 1,41.415 1,37L1,13C1,8.585 4.585,5 9,5L21,5C21,2.792 22.792,1 25,1C27.208,1 29,2.792 29,5L41,5C45.415,5 49,8.585 49,13L49,37C49,41.415 45.415,45 41,45L29,45C29,47.208 27.208,49 25,49C22.792,49 21,47.208 21,45Z" style="fill:#10273d;stroke:#0077af;stroke-width:2px;"/><g id="Presence"><path id="Presence1" serif:id="Presence" d="M25,26C21.689,26 19,23.311 19,20C19,16.689 21.689,14 25,14C28.311,14 31,16.689 31,20C31,23.311 28.311,26 25,26C29.971,26 34,33.163 34,42L16,42C16,33.163 20.029,26 25,26ZM31.428,24.866L34.892,26.866L35.892,25.134L32.428,23.134L31.428,24.866ZM17.572,23.134L14.108,25.134L15.108,26.866L18.572,24.866L17.572,23.134ZM33,21L37,21L37,19L33,19L33,21ZM17,19L13,19L13,21L17,21L17,19ZM18.572,15.134L15.108,13.134L14.108,14.866L17.572,16.866L18.572,15.134ZM32.428,16.866L35.892,14.866L34.892,13.134L31.428,15.134L32.428,16.866ZM21.866,12.572L19.866,9.108L18.134,10.108L20.134,13.572L21.866,12.572ZM29.866,13.572L31.866,10.108L30.134,9.108L28.134,12.572L29.866,13.572ZM26,12L26,8L24,8L24,12L26,12Z" style="fill:#f54d3d;"/></g></g></svg>