<?xml version="1.0" encoding="UTF-8" standalone="no"?><!DOCTYPE svg PUBLIC "-//W3C//DTD SVG 1.1//EN" "http://www.w3.org/Graphics/SVG/1.1/DTD/svg11.dtd"><svg width="100%" height="100%" viewBox="0 0 50 50" version="1.1" xmlns="http://www.w3.org/2000/svg" xmlns:xlink="http://www.w3.org/1999/xlink" xml:space="preserve" xmlns:serif="http://www.serif.com/" style="fill-rule:evenodd;clip-rule:evenodd;stroke-miterlimit:2.5;"><rect id="role-flight-controller" x="0" y="0" width="50" height="50" style="fill:none;"/><clipPath id="_clip1"><rect id="role-flight-controller1" serif:id="role-flight-controller" x="0" y="0" width="50" height="50"/></clipPath><g clip-path="url(#_clip1)"><path id="Role-Frame" serif:id="Role Frame" d="M21,45L9,45C4.585,45 1,41.415 1,37L1,13C1,8.585 4.585,5 9,5L21,5C21,2.792 22.792,1 25,1C27.208,1 29,2.792 29,5L41,5C45.415,5 49,8.585 49,13L49,37C49,41.415 45.415,45 41,45L29,45C29,47.208 27.208,49 25,49C22.792,49 21,47.208 21,45Z" style="fill:#10273d;stroke:#0077af;stroke-width:2px;"/><g><path d="M13.5,18.5C16,18 18.583,16.25 20.5,14.5C22.417,12.75 24.5,10 25,8C25.5,10 27.583,12.75 29.5,14.5C31.417,16.25 34,18 36.5,18.5C34,19 29.836,20.653 28.5,23.5C26.583,27.583 25.5,39 25,43C24.5,39 23.417,27.583 21.5,23.5C20.164,20.653 16,19 13.5,18.5ZM24.934,15.294L24.51,17.476C24.484,17.608 24.42,17.729 24.325,17.825C24.229,17.92 24.108,17.984 23.976,18.01L21.794,18.434C21.762,18.44 21.739,18.468 21.739,18.5C21.739,18.532 21.762,18.56 21.794,18.566L23.976,18.99C24.108,19.016 24.229,19.08 24.325,19.175C24.42,19.271 24.484,19.392 24.51,19.524L24.934,21.706C24.94,21.738 24.968,21.761 25,21.761C25.032,21.761 25.06,21.738 25.066,21.706L25.49,19.524C25.516,19.392 25.58,19.271 25.675,19.175C25.771,19.08 25.892,19.016 26.024,18.99L28.206,18.566C28.238,18.56 28.261,18.532 28.261,18.5C28.261,18.468 28.238,18.44 28.206,18.434L26.024,18.01C25.892,17.984 25.771,17.92 25.675,17.825C25.58,17.729 25.516,17.608 25.49,17.476L25.066,15.294C25.06,15.262 25.032,15.239 25,15.239C24.968,15.239 24.94,15.262 24.934,15.294Z" style="fill:#f54d3d;"/></g></g></svg>