<svg xmlns="http://www.w3.org/2000/svg" xml:space="preserve" style="fill-rule:evenodd;clip-rule:evenodd;stroke-miterlimit:2.5" viewBox="0 0 50 50"><path d="M0 0h50v50H0z" style="fill:none"/><clipPath id="a"><path d="M0 0h50v50H0z"/></clipPath><g clip-path="url(#a)"><path d="M21 45H9c-4.415 0-8-3.585-8-8V13c0-4.415 3.585-8 8-8h12c0-2.208 1.792-4 4-4s4 1.792 4 4h12c4.415 0 8 3.585 8 8v24c0 4.415-3.585 8-8 8H29c0 2.208-1.792 4-4 4s-4-1.792-4-4Z" style="fill:#10273d;stroke:#0077af;stroke-width:2px"/><path d="M28.534 8.371a17 17 0 0 0-7.068 0l-.087 4.404a12.76 12.76 0 0 0-5.156 2.976l-3.856-2.126a17 17 0 0 0-3.535 6.122l3.77 2.277a12.8 12.8 0 0 0 0 5.952l-3.77 2.277a17 17 0 0 0 3.535 6.122l3.856-2.126a12.76 12.76 0 0 0 5.156 2.976l.087 4.404c2.33.495 4.738.495 7.068 0l.087-4.404a12.76 12.76 0 0 0 5.156-2.976l3.856 2.126a17 17 0 0 0 3.535-6.122l-3.77-2.277a12.8 12.8 0 0 0 0-5.952l3.77-2.277a17 17 0 0 0-3.535-6.122l-3.856 2.126a12.76 12.76 0 0 0-5.156-2.976zM25 20.75A4.25 4.25 0 0 1 29.25 25 4.25 4.25 0 0 1 25 29.25 4.25 4.25 0 0 1 20.75 25 4.25 4.25 0 0 1 25 20.75" style="fill:#f5d63d"/></g></svg>