<svg xmlns="http://www.w3.org/2000/svg" xml:space="preserve" style="fill-rule:evenodd;clip-rule:evenodd;stroke-miterlimit:2.5" viewBox="0 0 50 50"><path d="M0 0h50v50H0z" style="fill:none"/><clipPath id="a"><path d="M0 0h50v50H0z"/></clipPath><g clip-path="url(#a)"><path d="M21 45H9c-4.415 0-8-3.585-8-8V13c0-4.415 3.585-8 8-8h12c0-2.208 1.792-4 4-4s4 1.792 4 4h12c4.415 0 8 3.585 8 8v24c0 4.415-3.585 8-8 8H29c0 2.208-1.792 4-4 4s-4-1.792-4-4Z" style="fill:#10273d;stroke:#0077af;stroke-width:2px"/><path d="M37.865 41.236s-12.818-3.641-18.958-10.052c-6.139-6.409-3.49-13.569-.783-16.19 3.851-3.732 10.833-5.959 15.889.661 4.553 5.962.54 14.033-5.297 12.641-4.033-.964-5.204-4.486-5.204-4.486l-1.114.453 4.332 7.673 9.933-1.685.933-16.07L26.49 7.5l-14.355 8.395 1.956 19.202L37.865 42.5z" style="fill:#f5d63d;fill-rule:nonzero"/></g></svg>