<svg xmlns="http://www.w3.org/2000/svg" xml:space="preserve" style="fill-rule:evenodd;clip-rule:evenodd;stroke-miterlimit:2.5" viewBox="0 0 50 50"><path d="M0 0h50v50H0z" style="fill:none"/><clipPath id="a"><path d="M0 0h50v50H0z"/></clipPath><g clip-path="url(#a)"><path d="M21 45H9c-4.415 0-8-3.585-8-8V13c0-4.415 3.585-8 8-8h12c0-2.208 1.792-4 4-4s4 1.792 4 4h12c4.415 0 8 3.585 8 8v24c0 4.415-3.585 8-8 8H29c0 2.208-1.792 4-4 4s-4-1.792-4-4Z" style="fill:#10273d;stroke:#0077af;stroke-width:2px"/><path d="M25 26c-3.311 0-6-2.689-6-6s2.689-6 6-6 6 2.689 6 6-2.689 6-6 6c4.971 0 9 7.163 9 16H16c0-8.837 4.029-16 9-16m6.428-1.134 3.464 2 1-1.732-3.464-2zm-13.856-1.732-3.464 2 1 1.732 3.464-2zM33 21h4v-2h-4zm-16-2h-4v2h4zm1.572-3.866-3.464-2-1 1.732 3.464 2zm13.856 1.732 3.464-2-1-1.732-3.464 2zm-10.562-4.294-2-3.464-1.732 1 2 3.464zm8 1 2-3.464-1.732-1-2 3.464zM26 12V8h-2v4z" style="fill:#f54d3d"/></g></svg>