<svg xmlns="http://www.w3.org/2000/svg" xml:space="preserve" style="fill-rule:evenodd;clip-rule:evenodd;stroke-miterlimit:2.5" viewBox="0 0 50 50"><path d="M0 0h50v50H0z" style="fill:none"/><clipPath id="a"><path d="M0 0h50v50H0z"/></clipPath><g clip-path="url(#a)"><path d="M21 45H9c-4.415 0-8-3.585-8-8V13c0-4.415 3.585-8 8-8h12c0-2.208 1.792-4 4-4s4 1.792 4 4h12c4.415 0 8 3.585 8 8v24c0 4.415-3.585 8-8 8H29c0 2.208-1.792 4-4 4s-4-1.792-4-4Z" style="fill:#10273d;stroke:#0077af;stroke-width:2px"/><path d="M24 9.033C15.972 9.536 9.542 15.971 9.046 24H7.5v2h1.546C9.543 34.031 15.973 40.465 24 40.968V42.5h2v-1.53c8.041-.489 14.487-6.93 14.984-14.97H42.5v-2h-1.517C40.487 15.961 34.042 9.521 26 9.031V7.5h-2zM38.979 26c-.49 6.935-6.041 12.482-12.979 12.966v-2.007c5.827-.482 10.477-5.133 10.959-10.959zm-25.937 0c.482 5.827 5.133 10.478 10.958 10.959v2.005C17.076 38.466 11.54 32.925 11.05 26zM24 32.434A7.51 7.51 0 0 1 17.566 26H24zM32.433 26A7.51 7.51 0 0 1 26 32.434V26zM24 11.037v6.53A7.51 7.51 0 0 0 17.566 24H11.05c.49-6.924 6.026-12.466 12.95-12.963m2-.002c6.937.483 12.489 6.03 12.979 12.965h-6.545A7.51 7.51 0 0 0 26 17.567z" style="fill:#f5d63d"/></g></svg>