<?xml version="1.0" encoding="UTF-8" standalone="no"?><!DOCTYPE svg PUBLIC "-//W3C//DTD SVG 1.1//EN" "http://www.w3.org/Graphics/SVG/1.1/DTD/svg11.dtd"><svg width="100%" height="100%" viewBox="0 0 50 50" version="1.1" xmlns="http://www.w3.org/2000/svg" xmlns:xlink="http://www.w3.org/1999/xlink" xml:space="preserve" xmlns:serif="http://www.serif.com/" style="fill-rule:evenodd;clip-rule:evenodd;stroke-miterlimit:2.5;"><rect id="role-operations-manager" x="0" y="0" width="50" height="50" style="fill:none;"/><clipPath id="_clip1"><rect id="role-operations-manager1" serif:id="role-operations-manager" x="0" y="0" width="50" height="50"/></clipPath><g clip-path="url(#_clip1)"><path id="Role-Frame" serif:id="Role Frame" d="M21,45L9,45C4.585,45 1,41.415 1,37L1,13C1,8.585 4.585,5 9,5L21,5C21,2.792 22.792,1 25,1C27.208,1 29,2.792 29,5L41,5C45.415,5 49,8.585 49,13L49,37C49,41.415 45.415,45 41,45L29,45C29,47.208 27.208,49 25,49C22.792,49 21,47.208 21,45Z" style="fill:#10273d;stroke:#0077af;stroke-width:2px;"/><g id="Control"><path id="Control1" serif:id="Control" d="M28.534,8.371C26.204,7.876 23.796,7.876 21.466,8.371L21.379,12.775C19.45,13.347 17.683,14.366 16.223,15.751L12.367,13.625C10.772,15.395 9.568,17.481 8.832,19.747L12.602,22.024C12.133,23.98 12.133,26.02 12.602,27.976L8.832,30.253C9.568,32.519 10.772,34.605 12.367,36.375L16.223,34.249C17.683,35.634 19.45,36.653 21.379,37.225L21.466,41.629C23.796,42.124 26.204,42.124 28.534,41.629L28.621,37.225C30.55,36.653 32.317,35.634 33.777,34.249L37.633,36.375C39.228,34.605 40.432,32.519 41.168,30.253L37.398,27.976C37.867,26.02 37.867,23.98 37.398,22.024L41.168,19.747C40.432,17.481 39.228,15.395 37.633,13.625L33.777,15.751C32.317,14.366 30.55,13.347 28.621,12.775L28.534,8.371ZM25,20.75C27.346,20.75 29.25,22.654 29.25,25C29.25,27.346 27.346,29.25 25,29.25C22.654,29.25 20.75,27.346 20.75,25C20.75,22.654 22.654,20.75 25,20.75Z" style="fill:#f5d63d;"/></g></g></svg>