<?xml version="1.0" encoding="UTF-8" standalone="no"?><!DOCTYPE svg PUBLIC "-//W3C//DTD SVG 1.1//EN" "http://www.w3.org/Graphics/SVG/1.1/DTD/svg11.dtd"><svg width="100%" height="100%" viewBox="0 0 50 50" version="1.1" xmlns="http://www.w3.org/2000/svg" xmlns:xlink="http://www.w3.org/1999/xlink" xml:space="preserve" xmlns:serif="http://www.serif.com/" style="fill-rule:evenodd;clip-rule:evenodd;stroke-miterlimit:2.5;"><rect id="role-commanding-officer" x="0" y="0" width="50" height="50" style="fill:none;"/><clipPath id="_clip1"><rect id="role-commanding-officer1" serif:id="role-commanding-officer" x="0" y="0" width="50" height="50"/></clipPath><g clip-path="url(#_clip1)"><path id="Role-Frame" serif:id="Role Frame" d="M21,45L9,45C4.585,45 1,41.415 1,37L1,13C1,8.585 4.585,5 9,5L21,5C21,2.792 22.792,1 25,1C27.208,1 29,2.792 29,5L41,5C45.415,5 49,8.585 49,13L49,37C49,41.415 45.415,45 41,45L29,45C29,47.208 27.208,49 25,49C22.792,49 21,47.208 21,45Z" style="fill:#10273d;stroke:#0077af;stroke-width:2px;"/><g id="Command"><path id="Command1" serif:id="Command" d="M28.698,42L27.746,34.43L33,32.036L27.296,30.448L24.643,7L21.989,30.448L16.287,32.036L21.241,34.43L20.289,42L24.719,35.475L28.698,42Z" style="fill:#f54d3d;fill-rule:nonzero;"/></g></g></svg>