<svg xmlns="http://www.w3.org/2000/svg" xml:space="preserve" style="fill-rule:evenodd;clip-rule:evenodd;stroke-miterlimit:2.5" viewBox="0 0 50 50"><path d="M0 0h50v50H0z" style="fill:none"/><clipPath id="a"><path d="M0 0h50v50H0z"/></clipPath><g clip-path="url(#a)"><path d="M21 45H9c-4.415 0-8-3.585-8-8V13c0-4.415 3.585-8 8-8h12c0-2.208 1.792-4 4-4s4 1.792 4 4h12c4.415 0 8 3.585 8 8v24c0 4.415-3.585 8-8 8H29c0 2.208-1.792 4-4 4s-4-1.792-4-4Z" style="fill:#10273d;stroke:#0077af;stroke-width:2px"/><path d="M13.5 18.5c2.5-.5 5.083-2.25 7-4S24.5 10 25 8c.5 2 2.583 4.75 4.5 6.5s4.5 3.5 7 4c-2.5.5-6.664 2.153-8 5-1.917 4.083-3 15.5-3.5 19.5-.5-4-1.583-15.417-3.5-19.5-1.336-2.847-5.5-4.5-8-5m11.434-3.206-.424 2.182a.7.7 0 0 1-.185.349.7.7 0 0 1-.349.185l-2.182.424a.07.07 0 0 0-.055.066c0 .032.023.06.055.066l2.182.424c.132.026.253.09.349.185a.7.7 0 0 1 .185.349l.424 2.182a.07.07 0 0 0 .066.055c.032 0 .06-.023.066-.055l.424-2.182a.7.7 0 0 1 .185-.349.7.7 0 0 1 .349-.185l2.182-.424a.07.07 0 0 0 .055-.066.07.07 0 0 0-.055-.066l-2.182-.424a.7.7 0 0 1-.349-.185.7.7 0 0 1-.185-.349l-.424-2.182a.07.07 0 0 0-.066-.055.07.07 0 0 0-.066.055" style="fill:#f54d3d"/></g></svg>