<svg xmlns="http://www.w3.org/2000/svg" xml:space="preserve" style="fill-rule:evenodd;clip-rule:evenodd;stroke-miterlimit:2.5" viewBox="0 0 50 50"><path d="M0 0h50v50H0z" style="fill:none"/><clipPath id="a"><path d="M0 0h50v50H0z"/></clipPath><g clip-path="url(#a)"><path d="M21 45H9c-4.415 0-8-3.585-8-8V13c0-4.415 3.585-8 8-8h12c0-2.208 1.792-4 4-4s4 1.792 4 4h12c4.415 0 8 3.585 8 8v24c0 4.415-3.585 8-8 8H29c0 2.208-1.792 4-4 4s-4-1.792-4-4Z" style="fill:#10273d;stroke:#0077af;stroke-width:2px"/><path d="M18.596 18.472A4.98 4.98 0 0 1 15 20c-2.76 0-5-2.24-5-5s2.24-5 5-5a5.002 5.002 0 0 1 4.938 5.789l11.466 5.726A4.98 4.98 0 0 1 35 19.987c2.76 0 5 2.241 5 5a5.002 5.002 0 0 1-8.593 3.477l-11.47 5.742Q20 34.595 20 35c0 2.76-2.24 5-5 5s-5-2.24-5-5 2.24-5 5-5c1.409 0 2.683.584 3.593 1.524l11.47-5.742a5 5 0 0 1-.001-1.584z" style="fill:#3db8f5"/></g></svg>