<?xml version="1.0" encoding="UTF-8" standalone="no"?><!DOCTYPE svg PUBLIC "-//W3C//DTD SVG 1.1//EN" "http://www.w3.org/Graphics/SVG/1.1/DTD/svg11.dtd"><svg width="100%" height="100%" viewBox="0 0 50 50" version="1.1" xmlns="http://www.w3.org/2000/svg" xmlns:xlink="http://www.w3.org/1999/xlink" xml:space="preserve" xmlns:serif="http://www.serif.com/" style="fill-rule:evenodd;clip-rule:evenodd;stroke-miterlimit:2.5;"><rect id="role-chief-engineer" x="0" y="0" width="50" height="50" style="fill:none;"/><clipPath id="_clip1"><rect id="role-chief-engineer1" serif:id="role-chief-engineer" x="0" y="0" width="50" height="50"/></clipPath><g clip-path="url(#_clip1)"><path id="Role-Frame" serif:id="Role Frame" d="M21,45L9,45C4.585,45 1,41.415 1,37L1,13C1,8.585 4.585,5 9,5L21,5C21,2.792 22.792,1 25,1C27.208,1 29,2.792 29,5L41,5C45.415,5 49,8.585 49,13L49,37C49,41.415 45.415,45 41,45L29,45C29,47.208 27.208,49 25,49C22.792,49 21,47.208 21,45Z" style="fill:#10273d;stroke:#0077af;stroke-width:2px;"/><g id="Operations"><path id="Operations1" serif:id="Operations" d="M37.865,41.236C37.865,41.236 25.047,37.595 18.907,31.184C12.768,24.775 15.417,17.615 18.124,14.994C21.975,11.262 28.957,9.035 34.013,15.655C38.566,21.617 34.553,29.688 28.716,28.296C24.683,27.332 23.512,23.81 23.512,23.81L22.398,24.263L26.73,31.936L36.663,30.251L37.596,14.181L26.49,7.5L12.135,15.895L14.091,35.097L37.865,42.5L37.865,41.236Z" style="fill:#f5d63d;fill-rule:nonzero;"/></g></g></svg>