<?xml version="1.0" encoding="UTF-8" standalone="no"?><!DOCTYPE svg PUBLIC "-//W3C//DTD SVG 1.1//EN" "http://www.w3.org/Graphics/SVG/1.1/DTD/svg11.dtd"><svg width="100%" height="100%" viewBox="0 0 50 50" version="1.1" xmlns="http://www.w3.org/2000/svg" xmlns:xlink="http://www.w3.org/1999/xlink" xml:space="preserve" xmlns:serif="http://www.serif.com/" style="fill-rule:evenodd;clip-rule:evenodd;stroke-miterlimit:2.5;"><rect id="role-chief-medical-officer" x="0" y="0" width="50" height="50" style="fill:none;"/><clipPath id="_clip1"><rect id="role-chief-medical-officer1" serif:id="role-chief-medical-officer" x="0" y="0" width="50" height="50"/></clipPath><g clip-path="url(#_clip1)"><path id="Role-Frame" serif:id="Role Frame" d="M21,45L9,45C4.585,45 1,41.415 1,37L1,13C1,8.585 4.585,5 9,5L21,5C21,2.792 22.792,1 25,1C27.208,1 29,2.792 29,5L41,5C45.415,5 49,8.585 49,13L49,37C49,41.415 45.415,45 41,45L29,45C29,47.208 27.208,49 25,49C22.792,49 21,47.208 21,45Z" style="fill:#10273d;stroke:#0077af;stroke-width:2px;"/><g id="Medical"><path id="Medical1" serif:id="Medical" d="M23.71,33.604C23.71,33.668 23.708,33.708 23.71,33.749C23.797,35.909 23.885,38.069 23.973,40.229C23.992,40.701 23.994,41.174 24.033,41.643C24.075,42.149 24.428,42.474 24.911,42.498C24.936,42.499 24.962,42.5 24.987,42.5C25.5,42.5 25.839,42.235 25.945,41.742C25.97,41.629 25.978,41.511 25.982,41.395C25.999,40.876 26.009,40.358 26.029,39.839C26.091,38.209 26.154,36.578 26.224,34.948C26.229,34.825 26.19,34.773 26.086,34.726C25.658,34.529 25.234,34.324 24.808,34.122C24.447,33.951 24.085,33.781 23.71,33.604ZM22.13,27.555C22.063,27.555 21.993,27.564 21.918,27.588C20.142,28.131 19.564,30.189 20.851,31.497C21.141,31.791 21.491,32.052 21.858,32.239C22.983,32.813 24.13,33.344 25.269,33.89C25.636,34.067 26.009,34.235 26.372,34.418C26.636,34.552 26.876,34.721 26.953,35.033C27.004,35.238 26.943,35.338 26.739,35.365C26.628,35.38 26.596,35.426 26.593,35.533C26.581,35.964 26.562,36.395 26.544,36.826C26.541,36.905 26.537,36.984 26.532,37.078C27.236,37.061 27.844,36.883 28.274,36.312C28.835,35.567 28.775,34.484 28.141,33.702C27.783,33.261 27.311,32.979 26.806,32.741C25.489,32.119 24.172,31.5 22.866,30.859C22.562,30.709 22.293,30.485 22.016,30.283C21.887,30.188 21.846,30.039 21.85,29.878C21.856,29.573 21.995,29.362 22.316,29.255C22.517,29.189 22.733,29.169 22.969,29.123C22.93,28.711 22.891,28.294 22.849,27.877C22.845,27.841 22.828,27.784 22.803,27.774C22.58,27.69 22.38,27.555 22.13,27.555ZM22.569,33.15C22.46,33.15 22.344,33.176 22.217,33.243C21.404,33.665 20.885,34.509 21.006,35.324C21.182,36.507 22.259,37.065 23.259,37.065C23.325,37.065 23.392,37.062 23.458,37.057C23.434,36.507 23.411,35.956 23.388,35.411C23.205,35.368 23.032,35.339 22.868,35.283C22.797,35.259 22.713,35.19 22.693,35.124C22.659,35.013 22.709,34.901 22.827,34.851C22.986,34.783 23.15,34.726 23.346,34.653C23.326,34.269 23.307,33.869 23.283,33.468C23.281,33.438 23.261,33.393 23.236,33.382C23.014,33.277 22.808,33.15 22.569,33.15ZM22.092,21.482C21.877,21.513 21.675,21.53 21.479,21.573C20.533,21.785 19.866,22.325 19.595,23.272C19.319,24.241 19.495,25.124 20.219,25.856C20.752,26.395 21.427,26.725 22.111,27.025C23.577,27.669 25.051,28.294 26.52,28.932C26.775,29.043 27.029,29.164 27.268,29.306C27.517,29.454 27.723,29.659 27.815,29.944C27.945,30.348 27.875,30.725 27.371,30.853C27.213,30.893 27.053,30.924 26.876,30.962C26.854,31.252 26.836,31.537 26.811,31.821C26.769,32.274 26.767,32.274 27.181,32.474C27.233,32.5 27.283,32.532 27.338,32.552C27.371,32.564 27.408,32.575 27.444,32.575C27.453,32.575 27.461,32.574 27.469,32.573C28.052,32.468 28.572,32.238 28.973,31.787C29.671,31.001 29.761,29.904 29.198,28.96C28.782,28.264 28.166,27.799 27.431,27.482C25.855,26.8 24.273,26.131 22.704,25.432C22.277,25.242 21.882,24.973 21.487,24.717C21.364,24.637 21.232,24.491 21.206,24.356C21.072,23.659 21.283,23.324 21.924,23.214C22.053,23.192 22.184,23.181 22.319,23.165C22.243,22.604 22.17,22.057 22.092,21.482ZM23.273,27.99C23.313,28.432 23.351,28.855 23.387,29.279C23.423,29.708 23.463,30.138 23.49,30.568C23.499,30.695 23.547,30.759 23.662,30.812C24.228,31.072 24.789,31.343 25.352,31.609C25.687,31.768 26.024,31.925 26.372,32.089C26.384,32.017 26.395,31.967 26.399,31.915C26.461,31.12 26.52,30.323 26.585,29.528C26.594,29.424 26.551,29.385 26.466,29.349C25.445,28.91 24.425,28.469 23.404,28.029C23.366,28.012 23.324,28.005 23.273,27.99ZM27.879,21.672L27.871,21.672C27.797,22.232 27.725,22.779 27.65,23.345C27.739,23.35 27.796,23.352 27.854,23.357C28.244,23.396 28.591,23.525 28.915,23.76C29.33,24.06 29.19,25.062 28.636,25.176C28.353,25.234 28.064,25.281 27.776,25.298C27.421,25.32 27.414,25.304 27.373,25.649C27.322,26.082 27.28,26.515 27.233,26.96C27.297,26.97 27.347,26.985 27.393,26.985L27.403,26.985C27.826,26.967 28.257,26.984 28.673,26.917C30.167,26.675 31.118,25.265 30.783,23.797C30.561,22.827 29.915,22.227 29.007,21.886C28.649,21.751 28.278,21.672 27.879,21.672ZM25.328,7.5L24.663,7.5C24.631,7.511 24.599,7.526 24.566,7.531C23.737,7.649 23.056,8.035 22.535,8.686C21.39,10.118 21.703,12.169 23.217,13.246C23.373,13.357 23.525,13.482 23.644,13.629C23.715,13.716 23.774,13.884 23.735,13.97C23.699,14.052 23.531,14.108 23.417,14.116C23.276,14.125 23.134,14.127 22.992,14.127L22.473,14.124C21.864,14.125 21.453,14.581 21.544,15.187C21.8,16.887 22.083,18.582 22.329,20.283C22.553,21.834 22.744,23.39 22.944,24.945C22.959,25.064 22.995,25.128 23.109,25.176C23.721,25.433 24.329,25.7 24.939,25.963C25.564,26.233 26.189,26.502 26.832,26.779C26.845,26.691 26.858,26.618 26.866,26.545C26.896,26.278 26.919,26.011 26.952,25.745C27.109,24.478 27.256,23.21 27.428,21.946C27.62,20.543 27.831,19.143 28.041,17.743C28.169,16.896 28.321,16.053 28.444,15.206C28.536,14.57 28.136,14.125 27.501,14.124L27.001,14.125C26.847,14.125 26.693,14.124 26.538,14.119C26.224,14.108 26.12,13.914 26.315,13.671C26.454,13.497 26.636,13.352 26.815,13.216C27.79,12.481 28.248,11.503 28.117,10.295C27.991,9.129 27.357,8.282 26.291,7.788C25.991,7.648 25.65,7.594 25.328,7.5ZM28.958,15.674C28.851,15.674 28.778,15.679 28.757,15.817C28.613,16.756 28.46,17.693 28.311,18.631C28.244,19.056 28.345,19.26 28.635,19.26C28.726,19.26 28.834,19.24 28.962,19.201C31.782,18.333 34.603,17.466 37.422,16.593C37.642,16.525 37.857,16.428 38.058,16.314C38.304,16.175 38.485,15.963 38.619,15.675L38.389,15.675C36.984,15.675 35.579,15.675 34.174,15.675L32.215,15.675L28.958,15.674ZM20.988,15.671L20.987,15.671C18.948,15.675 16.91,15.675 14.871,15.675L11.36,15.675C11.421,15.775 11.457,15.84 11.499,15.901C11.752,16.273 12.128,16.46 12.543,16.588C15.368,17.458 18.193,18.329 21.019,19.198C21.15,19.239 21.262,19.259 21.354,19.259C21.647,19.259 21.747,19.053 21.678,18.623C21.532,17.714 21.38,16.806 21.244,15.896C21.219,15.723 21.165,15.671 20.988,15.671ZM19.552,12.478L9.619,12.478C9.651,12.543 9.675,12.594 9.702,12.643C10.152,13.466 10.604,14.288 11.049,15.113C11.113,15.231 11.182,15.273 11.318,15.273L11.318,15.273C13.54,15.269 15.761,15.269 17.983,15.269L21.128,15.269C21.089,14.775 20.976,14.348 20.598,14.028C20.424,13.881 20.271,13.711 20.11,13.55C19.811,13.251 19.432,12.996 19.552,12.478ZM40.371,12.478L30.471,12.478C30.464,12.517 30.452,12.551 30.454,12.584C30.475,12.898 30.329,13.127 30.107,13.332C29.825,13.594 29.561,13.874 29.283,14.141C28.964,14.447 28.909,14.846 28.861,15.261C28.922,15.264 28.967,15.269 29.013,15.269C32.245,15.269 35.476,15.269 38.708,15.271L38.708,15.271C38.816,15.271 38.873,15.239 38.924,15.143C39.381,14.298 39.845,13.456 40.307,12.612C40.328,12.573 40.346,12.532 40.371,12.478ZM13.322,9.077C11.935,9.077 10.547,9.078 9.16,9.079C8.678,9.079 8.361,9.377 8.362,9.859C8.362,10.049 8.412,10.256 8.497,10.426C8.748,10.925 9.031,11.408 9.293,11.902C9.355,12.021 9.423,12.065 9.56,12.065L9.561,12.065C11.833,12.062 14.105,12.062 16.378,12.062L19.516,12.062C19.524,12.021 19.532,11.999 19.532,11.977C19.532,11.417 19.537,10.857 19.529,10.297C19.523,9.881 19.303,9.583 18.959,9.372C18.606,9.154 18.212,9.08 17.805,9.079C16.311,9.078 14.816,9.077 13.322,9.077ZM37.455,9.078C35.679,9.078 33.903,9.079 32.128,9.087C31.843,9.088 31.547,9.159 31.278,9.256C30.706,9.461 30.458,9.853 30.457,10.46L30.457,12.062L40.397,12.062C40.421,12.062 40.447,12.065 40.472,12.065C40.488,12.065 40.503,12.064 40.518,12.059C40.563,12.046 40.624,12.026 40.643,11.991C40.978,11.359 41.307,10.724 41.638,10.09L41.638,9.74C41.527,9.343 41.304,9.078 40.857,9.078L37.455,9.078Z" style="fill:#3db8f5;fill-rule:nonzero;"/></g></g></svg>