<svg xmlns="http://www.w3.org/2000/svg" xml:space="preserve" style="fill-rule:evenodd;clip-rule:evenodd;stroke-linejoin:round;stroke-miterlimit:2" viewBox="0 0 256 256"><path d="M0 0h256v256H0z" style="fill:none"/><g><circle cx="128" cy="128" r="128"/><path d="M128 0c70.645 0 128 57.355 128 128s-57.355 128-128 128S0 198.645 0 128 57.355 0 128 0m0 8C61.77 8 8 61.77 8 128s53.77 120 120 120 120-53.77 120-120S194.23 8 128 8" style="fill:#0077af"/><path d="M1712.34 102.602c-.05 3.649.54 7.431 1.75 11.169-.71.43-1.37.943-1.96 1.538-2.26 2.253-3.33 5.384-3.21 8.879.16 4.786 2.59 10.305 7.09 14.803s10.02 6.931 14.8 7.09c3.5.116 6.63-.954 8.88-3.207.6-.595 1.11-1.252 1.54-1.961 3.74 1.212 7.52 1.8 11.17 1.751 5.69 4.835 12.12 7.574 17.73 7.954 4.64.315 8.75-.961 11.64-3.848s4.16-6.999 3.85-11.643c-.38-5.605-3.12-12.035-7.96-17.729.13-9.426-4-19.747-12.15-27.904-8.16-8.158-18.48-12.285-27.91-12.158-5.69-4.835-12.12-7.574-17.73-7.954-4.64-.315-8.75.961-11.64 3.848s-4.16 6.999-3.85 11.643c.38 5.605 3.12 12.035 7.96 17.729m64.69 20.556c-1.01 4.664-3.19 8.91-6.57 12.298-3.39 3.388-7.64 5.567-12.3 6.569 4.08 2.745 8.37 4.34 12.24 4.602 3.39.23 6.43-.577 8.54-2.686s2.92-5.151 2.69-8.543c-.26-3.868-1.86-8.16-4.6-12.24m-61.47-5.552c-.21.163-.41.34-.61.532-1.49 1.493-2.11 3.6-2.03 5.917.13 3.93 2.22 8.414 5.92 12.108 3.69 3.693 8.18 5.79 12.1 5.921 2.32.077 4.43-.544 5.92-2.038.19-.192.37-.394.53-.605-4.57-2.033-8.98-5.02-12.9-8.935-3.91-3.915-6.9-8.328-8.93-12.9m49.34-5.686c2.66 1.482 5.27 3.45 7.68 5.858q.555.556 1.08 1.127c-.39 5.234-2.36 10.047-6.03 13.722-3.68 3.676-8.49 5.647-13.73 6.031-.38-.35-.75-.71-1.12-1.081-2.41-2.408-4.38-5.021-5.86-7.673a19.9 19.9 0 0 0 12.22-5.762 19.84 19.84 0 0 0 5.76-12.222m-22.68 17.884c.41 1.429.63 2.84.68 4.192.03 1.113-.05 2.188-.25 3.211 1.83.587 3.66 1.007 5.48 1.255-2.42-2.752-4.34-5.691-5.73-8.635zm-15.78-12.345a19.8 19.8 0 0 0 4.42 6.683 19.9 19.9 0 0 0 6.68 4.418c.84 1.887 1.3 3.785 1.36 5.569q.03.822-.06 1.6c-4.08-1.856-8.02-4.557-11.52-8.051-3.49-3.495-6.19-7.436-8.05-11.513.52-.062 1.05-.083 1.6-.065 1.78.06 3.68.524 5.57 1.359m31.12-8.459v-5.024h-25v1h15.96v10.118h-15.96v1.882h19V109zm0 2v5.976h-4V111zm-15.69-29.462c2.42 2.752 4.34 5.691 5.73 8.635 4.23.551 8.3 2.446 11.54 5.685a19.9 19.9 0 0 1 5.69 11.538c2.94 1.394 5.88 3.315 8.63 5.732-.98-7.201-4.66-14.687-10.78-20.806-6.12-6.118-13.61-9.802-20.81-10.784m-9.31 25.438v6.118h13.96v-6.118zm-16.02-.104c.25 1.818.67 3.653 1.25 5.48a14 14 0 0 1 3.21-.25c1.36.045 2.77.272 4.2.675l-.03-.173c-2.94-1.394-5.88-3.315-8.63-5.732m19.56-25.53c.38.35.75.71 1.12 1.081 2.41 2.408 4.38 5.021 5.86 7.673a19.9 19.9 0 0 0-12.22 5.762 19.84 19.84 0 0 0-5.76 12.222c-2.66-1.482-5.27-3.45-7.68-5.858q-.555-.556-1.08-1.127c.39-5.234 2.36-10.047 6.03-13.722 3.68-3.676 8.49-5.647 13.73-6.031m-4.26-3.367c-4.08-2.745-8.37-4.34-12.24-4.602-3.39-.23-6.43.577-8.54 2.686s-2.92 5.151-2.69 8.543c.26 3.868 1.86 8.16 4.61 12.24 1-4.664 3.18-8.91 6.56-12.298 3.39-3.388 7.64-5.567 12.3-6.569" style="fill:#dbc557" transform="matrix(0 -1.84435 -1.84435 0 330.878 3346.38)"/></g></svg>