<svg xmlns="http://www.w3.org/2000/svg" xml:space="preserve" style="fill-rule:evenodd;clip-rule:evenodd;stroke-linejoin:round;stroke-miterlimit:2" viewBox="0 0 256 256"><path d="M0 0h256v256H0z" style="fill:none"/><g><circle cx="128" cy="128" r="128"/><path d="M128 0c70.645 0 128 57.355 128 128s-57.355 128-128 128S0 198.645 0 128 57.355 0 128 0m0 8C61.77 8 8 61.77 8 128s53.77 120 120 120 120-53.77 120-120S194.23 8 128 8" style="fill:#0077af"/><path d="M2133.73 25.719h1.81v-2.088h.56v2.088h.41v-2.088h.56v2.088h2.51v.396l-.19.24h-2.32v2.16h-.56v-2.16h-.41v2.16h-.56v-2.16h-1.81q-1.335 0-2.28-.936c-.63-.624-.94-1.38-.94-2.268q0-.564.21-1.116l-.15-.24.28-.3h.13q.435-.708 1.14-1.116c.5-.288 1.03-.432 1.61-.432s1.12.144 1.61.432c.51.312.89.684 1.15 1.116h1.94q.375.012.75.444c.23.256.35.508.37.756l-.19.192h-1.66v.312l-.15.156-2.43.012q-.105.516-.48.858c-.26.228-.56.342-.91.342-.4 0-.74-.14-1.01-.42s-.41-.612-.41-.996c0-.312.1-.604.31-.876h-1.3c-.11.28-.16.572-.16.876q0 1.056.75 1.812c.5.504 1.1.756 1.82.756m1.98-4.224q-.75-.9-1.98-.9c-.8 0-1.45.3-1.97.9z" style="fill:#ccc;fill-rule:nonzero" transform="translate(-35173.7 -272.652)scale(16.5344)"/></g></svg>