<svg xmlns="http://www.w3.org/2000/svg" xml:space="preserve" style="fill-rule:evenodd;clip-rule:evenodd;stroke-linecap:round;stroke-miterlimit:1.5" viewBox="0 0 256 256"><path d="M0 0h256v256H0z" style="fill:none"/><g><circle cx="128" cy="128" r="128"/><path d="M128 0c70.645 0 128 57.355 128 128s-57.355 128-128 128S0 198.645 0 128 57.355 0 128 0m0 8C61.77 8 8 61.77 8 128s53.77 120 120 120 120-53.77 120-120S194.23 8 128 8" style="fill:#f5d63d"/><path d="M0 20.813s-8.216-2.334-12.151-6.443c-3.935-4.108-2.237-8.697-.502-10.377 2.468-2.392 6.943-3.819 10.184.424 2.918 3.821.346 8.994-3.395 8.102C-8.449 11.901-9.2 9.644-9.2 9.644l-.714.29 2.777 4.918 6.366-1.08.598-10.3L-7.291-.81l-9.201 5.381 1.254 12.307L0 21.623z" style="fill:#f5d63d;fill-rule:nonzero" transform="translate(183.138 58.416)scale(6.68658)"/><circle cx="1928" cy="1439" r="9" style="fill:#f5d63d;stroke:#f5d63d;stroke-width:8px" transform="translate(-1800 -1200)"/></g></svg>