<svg xmlns="http://www.w3.org/2000/svg" xml:space="preserve" style="fill-rule:evenodd;clip-rule:evenodd;stroke-linecap:round;stroke-miterlimit:1.5" viewBox="0 0 256 256"><path d="M0 0h256v256H0z" style="fill:none"/><g><circle cx="128" cy="128" r="128"/><path d="M128 0c70.645 0 128 57.355 128 128s-57.355 128-128 128S0 198.645 0 128 57.355 0 128 0m0 8C61.77 8 8 61.77 8 128s53.77 120 120 120 120-53.77 120-120S194.23 8 128 8" style="fill:#f54d3d"/><path d="m0 32.213-.877-6.967 4.836-2.204-5.25-1.461L-3.733 0l-2.442 21.581-5.248 1.461 4.559 2.204-.876 6.967 4.077-6.005z" style="fill:#f54d3d;fill-rule:nonzero" transform="translate(148.854 38)scale(5.58781)"/><circle cx="1928" cy="1439" r="9" style="fill:none;stroke:#f54d3d;stroke-width:8px" transform="translate(-1800 -1200)"/></g></svg>