<?xml version="1.0" encoding="UTF-8" standalone="no"?>
<!DOCTYPE svg PUBLIC "-//W3C//DTD SVG 1.1//EN" "http://www.w3.org/Graphics/SVG/1.1/DTD/svg11.dtd">
<svg width="100%" height="100%" viewBox="0 0 256 256" version="1.1" xmlns="http://www.w3.org/2000/svg" xmlns:xlink="http://www.w3.org/1999/xlink" xml:space="preserve" xmlns:serif="http://www.serif.com/" style="fill-rule:evenodd;clip-rule:evenodd;stroke-linecap:round;stroke-miterlimit:1.5;">
    <g transform="matrix(1,0,0,1,-6600,-2100)">
        <g transform="matrix(1,0,0,1,6600,2100)">
            <rect id="department-command-rank-4-token" x="0" y="0" width="256" height="256" style="fill:none;"/>
            <g id="department-command-rank-4-token1" serif:id="department-command-rank-4-token">
                <circle cx="128" cy="128" r="128"/>
                <path d="M128,0C198.645,0 256,57.355 256,128C256,198.645 198.645,256 128,256C57.355,256 0,198.645 0,128C0,57.355 57.355,0 128,0ZM128,8C61.77,8 8,61.77 8,128C8,194.23 61.77,248 128,248C194.23,248 248,194.23 248,128C248,61.77 194.23,8 128,8Z" style="fill:rgb(245,77,61);"/>
                <g transform="matrix(5.58781,0,0,5.58781,148.854,38)">
                    <g id="Command">
                        <path id="Command1" serif:id="Command" d="M0,32.213L-0.877,25.246L3.959,23.042L-1.291,21.581L-3.733,0L-6.175,21.581L-11.423,23.042L-6.864,25.246L-7.74,32.213L-3.663,26.208L0,32.213Z" style="fill:rgb(245,77,61);fill-rule:nonzero;"/>
                    </g>
                </g>
                <g transform="matrix(0.992546,0.121869,-0.121869,0.992546,-1623.79,-1425.07)">
                    <circle cx="1928" cy="1439" r="9" style="fill:rgb(245,77,61);stroke:rgb(245,77,61);stroke-width:8px;"/>
                </g>
                <g transform="matrix(0.992546,-0.121869,0.121869,0.992546,-1947.47,-955.137)">
                    <circle cx="1928" cy="1439" r="9" style="fill:rgb(245,77,61);stroke:rgb(245,77,61);stroke-width:8px;"/>
                </g>
            </g>
        </g>
    </g>
</svg>
