<?xml version="1.0" encoding="UTF-8" standalone="no"?>
<!DOCTYPE svg PUBLIC "-//W3C//DTD SVG 1.1//EN" "http://www.w3.org/Graphics/SVG/1.1/DTD/svg11.dtd">
<svg width="100%" height="100%" viewBox="0 0 256 256" version="1.1" xmlns="http://www.w3.org/2000/svg" xmlns:xlink="http://www.w3.org/1999/xlink" xml:space="preserve" xmlns:serif="http://www.serif.com/" style="fill-rule:evenodd;clip-rule:evenodd;stroke-linejoin:round;stroke-miterlimit:2;">
    <g transform="matrix(1,0,0,1,-7200,-900)">
        <g transform="matrix(1,0,0,1,7200,900)">
            <rect id="department-operations-token" x="0" y="0" width="256" height="256" style="fill:none;"/>
            <g id="department-operations-token1" serif:id="department-operations-token">
                <circle cx="128" cy="128" r="128"/>
                <path d="M128,0C198.645,0 256,57.355 256,128C256,198.645 198.645,256 128,256C57.355,256 0,198.645 0,128C0,57.355 57.355,0 128,0ZM128,8C61.77,8 8,61.77 8,128C8,194.23 61.77,248 128,248C194.23,248 248,194.23 248,128C248,61.77 194.23,8 128,8Z" style="fill:rgb(245,214,61);"/>
                <g transform="matrix(6.68658,0,0,6.68658,183.138,58.4161)">
                    <g id="Operations">
                        <path id="Operations1" serif:id="Operations" d="M0,20.813C0,20.813 -8.216,18.479 -12.151,14.37C-16.086,10.262 -14.388,5.673 -12.653,3.993C-10.185,1.601 -5.71,0.174 -2.469,4.417C0.449,8.238 -2.123,13.411 -5.864,12.519C-8.449,11.901 -9.2,9.644 -9.2,9.644L-9.914,9.934L-7.137,14.852L-0.771,13.772L-0.173,3.472L-7.291,-0.81L-16.492,4.571L-15.238,16.878L0,21.623L0,20.813Z" style="fill:rgb(245,214,61);fill-rule:nonzero;"/>
                    </g>
                </g>
            </g>
        </g>
    </g>
</svg>
