<svg xmlns="http://www.w3.org/2000/svg" xml:space="preserve" style="fill-rule:evenodd;clip-rule:evenodd;stroke-linecap:round;stroke-miterlimit:1.5" viewBox="0 0 256 256"><path d="M0 0h256v256H0z" style="fill:none"/><g><circle cx="128" cy="128" r="128"/><path d="M128 0c70.645 0 128 57.355 128 128s-57.355 128-128 128S0 198.645 0 128 57.355 0 128 0m0 8C61.77 8 8 61.77 8 128s53.77 120 120 120 120-53.77 120-120S194.23 8 128 8" style="fill:#3db8f5"/><path d="M1512.12 41.875v.265l.48 11.885c.04.865.04 1.733.11 2.594.08.928.73 1.524 1.61 1.567.05.003.1.004.14.004.94 0 1.56-.486 1.76-1.39.04-.208.06-.424.07-.637.03-.951.05-1.902.08-2.853.12-2.99.23-5.981.36-8.97.01-.226-.06-.321-.25-.408-.79-.361-1.57-.737-2.35-1.107-.66-.313-1.32-.625-2.01-.95m-2.9-11.095q-.18-.002-.39.061c-3.25.996-4.31 4.771-1.95 7.17a7.3 7.3 0 0 0 1.84 1.361c2.07 1.052 4.17 2.026 6.26 3.028.67.324 1.36.631 2.02.968.49.245.93.555 1.07 1.128.09.376-.02.558-.39.609-.21.027-.27.112-.27.307-.02.791-.06 1.581-.09 2.372-.01.145-.02.289-.02.462 1.29-.032 2.4-.357 3.19-1.405 1.03-1.366.92-3.352-.24-4.786-.66-.81-1.52-1.326-2.45-1.764a521 521 0 0 1-7.23-3.451c-.56-.274-1.05-.686-1.56-1.057-.23-.173-.31-.446-.3-.742.01-.56.26-.946.85-1.142.37-.122.77-.159 1.2-.243-.07-.755-.14-1.52-.22-2.284-.01-.067-.04-.172-.08-.189-.41-.155-.78-.403-1.24-.403m.81 10.262c-.2 0-.41.048-.65.17-1.49.775-2.44 2.322-2.22 3.817.32 2.17 2.3 3.193 4.13 3.193.12 0 .25-.005.37-.014-.05-1.009-.09-2.019-.13-3.02-.34-.079-.65-.132-.95-.234-.13-.044-.29-.17-.33-.291-.06-.205.04-.41.25-.502.29-.125.59-.228.95-.363-.03-.703-.07-1.438-.11-2.173-.01-.055-.04-.137-.09-.158-.41-.192-.78-.425-1.22-.425m-.88-21.399c-.39.057-.76.087-1.12.167-1.74.389-2.96 1.378-3.46 3.116-.5 1.776-.18 3.397 1.15 4.738.98.99 2.21 1.594 3.47 2.145 2.69 1.18 5.39 2.327 8.08 3.497.47.204.94.425 1.38.686.45.271.83.648 1 1.17.24.742.11 1.432-.81 1.667-.29.074-.59.13-.91.201l-.12 1.574c-.08.832-.08.831.68 1.199.09.047.18.106.28.142.06.022.13.042.2.042.01 0 .03-.001.05-.004 1.06-.192 2.02-.613 2.75-1.441 1.28-1.441 1.45-3.454.41-5.184-.76-1.277-1.89-2.129-3.24-2.712-2.89-1.25-5.79-2.477-8.66-3.759-.79-.349-1.51-.842-2.24-1.312-.22-.146-.46-.413-.51-.661-.25-1.278.14-1.893 1.32-2.094.23-.041.47-.061.72-.091-.14-1.029-.27-2.032-.42-3.086m2.17 11.936c.07.811.14 1.587.21 2.363.06.788.14 1.576.19 2.365.01.232.1.351.31.448 1.04.477 2.07.973 3.1 1.461l1.87.88c.02-.131.04-.223.05-.318.11-1.459.22-2.92.34-4.379.02-.19-.06-.261-.22-.328-1.87-.804-3.74-1.614-5.61-2.421-.07-.031-.15-.044-.24-.071m8.45-11.588h-.02c-.13 1.028-.27 2.031-.4 3.068.16.01.26.013.37.023.71.072 1.35.307 1.95.738.76.551.5 2.388-.52 2.597-.52.107-1.04.193-1.57.225-.66.04-.67.01-.74.644-.1.793-.17 1.587-.26 2.403.12.019.21.047.3.047h.01c.78-.034 1.57-.002 2.33-.125 2.74-.444 4.48-3.03 3.87-5.722-.41-1.779-1.59-2.879-3.26-3.505a5.7 5.7 0 0 0-2.06-.393M1515.09-6h-1.22c-.06.02-.12.048-.18.057-1.52.217-2.77.924-3.73 2.119-2.1 2.626-1.52 6.387 1.26 8.362.28.203.56.433.78.702.13.161.24.468.17.626-.07.15-.38.254-.59.267-.26.017-.52.021-.78.021l-.95-.006c-1.12.003-1.87.839-1.7 1.95.47 3.117.99 6.226 1.44 9.346.41 2.845.76 5.699 1.12 8.55.03.218.1.336.31.424 1.12.472 2.24.961 3.35 1.443 1.15.495 2.3.988 3.48 1.497.02-.162.04-.295.06-.43.05-.489.1-.979.16-1.467.28-2.323.55-4.648.87-6.967.35-2.573.74-5.141 1.12-7.709.24-1.553.52-3.099.74-4.653.17-1.166-.56-1.982-1.73-1.984l-.91.002c-.29 0-.57-.002-.85-.011-.58-.019-.77-.375-.41-.821.25-.319.59-.586.92-.835 1.78-1.347 2.62-3.141 2.38-5.357-.23-2.139-1.39-3.692-3.35-4.598-.55-.256-1.17-.356-1.76-.528m6.65 14.99c-.19 0-.33.01-.36.264-.27 1.722-.55 3.44-.82 5.16-.12.78.06 1.154.59 1.154q.255 0 .6-.109c5.17-1.591 10.35-3.181 15.52-4.783.4-.125.8-.303 1.16-.511.46-.256.79-.644 1.03-1.172h-.42l-7.73-.001-3.59.001zm-14.61-.005h-.01c-3.73.007-7.47.008-11.21.008h-6.44c.11.183.18.302.25.414.47.682 1.16 1.026 1.92 1.26q7.77 2.395 15.54 4.787c.24.075.45.112.62.112.54 0 .72-.378.59-1.167-.27-1.666-.54-3.331-.79-5-.05-.319-.15-.414-.47-.414m-2.64-5.855h-18.21c.06.118.1.212.15.302.82 1.51 1.65 3.017 2.47 4.531.12.216.24.292.49.292 4.08-.006 8.15-.007 12.23-.007h5.76c-.07-.905-.27-1.689-.97-2.276-.32-.269-.6-.581-.89-.876-.55-.549-1.25-1.016-1.03-1.966m38.19 0h-18.16c-.01.071-.04.134-.03.195.04.575-.23.995-.64 1.371-.51.48-1 .994-1.51 1.483-.58.562-.69 1.293-.77 2.055.11.006.19.014.28.014 5.92.001 11.85 0 17.78.005.19 0 .3-.06.39-.235.84-1.551 1.69-3.095 2.54-4.642.04-.072.07-.147.12-.246m-49.61-6.237c-2.55 0-5.09.001-7.64.003-.88 0-1.46.546-1.46 1.431 0 .348.09.727.25 1.039.46.916.98 1.802 1.46 2.708.11.217.24.299.49.299 4.17-.006 8.33-.007 12.5-.007h5.76c.01-.075.03-.115.03-.155 0-1.027.01-2.054-.01-3.081-.01-.763-.41-1.309-1.04-1.697-.65-.399-1.37-.536-2.12-.537zm44.26 0c-3.26 0-6.52.003-9.77.017-.52.002-1.07.132-1.56.31-1.05.377-1.5 1.095-1.51 2.208v2.938h18.23c.05 0 .1.006.14.006q.045.001.09-.011c.08-.024.19-.06.22-.125.62-1.159 1.22-2.323 1.83-3.486v-.642c-.2-.729-.61-1.214-1.43-1.214z" style="fill:#3db8f5;fill-rule:nonzero" transform="translate(-3647 70.956)scale(2.4926)"/><circle cx="1928" cy="1439" r="9" style="fill:#3db8f5;stroke:#3db8f5;stroke-width:8px" transform="rotate(14 5914.613 -6601.92)"/><circle cx="1928" cy="1439" r="9" style="fill:#3db8f5;stroke:#3db8f5;stroke-width:8px" transform="translate(-1800 -1200)"/><circle cx="1928" cy="1439" r="9" style="fill:#3db8f5;stroke:#3db8f5;stroke-width:8px" transform="rotate(-14 -3858.605 8057.9)"/></g></svg>