<svg xmlns="http://www.w3.org/2000/svg" xml:space="preserve" style="fill-rule:evenodd;clip-rule:evenodd;stroke-linecap:round;stroke-miterlimit:1.5" viewBox="0 0 256 256"><path d="M0 0h256v256H0z" style="fill:none"/><g><circle cx="128" cy="128" r="128"/><path d="M128 0c70.645 0 128 57.355 128 128s-57.355 128-128 128S0 198.645 0 128 57.355 0 128 0m0 8C61.77 8 8 61.77 8 128s53.77 120 120 120 120-53.77 120-120S194.23 8 128 8" style="fill:#f54d3d"/><path d="M213.5 17.978c2.5-.5 5.083-2.25 7-4s4-4.5 4.5-6.5c.5 2 2.583 4.75 4.5 6.5s4.5 3.5 7 4c-2.5.5-6.664 2.154-8 5-1.917 4.084-3 15.5-3.5 19.5-.5-4-1.583-15.416-3.5-19.5-1.336-2.846-5.5-4.5-8-5m11.434-3.206-.424 2.182a.68.68 0 0 1-.534.534l-2.182.424a.068.068 0 0 0 0 .133l2.182.423a.675.675 0 0 1 .534.535l.424 2.182a.068.068 0 0 0 .132 0l.424-2.182a.675.675 0 0 1 .534-.535l2.182-.423a.068.068 0 0 0 0-.133l-2.182-.424a.68.68 0 0 1-.534-.534l-.424-2.182a.068.068 0 0 0-.132 0" style="fill:#f54d3d" transform="translate(-900.571 13.813)scale(4.57143)"/><path d="M1916.84 1455.5c3.71.33 7.44.5 11.16.5s7.45-.17 11.16-.5l-1.68-19.73c-3.15.29-6.32.43-9.48.43s-6.33-.14-9.48-.43z" style="fill:none;stroke:#f54d3d;stroke-width:8.66px" transform="matrix(.9375 0 0 .9091 -1679.5 -1075.64)"/><path d="M1894.87 1451.5a124.2 124.2 0 0 0 66.26 0l-4.97-19.12c-9.18 2.53-18.65 3.82-28.16 3.82s-18.97-1.29-28.16-3.82z" style="fill:none;stroke:#f54d3d;stroke-width:8.66px" transform="matrix(.9375 0 0 .9091 -1679.5 -1075.64)"/><path d="M1873.9 1443.63c16.95 8.15 35.41 12.37 54.1 12.37s37.15-4.22 54.1-12.37l-8.12-17.94c-14.4 6.92-30.09 10.51-45.98 10.51s-31.58-3.59-45.98-10.51z" style="fill:none;stroke:#f54d3d;stroke-width:8.66px" transform="matrix(.9375 0 0 .9091 -1679.5 -1075.64)"/></g></svg>