<svg xmlns="http://www.w3.org/2000/svg" xml:space="preserve" style="fill-rule:evenodd;clip-rule:evenodd;stroke-linecap:round;stroke-miterlimit:1.5" viewBox="0 0 256 256"><path d="M0 0h256v256H0z" style="fill:none"/><g><circle cx="128" cy="128" r="128"/><path d="M128 0c70.645 0 128 57.355 128 128s-57.355 128-128 128S0 198.645 0 128 57.355 0 128 0m0 8C61.77 8 8 61.77 8 128s53.77 120 120 120 120-53.77 120-120S194.23 8 128 8" style="fill:#f5d63d"/><path d="M1324 9.033c-8.03.503-14.46 6.938-14.95 14.967h-1.55v2h1.55c.49 8.031 6.92 14.465 14.95 14.968V42.5h2v-1.53c8.04-.489 14.49-6.93 14.98-14.97h1.52v-2h-1.52c-.49-8.039-6.94-14.479-14.98-14.969V7.5h-2zM1338.98 26c-.49 6.935-6.04 12.482-12.98 12.966v-2.007c5.83-.482 10.48-5.133 10.96-10.959zm-25.94 0c.48 5.827 5.13 10.478 10.96 10.959v2.005c-6.92-.498-12.46-6.039-12.95-12.964zm10.96 6.434a7.5 7.5 0 0 1-6.43-6.434h6.43zm8.43-6.434a7.5 7.5 0 0 1-6.43 6.434V26zM1324 11.037v6.53a7.5 7.5 0 0 0-6.43 6.433h-6.52c.49-6.924 6.03-12.466 12.95-12.963m2-.002c6.94.483 12.49 6.03 12.98 12.965h-6.55a7.5 7.5 0 0 0-6.43-6.433z" style="fill:#f5d63d" transform="translate(-5550.57 20.857)scale(4.28571)"/><circle cx="1928" cy="1439" r="9" style="fill:#f5d63d;stroke:#f5d63d;stroke-width:8px" transform="translate(-1800 -1200)"/></g></svg>