<svg xmlns="http://www.w3.org/2000/svg" xml:space="preserve" style="fill-rule:evenodd;clip-rule:evenodd;stroke-linecap:round;stroke-miterlimit:1.5" viewBox="0 0 256 256"><path d="M0 0h256v256H0z" style="fill:none"/><g><circle cx="128" cy="128" r="128"/><path d="M128 0c70.645 0 128 57.355 128 128s-57.355 128-128 128S0 198.645 0 128 57.355 0 128 0m0 8C61.77 8 8 61.77 8 128s53.77 120 120 120 120-53.77 120-120S194.23 8 128 8" style="fill:#f54d3d"/><path d="M213.5 17.978c2.5-.5 5.083-2.25 7-4s4-4.5 4.5-6.5c.5 2 2.583 4.75 4.5 6.5s4.5 3.5 7 4c-2.5.5-6.664 2.154-8 5-1.917 4.084-3 15.5-3.5 19.5-.5-4-1.583-15.416-3.5-19.5-1.336-2.846-5.5-4.5-8-5m11.434-3.206-.424 2.182a.68.68 0 0 1-.534.534l-2.182.424a.068.068 0 0 0 0 .133l2.182.423a.675.675 0 0 1 .534.535l.424 2.182a.068.068 0 0 0 .132 0l.424-2.182a.675.675 0 0 1 .534-.535l2.182-.423a.068.068 0 0 0 0-.133l-2.182-.424a.68.68 0 0 1-.534-.534l-.424-2.182a.068.068 0 0 0-.132 0" style="fill:#f54d3d" transform="translate(-900.571 13.813)scale(4.57143)"/><circle cx="1928" cy="1439" r="9" style="fill:#f54d3d;stroke:#f54d3d;stroke-width:8px" transform="rotate(14 5914.613 -6601.92)"/><circle cx="1928" cy="1439" r="9" style="fill:#f54d3d;stroke:#f54d3d;stroke-width:8px" transform="translate(-1800 -1200)"/><circle cx="1928" cy="1439" r="9" style="fill:none;stroke:#f54d3d;stroke-width:8px" transform="rotate(-14 -3858.605 8057.9)"/></g></svg>