<svg xmlns="http://www.w3.org/2000/svg" xml:space="preserve" style="fill-rule:evenodd;clip-rule:evenodd;stroke-linecap:round;stroke-miterlimit:1.5" viewBox="0 0 256 256"><path d="M0 0h256v256H0z" style="fill:none"/><g><circle cx="128" cy="128" r="128"/><path d="M128 0c70.645 0 128 57.355 128 128s-57.355 128-128 128S0 198.645 0 128 57.355 0 128 0m0 8C61.77 8 8 61.77 8 128s53.77 120 120 120 120-53.77 120-120S194.23 8 128 8" style="fill:#6e9cf7"/><path d="M0 15.595c-3.663 1.991-8.099 1.127-10.786-1.821q-.045-.163-.082-.326a10.48 10.48 0 0 0 9.578-.225 10.48 10.48 0 0 0 5.399-7.915q.116.12.228.246C5.351 9.412 3.662 13.605 0 15.595M2.57 4.056a8.87 8.87 0 0 1-13.652 7.42A8.869 8.869 0 0 1 2.57 4.056M-8.475.004c3.65-1.984 8.07-1.133 10.76 1.793.024.095.051.191.071.287a10.47 10.47 0 0 0-9.577.225 10.47 10.47 0 0 0-5.399 7.915q-.104-.108-.203-.217c-.991-3.848.698-8.019 4.348-10.003M5.806 4.756A10.5 10.5 0 0 0 3.754.998 10.4 10.4 0 0 0 .666-1.476a10.48 10.48 0 0 0-9.914.056 10.48 10.48 0 0 0-5.441 8.289 10.44 10.44 0 0 0 1.233 5.941 10.437 10.437 0 0 0 4.34 4.28 10.48 10.48 0 0 0 9.889-.071 10.48 10.48 0 0 0 5.439-8.26 10.4 10.4 0 0 0-.406-4.003" style="fill:#6e9cf7;fill-rule:nonzero" transform="translate(158.282 72.26)scale(7.14653)"/><circle cx="1928" cy="1439" r="9" style="fill:#6e9cf7;stroke:#6e9cf7;stroke-width:8px" transform="rotate(7 10837.98 -13986.936)"/><circle cx="1928" cy="1439" r="9" style="fill:#6e9cf7;stroke:#6e9cf7;stroke-width:8px" transform="rotate(21 4265.313 -4127.963)"/><circle cx="1928" cy="1439" r="9" style="fill:#6e9cf7;stroke:#6e9cf7;stroke-width:8px" transform="rotate(-7 -8781.932 15442.9)"/><circle cx="1928" cy="1439" r="9" style="fill:#6e9cf7;stroke:#6e9cf7;stroke-width:8px" transform="rotate(-21 -2209.31 5583.974)"/></g></svg>