<?xml version="1.0" encoding="UTF-8" standalone="no"?>
<!DOCTYPE svg PUBLIC "-//W3C//DTD SVG 1.1//EN" "http://www.w3.org/Graphics/SVG/1.1/DTD/svg11.dtd">
<svg width="100%" height="100%" viewBox="0 0 256 256" version="1.1" xmlns="http://www.w3.org/2000/svg" xmlns:xlink="http://www.w3.org/1999/xlink" xml:space="preserve" xmlns:serif="http://www.serif.com/" style="fill-rule:evenodd;clip-rule:evenodd;stroke-linecap:round;stroke-miterlimit:1.5;">
    <g transform="matrix(1,0,0,1,-7800,-2700)">
        <g transform="matrix(1,0,0,1,7800,2700)">
            <rect id="department-science-rank-6-token" x="0" y="0" width="256" height="256" style="fill:none;"/>
            <g id="department-science-rank-6-token1" serif:id="department-science-rank-6-token">
                <circle cx="128" cy="128" r="128"/>
                <path d="M128,0C198.645,0 256,57.355 256,128C256,198.645 198.645,256 128,256C57.355,256 0,198.645 0,128C0,57.355 57.355,0 128,0ZM128,8C61.77,8 8,61.77 8,128C8,194.23 61.77,248 128,248C194.23,248 248,194.23 248,128C248,61.77 194.23,8 128,8Z" style="fill:rgb(110,156,247);"/>
                <g transform="matrix(7.14653,0,0,7.14653,158.282,72.2594)">
                    <g id="Science">
                        <path id="Science1" serif:id="Science" d="M0,15.595C-3.663,17.586 -8.099,16.722 -10.786,13.774C-10.815,13.665 -10.844,13.557 -10.868,13.448C-7.929,14.866 -4.376,14.9 -1.29,13.223C1.796,11.546 3.7,8.545 4.109,5.308C4.187,5.388 4.262,5.471 4.337,5.554C5.351,9.412 3.662,13.605 0,15.595M2.57,4.056C2.55,7.181 0.877,10.201 -2.063,11.799C-5.005,13.397 -8.448,13.158 -11.082,11.476C-11.061,8.351 -9.389,5.331 -6.448,3.732C-3.507,2.134 -0.063,2.373 2.57,4.056M-8.475,0.004C-4.825,-1.98 -0.405,-1.129 2.285,1.797C2.309,1.892 2.336,1.988 2.356,2.084C-0.582,0.666 -4.135,0.632 -7.221,2.309C-10.307,3.986 -12.212,6.986 -12.62,10.224C-12.69,10.153 -12.756,10.079 -12.823,10.007C-13.814,6.159 -12.125,1.988 -8.475,0.004M5.806,4.756C5.603,4.087 5.329,3.428 4.982,2.789C4.628,2.138 4.215,1.54 3.754,0.998C2.877,-0.034 1.825,-0.866 0.666,-1.476C-2.333,-3.06 -6.044,-3.161 -9.248,-1.42C-12.452,0.322 -14.385,3.49 -14.689,6.869C-14.806,8.173 -14.681,9.508 -14.292,10.805C-14.087,11.487 -13.81,12.159 -13.456,12.81C-13.109,13.449 -12.706,14.037 -12.255,14.572C-11.367,15.625 -10.296,16.472 -9.116,17.09C-6.12,18.659 -2.422,18.756 0.773,17.019C3.969,15.282 5.9,12.127 6.212,8.759C6.334,7.433 6.208,6.074 5.806,4.756" style="fill:rgb(110,156,247);fill-rule:nonzero;"/>
                    </g>
                </g>
                <g transform="matrix(0.970296,0.241922,-0.241922,0.970296,-1421.46,-1626.98)">
                    <circle cx="1928" cy="1439" r="9" style="fill:rgb(110,156,247);stroke:rgb(110,156,247);stroke-width:8px;"/>
                </g>
                <g transform="matrix(1,0,0,1,-1800,-1200)">
                    <circle cx="1928" cy="1439" r="9" style="fill:rgb(110,156,247);stroke:rgb(110,156,247);stroke-width:8px;"/>
                </g>
                <g transform="matrix(0.970296,-0.241922,0.241922,0.970296,-2064,-694.127)">
                    <circle cx="1928" cy="1439" r="9" style="fill:rgb(110,156,247);stroke:rgb(110,156,247);stroke-width:8px;"/>
                </g>
            </g>
        </g>
    </g>
</svg>
