<svg xmlns="http://www.w3.org/2000/svg" xml:space="preserve" style="fill-rule:evenodd;clip-rule:evenodd;stroke-linecap:round;stroke-miterlimit:1.5" viewBox="0 0 256 256"><path d="M0 0h256v256H0z" style="fill:none"/><g><circle cx="128" cy="128" r="128"/><path d="M128 0c70.645 0 128 57.355 128 128s-57.355 128-128 128S0 198.645 0 128 57.355 0 128 0m0 8C61.77 8 8 61.77 8 128s53.77 120 120 120 120-53.77 120-120S194.23 8 128 8" style="fill:#6e9cf7"/><path d="M0 15.595c-3.663 1.991-8.099 1.127-10.786-1.821q-.045-.163-.082-.326a10.48 10.48 0 0 0 9.578-.225 10.48 10.48 0 0 0 5.399-7.915q.116.12.228.246C5.351 9.412 3.662 13.605 0 15.595M2.57 4.056a8.87 8.87 0 0 1-13.652 7.42A8.869 8.869 0 0 1 2.57 4.056M-8.475.004c3.65-1.984 8.07-1.133 10.76 1.793.024.095.051.191.071.287a10.47 10.47 0 0 0-9.577.225 10.47 10.47 0 0 0-5.399 7.915q-.104-.108-.203-.217c-.991-3.848.698-8.019 4.348-10.003M5.806 4.756A10.5 10.5 0 0 0 3.754.998 10.4 10.4 0 0 0 .666-1.476a10.48 10.48 0 0 0-9.914.056 10.48 10.48 0 0 0-5.441 8.289 10.44 10.44 0 0 0 1.233 5.941 10.437 10.437 0 0 0 4.34 4.28 10.48 10.48 0 0 0 9.889-.071 10.48 10.48 0 0 0 5.439-8.26 10.4 10.4 0 0 0-.406-4.003" style="fill:#6e9cf7;fill-rule:nonzero" transform="translate(158.282 72.26)scale(7.14653)"/><path d="M1916.84 1455.5c3.71.33 7.44.5 11.16.5s7.45-.17 11.16-.5l-1.68-19.73c-3.15.29-6.32.43-9.48.43s-6.33-.14-9.48-.43z" style="fill:none;stroke:#6e9cf7;stroke-width:8.66px" transform="matrix(.9375 0 0 .9091 -1679.5 -1075.64)"/><path d="M1894.87 1451.5a124.2 124.2 0 0 0 66.26 0l-4.97-19.12c-9.18 2.53-18.65 3.82-28.16 3.82s-18.97-1.29-28.16-3.82z" style="fill:none;stroke:#6e9cf7;stroke-width:8.66px" transform="matrix(.9375 0 0 .9091 -1679.5 -1075.64)"/><path d="M1873.9 1443.63c16.95 8.15 35.41 12.37 54.1 12.37s37.15-4.22 54.1-12.37l-8.12-17.94c-14.4 6.92-30.09 10.51-45.98 10.51s-31.58-3.59-45.98-10.51z" style="fill:none;stroke:#6e9cf7;stroke-width:8.66px" transform="matrix(.9375 0 0 .9091 -1679.5 -1075.64)"/></g></svg>