<?xml version="1.0" encoding="UTF-8" standalone="no"?>
<!DOCTYPE svg PUBLIC "-//W3C//DTD SVG 1.1//EN" "http://www.w3.org/Graphics/SVG/1.1/DTD/svg11.dtd">
<svg width="100%" height="100%" viewBox="0 0 256 256" version="1.1" xmlns="http://www.w3.org/2000/svg" xmlns:xlink="http://www.w3.org/1999/xlink" xml:space="preserve" xmlns:serif="http://www.serif.com/" style="fill-rule:evenodd;clip-rule:evenodd;stroke-linejoin:round;stroke-miterlimit:2;">
    <g transform="matrix(1,0,0,1,-4800,0)">
        <g transform="matrix(1,0,0,1,4800,0)">
            <rect id="enemy-betazoid-token" x="0" y="0" width="256" height="256" style="fill:none;"/>
            <g id="enemy-betazoid-token1" serif:id="enemy-betazoid-token">
                <circle cx="128" cy="128" r="128"/>
                <path d="M128,0C198.645,0 256,57.355 256,128C256,198.645 198.645,256 128,256C57.355,256 0,198.645 0,128C0,57.355 57.355,0 128,0ZM128,8C61.77,8 8,61.77 8,128C8,194.23 61.77,248 128,248C194.23,248 248,194.23 248,128C248,61.77 194.23,8 128,8Z" style="fill:rgb(145,19,8);"/>
                <g transform="matrix(1.12934e-16,-1.84435,-1.84435,-1.12934e-16,330.878,3346.38)">
                    <g id="Betazoid">
                        <path id="Betazoid1" serif:id="Betazoid" d="M1712.34,102.602C1712.29,106.251 1712.88,110.033 1714.09,113.771C1713.38,114.201 1712.72,114.714 1712.13,115.309C1709.87,117.562 1708.8,120.693 1708.92,124.188C1709.08,128.974 1711.51,134.493 1716.01,138.991C1720.51,143.489 1726.03,145.922 1730.81,146.081C1734.31,146.197 1737.44,145.127 1739.69,142.874C1740.29,142.279 1740.8,141.622 1741.23,140.913C1744.97,142.125 1748.75,142.713 1752.4,142.664C1758.09,147.499 1764.52,150.238 1770.13,150.618C1774.77,150.933 1778.88,149.657 1781.77,146.77C1784.66,143.883 1785.93,139.771 1785.62,135.127C1785.24,129.522 1782.5,123.092 1777.66,117.398C1777.79,107.972 1773.66,97.651 1765.51,89.494C1757.35,81.336 1747.03,77.209 1737.6,77.336C1731.91,72.501 1725.48,69.762 1719.87,69.382C1715.23,69.067 1711.12,70.343 1708.23,73.23C1705.34,76.117 1704.07,80.229 1704.38,84.873C1704.76,90.478 1707.5,96.908 1712.34,102.602ZM1777.03,123.158C1776.02,127.822 1773.84,132.068 1770.46,135.456C1767.07,138.844 1762.82,141.023 1758.16,142.025C1762.24,144.77 1766.53,146.365 1770.4,146.627C1773.79,146.857 1776.83,146.05 1778.94,143.941C1781.05,141.833 1781.86,138.79 1781.63,135.398C1781.37,131.53 1779.77,127.238 1777.03,123.158ZM1715.56,117.606C1715.35,117.769 1715.15,117.946 1714.95,118.138C1713.46,119.631 1712.84,121.738 1712.92,124.055C1713.05,127.985 1715.14,132.469 1718.84,136.163C1722.53,139.856 1727.02,141.953 1730.94,142.084C1733.26,142.161 1735.37,141.54 1736.86,140.046C1737.05,139.854 1737.23,139.652 1737.39,139.441C1732.82,137.408 1728.41,134.421 1724.49,130.506C1720.58,126.591 1717.59,122.178 1715.56,117.606ZM1764.9,111.92C1767.56,113.402 1770.17,115.37 1772.58,117.778C1772.95,118.149 1773.31,118.524 1773.66,118.905C1773.27,124.139 1771.3,128.952 1767.63,132.627C1763.95,136.303 1759.14,138.274 1753.9,138.658C1753.52,138.308 1753.15,137.948 1752.78,137.577C1750.37,135.169 1748.4,132.556 1746.92,129.904C1751.38,129.477 1755.73,127.556 1759.14,124.142C1762.56,120.728 1764.48,116.383 1764.9,111.92ZM1742.22,129.804C1742.63,131.233 1742.85,132.644 1742.9,133.996C1742.93,135.109 1742.85,136.184 1742.65,137.207C1744.48,137.794 1746.31,138.214 1748.13,138.462C1745.71,135.71 1743.79,132.771 1742.4,129.827C1742.34,129.819 1742.28,129.812 1742.22,129.804ZM1726.44,117.459C1727.41,119.892 1728.89,122.172 1730.86,124.142C1732.83,126.112 1735.11,127.585 1737.54,128.56C1738.38,130.447 1738.84,132.345 1738.9,134.129C1738.92,134.676 1738.9,135.211 1738.84,135.729C1734.76,133.873 1730.82,131.172 1727.32,127.678C1723.83,124.183 1721.13,120.242 1719.27,116.165C1719.79,116.103 1720.32,116.082 1720.87,116.1C1722.65,116.16 1724.55,116.624 1726.44,117.459ZM1757.56,109L1757.56,103.976L1732.56,103.976L1732.56,104.976L1748.52,104.976L1748.52,115.094L1732.56,115.094L1732.56,116.976L1751.56,116.976L1751.56,109L1757.56,109ZM1757.56,111L1757.56,116.976L1753.56,116.976L1753.56,111L1757.56,111ZM1741.87,81.538C1744.29,84.29 1746.21,87.229 1747.6,90.173C1751.83,90.724 1755.9,92.619 1759.14,95.858C1762.38,99.097 1764.28,103.175 1764.83,107.396C1767.77,108.79 1770.71,110.711 1773.46,113.128C1772.48,105.927 1768.8,98.441 1762.68,92.322C1756.56,86.204 1749.07,82.52 1741.87,81.538ZM1732.56,106.976L1732.56,113.094L1746.52,113.094C1746.52,113.094 1746.52,106.976 1746.52,106.976L1732.56,106.976ZM1716.54,106.872C1716.79,108.69 1717.21,110.525 1717.79,112.352C1718.82,112.149 1719.89,112.065 1721,112.102C1722.36,112.147 1723.77,112.374 1725.2,112.777C1725.19,112.719 1725.18,112.662 1725.17,112.604C1722.23,111.21 1719.29,109.289 1716.54,106.872ZM1736.1,81.342C1736.48,81.692 1736.85,82.052 1737.22,82.423C1739.63,84.831 1741.6,87.444 1743.08,90.096C1738.62,90.523 1734.27,92.444 1730.86,95.858C1727.44,99.272 1725.52,103.617 1725.1,108.08C1722.44,106.598 1719.83,104.63 1717.42,102.222C1717.05,101.851 1716.69,101.476 1716.34,101.095C1716.73,95.861 1718.7,91.048 1722.37,87.373C1726.05,83.697 1730.86,81.726 1736.1,81.342ZM1731.84,77.975C1727.76,75.23 1723.47,73.635 1719.6,73.373C1716.21,73.143 1713.17,73.95 1711.06,76.059C1708.95,78.167 1708.14,81.21 1708.37,84.602C1708.63,88.47 1710.23,92.762 1712.98,96.842C1713.98,92.178 1716.16,87.932 1719.54,84.544C1722.93,81.156 1727.18,78.977 1731.84,77.975Z" style="fill:rgb(219,197,87);"/>
                    </g>
                </g>
            </g>
        </g>
    </g>
</svg>
