<?xml version="1.0" encoding="UTF-8" standalone="no"?>
<!DOCTYPE svg PUBLIC "-//W3C//DTD SVG 1.1//EN" "http://www.w3.org/Graphics/SVG/1.1/DTD/svg11.dtd">
<svg width="100%" height="100%" viewBox="0 0 256 256" version="1.1" xmlns="http://www.w3.org/2000/svg" xmlns:xlink="http://www.w3.org/1999/xlink" xml:space="preserve" xmlns:serif="http://www.serif.com/" style="fill-rule:evenodd;clip-rule:evenodd;stroke-linejoin:round;stroke-miterlimit:2;">
    <g transform="matrix(1,0,0,1,-5700,0)">
        <g transform="matrix(1,0,0,1,5700,0)">
            <rect id="enemy-tellarite-token" x="0" y="0" width="256" height="256" style="fill:none;"/>
            <g id="enemy-tellarite-token1" serif:id="enemy-tellarite-token">
                <circle cx="128" cy="128" r="128"/>
                <path d="M128,0C198.645,0 256,57.355 256,128C256,198.645 198.645,256 128,256C57.355,256 0,198.645 0,128C0,57.355 57.355,0 128,0ZM128,8C61.77,8 8,61.77 8,128C8,194.23 61.77,248 128,248C194.23,248 248,194.23 248,128C248,61.77 194.23,8 128,8Z" style="fill:rgb(145,19,8);"/>
                <g transform="matrix(3.25402,0,0,3.25402,-6461.83,54.0852)">
                    <g id="Tellarite">
                        <path id="Tellarite1" serif:id="Tellarite" d="M2031.22,44.547L2031.77,45.097L2029.57,47.3L2028.47,46.199L2029.02,45.648L2029.57,46.199L2031.22,44.547ZM2019.05,43.721L2018.5,44.272L2019.05,44.822L2018.5,45.373L2019.05,45.923L2019.6,45.373L2020.15,45.923L2019.6,46.474L2020.15,47.025L2021.26,45.923L2020.15,44.822L2020.71,44.272L2021.81,45.373L2022.36,44.822L2020.71,43.17L2019.6,44.272L2019.05,43.721ZM2027.37,45.097L2027.92,45.648L2028.47,45.097L2029.02,45.648L2029.57,45.097L2029.02,44.547L2029.57,43.996L2029.02,43.446L2027.37,45.097ZM2048.68,21.806L2025,-1.87L2001.32,21.806L2025,45.483L2048.68,21.806ZM2030.12,43.446L2030.67,43.996L2030.12,44.547L2029.57,43.996L2030.12,43.446ZM2032.05,40.417L2030.95,41.518L2033.15,43.721L2033.7,43.17L2032.05,41.518L2032.6,40.968L2032.05,40.417ZM2016.63,39.096L2014.43,41.298L2016.63,43.501L2017.18,42.95L2015.53,41.298L2016.08,40.748L2016.63,41.298L2017.18,40.748L2016.63,40.197L2017.18,39.646L2016.63,39.096ZM2034.25,40.417L2035.35,41.518L2034.25,42.62L2033.7,42.069L2034.25,41.518L2033.7,40.968L2033.15,41.518L2032.6,40.968L2033.15,40.417L2033.7,40.968L2034.25,40.417ZM2017.73,40.197L2018.83,41.298L2018.28,41.849L2017.18,40.748L2017.73,40.197ZM2044.27,21.806L2025,2.535L2005.73,21.806L2025,41.078L2044.27,21.806ZM2033.15,39.316L2033.7,39.867L2033.15,40.417L2032.6,39.867L2033.15,39.316ZM2013.66,39.426L2013.11,39.977L2012.56,39.426L2013.11,38.876L2013.66,39.426ZM2037,35.462L2034.8,37.664L2037,39.867L2039.21,37.664L2038.11,36.563L2037.55,37.114L2038.11,37.664L2037,38.765L2035.9,37.664L2037.55,36.012L2037,35.462ZM2025,36.453L2020.6,32.048L2021.2,31.442L2019.55,29.79L2017.73,31.607L2025,38.876L2030.45,33.424L2029.24,32.213L2025,36.453ZM2013.11,35.572L2012.56,36.122L2013.66,37.224L2013.11,37.774L2012.01,36.673L2010.9,37.774L2011.46,38.325L2012.01,37.774L2013.11,38.876L2013.66,38.325L2014.21,38.876L2014.76,38.325L2014.21,37.774L2014.76,37.224L2013.11,35.572ZM2008.48,33.149L2007.38,34.25L2009.58,36.453L2011.79,34.25L2010.68,33.149L2010.13,33.7L2010.68,34.25L2009.58,35.352L2009.03,34.801L2009.58,34.25L2008.48,33.149ZM2040.31,33.259L2041.41,34.36L2040.31,35.462L2039.76,34.911L2040.31,34.36L2039.76,33.81L2039.21,34.36L2038.65,33.81L2040.31,32.158L2040.86,32.709L2041.41,32.158L2043.06,33.81L2041.96,34.911L2041.41,34.36L2041.96,33.81L2040.86,32.709L2040.31,33.259ZM2025.06,9.858L2022.14,12.776L2025.16,15.805L2025.16,19.989L2021.09,24.064L2015.91,18.888L2013,21.806L2025,33.81L2027.92,30.892L2026.27,29.24L2032.49,23.018L2034.14,24.67L2037,21.806L2033.59,18.393L2031.72,20.265L2029.02,17.567L2030.89,15.695L2025.06,9.858ZM2009.58,32.048L2009.03,32.598L2009.58,33.149L2010.13,32.598L2009.58,32.048ZM2004.96,30.726L2005.51,31.277L2004.96,31.828L2003.86,30.726L2005.51,29.075L2006.06,29.625L2006.61,29.075L2008.26,30.726L2006.06,32.929L2005.51,32.378L2007.16,30.726L2006.06,29.625L2004.96,30.726ZM2044.44,28.028L2043.34,29.13L2044.44,30.231L2043.89,30.781L2042.79,29.68L2042.23,30.231L2044.44,32.433L2044.99,31.883L2044.44,31.332L2045.54,30.231L2046.09,30.781L2046.64,30.231L2045.54,29.13L2044.99,29.68L2044.44,29.13L2044.99,28.579L2044.44,28.028ZM2033.92,26.432L2032.43,24.945L2027.92,29.46L2029.4,30.947L2033.92,26.432ZM2002.54,25L2000.88,26.652L2001.43,27.202L2001.98,26.652L2002.54,27.202L2001.43,28.304L2002.54,29.405L2003.09,28.854L2002.54,28.304L2003.09,27.753L2003.64,28.304L2004.19,27.753L2003.64,27.202L2004.19,26.652L2002.54,25ZM2047.74,24.725L2046.09,26.377L2046.64,26.927L2047.74,25.826L2048.29,26.377L2047.74,26.927L2048.29,27.478L2047.19,28.579L2047.74,29.13L2049.39,27.478L2048.84,26.927L2049.39,26.377L2047.74,24.725ZM2047.19,27.478L2046.64,26.927L2046.09,27.478L2046.64,28.028L2047.19,27.478ZM2010.35,21.806L2014.59,17.567L2013.38,16.355L2007.93,21.806L2013.38,27.258L2014.59,26.046L2010.35,21.806ZM2042.07,21.806L2034.75,14.483L2032.98,16.245L2034.58,17.842L2035.13,17.291L2039.65,21.806L2035.46,25.991L2036.67,27.202L2042.07,21.806ZM2020.15,12.556L2023.79,16.19L2023.79,19.714L2021.15,22.357L2015.75,16.961L2020.15,12.556ZM2025,4.737L2019.55,10.188L2020.76,11.4L2025,7.16L2029.24,11.4L2030.45,10.188L2025,4.737Z" style="fill:rgb(129,162,228);"/>
                    </g>
                </g>
            </g>
        </g>
    </g>
</svg>
