<svg xmlns="http://www.w3.org/2000/svg" xml:space="preserve" style="fill-rule:evenodd;clip-rule:evenodd;stroke-linecap:round;stroke-miterlimit:1.5" viewBox="0 0 256 256"><path d="M0 0h256v256H0z" style="fill:none"/><g><circle cx="128" cy="128" r="128"/><path d="M128 0c70.645 0 128 57.355 128 128s-57.355 128-128 128S0 198.645 0 128 57.355 0 128 0m0 8C61.77 8 8 61.77 8 128s53.77 120 120 120 120-53.77 120-120S194.23 8 128 8" style="fill:#d1bd94"/><path d="M1533.64 29.211c-.22-.4-.57-.692-1.04-.876-.12-.024-.19-.08-.22-.168a.93.93 0 0 0-.36-.654 1.3 1.3 0 0 0-.73-.27 1.4 1.4 0 0 0-.68.228 1 1 0 0 0-.4.588c-.02.152-.09.244-.19.276-.49.16-.85.446-1.07.858q-.345.618-.48 1.326c.67.288 1.23.78 1.71 1.476q.3.468.48 1.248.18.756-.42 1.152l.54 1.92h.38l.04-.804h.2l.02.804h.39l.55-1.92a.8.8 0 0 1-.4-.534 2.2 2.2 0 0 1-.03-.678c.1-.56.36-1.092.77-1.596q.615-.732 1.41-1.068c-.09-.464-.24-.9-.47-1.308m-4.9 1.176c.08-.384.22-.752.43-1.104q.3-.492.9-.732c.18-.064.31-.212.37-.444.13-.424.42-.632.86-.624q.405.012.63.24a.8.8 0 0 1 .24.492c.02.168.14.28.35.336.34.144.6.34.79.588q.3.396.45.888l-.84.576-.51.084v-.624l-.17-.864-.32-.216-.52.132.08-.48.33-.12.13-.552-.65.516-.65-.516.14.552.33.12.07.48-.5-.132-.34.216-.16.864v.66l.5 1.728a4.1 4.1 0 0 0-1.94-2.064m2.79-.792c-.09-.112-.14-.192-.14-.24l.29.204.12.54-.12.156-.3 1.584h-.17l-.29-1.584-.13-.156.13-.54.29-.204c0 .056-.05.136-.16.24l-.06.384.1.252h.41l.09-.252zm-1.13.492.1-.804.2-.144.29.048c.15.024.23.06.23.108l-.35.156-.21.66.14.204.4 2.1q0 .012.09.012c.07 0 .1-.004.11-.012l.38-2.1.15-.204-.22-.648a.12.12 0 0 0-.06-.06.26.26 0 0 0-.12-.024q-.15-.012-.15-.12l.51-.12.21.144.08.804-.53 2.16-.29.432h-.14l-.29-.432zm1.31 3.372-.26-.42h-.3l-.28.42-.08-.996.37.348h.26l.38-.348zm.06 1.032q-.21 0-.3-.3c-.04-.104-.07-.228-.11-.372l-.02-.072h-.1l-.02.072a2.4 2.4 0 0 1-.11.372c-.05.2-.15.3-.29.3l.05-.732.31-.624h.22l.31.624zm.21.24-.36 1.536-.14-1.212-.19-.348-.19.348-.13 1.212-.35-1.536q.345 0 .48-.264c.09-.176.15-.364.19-.564q.045.24.18.564.15.264.51.264m.61-3.396c-.27.288-.51.608-.71.96l.44-1.488.69-.108.8-.576.09.228c-.15.056-.28.124-.41.204q-.465.312-.9.78m-2.88-1.116c-.07 0-.12.024-.17.072a.22.22 0 0 0-.07.168c0 .064.02.12.07.168s.1.072.17.072c.06 0 .12-.024.17-.072a.26.26 0 0 0 .07-.168c0-.064-.03-.12-.07-.168a.25.25 0 0 0-.17-.072" style="fill:#d1bd94;fill-rule:nonzero" transform="translate(-28566.9 -467.5)scale(18.739)"/><circle cx="1928" cy="1439" r="9" style="fill:none;stroke:#d1bd94;stroke-width:8px" transform="translate(-1800 -1200)"/></g></svg>