<svg xmlns="http://www.w3.org/2000/svg" xml:space="preserve" style="fill-rule:evenodd;clip-rule:evenodd;stroke-linecap:round;stroke-miterlimit:1.5" viewBox="0 0 256 256"><path d="M0 0h256v256H0z" style="fill:none"/><g><circle cx="128" cy="128" r="128"/><path d="M128 0c70.645 0 128 57.355 128 128s-57.355 128-128 128S0 198.645 0 128 57.355 0 128 0m0 8C61.77 8 8 61.77 8 128s53.77 120 120 120 120-53.77 120-120S194.23 8 128 8" style="fill:#ccc"/><path d="M2133.73 25.719h1.81v-2.088h.56v2.088h.41v-2.088h.56v2.088h2.51v.396l-.19.24h-2.32v2.16h-.56v-2.16h-.41v2.16h-.56v-2.16h-1.81q-1.335 0-2.28-.936c-.63-.624-.94-1.38-.94-2.268q0-.564.21-1.116l-.15-.24.28-.3h.13q.435-.708 1.14-1.116c.5-.288 1.03-.432 1.61-.432s1.12.144 1.61.432c.51.312.89.684 1.15 1.116h1.94q.375.012.75.444c.23.256.35.508.37.756l-.19.192h-1.66v.312l-.15.156-2.43.012q-.105.516-.48.858c-.26.228-.56.342-.91.342-.4 0-.74-.14-1.01-.42s-.41-.612-.41-.996c0-.312.1-.604.31-.876h-1.3c-.11.28-.16.572-.16.876q0 1.056.75 1.812c.5.504 1.1.756 1.82.756m1.98-4.224q-.75-.9-1.98-.9c-.8 0-1.45.3-1.97.9z" style="fill:#ccc;fill-rule:nonzero" transform="translate(-35173.7 -272.652)scale(16.5344)"/><path d="M1916.84 1455.5c3.71.33 7.44.5 11.16.5s7.45-.17 11.16-.5l-1.68-19.73c-3.15.29-6.32.43-9.48.43s-6.33-.14-9.48-.43z" style="fill:none;stroke:#ccc;stroke-width:8.66px" transform="matrix(.9375 0 0 .9091 -1679.5 -1075.64)"/><path d="M1894.87 1451.5a124.2 124.2 0 0 0 66.26 0l-4.97-19.12c-9.18 2.53-18.65 3.82-28.16 3.82s-18.97-1.29-28.16-3.82z" style="fill:none;stroke:#ccc;stroke-width:8.66px" transform="matrix(.9375 0 0 .9091 -1679.5 -1075.64)"/><path d="M1873.9 1443.63c16.95 8.15 35.41 12.37 54.1 12.37s37.15-4.22 54.1-12.37l-8.12-17.94c-14.4 6.92-30.09 10.51-45.98 10.51s-31.58-3.59-45.98-10.51z" style="fill:none;stroke:#ccc;stroke-width:8.66px" transform="matrix(.9375 0 0 .9091 -1679.5 -1075.64)"/></g></svg>