<?xml version="1.0" encoding="UTF-8" standalone="no"?>
<!DOCTYPE svg PUBLIC "-//W3C//DTD SVG 1.1//EN" "http://www.w3.org/Graphics/SVG/1.1/DTD/svg11.dtd">
<svg width="100%" height="100%" viewBox="0 0 256 256" version="1.1" xmlns="http://www.w3.org/2000/svg" xmlns:xlink="http://www.w3.org/1999/xlink" xml:space="preserve" xmlns:serif="http://www.serif.com/" style="fill-rule:evenodd;clip-rule:evenodd;stroke-linecap:round;stroke-miterlimit:1.5;">
    <g transform="matrix(1,0,0,1,-2100,-3300)">
        <g transform="matrix(1,0,0,1,2100,3300)">
            <rect id="faction-klingon-rank-8-token" x="0" y="0" width="256" height="256" style="fill:none;"/>
            <g id="faction-klingon-rank-8-token1" serif:id="faction-klingon-rank-8-token">
                <circle cx="128" cy="128" r="128"/>
                <path d="M128,0C198.645,0 256,57.355 256,128C256,198.645 198.645,256 128,256C57.355,256 0,198.645 0,128C0,57.355 57.355,0 128,0ZM128,8C61.77,8 8,61.77 8,128C8,194.23 61.77,248 128,248C194.23,248 248,194.23 248,128C248,61.77 194.23,8 128,8Z" style="fill:rgb(210,58,45);"/>
                <g transform="matrix(5.14286,0,0,5.14286,-5143.14,-12.5714)">
                    <g id="Klingon">
                        <path id="Klingon1" serif:id="Klingon" d="M1022.85,23.056C1024.13,16.336 1025.05,7.5 1025.05,7.5C1025.05,7.5 1025.97,16.303 1027.26,23.01C1031.59,23.972 1034.83,27.837 1034.83,32.459C1034.83,33.296 1034.72,34.108 1034.52,34.883C1037.37,36.128 1040.26,36.18 1040.26,36.18C1040.26,36.18 1036.39,38.898 1031.88,39.413C1030.14,41.1 1027.77,42.138 1025.15,42.138C1022.26,42.138 1019.67,40.871 1017.89,38.863C1014.77,40.216 1012.81,42.611 1012.8,42.496C1012.41,37.834 1013.89,35.612 1015.64,34.26C1015.53,33.677 1015.47,33.074 1015.47,32.459C1015.47,27.907 1018.61,24.09 1022.85,23.056ZM1027.43,23.881C1028.04,26.92 1028.73,29.397 1029.43,30.202L1025.07,37.239L1020.69,30.228C1021.38,29.426 1022.06,26.962 1022.67,23.935C1018.98,25.01 1016.27,28.424 1016.27,32.459C1016.27,32.897 1016.31,33.328 1016.37,33.749C1017.92,32.76 1019.51,32.262 1020.11,31.237L1024.72,38.348C1022.48,37.703 1020.44,37.941 1018.7,38.548C1020.32,40.262 1022.61,41.334 1025.15,41.334C1027.18,41.334 1029.05,40.648 1030.55,39.496C1028.88,39.511 1027.16,39.171 1025.56,38.24L1030.07,31.117C1030.97,32.695 1032.34,33.781 1033.78,34.53C1033.94,33.865 1034.02,33.172 1034.02,32.459C1034.02,28.353 1031.22,24.889 1027.43,23.881Z" style="fill:rgb(210,58,45);fill-rule:nonzero;"/>
                    </g>
                </g>
                <g transform="matrix(0.9375,0,0,0.909091,-1679.5,-1075.64)">
                    <path d="M1916.84,1455.5C1920.55,1455.83 1924.28,1456 1928,1456C1931.72,1456 1935.45,1455.83 1939.16,1455.5L1937.48,1435.77C1934.33,1436.06 1931.16,1436.2 1928,1436.2C1924.84,1436.2 1921.67,1436.06 1918.52,1435.77L1916.84,1455.5Z" style="fill:none;stroke:rgb(210,58,45);stroke-width:8.66px;"/>
                </g>
                <g transform="matrix(0.9375,0,0,0.909091,-1679.5,-1075.64)">
                    <path d="M1894.87,1451.5C1905.68,1454.49 1916.81,1456 1928,1456C1939.19,1456 1950.32,1454.49 1961.13,1451.5L1956.16,1432.38C1946.98,1434.91 1937.51,1436.2 1928,1436.2C1918.49,1436.2 1909.03,1434.91 1899.84,1432.38L1894.87,1451.5Z" style="fill:none;stroke:rgb(210,58,45);stroke-width:8.66px;"/>
                </g>
                <g transform="matrix(0.9375,0,0,0.909091,-1679.5,-1075.64)">
                    <path d="M1873.9,1443.63C1890.85,1451.78 1909.31,1456 1928,1456C1946.69,1456 1965.15,1451.78 1982.1,1443.63L1973.98,1425.69C1959.58,1432.61 1943.89,1436.2 1928,1436.2C1912.11,1436.2 1896.42,1432.61 1882.02,1425.69L1873.9,1443.63Z" style="fill:none;stroke:rgb(210,58,45);stroke-width:8.66px;"/>
                </g>
            </g>
        </g>
    </g>
</svg>
