<?xml version="1.0" encoding="UTF-8" standalone="no"?>
<!DOCTYPE svg PUBLIC "-//W3C//DTD SVG 1.1//EN" "http://www.w3.org/Graphics/SVG/1.1/DTD/svg11.dtd">
<svg width="100%" height="100%" viewBox="0 0 256 256" version="1.1" xmlns="http://www.w3.org/2000/svg" xmlns:xlink="http://www.w3.org/1999/xlink" xml:space="preserve" xmlns:serif="http://www.serif.com/" style="fill-rule:evenodd;clip-rule:evenodd;stroke-linejoin:round;stroke-miterlimit:2;">
    <g transform="matrix(1,0,0,1,-3900,-900)">
        <g transform="matrix(1,0,0,1,3900,900)">
            <rect id="faction-maquis-token" x="0" y="0" width="256" height="256" style="fill:none;"/>
            <g id="faction-maquis-token1" serif:id="faction-maquis-token">
                <circle cx="128" cy="128" r="128"/>
                <path d="M128,0C198.645,0 256,57.355 256,128C256,198.645 198.645,256 128,256C57.355,256 0,198.645 0,128C0,57.355 57.355,0 128,0ZM128,8C61.77,8 8,61.77 8,128C8,194.23 61.77,248 128,248C194.23,248 248,194.23 248,128C248,61.77 194.23,8 128,8Z" style="fill:rgb(242,32,13);"/>
                <g transform="matrix(5.09513,0,0,5.09513,-18387.2,34.6322)">
                    <g id="Maquis">
                        <path id="Maquis1" serif:id="Maquis" d="M3628.87,8.358L3633.9,5.568L3638.92,8.358L3636.13,18.643L3641.55,9.793L3646.26,12.663L3636.85,22.191L3646.26,16.889L3646.37,24.343C3642.15,28.914 3637.99,31.16 3633.9,31.08C3629.81,31.16 3625.64,28.914 3621.42,24.343L3621.54,16.889L3630.95,22.191L3621.54,12.663L3626.24,9.793L3631.66,18.643L3628.87,8.358Z" style="fill:rgb(242,32,13);fill-rule:nonzero;"/>
                    </g>
                </g>
            </g>
        </g>
    </g>
</svg>
