<svg xmlns="http://www.w3.org/2000/svg" xml:space="preserve" style="fill-rule:evenodd;clip-rule:evenodd;stroke-linecap:round;stroke-miterlimit:1.5" viewBox="0 0 256 256"><path d="M0 0h256v256H0z" style="fill:none"/><g><circle cx="128" cy="128" r="128"/><path d="M128 0c70.645 0 128 57.355 128 128s-57.355 128-128 128S0 198.645 0 128 57.355 0 128 0m0 8C61.77 8 8 61.77 8 128s53.77 120 120 120 120-53.77 120-120S194.23 8 128 8" style="fill:#f2200d"/><path d="m3628.87 8.358 5.03-2.79 5.02 2.79-2.79 10.285 5.42-8.85 4.71 2.87-9.41 9.528 9.41-5.302.11 7.454c-4.22 4.571-8.38 6.817-12.47 6.737-4.09.08-8.26-2.166-12.48-6.737l.12-7.454 9.41 5.302-9.41-9.528 4.7-2.87 5.42 8.85z" style="fill:#f2200d;fill-rule:nonzero" transform="translate(-18387.2 34.632)scale(5.09513)"/><circle cx="1928" cy="1439" r="9" style="fill:#f2200d;stroke:#f2200d;stroke-width:8px" transform="rotate(14 5914.613 -6601.92)"/><circle cx="1928" cy="1439" r="9" style="fill:#f2200d;stroke:#f2200d;stroke-width:8px" transform="translate(-1800 -1200)"/><circle cx="1928" cy="1439" r="9" style="fill:#f2200d;stroke:#f2200d;stroke-width:8px" transform="rotate(-14 -3858.605 8057.9)"/></g></svg>