<svg xmlns="http://www.w3.org/2000/svg" xml:space="preserve" style="fill-rule:evenodd;clip-rule:evenodd;stroke-linecap:round;stroke-miterlimit:1.5" viewBox="0 0 256 256"><path d="M0 0h256v256H0z" style="fill:none"/><g><circle cx="128" cy="128" r="128"/><path d="M128 0c70.645 0 128 57.355 128 128s-57.355 128-128 128S0 198.645 0 128 57.355 0 128 0m0 8C61.77 8 8 61.77 8 128s53.77 120 120 120 120-53.77 120-120S194.23 8 128 8" style="fill:#dbba57"/><path d="m2228.75 34.514 5.06 1.404v.012l-4.2 4.2s-.01-.004-.01-.012c-.73-2.656-1.2-4.352-1.4-5.088.12-.04.23-.112.35-.216.09-.112.16-.212.2-.3m2.5 3.168-1.56 2.256 1.77-2.184 2.19-1.776-2.25 1.56-2.77-2.616zm1.6-2.232-2.7-.744c.01-.056.02-.136.02-.24q0-.54-.27-.996a1.9 1.9 0 0 0-.71-.72 1.9 1.9 0 0 0-.99-.264c-.36 0-.69.088-1 .264q-.45.264-.72.72a2 2 0 0 0-.26.99 2 2 0 0 0 .26.99q.27.456.72.72c.31.176.64.264 1 .264q.12 0 .18-.012l.74 2.7h-.11c-.69 0-1.34-.176-1.94-.528a3.75 3.75 0 0 1-1.37-1.368c-.35-.6-.53-1.248-.53-1.944s.18-1.344.53-1.944c.34-.576.79-1.032 1.37-1.368.6-.352 1.25-.528 1.94-.528q1.05 0 1.95.528c.57.336 1.03.792 1.37 1.368.35.6.52 1.248.52 1.944zm-5-.504a.8.8 0 0 1-.58-.246.78.78 0 0 1-.25-.588c0-.228.08-.424.25-.588a.8.8 0 0 1 .58-.246c.22 0 .42.082.58.246.17.164.25.36.25.588q0 .342-.24.588a.8.8 0 0 1-.59.246" style="fill:#dbba57;fill-rule:nonzero" transform="translate(-40926.8 -527.044)scale(18.4162)"/><circle cx="1928" cy="1439" r="9" style="fill:none;stroke:#dbba57;stroke-width:8px" transform="translate(-1800 -1200)"/></g></svg>