<svg xmlns="http://www.w3.org/2000/svg" xml:space="preserve" style="fill-rule:evenodd;clip-rule:evenodd;stroke-linecap:round;stroke-miterlimit:1.5" viewBox="0 0 256 256"><path d="M0 0h256v256H0z" style="fill:none"/><g><circle cx="128" cy="128" r="128"/><path d="M128 0c70.645 0 128 57.355 128 128s-57.355 128-128 128S0 198.645 0 128 57.355 0 128 0m0 8C61.77 8 8 61.77 8 128s53.77 120 120 120 120-53.77 120-120S194.23 8 128 8" style="fill:#f53d4d"/><path d="M806.119 382.886c4.225-4.304 9.622-6.886 15.5-6.886 13.522 0 24.5 13.667 24.5 30.5s-10.978 30.5-24.5 30.5c-5.878 0-11.275-2.582-15.5-6.886-4.225 4.304-9.622 6.886-15.5 6.886-13.522 0-24.5-13.667-24.5-30.5s10.978-30.5 24.5-30.5c5.878 0 11.275 2.582 15.5 6.886m14.246 51.112.254.002c9.931 0 18.222-9.493 20.117-22.075a2.998 2.998 0 0 0-2.97-3.425H813.23A7.51 7.51 0 0 1 806 414a7.51 7.51 0 0 1-7.23-5.5s-16.974 0-24.298.016a2.984 2.984 0 0 0-2.954 3.407c1.879 12.584 10.17 22.077 20.101 22.077l.138-.001a10 10 0 0 1-5.638-8.999c0-5.519 4.481-10 10-10 5.149 0 9.394 3.9 9.941 8.904.546-5.004 4.791-8.904 9.94-8.904 5.519 0 10 4.481 10 10 0 3.954-2.3 7.376-5.635 8.998m-3.279-3.244a1.493 1.493 0 0 1-1.705-1.478l.023-.001c0-.668.451-1.25 1.097-1.416a4.5 4.5 0 0 0 3.38-4.359 4.503 4.503 0 0 0-4.471-4.5h-.029c-3.312 0-6 2.689-6 6a6.003 6.003 0 0 0 7.705 5.754m-22.053 0a1.492 1.492 0 0 0 1.705-1.478l-.022-.001c0-.668-.452-1.25-1.098-1.416a4.5 4.5 0 0 1-3.38-4.359 4.503 4.503 0 0 1 4.471-4.5h.029c3.312 0 6 2.689 6 6a6.003 6.003 0 0 1-7.705 5.754M806 402.5c2.208 0 4 1.792 4 4s-1.792 4-4 4-4-1.792-4-4 1.792-4 4-4m-14.243-23.499-.138-.001c-9.931 0-18.222 9.493-20.117 22.075a2.998 2.998 0 0 0 2.97 3.425h24.298A7.51 7.51 0 0 1 806 399a7.51 7.51 0 0 1 7.23 5.5s17.165 0 24.536-.016a2.987 2.987 0 0 0 2.954-3.407C838.841 388.493 830.55 379 820.619 379l-.254.002A10 10 0 0 1 826 388c0 5.519-4.481 10-10 10-5.149 0-9.394-3.9-9.94-8.904-.547 5.004-4.792 8.904-9.941 8.904-5.519 0-10-4.481-10-10 0-3.956 2.302-7.378 5.638-8.999m25.329 3.245a1.493 1.493 0 0 0-1.705 1.478l.023.001c0 .668.451 1.25 1.097 1.416a4.5 4.5 0 0 1 3.38 4.359 4.503 4.503 0 0 1-4.471 4.5h-.029c-3.312 0-6-2.689-6-6a6.003 6.003 0 0 1 7.705-5.754m-22.053 0a1.492 1.492 0 0 1 1.705 1.478l-.022.001c0 .668-.452 1.25-1.098 1.416a4.5 4.5 0 0 0-3.38 4.359 4.503 4.503 0 0 0 4.471 4.5h.029c3.312 0 6-2.689 6-6a6.003 6.003 0 0 0-7.705-5.754" style="fill:#f53d4d" transform="translate(-1585 -735.813)scale(2.125)"/><circle cx="1928" cy="1439" r="9" style="fill:none;stroke:#f53d4d;stroke-width:8px" transform="rotate(-14 -3858.605 8057.9)"/><circle cx="1928" cy="1439" r="9" style="fill:#f53d4d;stroke:#f53d4d;stroke-width:8px" transform="rotate(14 5914.613 -6601.92)"/><circle cx="1928" cy="1439" r="9" style="fill:#f53d4d;stroke:#f53d4d;stroke-width:8px" transform="translate(-1800 -1200)"/></g></svg>