<svg xmlns="http://www.w3.org/2000/svg" xml:space="preserve" style="fill-rule:evenodd;clip-rule:evenodd;stroke-linecap:round;stroke-miterlimit:1.5" viewBox="0 0 256 256"><path d="M0 0h256v256H0z" style="fill:none"/><g><circle cx="128" cy="128" r="128"/><path d="M128 0c70.645 0 128 57.355 128 128s-57.355 128-128 128S0 198.645 0 128 57.355 0 128 0m0 8C61.77 8 8 61.77 8 128s53.77 120 120 120 120-53.77 120-120S194.23 8 128 8" style="fill:#bb81e4"/><path d="M1629.67 32.35h.72v.204h-.72zm1.53-.948h.25q.03.372.18.648c.09.184.23.28.41.288v.204c-.17.008-.31.104-.41.288q-.15.276-.18.66h-.25a1.8 1.8 0 0 0-.19-.66c-.1-.184-.23-.28-.4-.288v-.204c.17-.008.31-.104.41-.288q.135-.276.18-.648m2.3-3.096.4-.024v9.048h-2.7v-3.48h.26v1.992c0 .216.04.378.13.486s.21.162.35.162c.3 0 .54-.18.74-.54q.285-.48.48-1.512c.13-.608.22-1.444.28-2.508q.06-1.332.06-3.624" style="fill:#bb81e4;fill-rule:nonzero" transform="translate(-30547.1 -488.379)scale(18.7887)"/><path d="M1916.84 1455.5c3.71.33 7.44.5 11.16.5s7.45-.17 11.16-.5l-1.68-19.73c-3.15.29-6.32.43-9.48.43s-6.33-.14-9.48-.43z" style="fill:none;stroke:#bb81e4;stroke-width:8.66px" transform="matrix(.9375 0 0 .9091 -1679.5 -1075.64)"/><path d="M1894.87 1451.5a124.2 124.2 0 0 0 66.26 0l-4.97-19.12c-9.18 2.53-18.65 3.82-28.16 3.82s-18.97-1.29-28.16-3.82z" style="fill:none;stroke:#bb81e4;stroke-width:8.66px" transform="matrix(.9375 0 0 .9091 -1679.5 -1075.64)"/><path d="M1873.9 1443.63c16.95 8.15 35.41 12.37 54.1 12.37s37.15-4.22 54.1-12.37l-8.12-17.94c-14.4 6.92-30.09 10.51-45.98 10.51s-31.58-3.59-45.98-10.51z" style="fill:none;stroke:#bb81e4;stroke-width:8.66px" transform="matrix(.9375 0 0 .9091 -1679.5 -1075.64)"/></g></svg>