<?xml version="1.0" encoding="UTF-8" standalone="no"?>
<!DOCTYPE svg PUBLIC "-//W3C//DTD SVG 1.1//EN" "http://www.w3.org/Graphics/SVG/1.1/DTD/svg11.dtd">
<svg width="100%" height="100%" viewBox="0 0 256 256" version="1.1" xmlns="http://www.w3.org/2000/svg" xmlns:xlink="http://www.w3.org/1999/xlink" xml:space="preserve" xmlns:serif="http://www.serif.com/" style="fill-rule:evenodd;clip-rule:evenodd;stroke-linecap:round;stroke-miterlimit:1.5;">
    <g transform="matrix(1,0,0,1,-3000,-3300)">
        <g transform="matrix(1,0,0,1,3000,3300)">
            <rect id="faction-dominion-rank-8-token" x="0" y="0" width="256" height="256" style="fill:none;"/>
            <g id="faction-dominion-rank-8-token1" serif:id="faction-dominion-rank-8-token">
                <circle cx="128" cy="128" r="128"/>
                <path d="M128,0C198.645,0 256,57.355 256,128C256,198.645 198.645,256 128,256C57.355,256 0,198.645 0,128C0,57.355 57.355,0 128,0ZM128,8C61.77,8 8,61.77 8,128C8,194.23 61.77,248 128,248C194.23,248 248,194.23 248,128C248,61.77 194.23,8 128,8Z" style="fill:rgb(187,129,228);"/>
                <g transform="matrix(18.7887,0,0,18.7887,-30547.1,-488.379)">
                    <g id="Dominion">
                        <path id="Dominion1" serif:id="Dominion" d="M1629.67,32.35L1630.39,32.35L1630.39,32.554L1629.67,32.554L1629.67,32.35ZM1631.2,31.402L1631.45,31.402C1631.47,31.65 1631.53,31.866 1631.63,32.05C1631.72,32.234 1631.86,32.33 1632.04,32.338L1632.04,32.542C1631.87,32.55 1631.73,32.646 1631.63,32.83C1631.53,33.014 1631.47,33.234 1631.45,33.49L1631.2,33.49C1631.17,33.234 1631.11,33.014 1631.01,32.83C1630.91,32.646 1630.78,32.55 1630.61,32.542L1630.61,32.338C1630.78,32.33 1630.92,32.234 1631.02,32.05C1631.11,31.866 1631.17,31.65 1631.2,31.402ZM1633.5,28.306L1633.9,28.282L1633.9,37.33L1631.2,37.33L1631.2,33.85L1631.46,33.85L1631.46,35.842C1631.46,36.058 1631.5,36.22 1631.59,36.328C1631.68,36.436 1631.8,36.49 1631.94,36.49C1632.24,36.49 1632.48,36.31 1632.68,35.95C1632.87,35.63 1633.03,35.126 1633.16,34.438C1633.29,33.83 1633.38,32.994 1633.44,31.93C1633.48,31.042 1633.5,29.834 1633.5,28.306Z" style="fill:rgb(187,129,228);fill-rule:nonzero;"/>
                    </g>
                </g>
                <g transform="matrix(0.9375,0,0,0.909091,-1679.5,-1075.64)">
                    <path d="M1916.84,1455.5C1920.55,1455.83 1924.28,1456 1928,1456C1931.72,1456 1935.45,1455.83 1939.16,1455.5L1937.48,1435.77C1934.33,1436.06 1931.16,1436.2 1928,1436.2C1924.84,1436.2 1921.67,1436.06 1918.52,1435.77L1916.84,1455.5Z" style="fill:none;stroke:rgb(187,129,228);stroke-width:8.66px;"/>
                </g>
                <g transform="matrix(0.9375,0,0,0.909091,-1679.5,-1075.64)">
                    <path d="M1894.87,1451.5C1905.68,1454.49 1916.81,1456 1928,1456C1939.19,1456 1950.32,1454.49 1961.13,1451.5L1956.16,1432.38C1946.98,1434.91 1937.51,1436.2 1928,1436.2C1918.49,1436.2 1909.03,1434.91 1899.84,1432.38L1894.87,1451.5Z" style="fill:none;stroke:rgb(187,129,228);stroke-width:8.66px;"/>
                </g>
                <g transform="matrix(0.9375,0,0,0.909091,-1679.5,-1075.64)">
                    <path d="M1873.9,1443.63C1890.85,1451.78 1909.31,1456 1928,1456C1946.69,1456 1965.15,1451.78 1982.1,1443.63L1973.98,1425.69C1959.58,1432.61 1943.89,1436.2 1928,1436.2C1912.11,1436.2 1896.42,1432.61 1882.02,1425.69L1873.9,1443.63Z" style="fill:none;stroke:rgb(187,129,228);stroke-width:8.66px;"/>
                </g>
            </g>
        </g>
    </g>
</svg>
