<svg xmlns="http://www.w3.org/2000/svg" xml:space="preserve" style="fill-rule:evenodd;clip-rule:evenodd;stroke-linecap:round;stroke-miterlimit:1.5" viewBox="0 0 256 256"><path d="M0 0h256v256H0z" style="fill:none"/><g><circle cx="128" cy="128" r="128"/><path d="M128 0c70.645 0 128 57.355 128 128s-57.355 128-128 128S0 198.645 0 128 57.355 0 128 0m0 8C61.77 8 8 61.77 8 128s53.77 120 120 120 120-53.77 120-120S194.23 8 128 8" style="fill:#db8e57"/><path d="M29.962 24.07q-.06.048-.054.114t.078.246l.036.072q.096.216.09.3t-.126.096q.12-.072.114-.168t-.15-.24a.3.3 0 0 1-.072-.06 1.3 1.3 0 0 1-.204-.216q-.024-.048-.006-.084t.078-.06a.5.5 0 0 1 .216 0m.12.024q.12.024.204.072-.084.024-.102.09a1.5 1.5 0 0 0-.018.306v.024q.012.252-.024.324t-.156.036q.144-.012.162-.126t-.078-.33l-.024-.06a1 1 0 0 1-.09-.234q-.006-.054.024-.078t.102-.024m-.456 0q-.036.06 0 .132.06.096.216.228l.072.072q.132.12.144.216 0 .06-.084.108.096-.132.024-.216t-.312-.168q0-.012-.024-.012l-.024-.012a.8.8 0 0 1-.234-.114q-.066-.054.03-.15.048-.024.156-.072zm-.288.156q-.012.048.048.114t.24.126l.048.012q.228.096.288.156.036.072-.024.156.048-.144-.06-.204t-.348-.048h-.024q-.216.012-.27-.012t-.066-.054.012-.09v-.012l.036-.036a.5.5 0 0 1 .12-.108m-.216.252q0 .072.084.096t.3.012h.228q.084.012.12.036.072.036.048.144-.024-.156-.138-.174t-.33.102q-.012 0-.024.012-.204.096-.276.096-.096.024-.096-.12.048-.144.084-.204m-.108.324q.048.06.126.054t.294-.114l.024-.012q.204-.096.3-.084.072 0 .096.12-.072-.108-.168-.108t-.24.156l-.072.072q-.12.132-.216.204-.048.024-.078.006t-.066-.09zm.024.324a.12.12 0 0 0 .144 0 1 1 0 0 0 .156-.12l.072-.084q.036-.06.072-.072.132-.144.204-.144t.12.084q-.12-.096-.228-.024a1 1 0 0 0-.084.108l-.084.192-.012.048a.8.8 0 0 1-.12.24.1.1 0 0 1-.072.018q-.036-.006-.084-.054a.7.7 0 0 1-.084-.192m.156.3q.048.012.12-.036a.8.8 0 0 0 .12-.252l.024-.048q.048-.132.078-.198a.18.18 0 0 1 .078-.09q.06-.06.156.012-.156-.036-.21.06t-.042.348v.024q0 .228-.012.288-.036.084-.156.036a.5.5 0 0 1-.12-.108zm.252.216a.14.14 0 0 0 .096-.09q.024-.066.024-.306v-.024q-.012-.228.036-.312t.144-.048q-.144.012-.162.126t.078.33l.024.06q.084.18.084.24.024.108-.12.096a.7.7 0 0 1-.204-.072m.324.096q.06-.048.054-.114a1 1 0 0 0-.078-.246l-.036-.072q-.096-.216-.09-.3t.126-.096q-.12.072-.114.168t.15.24a.4.4 0 0 1 .084.072q.168.144.192.198t.006.09-.078.06a.4.4 0 0 1-.114.012.3.3 0 0 1-.102-.012m.336-.024q.036-.06 0-.132a1 1 0 0 0-.216-.228.14.14 0 0 0-.048-.048l-.024-.024a.6.6 0 0 1-.144-.216q0-.06.084-.108-.096.132-.024.216a.3.3 0 0 0 .102.084q.066.036.21.084 0 .012.024.012l.024.012a.8.8 0 0 1 .234.114q.066.054-.03.15-.048.024-.156.072zm.288-.156q.024-.06-.03-.108a1 1 0 0 0-.246-.132l-.06-.012q-.228-.096-.288-.156-.036-.072.024-.156-.048.144.06.204t.348.048h.024q.216-.012.276.012t.066.054-.018.09v.012l-.036.036a.5.5 0 0 1-.12.108m.216-.252q0-.06-.078-.09t-.306-.018h-.024q-.24.012-.318-.03t-.042-.162q.024.168.126.18t.33-.096q.012 0 .024-.012a1.3 1.3 0 0 1 .276-.096q.048 0 .072.03t.024.102a.7.7 0 0 1-.084.192m.108-.312q-.024-.06-.114-.054t-.306.102l-.024.012q-.204.096-.294.078t-.09-.114q.06.132.156.12t.24-.168l.024-.024a.14.14 0 0 0 .048-.048q.12-.132.216-.204.096-.036.144.084zm-.024-.336q-.072-.06-.144 0a1 1 0 0 0-.156.12l-.072.084a.3.3 0 0 1-.072.072q-.12.144-.198.144t-.126-.084q.12.096.228.024.072-.06.168-.3l.036-.108a1 1 0 0 1 .102-.174q.03-.03.066-.024t.084.054q.048.072.084.192m-.156-.3q-.048-.024-.108.036a.8.8 0 0 0-.132.252l-.024.048a3 3 0 0 1-.078.198.18.18 0 0 1-.078.09q-.06.06-.156-.012.168.036.216-.072a.23.23 0 0 0 .042-.12 1.4 1.4 0 0 0-.006-.216v-.024q0-.228.012-.288.036-.084.156-.036a.5.5 0 0 1 .12.108zm.552.516a4 4 0 0 0 .384-1.056q.132-.6.132-1.272 0-.744-.168-1.398a3.9 3.9 0 0 0-.462-1.116q-.294-.462-.666-.642v-1.956q.54.192.978.81t.69 1.518q.252.936.252 1.98 0 1.188-.324 2.208-.312.996-.852 1.584t-1.188.588-1.188-.588-.852-1.584a7.3 7.3 0 0 1-.324-2.208q0-1.044.252-1.98.252-.9.69-1.518t.978-.81v1.956q-.372.18-.666.642t-.462 1.116a5.6 5.6 0 0 0-.168 1.398q0 .672.132 1.272t.384 1.056q0-.156.036-.3-.384-.864-.384-2.028 0-1.032.312-1.854t.816-1.098v.06q-.48.288-.78 1.086t-.3 1.806q0 1.128.36 1.956.048-.132.156-.312-.3-.696-.3-1.644 0-.816.24-1.476t.624-.936v.252q-.324.264-.528.852a4 4 0 0 0-.204 1.308q0 .84.276 1.512.288-.3.672-.372v-6.384h.096v6.372q.024 0 .036-.012v-6.612h.192v6.612q.012.012.036.012v-6.372h.096v6.384q.384.072.672.372.276-.672.276-1.512 0-.72-.204-1.308t-.528-.852v-.252q.384.276.624.936t.24 1.476q0 .948-.3 1.644.096.12.156.312.36-.828.36-1.956 0-1.008-.3-1.806t-.78-1.086v-.06q.504.276.816 1.098t.312 1.854q0 1.164-.384 2.028.036.144.036.3m-.948-7.476h.084v2.976l-.084.072zm-.552 0v3.048l-.084-.072v-2.976zm.276 8.592q.456 0 .774-.324t.318-.774-.318-.774a1.04 1.04 0 0 0-.774-.324q-.456 0-.774.324a1.07 1.07 0 0 0-.318.774q0 .45.324.774t.768.324m0-.12a.94.94 0 0 1-.69-.282.94.94 0 0 1-.282-.69q0-.408.282-.696a.93.93 0 0 1 .69-.288q.408 0 .696.288a.95.95 0 0 1 .288.696.93.93 0 0 1-.288.69.96.96 0 0 1-.696.282m0-.06a.9.9 0 0 0 .654-.27q.27-.27.27-.648a.88.88 0 0 0-.27-.648.9.9 0 0 0-.654-.27.9.9 0 0 0-.654.27.88.88 0 0 0-.27.648q0 .378.27.648t.654.27" style="fill:#db8e57;fill-rule:nonzero" transform="translate(-431.66 -276.948)scale(18.739)"/><circle cx="1928" cy="1439" r="9" style="fill:#db8e57;stroke:#db8e57;stroke-width:8px" transform="rotate(14 5914.613 -6601.92)"/><circle cx="1928" cy="1439" r="9" style="fill:#db8e57;stroke:#db8e57;stroke-width:8px" transform="translate(-1800 -1200)"/><circle cx="1928" cy="1439" r="9" style="fill:none;stroke:#db8e57;stroke-width:8px" transform="rotate(-14 -3858.605 8057.9)"/></g></svg>