<?xml version="1.0" encoding="UTF-8" standalone="no"?>
<!DOCTYPE svg PUBLIC "-//W3C//DTD SVG 1.1//EN" "http://www.w3.org/Graphics/SVG/1.1/DTD/svg11.dtd">
<svg width="100%" height="100%" viewBox="0 0 256 256" version="1.1" xmlns="http://www.w3.org/2000/svg" xmlns:xlink="http://www.w3.org/1999/xlink" xml:space="preserve" xmlns:serif="http://www.serif.com/" style="fill-rule:evenodd;clip-rule:evenodd;stroke-linecap:round;stroke-miterlimit:1.5;">
    <g transform="matrix(1,0,0,1,-2700,-2100)">
        <g transform="matrix(1,0,0,1,2700,2100)">
            <rect id="faction-cardassian-rank-4-token" x="0" y="0" width="256" height="256" style="fill:none;"/>
            <g id="faction-cardassian-rank-4-token1" serif:id="faction-cardassian-rank-4-token">
                <circle cx="128" cy="128" r="128"/>
                <path d="M128,0C198.645,0 256,57.355 256,128C256,198.645 198.645,256 128,256C57.355,256 0,198.645 0,128C0,57.355 57.355,0 128,0ZM128,8C61.77,8 8,61.77 8,128C8,194.23 61.77,248 128,248C194.23,248 248,194.23 248,128C248,61.77 194.23,8 128,8Z" style="fill:rgb(209,189,148);"/>
                <g transform="matrix(18.739,0,0,18.739,-28566.9,-467.5)">
                    <g id="Cardassian">
                        <path id="Cardassian1" serif:id="Cardassian" d="M1533.64,29.211C1533.42,28.811 1533.07,28.519 1532.6,28.335C1532.48,28.311 1532.41,28.255 1532.38,28.167C1532.35,27.895 1532.23,27.677 1532.02,27.513C1531.81,27.349 1531.56,27.259 1531.29,27.243C1531.04,27.259 1530.82,27.335 1530.61,27.471C1530.41,27.607 1530.28,27.803 1530.21,28.059C1530.19,28.211 1530.12,28.303 1530.02,28.335C1529.53,28.495 1529.17,28.781 1528.95,29.193C1528.72,29.605 1528.56,30.047 1528.47,30.519C1529.14,30.807 1529.7,31.299 1530.18,31.995C1530.38,32.307 1530.54,32.723 1530.66,33.243C1530.78,33.747 1530.64,34.131 1530.24,34.395L1530.78,36.315L1531.16,36.315L1531.2,35.511L1531.4,35.511L1531.42,36.315L1531.81,36.315L1532.36,34.395C1532.14,34.267 1532.01,34.089 1531.96,33.861C1531.92,33.633 1531.9,33.407 1531.93,33.183C1532.03,32.623 1532.29,32.091 1532.7,31.587C1533.11,31.099 1533.58,30.743 1534.11,30.519C1534.02,30.055 1533.87,29.619 1533.64,29.211ZM1528.74,30.387C1528.82,30.003 1528.96,29.635 1529.17,29.283C1529.37,28.955 1529.67,28.711 1530.07,28.551C1530.25,28.487 1530.38,28.339 1530.44,28.107C1530.57,27.683 1530.86,27.475 1531.3,27.483C1531.57,27.491 1531.78,27.571 1531.93,27.723C1532.06,27.843 1532.14,28.007 1532.17,28.215C1532.19,28.383 1532.31,28.495 1532.52,28.551C1532.86,28.695 1533.12,28.891 1533.31,29.139C1533.51,29.403 1533.66,29.699 1533.76,30.027L1532.92,30.603L1532.41,30.687L1532.41,30.063L1532.24,29.199L1531.92,28.983L1531.4,29.115L1531.48,28.635L1531.81,28.515L1531.94,27.963L1531.29,28.479L1530.64,27.963L1530.78,28.515L1531.11,28.635L1531.18,29.115L1530.68,28.983L1530.34,29.199L1530.18,30.063L1530.18,30.723L1530.68,32.451C1530.27,31.523 1529.62,30.835 1528.74,30.387ZM1531.53,29.595C1531.44,29.483 1531.39,29.403 1531.39,29.355L1531.68,29.559L1531.8,30.099L1531.68,30.255L1531.38,31.839L1531.21,31.839L1530.92,30.255L1530.79,30.099L1530.92,29.559L1531.21,29.355C1531.21,29.411 1531.16,29.491 1531.05,29.595L1530.99,29.979L1531.09,30.231L1531.5,30.231L1531.59,29.979L1531.53,29.595ZM1530.4,30.087L1530.5,29.283L1530.7,29.139L1530.99,29.187C1531.14,29.211 1531.22,29.247 1531.22,29.295L1530.87,29.451L1530.66,30.111L1530.8,30.315L1531.2,32.415C1531.2,32.423 1531.23,32.427 1531.29,32.427C1531.36,32.427 1531.39,32.423 1531.4,32.415L1531.78,30.315L1531.93,30.111L1531.71,29.463C1531.7,29.439 1531.68,29.419 1531.65,29.403C1531.62,29.387 1531.58,29.379 1531.53,29.379C1531.43,29.371 1531.38,29.331 1531.38,29.259L1531.89,29.139L1532.1,29.283L1532.18,30.087L1531.65,32.247L1531.36,32.679L1531.22,32.679L1530.93,32.247L1530.4,30.087ZM1531.71,33.459L1531.45,33.039L1531.15,33.039L1530.87,33.459L1530.79,32.463L1531.16,32.811L1531.42,32.811L1531.8,32.463L1531.71,33.459ZM1531.77,34.491C1531.63,34.491 1531.53,34.391 1531.47,34.191C1531.43,34.087 1531.4,33.963 1531.36,33.819L1531.34,33.747L1531.24,33.747L1531.22,33.819C1531.19,33.963 1531.15,34.087 1531.11,34.191C1531.06,34.391 1530.96,34.491 1530.82,34.491L1530.87,33.759L1531.18,33.135L1531.4,33.135L1531.71,33.759L1531.77,34.491ZM1531.98,34.731L1531.62,36.267L1531.48,35.055L1531.29,34.707L1531.1,35.055L1530.97,36.267L1530.62,34.731C1530.85,34.731 1531.01,34.643 1531.1,34.467C1531.19,34.291 1531.25,34.103 1531.29,33.903C1531.32,34.063 1531.38,34.251 1531.47,34.467C1531.57,34.643 1531.74,34.731 1531.98,34.731ZM1532.59,31.335C1532.32,31.623 1532.08,31.943 1531.88,32.295L1532.32,30.807L1533.01,30.699L1533.81,30.123L1533.9,30.351C1533.75,30.407 1533.62,30.475 1533.49,30.555C1533.18,30.763 1532.88,31.023 1532.59,31.335ZM1529.71,30.219C1529.64,30.219 1529.59,30.243 1529.54,30.291C1529.49,30.339 1529.47,30.395 1529.47,30.459C1529.47,30.523 1529.49,30.579 1529.54,30.627C1529.59,30.675 1529.64,30.699 1529.71,30.699C1529.77,30.699 1529.83,30.675 1529.88,30.627C1529.92,30.579 1529.95,30.523 1529.95,30.459C1529.95,30.395 1529.92,30.339 1529.88,30.291C1529.83,30.243 1529.77,30.219 1529.71,30.219Z" style="fill:rgb(209,189,148);fill-rule:nonzero;"/>
                    </g>
                </g>
                <g transform="matrix(0.992546,0.121869,-0.121869,0.992546,-1623.79,-1425.07)">
                    <circle cx="1928" cy="1439" r="9" style="fill:rgb(209,189,148);stroke:rgb(209,189,148);stroke-width:8px;"/>
                </g>
                <g transform="matrix(0.992546,-0.121869,0.121869,0.992546,-1947.47,-955.137)">
                    <circle cx="1928" cy="1439" r="9" style="fill:rgb(209,189,148);stroke:rgb(209,189,148);stroke-width:8px;"/>
                </g>
            </g>
        </g>
    </g>
</svg>
