<svg xmlns="http://www.w3.org/2000/svg" xml:space="preserve" style="fill-rule:evenodd;clip-rule:evenodd;stroke-linecap:round;stroke-miterlimit:1.5" viewBox="0 0 256 256"><path d="M0 0h256v256H0z" style="fill:none"/><g><circle cx="128" cy="128" r="128"/><path d="M128 0c70.645 0 128 57.355 128 128s-57.355 128-128 128S0 198.645 0 128 57.355 0 128 0m0 8C61.77 8 8 61.77 8 128s53.77 120 120 120 120-53.77 120-120S194.23 8 128 8" style="fill:#78db57"/><path d="m1735.68 35.991-1.81 3.084-.73.012q-2.31.036-2.7-.012c-.87-.096-1.57-.38-2.11-.852-.44-.36-.75-.82-.95-1.38-.15-.392-.24-.776-.24-1.152h3.81c.01.304.1.62.25.948.2.392.45.708.77.948.39.28.83.42 1.34.42l2.01-2.016zm-.91-.3-1.9 1.932c-.49-.12-.86-.364-1.14-.732-.2-.264-.34-.568-.39-.912h.28c.08.24.21.436.38.588.13.112.33.216.59.312l.72-1.188zm.91-.468h-.36l-2.01-2.016c-.51 0-.95.14-1.34.42-.32.24-.57.556-.77.948-.15.328-.24.644-.25.948h-3.81c0-.376.09-.76.24-1.152.2-.56.51-1.02.95-1.38.54-.472 1.24-.756 2.11-.852q.39-.048 2.7-.012l.73.012zm-.91.3h-1.46l-.72-1.188c-.26.096-.46.2-.59.312-.17.152-.3.348-.38.588h-.28c.05-.344.19-.652.39-.924.28-.36.65-.604 1.14-.732zm-2.4.636a.5.5 0 0 1-.38-.162.52.52 0 0 1-.16-.39c0-.152.05-.282.16-.39a.5.5 0 0 1 .38-.162q.225 0 .39.162c.11.108.16.238.16.39s-.05.282-.16.39a.54.54 0 0 1-.39.162" style="fill:#78db57;fill-rule:nonzero" transform="translate(-30268.9 -497.13)scale(17.5562)"/><circle cx="1928" cy="1439" r="9" style="fill:#78db57;stroke:#78db57;stroke-width:8px" transform="rotate(14 5914.613 -6601.92)"/><circle cx="1928" cy="1439" r="9" style="fill:#78db57;stroke:#78db57;stroke-width:8px" transform="translate(-1800 -1200)"/><circle cx="1928" cy="1439" r="9" style="fill:none;stroke:#78db57;stroke-width:8px" transform="rotate(-14 -3858.605 8057.9)"/></g></svg>