<svg xmlns="http://www.w3.org/2000/svg" xml:space="preserve" style="fill-rule:evenodd;clip-rule:evenodd;stroke-linecap:round;stroke-miterlimit:1.5" viewBox="0 0 256 256"><path d="M0 0h256v256H0z" style="fill:none"/><g><circle cx="128" cy="128" r="128"/><path d="M128 0c70.645 0 128 57.355 128 128s-57.355 128-128 128S0 198.645 0 128 57.355 0 128 0m0 8C61.77 8 8 61.77 8 128s53.77 120 120 120 120-53.77 120-120S194.23 8 128 8" style="fill:#81a2e4"/><path d="m2031.22 44.547.55.55-2.2 2.203-1.1-1.101.55-.551.55.551zm-12.17-.826-.55.551.55.55-.55.551.55.55.55-.55.55.55-.55.551.55.551 1.11-1.102-1.11-1.101.56-.55 1.1 1.101.55-.551-1.65-1.652-1.11 1.102zm8.32 1.376.55.551.55-.551.55.551.55-.551-.55-.55.55-.551-.55-.55zm21.31-23.291L2025-1.87l-23.68 23.676L2025 45.483zm-18.56 21.64.55.55-.55.551-.55-.551zm1.93-3.029-1.1 1.101 2.2 2.203.55-.551-1.65-1.652.55-.55zm-15.42-1.321-2.2 2.202 2.2 2.203.55-.551-1.65-1.652.55-.55.55.55.55-.55-.55-.551.55-.551zm17.62 1.321 1.1 1.101-1.1 1.102-.55-.551.55-.551-.55-.55-.55.55-.55-.55.55-.551.55.551zm-16.52-.22 1.1 1.101-.55.551-1.1-1.101zm26.54-18.391L2025 2.535l-19.27 19.271L2025 41.078zm-11.12 17.51.55.551-.55.55-.55-.55zm-19.49.11-.55.551-.55-.551.55-.55zm23.34-3.964-2.2 2.202 2.2 2.203 2.21-2.203-1.1-1.101-.56.551.56.55-1.11 1.101-1.1-1.101 1.65-1.652zm-12 .991-4.4-4.405.6-.606-1.65-1.652-1.82 1.817 7.27 7.269 5.45-5.452-1.21-1.211zm-11.89-.881-.55.55 1.1 1.102-.55.55-1.1-1.101-1.11 1.101.56.551.55-.551 1.1 1.102.55-.551.55.551.55-.551-.55-.551.55-.55zm-4.63-2.423-1.1 1.101 2.2 2.203 2.21-2.203-1.11-1.101-.55.551.55.55-1.1 1.102-.55-.551.55-.551zm31.83.11 1.1 1.101-1.1 1.102-.55-.551.55-.551-.55-.55-.55.55-.56-.55 1.66-1.652.55.551.55-.551 1.65 1.652-1.1 1.101-.55-.551.55-.55-1.1-1.101zm-15.25-23.401-2.92 2.918 3.02 3.029v4.184l-4.07 4.075-5.18-5.176-2.91 2.918 12 12.004 2.92-2.918-1.65-1.652 6.22-6.222 1.65 1.652 2.86-2.864-3.41-3.413-1.87 1.872-2.7-2.698 1.87-1.872zm-15.48 22.19-.55.55.55.551.55-.551zm-4.62-1.322.55.551-.55.551-1.1-1.102 1.65-1.651.55.55.55-.55 1.65 1.651-2.2 2.203-.55-.551 1.65-1.652-1.1-1.101zm39.48-2.698-1.1 1.102 1.1 1.101-.55.55-1.1-1.101-.56.551 2.21 2.202.55-.55-.55-.551 1.1-1.101.55.55.55-.55-1.1-1.101-.55.55-.55-.55.55-.551zm-10.52-1.596-1.49-1.487-4.51 4.515 1.48 1.487zM2002.54 25l-1.66 1.652.55.55.55-.55.56.55-1.11 1.102 1.11 1.101.55-.551-.55-.55.55-.551.55.551.55-.551-.55-.551.55-.55zm45.2-.275-1.65 1.652.55.55 1.1-1.101.55.551-.55.55.55.551-1.1 1.101.55.551 1.65-1.652-.55-.551.55-.55zm-.55 2.753-.55-.551-.55.551.55.55zm-36.84-5.672 4.24-4.239-1.21-1.212-5.45 5.451 5.45 5.452 1.21-1.212zm31.72 0-7.32-7.323-1.77 1.762 1.6 1.597.55-.551 4.52 4.515-4.19 4.185 1.21 1.211zm-21.92-9.25 3.64 3.634v3.524l-2.64 2.643-5.4-5.396zm4.85-7.819-5.45 5.451 1.21 1.212 4.24-4.24 4.24 4.24 1.21-1.212z" style="fill:#81a2e4" transform="translate(-6461.83 54.085)scale(3.25402)"/><path d="M1916.84 1455.5c3.71.33 7.44.5 11.16.5s7.45-.17 11.16-.5l-1.68-19.73c-3.15.29-6.32.43-9.48.43s-6.33-.14-9.48-.43z" style="fill:none;stroke:#81a2e4;stroke-width:8.66px" transform="matrix(.9375 0 0 .9091 -1679.5 -1075.64)"/><path d="M1894.87 1451.5a124.2 124.2 0 0 0 66.26 0l-4.97-19.12c-9.18 2.53-18.65 3.82-28.16 3.82s-18.97-1.29-28.16-3.82z" style="fill:none;stroke:#81a2e4;stroke-width:8.66px" transform="matrix(.9375 0 0 .9091 -1679.5 -1075.64)"/><path d="M1873.9 1443.63c16.95 8.15 35.41 12.37 54.1 12.37s37.15-4.22 54.1-12.37l-8.12-17.94c-14.4 6.92-30.09 10.51-45.98 10.51s-31.58-3.59-45.98-10.51z" style="fill:none;stroke:#81a2e4;stroke-width:8.66px" transform="matrix(.9375 0 0 .9091 -1679.5 -1075.64)"/></g></svg>