<?xml version="1.0" encoding="UTF-8" standalone="no"?>
<!DOCTYPE svg PUBLIC "-//W3C//DTD SVG 1.1//EN" "http://www.w3.org/Graphics/SVG/1.1/DTD/svg11.dtd">
<svg width="100%" height="100%" viewBox="0 0 256 256" version="1.1" xmlns="http://www.w3.org/2000/svg" xmlns:xlink="http://www.w3.org/1999/xlink" xml:space="preserve" xmlns:serif="http://www.serif.com/" style="fill-rule:evenodd;clip-rule:evenodd;stroke-linecap:round;stroke-miterlimit:1.5;">
    <g transform="matrix(1,0,0,1,-2400,-2100)">
        <g transform="matrix(1,0,0,1,2400,2100)">
            <rect id="faction-romulan-rank-4-token" x="0" y="0" width="256" height="256" style="fill:none;"/>
            <g id="faction-romulan-rank-4-token1" serif:id="faction-romulan-rank-4-token">
                <circle cx="128" cy="128" r="128"/>
                <path d="M128,0C198.645,0 256,57.355 256,128C256,198.645 198.645,256 128,256C57.355,256 0,198.645 0,128C0,57.355 57.355,0 128,0ZM128,8C61.77,8 8,61.77 8,128C8,194.23 61.77,248 128,248C194.23,248 248,194.23 248,128C248,61.77 194.23,8 128,8Z" style="fill:rgb(87,219,142);"/>
                <g transform="matrix(0.928596,0,0,0.928596,-914.887,18.6502)">
                    <g id="Romulan">
                        <path id="Romulan1" serif:id="Romulan" d="M1121.59,158.307C1123.12,157.772 1126.76,156.686 1130.84,156.686L1120.8,196.362L1110.37,155.767C1114.65,156.321 1118.55,157.71 1120.1,158.312L1120.11,158.278L1120.77,158.435L1121.59,158.307ZM1120.83,158.586L1120.79,158.592L1120.8,158.597C1120.81,158.595 1120.83,158.586 1120.83,158.586ZM1120.68,89.182C1120.68,89.182 1131.96,89.321 1134.75,89.48C1137.54,89.639 1144.71,89.161 1148.61,87.967C1152.51,86.772 1158.65,85.656 1161.12,85.656C1163.59,85.656 1165.26,85.974 1166.54,86.931C1167.81,87.886 1169.01,89.48 1166.14,89.48C1165.66,89.48 1164.54,89.002 1163.67,88.922C1162.79,88.844 1159.05,88.684 1157.45,89.002C1155.86,89.321 1151.88,90.516 1150.36,91.393C1148.85,92.27 1148.13,92.747 1149.72,92.667C1151.32,92.587 1151.8,92.348 1152.91,92.826C1154.03,93.304 1154.11,92.747 1154.59,92.587C1155.06,92.428 1156.02,92.031 1156.81,92.986C1157.61,93.942 1158.49,95.058 1159.21,94.022C1159.92,92.986 1161.28,93.065 1162.07,93.863C1162.87,94.659 1163.83,95.695 1163.99,94.341C1164.14,92.986 1164.54,91.87 1166.85,93.065C1169.16,94.261 1168.93,94.261 1169.72,93.464C1170.52,92.667 1171.08,92.508 1172.75,93.384C1174.42,94.261 1176.02,94.102 1174.82,93.145C1173.63,92.19 1172.03,90.915 1175.7,90.596C1179.36,90.277 1177.93,90.596 1178.81,90.516C1179.68,90.437 1179.66,90.192 1178.73,89.959C1177.45,89.639 1177.61,89.639 1176.74,89.241C1175.86,88.844 1176.18,87.648 1176.97,87.409C1177.77,87.17 1181.67,85.974 1183.27,85.815C1184.86,85.656 1191.31,84.462 1194.34,84.381C1197.37,84.302 1201.51,84.063 1202.71,84.142C1203.9,84.222 1203.9,83.664 1206.13,82.947C1208.36,82.231 1211.23,81.195 1214.34,80.637C1217.44,80.079 1218.01,79.92 1218.8,79.601C1219.6,79.281 1220.87,79.521 1219.12,80.955C1217.37,82.391 1212.11,85.496 1211.07,86.452C1210.04,87.409 1205.51,90.222 1208.6,91.313C1209.96,91.792 1210.24,92.19 1210.27,92.863C1210.33,93.997 1208.69,94.513 1207.57,95.058C1205.1,96.252 1200.64,98.642 1198.48,100.316C1196.33,101.988 1196.73,102.387 1197.69,103.423C1198.64,104.459 1201.43,106.769 1197.77,107.486C1194.18,108.188 1189.24,109 1186.22,110.116C1183.19,111.231 1180.3,112.708 1181.6,114.657C1181.75,114.896 1182.27,116.821 1182.27,117.564C1182.27,118.026 1182.4,119.142 1181.01,119.376C1180.47,119.465 1179.61,119.295 1178.49,119.119C1174.42,118.481 1173.63,118.083 1170.52,117.924C1167.41,117.764 1167.33,117.525 1167.89,119.197C1168.45,120.872 1168.82,124.533 1166.62,123.062C1166.14,122.744 1161.91,121.906 1160.08,122.067C1160.16,123.261 1159.77,124.456 1159.37,125.094C1158.97,125.732 1158.65,125.732 1159.68,125.81C1160.72,125.89 1161.91,125.97 1163.75,125.81C1165.58,125.652 1166.14,125.652 1167.1,125.571C1167.45,125.543 1168.49,125.372 1168.66,125.942C1168.84,126.545 1168.65,126.766 1167.49,127.404C1164.87,128.851 1162.58,129.982 1161.2,131.468C1160.16,132.584 1160.64,133.379 1161.44,134.177C1161.68,134.416 1163.35,136.926 1160.96,137.96C1158.57,138.997 1154.66,139.436 1153.79,139.834C1152.91,140.231 1152.38,140.506 1153.87,141.825C1154.71,142.573 1154.97,143.57 1154.14,144.222C1153.65,144.613 1152.48,144.828 1151.6,144.933C1149.22,145.214 1146.06,145.649 1144.95,146.049C1143.83,146.445 1142.71,146.605 1143.67,148.837C1144.62,151.068 1143.35,152.501 1140.72,151.786C1138.09,151.068 1134.12,151.814 1132.67,152.103C1132.28,152.184 1130.29,152.82 1130.92,154.014C1131.32,154.762 1131.44,155.644 1130.38,156.101C1129.75,156.377 1128.55,156.316 1127.1,156.484C1124.67,156.762 1125.2,156.737 1123.79,157.044C1122.32,157.361 1120.8,158.199 1120.8,158.199C1116.35,156.135 1113,155.733 1111.26,155.442C1110.13,155.25 1109.61,154.69 1110.33,153.657C1112.09,151.106 1107.26,151.027 1106.62,150.948C1105.99,150.868 1101.36,150.948 1100.93,150.868C1100.38,150.767 1098.73,150.202 1099.29,148.077C1099.93,145.688 1097.7,145.649 1096.86,145.411C1096.03,145.173 1091.8,144.613 1091.56,144.613C1088.78,144.613 1092,141.746 1089.89,140.51C1088.81,139.882 1085.99,138.32 1084.28,138.2C1083.04,138.115 1081.64,138.159 1083.6,136.288C1085.55,134.416 1081.96,132.981 1081.53,133.022C1078.82,133.269 1078.29,126.673 1076.23,125.093C1074.24,123.571 1077.14,123.699 1077.46,123.819C1079.97,124.76 1084.55,123.659 1084.87,123.499C1088.97,121.452 1082.4,121.308 1081.66,121.29C1076.05,121.136 1071.9,122.345 1071.07,123.221C1070.5,123.822 1070.25,122.944 1070.41,122.305C1070.41,121.388 1072.72,119.676 1069.22,118.322C1065.07,116.719 1055.25,116.689 1054.84,116.648C1054.68,115.572 1055.35,114.338 1055.47,114.177C1057.22,111.846 1045.32,106.509 1043.16,105.336C1040.97,104.14 1042.85,103.143 1043.32,102.786C1044.91,101.592 1037.87,96.452 1035.87,94.619C1033.88,92.786 1035.71,91.671 1036.31,91.272C1033.17,85.456 1026.43,81.631 1026.31,81.354C1025.8,80.155 1026.63,79.681 1027.83,79.84C1039.62,81.411 1045.99,85.655 1045.99,85.655C1046.95,85.337 1050.34,84.679 1055.55,84.919C1060.77,85.157 1069.6,86.015 1068.82,87.706C1068.32,88.782 1069.12,88.066 1070.67,88.483C1072.22,88.902 1071.37,90.077 1071.21,90.177C1069.64,91.158 1070.61,91.015 1070.81,90.953C1073.34,90.196 1075.35,90.696 1075.47,90.793C1076.33,91.507 1075.69,92.467 1075.56,92.687C1075.18,93.334 1075.59,93.244 1075.76,93.065C1075.93,92.885 1079.85,91.611 1079.99,91.521C1080.13,91.431 1081.78,90.849 1081.89,92.199C1081.97,93.164 1081.57,93.614 1081.38,93.912C1081.19,94.211 1081.29,94.399 1081.4,94.251C1081.47,94.174 1083.76,92.514 1084.1,92.179C1084.43,91.846 1085.01,92.08 1085.24,92.309C1085.47,92.537 1085.46,92.885 1085.39,92.976C1085.35,93.028 1085.04,93.543 1084.94,94.07C1084.84,94.599 1085.35,94.45 1085.41,94.32C1085.47,94.191 1087.48,92.519 1088.04,91.851C1088.6,91.182 1089.63,91.503 1089.88,92.458C1090.13,93.414 1090.31,93.543 1090.47,93.474C1090.63,93.403 1090.68,93.315 1090.69,93.135C1090.7,92.985 1090.68,92.287 1090.68,91.881C1090.68,91.471 1091.08,90.982 1091.63,91.064C1092.16,91.138 1091.96,90.834 1091.96,90.834C1090.25,89.694 1089.14,88.917 1085.38,87.507C1083.64,86.851 1078.1,86.914 1077.54,87.329C1076.59,88.046 1075.67,87.33 1076.51,86.492C1076.75,86.253 1078.66,84.261 1082.4,83.982C1086.15,83.702 1095.39,86.573 1095.63,86.691C1095.87,86.812 1102.6,89.321 1108.26,89.321C1108.85,89.321 1120.21,89.181 1120.68,89.182ZM1086.22,137.891C1085.4,137.955 1086.88,138.469 1087.3,138.637C1087.4,138.679 1088.13,138.915 1088.8,139.207C1089.42,139.477 1091.17,140.212 1091.45,140.717C1091.86,141.462 1091.73,141.851 1091.4,142.861C1091.21,143.476 1091.48,143.778 1092.2,143.917C1092.92,144.056 1095.73,144.373 1096.03,144.416C1097.22,144.572 1099.43,144.813 1100.05,145.728C1100.48,146.359 1100.43,147.526 1100.33,148.059C1100.09,149.276 1100.39,149.853 1100.85,150.031C1101.31,150.209 1102.58,150.191 1103.52,150.151C1104.45,150.11 1105.47,150.049 1106.6,150.07C1107.32,150.083 1108.64,150.269 1109.61,150.535C1110.52,150.781 1111.11,151.107 1111.18,151.147C1111.94,151.522 1112.4,152.8 1111.56,153.756C1111.2,154.164 1111.02,154.651 1112.24,154.833C1113.39,155.001 1114.77,155.41 1115.94,155.668C1117.12,155.927 1118.83,156.523 1119.25,156.605C1119.67,156.683 1120.67,156.933 1121.12,156.683C1122.06,156.165 1121.24,155.866 1121.16,155.029C1121.1,154.336 1121.17,151.593 1121.08,150.049C1121.06,149.732 1120.9,149.215 1120.88,149.054C1120.81,148.475 1120.59,148.236 1120.45,148.446C1120.36,148.574 1120.33,148.947 1120.31,149.293C1120.28,149.666 1120.07,149.332 1120,150.167C1119.98,150.446 1119.8,150.669 1119.77,150.869C1119.69,151.325 1119.63,154.691 1119.61,155.111C1119.59,155.513 1119.87,156.245 1118.63,155.728C1117.4,155.208 1113,154.321 1112.42,154.294C1111.98,154.273 1111.92,153.817 1112.16,153.652C1112.36,153.508 1112.55,153.468 1112.9,153.378C1113.97,153.097 1113.75,152.142 1113.1,151.725C1112.44,151.304 1111.18,150.309 1111.06,150.209C1109.81,149.17 1107.9,148.936 1106.56,148.896C1105.79,148.872 1104.11,149.276 1103.32,149.514C1102.52,149.753 1100.83,149.813 1100.63,149.293C1100.43,148.776 1101.34,147.222 1101.34,147.222C1101.65,146.453 1101.9,145.389 1101.33,144.628C1100.85,143.99 1099.79,143.794 1098.87,143.638C1098.43,143.563 1096.75,143.59 1095.21,143.618C1093.84,143.643 1092.58,143.668 1092.42,143.617C1091.66,143.379 1092.04,143.097 1092.32,142.74C1092.7,142.262 1092.82,141.845 1092.8,141.286C1092.78,140.566 1092.36,140.244 1092.28,140.17C1092.08,139.991 1089.61,138.12 1087.16,137.841C1087.06,137.829 1086.97,137.825 1086.88,137.825C1086.58,137.825 1086.37,137.88 1086.22,137.891ZM1149.37,143.937C1149.05,144.056 1149.25,144.135 1148.65,144.213C1148.42,144.245 1148.03,144.241 1147.59,144.238C1146.86,144.231 1146.02,144.226 1145.62,144.373C1144.99,144.612 1144.62,144.454 1143.71,144.612C1142.79,144.772 1142.22,144.691 1141.38,145.588C1140.43,146.6 1140.64,147.56 1140.72,148.038C1140.8,148.516 1140.8,149.393 1140.8,149.674C1139.93,149.632 1138.01,149.393 1136.34,149.354C1134.67,149.314 1131.6,149.514 1129.77,150.23C1127.94,150.948 1127.16,151.107 1127.26,152.222C1127.34,153.179 1127.82,153.297 1128.25,153.735C1128.69,154.173 1128.93,154.173 1129.01,154.651C1129.09,155.129 1128.21,155.169 1127.58,155.169C1126.94,155.169 1126.11,155.247 1126.14,155.568C1126.15,155.693 1126.49,155.661 1126.82,155.631C1127.01,155.612 1127.19,155.593 1127.3,155.607C1127.38,155.621 1127.44,155.46 1127.56,155.45C1127.71,155.44 1127.89,155.455 1128.06,155.471C1128.24,155.488 1128.4,155.504 1128.49,155.489C1130.22,155.2 1130.09,154.812 1129.97,154.056C1129.85,153.297 1129.41,152.103 1130.68,151.624C1131.96,151.147 1134.39,150.587 1135.78,150.509C1137.18,150.43 1140.44,150.547 1141.36,150.547C1142.28,150.547 1142.67,149.952 1142.36,149.075C1142.04,148.198 1141.64,147.322 1142.48,146.287C1143.31,145.25 1144.83,144.933 1146.9,144.772C1148.97,144.612 1149.97,144.454 1151.08,144.295C1152.19,144.135 1152.53,143.937 1151.7,143.896C1151.28,143.876 1150.78,143.856 1150.35,143.856C1149.9,143.856 1149.53,143.877 1149.37,143.937ZM1116.5,126.13C1115.9,126.248 1115.43,126.766 1114.91,127.404C1114.39,128.041 1114.69,128.081 1115.59,128.041C1116.46,128.001 1116.65,129.333 1115.98,131.945C1115.55,133.66 1115.78,136.3 1114.87,137.403C1113.75,138.758 1112.68,141.944 1112.6,142.979C1112.52,144.016 1112.04,146.048 1112.6,147.881C1113.16,149.713 1112.96,147.6 1113.08,146.922C1113.19,146.248 1113.47,143.26 1113.83,141.825C1114.19,140.391 1115.03,138.08 1115.9,136.885C1116.78,135.689 1116.5,134.534 1116.54,133.66C1116.58,132.782 1117.58,127.564 1117.5,126.766C1117.44,126.214 1117.27,126.064 1116.97,126.064C1116.84,126.064 1116.68,126.094 1116.5,126.13ZM1124.99,126.847C1124.87,127.285 1124.75,127.404 1125.07,128.319C1125.38,129.236 1125.55,132.106 1125.55,132.7C1125.55,133.3 1125.29,136.555 1125.47,137.282C1125.66,138.12 1126.58,140.947 1126.98,141.507C1127.38,142.063 1127.98,143.778 1128.06,144.373C1128.13,144.972 1128.25,145.848 1128.25,146.287C1128.25,146.965 1128.21,147.521 1128.53,147.642C1128.85,147.76 1128.89,146.884 1128.93,146.526C1128.97,146.166 1129.09,144.295 1129.01,143.738C1128.93,143.178 1128.09,140.629 1127.78,140.152C1127.46,139.674 1126.62,137.642 1126.5,136.965C1126.38,136.288 1126.38,133.499 1126.26,132.106C1126.14,130.711 1125.7,128.919 1125.47,128.441C1125.23,127.961 1125.47,127.564 1125.82,127.564C1126.18,127.564 1126.9,127.564 1127.02,127.525C1126.71,127.219 1126.7,126.844 1125.22,126.844C1125.15,126.844 1125.07,126.845 1124.99,126.847ZM1127.22,124.616C1126.98,124.654 1126.58,124.934 1127.65,125.651C1128.73,126.369 1132.88,135.292 1133.15,135.888C1133.43,136.488 1133.03,136.925 1133.87,137.522C1134.71,138.12 1135.98,140.231 1136.66,140.869C1137.34,141.507 1138.61,143.937 1138.93,144.494C1139.25,145.05 1139.53,145.332 1139.45,144.056C1139.37,142.78 1138.33,141.385 1137.97,140.67C1137.62,139.953 1136.58,138.758 1136.46,138.679C1136.34,138.597 1135.82,138.359 1136.06,138.041C1136.3,137.721 1136.3,137.803 1135.3,136.847C1134.31,135.888 1134.59,136.169 1134.31,135.65C1134.03,135.132 1132.95,131.866 1132.2,130.75C1131.44,129.635 1129.41,126.726 1129.17,126.448C1128.93,126.169 1128.57,125.332 1129.81,125.492C1130.52,125.584 1130.68,125.532 1130.92,125.292C1131.16,125.054 1130.37,124.734 1129.89,124.654C1129.61,124.609 1128.83,124.59 1128.18,124.59C1127.71,124.59 1127.32,124.6 1127.22,124.616ZM1113.51,124.654C1112.44,124.934 1112.36,124.776 1110.17,125.97C1107.98,127.165 1109.68,126.663 1110.81,126.288C1112.72,125.651 1112.84,126.621 1112.68,127.603C1112.56,128.319 1112.36,128.679 1111.4,129.555C1110.15,130.7 1109.33,133.141 1109.05,133.46C1108.53,134.059 1109.21,134.337 1107.58,135.61C1106.42,136.518 1105.67,137.803 1105.07,138.398C1104.47,138.997 1103.36,140.511 1102.8,142.623C1102.24,144.732 1102.88,143.617 1103,143.178C1103.12,142.74 1104.91,139.834 1105.59,139.115C1106.26,138.398 1107.54,136.327 1108.61,135.689C1109.69,135.054 1109.45,134.615 1109.61,134.216C1109.77,133.817 1110.45,132.244 1111.09,131.507C1111.8,130.671 1114.55,126.926 1114.63,125.651C1114.68,124.782 1114.65,124.506 1114.28,124.506C1114.1,124.506 1113.86,124.566 1113.51,124.654ZM1117.22,137.96C1116.62,139.435 1115.54,141.884 1114.91,142.861C1114.11,144.095 1114.87,143.896 1115.55,143.538C1116.38,143.097 1117.38,142.184 1117.8,141.158C1118.39,139.74 1118.19,138.096 1117.94,137.403C1117.81,137.045 1117.7,136.91 1117.62,136.91C1117.43,136.911 1117.35,137.641 1117.22,137.96ZM1120.61,143.712C1120.68,143.62 1120.75,143.4 1120.8,142.979C1121,141.306 1120.73,141.745 1121.08,141.107C1121.44,140.47 1120.84,140.074 1121.32,139.435C1121.55,139.126 1122.26,137.81 1122.67,136.363C1123.1,134.828 1123.27,133.66 1123.35,132.743C1123.43,131.914 1123.04,128.397 1123.04,127.842C1123,124.376 1122.61,123.071 1124.39,121.548C1124.67,121.309 1125.39,121.368 1125.58,119.676C1125.65,119.075 1125.55,118.874 1125.38,118.874C1125.16,118.874 1124.84,119.227 1124.71,119.477C1124.47,119.915 1121.84,122.623 1121.88,124.296C1121.91,125.651 1122.36,129.316 1122.16,131.029C1122.01,132.313 1121.32,134.271 1120.99,134.245C1121.01,134.134 1120.8,134.005 1120.8,133.46C1120.8,131.268 1120.92,130.829 1120.61,129.515C1120.29,128.201 1119.65,127.005 1119.53,125.931C1119.41,124.854 1119.41,123.938 1119.17,123.5C1119.04,123.254 1118.79,123.296 1118.58,123.339C1118.42,123.372 1118.29,123.405 1118.25,123.3C1118.17,123.061 1118.17,122.902 1118.77,122.504C1119.37,122.106 1119.3,121.594 1119.37,121.189C1119.45,120.712 1119.53,120.113 1118.85,120.512C1118.17,120.911 1118.38,121.468 1117.62,120.791C1116.86,120.113 1116.46,119.237 1116.06,118.999C1115.67,118.759 1115.07,118.163 1116.02,118.163C1116.26,118.163 1117.32,118.301 1117.44,118.21C1118.05,117.763 1117.34,117.405 1117.14,116.967C1116.94,116.532 1117.05,115.885 1117.09,114.977C1117.13,113.972 1116.98,113.305 1116.94,113.062C1116.88,112.662 1116.91,111.619 1117.46,111.074C1117.67,110.859 1118.02,110.812 1118.33,110.632C1119.45,109.995 1119.65,109.239 1120.09,108.641C1120.53,108.043 1120.68,106.729 1119.69,108.123C1118.69,109.517 1118.52,110.003 1117.5,110.195C1116.86,110.314 1117.3,111.072 1116.46,111.31C1115.63,111.55 1115.87,112.027 1115.07,110.911C1114.27,109.795 1113.04,108.004 1112.48,107.606C1111.92,107.207 1110.13,105.096 1109.45,104.419C1108.77,103.742 1106.86,100.993 1106.78,100.316C1106.75,99.998 1106.45,99.505 1106.45,99.002C1106.46,98.347 1106.4,97.772 1106.04,97.772C1105.89,97.772 1105.69,97.865 1105.43,98.084C1103.99,99.279 1104.87,101.112 1105.35,101.67C1105.83,102.226 1109.99,108.475 1111.48,109.239C1112.4,109.712 1113.64,110.476 1114.14,111.004C1114.53,111.413 1114.46,111.783 1113.83,111.748C1112.4,111.669 1113.55,115.293 1114.11,115.771C1114.5,116.1 1114.91,116.808 1115.18,117.605C1115.36,118.11 1115.11,118.879 1115.31,119.756C1115.37,120.024 1116.1,120.99 1117.18,121.725C1117.53,121.966 1117.53,122.443 1117.7,122.862C1118.33,124.496 1118.05,125.094 1118.33,126.568C1118.46,127.234 1118.38,128.639 1118.65,129.435C1118.93,130.233 1119.45,131.706 1119.57,131.985C1119.69,132.263 1119.97,132.743 1119.61,134.615C1119.25,136.488 1119.25,139.435 1119.33,139.953C1119.41,140.47 1119.85,142.463 1119.97,142.819C1120.06,143.09 1120.62,144.072 1120.61,143.712ZM1120.61,141.582C1120.6,142.001 1120.6,142.385 1120.6,142.713C1120.6,143.041 1120.6,143.314 1120.6,143.513C1120.6,143.115 1120.6,142.421 1120.61,141.582ZM1157.67,137.902C1157.26,137.941 1157.71,138.02 1156.96,138.141C1156.2,138.259 1154.38,138.319 1153.41,138.538C1152.43,138.758 1151.4,139.075 1150.6,139.873C1150.29,140.184 1150.11,140.384 1150.27,140.732C1150.6,141.428 1151.04,141.367 1151.2,141.666C1151.43,142.107 1151.56,142.323 1152.05,142.641C1152.55,142.959 1153.27,143.318 1153.47,143.161C1153.71,142.963 1153.09,142.507 1152.99,142.384C1152.81,142.162 1151.88,141.606 1151.88,140.511C1151.88,139.832 1152.67,139.356 1153.23,139.197C1153.79,139.036 1155.09,138.679 1155.76,138.558C1156.44,138.438 1157.85,138.141 1158.07,138.059C1158.26,137.992 1158.14,137.893 1157.84,137.893C1157.79,137.893 1157.73,137.896 1157.67,137.902ZM1124.55,136.248C1124.12,136.405 1124.11,136.595 1124.11,137.756L1124.11,137.841C1124.11,139.075 1124.39,140.391 1125.11,141.507C1125.4,141.974 1125.82,142.979 1126.34,142.941C1126.54,142.924 1126.58,142.423 1126.38,142.103C1126.18,141.785 1125.82,140.59 1125.47,139.991C1125.11,139.396 1124.95,137.96 1124.87,137.443C1124.79,136.969 1124.96,136.228 1124.65,136.228C1124.62,136.228 1124.59,136.235 1124.55,136.248ZM1111.12,132.662C1110.49,133.938 1110.25,134.216 1110.37,134.693C1110.49,135.172 1110.29,136.088 1109.77,136.127C1109.25,136.169 1108.97,136.248 1108.5,136.766C1108.02,137.282 1106.34,139.475 1106.26,139.593C1105.5,140.735 1105.87,140.947 1106.5,140.99C1107.14,141.028 1109.53,140.192 1110.29,139.834C1111.05,139.475 1113.12,137.881 1113.08,135.45C1113.05,133.935 1112.52,133.061 1112.52,132.901C1112.52,132.792 1112.16,132.121 1111.73,132.121C1111.54,132.121 1111.32,132.261 1111.12,132.662ZM1130.9,134.654C1130.74,134.733 1130.8,134.914 1130.76,135.292C1130.74,135.536 1130.9,135.917 1130.96,136.369C1131,136.65 1130.87,136.991 1131.04,137.282C1131.46,138.001 1132.04,138.758 1132.24,138.958C1132.44,139.157 1134.15,140.67 1133.83,140.43C1133.68,140.316 1133.87,140.501 1134.14,140.686C1134.43,140.885 1134.81,141.084 1134.95,140.908C1135.27,140.485 1134.99,140.352 1134.87,140.192C1134.75,140.031 1134.35,139.315 1134.07,139.075C1133.79,138.836 1133.39,138.359 1132.91,138.041C1132.44,137.721 1132.44,137.482 1132.32,137.163C1132.2,136.847 1131.68,135.45 1131.48,135.172C1131.31,134.932 1131.18,134.63 1131,134.63C1130.97,134.63 1130.93,134.638 1130.9,134.654ZM1120.62,140.895C1120.62,140.781 1120.62,140.665 1120.62,140.548L1120.62,140.895ZM1130.44,122.384C1130.05,122.783 1130.92,123.101 1131.24,123.34C1131.44,123.489 1132.3,123.978 1133.08,124.685C1133.57,125.125 1133.95,125.747 1134.35,126.13C1135.38,127.125 1138.33,130.75 1138.61,131.069C1138.89,131.387 1139.57,132.861 1139.89,133.26C1140.2,133.66 1143.43,135.211 1144.31,136.009C1144.75,136.414 1145.83,137.138 1146.71,137.947C1147.57,138.732 1148.24,139.601 1148.57,140.031C1149.25,140.908 1149.21,140.312 1148.89,139.712C1148.57,139.115 1148.89,138.875 1148.29,138.041C1147.69,137.203 1145.14,135.41 1144.19,134.932C1143.23,134.454 1140.88,133.182 1140.4,132.623C1139.93,132.066 1139.57,131.745 1139.89,131.189C1140.2,130.63 1140.64,130.99 1141.2,131.348C1141.76,131.706 1144.03,132.743 1145.03,133.021C1146.02,133.3 1150.36,133.899 1151.52,133.938C1152.67,133.978 1156.22,133.738 1156.81,133.578C1157.41,133.421 1157.69,132.743 1157.26,132.305C1156.81,131.866 1152.48,129.913 1152.48,129.913C1151.48,129.595 1150.84,128.877 1149.41,129.755C1147.97,130.63 1145.13,129.687 1144.51,129.475C1142.75,128.877 1141.31,128.272 1139.53,126.13C1139.13,125.651 1137.69,124.416 1137.42,124.296C1137.14,124.176 1136.82,123.778 1136.26,123.898C1135.7,124.016 1135.9,124.854 1135.9,125.132C1135.9,125.412 1136.34,126.487 1136.42,126.687C1136.5,126.886 1136.46,127.723 1135.82,127.047C1135.18,126.369 1133.31,124.058 1132.91,123.898C1132.52,123.738 1132.04,123.62 1132.12,123.261C1132.15,123.102 1132.04,122.807 1132.39,122.699C1132.84,122.562 1133.81,122.629 1134.39,122.583C1135.42,122.504 1133.11,122.384 1132.04,122.384C1131.56,122.384 1131.19,122.207 1130.87,122.207C1130.72,122.207 1130.58,122.251 1130.44,122.384ZM1120.63,140.171L1120.62,140.457L1120.63,139.998L1120.63,140.171ZM1110.77,122.623C1109.41,122.704 1107.26,122.704 1105.67,123.738C1104.07,124.776 1101.2,126.608 1100.65,127.245C1100.09,127.881 1100.33,128.359 1099.05,128.679C1098.42,128.839 1096.19,129.157 1094.15,129.874C1092.12,130.591 1090.29,131.706 1090.13,131.866C1089.35,132.648 1088.06,133.061 1090.13,133.061C1092.77,133.061 1096.82,133.141 1098.89,132.184C1100.97,131.229 1100.88,132.423 1099.61,133.141C1098.97,133.499 1097.9,134.155 1096.99,135.111C1096.09,136.069 1095.34,137.322 1095.07,137.92C1094.66,138.823 1094.32,139.784 1094.6,139.695C1094.72,139.656 1094.88,139.304 1095.39,138.796C1096.98,137.203 1099.22,134.072 1101.48,132.861C1104.91,131.029 1102.56,131.547 1103.75,130.591C1104.26,130.187 1105.22,129.082 1106.52,127.852C1108.28,126.175 1110.45,124.301 1111,123.978C1111.92,123.444 1112.1,122.618 1110.93,122.618C1110.88,122.618 1110.82,122.62 1110.77,122.623ZM1120.69,138.11L1120.65,139.33C1120.66,138.924 1120.67,138.514 1120.69,138.11ZM1134.95,129.913C1134.31,130.113 1134.75,131.428 1134.83,131.785C1134.91,132.145 1135.22,133.938 1136.46,134.615C1136.86,134.836 1137.11,135.224 1137.4,135.502C1138.02,136.069 1138.6,136.55 1139.49,136.847C1140.8,137.282 1143.19,137.96 1144.39,138.12C1145.58,138.28 1145.58,138.16 1144.99,137.603C1144.39,137.044 1141.8,135.014 1140.72,134.654C1139.65,134.295 1139.69,134.454 1138.89,133.978C1138.09,133.499 1137.42,132.423 1137.1,131.906C1136.78,131.387 1136.22,130.829 1136.22,130.829C1135.92,130.291 1135.67,129.867 1135.22,129.867C1135.14,129.867 1135.05,129.882 1134.95,129.913ZM1120.74,136.834C1120.73,137.022 1120.73,137.215 1120.72,137.412C1120.71,137.609 1120.7,137.809 1120.69,138.011C1120.71,137.607 1120.72,137.211 1120.74,136.834ZM1160.84,130.033C1159.61,130.213 1159.14,130.869 1158.97,131.189C1158.84,131.425 1158.67,132.822 1159.19,133.559C1159.7,134.295 1160.14,135.392 1160.32,135.709C1160.5,136.028 1160.6,136.185 1160.45,136.497C1160.33,136.755 1160.07,136.652 1160.13,136.944C1160.16,137.092 1160.14,136.836 1160.9,136.786C1161.23,136.763 1161.47,136.327 1161.38,136.009C1161.15,135.195 1160.62,134.634 1160.38,134.195C1160.14,133.759 1159.77,132.901 1159.82,132.404C1159.88,131.906 1160.2,131.248 1160.94,130.79C1161.68,130.332 1162.33,129.695 1162.37,129.515C1162.38,129.489 1162.38,129.478 1162.37,129.478C1162.3,129.478 1161.89,129.879 1160.84,130.033ZM1079.77,130.312C1080.29,131.547 1081.01,132.184 1082.68,132.583C1083.03,132.667 1084.73,133.278 1084.87,134.017C1084.93,134.305 1085.11,135.158 1084.67,135.928C1084,137.125 1084.94,136.133 1085.07,135.928C1085.23,135.67 1085.61,135.335 1085.75,134.932C1086.15,133.738 1085.51,132.423 1084.19,131.985C1083.09,131.617 1082.18,131.207 1081.67,130.814C1081.05,130.343 1080.5,129.916 1079.85,129.157C1079.6,128.857 1079.44,128.736 1079.37,128.736C1079.14,128.736 1079.52,129.716 1079.77,130.312ZM1120.77,136.315C1120.78,136.221 1120.79,136.129 1120.79,136.038L1120.77,136.315ZM1105.71,129.357C1104.89,130.362 1103.99,131.148 1103.87,131.667C1103.75,132.184 1103.95,132.423 1103.32,132.782C1102.68,133.141 1100.65,134.454 1100.33,134.894C1100.01,135.332 1099.09,135.928 1100.41,136.009C1101.72,136.088 1104.39,135.61 1106.14,134.138C1107.9,132.662 1107.78,132.782 1108.06,131.268C1108.34,129.755 1107.74,129.236 1107.66,128.919C1107.61,128.74 1107.43,128.38 1107.05,128.38C1106.75,128.38 1106.31,128.612 1105.71,129.357ZM1120.84,135.436L1120.81,135.801C1120.82,135.675 1120.83,135.553 1120.84,135.436ZM1120.9,134.822L1120.85,135.255C1120.87,135.1 1120.88,134.955 1120.9,134.822ZM1120.96,134.362C1120.97,134.342 1120.97,134.323 1120.98,134.303L1120.96,134.362ZM1086.21,116.9C1086.15,117.329 1086.12,117.767 1086.12,118.213C1086.12,120.504 1086.96,122.602 1088.36,124.214C1087.85,123.762 1087.06,123.314 1085.87,124.098C1084.23,125.173 1080.97,124.293 1081.84,125.453C1081.96,125.61 1084.38,128.378 1088.78,128.639C1091.44,128.797 1089.49,129.874 1088.7,130.75C1088.49,130.983 1087.58,131.772 1087.22,132.26C1086.74,132.901 1087.26,133.061 1087.7,132.544C1088.1,132.069 1090.25,128.519 1096.82,128.519C1097.42,128.519 1098.93,128.361 1099.45,127.842C1099.57,127.726 1100.12,126.984 1100.84,126.337C1101.72,125.545 1102.77,124.817 1102.48,124.576C1101.96,124.138 1103.85,123.765 1104.03,122.544C1104.08,122.259 1103.99,121.848 1103.91,121.447C1104.06,121.036 1104.19,120.611 1104.29,120.174C1104.33,120.177 1104.38,120.183 1104.43,120.194C1104.8,120.268 1105.28,120.246 1105.77,120.225C1106.89,120.175 1108.03,120.126 1107.82,121.189C1107.74,121.588 1108.35,121.482 1108.89,121.221C1109.82,120.772 1110.77,119.856 1109.81,119.756C1109.05,119.676 1107.42,119.686 1105.93,119.695C1105.38,119.699 1104.84,119.703 1104.38,119.701C1104.45,119.216 1104.5,118.719 1104.5,118.213C1104.5,117.713 1104.46,117.223 1104.38,116.744C1105.53,116.215 1107.13,115.65 1107.18,116.808C1107.26,118.601 1107.1,117.843 1107.98,117.525C1108.85,117.205 1109.01,117.445 1110.13,116.648C1110.53,116.364 1111.11,116.109 1111.45,115.784C1112.08,115.195 1112.07,114.401 1111,115.134C1110.37,115.573 1109.66,116.548 1109,116.854C1108.1,117.264 1108.06,116.249 1108.54,115.852C1108.71,115.705 1109.24,114.989 1109.12,114.529C1109.04,114.187 1108.61,113.987 1107.42,114.259C1105.97,114.589 1104.87,115.092 1104.1,115.522C1104,115.206 1103.88,114.897 1103.76,114.596C1104.78,113.826 1105.38,113.097 1104.47,112.982C1103.2,112.824 1104.69,111.329 1103.83,110.594C1101.12,108.283 1098.61,104.419 1097.94,102.226C1097.62,101.192 1095.77,101.155 1096.5,102.387C1096.74,102.786 1096.99,104.161 1094.43,102.626C1094.03,102.387 1092.29,101.847 1088.46,101.749C1085.27,101.67 1087.39,102.414 1086.62,104.379C1086.24,105.386 1086.5,106.002 1086.59,106.495C1086.73,107.213 1086.87,107.63 1087.1,108.243C1087.73,109.872 1087.66,110.951 1086.62,109.079C1086.62,109.079 1085.43,107.047 1085.67,105.056C1085.91,103.064 1085.27,101.47 1084.87,100.355C1084.47,99.239 1084.18,96.608 1084.23,96.052C1084.3,95.442 1084.1,94.988 1083.9,94.988C1083.73,94.988 1083.55,95.299 1083.52,96.093C1083.52,96.093 1083.92,100.424 1084.55,102.109C1084.67,102.426 1085.43,103.881 1083.96,104.619C1083.8,104.697 1076.68,106.288 1076.15,113.74C1076.11,114.298 1075.95,117.205 1075.71,117.723C1075.47,118.241 1075.27,118.601 1076.39,118.641C1076.93,118.66 1077.9,118.489 1079.08,118.319C1080.32,118.14 1081.78,117.961 1083.2,118.003C1084.55,118.041 1084.05,117.653 1083.91,117.246C1083.89,117.165 1083.26,115.403 1083.7,114.371C1084.08,113.502 1084.65,112.846 1086.03,112.585C1087.5,112.305 1087.74,112.665 1087.66,112.904C1087.58,113.143 1087.22,113.382 1086.9,113.581C1086.59,113.781 1085.67,114.976 1086.19,116.808C1086.19,116.839 1086.2,116.87 1086.21,116.9ZM1106.74,124.416C1106.65,125.167 1106.58,126.248 1105.07,127.484C1103.56,128.719 1102.64,129.555 1102.24,129.755C1101.84,129.953 1100.77,130.391 1101.76,130.91C1102.76,131.428 1102.56,131.108 1103.08,130.711C1103.6,130.312 1104.87,128.839 1105.75,128.12C1106.62,127.404 1109.25,124.815 1109.93,124.496C1110.61,124.177 1110.49,123.699 1109.81,123.341C1109.13,122.983 1106.9,123.141 1106.74,124.416ZM1150.7,110.474C1150.31,110.348 1149.9,110.249 1149.49,110.176C1150.57,109.34 1151.49,109.331 1152.15,109.357C1153.15,109.398 1152.63,108.8 1152.55,108.681C1152.48,108.562 1152.15,107.963 1152.48,107.286C1152.79,106.609 1152.79,104.817 1152.79,104.379C1152.79,103.941 1152.67,102.984 1153.39,102.347C1154.03,101.781 1153.79,101.623 1153.39,101.623C1153.34,101.623 1153.29,101.626 1153.23,101.631C1152.75,101.67 1152.08,101.773 1150.4,102.307C1148.65,102.865 1145.38,104.936 1145.06,105.214C1143.66,106.442 1140.96,108.562 1139.89,111.032C1138.9,113.301 1139.26,114.46 1139.6,115.066C1139.45,115.347 1139.32,115.637 1139.2,115.935C1138.75,115.449 1138.21,114.974 1137.62,114.697C1136.93,114.376 1134.03,114.259 1132.75,114.417C1131.48,114.576 1132.2,116.608 1132.04,116.847C1131.88,117.085 1131.68,117.007 1131.56,117.047C1130.5,117.4 1128.97,116.131 1128.17,115.653C1127.44,115.212 1128.06,113.788 1127.88,113.788C1127.86,113.788 1127.84,113.799 1127.82,113.82C1127.46,114.098 1127.3,115.334 1127.78,115.97C1128.25,116.608 1129.57,117.685 1130.64,117.843C1131.72,118.003 1133.67,118.521 1133.87,118.521C1134.32,118.521 1134.59,118.401 1133.87,117.285C1133.15,116.17 1134.19,116.051 1136.02,116.249C1137.11,116.367 1138.08,116.916 1138.76,117.378C1138.61,118.026 1138.54,118.699 1138.54,119.388C1138.54,119.673 1138.55,119.954 1138.58,120.233L1138.57,120.234C1138.21,120.416 1138.36,121.73 1139.34,123.177C1140.8,126.448 1144.08,128.734 1147.89,128.734C1148.73,128.734 1149.55,128.621 1150.34,128.409C1150.69,128.715 1151.57,128.681 1152.55,128.719C1153.59,128.758 1157.65,128.559 1158.49,128.359C1159.33,128.161 1160.8,127.642 1161.48,127.285C1160.8,126.965 1158.37,126.328 1157.3,126.248C1156.22,126.169 1155.18,126.448 1154.62,126.647C1154.07,126.847 1153.4,127.544 1152.93,127.623C1152.61,127.677 1152.36,127.714 1152.17,127.691C1155.18,126.135 1157.23,122.998 1157.23,119.388C1157.23,119.149 1157.22,118.911 1157.21,118.676L1156.82,120.69C1156.83,120.93 1156.78,121.252 1156.62,121.706L1156.82,120.69C1156.79,120.151 1156.45,120.019 1156.34,119.716C1156.24,119.446 1155.86,119.596 1155.62,119.476C1154.56,118.947 1155.96,118.606 1156.58,117.923C1156.73,117.756 1156.87,117.513 1156.98,117.224L1156.98,117.224C1157.22,116.617 1157.36,115.807 1157.29,115.077L1157.28,115.035C1157.22,114.466 1157.03,113.949 1156.66,113.621C1155.73,112.798 1155.23,112.711 1154.93,112.85L1154.92,112.855C1154.84,112.895 1154.77,112.952 1154.72,113.016L1154.72,113.016C1154.62,113.126 1154.56,113.254 1154.51,113.342C1154.31,113.66 1153.39,116.209 1152.48,117.645C1151.56,119.079 1151.6,117.485 1151.6,117.007C1151.6,116.529 1151.88,114.458 1151.88,114.218C1151.88,113.89 1152.04,111.389 1151.52,111.23C1150.43,110.898 1150.2,111.15 1149.17,111.867C1148.13,112.585 1147.93,113.74 1147.97,114.177C1148,114.533 1148.41,115.134 1148.41,115.453C1148.41,115.771 1148.45,116.808 1148.05,116.808C1147.65,116.808 1147.67,116.65 1147.42,116.052C1147.17,115.492 1146.94,114.298 1146.14,114.098C1143.55,113.45 1142.84,114.059 1142.52,114.298L1142,113.699L1143.91,112.426L1147.57,112.665L1148.69,111.549L1150.7,110.474ZM1150.28,128.359C1150.14,128.201 1150.2,127.742 1150.36,127.384C1150.52,127.025 1151.01,126.091 1151.18,125.79C1151.4,125.392 1151.68,124.854 1151.36,124.576C1151.04,124.297 1150.68,124.676 1150.28,125.033C1149.75,125.513 1148.33,126.567 1147.97,126.806C1147.62,127.046 1146.86,127.564 1145.98,127.763L1150.28,128.359ZM1099.13,127.404C1097.78,127.882 1095.03,128.042 1093.88,127.525C1092.72,127.006 1091.27,125.406 1091.8,123.5C1092.28,121.788 1092.27,121.476 1093.24,122.505C1095.27,124.655 1096.3,125.771 1097.1,125.81C1098.42,125.876 1099.53,126.01 1100.05,125.015C1100.57,124.017 1100.49,124.377 1100.77,124.975C1100.91,125.278 1100.57,126.727 1099.13,127.404ZM1103.36,118.56C1103.36,119.915 1102.33,122.875 1099.97,124.416C1098.93,125.093 1098.46,124.634 1098.4,124.421C1098.31,124.111 1100.12,123.387 1100.77,122.583C1100.93,122.384 1102.12,120.551 1102.08,118.321C1102.04,116.091 1101.22,114.798 1101.01,114.656C1100.65,114.417 1100.1,113.122 1101.44,114.02C1101.68,114.177 1103.36,115.881 1103.36,118.56ZM1193.78,107.247C1193.18,107.367 1191.71,107.645 1190.44,107.885C1189.16,108.123 1186.22,108.879 1184.34,109.678C1182.5,110.46 1181.16,110.992 1180.2,111.71C1179.37,112.332 1178.53,114.059 1179.44,115.653C1180.36,117.246 1178.64,116.613 1177.73,116.409C1177.37,116.33 1174.66,116.011 1173.23,116.011C1171.79,116.011 1167.69,116.448 1167.01,116.529C1166.34,116.608 1162.33,116.924 1163.63,119.197C1163.79,119.477 1164.78,120.352 1164.7,120.751C1164.62,121.15 1163.79,120.473 1163.59,120.352C1163.39,120.234 1162.04,119.716 1160.76,119.635C1159.49,119.556 1157.97,119.556 1158.13,119.556C1159.05,119.556 1157.3,119.197 1157.49,120.273C1157.65,121.096 1158.13,120.872 1158.49,120.872C1159.43,120.872 1164.19,121.189 1165.78,121.828C1166.93,122.287 1167.41,121.906 1167.1,121.309C1166.78,120.712 1166.59,119.92 1165.9,119.079C1164.82,117.763 1165.32,117.322 1166.18,117.166C1166.62,117.085 1168.37,116.847 1171.12,117.007C1172.81,117.104 1177.81,117.923 1178.33,118.041C1178.85,118.163 1181.39,118.799 1181.08,116.769C1180.76,114.736 1180.38,114.332 1180.28,113.382C1180.12,111.908 1183.87,110.234 1185.78,109.557C1187.5,108.948 1192.99,107.645 1194.02,107.485C1194.84,107.36 1194.59,107.211 1194.16,107.211C1194.04,107.211 1193.91,107.221 1193.78,107.247ZM1051.92,107.563C1050.24,106.8 1049.28,106.596 1048.94,106.451C1048.65,106.328 1047.55,106.012 1047.1,106.012C1046.68,106.012 1046.82,106.286 1048.7,107.247C1052.6,109.239 1055.63,111.31 1055.95,111.628C1056.27,111.948 1057.31,112.266 1056.51,113.939C1055.71,115.613 1056.67,115.931 1058.18,115.931C1059.7,115.931 1066.34,116.595 1067.9,116.967C1069.58,117.364 1070.93,117.559 1071.56,118.018C1071.91,118.273 1071.83,118.867 1071.89,119.435C1071.98,120.402 1070.93,122.225 1073.72,121.029C1076.51,119.835 1083.76,119.915 1085.11,120.234C1086.46,120.551 1086.79,120.234 1084.87,119.357C1082.96,118.48 1075.71,119.435 1074.99,119.835C1074.28,120.234 1073.72,120.551 1074.12,118.719C1074.51,116.887 1073.8,117.603 1071.17,116.569C1070.2,116.187 1068.52,115.97 1066.3,115.587C1064.32,115.244 1061.92,114.702 1059.22,114.815C1056.85,114.915 1057.31,114.259 1058.1,113.46C1058.9,112.665 1058.74,111.55 1056.11,109.877C1054.8,109.041 1053.68,108.419 1052.74,107.953C1053.18,107.189 1053.93,105.817 1055.07,108.043C1055.72,109.305 1056.72,108.639 1057.46,109.239C1057.86,109.557 1058.74,110.035 1059.3,110.992C1059.85,110.594 1063.4,104.159 1067.74,101.988C1068.22,101.749 1068.54,100.954 1068.94,100.394C1069.34,99.838 1071.41,95.695 1073.48,94.101C1074.84,93.055 1074.89,92.247 1074.2,92.247C1073.85,92.247 1073.29,92.467 1072.6,92.986C1070.61,94.499 1069.02,95.695 1067.98,98.244C1067.23,100.098 1067.06,99.93 1066.39,99.76C1066.13,99.697 1065.81,99.634 1065.35,99.678C1064.54,99.756 1061.98,99.815 1058.91,101.618C1056.04,103.312 1052.91,105.937 1051.92,107.563ZM1137.58,98.801C1136.94,99.16 1136.46,99.678 1135.94,100.474C1135.42,101.272 1135.11,102.586 1134.47,103.225C1133.83,103.86 1132.24,105.574 1131.88,106.49C1131.52,107.407 1130.72,108.523 1129.97,109.159C1129.55,109.514 1128.94,109.858 1128.42,110.2C1128,110.476 1127.67,110.794 1127.34,110.794C1126.58,110.794 1126.9,110.434 1125.78,109.956C1124.67,109.478 1125.07,110.273 1125.31,110.672C1125.55,111.072 1125.9,112.066 1125.82,112.904C1125.75,113.74 1125.19,115.532 1124.87,116.051C1124.55,116.569 1123.11,118.321 1122.88,118.679C1122.64,119.038 1122.2,119.435 1122.48,119.517C1122.76,119.596 1122.71,119.756 1123.19,119.357C1123.67,118.957 1124.07,118.601 1124.51,118.401C1124.84,118.252 1125.23,117.803 1125.38,117.963C1126.07,118.65 1125.94,116.847 1126.06,116.091C1126.18,115.334 1126.71,113.164 1128.45,111.988C1129.93,110.992 1131.32,110.273 1131.92,108.123C1132.36,106.532 1132.63,107.007 1133.35,106.609C1134.07,106.213 1135.46,104.537 1136.42,103.542C1137.38,102.546 1137.85,100.993 1137.97,100.674C1138.09,100.355 1138.65,98.922 1138.45,98.761C1138.34,98.672 1138.28,98.585 1138.14,98.585C1138.03,98.585 1137.86,98.642 1137.58,98.801ZM1155.58,105.016C1154.31,105.692 1154.43,107.804 1154.07,108.401C1153.71,109 1153.79,109.159 1154.46,109.398C1155.14,109.638 1155.34,110.514 1155.06,110.872C1154.79,111.23 1154.98,111.867 1155.34,111.748C1155.87,111.573 1156.7,111.828 1157.21,112.148C1157.73,112.466 1159.53,113.781 1159.53,115.613C1159.53,117.445 1158.33,118.041 1158.01,118.441C1158.41,118.441 1160.6,118.601 1161.72,118.641C1161.72,118.641 1161.93,117.5 1162.23,116.369C1162.99,113.54 1164.11,106.895 1162.27,105.096C1161.46,104.303 1160.42,104.029 1159.38,104.029C1157.85,104.029 1156.34,104.614 1155.58,105.016ZM1080.32,93.422C1080.11,93.422 1079.31,93.677 1078.66,94.738C1076.66,98.005 1076.19,101.829 1075.79,102.626C1075.39,103.423 1076.07,104.379 1072.6,105.255C1069.96,105.924 1066.07,111.644 1065.35,112.744C1064.67,113.781 1064.04,114.854 1066.87,114.736C1068.99,114.647 1072.44,115.852 1073.56,116.409C1074.67,116.967 1075.31,117.364 1075.23,115.453C1075.15,113.54 1075.65,107.663 1076.35,106.968C1076.57,106.743 1076.92,105.986 1077.07,105.335C1077.45,103.692 1077.48,101.437 1077.62,100.674C1077.9,99.2 1078.85,96.597 1079.17,96.173C1079.69,95.495 1080.75,93.431 1080.32,93.422L1080.32,93.422ZM1114.27,112.943C1114.35,112.305 1114.83,111.827 1115.27,111.907C1115.7,111.988 1116.09,112.193 1116.02,113.471C1115.97,114.148 1115.92,114.734 1115.78,115.164C1115.64,115.559 1115.38,115.809 1115.17,115.752C1114.73,115.632 1115,115.456 1114.91,114.945C1114.81,114.398 1114.57,114.806 1114.58,113.939C1114.59,113.382 1114.19,113.581 1114.27,112.943ZM1102.13,114.188C1101.93,114.157 1102.06,113.721 1102.12,113.621C1102.4,113.163 1102.09,110.946 1099.21,112.865C1098.74,113.182 1097.58,114.178 1097.38,114.815C1097.18,115.453 1096.54,116.489 1096.5,114.776C1096.46,113.063 1098.26,111.231 1096.54,111.111C1095.47,111.036 1095.02,111.124 1094.97,110.964C1094.83,110.555 1095.07,110.314 1095.87,110.195C1096.56,110.091 1096.94,110.833 1098.5,110.274C1099.36,109.964 1100.71,109.203 1101.64,109.606C1103,110.195 1102.88,112.109 1102.72,113.263C1102.56,114.377 1102.32,114.218 1102.13,114.188ZM1095.47,109.332C1095.38,109.441 1094.93,108.996 1094.43,108.879C1093.76,108.72 1091.01,108.323 1090.77,113.859C1090.68,115.936 1090.73,116.091 1089.63,114.658C1089.05,113.907 1088.58,112.305 1088.42,111.827C1087.98,110.513 1087.28,107.715 1091.56,107.286C1093.95,107.047 1094.51,107.765 1095.03,108.202C1095.36,108.483 1095.61,109.152 1095.47,109.332ZM1171.2,95.813C1172.67,97.129 1174.32,100.855 1174.46,103.144C1174.5,103.781 1175.18,104.658 1175.5,105.135C1175.82,105.613 1176.97,107.007 1177.17,108.401C1177.37,109.795 1177.29,111.948 1177.33,112.665C1177.35,113.022 1176.97,115.334 1177.51,115.438C1177.61,115.458 1177.77,114.119 1177.85,113.302C1178.01,111.669 1179.36,110.195 1180.16,109.877C1180.53,109.73 1184.38,107.923 1185.42,107.804C1186.45,107.685 1186.28,106.995 1184.86,107.247C1183.75,107.445 1183.31,106.131 1183.07,105.933C1182.35,105.337 1180.6,103.264 1179.09,102.586C1178.3,102.234 1177.53,101.71 1176.86,101.879C1176.12,102.065 1176.35,102.658 1176.34,103.182C1176.31,103.86 1175.99,103.962 1175.74,103.655C1175.56,103.437 1175.43,102.952 1175.38,102.586C1175.26,101.71 1174.66,99.478 1174.34,98.601C1174.03,97.725 1171.87,95.097 1171.4,94.818C1171.24,94.727 1171,94.66 1170.81,94.66C1170.42,94.66 1170.21,94.933 1171.2,95.813ZM1165.12,96.729C1165.57,99.033 1164.75,102.498 1164.19,103.463C1163.47,104.697 1163.51,104.776 1163.99,105.892C1164.93,108.094 1163.59,113.7 1163.43,114.576C1163.27,115.453 1163.59,115.134 1165.5,114.576C1167.45,114.009 1173.3,114.666 1174.34,114.815C1174.23,113.979 1175.22,111.628 1172.35,108.92C1168.95,105.703 1165.96,106.176 1165.42,105.892C1163.91,105.096 1166.62,103.742 1166.7,100.872C1166.78,98.005 1166.38,95.934 1165.42,94.579C1165.27,94.366 1165.09,94.136 1164.97,94.136C1164.78,94.136 1164.72,94.693 1165.12,96.729ZM1153.75,94.141C1153.27,94.54 1152.08,95.735 1151.52,96.372C1150.96,97.009 1148.45,99.319 1147.77,99.916C1147.1,100.515 1144.95,101.988 1144.46,102.268C1143.99,102.546 1143.83,102.466 1143.15,103.781C1142.48,105.096 1141.24,106.213 1140.56,106.888C1139.89,107.565 1138.45,108.879 1137.82,109.2C1137.18,109.517 1135.98,110.473 1135.5,110.832C1135.03,111.191 1134.59,111.867 1134.03,112.107C1133.47,112.346 1133.09,112.824 1132.71,113.103C1132.56,113.222 1132.24,113.502 1132.4,113.74C1132.48,113.857 1132.71,114.059 1133.39,113.382C1134.07,112.704 1134.61,112.526 1135.52,111.728C1135.52,111.728 1136.74,110.514 1137.1,110.273C1137.46,110.035 1140.16,108.004 1141.28,106.968C1142.4,105.933 1143.43,103.981 1144.39,103.144C1145.35,102.307 1147.22,101.232 1147.57,100.993C1147.93,100.754 1151.08,98.323 1151.76,97.645C1152.43,96.969 1154.03,95.136 1154.31,94.779C1154.59,94.419 1154.9,93.902 1154.7,93.902C1154.62,93.902 1154.51,93.871 1154.38,93.871C1154.22,93.871 1154.01,93.919 1153.75,94.141ZM1092.84,92.986C1092.68,93.145 1092.64,93.585 1093.16,94.141C1094.31,95.375 1098.22,98.244 1098.62,98.444C1099.01,98.642 1099.81,99.439 1100.33,100.833C1100.85,102.226 1101.25,103.542 1101.8,104.259C1102.36,104.976 1105.95,108.84 1106.78,109.478C1107.62,110.116 1108.45,111.15 1108.5,111.908C1108.54,112.665 1109.29,113.62 1109.29,112.585C1109.29,111.55 1109.17,110.672 1107.9,109.2C1106.62,107.725 1103.71,105.096 1103.6,104.817C1103.48,104.537 1102.16,103.9 1101.36,100.954C1100.57,98.005 1098.26,96.889 1098.1,96.77C1098.1,96.77 1096.19,95.655 1094.15,93.463C1093.82,93.1 1093.5,92.819 1093.2,92.819C1093.08,92.819 1092.95,92.869 1092.84,92.986ZM1153.47,112.027L1153.69,112.068C1153.23,111.699 1152.73,111.373 1152.2,111.096L1153.47,112.027ZM1144.27,110.768C1143.92,110.842 1143.55,110.983 1143.19,111.189C1142.83,111.395 1142.48,111.665 1142.16,111.999C1142.81,111.502 1143.51,111.086 1144.27,110.768ZM1149.17,95.773C1148.77,96.013 1149.05,96.372 1148.25,96.611C1147.46,96.85 1147.34,97.009 1146.94,97.328C1146.54,97.645 1145.74,98.165 1144.59,99.12C1143.43,100.076 1144.27,99.439 1143.55,99.916C1142.84,100.394 1141.2,102.188 1140.6,102.944C1140.01,103.702 1140.36,103.542 1140.12,103.9C1139.89,104.259 1139.37,104.736 1138.49,105.535C1137.62,106.33 1133.99,109.877 1133.75,110.116C1133.51,110.355 1132.71,111.11 1132.91,111.271C1133.11,111.43 1133.45,111.292 1134.15,110.594C1134.27,110.473 1141.4,104.298 1141.6,103.622C1141.8,102.944 1142.4,102.148 1143.03,101.59C1143.67,101.032 1145.38,99.758 1146.02,99.279C1146.66,98.801 1148.41,97.767 1149.13,97.168C1149.84,96.571 1150.48,95.854 1150.32,95.655C1150.26,95.577 1150.13,95.542 1149.98,95.542C1149.73,95.542 1149.41,95.628 1149.17,95.773ZM1214.98,82.628C1212.9,83.464 1207.41,87.224 1205.62,89.36C1204.58,90.596 1205.02,91.484 1205.73,91.91C1205.93,92.03 1207.89,92.986 1206.57,93.782C1205.26,94.58 1202.45,95.716 1201.04,96.651C1199.28,97.806 1196.13,100.116 1195.69,100.674C1195.26,101.232 1194.42,101.671 1195.58,103.104C1196.73,104.537 1197.01,105.097 1197.21,105.414C1197.41,105.733 1197.97,106.451 1197.93,105.653C1197.89,104.858 1197.37,104.419 1197.17,103.981C1196.97,103.543 1195.62,102.148 1196.37,101.272C1197.13,100.395 1199.72,98.124 1201.19,97.407C1202.67,96.69 1206.21,94.738 1206.69,94.54C1207.17,94.341 1208.47,93.823 1208.4,93.225C1208.33,92.467 1207.49,92.621 1206.33,91.273C1206.09,90.994 1206.01,90.237 1206.33,89.919C1206.65,89.599 1208.36,87.369 1211.15,85.457C1211.53,85.199 1214.66,83.107 1215.02,82.986C1215.37,82.868 1215.73,82.43 1214.98,82.628ZM1028.66,82.111C1030.66,83.165 1033.66,86.233 1034.68,87.409C1035.65,88.538 1038.54,91.631 1037.07,92.308C1035.59,92.986 1036.43,94.141 1037.07,94.499C1037.71,94.857 1042.86,99.803 1043.01,99.956C1044.16,101.152 1045.36,102.546 1043.76,103.662C1042.17,104.776 1043.84,105.096 1045.04,104.339C1046.23,103.582 1047.7,102.825 1045.75,100.554C1044.83,99.482 1043.62,98.21 1042.43,97.218C1041.11,96.11 1040.53,95.85 1040.37,95.695C1039.82,95.136 1038.36,94.682 1038.22,94.296C1037.99,93.663 1039.42,93.742 1040.02,93.542C1042.84,92.603 1050.86,91.156 1053.96,91.67C1054.44,91.75 1056.49,91.269 1057.78,90.715C1060.57,89.52 1062.5,88.707 1064.56,88.366C1064.8,88.324 1067.74,87.927 1065.63,87.21C1063.52,86.492 1053.52,85.695 1050.93,86.014C1048.34,86.333 1051.29,86.533 1051.29,86.533C1051.29,86.533 1059.1,86.492 1061.93,87.169C1064.75,87.847 1063.36,87.966 1062.48,87.966C1061.61,87.966 1059.26,88.404 1057.23,89.68C1055.19,90.954 1051.61,90.634 1050.41,90.316C1049.22,89.998 1045.08,89.36 1041.93,90.476C1038.78,91.592 1039.42,91.219 1038.78,89.958C1037.79,88.006 1034,84.659 1032.33,83.982C1031.15,83.503 1029.78,82.588 1031.77,83.025C1034.92,83.72 1043.52,86.333 1046.99,87.767C1050.56,89.245 1052.52,89.56 1053.48,89.56C1054.44,89.56 1057.01,89.58 1055.31,87.886C1054.32,86.889 1053.72,87.528 1053.92,88.045C1054.04,88.352 1052.8,88.564 1051.33,88.166C1049.86,87.767 1045.85,86.66 1044.24,86.014C1043.44,85.695 1037.94,83.823 1037.47,83.663C1037.09,83.537 1030.06,81.752 1029.3,81.713C1028.9,81.691 1028.16,81.501 1027.89,81.501C1027.67,81.501 1027.77,81.634 1028.66,82.111ZM1159.58,95.072C1159.39,95.072 1159.01,95.771 1158.85,96.093C1158.61,96.571 1157.65,98.165 1157.26,98.761C1156.86,99.36 1156.5,99.956 1155.62,100.833C1154.75,101.71 1153.63,102.825 1153.51,103.662C1153.39,104.529 1153.95,103.622 1154.11,103.303C1154.27,102.984 1155.14,102.626 1155.62,101.988C1156.1,101.35 1157.22,100.462 1158.01,99.439C1158.28,99.09 1158.93,98.444 1159.17,97.212C1159.27,96.717 1159.64,96.147 1159.68,95.695C1159.72,95.239 1159.67,95.072 1159.58,95.072L1159.58,95.072ZM1068.22,90.038C1066.71,90.914 1062.79,92.033 1060.73,94.738C1060.15,95.502 1059.63,95.458 1058.6,95.413C1056.93,95.342 1053.95,95.27 1047.27,98.562C1046.15,99.04 1045.75,99.04 1046.79,99.758C1047.73,100.411 1047.9,100.954 1047.74,101.829C1047.59,102.704 1047.78,102.676 1048.94,101.91C1050.93,100.594 1054.44,97.966 1058.98,97.367C1061.52,97.034 1061.16,96.46 1061.93,95.695C1062.16,95.457 1066.71,91.471 1068.78,90.914C1070.32,90.498 1070.09,89.726 1069.25,89.725C1068.96,89.725 1068.61,89.815 1068.22,90.038ZM1180.36,91.192C1180.36,91.192 1177.61,91.432 1175.82,91.512C1174.03,91.592 1175.74,92.866 1175.98,93.026C1178.08,94.43 1180.92,97.168 1181.63,99.12C1182.07,100.318 1182.68,100.311 1183.55,100.304C1183.76,100.302 1183.98,100.3 1184.22,100.316C1185.46,100.394 1189.64,101.032 1191.55,102.148C1192.05,102.437 1192.23,102.109 1192.47,101.67C1192.71,101.232 1195.02,99.798 1195.3,99.4C1195.58,99.001 1195.3,99.279 1194.58,99.599C1193.86,99.916 1193.51,99.717 1192.95,99.001C1192.45,98.364 1191.35,97.966 1190.28,97.367C1189.2,96.77 1184.66,96.212 1183.43,96.77C1182.19,97.328 1181.75,97.168 1181,96.291C1180.24,95.415 1178.09,93.503 1176.74,92.747C1175.38,91.99 1176.58,91.99 1176.78,91.99C1176.97,91.99 1179.6,92.189 1180.76,91.791C1181.19,91.641 1181.96,91.765 1181.89,91.346C1181.86,91.191 1181.59,91.152 1181.28,91.152C1180.96,91.152 1180.58,91.192 1180.36,91.192ZM1091.48,95.813C1092.41,97.16 1095.09,99.365 1096.46,100.156C1097.78,100.913 1097.67,100.222 1096.86,99.678C1095.39,98.682 1092,95.457 1092,95.457C1091.82,95.192 1091.59,95.055 1091.43,95.055C1091.21,95.055 1091.13,95.3 1091.48,95.813ZM1105.54,90.182C1105.42,90.539 1106.1,90.686 1106.5,90.759C1106.96,90.841 1107.25,90.829 1107.53,90.817C1107.84,90.804 1108.14,90.791 1108.65,90.912C1109.08,91.015 1109.96,91.398 1110.41,91.437C1111.93,91.57 1113.4,91.413 1114.94,91.713C1115.44,91.81 1115.92,91.888 1116.37,92.093C1116.95,92.356 1117.52,92.595 1118.09,92.887C1118.43,93.067 1119.57,94.499 1119.84,95.363C1120,95.863 1120.33,97.118 1120.8,97.403C1120.91,97.467 1121.66,97.771 1121.74,97.446C1121.92,96.691 1120.55,95.254 1120.31,94.69C1120.2,94.467 1120.27,94.172 1120.4,94.009L1120.85,92.744C1120.72,92.721 1120.29,92.048 1120.32,91.804C1120.37,91.432 1120.74,91.433 1120.9,91.318C1121.13,91.151 1121.06,90.965 1120.88,90.825C1120.73,90.71 1119.81,90.977 1119.62,91.098C1118.84,91.605 1118.49,91.238 1117.66,91.18C1116.34,91.085 1115.9,90.954 1113.77,90.645C1113.53,90.609 1113,90.625 1112.54,90.642C1112.21,90.652 1111.91,90.664 1111.76,90.657C1109.72,90.581 1109.07,90.681 1106.97,90.315C1106.75,90.275 1106.14,90.08 1105.79,90.08C1105.66,90.08 1105.57,90.108 1105.54,90.182ZM1141.92,90.62C1141.51,90.656 1141.07,90.692 1140.58,90.676C1137.78,90.917 1135.31,91.056 1132.49,91.231C1131.83,91.273 1131.17,91.284 1130.5,91.292C1128.91,91.314 1127.29,91.624 1125.65,91.472C1125.43,91.453 1124.91,91.432 1124.44,91.258C1124.11,91.137 1123.07,90.596 1122.79,90.965C1122.61,91.206 1122.68,91.432 1122.82,91.61C1122.82,91.61 1123.83,92.308 1123.42,92.707L1124.1,93.894C1124.26,93.99 1124.56,94.419 1124.61,94.561C1124.82,95.17 1124.59,95.926 1124.89,96.499C1125.12,96.942 1125.98,96.863 1126.24,96.414C1126.84,95.342 1126.86,94.181 1127.27,93.046C1127.84,91.471 1131.5,91.827 1132.84,91.948C1133.12,91.976 1133.4,91.976 1133.68,91.976C1133.83,91.976 1133.98,91.976 1134.13,91.98C1134.87,92.006 1135.6,91.994 1136.36,91.894C1136.82,91.832 1137.26,91.751 1137.72,91.731C1138.08,91.714 1138.43,91.501 1138.79,91.484C1140.33,91.407 1141.82,91.229 1143.37,90.988C1143.48,90.971 1143.64,90.957 1143.72,90.846C1143.76,90.774 1143.75,90.647 1143.65,90.625C1143.4,90.577 1143.16,90.559 1142.92,90.559C1142.59,90.559 1142.26,90.589 1141.92,90.62ZM1186.58,86.62C1185.03,86.911 1183.52,87.158 1182.27,87.44C1181.07,87.709 1179.84,88.121 1179.46,88.225C1178.67,88.444 1178.88,89.091 1179.34,89.288C1179.69,89.441 1180.21,89.617 1180.8,89.68C1182.47,89.854 1187.86,91.536 1189.64,92.109C1191.55,92.726 1191.79,91.87 1192.95,91.75C1194.1,91.631 1199.44,90.954 1203.66,92.467C1203.66,92.467 1204.9,93.164 1205.02,92.866C1205.15,92.538 1205.2,92.547 1204.1,91.87C1203.42,91.447 1201.09,90.705 1198.41,90.213C1196.91,89.938 1193.27,89.699 1191.67,89.886C1191.22,89.938 1189.63,89.967 1189.26,90.355C1188.62,91.034 1188.13,90.676 1187.89,90.516C1186.49,89.586 1182.55,88.922 1180.88,88.961C1180.3,88.976 1180.26,88.922 1180.24,88.798C1180.16,88.349 1180.63,88.26 1180.96,88.166C1181.88,87.899 1185.62,87.171 1188.62,86.694C1190.56,86.387 1192.04,86.268 1192.71,86.173C1194.42,85.935 1194.74,85.735 1193.23,85.735C1192.47,85.735 1189.54,86.061 1186.58,86.62ZM1150.92,89.042C1147.13,90.157 1145.06,91.392 1144.35,91.791C1143.63,92.189 1143.27,92.667 1144.55,92.308C1145.82,91.948 1149.05,90.555 1149.57,90.436C1150.08,90.316 1153.47,89.16 1154.19,88.961C1154.9,88.763 1157.1,88.006 1159.17,87.847C1161.24,87.688 1161.76,87.608 1162.71,87.688C1163.67,87.767 1164.35,87.806 1164.74,87.886C1165.14,87.966 1165.54,87.966 1164.9,87.608C1164.27,87.249 1162.99,87.169 1161.84,87.169C1158.37,87.169 1154.7,87.927 1150.92,89.042ZM1154.02,90.329L1152.98,92.184C1152.65,92.006 1152.38,91.886 1151.75,92.224C1151.43,92.397 1150.97,91.927 1151.31,91.705C1151.73,91.433 1153.02,90.61 1154.02,90.329ZM1086.58,88.824L1087.86,91.113C1088.28,90.893 1088.61,90.743 1089.38,91.163C1089.78,91.376 1090.35,90.797 1089.92,90.523C1089.41,90.185 1087.82,89.168 1086.58,88.824ZM1081.25,85.761C1080.65,85.781 1080.11,85.926 1079.57,86.173C1084.04,86.053 1085.7,86.517 1086.54,86.83C1087.66,87.249 1090.25,88.245 1091.76,89.064C1091.88,89.129 1093.75,90.172 1094.64,90.448C1095.63,90.754 1095.52,90.072 1095.47,90.04C1094.31,89.202 1093.03,88.541 1091.75,87.965C1089.33,86.88 1087.77,86.225 1085.09,85.774C1084.57,85.686 1084.04,85.657 1083.54,85.657C1082.68,85.657 1081.89,85.741 1081.25,85.761ZM1195.1,87.369C1193.98,87.408 1193.82,87.21 1193.7,87.567C1193.59,87.927 1194.38,87.886 1194.74,87.966C1195.1,88.045 1196.49,87.886 1197.61,87.647C1198.72,87.408 1201.83,86.054 1202.63,85.815C1203.42,85.576 1204.61,84.91 1206.13,84.501C1207.77,84.062 1209.04,83.585 1209.76,83.385C1210.48,83.185 1211.11,82.986 1211.39,82.907C1211.67,82.827 1211.71,82.598 1211.38,82.579C1210.98,82.554 1210.71,82.747 1210.17,82.907C1208.47,83.399 1206.57,83.942 1205.81,84.141C1205.06,84.341 1202.59,85.257 1201.95,85.417C1201.31,85.576 1199.8,86.173 1198.84,86.492C1197.89,86.811 1197.17,87.129 1196.33,87.289C1195.5,87.449 1195.1,87.369 1195.1,87.369ZM1120.8,87.567C1122.32,87.567 1129.17,88.045 1132.52,87.886C1136.9,87.677 1142.16,87.966 1145.03,87.249C1146.69,86.832 1149.7,85.925 1150.85,85.706C1153.63,85.178 1155.86,84.779 1157.42,84.603L1161.25,77.989L1080.36,77.989L1083.15,82.772C1085.11,82.788 1089.17,83.025 1096.35,85.257C1103.27,87.413 1104.71,87.677 1109.09,87.886C1112.44,88.045 1119.29,87.567 1120.8,87.567ZM1165.63,67.169L1166.86,65L1076.1,65L1077.4,67.169L1075.21,67.169L1080.82,76.52L1160.67,76.52L1165.97,67.169L1165.63,67.169ZM1155.02,70.343C1155.56,70.653 1155.95,70.886 1155.95,71.351L1155.95,72.667L1151.3,72.667L1151.3,70.808C1151.84,71.506 1152.78,72.191 1153.85,72.047C1155.02,71.892 1153.7,70.653 1152.92,70.343C1153.7,70.033 1155.02,68.794 1153.85,68.641C1152.78,68.497 1151.84,69.183 1151.3,69.88L1151.3,68.02L1155.95,68.02L1155.95,69.337C1155.95,69.802 1155.56,70.033 1155.02,70.343ZM1099.72,70.342L1103.9,70.342L1103.9,72.666L1103.21,72.666C1103.21,71.762 1102.3,71.117 1101.35,71.117L1099.72,71.117L1099.72,70.342ZM1138.06,70.614C1139.06,71.66 1138.6,72.356 1138.21,72.666C1138.12,72.227 1137.16,71.35 1134.65,71.35C1136.89,70.227 1137.74,68.793 1136.59,68.64C1135.51,68.496 1134.57,69.452 1134.03,70.15L1134.03,68.019L1138.67,68.019L1138.67,69.337C1138.67,69.802 1138.48,70.187 1138.06,70.614ZM1126.94,68.019C1126.94,68.019 1126.95,68.407 1126.52,68.407C1125.2,68.407 1123.46,69.142 1123.46,70.342C1123.46,71.271 1124.47,72.125 1125.78,72.125C1126.64,72.125 1125.94,70.769 1124.54,70.342L1127.02,70.342L1127.02,72.666L1123.07,72.666C1122.72,72.666 1122.45,72.28 1122.45,71.97L1122.45,68.757C1122.45,68.329 1122.76,68.019 1123.07,68.019L1126.94,68.019ZM1149.98,68.019L1149.98,72.666L1148.9,72.666C1148.9,71.271 1148.59,70.576 1145.8,70.576L1145.8,70.151C1148.56,70.151 1148.97,69.724 1148.97,68.019L1149.98,68.019ZM1118.97,72.666C1119.74,72.356 1121.13,71.235 1119.97,71.08C1118.9,70.936 1117.07,71.506 1116.53,72.201L1116.53,70.342L1121.17,70.342L1121.17,72.666L1118.97,72.666ZM1088.3,72.666C1088.03,72.666 1087.91,72.435 1087.91,72.008C1087.91,71.17 1088.43,70.342 1089.62,70.342C1090.48,70.342 1092.02,69.258 1092.44,68.019L1092.44,72.666L1091.82,72.666C1091.55,71.66 1090.37,70.776 1089.54,70.886C1088.38,71.041 1089.89,72.435 1090.82,72.666L1088.3,72.666ZM1110.91,71.931L1110.91,68.757C1110.91,68.329 1111.22,68.019 1111.53,68.019L1115.4,68.019C1115.4,68.019 1115.3,68.292 1114.86,68.292C1113.54,68.292 1112.35,69.143 1112.35,70.343C1112.35,71.545 1113.54,72.396 1114.86,72.396C1115.3,72.396 1115.4,72.666 1115.4,72.666L1111.53,72.666C1111.22,72.666 1110.91,72.356 1110.91,71.931ZM1098.27,71.563L1093.62,71.563L1093.62,69.239L1098.27,69.239L1098.27,71.563C1097.88,70.634 1096.4,69.523 1095.33,69.704C1094.07,69.917 1095.83,71.563 1098.27,71.563ZM1109.61,71.427C1107.89,71.427 1107.85,69.763 1106.73,69.763C1105.96,69.763 1106.31,70.925 1107.08,71.427L1105.22,71.427C1105.22,70.576 1105.07,69.492 1105.88,69.492L1107.62,69.492C1108.12,69.492 1108.78,69.453 1109.25,68.563L1109.61,68.563L1109.61,71.427ZM1129.77,70.343C1130.54,70.033 1131.86,68.794 1130.7,68.641C1129.62,68.497 1128.68,69.183 1128.14,69.88L1128.14,68.02L1132.79,68.02L1132.79,70.343L1129.77,70.343ZM1139.91,70.343C1142.35,70.343 1143.63,68.794 1142.47,68.641C1141.39,68.497 1140.3,69.415 1139.91,70.343L1139.91,68.02L1144.56,68.02L1144.56,70.343L1139.91,70.343ZM1088.98,69.395L1084.33,69.395L1084.33,67.071L1088.98,67.071L1088.98,69.395C1088.59,68.465 1087.1,67.355 1086.03,67.536C1084.78,67.749 1086.54,69.395 1088.98,69.395Z" style="fill:rgb(87,219,142);fill-rule:nonzero;"/>
                    </g>
                </g>
                <g transform="matrix(0.992546,0.121869,-0.121869,0.992546,-1623.79,-1425.07)">
                    <circle cx="1928" cy="1439" r="9" style="fill:rgb(87,219,142);stroke:rgb(87,219,142);stroke-width:8px;"/>
                </g>
                <g transform="matrix(0.992546,-0.121869,0.121869,0.992546,-1947.47,-955.137)">
                    <circle cx="1928" cy="1439" r="9" style="fill:rgb(87,219,142);stroke:rgb(87,219,142);stroke-width:8px;"/>
                </g>
            </g>
        </g>
    </g>
</svg>
