<svg xmlns="http://www.w3.org/2000/svg" xml:space="preserve" style="fill-rule:evenodd;clip-rule:evenodd;stroke-linecap:round;stroke-miterlimit:1.5" viewBox="0 0 256 256"><path d="M0 0h256v256H0z" style="fill:none"/><g><circle cx="128" cy="128" r="128"/><path d="M128 0c70.645 0 128 57.355 128 128s-57.355 128-128 128S0 198.645 0 128 57.355 0 128 0m0 8C61.77 8 8 61.77 8 128s53.77 120 120 120 120-53.77 120-120S194.23 8 128 8" style="fill:#f2200d"/><path d="M1830.03 40.495c-.21-.376-.31-.828-.31-1.356q0-.516.15-.96t.39-.708c.17-.176.35-.264.55-.264s.38.088.55.264.3.412.4.708c.09.296.14.616.14.96 0 .528-.1.98-.31 1.356q.03-.18.03-.372c0-.312-.06-.588-.19-.828-.16-.288-.36-.432-.62-.432s-.46.144-.63.432a1.83 1.83 0 0 0-.15 1.2m-.36.216q-.645-.612-1.02-1.8c-.27-.816-.4-1.728-.4-2.736q0-1.812.99-3.492c-.12.384-.19.832-.23 1.344q-.09 1.308.24 2.004.255.576.84.744a1.8 1.8 0 0 0-.48.588c-.25.456-.37.994-.37 1.614s.12 1.158.37 1.614zm2.28 0 .06-.12c.25-.456.37-.996.37-1.62 0-.272-.02-.528-.07-.768.29-.76.43-1.64.43-2.64q0-2.472-2.13-4.692l.2-.204c1.7 1.736 2.56 3.572 2.56 5.508 0 1.008-.14 1.92-.4 2.736q-.375 1.188-1.02 1.8m.16-3.168c-.02-.04-.05-.1-.1-.18a2.2 2.2 0 0 0-.34-.468 7.3 7.3 0 0 0 .17-1.656c0-1.368-.53-2.68-1.61-3.936l.05-.048q.06-.084.09-.12c1.33 1.384 2 2.84 2 4.368 0 .744-.09 1.424-.26 2.04m-.78-.888a1.3 1.3 0 0 0-.51-.132c.13-.496.19-1.024.19-1.584q0-1.62-1.2-3.108l.05-.072q.09-.132.15-.192 1.5 1.704 1.5 3.54c0 .56-.07 1.076-.18 1.548m-.52 4.548q-.225 0-.39-.294c-.11-.196-.16-.43-.16-.702s.05-.506.16-.702q.165-.294.39-.294t.39.294c.11.196.16.43.16.702s-.05.506-.16.702q-.165.294-.39.294" style="fill:#f2200d;fill-rule:nonzero" transform="translate(-29412.4 -451.824)scale(16.1352)"/><circle cx="1928" cy="1439" r="9" style="fill:#f2200d;stroke:#f2200d;stroke-width:8px" transform="rotate(14 5914.613 -6601.92)"/><circle cx="1928" cy="1439" r="9" style="fill:#f2200d;stroke:#f2200d;stroke-width:8px" transform="translate(-1800 -1200)"/><circle cx="1928" cy="1439" r="9" style="fill:none;stroke:#f2200d;stroke-width:8px" transform="rotate(-14 -3858.605 8057.9)"/></g></svg>