<svg xmlns="http://www.w3.org/2000/svg" xml:space="preserve" style="fill-rule:evenodd;clip-rule:evenodd;stroke-linecap:round;stroke-miterlimit:1.5" viewBox="0 0 256 256"><path d="M0 0h256v256H0z" style="fill:none"/><g><circle cx="128" cy="128" r="128"/><path d="M128 0c70.645 0 128 57.355 128 128s-57.355 128-128 128S0 198.645 0 128 57.355 0 128 0m0 8C61.77 8 8 61.77 8 128s53.77 120 120 120 120-53.77 120-120S194.23 8 128 8" style="fill:#57db8e"/><path d="M1121.59 158.307c1.53-.535 5.17-1.621 9.25-1.621l-10.04 39.676-10.43-40.595c4.28.554 8.18 1.943 9.73 2.545l.01-.034.66.157zm-.76.279-.04.006.01.005zm-.15-69.404s11.28.139 14.07.298 9.96-.319 13.86-1.513c3.9-1.195 10.04-2.311 12.51-2.311s4.14.318 5.42 1.275c1.27.955 2.47 2.549-.4 2.549-.48 0-1.6-.478-2.47-.558-.88-.078-4.62-.238-6.22.08-1.59.319-5.57 1.514-7.09 2.391-1.51.877-2.23 1.354-.64 1.274 1.6-.08 2.08-.319 3.19.159 1.12.478 1.2-.079 1.68-.239.47-.159 1.43-.556 2.22.399.8.956 1.68 2.072 2.4 1.036.71-1.036 2.07-.957 2.86-.159.8.796 1.76 1.832 1.92.478.15-1.355.55-2.471 2.86-1.276s2.08 1.196 2.87.399c.8-.797 1.36-.956 3.03-.08 1.67.877 3.27.718 2.07-.239-1.19-.955-2.79-2.23.88-2.549 3.66-.319 2.23 0 3.11-.08.87-.079.85-.324-.08-.557-1.28-.32-1.12-.32-1.99-.718-.88-.397-.56-1.593.23-1.832.8-.239 4.7-1.435 6.3-1.594 1.59-.159 8.04-1.353 11.07-1.434 3.03-.079 7.17-.318 8.37-.239 1.19.08 1.19-.478 3.42-1.195 2.23-.716 5.1-1.752 8.21-2.31 3.1-.558 3.67-.717 4.46-1.036.8-.32 2.07-.08.32 1.354-1.75 1.436-7.01 4.541-8.05 5.497-1.03.957-5.56 3.77-2.47 4.861 1.36.479 1.64.877 1.67 1.55.06 1.134-1.58 1.65-2.7 2.195-2.47 1.194-6.93 3.584-9.09 5.258-2.15 1.672-1.75 2.071-.79 3.107.95 1.036 3.74 3.346.08 4.063-3.59.702-8.53 1.514-11.55 2.63-3.03 1.115-5.92 2.592-4.62 4.541.15.239.67 2.164.67 2.907 0 .462.13 1.578-1.26 1.812-.54.089-1.4-.081-2.52-.257-4.07-.638-4.86-1.036-7.97-1.195s-3.19-.399-2.63 1.273c.56 1.675.93 5.336-1.27 3.865-.48-.318-4.71-1.156-6.54-.995.08 1.194-.31 2.389-.71 3.027s-.72.638.31.716c1.04.08 2.23.16 4.07 0 1.83-.158 2.39-.158 3.35-.239.35-.028 1.39-.199 1.56.371.18.603-.01.824-1.17 1.462-2.62 1.447-4.91 2.578-6.29 4.064-1.04 1.116-.56 1.911.24 2.709.24.239 1.91 2.749-.48 3.783-2.39 1.037-6.3 1.476-7.17 1.874-.88.397-1.41.672.08 1.991.84.748 1.1 1.745.27 2.397-.49.391-1.66.606-2.54.711-2.38.281-5.54.716-6.65 1.116-1.12.396-2.24.556-1.28 2.788.95 2.231-.32 3.664-2.95 2.949-2.63-.718-6.6.028-8.05.317-.39.081-2.38.717-1.75 1.911.4.748.52 1.63-.54 2.087-.63.276-1.83.215-3.28.383-2.43.278-1.9.253-3.31.56-1.47.317-2.99 1.155-2.99 1.155-4.45-2.064-7.8-2.466-9.54-2.757-1.13-.192-1.65-.752-.93-1.785 1.76-2.551-3.07-2.63-3.71-2.709-.63-.08-5.26 0-5.69-.08-.55-.101-2.2-.666-1.64-2.791.64-2.389-1.59-2.428-2.43-2.666-.83-.238-5.06-.798-5.3-.798-2.78 0 .44-2.867-1.67-4.103-1.08-.628-3.9-2.19-5.61-2.31-1.24-.085-2.64-.041-.68-1.912 1.95-1.872-1.64-3.307-2.07-3.266-2.71.247-3.24-6.349-5.3-7.929-1.99-1.522.91-1.394 1.23-1.274 2.51.941 7.09-.16 7.41-.32 4.1-2.047-2.47-2.191-3.21-2.209-5.61-.154-9.76 1.055-10.59 1.931-.57.601-.82-.277-.66-.916 0-.917 2.31-2.629-1.19-3.983-4.15-1.603-13.97-1.633-14.38-1.674-.16-1.076.51-2.31.63-2.471 1.75-2.331-10.15-7.668-12.31-8.841-2.19-1.196-.31-2.193.16-2.55 1.59-1.194-5.45-6.334-7.45-8.167-1.99-1.833-.16-2.948.44-3.347-3.14-5.816-9.88-9.641-10-9.918-.51-1.199.32-1.673 1.52-1.514 11.79 1.571 18.16 5.815 18.16 5.815.96-.318 4.35-.976 9.56-.736 5.22.238 14.05 1.096 13.27 2.787-.5 1.076.3.36 1.85.777 1.55.419.7 1.594.54 1.694-1.57.981-.6.838-.4.776 2.53-.757 4.54-.257 4.66-.16.86.714.22 1.674.09 1.894-.38.647.03.557.2.378s4.09-1.454 4.23-1.544 1.79-.672 1.9.678c.08.965-.32 1.415-.51 1.713s-.09.487.02.339c.07-.077 2.36-1.737 2.7-2.072.33-.333.91-.099 1.14.13.23.228.22.576.15.667-.04.052-.35.567-.45 1.094-.1.529.41.38.47.25.06-.129 2.07-1.801 2.63-2.469.56-.669 1.59-.348 1.84.607.25.956.43 1.085.59 1.016.16-.071.21-.159.22-.339.01-.15-.01-.848-.01-1.254 0-.41.4-.899.95-.817.53.074.33-.23.33-.23-1.71-1.14-2.82-1.917-6.58-3.327-1.74-.656-7.28-.593-7.84-.178-.95.717-1.87.001-1.03-.837.24-.239 2.15-2.231 5.89-2.51 3.75-.28 12.99 2.591 13.23 2.709.24.121 6.97 2.63 12.63 2.63.59 0 11.95-.14 12.42-.139m-34.46 48.709c-.82.064.66.578 1.08.746.1.042.83.278 1.5.57.62.27 2.37 1.005 2.65 1.51.41.745.28 1.134-.05 2.144-.19.615.08.917.8 1.056s3.53.456 3.83.499c1.19.156 3.4.397 4.02 1.312.43.631.38 1.798.28 2.331-.24 1.217.06 1.794.52 1.972s1.73.16 2.67.12c.93-.041 1.95-.102 3.08-.081.72.013 2.04.199 3.01.465.91.246 1.5.572 1.57.612.76.375 1.22 1.653.38 2.609-.36.408-.54.895.68 1.077 1.15.168 2.53.577 3.7.835 1.18.259 2.89.855 3.31.937.42.078 1.42.328 1.87.078.94-.518.12-.817.04-1.654-.06-.693.01-3.436-.08-4.98-.02-.317-.18-.834-.2-.995-.07-.579-.29-.818-.43-.608-.09.128-.12.501-.14.847-.03.373-.24.039-.31.874-.02.279-.2.502-.23.702-.08.456-.14 3.822-.16 4.242-.02.402.26 1.134-.98.617-1.23-.52-5.63-1.407-6.21-1.434-.44-.021-.5-.477-.26-.642.2-.144.39-.184.74-.274 1.07-.281.85-1.236.2-1.653-.66-.421-1.92-1.416-2.04-1.516-1.25-1.039-3.16-1.273-4.5-1.313-.77-.024-2.45.38-3.24.618-.8.239-2.49.299-2.69-.221-.2-.517.71-2.071.71-2.071.31-.769.56-1.833-.01-2.594-.48-.638-1.54-.834-2.46-.99-.44-.075-2.12-.048-3.66-.02-1.37.025-2.63.05-2.79-.001-.76-.238-.38-.52-.1-.877.38-.478.5-.895.48-1.454-.02-.72-.44-1.042-.52-1.116-.2-.179-2.67-2.05-5.12-2.329-.1-.012-.19-.016-.28-.016-.3 0-.51.055-.66.066m63.15 6.046c-.32.119-.12.198-.72.276-.23.032-.62.028-1.06.025-.73-.007-1.57-.012-1.97.135-.63.239-1 .081-1.91.239-.92.16-1.49.079-2.33.976-.95 1.012-.74 1.972-.66 2.45s.08 1.355.08 1.636c-.87-.042-2.79-.281-4.46-.32-1.67-.04-4.74.16-6.57.876-1.83.718-2.61.877-2.51 1.992.08.957.56 1.075.99 1.513.44.438.68.438.76.916s-.8.518-1.43.518c-.64 0-1.47.078-1.44.399.01.125.35.093.68.063.19-.019.37-.038.48-.024.08.014.14-.147.26-.157.15-.01.33.005.5.021.18.017.34.033.43.018 1.73-.289 1.6-.677 1.48-1.433-.12-.759-.56-1.953.71-2.432 1.28-.477 3.71-1.037 5.1-1.115 1.4-.079 4.66.038 5.58.038s1.31-.595 1-1.472c-.32-.877-.72-1.753.12-2.788.83-1.037 2.35-1.354 4.42-1.515s3.07-.318 4.18-.477c1.11-.16 1.45-.358.62-.399-.42-.02-.92-.04-1.35-.04-.45 0-.82.021-.98.081m-32.87-17.807c-.6.118-1.07.636-1.59 1.274-.52.637-.22.677.68.637.87-.04 1.06 1.292.39 3.904-.43 1.715-.2 4.355-1.11 5.458-1.12 1.355-2.19 4.541-2.27 5.576-.08 1.037-.56 3.069 0 4.902.56 1.832.36-.281.48-.959.11-.674.39-3.662.75-5.097.36-1.434 1.2-3.745 2.07-4.94.88-1.196.6-2.351.64-3.225.04-.878 1.04-6.096.96-6.894-.06-.552-.23-.702-.53-.702-.13 0-.29.03-.47.066m8.49.717c-.12.438-.24.557.08 1.472.31.917.48 3.787.48 4.381 0 .6-.26 3.855-.08 4.582.19.838 1.11 3.665 1.51 4.225.4.556 1 2.271 1.08 2.866.07.599.19 1.475.19 1.914 0 .678-.04 1.234.28 1.355.32.118.36-.758.4-1.116.04-.36.16-2.231.08-2.788-.08-.56-.92-3.109-1.23-3.586-.32-.478-1.16-2.51-1.28-3.187s-.12-3.466-.24-4.859c-.12-1.395-.56-3.187-.79-3.665-.24-.48 0-.877.35-.877.36 0 1.08 0 1.2-.039-.31-.306-.32-.681-1.8-.681zm2.23-2.231c-.24.038-.64.318.43 1.035 1.08.718 5.23 9.641 5.5 10.237.28.6-.12 1.037.72 1.634.84.598 2.11 2.709 2.79 3.347s1.95 3.068 2.27 3.625.6.838.52-.438-1.12-2.671-1.48-3.386c-.35-.717-1.39-1.912-1.51-1.991-.12-.082-.64-.32-.4-.638.24-.32.24-.238-.76-1.194-.99-.959-.71-.678-.99-1.197-.28-.518-1.36-3.784-2.11-4.9-.76-1.115-2.79-4.024-3.03-4.302-.24-.279-.6-1.116.64-.956.71.092.87.04 1.11-.2.24-.238-.55-.558-1.03-.638-.28-.045-1.06-.064-1.71-.064-.47 0-.86.01-.96.026m-13.71.038c-1.07.28-1.15.122-3.34 1.316-2.19 1.195-.49.693.64.318 1.91-.637 2.03.333 1.87 1.315-.12.716-.32 1.076-1.28 1.952-1.25 1.145-2.07 3.586-2.35 3.905-.52.599.16.877-1.47 2.15-1.16.908-1.91 2.193-2.51 2.788-.6.599-1.71 2.113-2.27 4.225-.56 2.109.08.994.2.555s1.91-3.344 2.59-4.063c.67-.717 1.95-2.788 3.02-3.426 1.08-.635.84-1.074 1-1.473s.84-1.972 1.48-2.709c.71-.836 3.46-4.581 3.54-5.856.05-.869.02-1.145-.35-1.145-.18 0-.42.06-.77.148m3.71 13.306c-.6 1.475-1.68 3.924-2.31 4.901-.8 1.234-.04 1.035.64.677.83-.441 1.83-1.354 2.25-2.38.59-1.418.39-3.062.14-3.755-.13-.358-.24-.493-.32-.493-.19.001-.27.731-.4 1.05m3.39 5.752c.07-.092.14-.312.19-.733.2-1.673-.07-1.234.28-1.872.36-.637-.24-1.033.24-1.672.23-.309.94-1.625 1.35-3.072.43-1.535.6-2.703.68-3.62.08-.829-.31-4.346-.31-4.901-.04-3.466-.43-4.771 1.35-6.294.28-.239 1-.18 1.19-1.872.07-.601-.03-.802-.2-.802-.22 0-.54.353-.67.603-.24.438-2.87 3.146-2.83 4.819.03 1.355.48 5.02.28 6.733-.15 1.284-.84 3.242-1.17 3.216.02-.111-.19-.24-.19-.785 0-2.192.12-2.631-.19-3.945-.32-1.314-.96-2.51-1.08-3.584-.12-1.077-.12-1.993-.36-2.431-.13-.246-.38-.204-.59-.161-.16.033-.29.066-.33-.039-.08-.239-.08-.398.52-.796s.53-.91.6-1.315c.08-.477.16-1.076-.52-.677s-.47.956-1.23.279c-.76-.678-1.16-1.554-1.56-1.792-.39-.24-.99-.836-.04-.836.24 0 1.3.138 1.42.047.61-.447-.1-.805-.3-1.243-.2-.435-.09-1.082-.05-1.99.04-1.005-.11-1.672-.15-1.915-.06-.4-.03-1.443.52-1.988.21-.215.56-.262.87-.442 1.12-.637 1.32-1.393 1.76-1.991s.59-1.912-.4-.518c-1 1.394-1.17 1.88-2.19 2.072-.64.119-.2.877-1.04 1.115-.83.24-.59.717-1.39-.399s-2.03-2.907-2.59-3.305-2.35-2.51-3.03-3.187-2.59-3.426-2.67-4.103c-.03-.318-.33-.811-.33-1.314.01-.655-.05-1.23-.41-1.23-.15 0-.35.093-.61.312-1.44 1.195-.56 3.028-.08 3.586.48.556 4.64 6.805 6.13 7.569.92.473 2.16 1.237 2.66 1.765.39.409.32.779-.31.744-1.43-.079-.28 3.545.28 4.023.39.329.8 1.037 1.07 1.834.18.505-.07 1.274.13 2.151.06.268.79 1.234 1.87 1.969.35.241.35.718.52 1.137.63 1.634.35 2.232.63 3.706.13.666.05 2.071.32 2.867.28.798.8 2.271.92 2.55s.4.758.04 2.63c-.36 1.873-.36 4.82-.28 5.338s.52 2.51.64 2.866c.09.271.65 1.253.64.893m0-2.13c-.01.419-.01.803-.01 1.131v.8c0-.398 0-1.092.01-1.931m37.06-3.68c-.41.039.04.118-.71.239-.76.118-2.58.178-3.55.397-.98.22-2.01.537-2.81 1.335-.31.311-.49.511-.33.859.33.696.77.635.93.934.23.441.36.657.85.975.5.318 1.22.677 1.42.52.24-.198-.38-.654-.48-.777-.18-.222-1.11-.778-1.11-1.873 0-.679.79-1.155 1.35-1.314.56-.161 1.86-.518 2.53-.639.68-.12 2.09-.417 2.31-.499.19-.067.07-.166-.23-.166-.05 0-.11.003-.17.009m-33.12-1.654c-.43.157-.44.347-.44 1.508v.085c0 1.234.28 2.55 1 3.666.29.467.71 1.472 1.23 1.434.2-.017.24-.518.04-.838-.2-.318-.56-1.513-.91-2.112-.36-.595-.52-2.031-.6-2.548-.08-.474.09-1.215-.22-1.215a.3.3 0 0 0-.1.02m-13.43-3.586c-.63 1.276-.87 1.554-.75 2.031.12.479-.08 1.395-.6 1.434-.52.042-.8.121-1.27.639-.48.516-2.16 2.709-2.24 2.827-.76 1.142-.39 1.354.24 1.397.64.038 3.03-.798 3.79-1.156.76-.359 2.83-1.953 2.79-4.384-.03-1.515-.56-2.389-.56-2.549 0-.109-.36-.78-.79-.78-.19 0-.41.14-.61.541m19.78 1.992c-.16.079-.1.26-.14.638-.02.244.14.625.2 1.077.04.281-.09.622.08.913.42.719 1 1.476 1.2 1.676s1.91 1.712 1.59 1.472c-.15-.114.04.071.31.256.29.199.67.398.81.222.32-.423.04-.556-.08-.716-.12-.161-.52-.877-.8-1.117-.28-.239-.68-.716-1.16-1.034-.47-.32-.47-.559-.59-.878-.12-.316-.64-1.713-.84-1.991-.17-.24-.3-.542-.48-.542a.2.2 0 0 0-.1.024m-10.28 6.241v-.347zm9.82-18.511c-.39.399.48.717.8.956.2.149 1.06.638 1.84 1.345.49.44.87 1.062 1.27 1.445 1.03.995 3.98 4.62 4.26 4.939s.96 1.792 1.28 2.191c.31.4 3.54 1.951 4.42 2.749.44.405 1.52 1.129 2.4 1.938.86.785 1.53 1.654 1.86 2.084.68.877.64.281.32-.319-.32-.597 0-.837-.6-1.671-.6-.838-3.15-2.631-4.1-3.109-.96-.478-3.31-1.75-3.79-2.309-.47-.557-.83-.878-.51-1.434.31-.559.75-.199 1.31.159s2.83 1.395 3.83 1.673c.99.279 5.33.878 6.49.917 1.15.04 4.7-.2 5.29-.36.6-.157.88-.835.45-1.273-.45-.439-4.78-2.392-4.78-2.392-1-.318-1.64-1.036-3.07-.158-1.44.875-4.28-.068-4.9-.28-1.76-.598-3.2-1.203-4.98-3.345-.4-.479-1.84-1.714-2.11-1.834-.28-.12-.6-.518-1.16-.398-.56.118-.36.956-.36 1.234 0 .28.44 1.355.52 1.555s.04 1.036-.6.36c-.64-.678-2.51-2.989-2.91-3.149-.39-.16-.87-.278-.79-.637.03-.159-.08-.454.27-.562.45-.137 1.42-.07 2-.116 1.03-.079-1.28-.199-2.35-.199-.48 0-.85-.177-1.17-.177a.6.6 0 0 0-.43.177m-9.81 17.787-.01.286.01-.459zm-9.86-17.548c-1.36.081-3.51.081-5.1 1.115-1.6 1.038-4.47 2.87-5.02 3.507-.56.636-.32 1.114-1.6 1.434-.63.16-2.86.478-4.9 1.195-2.03.717-3.86 1.832-4.02 1.992-.78.782-2.07 1.195 0 1.195 2.64 0 6.69.08 8.76-.877 2.08-.955 1.99.239.72.957-.64.358-1.71 1.014-2.62 1.97-.9.958-1.65 2.211-1.92 2.809-.41.903-.75 1.864-.47 1.775.12-.039.28-.391.79-.899 1.59-1.593 3.83-4.724 6.09-5.935 3.43-1.832 1.08-1.314 2.27-2.27.51-.404 1.47-1.509 2.77-2.739 1.76-1.677 3.93-3.551 4.48-3.874.92-.534 1.1-1.36-.07-1.36-.05 0-.11.002-.16.005m9.92 15.487-.04 1.22c.01-.406.02-.816.04-1.22m14.26-8.197c-.64.2-.2 1.515-.12 1.872.08.36.39 2.153 1.63 2.83.4.221.65.609.94.887.62.567 1.2 1.048 2.09 1.345 1.31.435 3.7 1.113 4.9 1.273 1.19.16 1.19.04.6-.517-.6-.559-3.19-2.589-4.27-2.949-1.07-.359-1.03-.2-1.83-.676-.8-.479-1.47-1.555-1.79-2.072-.32-.519-.88-1.077-.88-1.077-.3-.538-.55-.962-1-.962a1 1 0 0 0-.27.046m-14.21 6.921c-.01.188-.01.381-.02.578l-.03.599c.02-.404.03-.8.05-1.177m40.1-6.801c-1.23.18-1.7.836-1.87 1.156-.13.236-.3 1.633.22 2.37.51.736.95 1.833 1.13 2.15.18.319.28.476.13.788-.12.258-.38.155-.32.447.03.148.01-.108.77-.158.33-.023.57-.459.48-.777-.23-.814-.76-1.375-1-1.814-.24-.436-.61-1.294-.56-1.791.06-.498.38-1.156 1.12-1.614s1.39-1.095 1.43-1.275q.015-.038 0-.037c-.07 0-.48.401-1.53.555m-81.07.279c.52 1.235 1.24 1.872 2.91 2.271.35.084 2.05.695 2.19 1.434.06.288.24 1.141-.2 1.911-.67 1.197.27.205.4 0 .16-.258.54-.593.68-.996.4-1.194-.24-2.509-1.56-2.947-1.1-.368-2.01-.778-2.52-1.171-.62-.471-1.17-.898-1.82-1.657-.25-.3-.41-.421-.48-.421-.23 0 .15.98.4 1.576m41 6.003c.01-.094.02-.186.02-.277zm-15.06-6.958c-.82 1.005-1.72 1.791-1.84 2.31-.12.517.08.756-.55 1.115-.64.359-2.67 1.672-2.99 2.112-.32.438-1.24 1.034.08 1.115 1.31.079 3.98-.399 5.73-1.871 1.76-1.476 1.64-1.356 1.92-2.87.28-1.513-.32-2.032-.4-2.349-.05-.179-.23-.539-.61-.539-.3 0-.74.232-1.34.977m15.13 6.079-.03.365zm.06-.614-.05.433c.02-.155.03-.3.05-.433m.06-.46c.01-.02.01-.039.02-.059zm-34.75-17.462q-.09.644-.09 1.313c0 2.291.84 4.389 2.24 6.001-.51-.452-1.3-.9-2.49-.116-1.64 1.075-4.9.195-4.03 1.355.12.157 2.54 2.925 6.94 3.186 2.66.158.71 1.235-.08 2.111-.21.233-1.12 1.022-1.48 1.51-.48.641.04.801.48.284.4-.475 2.55-4.025 9.12-4.025.6 0 2.11-.158 2.63-.677.12-.116.67-.858 1.39-1.505.88-.792 1.93-1.52 1.64-1.761-.52-.438 1.37-.811 1.55-2.032.05-.285-.04-.696-.12-1.097.15-.411.28-.836.38-1.273.04.003.09.009.14.02.37.074.85.052 1.34.031 1.12-.05 2.26-.099 2.05.964-.08.399.53.293 1.07.032.93-.449 1.88-1.365.92-1.465-.76-.08-2.39-.07-3.88-.061-.55.004-1.09.008-1.55.006.07-.485.12-.982.12-1.488q0-.75-.12-1.469c1.15-.529 2.75-1.094 2.8.064.08 1.793-.08 1.035.8.717.87-.32 1.03-.08 2.15-.877.4-.284.98-.539 1.32-.864.63-.589.62-1.383-.45-.65-.63.439-1.34 1.414-2 1.72-.9.41-.94-.605-.46-1.002.17-.147.7-.863.58-1.323-.08-.342-.51-.542-1.7-.27-1.45.33-2.55.833-3.32 1.263-.1-.316-.22-.625-.34-.926 1.02-.77 1.62-1.499.71-1.614-1.27-.158.22-1.653-.64-2.388-2.71-2.311-5.22-6.175-5.89-8.368-.32-1.034-2.17-1.071-1.44.161.24.399.49 1.774-2.07.239-.4-.239-2.14-.779-5.97-.877-3.19-.079-1.07.665-1.84 2.63-.38 1.007-.12 1.623-.03 2.116.14.718.28 1.135.51 1.748.63 1.629.56 2.708-.48.836 0 0-1.19-2.032-.95-4.023.24-1.992-.4-3.586-.8-4.701-.4-1.116-.69-3.747-.64-4.303.07-.61-.13-1.064-.33-1.064-.17 0-.35.311-.38 1.105 0 0 .4 4.331 1.03 6.016.12.317.88 1.772-.59 2.51-.16.078-7.28 1.669-7.81 9.121-.04.558-.2 3.465-.44 3.983s-.44.878.68.918c.54.019 1.51-.152 2.69-.322 1.24-.179 2.7-.358 4.12-.316 1.35.038.85-.35.71-.757-.02-.081-.65-1.843-.21-2.875.38-.869.95-1.525 2.33-1.786 1.47-.28 1.71.08 1.63.319s-.44.478-.76.677c-.31.2-1.23 1.395-.71 3.227 0 .031.01.062.02.092m20.53 7.516c-.09.751-.16 1.832-1.67 3.068s-2.43 2.071-2.83 2.271c-.4.198-1.47.636-.48 1.155 1 .518.8.198 1.32-.199.52-.399 1.79-1.872 2.67-2.591.87-.716 3.5-3.305 4.18-3.624s.56-.797-.12-1.155-2.91-.2-3.07 1.075m43.96-13.942c-.39-.126-.8-.225-1.21-.298 1.08-.836 2-.845 2.66-.819 1 .041.48-.557.4-.676-.07-.119-.4-.718-.07-1.395.31-.677.31-2.469.31-2.907s-.12-1.395.6-2.032c.64-.566.4-.724 0-.724-.05 0-.1.003-.16.008-.48.039-1.15.142-2.83.676-1.75.558-5.02 2.629-5.34 2.907-1.4 1.228-4.1 3.348-5.17 5.818-.99 2.269-.63 3.428-.29 4.034-.15.281-.28.571-.4.869-.45-.486-.99-.961-1.58-1.238-.69-.321-3.59-.438-4.87-.28-1.27.159-.55 2.191-.71 2.43-.16.238-.36.16-.48.2-1.06.353-2.59-.916-3.39-1.394-.73-.441-.11-1.865-.29-1.865q-.03 0-.06.032c-.36.278-.52 1.514-.04 2.15.47.638 1.79 1.715 2.86 1.873 1.08.16 3.03.678 3.23.678.45 0 .72-.12 0-1.236-.72-1.115.32-1.234 2.15-1.036 1.09.118 2.06.667 2.74 1.129a9 9 0 0 0-.22 2.01c0 .285.01.566.04.845l-.01.001c-.36.182-.21 1.496.77 2.943 1.46 3.271 4.74 5.557 8.55 5.557.84 0 1.66-.113 2.45-.325.35.306 1.23.272 2.21.31 1.04.039 5.1-.16 5.94-.36.84-.198 2.31-.717 2.99-1.074-.68-.32-3.11-.957-4.18-1.037-1.08-.079-2.12.2-2.68.399-.55.2-1.22.897-1.69.976-.32.054-.57.091-.76.068a9.34 9.34 0 0 0 5.06-8.303c0-.239-.01-.477-.02-.712l-.39 2.014c.01.24-.04.562-.2 1.016l.2-1.016c-.03-.539-.37-.671-.48-.974-.1-.27-.48-.12-.72-.24-1.06-.529.34-.87.96-1.553.15-.167.29-.41.4-.699.24-.607.38-1.417.31-2.147l-.01-.042c-.06-.569-.25-1.086-.62-1.414-.93-.823-1.43-.91-1.73-.771l-.01.005a.6.6 0 0 0-.2.161c-.1.11-.16.238-.21.326-.2.318-1.12 2.867-2.03 4.303-.92 1.434-.88-.16-.88-.638s.28-2.549.28-2.789c0-.328.16-2.829-.36-2.988-1.09-.332-1.32-.08-2.35.637-1.04.718-1.24 1.873-1.2 2.31.03.356.44.957.44 1.276 0 .318.04 1.355-.36 1.355s-.38-.158-.63-.756c-.25-.56-.48-1.754-1.28-1.954-2.59-.648-3.3-.039-3.62.2l-.52-.599 1.91-1.273 3.66.239 1.12-1.116zm-.42 17.885c-.14-.158-.08-.617.08-.975.16-.359.65-1.293.82-1.594.22-.398.5-.936.18-1.214-.32-.279-.68.1-1.08.457-.53.48-1.95 1.534-2.31 1.773-.35.24-1.11.758-1.99.957zm-51.15-.955c-1.35.478-4.1.638-5.25.121-1.16-.519-2.61-2.119-2.08-4.025.48-1.712.47-2.024 1.44-.995 2.03 2.15 3.06 3.266 3.86 3.305 1.32.066 2.43.2 2.95-.795.52-.998.44-.638.72-.04.14.303-.2 1.752-1.64 2.429m4.23-8.844c0 1.355-1.03 4.315-3.39 5.856-1.04.677-1.51.218-1.57.005-.09-.31 1.72-1.034 2.37-1.838.16-.199 1.35-2.032 1.31-4.262s-.86-3.523-1.07-3.665c-.36-.239-.91-1.534.43-.636.24.157 1.92 1.861 1.92 4.54m90.42-11.313c-.6.12-2.07.398-3.34.638-1.28.238-4.22.994-6.1 1.793-1.84.782-3.18 1.314-4.14 2.032-.83.622-1.67 2.349-.76 3.943.92 1.593-.8.96-1.71.756-.36-.079-3.07-.398-4.5-.398-1.44 0-5.54.437-6.22.518-.67.079-4.68.395-3.38 2.668.16.28 1.15 1.155 1.07 1.554s-.91-.278-1.11-.399c-.2-.118-1.55-.636-2.83-.717-1.27-.079-2.79-.079-2.63-.079.92 0-.83-.359-.64.717.16.823.64.599 1 .599.94 0 5.7.317 7.29.956 1.15.459 1.63.078 1.32-.519-.32-.597-.51-1.389-1.2-2.23-1.08-1.316-.58-1.757.28-1.913.44-.081 2.19-.319 4.94-.159 1.69.097 6.69.916 7.21 1.034.52.122 3.06.758 2.75-1.272-.32-2.033-.7-2.437-.8-3.387-.16-1.474 3.59-3.148 5.5-3.825 1.72-.609 7.21-1.912 8.24-2.072.82-.125.57-.274.14-.274-.12 0-.25.01-.38.036m-141.86.316c-1.68-.763-2.64-.967-2.98-1.112-.29-.123-1.39-.439-1.84-.439-.42 0-.28.274 1.6 1.235 3.9 1.992 6.93 4.063 7.25 4.381.32.32 1.36.638.56 2.311s.16 1.992 1.67 1.992c1.52 0 8.16.664 9.72 1.036 1.68.397 3.03.592 3.66 1.051.35.255.27.849.33 1.417.09.967-.96 2.79 1.83 1.594 2.79-1.194 10.04-1.114 11.39-.795 1.35.317 1.68 0-.24-.877-1.91-.877-9.16.078-9.88.478-.71.399-1.27.716-.87-1.116.39-1.832-.32-1.116-2.95-2.15-.97-.382-2.65-.599-4.87-.982-1.98-.343-4.38-.885-7.08-.772-2.37.1-1.91-.556-1.12-1.355.8-.795.64-1.91-1.99-3.583a36 36 0 0 0-3.37-1.924c.44-.764 1.19-2.136 2.33.09.65 1.262 1.65.596 2.39 1.196.4.318 1.28.796 1.84 1.753.55-.398 4.1-6.833 8.44-9.004.48-.239.8-1.034 1.2-1.594.4-.556 2.47-4.699 4.54-6.293 1.36-1.046 1.41-1.854.72-1.854-.35 0-.91.22-1.6.739-1.99 1.513-3.58 2.709-4.62 5.258-.75 1.854-.92 1.686-1.59 1.516a2.9 2.9 0 0 0-1.04-.082c-.81.078-3.37.137-6.44 1.94-2.87 1.694-6 4.319-6.99 5.945m85.66-8.762c-.64.359-1.12.877-1.64 1.673-.52.798-.83 2.112-1.47 2.751-.64.635-2.23 2.349-2.59 3.265-.36.917-1.16 2.033-1.91 2.669-.42.355-1.03.699-1.55 1.041-.42.276-.75.594-1.08.594-.76 0-.44-.36-1.56-.838-1.11-.478-.71.317-.47.716.24.4.59 1.394.51 2.232-.07.836-.63 2.628-.95 3.147s-1.76 2.27-1.99 2.628c-.24.359-.68.756-.4.838.28.079.23.239.71-.16.48-.4.88-.756 1.32-.956.33-.149.72-.598.87-.438.69.687.56-1.116.68-1.872.12-.757.65-2.927 2.39-4.103 1.48-.996 2.87-1.715 3.47-3.865.44-1.591.71-1.116 1.43-1.514.72-.396 2.11-2.072 3.07-3.067s1.43-2.549 1.55-2.868.68-1.752.48-1.913c-.11-.089-.17-.176-.31-.176-.11 0-.28.057-.56.216m18 6.215c-1.27.676-1.15 2.788-1.51 3.385-.36.599-.28.758.39.997.68.24.88 1.116.6 1.474-.27.358-.08.995.28.876.53-.175 1.36.08 1.87.4.52.318 2.32 1.633 2.32 3.465s-1.2 2.428-1.52 2.828c.4 0 2.59.16 3.71.2 0 0 .21-1.141.51-2.272.76-2.829 1.88-9.474.04-11.273-.81-.793-1.85-1.067-2.89-1.067-1.53 0-3.04.585-3.8.987m-75.26-11.594c-.21 0-1.01.255-1.66 1.316-2 3.267-2.47 7.091-2.87 7.888s.28 1.753-3.19 2.629c-2.64.669-6.53 6.389-7.25 7.489-.68 1.037-1.31 2.11 1.52 1.992 2.12-.089 5.57 1.116 6.69 1.673 1.11.558 1.75.955 1.67-.956-.08-1.913.42-7.79 1.12-8.485.22-.225.57-.982.72-1.633.38-1.643.41-3.898.55-4.661.28-1.474 1.23-4.077 1.55-4.501.52-.678 1.58-2.742 1.15-2.751m33.95 19.521c.08-.638.56-1.116 1-1.036.43.081.82.286.75 1.564-.05.677-.1 1.263-.24 1.693-.14.395-.4.645-.61.588-.44-.12-.17-.296-.26-.807-.1-.547-.34-.139-.33-1.006.01-.557-.39-.358-.31-.996m-12.14 1.245c-.2-.031-.07-.467-.01-.567.28-.458-.03-2.675-2.91-.756-.47.317-1.63 1.313-1.83 1.95-.2.638-.84 1.674-.88-.039s1.76-3.545.04-3.665c-1.07-.075-1.52.013-1.57-.147-.14-.409.1-.65.9-.769.69-.104 1.07.638 2.63.079.86-.31 2.21-1.071 3.14-.668 1.36.589 1.24 2.503 1.08 3.657-.16 1.114-.4.955-.59.925m-6.66-4.856c-.09.109-.54-.336-1.04-.453-.67-.159-3.42-.556-3.66 4.98-.09 2.077-.04 2.232-1.14.799-.58-.751-1.05-2.353-1.21-2.831-.44-1.314-1.14-4.112 3.14-4.541 2.39-.239 2.95.479 3.47.916.33.281.58.95.44 1.13m75.73-13.519c1.47 1.316 3.12 5.042 3.26 7.331.04.637.72 1.514 1.04 1.991s1.47 1.872 1.67 3.266.12 3.547.16 4.264c.02.357-.36 2.669.18 2.773.1.02.26-1.319.34-2.136.16-1.633 1.51-3.107 2.31-3.425.37-.147 4.22-1.954 5.26-2.073 1.03-.119.86-.809-.56-.557-1.11.198-1.55-1.116-1.79-1.314-.72-.596-2.47-2.669-3.98-3.347-.79-.352-1.56-.876-2.23-.707-.74.186-.51.779-.52 1.303-.03.678-.35.78-.6.473-.18-.218-.31-.703-.36-1.069-.12-.876-.72-3.108-1.04-3.985-.31-.876-2.47-3.504-2.94-3.783-.16-.091-.4-.158-.59-.158-.39 0-.6.273.39 1.153m-6.08.916c.45 2.304-.37 5.769-.93 6.734-.72 1.234-.68 1.313-.2 2.429.94 2.202-.4 7.808-.56 8.684-.16.877.16.558 2.07 0 1.95-.567 7.8.09 8.84.239-.11-.836.88-3.187-1.99-5.895-3.4-3.217-6.39-2.744-6.93-3.028-1.51-.796 1.2-2.15 1.28-5.02.08-2.867-.32-4.938-1.28-6.293-.15-.213-.33-.443-.45-.443-.19 0-.25.557.15 2.593m-11.37-2.588c-.48.399-1.67 1.594-2.23 2.231s-3.07 2.947-3.75 3.544c-.67.599-2.82 2.072-3.31 2.352-.47.278-.63.198-1.31 1.513-.67 1.315-1.91 2.432-2.59 3.107-.67.677-2.11 1.991-2.74 2.312-.64.317-1.84 1.273-2.32 1.632-.47.359-.91 1.035-1.47 1.275-.56.239-.94.717-1.32.996-.15.119-.47.399-.31.637.08.117.31.319.99-.358.68-.678 1.22-.856 2.13-1.654 0 0 1.22-1.214 1.58-1.455.36-.238 3.06-2.269 4.18-3.305 1.12-1.035 2.15-2.987 3.11-3.824s2.83-1.912 3.18-2.151c.36-.239 3.51-2.67 4.19-3.348.67-.676 2.27-2.509 2.55-2.866.28-.36.59-.877.39-.877-.08 0-.19-.031-.32-.031-.16 0-.37.048-.63.27m-60.91-1.155c-.16.159-.2.599.32 1.155 1.15 1.234 5.06 4.103 5.46 4.303.39.198 1.19.995 1.71 2.389s.92 2.709 1.47 3.426c.56.717 4.15 4.581 4.98 5.219.84.638 1.67 1.672 1.72 2.43.04.757.79 1.712.79.677s-.12-1.913-1.39-3.385c-1.28-1.475-4.19-4.104-4.3-4.383-.12-.28-1.44-.917-2.24-3.863-.79-2.949-3.1-4.065-3.26-4.184 0 0-1.91-1.115-3.95-3.307-.33-.363-.65-.644-.95-.644-.12 0-.25.05-.36.167m60.63 19.041.22.041a9 9 0 0 0-1.49-.972zm-9.2-1.259a3.8 3.8 0 0 0-1.08.421c-.36.206-.71.476-1.03.81a9.5 9.5 0 0 1 2.11-1.231m4.9-14.995c-.4.24-.12.599-.92.838-.79.239-.91.398-1.31.717-.4.317-1.2.837-2.35 1.792-1.16.956-.32.319-1.04.796-.71.478-2.35 2.272-2.95 3.028-.59.758-.24.598-.48.956-.23.359-.75.836-1.63 1.635-.87.795-4.5 4.342-4.74 4.581s-1.04.994-.84 1.155c.2.159.54.021 1.24-.677.12-.121 7.25-6.296 7.45-6.972.2-.678.8-1.474 1.43-2.032.64-.558 2.35-1.832 2.99-2.311s2.39-1.512 3.11-2.111c.71-.597 1.35-1.314 1.19-1.513-.06-.078-.19-.113-.34-.113-.25 0-.57.086-.81.231m65.81-13.145c-2.08.836-7.57 4.596-9.36 6.732-1.04 1.236-.6 2.124.11 2.55.2.12 2.16 1.076.84 1.872-1.31.798-4.12 1.934-5.53 2.869-1.76 1.155-4.91 3.465-5.35 4.023-.43.558-1.27.997-.11 2.43 1.15 1.433 1.43 1.993 1.63 2.31.2.319.76 1.037.72.239-.04-.795-.56-1.234-.76-1.672s-1.55-1.833-.8-2.709c.76-.877 3.35-3.148 4.82-3.865 1.48-.717 5.02-2.669 5.5-2.867.48-.199 1.78-.717 1.71-1.315-.07-.758-.91-.604-2.07-1.952-.24-.279-.32-1.036 0-1.354.32-.32 2.03-2.55 4.82-4.462.38-.258 3.51-2.35 3.87-2.471.35-.118.71-.556-.04-.358m-186.32-.517c2 1.054 5 4.122 6.02 5.298.97 1.129 3.86 4.222 2.39 4.899-1.48.678-.64 1.833 0 2.191s5.79 5.304 5.94 5.457c1.15 1.196 2.35 2.59.75 3.706-1.59 1.114.08 1.434 1.28.677 1.19-.757 2.66-1.514.71-3.785-.92-1.072-2.13-2.344-3.32-3.336-1.32-1.108-1.9-1.368-2.06-1.523-.55-.559-2.01-1.013-2.15-1.399-.23-.633 1.2-.554 1.8-.754 2.82-.939 10.84-2.386 13.94-1.872.48.08 2.53-.401 3.82-.955 2.79-1.195 4.72-2.008 6.78-2.349.24-.042 3.18-.439 1.07-1.156-2.11-.718-12.11-1.515-14.7-1.196s.36.519.36.519 7.81-.041 10.64.636c2.82.678 1.43.797.55.797-.87 0-3.22.438-5.25 1.714-2.04 1.274-5.62.954-6.82.636-1.19-.318-5.33-.956-8.48.16s-2.51.743-3.15-.518c-.99-1.952-4.78-5.299-6.45-5.976-1.18-.479-2.55-1.394-.56-.957 3.15.695 11.75 3.308 15.22 4.742 3.57 1.478 5.53 1.793 6.49 1.793s3.53.02 1.83-1.674c-.99-.997-1.59-.358-1.39.159.12.307-1.12.519-2.59.121-1.47-.399-5.48-1.506-7.09-2.152-.8-.319-6.3-2.191-6.77-2.351-.38-.126-7.41-1.911-8.17-1.95-.4-.022-1.14-.212-1.41-.212-.22 0-.12.133.77.61m130.92 12.961c-.19 0-.57.699-.73 1.021-.24.478-1.2 2.072-1.59 2.668-.4.599-.76 1.195-1.64 2.072-.87.877-1.99 1.992-2.11 2.829-.12.867.44-.04.6-.359s1.03-.677 1.51-1.315 1.6-1.526 2.39-2.549c.27-.349.92-.995 1.16-2.227.1-.495.47-1.065.51-1.517.04-.456-.01-.623-.1-.623m-91.36-5.034c-1.51.876-5.43 1.995-7.49 4.7-.58.764-1.1.72-2.13.675-1.67-.071-4.65-.143-11.33 3.149-1.12.478-1.52.478-.48 1.196.94.653 1.11 1.196.95 2.071-.15.875.04.847 1.2.081 1.99-1.316 5.5-3.944 10.04-4.543 2.54-.333 2.18-.907 2.95-1.672.23-.238 4.78-4.224 6.85-4.781 1.54-.416 1.31-1.188.47-1.189-.29 0-.64.09-1.03.313m112.14 1.154s-2.75.24-4.54.32-.08 1.354.16 1.514c2.1 1.404 4.94 4.142 5.65 6.094.44 1.198 1.05 1.191 1.92 1.184.21-.002.43-.004.67.012 1.24.078 5.42.716 7.33 1.832.5.289.68-.039.92-.478.24-.438 2.55-1.872 2.83-2.27.28-.399 0-.121-.72.199-.72.317-1.07.118-1.63-.598-.5-.637-1.6-1.035-2.67-1.634-1.08-.597-5.62-1.155-6.85-.597-1.24.558-1.68.398-2.43-.479-.76-.876-2.91-2.788-4.26-3.544-1.36-.757-.16-.757.04-.757.19 0 2.82.199 3.98-.199.43-.15 1.2-.026 1.13-.445-.03-.155-.3-.194-.61-.194-.32 0-.7.04-.92.04m-88.88 4.621c.93 1.347 3.61 3.552 4.98 4.343 1.32.757 1.21.066.4-.478-1.47-.996-4.86-4.221-4.86-4.221-.18-.265-.41-.402-.57-.402-.22 0-.3.245.05.758m14.06-5.631c-.12.357.56.504.96.577.46.082.75.07 1.03.058.31-.013.61-.026 1.12.095.43.103 1.31.486 1.76.525 1.52.133 2.99-.024 4.53.276.5.097.98.175 1.43.38.58.263 1.15.502 1.72.794.34.18 1.48 1.612 1.75 2.476.16.5.49 1.755.96 2.04.11.064.86.368.94.043.18-.755-1.19-2.192-1.43-2.756-.11-.223-.04-.518.09-.681l.45-1.265c-.13-.023-.56-.696-.53-.94.05-.372.42-.371.58-.486.23-.167.16-.353-.02-.493-.15-.115-1.07.152-1.26.273-.78.507-1.13.14-1.96.082-1.32-.095-1.76-.226-3.89-.535-.24-.036-.77-.02-1.23-.003-.33.01-.63.022-.78.015-2.04-.076-2.69.024-4.79-.342-.22-.04-.83-.235-1.18-.235-.13 0-.22.028-.25.102m36.38.438c-.41.036-.85.072-1.34.056-2.8.241-5.27.38-8.09.555-.66.042-1.32.053-1.99.061-1.59.022-3.21.332-4.85.18-.22-.019-.74-.04-1.21-.214-.33-.121-1.37-.662-1.65-.293-.18.241-.11.467.03.645 0 0 1.01.698.6 1.097l.68 1.187c.16.096.46.525.51.667.21.609-.02 1.365.28 1.938.23.443 1.09.364 1.35-.085.6-1.072.62-2.233 1.03-3.368.57-1.575 4.23-1.219 5.57-1.098.28.028.56.028.84.028q.225-.001.45.004c.74.026 1.47.014 2.23-.086.46-.062.9-.143 1.36-.163.36-.017.71-.23 1.07-.247 1.54-.077 3.03-.255 4.58-.496.11-.017.27-.031.35-.142.04-.072.03-.199-.07-.221a4 4 0 0 0-.73-.066c-.33 0-.66.03-1 .061m44.66-4c-1.55.291-3.06.538-4.31.82-1.2.269-2.43.681-2.81.785-.79.219-.58.866-.12 1.063.35.153.87.329 1.46.392 1.67.174 7.06 1.856 8.84 2.429 1.91.617 2.15-.239 3.31-.359 1.15-.119 6.49-.796 10.71.717 0 0 1.24.697 1.36.399.13-.328.18-.319-.92-.996-.68-.423-3.01-1.165-5.69-1.657-1.5-.275-5.14-.514-6.74-.327-.45.052-2.04.081-2.41.469-.64.679-1.13.321-1.37.161-1.4-.93-5.34-1.594-7.01-1.555-.58.015-.62-.039-.64-.163-.08-.449.39-.538.72-.632.92-.267 4.66-.995 7.66-1.472 1.94-.307 3.42-.426 4.09-.521 1.71-.238 2.03-.438.52-.438-.76 0-3.69.326-6.65.885m-35.66 2.422c-3.79 1.115-5.86 2.35-6.57 2.749-.72.398-1.08.876.2.517 1.27-.36 4.5-1.753 5.02-1.872.51-.12 3.9-1.276 4.62-1.475.71-.198 2.91-.955 4.98-1.114s2.59-.239 3.54-.159c.96.079 1.64.118 2.03.198.4.08.8.08.16-.278-.63-.359-1.91-.439-3.06-.439-3.47 0-7.14.758-10.92 1.873m3.1 1.287-1.04 1.855c-.33-.178-.6-.298-1.23.04-.32.173-.78-.297-.44-.519.42-.272 1.71-1.095 2.71-1.376m-67.44-1.505 1.28 2.289c.42-.22.75-.37 1.52.05.4.213.97-.366.54-.64-.51-.338-2.1-1.355-3.34-1.699m-5.33-3.063c-.6.02-1.14.165-1.68.412 4.47-.12 6.13.344 6.97.657 1.12.419 3.71 1.415 5.22 2.234.12.065 1.99 1.108 2.88 1.384.99.306.88-.376.83-.408-1.16-.838-2.44-1.499-3.72-2.075-2.42-1.085-3.98-1.74-6.66-2.191a9.4 9.4 0 0 0-1.55-.117c-.86 0-1.65.084-2.29.104m113.85 1.608c-1.12.039-1.28-.159-1.4.198-.11.36.68.319 1.04.399.36.079 1.75-.08 2.87-.319 1.11-.239 4.22-1.593 5.02-1.832.79-.239 1.98-.905 3.5-1.314 1.64-.439 2.91-.916 3.63-1.116s1.35-.399 1.63-.478c.28-.08.32-.309-.01-.328-.4-.025-.67.168-1.21.328-1.7.492-3.6 1.035-4.36 1.234-.75.2-3.22 1.116-3.86 1.276s-2.15.756-3.11 1.075c-.95.319-1.67.637-2.51.797-.83.16-1.23.08-1.23.08m-74.3.198c1.52 0 8.37.478 11.72.319 4.38-.209 9.64.08 12.51-.637 1.66-.417 4.67-1.324 5.82-1.543 2.78-.528 5.01-.927 6.57-1.103l3.83-6.614h-80.89l2.79 4.783c1.96.016 6.02.253 13.2 2.485 6.92 2.156 8.36 2.42 12.74 2.629 3.35.159 10.2-.319 11.71-.319m44.83-20.398 1.23-2.169h-90.76l1.3 2.169h-2.19l5.61 9.351h79.85l5.3-9.351zm-10.61 3.174c.54.31.93.543.93 1.008v1.316h-4.65v-1.859c.54.698 1.48 1.383 2.55 1.239 1.17-.155-.15-1.394-.93-1.704.78-.31 2.1-1.549.93-1.702-1.07-.144-2.01.542-2.55 1.239v-1.86h4.65v1.317c0 .465-.39.696-.93 1.006m-55.3-.001h4.18v2.324h-.69c0-.904-.91-1.549-1.86-1.549h-1.63zm38.34.272c1 1.046.54 1.742.15 2.052-.09-.439-1.05-1.316-3.56-1.316 2.24-1.123 3.09-2.557 1.94-2.71-1.08-.144-2.02.812-2.56 1.51v-2.131h4.64v1.318c0 .465-.19.85-.61 1.277m-11.12-2.595s.01.388-.42.388c-1.32 0-3.06.735-3.06 1.935 0 .929 1.01 1.783 2.32 1.783.86 0 .16-1.356-1.24-1.783h2.48v2.324h-3.95c-.35 0-.62-.386-.62-.696v-3.213c0-.428.31-.738.62-.738zm23.04 0v4.647h-1.08c0-1.395-.31-2.09-3.1-2.09v-.425c2.76 0 3.17-.427 3.17-2.132zm-31.01 4.647c.77-.31 2.16-1.431 1-1.586-1.07-.144-2.9.426-3.44 1.121v-1.859h4.64v2.324zm-30.67 0c-.27 0-.39-.231-.39-.658 0-.838.52-1.666 1.71-1.666.86 0 2.4-1.084 2.82-2.323v4.647h-.62c-.27-1.006-1.45-1.89-2.28-1.78-1.16.155.35 1.549 1.28 1.78zm22.61-.735v-3.174c0-.428.31-.738.62-.738h3.87s-.1.273-.54.273c-1.32 0-2.51.851-2.51 2.051 0 1.202 1.19 2.053 2.51 2.053.44 0 .54.27.54.27h-3.87c-.31 0-.62-.31-.62-.735m-12.64-.368h-4.65v-2.324h4.65zc-.39-.929-1.87-2.04-2.94-1.859-1.26.213.5 1.859 2.94 1.859m11.34-.136c-1.72 0-1.76-1.664-2.88-1.664-.77 0-.42 1.162.35 1.664h-1.86c0-.851-.15-1.935.66-1.935h1.74c.5 0 1.16-.039 1.63-.929h.36zm20.16-1.084c.77-.31 2.09-1.549.93-1.702-1.08-.144-2.02.542-2.56 1.239v-1.86h4.65v2.323zm10.14 0c2.44 0 3.72-1.549 2.56-1.702-1.08-.144-2.17.774-2.56 1.702V68.02h4.65v2.323zm-50.93-.948h-4.65v-2.324h4.65zc-.39-.93-1.88-2.04-2.95-1.859-1.25.213.51 1.859 2.95 1.859" style="fill:#57db8e;fill-rule:nonzero" transform="translate(-914.887 18.65)scale(.9286)"/><circle cx="1928" cy="1439" r="9" style="fill:none;stroke:#57db8e;stroke-width:8px" transform="translate(-1800 -1200)"/></g></svg>