<svg xmlns="http://www.w3.org/2000/svg" xml:space="preserve" style="fill-rule:evenodd;clip-rule:evenodd;stroke-linecap:round;stroke-miterlimit:1.5" viewBox="0 0 256 256"><path d="M0 0h256v256H0z" style="fill:none"/><g><circle cx="128" cy="128" r="128"/><path d="M128 0c70.645 0 128 57.355 128 128s-57.355 128-128 128S0 198.645 0 128 57.355 0 128 0m0 8C61.77 8 8 61.77 8 128s53.77 120 120 120 120-53.77 120-120S194.23 8 128 8" style="fill:#d23a2d"/><path d="M1022.85 23.056c1.28-6.72 2.2-15.556 2.2-15.556s.92 8.803 2.21 15.51c4.33.962 7.57 4.827 7.57 9.449 0 .837-.11 1.649-.31 2.424 2.85 1.245 5.74 1.297 5.74 1.297s-3.87 2.718-8.38 3.233a9.63 9.63 0 0 1-6.73 2.725 9.67 9.67 0 0 1-7.26-3.275c-3.12 1.353-5.08 3.748-5.09 3.633-.39-4.662 1.09-6.884 2.84-8.236a9.7 9.7 0 0 1-.17-1.801c0-4.552 3.14-8.369 7.38-9.403m4.58.825c.61 3.039 1.3 5.516 2 6.321l-4.36 7.037-4.38-7.011c.69-.802 1.37-3.266 1.98-6.293-3.69 1.075-6.4 4.489-6.4 8.524 0 .438.04.869.1 1.29 1.55-.989 3.14-1.487 3.74-2.512l4.61 7.111c-2.24-.645-4.28-.407-6.02.2a8.85 8.85 0 0 0 6.45 2.786c2.03 0 3.9-.686 5.4-1.838-1.67.015-3.39-.325-4.99-1.256l4.51-7.123c.9 1.578 2.27 2.664 3.71 3.413a8.8 8.8 0 0 0 .24-2.071c0-4.106-2.8-7.57-6.59-8.578" style="fill:#d23a2d;fill-rule:nonzero" transform="translate(-5143.14 -12.571)scale(5.14286)"/><path d="M1916.84 1455.5c3.71.33 7.44.5 11.16.5s7.45-.17 11.16-.5l-1.68-19.73c-3.15.29-6.32.43-9.48.43s-6.33-.14-9.48-.43z" style="fill:none;stroke:#d23a2d;stroke-width:8.66px" transform="matrix(.9375 0 0 .9091 -1679.5 -1075.64)"/><path d="M1894.87 1451.5a124.2 124.2 0 0 0 66.26 0l-4.97-19.12c-9.18 2.53-18.65 3.82-28.16 3.82s-18.97-1.29-28.16-3.82z" style="fill:none;stroke:#d23a2d;stroke-width:8.66px" transform="matrix(.9375 0 0 .9091 -1679.5 -1075.64)"/><path d="M1873.9 1443.63c16.95 8.15 35.41 12.37 54.1 12.37s37.15-4.22 54.1-12.37l-8.12-17.94c-14.4 6.92-30.09 10.51-45.98 10.51s-31.58-3.59-45.98-10.51z" style="fill:none;stroke:#d23a2d;stroke-width:8.66px" transform="matrix(.9375 0 0 .9091 -1679.5 -1075.64)"/></g></svg>