<svg xmlns="http://www.w3.org/2000/svg" xml:space="preserve" style="fill-rule:evenodd;clip-rule:evenodd;stroke-linecap:round;stroke-miterlimit:1.5" viewBox="0 0 256 256"><path d="M0 0h256v256H0z" style="fill:none"/><g><circle cx="128" cy="128" r="128"/><path d="M128 0c70.645 0 128 57.355 128 128s-57.355 128-128 128S0 198.645 0 128 57.355 0 128 0m0 8C61.77 8 8 61.77 8 128s53.77 120 120 120 120-53.77 120-120S194.23 8 128 8" style="fill:#57afdb"/><path d="M895 150c184.89 0 335 150.108 335 335s-150.11 335-335 335c-184.892 0-335-150.108-335-335s150.108-335 335-335m317.75 387.964.24-.324C1189.86 622.517 1112.17 685 1020 685c-110.383 0-200-89.617-200-200s89.617-200 200-200c92.17 0 169.86 62.483 192.99 147.36-16.36-22.628-42.97-37.36-72.99-37.36-49.67 0-90 40.328-90 90s40.33 90 90 90c29.88 0 56.38-14.595 72.75-37.036m99.11-34.693C1320.31 544.195 1356.59 575 1400 575c49.48 0 89.68-40.014 90-89.418-.32 71.481-58.44 129.418-130 129.418-71.75 0-130-58.251-130-130s58.25-130 130-130c71.56 0 129.68 57.937 130 129.418-.32-49.404-40.52-89.418-90-89.418-43.41 0-79.69 30.805-88.14 71.729A19.9 19.9 0 0 1 1320 465c5.97 0 11.33 2.622 15 6.777 3.67-4.155 9.03-6.777 15-6.777s11.33 2.622 15 6.777c3.67-4.155 9.03-6.777 15-6.777 1.73 0 3.4.219 5 .631 6.83-12.299 19.95-20.631 35-20.631s28.17 8.332 35 20.631c1.6-.412 3.27-.631 5-.631 11.04 0 20 8.962 20 20s-8.96 20-20 20c-1.73 0-3.4-.219-5-.631-6.83 12.299-19.95 20.631-35 20.631s-28.17-8.332-35-20.631c-1.6.412-3.27.631-5 .631-5.97 0-11.33-2.622-15-6.777-3.67 4.155-9.03 6.777-15 6.777s-11.33-2.622-15-6.777c-3.67 4.155-9.03 6.777-15 6.777-2.9 0-5.65-.618-8.14-1.729M470 395c49.672 0 90 40.328 90 90s-40.328 90-90 90-90-40.328-90-90 40.328-90 90-90m333.994 70.4A20 20 0 0 0 800 465c-11.038 0-20 8.962-20 20s8.962 20 20 20a20 20 0 0 0 3.994-.4C797.699 513.89 787.058 520 775 520c-13.535 0-25.287-7.7-31.109-18.956C737.423 540.143 703.42 570 662.5 570c-39.559 0-72.652-27.903-80.655-65.085A19.96 19.96 0 0 0 595 498.223c3.666 4.155 9.029 6.777 15 6.777 11.038 0 20-8.962 20-20s-8.962-20-20-20c-5.971 0-11.334 2.622-15 6.777a19.97 19.97 0 0 0-11.954-6.546C592.77 430.503 624.68 405 662.5 405c39.65 0 72.805 28.032 80.711 65.346C748.76 458.339 760.914 450 775 450c12.058 0 22.699 6.11 28.994 15.4m409.546 71.468-.07.102zm.72-1.026-.13.177zm.94-1.405-.26.396zm.28-.422-.19.292zm.62-.978-.26.42.54-.859zm1.14-1.848-.27.454c.18-.302.36-.605.55-.911zm1.11-1.895-.03.054-.51.888zm5.11-10.58.01-.008zl-.43 1.05-.05.123-.45 1.035-.11.26-.15.329-.06.144-.35.768-.25.544-.44.919-.29.606-.28.566-.3.598-.29.576-.31.582-.31.584-.52.963.42-.776.1-.187.1-.183.21-.401.21-.402.1-.18.08-.168.21-.408.22-.427.08-.171.08-.15.2-.416.22-.455.07-.151.07-.138.24-.508.13-.273.1-.213.15-.331.17-.358.18-.41.03-.075.03-.069.03-.058.12-.271.1-.231.01-.029.02-.029.25-.582.18-.424.03-.081.02-.042.03-.066zM860 445c22.077 0 40 17.923 40 40s-17.923 40-40 40-40-17.923-40-40 17.923-40 40-40m82.85 25.153C948.752 455.418 963.169 445 980 445c22.08 0 40 17.923 40 40s-17.92 40-40 40c-16.831 0-31.248-10.418-37.15-25.153a14.95 14.95 0 0 1-7.85-3.67A14.94 14.94 0 0 1 925 500c-8.279 0-15-6.721-15-15s6.721-15 15-15a14.94 14.94 0 0 1 10 3.823 14.95 14.95 0 0 1 7.85-3.67M1265 450c19.32 0 35 15.683 35 35s-15.68 35-35 35-35-15.683-35-35 15.68-35 35-35m-773.339 24.722c4.305-12.906 16.493-22.222 30.839-22.222 17.937 0 32.5 14.563 32.5 32.5s-14.563 32.5-32.5 32.5c-14.346 0-26.534-9.316-30.839-22.222-3.182 4.375-8.342 7.222-14.161 7.222-9.659 0-17.5-7.841-17.5-17.5s7.841-17.5 17.5-17.5c5.819 0 10.979 2.847 14.161 7.222m733.779 38.626c-.12.345-.23.688-.35 1.031l-.36 1.026c.24-.685.48-1.369.71-2.057m.35-1.088.16-.496-.18.557c-.1.331-.21.662-.32.991zM1420 457.5c15.18 0 27.5 12.322 27.5 27.5s-12.32 27.5-27.5 27.5-27.5-12.322-27.5-27.5 12.32-27.5 27.5-27.5m-193.89 53.751-.15.478zm.32-1.11-.01.065-.3.994zM1170 460c13.8 0 25 11.202 25 25s-11.2 25-25 25-25-11.202-25-25 11.2-25 25-25m-740 0c13.798 0 25 11.202 25 25s-11.202 25-25 25-25-11.202-25-25 11.202-25 25-25m796.72 49.132-.13.456zm.16-.575-.14.511c.1-.347.19-.694.28-1.043zm.56-2.156-.13.516c.08-.346.17-.692.25-1.039zM695 471.777c3.666-4.155 9.029-6.777 15-6.777 11.038 0 20 8.962 20 20s-8.962 20-20 20c-5.971 0-11.334-2.622-15-6.777-3.666 4.155-9.029 6.777-15 6.777-11.038 0-20-8.962-20-20s8.962-20 20-20c5.971 0 11.334 2.622 15 6.777m532.94 32.447-.12.523c.08-.345.16-.69.23-1.036zm.22-1.028-.09.412zm.23-1.164-.1.527zm.29-1.607-.08.442zm1.32-15.643c-.12-8.178-6.79-14.782-15-14.782-8.28 0-15 6.721-15 15s6.72 15 15 15c8.21 0 14.88-6.604 15-14.782v.312-1.06zM1095 470c8.28 0 15 6.721 15 15s-6.72 15-15 15-15-6.721-15-15 6.72-15 15-15m-30 0c8.28 0 15 6.721 15 15s-6.72 15-15 15-15-6.721-15-15 6.72-15 15-15m-180 0c8.279 0 15 6.721 15 15s-6.721 15-15 15-15-6.721-15-15 6.721-15 15-15m343.95 28.789-.06.382zm.24-1.696-.05.397zm.16-1.2-.07.516c.05-.345.09-.69.13-1.037zm.29-2.777-.04.472zm.21-2.809-.03.364zm.14-6.938v.382zm-.02-.679.01.527zm-.03-1.066.01.367zm-.03-.574.02.396zm-.05-1.183.02.413zm-.16-2.281.03.392zm-.05-.541.03.368zm-.05-.633.04.472zm-.06-.568.05.521zm-.06-.524.04.381zm-.13-1.213.06.521c-.04-.346-.08-.692-.13-1.037zm-.14-1.04.05.379zm-.07-.557.05.397zm-.25-1.681.06.382zm-.5-2.838.09.485zm-.32-1.599.09.412zm-.13-.616.11.513c-.07-.347-.15-.692-.23-1.036zm-.36-1.585.1.44zm-.14-.592.12.523c-.08-.347-.17-.692-.25-1.039zm-.41-1.602.12.481zm-.16-.577-.13-.488.28 1.043zm-.28-1.008.13.456zm-.32-1.124.02.069c.1.329.19.659.29.99zm-.31-1.017.15.478zm-.35-1.092.02.056c.11.332.21.666.32 1.001zm-.88-2.584.36 1.026c.12.343.23.686.35 1.031-.23-.689-.47-1.375-.71-2.057m-5.5-12.3-.36-.656.2.364zl.2.372.08.159.15.271.56 1.087.06.113.04.078.18.367.19.372.05.112.06.115.12.257.31.63.16.331.1.204.1.233.12.244.16.364.14.297.08.181.09.199.16.354.16.355.08.201.08.189.16.354.14.34.08.18.08.188.13.337.16.381.15.364.02.051.01.032.05.12.12.316.24.604.13.351-.37-.955-.17-.436-.03-.083-.31-.745-.21-.525-.22-.52-.24-.543-.24-.556-.25-.553-.22-.478-.28-.608-.2-.437-.47-.961-.18-.372-.24-.484-.22-.445-.77-1.471zm-1.17-2.091.03.045.51.912zm-.82-1.393.28.457c-.18-.305-.37-.609-.55-.911zm-.54-.886.25.394zm-.28-.455.23.371zm-.32-.507.28.439-.54-.859zm-1.7-2.595.14.205zm-1.2-1.706.07.088z" style="fill:#57afdb" transform="translate(-15.198 53.72)scale(.15315)"/><circle cx="1928" cy="1439" r="9" style="fill:none;stroke:#57afdb;stroke-width:8px" transform="translate(-1800 -1200)"/></g></svg>