<svg xmlns="http://www.w3.org/2000/svg" xml:space="preserve" style="fill-rule:evenodd;clip-rule:evenodd;stroke-linecap:round;stroke-miterlimit:1.5" viewBox="0 0 256 256"><path d="M0 0h256v256H0z" style="fill:none"/><g><circle cx="128" cy="128" r="128"/><path d="M128 0c70.645 0 128 57.355 128 128s-57.355 128-128 128S0 198.645 0 128 57.355 0 128 0m0 8C61.77 8 8 61.77 8 128s53.77 120 120 120 120-53.77 120-120S194.23 8 128 8" style="fill:#d1ad94"/><path d="m229.455 440.288 1.331 4.214.777 3.55-1.109 3.993-4.326 4.214-5.213 3.328-4.104 2.551 14.863.111 26.287-1.109 9.427-1.331 8.652-2.44 7.542-3.55 4.88-3.549-24.401-.222-10.981-1.22-8.984-2.218-7.542-2.773zm-35.049-36.602.887 10.204-.221 7.32-.222 7.986-1.553 9.982-9.095 1.997-15.528 1.775-23.071.665 5.99 3.993 6.211 2.662 6.433 2.218 6.877 1.331 7.986 1.109 12.866.666 8.43-.222 11.313-2.44 3.993-1.553 4.437-1.996-2.662-9.983-3.993-9.317-9.761-15.528-5.546-6.877zm331.676-161.55c0-108.353-87.838-196.191-196.191-196.191S133.7 133.783 133.7 242.136s87.838 196.191 196.191 196.191 196.191-87.838 196.191-196.191M168.596 387.391l-4.392 15.999-5.334 10.98-15.058.314-14.117-.941-13.804-1.569-11.607-.941 7.215 6.588 10.98 6.431 9.726 3.765 8.313 2.51 10.823 1.411 12.863.628 16.627-.628-.942-16.156-1.882-9.882-3.137-8.47zM443.799 93.34c-31.559-24.199-71.054-38.585-113.908-38.585-44.913 0-86.136 15.802-118.405 42.144l4.981 1.958 4.01-1.216 4.227-3.337 3.783-3.115 4.894-3.782 5.118-2.448 6.989-.168 14.37.391 2.67-3.115 2.447-4.45 17.8-2.003 3.782 1.78 2.892 3.115 9.123-1.112 9.122-1.335 7.591.173 5.536-1.731 7.342 1.335 1.112 1.78-1.557 2.67-2.892 4.005-4.228 3.337-3.115 3.783-2.892 4.45-3.115 4.004-2.892 2.448-3.115 1.557-2.003 1.78-3.115 2.893-2.002 3.56-2.67 3.114-3.337 2.448-4.228 1.335-2.002-3.115-1.557-5.785-.445-6.452 1.112-6.23.89-4.672-2.447-4.228-4.895-4.894-4.005-1.558-2.448 1.78-2.892 3.115-1.335 4.227 3.56 1.78 1.78 1.113.222 2.447 4.228 3.56.89 3.115-1.558 2.892-2.892 2.448-2.789 2.485-2.551 1.742-4.672 1.557-.223 3.115 4.673 2.67 3.782 4.228.89 4.672.89 6.23-.776 4.894 1.443 5.118v4.005l-2.447 2.002-3.56 1.335-6.007.261-4.634 1.649-4.488 3.207-3.783 2.225-2.566 1.466-1.884 2.984-1.074 5.562-1.649 4.358-2.421 3.69-3.272 2.356-2.447 3.391-.484 10.902-.445 3.337-2.225 2.893-2.224.667-1.78-1.335-.89-1.78 1.335-2.892.667-3.115v-2.892l-2.67-2.225-4.005-.223-3.115 1.78-2.593 1.281-1.634 4.059-.667 3.115-2.003 2.67-.445 2.002-.667 4.228 1.112 3.559 1.113 2.893 1.78 2.002 1.78-3.782 2.669-1.335 2.383-.993 2.735-.342 1.112 2.67-1.557 2.447-3.338 2.225.668 1.78 2.67 2.448 1.78 3.114.667 2.67 1.335 4.005 2.003 2.893 3.114 2.67 4.895-2.448 5.34-.89 5.117 1.558 5.563 3.559 4.933 5.97 5.301 5.155 3.56 2.67 2.448 5.34 2.642 3.011 7.592 4.776 5.562 3.56 2.198 2.854 2.475 3.598-4.005 4.45-1.112 4.005-1.324 6.74.656 7.054-.667 7.342-.852 5.34-3.376 3.115-5.106 1.949-1.124 4.948-.89 13.127-1.779 3.783-2.448 4.672-2.225 3.338-2.447 5.339-1.113 3.783-.222 4.005s-.668 3.337-.89 4.227c-.223.89-2.018 4.292-2.018 4.292l.238 3.495-1.113 4.672 2.893 5.785 1.78 2.225-.434 2.866-2.904 2.55-2.447-1.189-2.144-3.234-3.418-2.328-2.225-6.23-.967-6.164-1.481-5.183-1.557-10.902-1.113-9.789-1.557-4.45-.667-10.68.222-9.122v-8.9l-1.112-8.009-4.228-7.343-3.337-6.674-3.782-6.008-2.893-6.229-1.78-5.118 1.558-10.012 2.002-6.452 1.335-6.897.223-5.118-4.895-3.56-3.56-3.114-2.448-3.56-1.78-4.228-4.004-3.56-4.45-3.559-4.228-2.003-4.227-3.56-6.452-7.787-3.115-6.675-2.892-6.674-1.83-7.304-2.344-5.601-.825-7.565.76-8.14 1.492-7.38 2.133-5.747 3.061-6.989.879-5.183-.212-10.837-.89-6.674-1.779-2.893-.535-1.248C159.886 152 142.51 195.039 142.51 242.136c0 64.452 32.541 121.304 82.08 155.016l.335-.336h3.147l2.832 1.259 2.831 1.611 3.462.277 4.405.26 4.405-3.092 4.09-.315 5.349 1.573 3.462 1.259 3.442 2.908 3.165.998 4.574-2.256 1.719-3.538 5.979-3.776 5.349-2.832 3.775-.629 1.574 3.147-1.574 2.517-2.037 1.573 1.094 5.664 4.7 2.87 4.424 2.164 7.533 3.185 5.368.276 5.978-.629 5.035-2.517 4.405-2.832 4.72-3.22 4.719-3.016 5.664-1.001 6.293.629h5.035l2.831-.944 3.147-.314h3.461l3.185 2.463 3.108.369 3.147-.315 4.09-2.479 2.517-1.297 3.147-.944h4.405l5.664-.314 4.719-.944 2.518-.63 3.146 2.832 3.461 3.147 2.591 2.536 4.684 1.297 4.682-.057 7.552.943h1.279a188.3 188.3 0 0 0 46.829-38.125l-.337-3.706v-12.682l1.223-5.339s-.667-3.004-.667-3.894-2.114-1.446-2.114-1.446h-2.447l-2.448 1.557-2.892.223-2.892-2.448v-2.892l1.335-2.225 1.78-1.78.89-3.337-.223-3.56 1.112-5.118 1.335-1.557 3.115-3.337 4.45-3.338 5.117-4.005 2.225-2.002v-2.447l1.78-1.669 1.892-1.224 2.558-2.113 2.114-1.669 1.891-1.78 3.337-.445-.445 2.225-.89 2.225-1.112 2.892-.223 1.78 2.448 1.224 1.78-1.891 1.112-2.337 1.113-2.113.667-3.338 2.225-.667 2.448.445.222 3.115-.445 3.782-1.335 2.893-1.557 2.892v1.557l-1.558 4.228v6.229l1.335 3.783h.93c11.803-24.539 18.418-52.053 18.418-81.112 0-44.603-15.584-85.567-41.605-117.743l-3.112 1.037-2.202 1.573v2.36l.787.944 1.258 2.045 1.416 2.36 2.203 2.674 1.73 2.518 2.045 2.202-.233 3.749 1.649 4.118-1.416 3.775-2.202 4.563-1.101 3.146-.63 1.259.315 2.202 1.416 3.462.787 2.989.146 2.87.168 2.007-1.73 1.416-2.203 1.416-2.045-2.36-2.36-3.933-.157-1.574.065-3.537-1.639-1.812h-2.36l-1.519 2.333.158 2.387 1.519 2.989.786 7.395.787 1.573.629 2.36.787 2.674 2.203 2.518.472 6.45-.787 3.146.315 1.416-1.416 2.675-2.518 1.258-.472 2.203-2.517 2.517-5.821.158-4.09.314.157 2.203.944 2.517 1.416 2.517 1.888 1.731-.157 3.461 1.258 2.045.944 4.563-.955 5.663-.304 3.776-3.618-.157-1.731-1.416-3.618-1.888-1.888-1.573-2.989-.472s-1.573-.787-1.573-1.416c0-.63 0-1.416.314-2.203.315-.786.944-1.73.944-1.73v-1.888l-2.674-1.574-2.36-1.887-1.102-2.36-2.517-1.731-1.416-2.202-1.73-2.99s1.258-4.562 1.416-5.191c.157-.63-1.731-2.832-1.731-2.832l-2.202 1.101-2.046 3.304-2.045 2.045v3.776l.315 2.045.472 2.989v2.36l-2.383 4.275.18 2.805-1.258 2.202-.63 3.304-1.888 2.517-3.618 2.518s-.472-1.574-1.259-1.888c-.786-.315-2.517-2.045-2.517-2.045l-.315-2.99v-3.146l-.472-2.517-1.101-2.046-1.101-2.989-2.203-2.202.472-1.731 1.416-1.573-.157-1.101-1.101-3.462-1.888-2.359-1.416-1.416s-1.259-3.619-1.573-4.406-1.888-1.73-1.888-1.73l-3.147-3.304-2.832-.157-2.517-.472v5.506l-.629 3.933v4.091l-.63 1.573-1.573 3.461-2.674 1.573-3.619 2.99-1.416 2.045-2.36 2.989s-5.034 1.888-5.663 1.888-.63 3.461-.63 3.461l2.675 1.101 3.618.944 2.832-1.73 2.36-.944v2.832l-2.832 11.327s-1.101 5.192-1.416 5.978c-.314.787-.786 2.36-.786 2.36l-3.461 2.675-1.888 1.888-1.731 2.36-1.259 3.775-.472 27.06-.472 4.72-1.101 3.147-3.776 5.191-2.202 3.776-1.991 3.304.732 5.664-1.02 4.248-.656 4.877-1.075 1.258-.867 2.046-2.203 1.573-.314 3.618-.787 3.304-2.517 2.989-3.619.315-4.877.944s-3.461-.787-4.09-.944c-.63-.157-2.832-.787-2.832-.787l-1.573-2.989.472-3.933.472-2.203v-3.775l-.944-2.36v-3.776l-1.259-2.203-.944-3.618-1.259-2.675-1.101-6.765-.472-6.135.157-6.608.944-3.147-.314-6.607-.158-8.81-.944-3.619s-1.887-3.618-2.202-4.248c-.315-.629-.472-3.461-.472-3.461l-.629-3.461-1.574-4.72-1.888-6.293-1.415-3.618-3.147.157-2.832 1.416-3.304 1.259h-3.775l-3.462-1.731-3.775-3.304-2.36-2.989-1.731-2.989-1.101-8.181-1.259-19.666.315-9.282 1.416-3.618 2.045-3.776 1.731-3.933 2.045-4.406 2.674-5.349 3.619-2.045 1.258-3.304-1.73-1.888-2.517-1.416-1.259-2.359s.157-3.147.157-3.776c0-.63-1.101-2.517-1.101-2.517l-.472-2.518.629-3.461 2.518-.314 2.36.629 4.09.157s2.36-.786 2.36-1.416 1.101-2.832 1.101-2.832l-.314-1.73-1.574-2.045s-2.517-.472-2.989-1.259 1.259-1.259 1.259-1.259l1.73-1.888 2.517-2.202 1.102-.944 1.888-2.203 1.258-1.73 3.001-.96 1.247-3.288 4.562.315 4.563-.158 3.618-2.989 2.99-3.461-.472-7.08-3.462 2.203-.472 2.832-2.202 3.618-2.989 1.259-2.517-3.147-.63-3.303-2.832-1.259-1.573-1.573 4.248-7.552 2.989-3.933 3.933-3.147 3.619-2.517 4.378-2.495 6.005-1.281 4.248.944 3.304 2.675 3.146 2.517 3.461 2.045 4.72-2.045-.157-2.989-.944-2.989-2.36-3.933.787-3.462 2.674-2.989 4.877-2.832h2.99v3.304s-1.259 3.147-1.888 3.147c-.63 0-.472 2.517-.472 2.517l.157 2.832 2.674 1.258 4.406.158 2.202-1.574 3.776-2.359 2.045-2.046 4.091-1.73 3.775-1.888 2.518-1.888-.158-2.36-4.09-2.36-.315-2.989 2.989-.629 4.878.314 2.674.787 6.922 2.832 7.08 5.506 3.776 2.675 3.933 2.045 3.776.787 6.45-.158zM140.971 351.594l-11.107 26.73s-12.662 1.439-22.848 1.858c-13.429.553-32.511-6.153-32.511-6.153s20.417 21.385 38.021 25.46c17.689 6.363 25.358 3.263 25.358 3.263s9.749.654 9.441-2.246c3.326-12.903.548-28.207.548-28.207zm-18.9 15.24s3.985-10.588 4.508-22.803c.229-14.346-6.177-33.717-6.177-33.717s-3.724 22.758-10.363 28.866c-7.682.148-20.268-1.292-20.268-1.292s-7.815-1.312-17.548-6.93c-13.295-6.649-35.489-27.801-35.489-27.801s17.968 42.242 37.456 51.022c10.14 8.775 47.881 12.655 47.881 12.655m251.48-67.393 2.225-1.668 1.78-2.559.668-2.448 2.002-3.114h3.115l2.225 1.335 1.335 2.002-.779 7.565-.556 3.003-1.669 2.336-1.446 3.56-1.335 3.338-1.112 3.115-.668 1.668-.779 2.003-2.67 3.56-2.113 3.226.222-8.677-.445-4.005zm-277.767 21.3s3.212-8.758 8.075-21.921c3.593-13.535 3.815-28.456 3.815-28.456L87.799 294.36s-23.345-8.01-32.552-18.317c-14.291-14.496-27.646-37.902-27.646-37.902s6.488 48.04 25.4 65.325c19.384 14.582 42.783 17.275 42.783 17.275M478.79 266.29l2.225 2.002 2.447.89 3.226 2.225 2.781 1.78 1.78 2.67 1.558 3.115.89 2.67 2.447 2.225 1.446-1.224.557-3.226 4.005 1.224 1.779 1.891 1.558 1.224-.223-2.559-1.335-4.227-3.226-5.118-2.781-1.557-4.005-2.893-3.782-1.112-3.56-.89-5.006-.445zm-21.359 6.675-1.113-20.692-1.557-4.227-.668-2.003-1.557-2.002-.89-2.003-3.115-.89-2.447.223-.668 2.447-1.112 2.225v7.342l1.78 1.558 2.225 1.78s.222 1.112.222 2.225v6.229l1.335 4.228 2.002 2.225 1.78 3.56 1.78 1.112 3.56.89 3.115 2.447 2.225 1.558 3.337.445 4.005-1.335v-3.115l-4.895-1.557-3.782-1.558-2.002-.222zm-376.073.771s10.167-13.836 14.044-23.531c5.095-13.78 5.293-23.451 5.293-23.451s-3.345 8.252-10.118 12.452c-3.59 5.389-11.666 7.21-11.666 7.21s-.697 2.072-12.408-8.97c-16.474-15.54-33.422-49.314-33.422-49.314s-2.37 41.501 13.631 60.976c18.156 18.571 34.646 24.628 34.646 24.628m389.422-33.478-.222 3.338-.89 3.782-1.558 2.448-1.78 2.669-1.78 3.115-2.002 2.67-2.225 2.67-1.78 2.448 1.335 1.334 1.78 1.558.89 2.447.89 2.225 4.227-.222 2.67-1.113.89-1.78v-4.672l2.225-1.557 2.447-1.335 1.78-2.225-2.669-1.113-1.113-2.002v-9.567l-1.335-2.225zm2.67-25.141v4.227l1.113 1.558v3.337l-1.113 1.78v4.895l-1.335 2.225 1.558 2.002 1.335 2.67 2.002 1.335 1.557.89.668 1.335.445 3.56.89 2.002h2.002l.668-1.78.667-2.892v-2.225l-1.335-2.225-.222-2.447-.89-1.335v-2.67l-2.448-2.448-3.115-4.45-.667-6.897zm-393.326 9.634s16.476-13.477 20.956-24.523c4.743-11.686 6.291-17.216 6.291-17.216l-.297.518s-15.607 11.075-26.317 9.124c-12.084-15.994-25.331-49.837-25.331-49.837s-10.256 28.528.709 49.964c10.793 21.097 23.989 31.656 23.989 31.656zm242.699-52.575-.89-2.225 1.335-3.56 1.335-2.67.668-3.337 3.559-.445 2.893 1.001 1.335 1.446 1.557 2.003 3.115 3.337v3.337l2.225.89c2.528-4.952 1.632-2.373 2.447-3.559l1.335 2.224.223 3.338 2.002 1.335 1.78-.668.334-2.558 2.114-.89 2.67 1.891 3.114 2.67 4.005-.223 1.78 2.225v2.893l-3.56 5.117h-4.227l-7.12.334-6.007-1.335-1.78-3.671-1.335-2.893-2.67-3.337-3.782-2.448-3.115-.222zM486.8 153.709l-1.558 2.003.223 4.004.222 3.56.668 2.448.445 2.67.445 3.782-1.78 3.337-2.893 2.448-2.002.667-1.335.89-.445 1.335 2.225 2.67 1.557 1.557 2.003-1.557.222-1.335 3.338-.667 3.114.89 1.78-3.115 1.558-3.56.445-2.893-1.335-2.892-1.558-2.892-.445-3.115-1.112-3.338-.223-2.67-1.334-3.114zM88.747 176.83s6.286-4.719 15.75-12.816c8.508-7.277 14.956-20.544 14.956-20.544s-5.187 3.494-11.378 5.902c-5.66 2.199-12.363 2.389-12.363 2.389s3.933 9.275-.203-.381c-6.281-14.657-6.817-49.142-6.817-49.142s-10.117 15.866-11.552 37.911c-.893 25.758 11.607 36.681 11.607 36.681m227.27-52.344 1.888 2.832v2.36l1.887 1.887.472 2.203s1.102 1.101 1.102 1.731v1.887l-1.416 1.102-1.573.786-2.046.63-3.461-.472-2.989-.472s-1.731 0-1.731-.787-.472-2.202-.472-2.202l1.416-.944 2.046-2.046 2.674-.944.629-2.831-.472-1.731.944-1.888zm-186.425-.424c10.518-4.654 15.014-10.104 15.963-11.378-.455.107-.681.16-1.081.252-4.236.977-18.905-.464-25.244-1.156-1.328-14.433 8.801-49.235 8.801-49.235s-20.633 23.484-23.898 43.862c-2.97 18.542.84 26.55.84 26.55s14.823-1.113 24.619-8.895m133.381-21.526-1.78.667-2.225 2.003-2.225 3.56-.667 1.78-3.56 1.335-4.45 3.559-6.007 4.673-2.003 2.447v4.005l4.672 3.56 4.45 1.112 2.225-4.004 2.225-4.45 1.78-5.785 2.448-4.45 3.782-1.335 2.002-3.56.668-4.895zM165.525 88.92c14.851-5.102 20.251-11.759 20.251-11.759s-10.273-.052-16.358-1.004c-4.082-.638-6.458-1.306-6.588-1.343.02-.209.099-1.388.412-6.91.53-9.427 10.658-24.591 10.658-24.591s-15.467 4.644-25.997 17.257c-3.657 4.381-8.197 13.635-10.906 18.043-6.006 14.831-5.317 18.564-5.317 18.564s21.031-1.161 33.845-8.257m-2.695-14.106-.006-.002s-.002.092.006.002m62.949-23.901c17.876-14.661 22.578-22.788 22.578-22.788s-19.082 2.243-27.791 7.031c-10.84 5.961-15.545 6.571-15.545 6.571l2.26-10.992s-19.837 10.077-26.693 21.341c-6.994 11.486-6.024 14.437-6.024 14.437s36.406-3.459 51.215-15.6" style="fill:#d1ad94" transform="translate(31.14 49.301)scale(.32098)"/><circle cx="1928" cy="1439" r="9" style="fill:none;stroke:#d1ad94;stroke-width:8px" transform="translate(-1800 -1200)"/></g></svg>