<svg xmlns="http://www.w3.org/2000/svg" xml:space="preserve" style="fill-rule:evenodd;clip-rule:evenodd;stroke-linejoin:round;stroke-miterlimit:2" viewBox="0 0 256 256"><path d="M0 0h256v256H0z" style="fill:none"/><g><circle cx="128" cy="128" r="128"/><path d="M128 0c70.645 0 128 57.355 128 128s-57.355 128-128 128S0 198.645 0 128 57.355 0 128 0m0 8C61.77 8 8 61.77 8 128s53.77 120 120 120 120-53.77 120-120S194.23 8 128 8" style="fill:#666"/><path d="M930.959 28.599c1.99-.087 8.51 14.273 8.481 13.668-.605-12.461-10.558-37.035-11.898-37.034-1.341.001-11.293 24.919-12.072 37.121-.034.525 10.455-13.536 15.489-13.755" style="fill:#b8d3e0" transform="translate(-3868 21.453)scale(4.30856)"/></g></svg>