<?xml version="1.0" encoding="UTF-8" standalone="no"?>
<!DOCTYPE svg PUBLIC "-//W3C//DTD SVG 1.1//EN" "http://www.w3.org/Graphics/SVG/1.1/DTD/svg11.dtd">
<svg width="100%" height="100%" viewBox="0 0 256 256" version="1.1" xmlns="http://www.w3.org/2000/svg" xmlns:xlink="http://www.w3.org/1999/xlink" xml:space="preserve" xmlns:serif="http://www.serif.com/" style="fill-rule:evenodd;clip-rule:evenodd;stroke-linejoin:round;stroke-miterlimit:2;">
    <g transform="matrix(1,0,0,1,-5400,-600)">
        <g transform="matrix(1,0,0,1,5400,600)">
            <rect id="neutral-human-token" x="0" y="0" width="256" height="256" style="fill:none;"/>
            <g id="neutral-human-token1" serif:id="neutral-human-token">
                <circle cx="128" cy="128" r="128"/>
                <path d="M128,0C198.645,0 256,57.355 256,128C256,198.645 198.645,256 128,256C57.355,256 0,198.645 0,128C0,57.355 57.355,0 128,0ZM128,8C61.77,8 8,61.77 8,128C8,194.23 61.77,248 128,248C194.23,248 248,194.23 248,128C248,61.77 194.23,8 128,8Z" style="fill:rgb(102,102,102);"/>
                <g transform="matrix(0.320975,0,0,0.320975,31.1409,49.3012)">
                    <g id="Human">
                        <path id="Human1" serif:id="Human" d="M229.455,440.288L230.786,444.502L231.563,448.052L230.454,452.045L226.128,456.259L220.915,459.587L216.811,462.138L231.674,462.249L257.961,461.14L267.388,459.809L276.04,457.369L283.582,453.819L288.462,450.27L264.061,450.048L253.08,448.828L244.096,446.61L236.554,443.837L229.455,440.288ZM194.406,403.686L195.293,413.89L195.072,421.21L194.85,429.196L193.297,439.178L184.202,441.175L168.674,442.95L145.603,443.615L151.593,447.608L157.804,450.27L164.237,452.488L171.114,453.819L179.1,454.928L191.966,455.594L200.396,455.372L211.709,452.932L215.702,451.379L220.139,449.383L217.477,439.4L213.484,430.083L203.723,414.555L198.177,407.678L194.406,403.686ZM526.082,242.136C526.082,133.783 438.244,45.945 329.891,45.945C221.538,45.945 133.7,133.783 133.7,242.136C133.7,350.489 221.538,438.327 329.891,438.327C438.244,438.327 526.082,350.489 526.082,242.136ZM168.596,387.391L164.204,403.39L158.87,414.37L143.812,414.684L129.695,413.743L115.891,412.174L104.284,411.233L111.499,417.821L122.479,424.252L132.205,428.017L140.518,430.527L151.341,431.938L164.204,432.566L180.831,431.938L179.889,415.782L178.007,405.9L174.87,397.43L168.596,387.391ZM443.799,93.34C412.24,69.141 372.745,54.755 329.891,54.755C284.978,54.755 243.755,70.557 211.486,96.899L216.467,98.857L220.477,97.641L224.704,94.304L228.487,91.189L233.381,87.407L238.499,84.959L245.488,84.791L259.858,85.182L262.528,82.067L264.975,77.617L282.775,75.614L286.557,77.394L289.449,80.509L298.572,79.397L307.694,78.062L315.285,78.235L320.821,76.504L328.163,77.839L329.275,79.619L327.718,82.289L324.826,86.294L320.598,89.631L317.483,93.414L314.591,97.864L311.476,101.868L308.584,104.316L305.469,105.873L303.466,107.653L300.351,110.546L298.349,114.106L295.679,117.22L292.342,119.668L288.114,121.003L286.112,117.888L284.555,112.103L284.11,105.651L285.222,99.421L286.112,94.749L283.665,90.521L278.77,85.627L274.765,84.069L272.317,85.849L269.425,88.964L268.09,93.191L271.65,94.971L273.43,96.084L273.652,98.531L277.88,102.091L278.77,105.206L277.212,108.098L274.32,110.546L271.531,113.031L268.98,114.773L264.308,116.33L264.085,119.445L268.758,122.115L272.54,126.343L273.43,131.015L274.32,137.245L273.544,142.139L274.987,147.257L274.987,151.262L272.54,153.264L268.98,154.599L262.973,154.86L258.339,156.509L253.851,159.716L250.068,161.941L247.502,163.407L245.618,166.391L244.544,171.953L242.895,176.311L240.474,180.001L237.202,182.357L234.755,185.748L234.271,196.65L233.826,199.987L231.601,202.88L229.377,203.547L227.597,202.212L226.707,200.432L228.042,197.54L228.709,194.425L228.709,191.533L226.039,189.308L222.034,189.085L218.919,190.865L216.326,192.146L214.692,196.205L214.025,199.32L212.022,201.99L211.577,203.992L210.91,208.22L212.022,211.779L213.135,214.672L214.915,216.674L216.695,212.892L219.364,211.557L221.747,210.564L224.482,210.222L225.594,212.892L224.037,215.339L220.699,217.564L221.367,219.344L224.037,221.792L225.817,224.906L226.484,227.576L227.819,231.581L229.822,234.474L232.936,237.144L237.831,234.696L243.171,233.806L248.288,235.364L253.851,238.923L258.784,244.893L264.085,250.048L267.645,252.718L270.093,258.058L272.735,261.069L280.327,265.845L285.889,269.405L288.087,272.259L290.562,275.857L286.557,280.307L285.445,284.312L284.121,291.052L284.777,298.106L284.11,305.448L283.258,310.788L279.882,313.903L274.776,315.852L273.652,320.8L272.762,333.927L270.983,337.71L268.535,342.382L266.31,345.72L263.863,351.059L262.75,354.842L262.528,358.847C262.528,358.847 261.86,362.184 261.638,363.074C261.415,363.964 259.62,367.366 259.62,367.366L259.858,370.861L258.745,375.533L261.638,381.318L263.418,383.543L262.984,386.409L260.08,388.959L257.633,387.77L255.489,384.536L252.071,382.208L249.846,375.978L248.879,369.814L247.398,364.631L245.841,353.729L244.728,343.94L243.171,339.49L242.504,328.81L242.726,319.688L242.726,310.788L241.614,302.779L237.386,295.436L234.049,288.762L230.267,282.754L227.374,276.525L225.594,271.407L227.152,261.395L229.154,254.943L230.489,248.046L230.712,242.928L225.817,239.368L222.257,236.254L219.809,232.694L218.029,228.466L214.025,224.906L209.575,221.347L205.347,219.344L201.12,215.784L194.668,207.997L191.553,201.322L188.661,194.648L186.831,187.344L184.487,181.743L183.662,174.178L184.422,166.038L185.914,158.658L188.047,152.911L191.108,145.922L191.987,140.739L191.775,129.902L190.885,123.228L189.106,120.335L188.571,119.087C159.886,152 142.51,195.039 142.51,242.136C142.51,306.588 175.051,363.44 224.59,397.152L224.925,396.816L228.072,396.816L230.904,398.075L233.735,399.686L237.197,399.963L241.602,400.223L246.007,397.131L250.097,396.816L255.446,398.389L258.908,399.648L262.35,402.556L265.515,403.554L270.089,401.298L271.808,397.76L277.787,393.984L283.136,391.152L286.911,390.523L288.485,393.67L286.911,396.187L284.874,397.76L285.968,403.424L290.668,406.294L295.092,408.458L302.625,411.643L307.993,411.919L313.971,411.29L319.006,408.773L323.411,405.941L328.131,402.721L332.85,399.705L338.514,398.704L344.807,399.333L349.842,399.333L352.673,398.389L355.82,398.075L359.281,398.075L362.466,400.538L365.574,400.907L368.721,400.592L372.811,398.113L375.328,396.816L378.475,395.872L382.88,395.872L388.544,395.558L393.263,394.614L395.781,393.984L398.927,396.816L402.388,399.963L404.979,402.499L409.663,403.796L414.345,403.739L421.897,404.682L423.176,404.682C440.788,394.552 456.599,381.643 470.005,366.557L469.668,362.851L469.668,350.169L470.891,344.83C470.891,344.83 470.224,341.826 470.224,340.936C470.224,340.046 468.11,339.49 468.11,339.49L465.663,339.49L463.215,341.047L460.323,341.27L457.431,338.822L457.431,335.93L458.766,333.705L460.546,331.925L461.436,328.588L461.213,325.028L462.325,319.91L463.66,318.353L466.775,315.016L471.225,311.678L476.342,307.673L478.567,305.671L478.567,303.224L480.347,301.555L482.239,300.331L484.797,298.218L486.911,296.549L488.802,294.769L492.139,294.324L491.694,296.549L490.804,298.774L489.692,301.666L489.469,303.446L491.917,304.67L493.697,302.779L494.809,300.442L495.922,298.329L496.589,294.991L498.814,294.324L501.262,294.769L501.484,297.884L501.039,301.666L499.704,304.559L498.147,307.451L498.147,309.008L496.589,313.236L496.589,319.465L497.924,323.248L498.854,323.248C510.657,298.709 517.272,271.195 517.272,242.136C517.272,197.533 501.688,156.569 475.667,124.393L472.555,125.43L470.353,127.003L470.353,129.363L471.14,130.307L472.398,132.352L473.814,134.712L476.017,137.386L477.747,139.904L479.792,142.106L479.559,145.855L481.208,149.973L479.792,153.748L477.59,158.311L476.489,161.457L475.859,162.716L476.174,164.918L477.59,168.38L478.377,171.369L478.523,174.239L478.691,176.246L476.961,177.662L474.758,179.078L472.713,176.718L470.353,172.785L470.196,171.211L470.261,167.674L468.622,165.862L466.262,165.862L464.743,168.195L464.901,170.582L466.42,173.571L467.206,180.966L467.993,182.539L468.622,184.899L469.409,187.573L471.612,190.091L472.084,196.541L471.297,199.687L471.612,201.103L470.196,203.778L467.678,205.036L467.206,207.239L464.689,209.756L458.868,209.914L454.778,210.228L454.935,212.431L455.879,214.948L457.295,217.465L459.183,219.196L459.026,222.657L460.284,224.702L461.228,229.265L460.273,234.928L459.969,238.704L456.351,238.547L454.62,237.131L451.002,235.243L449.114,233.67L446.125,233.198C446.125,233.198 444.552,232.411 444.552,231.782C444.552,231.152 444.552,230.366 444.866,229.579C445.181,228.793 445.81,227.849 445.81,227.849L445.81,225.961L443.136,224.387L440.776,222.5L439.674,220.14L437.157,218.409L435.741,216.207L434.011,213.217C434.011,213.217 435.269,208.655 435.427,208.026C435.584,207.396 433.696,205.194 433.696,205.194L431.494,206.295L429.448,209.599L427.403,211.644L427.403,215.42L427.718,217.465L428.19,220.454L428.19,222.814L425.807,227.089L425.987,229.894L424.729,232.096L424.099,235.4L422.211,237.917L418.593,240.435C418.593,240.435 418.121,238.861 417.334,238.547C416.548,238.232 414.817,236.502 414.817,236.502L414.502,233.512L414.502,230.366L414.03,227.849L412.929,225.803L411.828,222.814L409.625,220.612L410.097,218.881L411.513,217.308L411.356,216.207L410.255,212.745L408.367,210.386L406.951,208.97C406.951,208.97 405.692,205.351 405.378,204.564C405.063,203.778 403.49,202.834 403.49,202.834L400.343,199.53L397.511,199.373L394.994,198.901L394.994,204.407L394.365,208.34L394.365,212.431L393.735,214.004L392.162,217.465L389.488,219.038L385.869,222.028L384.453,224.073L382.093,227.062C382.093,227.062 377.059,228.95 376.43,228.95C375.8,228.95 375.8,232.411 375.8,232.411L378.475,233.512L382.093,234.456L384.925,232.726L387.285,231.782L387.285,234.614L384.453,245.941C384.453,245.941 383.352,251.133 383.037,251.919C382.723,252.706 382.251,254.279 382.251,254.279L378.79,256.954L376.902,258.842L375.171,261.202L373.912,264.977L373.44,292.037L372.968,296.757L371.867,299.904L368.091,305.095L365.889,308.871L363.898,312.175L364.63,317.839L363.61,322.087L362.954,326.964L361.879,328.222L361.012,330.268L358.809,331.841L358.495,335.459L357.708,338.763L355.191,341.752L351.572,342.067L346.695,343.011C346.695,343.011 343.234,342.224 342.605,342.067C341.975,341.91 339.773,341.28 339.773,341.28L338.2,338.291L338.672,334.358L339.144,332.155L339.144,328.38L338.2,326.02L338.2,322.244L336.941,320.041L335.997,316.423L334.738,313.748L333.637,306.983L333.165,300.848L333.322,294.24L334.266,291.093L333.952,284.486L333.794,275.676L332.85,272.057C332.85,272.057 330.963,268.439 330.648,267.809C330.333,267.18 330.176,264.348 330.176,264.348L329.547,260.887L327.973,256.167L326.085,249.874L324.67,246.256L321.523,246.413L318.691,247.829L315.387,249.088L311.612,249.088L308.15,247.357L304.375,244.053L302.015,241.064L300.284,238.075L299.183,229.894L297.924,210.228L298.239,200.946L299.655,197.328L301.7,193.552L303.431,189.619L305.476,185.213L308.15,179.864L311.769,177.819L313.027,174.515L311.297,172.627L308.78,171.211L307.521,168.852C307.521,168.852 307.678,165.705 307.678,165.076C307.678,164.446 306.577,162.559 306.577,162.559L306.105,160.041L306.734,156.58L309.252,156.266L311.612,156.895L315.702,157.052C315.702,157.052 318.062,156.266 318.062,155.636C318.062,155.007 319.163,152.804 319.163,152.804L318.849,151.074L317.275,149.029C317.275,149.029 314.758,148.557 314.286,147.77C313.814,146.983 315.545,146.511 315.545,146.511L317.275,144.623L319.792,142.421L320.894,141.477L322.782,139.274L324.04,137.544L327.041,136.584L328.288,133.296L332.85,133.611L337.413,133.453L341.031,130.464L344.021,127.003L343.549,119.923L340.087,122.126L339.615,124.958L337.413,128.576L334.424,129.835L331.907,126.688L331.277,123.385L328.445,122.126L326.872,120.553L331.12,113.001L334.109,109.068L338.042,105.921L341.661,103.404L346.039,100.909L352.044,99.628L356.292,100.572L359.596,103.247L362.742,105.764L366.203,107.809L370.923,105.764L370.766,102.775L369.822,99.786L367.462,95.853L368.249,92.391L370.923,89.402L375.8,86.57L378.79,86.57L378.79,89.874C378.79,89.874 377.531,93.021 376.902,93.021C376.272,93.021 376.43,95.538 376.43,95.538L376.587,98.37L379.261,99.628L383.667,99.786L385.869,98.212L389.645,95.853L391.69,93.807L395.781,92.077L399.556,90.189L402.074,88.301L401.916,85.941L397.826,83.581L397.511,80.592L400.5,79.963L405.378,80.277L408.052,81.064L414.974,83.896L422.054,89.402L425.83,92.077L429.763,94.122L433.539,94.909L439.989,94.751L443.799,93.34ZM140.971,351.594L129.864,378.324C129.864,378.324 117.202,379.763 107.016,380.182C93.587,380.735 74.505,374.029 74.505,374.029C74.505,374.029 94.922,395.414 112.526,399.489C130.215,405.852 137.884,402.752 137.884,402.752C137.884,402.752 147.633,403.406 147.325,400.506C150.651,387.603 147.873,372.299 147.873,372.299L140.971,351.594ZM122.071,366.834C122.071,366.834 126.056,356.246 126.579,344.031C126.808,329.685 120.402,310.314 120.402,310.314C120.402,310.314 116.678,333.072 110.039,339.18C102.357,339.328 89.771,337.888 89.771,337.888C89.771,337.888 81.956,336.576 72.223,330.958C58.928,324.309 36.734,303.157 36.734,303.157C36.734,303.157 54.702,345.399 74.19,354.179C84.33,362.954 122.071,366.834 122.071,366.834ZM373.551,299.441L375.776,297.773L377.556,295.214L378.224,292.766L380.226,289.652L383.341,289.652L385.566,290.987L386.901,292.989L386.122,300.554L385.566,303.557L383.897,305.893L382.451,309.453L381.116,312.791L380.004,315.906L379.336,317.574L378.557,319.577L375.887,323.137L373.774,326.363L373.996,317.686L373.551,313.681L373.551,299.441ZM95.784,320.741C95.784,320.741 98.996,311.983 103.859,298.82C107.452,285.285 107.674,270.364 107.674,270.364L87.799,294.36C87.799,294.36 64.454,286.35 55.247,276.043C40.956,261.547 27.601,238.141 27.601,238.141C27.601,238.141 34.089,286.181 53.001,303.466C72.385,318.048 95.784,320.741 95.784,320.741ZM478.79,266.29L481.015,268.292L483.462,269.182L486.688,271.407L489.469,273.187L491.249,275.857L492.807,278.972L493.697,281.642L496.144,283.867L497.59,282.643L498.147,279.417L502.152,280.641L503.931,282.532L505.489,283.756L505.266,281.197L503.931,276.97L500.705,271.852L497.924,270.295L493.919,267.402L490.137,266.29L486.577,265.4L481.571,264.955L478.79,266.29ZM457.431,272.965L456.318,252.273L454.761,248.046L454.093,246.043L452.536,244.041L451.646,242.038L448.531,241.148L446.084,241.371L445.416,243.818L444.304,246.043L444.304,253.385L446.084,254.943L448.309,256.723C448.309,256.723 448.531,257.835 448.531,258.948L448.531,265.177L449.866,269.405L451.868,271.63L453.648,275.19L455.428,276.302L458.988,277.192L462.103,279.639L464.328,281.197L467.665,281.642L471.67,280.307L471.67,277.192L466.775,275.635L462.993,274.077L460.991,273.855L457.431,272.965ZM81.358,273.736C81.358,273.736 91.525,259.9 95.402,250.205C100.497,236.425 100.695,226.754 100.695,226.754C100.695,226.754 97.35,235.006 90.577,239.206C86.987,244.595 78.911,246.416 78.911,246.416C78.911,246.416 78.214,248.488 66.503,237.446C50.029,221.906 33.081,188.132 33.081,188.132C33.081,188.132 30.711,229.633 46.712,249.108C64.868,267.679 81.358,273.736 81.358,273.736ZM470.78,240.258L470.558,243.596L469.668,247.378L468.11,249.826L466.33,252.495L464.55,255.61L462.548,258.28L460.323,260.95L458.543,263.398L459.878,264.732L461.658,266.29L462.548,268.737L463.438,270.962L467.665,270.74L470.335,269.627L471.225,267.847L471.225,263.175L473.45,261.618L475.897,260.283L477.677,258.058L475.008,256.945L473.895,254.943L473.895,245.376L472.56,243.151L470.78,240.258ZM473.45,215.117L473.45,219.344L474.563,220.902L474.563,224.239L473.45,226.019L473.45,230.914L472.115,233.139L473.673,235.141L475.008,237.811L477.01,239.146L478.567,240.036L479.235,241.371L479.68,244.931L480.57,246.933L482.572,246.933L483.24,245.153L483.907,242.261L483.907,240.036L482.572,237.811L482.35,235.364L481.46,234.029L481.46,231.359L479.012,228.911L475.897,224.461L475.23,217.564L473.45,215.117ZM80.124,224.751C80.124,224.751 96.6,211.274 101.08,200.228C105.823,188.542 107.371,183.012 107.371,183.012L107.074,183.53C107.074,183.53 91.467,194.605 80.757,192.654C68.673,176.66 55.426,142.817 55.426,142.817C55.426,142.817 45.17,171.345 56.135,192.781C66.928,213.878 80.124,224.437 80.124,224.437L80.124,224.751ZM322.823,172.176L321.933,169.951L323.268,166.391L324.603,163.721L325.271,160.384L328.83,159.939L331.723,160.94L333.058,162.386L334.615,164.389L337.73,167.726L337.73,171.063L339.955,171.953C342.483,167.001 341.587,169.58 342.402,168.394L343.737,170.618L343.96,173.956L345.962,175.291L347.742,174.623L348.076,172.065L350.19,171.175L352.86,173.066L355.974,175.736L359.979,175.513L361.759,177.738L361.759,180.631L358.199,185.748L353.972,185.748L346.852,186.082L340.845,184.747L339.065,181.076L337.73,178.183L335.06,174.846L331.278,172.398L328.163,172.176L322.823,172.176ZM486.8,153.709L485.242,155.712L485.465,159.716L485.687,163.276L486.355,165.724L486.8,168.394L487.245,172.176L485.465,175.513L482.572,177.961L480.57,178.628L479.235,179.518L478.79,180.853L481.015,183.523L482.572,185.08L484.575,183.523L484.797,182.188L488.135,181.521L491.249,182.411L493.029,179.296L494.587,175.736L495.032,172.843L493.697,169.951L492.139,167.059L491.694,163.944L490.582,160.606L490.359,157.936L489.025,154.822L486.8,153.709ZM88.747,176.83C88.747,176.83 95.033,172.111 104.497,164.014C113.005,156.737 119.453,143.47 119.453,143.47C119.453,143.47 114.266,146.964 108.075,149.372C102.415,151.571 95.712,151.761 95.712,151.761C95.712,151.761 99.645,161.036 95.509,151.38C89.228,136.723 88.692,102.238 88.692,102.238C88.692,102.238 78.575,118.104 77.14,140.149C76.247,165.907 88.747,176.83 88.747,176.83ZM316.017,124.486L317.905,127.318L317.905,129.678L319.792,131.565L320.264,133.768C320.264,133.768 321.366,134.869 321.366,135.499L321.366,137.386L319.95,138.488L318.377,139.274L316.331,139.904L312.87,139.432L309.881,138.96C309.881,138.96 308.15,138.96 308.15,138.173C308.15,137.386 307.678,135.971 307.678,135.971L309.094,135.027L311.14,132.981L313.814,132.037L314.443,129.206L313.971,127.475L314.915,125.587L316.017,124.486ZM129.592,124.062C140.11,119.408 144.606,113.958 145.555,112.684C145.1,112.791 144.874,112.844 144.474,112.936C140.238,113.913 125.569,112.472 119.23,111.78C117.902,97.347 128.031,62.545 128.031,62.545C128.031,62.545 107.398,86.029 104.133,106.407C101.163,124.949 104.973,132.957 104.973,132.957C104.973,132.957 119.796,131.844 129.592,124.062ZM262.973,102.536L261.193,103.203L258.968,105.206L256.743,108.766L256.076,110.546L252.516,111.881L248.066,115.44L242.059,120.113L240.056,122.56L240.056,126.565L244.728,130.125L249.178,131.237L251.403,127.233L253.628,122.783L255.408,116.998L257.856,112.548L261.638,111.213L263.64,107.653L264.308,102.758L262.973,102.536ZM165.525,88.92C180.376,83.818 185.776,77.161 185.776,77.161C185.776,77.161 175.503,77.109 169.418,76.157C165.336,75.519 162.96,74.851 162.83,74.814C162.85,74.605 162.929,73.426 163.242,67.904C163.772,58.477 173.9,43.313 173.9,43.313C173.9,43.313 158.433,47.957 147.903,60.57C144.246,64.951 139.706,74.205 136.997,78.613C130.991,93.444 131.68,97.177 131.68,97.177C131.68,97.177 152.711,96.016 165.525,88.92ZM162.83,74.814L162.824,74.812C162.824,74.812 162.822,74.904 162.83,74.814ZM225.779,50.913C243.655,36.252 248.357,28.125 248.357,28.125C248.357,28.125 229.275,30.368 220.566,35.156C209.726,41.117 205.021,41.727 205.021,41.727L207.281,30.735C207.281,30.735 187.444,40.812 180.588,52.076C173.594,63.562 174.564,66.513 174.564,66.513C174.564,66.513 210.97,63.054 225.779,50.913Z" style="fill:rgb(209,173,148);"/>
                    </g>
                </g>
            </g>
        </g>
    </g>
</svg>
