<svg xmlns="http://www.w3.org/2000/svg" xml:space="preserve" style="fill-rule:evenodd;clip-rule:evenodd;stroke-linejoin:round;stroke-miterlimit:2" viewBox="0 0 256 256"><path d="M0 0h256v256H0z" style="fill:none"/><g><circle cx="128" cy="128" r="128"/><path d="M128 0c70.645 0 128 57.355 128 128s-57.355 128-128 128S0 198.645 0 128 57.355 0 128 0m0 8C61.77 8 8 61.77 8 128s53.77 120 120 120 120-53.77 120-120S194.23 8 128 8" style="fill:#666"/><path d="M1629.67 32.35h.72v.204h-.72zm1.53-.948h.25q.03.372.18.648c.09.184.23.28.41.288v.204c-.17.008-.31.104-.41.288q-.15.276-.18.66h-.25a1.8 1.8 0 0 0-.19-.66c-.1-.184-.23-.28-.4-.288v-.204c.17-.008.31-.104.41-.288q.135-.276.18-.648m2.3-3.096.4-.024v9.048h-2.7v-3.48h.26v1.992c0 .216.04.378.13.486s.21.162.35.162c.3 0 .54-.18.74-.54q.285-.48.48-1.512c.13-.608.22-1.444.28-2.508q.06-1.332.06-3.624" style="fill:#bb81e4;fill-rule:nonzero" transform="translate(-30547.1 -488.379)scale(18.7887)"/></g></svg>